<?xml version="1.0" encoding="UTF-8"?><svg id="Camada_2" xmlns="http://www.w3.org/2000/svg" viewBox="0 0 1140.58 124"><defs><style>.cls-1{fill:none;stroke:#7a1213;stroke-linecap:round;stroke-miterlimit:10;stroke-width:2px;}.cls-2{fill:#7a1213;stroke-width:0px;}</style></defs><g id="Camada_1-2"><path class="cls-2" d="M1140.58,90.55v-34.03c0-3.8-3.08-6.89-6.88-6.89h-34.03c-3.8,0-6.88,3.08-6.88,6.89v34.03c0,3.8,3.08,6.89,6.88,6.89h27.05c.4,1.6.65,3.38.59,5.31-.27,8.76-6.53,16.88-15.93,21.24,2.89-.59,16.04-3.6,23.9-15.93,3.96-6.22,5-12.34,5.31-15.93"/><path class="cls-2" d="M1087.47,90.55v-34.03c0-3.8-3.08-6.89-6.88-6.89h-34.03c-3.8,0-6.88,3.08-6.88,6.89v34.03c0,3.8,3.08,6.89,6.88,6.89h27.05c.4,1.6.65,3.38.59,5.31-.27,8.76-6.53,16.88-15.93,21.24,2.89-.59,16.04-3.6,23.9-15.93,3.96-6.22,5-12.34,5.31-15.93"/><path class="cls-1" d="M975,88H48c-25.96,0-47-21.04-47-47V1"/><circle class="cls-2" cx="988.47" cy="87.63" r="2.13"/><circle class="cls-2" cx="1001.63" cy="87.63" r="2.13"/><circle class="cls-2" cx="1014.79" cy="87.63" r="2.13"/></g></svg>