<?xml version="1.0" encoding="UTF-8"?><svg id="Camada_2" xmlns="http://www.w3.org/2000/svg" viewBox="0 0 1139.33 125.36"><defs><style>.cls-1{fill:none;stroke:#7a1213;stroke-linecap:round;stroke-miterlimit:10;stroke-width:2px;}.cls-2{fill:#7a1213;stroke-width:0px;}</style></defs><g id="Camada_1-2"><path class="cls-2" d="M0,33.44v34.03c0,3.8,3.08,6.89,6.88,6.89h34.03c3.8,0,6.88-3.08,6.88-6.89v-34.03c0-3.8-3.08-6.89-6.88-6.89H13.87c-.4-1.6-.65-3.38-.59-5.31.27-8.76,6.53-16.88,15.93-21.24-2.89.59-16.04,3.6-23.9,15.93C1.35,22.15.31,28.27,0,31.87"/><path class="cls-2" d="M53.11,33.44v34.03c0,3.8,3.08,6.89,6.88,6.89h34.03c3.8,0,6.88-3.08,6.88-6.89v-34.03c0-3.8-3.08-6.89-6.88-6.89h-27.05c-.4-1.6-.65-3.38-.59-5.31.27-8.76,6.53-16.88,15.93-21.24-2.89.59-16.04,3.6-23.9,15.93-3.96,6.22-5,12.34-5.31,15.93"/><path class="cls-1" d="M165.33,38.86h926c25.96,0,47,21.04,47,47v38.5"/><circle class="cls-2" cx="124.8" cy="38.99" r="2.13"/><circle class="cls-2" cx="137.96" cy="38.99" r="2.13"/><circle class="cls-2" cx="151.12" cy="38.99" r="2.13"/></g></svg>