<?xml version="1.0" encoding="UTF-8"?><svg id="Camada_2" xmlns="http://www.w3.org/2000/svg" xmlns:xlink="http://www.w3.org/1999/xlink" viewBox="0 0 868.5 181"><defs><style>.cls-1{fill:url(#Gradiente_sem_nome_7560);}.cls-1,.cls-2{stroke-width:0px;}.cls-2{fill:none;}.cls-3{clip-path:url(#clippath);}</style><clipPath id="clippath"><rect class="cls-2" x="0" y="0" width="868.5" height="181"/></clipPath><linearGradient id="Gradiente_sem_nome_7560" x1="1058.08" y1="-810.51" x2="2209.78" y2="-810.51" gradientTransform="translate(-1119.11 1341.02) rotate(-12.15)" gradientUnits="userSpaceOnUse"><stop offset="0" stop-color="#fff"/><stop offset="1" stop-color="#e4262a"/></linearGradient></defs><g id="Camada_1-2"><g class="cls-3"><path class="cls-1" d="M-77.7,105.11h0c177.06-23.1,318.04-15.06,416.23-2.7,18.05,2.27,276.56,35.14,439.9-17.16,16.2-5.19,67.54-21.63,66.57-39.76-1.04-19.41-61.41-29.58-61-31,.46-1.58,76.67,8.79,78.75,32.88,1.56,17.94-38.17,38.22-50.65,43.31-58.5,23.88-110.58,37.84-416.92,39.73-306.34,1.89-446.32,61.48-446.32,61.48-23.72,8.76-69.05,29.53-104.25,75.96-72.52,95.67-36.2,213.5-32.03,226.27-7.81-8.83-81.6-95.26-55.91-211.39,18.56-83.88,82.05-151.73,165.62-177.63Z"/></g></g></svg>