<svg xmlns="http://www.w3.org/2000/svg" viewBox="0 0 171.17 222.81"><defs><style>.cls-1{opacity:0.17;}.cls-2{fill:#96adbc;}.cls-3{fill:#0071bc;}.cls-4{opacity:0.45;}.cls-5{fill:#004085;}.cls-6{fill:none;}.cls-7{fill:#fff;}</style></defs><title>icon-click-2</title><g id="Camada_2" data-name="Camada 2"><g id="Layer_1" data-name="Layer 1"><g class="cls-1"><path class="cls-2" d="M52.65,105.31a52.66,52.66,0,1,1,52.66-52.66A52.71,52.71,0,0,1,52.65,105.31ZM52.65,2a50.66,50.66,0,1,0,50.66,50.65A50.71,50.71,0,0,0,52.65,2Z"/></g><g class="cls-1"><path class="cls-3" d="M52.65,92.55a39.9,39.9,0,1,1,39.9-39.9A39.94,39.94,0,0,1,52.65,92.55Zm0-77.79a37.9,37.9,0,1,0,37.9,37.89A37.94,37.94,0,0,0,52.65,14.76Z"/></g><g class="cls-4"><path class="cls-5" d="M52.65,79.87A27.22,27.22,0,1,1,79.87,52.65,27.25,27.25,0,0,1,52.65,79.87Zm0-52.43A25.22,25.22,0,1,0,77.87,52.65,25.24,25.24,0,0,0,52.65,27.44Z"/></g><path class="cls-3" d="M52.65,69.8A17.15,17.15,0,1,1,69.8,52.65,17.16,17.16,0,0,1,52.65,69.8Zm0-32.29A15.15,15.15,0,1,0,67.8,52.65,15.15,15.15,0,0,0,52.65,37.51Z"/><path class="cls-6" d="M144.21,93.15l-.89.12c-5.28.73-8.5,7.34-7.18,14.77l.55,6.4-4.86-17.18c-2-7-9-11.23-15.65-9.35h0c-6.65,1.89-10.42,9.12-8.43,16.16q1.52,6.15,3,12.29-4.1-13.78-8.17-27.58c-1.93-6.84-8.78-10.9-15.29-9.06h0c-6.51,1.85-10.21,8.89-8.28,15.73l3.72,14.09L65.62,51.07c-2-7.1-9.06-11.31-15.75-9.42s-10.49,9.18-8.48,16.28l27.15,95.92L36.25,128.47a10.27,10.27,0,0,0-15.79,3.07l-.56,1a14.86,14.86,0,0,0,3.68,18.38h0L82.9,207.23l9.42,9.59a9.54,9.54,0,0,0,9.24,2.54l59.82-15.83A9,9,0,0,0,168,194l-1.63-15.61,1.17-15.55c.37-5-.68-9.32-1.77-14.3l-10.62-42.63C153.82,98.44,149.49,92.43,144.21,93.15Z"/><path class="cls-7" d="M99.13,222.81a12.69,12.69,0,0,1-9-3.79l-9.42-9.6L21.53,153.28A17.88,17.88,0,0,1,17.17,131l.56-1a13.41,13.41,0,0,1,20.46-4L62.9,145.42,38.37,58.78a16.82,16.82,0,0,1,1.21-12.39A15.27,15.27,0,0,1,49,38.64c8.34-2.37,17.15,2.83,19.63,11.58l9.53,32.5A15,15,0,0,1,98.29,78.3a16.27,16.27,0,0,1,7.35,9.63l1,3.45a15.14,15.14,0,0,1,20.7-4.83,16.68,16.68,0,0,1,7.4,9.58,14.86,14.86,0,0,1,.94-1.48,10.71,10.71,0,0,1,7.2-4.48l.88-.12c6.72-.94,12.64,5.3,14.43,15.16L169,148.73c1,4.71,2,9.15,1.63,14.29l-1.14,15.27,1.6,15.33a12,12,0,0,1-8.93,12.94l-59.82,15.83A12.73,12.73,0,0,1,99.13,222.81ZM29.48,129.15a6.4,6.4,0,0,0-1.31.13,7.36,7.36,0,0,0-5,3.8l-.56,1a11.8,11.8,0,0,0,2.89,14.38l.22.19L85.06,205l9.5,9.68a6.43,6.43,0,0,0,6.19,1.7l59.82-15.83a5.79,5.79,0,0,0,4.3-6.23l-1.65-15.89,1.18-15.82c.31-4.23-.53-8.05-1.5-12.48l-.2-.92-10.65-42.75c-1.08-6.11-4.35-10.57-7.42-10.15h0l-.88.12a4.39,4.39,0,0,0-3,2c-1.6,2.19-2.17,5.61-1.55,9.15l0,.28.55,6.4-6.14,1.12-4.86-17.18a10.41,10.41,0,0,0-4.67-6.18,8.89,8.89,0,0,0-12.64,3.58,10.43,10.43,0,0,0-.73,7.71l3.06,12.39-6,1.64L99.62,89.67a10,10,0,0,0-4.53-6,8.74,8.74,0,0,0-6.91-1c-4.83,1.37-7.57,6.69-6.11,11.86l3.74,14.14-6,1.68L62.61,52c-1.54-5.45-6.87-8.7-11.89-7.28a9.07,9.07,0,0,0-5.58,4.62,10.58,10.58,0,0,0-.74,7.79L74.18,162.27,34.31,130.93A7.82,7.82,0,0,0,29.48,129.15Z"/></g></g></svg>