<?xml version="1.0" encoding="UTF-8"?><svg id="Camada_2" xmlns="http://www.w3.org/2000/svg" viewBox="0 0 134.67 134.67"><defs><style>.cls-1{fill:#e4262a;stroke-width:0px;}.cls-2{fill:none;stroke:#e4262a;stroke-dasharray:0 0 .1 4.02;stroke-linecap:round;stroke-linejoin:round;}</style></defs><g id="Desktop"><path class="cls-1" d="M67.39,134.67c-4.67,0-9.38-.5-14-1.48-8.55-1.81-16.55-5.2-23.76-10.07-7.47-5.04-13.77-11.46-18.72-19.08-4.96-7.62-8.27-15.98-9.85-24.85-1.53-8.57-1.38-17.25.43-25.8,1.81-8.55,5.2-16.55,10.07-23.76,5.04-7.47,11.46-13.77,19.08-18.72,7.62-4.96,15.98-8.27,24.85-9.85,3.9-.7,7.87-1.05,11.8-1.05,4.67,0,9.38.5,14,1.48,8.55,1.81,16.55,5.2,23.76,10.07,7.47,5.04,13.77,11.46,18.72,19.08,4.96,7.62,8.27,15.98,9.85,24.85,1.53,8.57,1.38,17.25-.43,25.8-1.81,8.55-5.2,16.55-10.07,23.76-5.04,7.47-11.46,13.77-19.08,18.72-7.62,4.95-15.98,8.27-24.85,9.85-3.9.7-7.87,1.05-11.8,1.05ZM67.25,13.37c-10.43,0-20.58,3.01-29.35,8.71C12.95,38.31,5.85,71.81,22.08,96.77c9.99,15.36,26.94,24.53,45.34,24.54h0c10.43,0,20.58-3.01,29.34-8.71,12.07-7.85,20.36-19.95,23.35-34.07,2.99-14.12.32-28.55-7.53-40.62-9.99-15.36-26.94-24.54-45.34-24.54Z"/><circle class="cls-2" cx="67.33" cy="67.33" r="49.9"/></g></svg>