<?xml version="1.0" encoding="UTF-8"?><svg id="Camada_2" xmlns="http://www.w3.org/2000/svg" viewBox="0 0 1920 581"><defs><style>.cls-1{fill:#fff;}.cls-2{opacity:.2;}.cls-3{fill:none;}</style></defs><g id="Desktop"><g class="cls-2"><path class="cls-3" d="m978.32,525.68c-23.17,8.55-47.05,16.43-70.14,24.06-29.29,9.65-59.55,19.66-89.14,31.26h116.89c8.12-2.91,16.21-5.77,24.22-8.6,23.1-8.15,47-16.59,70.14-25.69,211.1-82.88,414.12-126.84,610.43-169.34,96.75-20.95,190.36-41.22,279.28-65.38v-8.71c-103.54,27.33-213.8,47.94-328.39,69.35-197.95,36.97-402.65,75.23-613.29,153.04Z"/><path class="cls-3" d="m872.9,479.57c-23.15,7.5-46.93,14.28-69.93,20.86-31.37,8.96-63.82,18.24-95.44,29.48-44.19,15.68-85.86,32.65-125.31,51.09h111.47c21.95-9.43,44.56-18.5,67.87-27.25,30.66-11.46,62.08-21.11,92.47-30.46,23.33-7.17,47.46-14.58,70.91-22.71,210.24-72.88,416.61-105.44,616.2-136.92,133.23-21.01,260.69-41.12,378.85-72.07v-6.12c-133.1,35.32-278.24,54.07-429.39,73.59-200.81,25.92-408.47,52.73-617.71,120.52Z"/><path class="cls-3" d="m187.61,177.62c30.73-2.86,63.5-4.32,97.29-4.32,171.32,0,360.3,37.3,543.07,73.36,99.71,19.68,201.23,39.71,301.58,54.16,31.02,3.04,62.09,5.89,93.08,8.39,52.37,3.54,104.65,6.33,156,7.57,16.65.29,33.21.47,49.62.47,26.21,0,52.46-.36,78.67-1.23,165.23-17.59,300.98-74.47,413.08-173.83V0S0,0,0,0v189.62c58.07-7.85,119.49-11.78,187.61-12Z"/><path class="cls-3" d="m820.21,456.49c-23.39,7.08-47.37,13.4-70.56,19.53-31.84,8.42-64.77,17.13-96.83,27.89-66.63,22.37-127.58,47.88-183.78,77.1h108.11c40.74-19.22,83.86-36.87,129.68-53.13,31.69-11.27,64.16-20.53,95.57-29.51,22.98-6.58,46.74-13.37,69.86-20.84,209.42-67.85,417.17-94.67,618.08-120.61,152.28-19.66,297.13-38.36,429.65-73.48v-5.53c-147.53,40.57-310.27,57-480.54,74.19-202.05,20.42-410.97,41.53-619.25,104.39Z"/><path class="cls-3" d="m1535.95,314.84c4.01-.19,8.01-.4,12.02-.62,8.51-.53,17.03-1.13,25.56-1.81.94-.11,1.89-.22,2.83-.33,133.62-22.58,247.11-71.73,343.64-149.17v-17.7c-45.36,40.02-94.5,73.04-147.87,99.49-70.72,35.05-148.77,58.29-236.17,70.14Z"/><path class="cls-3" d="m925.63,502.62c-23.47,8.15-47.63,15.58-70.98,22.75-30.36,9.33-61.75,18.99-92.35,30.41-21.63,8.11-42.66,16.51-63.12,25.22h113.99c1.04-.41,2.08-.83,3.12-1.24,30.28-11.96,61.26-22.19,91.23-32.08,23.08-7.61,46.94-15.49,70.08-24.03,210.8-77.88,415.58-116.14,613.62-153.14,114.75-21.44,225.14-42.07,328.77-69.47v-7.22c-118.09,30.89-245.43,50.98-378.53,71.97-199.5,31.46-405.79,64.01-615.85,136.82Z"/><path class="cls-3" d="m714.77,410.43c-22.92,5.89-46.36,11.11-69.01,16.16-33.7,7.5-68.56,15.27-102.4,25.39-109.56,32.76-203.9,74.99-286.93,129.02h99.74c71.61-41.98,151.29-76.55,241.26-105.06,33-10.48,66.89-18.73,99.66-26.7,22.95-5.58,46.68-11.36,69.84-17.83,207.26-57.99,417.31-73.42,620.45-88.36,191.78-14.11,372.16-27.38,532.62-73.64v-5.36c-176.39,55.01-375.01,64.27-584.74,74.03-203.91,9.48-414.76,19.3-620.49,72.36Z"/><path class="cls-3" d="m1548.51,318.8c-3.19.43-6.39.85-9.6,1.25,134.36-8.27,263.08-25.4,381.09-65.66v-4.49c-6.21,2.31-12.47,4.57-18.8,6.77-111.48,38.65-231.71,55.17-352.69,62.13Z"/><path class="cls-3" d="m1678.06,299.56c82.3-14.02,164.05-38.16,241.94-78.54v-9.28c-17.88,10.24-36.26,19.74-55.19,28.49-57.13,26.42-118.64,46.05-186.76,59.33Z"/><path class="cls-3" d="m1672.24,302.15c85.4-12.38,168.82-34.01,247.76-70.56v-8.42c-11.32,5.81-22.82,11.34-34.54,16.6-63.98,28.67-134.03,49.28-213.22,62.38Z"/><path class="cls-3" d="m1669.31,299.13c84.1-15.8,169.32-43.45,250.69-90.61v-9.94c-25,16.01-51.05,30.42-78.18,43.26-52.61,24.89-109.87,43.93-172.51,57.28Z"/><path class="cls-3" d="m1686.66,303.59c81.89-10.95,159.97-28.33,233.34-55.64v-5.97c-2.46,1.02-4.92,2.04-7.4,3.03-73.1,29.33-149.66,47.47-225.94,58.59Z"/><path class="cls-3" d="m1494.07,324.72c-32.73,2.71-66.69,4.07-101.99,4.07-4.31,0-8.62-.04-12.94-.08-31.97.81-64.24,1.46-96.77,2.11-204.58,4.08-416.11,8.31-620.31,56.51-23,5.43-46.47,10.19-69.17,14.81-34.33,6.97-69.84,14.18-104.29,23.85-129.79,36.55-238.29,86.99-331.82,155.01h95.72c83.87-55.02,179.28-97.92,290.27-131.1,33.91-10.14,68.8-17.91,102.54-25.43,22.64-5.04,46.06-10.25,68.95-16.13,205.93-53.11,416.9-62.93,620.91-72.43,206.26-9.6,407.02-18.96,584.84-74.87v-3.85c-6.27,2.13-12.59,4.2-18.99,6.22-125.94,39.75-262.78,54.53-406.94,61.31Z"/><path class="cls-3" d="m1644.31,300.6c104.94-22.37,195.98-61.53,275.69-118.86v-15.63c-39.94,31.94-82.71,59-128.57,81.41-45.73,22.36-94.6,40.01-147.12,53.08Z"/><path class="cls-3" d="m767.49,433.49c-23.19,6.49-46.95,12.26-69.91,17.85-32.74,7.97-66.59,16.2-99.52,26.67-88.47,28.04-166.96,61.95-237.61,103h103.93c57.32-30.07,119.58-56.25,187.78-79.16,32.12-10.78,65.08-19.49,96.96-27.93,23.18-6.11,47.14-12.46,70.49-19.51,208.47-62.93,417.5-84.04,619.64-104.46,171.73-17.35,334.17-33.77,480.75-73.87v-5.2c-161.98,47.07-342.61,60.35-532.47,74.31-203.03,14.93-412.97,30.37-620.03,88.29Z"/><path class="cls-3" d="m1732.55,293.36c66.2-12.16,128.72-29.53,187.45-53.67v-6.5c-5.8,2.67-11.65,5.28-17.55,7.81-52.36,22.47-108.16,39.78-169.89,52.35Z"/><path class="cls-3" d="m1671.51,296.34c93.3-20.21,175.56-53.23,248.49-99.98v-12.91c-32.41,23.2-66.63,43.45-102.78,60.87-45.18,21.77-93.6,39.07-145.71,52.02Z"/><path class="cls-3" d="m337.17,277.02c20.01-2.21,40.7-4.49,61.09-7.16,58.62-7.62,120.75-11.34,189.94-11.34,121.26,0,247.6,11.74,371.4,24.65-6.65-1.13-13.3-2.26-19.95-3.4-148.69-19.26-301.67-38.35-445.92-38.35-53.05,0-101.44,2.48-147.93,7.58-19.27,2.11-38.78,3.92-57.66,5.65-42.24,3.9-85.91,7.93-128.01,15.63C102.9,280.74,49.68,294.57,0,311.98v48.03c64.72-28.56,135.8-50.33,214.49-65.97,40.4-7.98,82.22-12.57,122.68-17.02Z"/><path class="cls-3" d="m1408.32,325.55c-25.4,0-51.08-.65-76.95-1.84-.04,0-.07,0-.11,0-11.27,0-22.65-.02-34.05-.06,27.45,1.64,54.69,2.65,81.65,2.91,12.45-.32,24.86-.66,37.25-1.05-2.6.01-5.18.04-7.8.04Z"/><path class="cls-3" d="m1726.91,581c66.68-33.98,131.19-65.4,193.09-95.09v-29.98c-85.92,38.02-177.18,78.92-272.33,125.08h79.25Z"/><path class="cls-3" d="m1884.94,581c11.77-6.64,23.45-13.2,35.06-19.69v-37.11c-35.19,18.25-71.19,37.15-107.93,56.8h72.87Z"/><path class="cls-3" d="m287.95,252.5c18.86-1.75,38.37-3.54,57.62-5.65,46.56-5.12,95.02-7.6,148.15-7.6,128.73,0,264.35,15.19,397.67,32.14-1.07-.19-2.13-.37-3.2-.56-161.86-24.77-328.53-49.6-483.33-49.6-38.98,0-76.6,1.59-111.79,4.71-18.15,1.62-36.53,2.97-54.3,4.29-44.05,3.27-89.58,6.65-133.37,14.04C68.85,250.35,33.73,257.98,0,267.18v42.61c49.4-17.35,102.33-31.14,159.76-41.64,42.18-7.72,85.91-11.75,128.19-15.65Z"/><path class="cls-3" d="m1241.84,317.63c-9.85-.29-19.68-.58-29.49-.89,17.18,1.74,34.29,3.28,51.34,4.6,9.33.05,18.69.09,28.05.13-16.57-1.09-33.21-2.38-49.9-3.84Z"/><path class="cls-3" d="m1642.71,581c96.96-47.13,189.88-88.77,277.29-127.44v-26.64c-111.66,45.49-232.95,94.93-360.26,154.08h82.98Z"/><path class="cls-3" d="m1920,581v-17.23c-10.17,5.68-20.4,11.43-30.69,17.23h30.69Z"/><path class="cls-3" d="m1807.52,581c38.32-20.52,75.84-40.21,112.48-59.22v-33.49c-60.43,28.99-123.36,59.65-188.36,92.71h75.88Z"/><path class="cls-3" d="m1134.76,306.25c-9.76-1.2-19.53-2.43-29.3-3.7-6.76-.55-13.51-1.09-20.24-1.64,10.09,1.46,20.18,2.88,30.26,4.25,2.16.12,4.33.25,6.5.37,4.25.24,8.52.48,12.79.73Z"/><path class="cls-3" d="m1045.78,294.42c-3.81-.4-7.61-.8-11.42-1.2,6.2.97,12.4,1.94,18.6,2.88,3.85.31,7.69.63,11.53.94-6.24-.86-12.48-1.74-18.72-2.62Z"/><path class="cls-3" d="m1169.83,310.38c-8.51-.47-17-.95-25.47-1.43,13.19,1.68,26.35,3.26,39.49,4.74,8.01.25,16.04.51,24.1.76-12.68-1.27-25.39-2.63-38.11-4.07Z"/><path class="cls-3" d="m190.31,203.74c16.33-.92,33.22-1.89,49.9-3.03,25.74-1.75,52.86-2.65,80.62-2.65,167.12,0,350.25,32.3,527.36,63.53,13.52,2.39,27.08,4.78,40.66,7.16,4.84.74,9.68,1.48,14.51,2.22,28.63,4.39,57.43,8.79,86.31,13.1,29.97,3.87,60.09,7.71,90.27,11.37-84.24-13.49-168.94-30.19-252.38-46.65-182.66-36.05-371.55-73.33-542.66-73.33-33.73,0-66.43,1.46-97.19,4.32C119.48,180,58.06,183.95,0,191.81v33.18c16.41-3.25,33.18-6.19,50.35-8.8,45.96-7.09,93.74-9.81,139.96-12.44Z"/><path class="cls-3" d="m238.63,228.08c17.76-1.32,36.13-2.69,54.27-4.3,35.25-3.12,72.93-4.71,111.97-4.71,127.31,0,262.6,16.77,396.63,36.5-162.42-28.44-328.25-55.35-480.66-55.35-27.71,0-54.8.9-80.48,2.65-16.69,1.14-33.58,2.1-49.92,3.04-46.16,2.61-93.9,5.34-139.76,12.42C33.46,220.94,16.58,223.92,0,227.24v37.55c33.38-9,68.31-16.53,105.06-22.65,43.88-7.41,89.47-10.78,133.56-14.06Z"/><path class="cls-3" d="m1451.79,322.57c-2.03.1-4.05.22-6.09.31,6.24-.16,12.43-.37,18.59-.62-4.15.12-8.31.23-12.5.31Z"/><path class="cls-3" d="m388.05,301.47c20.59-2.63,41.89-5.35,62.85-8.5,72.38-10.94,150.84-16.26,239.88-16.26,109.66,0,222.67,8.16,333.16,17.04-9.75-1.55-19.51-3.13-29.26-4.73-134.92-14.25-273.77-28.34-406.48-28.34-69.1,0-131.14,3.71-189.67,11.33-20.42,2.67-41.12,4.95-61.14,7.15-40.41,4.45-82.2,9.04-122.5,17.01C136.02,311.85,64.81,333.69,0,362.37v54.2c78.82-43.09,167.64-74.78,269.18-96.54,39.2-8.39,79.7-13.57,118.87-18.56Z"/><path class="cls-3" d="m1168.58,581h98.16c182.52-78.17,359.39-132.87,517.76-181.84,46.31-14.32,91.52-28.3,135.5-42.4v-14.92c-59.17,17.74-120.08,34.66-182.07,51.87-173.87,48.28-369.77,102.7-569.35,187.29Z"/><path class="cls-3" d="m1272.24,581h94.55c164.07-71.59,321.66-125.4,464.07-174.01,30.21-10.31,59.93-20.46,89.15-30.57v-17.38c-43.56,13.95-88.5,27.86-134.88,42.2-156.97,48.52-332.11,102.7-512.88,179.76Z"/><path class="cls-3" d="m1372.16,581h90.59c146.18-65.61,285.79-117.85,413.09-165.47,14.84-5.55,29.56-11.06,44.17-16.54v-20.3c-29,10.04-58.5,20.11-88.48,30.34-141.06,48.16-297,101.4-459.37,171.97Z"/><path class="cls-3" d="m1031.05,548.73c-23.18,9.11-47.09,17.55-70.21,25.71-6.13,2.16-12.31,4.35-18.51,6.56h112.74c9.34-3.65,18.67-7.38,27.86-11.21,211.08-87.79,412.03-137.39,606.37-185.34,79.34-19.59,156.54-38.65,230.69-59.71v-10.44c-89.01,24.09-182.67,44.36-278.84,65.18-196.24,42.5-399.16,86.43-610.11,169.24Z"/><path class="cls-3" d="m438.5,326.13c21.33-3.12,43.39-6.33,65.09-10.06,88.17-15.19,186.68-22.58,301.15-22.58,94.35,0,190.65,4.92,284.6,10.19-12.16-1.75-24.33-3.55-36.5-5.41-119.63-9.73-242.84-19.39-362.05-19.39-88.94,0-167.29,5.3-239.57,16.23-20.99,3.15-42.3,5.87-62.9,8.5-39.13,5-79.59,10.16-118.7,18.53C167.85,343.95,78.9,375.75,0,419.03v61.16c91.86-61.43,198.07-105.18,323.92-134.18,37.8-8.69,76.83-14.38,114.58-19.88Z"/><path class="cls-3" d="m1083.74,571.78c-7.53,3.14-15.15,6.21-22.79,9.22h102.12c201.34-85.78,399.01-140.7,574.31-189.38,62.99-17.49,123.94-34.42,182.62-51.96v-12.63c-74.17,20.98-151.32,40.04-230.21,59.51-194.25,47.96-395.12,97.54-606.05,185.24Z"/><path class="cls-3" d="m1467.98,581h86.63c129.2-60.18,252.24-110.31,365.39-156.41v-23.3c-14.34,5.38-28.8,10.79-43.43,16.26-125.99,47.14-264.05,98.77-408.59,163.45Z"/><path class="cls-3" d="m592.47,400.02c22.68-4.61,46.14-9.37,69.1-14.8,204.42-48.25,416.06-52.48,620.75-56.55,17.18-.34,34.32-.69,51.41-1.06-23.21-.9-46.59-2.29-70.11-4.11-11.54-.06-23.03-.13-34.39-.2-34-.2-69.14-.42-103.9-.42-167.88,0-346.59,5.01-516,41.37-22.73,4.9-45.88,9.15-68.28,13.27-35.31,6.48-71.82,13.2-107.22,22.53-149.04,39.32-270.18,97.84-372.73,180.95h92.01c94.27-69.05,203.75-120.15,334.91-157.08,34.53-9.69,70.07-16.91,104.44-23.9Z"/><path class="cls-3" d="m540.7,375.4c22.38-4.12,45.51-8.36,68.21-13.24,169.6-36.42,348.44-41.43,516.44-41.43,34.75,0,69.91.22,103.91.42,2.26.01,4.54.03,6.81.04-17.41-1.58-34.89-3.37-52.41-5.34-2.65-.08-5.3-.17-7.94-.25-77.92-2.46-158.48-5.01-237.91-5.01-151.97,0-273.09,9.74-381.15,30.63-22.32,4.34-45.03,8.06-66.99,11.69-36.42,6-74.09,12.2-110.56,21.2C227.05,411.65,103.9,470,0,554.6v26.4s57.72,0,57.72,0c103.23-84.2,225.25-143.38,375.59-183.03,35.48-9.35,72.03-16.07,107.38-22.57Z"/><path class="cls-3" d="m489.33,350.76c21.95-3.61,44.64-7.34,66.93-11.67,108.2-20.93,229.45-30.67,381.55-30.67,73.59,0,148.13,2.19,220.64,4.47-14.34-1.75-28.71-3.62-43.09-5.58-102.15-5.79-207.55-11.66-310.61-11.66-114.34,0-212.74,7.37-300.79,22.55-21.73,3.72-43.8,6.95-65.14,10.05-37.71,5.5-76.7,11.18-114.42,19.86C198.26,377.19,91.92,421.08,0,482.78v69.05c103.86-84.23,226.88-142.36,378.61-179.82,36.55-9.03,74.26-15.24,110.72-21.25Z"/><path class="cls-1" d="m1889.31,581c10.29-5.8,20.53-11.55,30.69-17.23v-2.46c-11.6,6.49-23.29,13.04-35.06,19.69h4.36Z"/><path class="cls-1" d="m1812.07,581c36.73-19.65,72.74-38.55,107.93-56.8v-2.42c-36.64,19-74.16,38.7-112.48,59.22h4.55Z"/><path class="cls-1" d="m1731.64,581c65-33.06,127.92-63.72,188.36-92.71v-2.38c-61.9,29.69-126.41,61.12-193.09,95.09h4.73Z"/><path class="cls-1" d="m1647.67,581c95.16-46.16,186.41-87.06,272.33-125.08v-2.36c-87.41,38.67-180.33,80.31-277.29,127.44h4.95Z"/><path class="cls-1" d="m1559.74,581c127.31-59.15,248.6-108.59,360.26-154.08v-2.33c-113.15,46.1-236.18,96.23-365.39,156.41h5.12Z"/><path class="cls-1" d="m1462.75,581h5.23c144.54-64.67,282.6-116.31,408.59-163.45,14.63-5.47,29.09-10.88,43.43-16.26v-2.3c-14.6,5.48-29.32,10.99-44.17,16.54-127.29,47.62-266.91,99.86-413.09,165.47Z"/><path class="cls-1" d="m1366.78,581h5.37c162.36-70.56,318.31-123.81,459.37-171.97,29.98-10.23,59.47-20.3,88.48-30.34v-2.27c-29.22,10.12-58.94,20.26-89.15,30.57-142.41,48.61-300,102.42-464.07,174.01Z"/><path class="cls-1" d="m1266.74,581h5.5c180.77-77.06,355.91-131.24,512.88-179.76,46.38-14.34,91.33-28.25,134.88-42.2v-2.28c-43.99,14.1-89.19,28.08-135.5,42.4-158.37,48.97-335.23,103.67-517.76,181.84Z"/><path class="cls-1" d="m1163.07,581h5.51c199.58-84.59,395.48-139.01,569.35-187.29,61.98-17.21,122.9-34.13,182.07-51.87v-2.18c-58.68,17.54-119.64,34.47-182.62,51.96-175.3,48.68-372.97,103.6-574.31,189.38Z"/><path class="cls-1" d="m1082.94,569.79c-9.2,3.83-18.52,7.56-27.86,11.21h5.87c7.64-3.02,15.26-6.08,22.79-9.22,210.93-87.7,411.8-137.28,606.05-185.24,78.88-19.47,156.04-38.52,230.21-59.51v-2.29c-74.15,21.06-151.35,40.12-230.69,59.71-194.34,47.95-395.29,97.55-606.37,185.34Z"/><path class="cls-1" d="m1030.29,546.72c-23.14,9.1-47.04,17.53-70.14,25.69-8.01,2.83-16.1,5.69-24.22,8.6h6.4c6.2-2.21,12.38-4.39,18.51-6.56,23.12-8.17,47.03-16.6,70.21-25.71,210.95-82.81,413.87-126.75,610.11-169.24,96.17-20.82,189.82-41.09,278.84-65.18v-2.31c-88.93,24.16-182.53,44.43-279.28,65.38-196.31,42.51-399.32,86.47-610.43,169.34Z"/><path class="cls-1" d="m977.6,523.65c-23.14,8.54-47,16.42-70.08,24.03-29.97,9.89-60.96,20.12-91.23,32.08-1.04.41-2.08.83-3.12,1.24h5.87c29.6-11.6,59.85-21.61,89.14-31.26,23.09-7.63,46.97-15.51,70.14-24.06,210.63-77.81,415.34-116.07,613.29-153.04,114.59-21.41,224.85-42.02,328.39-69.35v-2.24c-103.64,27.39-214.03,48.02-328.77,69.47-198.04,37-402.83,75.26-613.62,153.14Z"/><path class="cls-1" d="m924.95,500.58c-23.45,8.14-47.58,15.54-70.91,22.71-30.39,9.35-61.8,19.01-92.47,30.46-23.31,8.74-45.92,17.81-67.87,27.25h5.48c20.46-8.71,41.48-17.11,63.12-25.22,30.6-11.42,62-21.08,92.35-30.41,23.35-7.17,47.5-14.6,70.98-22.75,210.06-72.82,416.35-105.37,615.85-136.82,133.1-21,260.43-41.08,378.53-71.97v-2.24c-118.16,30.95-245.62,51.06-378.85,72.07-199.59,31.48-405.96,64.04-616.2,136.92Z"/><path class="cls-1" d="m872.27,477.51c-23.12,7.48-46.88,14.26-69.86,20.84-31.4,8.98-63.88,18.24-95.57,29.51-45.82,16.26-88.94,33.91-129.68,53.13h5.07c39.45-18.43,81.12-35.41,125.31-51.09,31.62-11.24,64.07-20.52,95.44-29.48,22.99-6.58,46.78-13.36,69.93-20.86,209.24-67.79,416.9-94.6,617.71-120.52,151.15-19.52,296.29-38.26,429.39-73.59v-2.03c-132.52,35.12-277.37,53.82-429.65,73.48-200.91,25.94-408.66,52.76-618.08,120.61Z"/><path class="cls-1" d="m819.61,454.41c-23.35,7.05-47.31,13.4-70.49,19.51-31.87,8.44-64.83,17.14-96.96,27.93-68.2,22.9-130.46,49.09-187.78,79.16h4.66c56.2-29.21,117.15-54.73,183.78-77.1,32.06-10.76,64.98-19.47,96.83-27.89,23.19-6.13,47.17-12.45,70.56-19.53,208.27-62.86,417.2-83.97,619.25-104.39,170.27-17.19,333.01-33.63,480.54-74.19v-1.81c-146.58,40.11-309.02,56.52-480.75,73.87-202.14,20.42-411.17,41.53-619.64,104.46Z"/><path class="cls-1" d="m766.93,431.41c-23.16,6.48-46.89,12.25-69.84,17.83-32.77,7.97-66.66,16.22-99.66,26.7-89.97,28.51-169.65,63.08-241.26,105.06h4.28c70.64-41.05,149.14-74.96,237.61-103,32.93-10.46,66.79-18.7,99.52-26.67,22.97-5.59,46.72-11.36,69.91-17.85,207.06-57.92,417-73.36,620.03-88.29,189.87-13.96,370.5-27.25,532.47-74.31v-1.48c-160.46,46.26-340.84,59.54-532.62,73.64-203.14,14.93-413.19,30.37-620.45,88.36Z"/><path class="cls-1" d="m714.25,408.34c-22.89,5.87-46.31,11.09-68.95,16.13-33.74,7.52-68.63,15.29-102.54,25.43-110.99,33.18-206.4,76.08-290.27,131.1h3.93c83.03-54.03,177.37-96.26,286.93-129.02,33.84-10.12,68.7-17.89,102.4-25.39,22.66-5.04,46.09-10.27,69.01-16.16,205.73-53.06,416.59-62.88,620.49-72.36,209.73-9.76,408.35-19.02,584.74-74.03v-2.99c-177.82,55.91-378.58,65.27-584.84,74.87-204.01,9.5-414.98,19.32-620.91,72.43Z"/><path class="cls-1" d="m592.88,402.15c22.7-4.62,46.18-9.38,69.17-14.81,204.2-48.2,415.74-52.43,620.31-56.51,32.53-.65,64.8-1.3,96.77-2.11-15.05-.14-30.19-.52-45.4-1.1-17.09.37-34.24.71-51.41,1.06-204.69,4.07-416.33,8.31-620.75,56.55-22.96,5.44-46.42,10.19-69.1,14.8-34.37,6.98-69.91,14.21-104.44,23.9-131.16,36.93-240.63,88.03-334.91,157.08h3.65c93.53-68.02,202.03-118.46,331.82-155.01,34.45-9.67,69.96-16.87,104.29-23.85Z"/><path class="cls-1" d="m1378.86,326.56c4.41.04,8.82.08,13.21.08,27.33,0,53.95-.86,79.9-2.55-18.24.85-36.86,1.32-55.87,1.42-12.38.38-24.8.73-37.25,1.05Z"/><path class="cls-1" d="m1494.07,324.72c144.16-6.78,281-21.56,406.94-61.31,6.39-2.02,12.72-4.09,18.99-6.22v-2.81c-118,40.26-246.72,57.38-381.09,65.66-14.69,1.85-29.63,3.41-44.85,4.67Z"/><path class="cls-1" d="m1331.36,323.71c-13.16-.61-26.37-1.37-39.63-2.24-9.36-.03-18.72-.08-28.05-.13,11.21.87,22.38,1.64,33.52,2.31,11.4.04,22.77.06,34.05.06.04,0,.07,0,.11,0Z"/><path class="cls-1" d="m1569.15,315.78c-6.82,1.08-13.7,2.08-20.64,3.02,120.98-6.96,241.21-23.48,352.69-62.13,6.33-2.2,12.59-4.45,18.8-6.77v-1.95c-73.37,27.32-151.45,44.69-233.34,55.64-39.42,5.75-78.76,9.62-117.51,12.18Z"/><path class="cls-1" d="m541.07,377.53c22.39-4.12,45.55-8.37,68.28-13.27,169.41-36.37,348.12-41.37,516-41.37,34.75,0,69.9.22,103.9.42,11.36.07,22.85.14,34.39.2-9.17-.71-18.36-1.48-27.56-2.32-2.27-.01-4.55-.03-6.81-.04-34-.2-69.15-.42-103.91-.42-167.99,0-346.84,5.01-516.44,41.43-22.7,4.88-45.84,9.13-68.21,13.24-35.35,6.5-71.9,13.22-107.38,22.57-150.34,39.66-272.37,98.83-375.59,183.03h3.39c102.56-83.11,223.7-141.63,372.73-180.95,35.4-9.33,71.91-16.05,107.22-22.53Z"/><path class="cls-1" d="m1207.94,314.45c-8.06-.25-16.09-.5-24.1-.76,9.52,1.07,19.02,2.09,28.5,3.05,9.81.3,19.64.6,29.49.89-11.28-.99-22.58-2.05-33.9-3.18Z"/><path class="cls-1" d="m489.67,352.91c21.95-3.63,44.66-7.36,66.99-11.69,108.07-20.89,229.18-30.63,381.15-30.63,79.43,0,160,2.55,237.91,5.01,2.64.08,5.29.17,7.94.25-8.4-.95-16.8-1.93-25.22-2.95-72.51-2.28-147.05-4.47-220.64-4.47-152.1,0-273.34,9.74-381.55,30.67-22.29,4.33-44.98,8.06-66.93,11.67-36.46,6.01-74.16,12.22-110.72,21.25C226.88,409.47,103.86,467.6,0,551.83v2.77c103.9-84.61,227.05-142.95,379.11-180.5,36.47-8.99,74.14-15.2,110.56-21.2Z"/><path class="cls-1" d="m1580.98,313.94c-1.47.21-2.94.42-4.41.63-2.47.41-4.94.82-7.42,1.22,38.75-2.57,78.09-6.44,117.51-12.18,76.27-11.12,152.83-29.25,225.94-58.59,2.48-.99,4.94-2.01,7.4-3.03v-2.28c-58.72,24.14-121.24,41.51-187.45,53.67-46.75,9.52-96.91,16.32-151.57,20.58Z"/><path class="cls-1" d="m1134.76,306.25c-4.27-.24-8.53-.48-12.79-.73-2.16-.12-4.33-.25-6.5-.37,9.63,1.31,19.26,2.58,28.88,3.8,8.47.48,16.97.95,25.47,1.43-11.68-1.32-23.37-2.7-35.07-4.14Z"/><path class="cls-1" d="m1535.95,314.84c-.32.04-.65.08-.97.13,4.33-.23,8.65-.48,12.99-.75-4,.22-8.01.43-12.02.62Z"/><path class="cls-1" d="m1593.87,312.37c-2.95.33-5.92.66-8.9.97-1.33.2-2.65.4-3.98.59,54.66-4.26,104.82-11.06,151.57-20.58,61.73-12.57,117.53-29.88,169.89-52.35,5.9-2.53,11.75-5.14,17.55-7.81v-1.6c-78.94,36.55-162.36,58.18-247.76,70.56-25.17,4.16-51.26,7.56-78.37,10.22Z"/><path class="cls-1" d="m438.8,328.25c21.34-3.11,43.42-6.33,65.14-10.05,88.05-15.18,186.45-22.55,300.79-22.55,103.06,0,208.47,5.88,310.61,11.66-8.67-1.18-17.34-2.39-26.02-3.64-93.95-5.27-190.25-10.19-284.6-10.19-114.46,0-212.97,7.39-301.15,22.58-21.7,3.73-43.76,6.93-65.09,10.06-37.75,5.5-76.79,11.18-114.58,19.88C198.07,375.01,91.86,418.75,0,480.19v2.59c91.92-61.7,198.26-105.59,324.38-134.66,37.72-8.69,76.71-14.36,114.42-19.86Z"/><path class="cls-1" d="m1593.87,312.37c27.11-2.66,53.21-6.06,78.37-10.22,79.19-13.09,149.24-33.7,213.22-62.38,11.72-5.25,23.22-10.79,34.54-16.6v-2.15c-77.89,40.37-159.64,64.51-241.94,78.54-26.98,5.26-54.99,9.52-84.19,12.81Z"/><path class="cls-1" d="m1064.5,297.04c-3.84-.31-7.68-.63-11.53-.94,10.76,1.64,21.51,3.24,32.26,4.8,6.74.55,13.48,1.1,20.24,1.64-13.65-1.78-27.31-3.61-40.97-5.5Z"/><path class="cls-1" d="m1153.36,306.31c-3.1-.42-6.2-.84-9.3-1.27-4.93-.54-9.87-1.09-14.8-1.65,8.04,1,16.07,1.97,24.1,2.92Z"/><path class="cls-1" d="m388.32,303.61c20.6-2.63,41.9-5.35,62.9-8.5,72.27-10.94,150.63-16.23,239.57-16.23,119.21,0,242.42,9.65,362.05,19.39-9.63-1.47-19.26-2.98-28.89-4.51-110.49-8.88-223.5-17.04-333.16-17.04-89.04,0-167.5,5.32-239.88,16.26-20.97,3.15-42.26,5.87-62.85,8.5-39.17,4.99-79.67,10.18-118.87,18.56C167.64,341.8,78.82,373.48,0,416.57v2.46c78.9-43.28,167.85-75.08,269.62-96.89,39.11-8.37,79.57-13.53,118.7-18.53Z"/><path class="cls-1" d="m1573.53,312.4c-8.53.68-17.05,1.29-25.56,1.81-4.33.27-8.66.52-12.99.75-2.98.4-5.97.78-8.97,1.15,14.33-.83,28.79-1.89,43.34-3.23,1.4-.16,2.79-.32,4.18-.49Z"/><path class="cls-1" d="m1587.82,312.92c-.95.14-1.9.28-2.85.43,2.98-.31,5.95-.64,8.9-.97,29.19-3.29,57.21-7.55,84.19-12.81,68.12-13.28,129.62-32.91,186.76-59.33,18.92-8.75,37.31-18.24,55.19-28.49v-3.22c-81.38,47.16-166.59,74.81-250.69,90.61-26.2,5.59-53.34,10.18-81.48,13.78Z"/><path class="cls-1" d="m1004.63,288.46c9.91,1.61,19.82,3.2,29.73,4.75,3.8.4,7.61.8,11.42,1.2-13.73-1.94-27.44-3.94-41.15-5.96Z"/><path class="cls-1" d="m337.4,279.16c20.02-2.21,40.72-4.49,61.14-7.15,58.53-7.61,120.57-11.33,189.67-11.33,132.71,0,271.56,14.09,406.48,28.34-11.7-1.92-23.4-3.88-35.09-5.85-123.79-12.9-250.13-24.65-371.4-24.65-69.19,0-131.32,3.72-189.94,11.34-20.4,2.67-41.09,4.95-61.09,7.16-40.46,4.45-82.28,9.04-122.68,17.02C135.8,309.68,64.72,331.45,0,360.01v2.36c64.81-28.68,136.02-50.53,214.9-66.2,40.3-7.97,82.09-12.56,122.5-17.01Z"/><path class="cls-1" d="m1526.01,316.12c-5.59.7-11.21,1.35-16.87,1.96,20.51-1.27,40.58-2.99,60.21-5.19-14.55,1.34-29.01,2.4-43.34,3.23Z"/><path class="cls-1" d="m1562.1,314.37c4.78-.73,9.54-1.5,14.27-2.3-.94.11-1.89.22-2.83.33-1.39.16-2.78.33-4.18.49-19.63,2.2-39.7,3.92-60.21,5.19-18.69,2-37.81,3.49-57.36,4.49,4.19-.08,8.35-.19,12.5-.31,33.78-1.36,66.37-3.97,97.81-7.89Z"/><path class="cls-1" d="m1587.82,312.92c28.14-3.6,55.28-8.2,81.48-13.78,62.64-13.36,119.91-32.39,172.51-57.28,27.14-12.84,53.18-27.25,78.18-43.26v-2.23c-72.93,46.75-155.19,79.78-248.49,99.98-26.89,6.68-54.76,12.2-83.69,16.58Z"/><path class="cls-1" d="m1129.26,303.39c4.94.56,9.87,1.11,14.8,1.65-21.32-2.96-42.71-6.18-64.12-9.6-30.18-3.66-60.3-7.5-90.27-11.37,46.43,6.92,93.07,13.54,139.59,19.32Z"/><path class="cls-1" d="m288.14,254.64c18.88-1.73,38.39-3.54,57.66-5.65,46.49-5.09,94.87-7.58,147.93-7.58,144.25,0,297.23,19.09,445.92,38.35-16.11-2.77-32.2-5.56-48.25-8.38-133.32-16.95-268.94-32.14-397.67-32.14-53.13,0-101.59,2.48-148.15,7.6-19.25,2.11-38.76,3.9-57.62,5.65-42.28,3.9-86.01,7.93-128.19,15.65C102.33,278.65,49.4,292.43,0,309.79v2.19c49.68-17.41,102.9-31.24,160.13-41.71,42.09-7.7,85.77-11.73,128.01-15.63Z"/><path class="cls-1" d="m1576.57,314.56c1.47-.21,2.94-.41,4.41-.63,1.33-.19,2.66-.4,3.98-.59.95-.14,1.91-.28,2.85-.43,28.93-4.38,56.8-9.9,83.69-16.58,52.11-12.95,100.53-30.25,145.71-52.02,36.15-17.42,70.37-37.67,102.78-60.87v-1.71c-79.71,57.33-170.75,96.49-275.69,118.86-21.93,5.46-44.5,10.1-67.74,13.96Z"/><path class="cls-1" d="m989.68,284.07c-28.88-4.3-57.68-8.71-86.31-13.1-4.83-.74-9.67-1.48-14.51-2.22,38.44,6.74,77.09,13.42,115.78,19.71,13.7,2.02,27.42,4.01,41.15,5.96,6.24.88,12.48,1.76,18.72,2.62,13.66,1.89,27.31,3.73,40.97,5.5,9.77,1.27,19.54,2.5,29.3,3.7,11.7,1.44,23.39,2.82,35.07,4.14,12.72,1.44,25.43,2.8,38.11,4.07,11.32,1.14,22.62,2.2,33.9,3.18,16.69,1.46,33.33,2.75,49.9,3.84,13.25.87,26.47,1.63,39.63,2.24,25.88,1.19,51.55,1.84,76.95,1.84,2.61,0,5.2-.03,7.8-.04,19.01-.1,37.63-.57,55.87-1.42,31-2.02,61.02-5.25,90.11-9.71-31.44,3.92-64.03,6.52-97.81,7.89-6.16.25-12.35.46-18.59.62-18.07.83-36.51,1.25-55.34,1.25-77.08,0-156.59-6.97-236.99-17.82-8.03-.95-16.06-1.92-24.1-2.92-46.51-5.78-93.15-12.41-139.59-19.32Z"/><path class="cls-1" d="m238.78,230.23c17.77-1.32,36.15-2.67,54.3-4.29,35.19-3.12,72.81-4.71,111.79-4.71,154.8,0,321.47,24.83,483.33,49.6-13.49-2.37-26.95-4.74-40.37-7.11-15.4-2.72-30.85-5.44-46.32-8.15-134.03-19.74-269.32-36.5-396.63-36.5-39.04,0-76.72,1.59-111.97,4.71-18.13,1.62-36.5,2.98-54.27,4.3-44.09,3.27-89.68,6.65-133.56,14.06C68.31,248.25,33.38,255.78,0,264.78v2.4c33.73-9.2,68.85-16.83,105.4-22.92,43.79-7.39,89.33-10.77,133.37-14.04Z"/><path class="cls-1" d="m1562.1,314.37c-29.09,4.46-59.11,7.7-90.11,9.71-25.95,1.69-52.57,2.55-79.9,2.55-4.4,0-8.8-.04-13.21-.08-26.96-.25-54.2-1.26-81.65-2.91-11.14-.67-22.31-1.44-33.52-2.31-17.05-1.32-34.17-2.86-51.34-4.6-9.49-.96-18.99-1.98-28.5-3.05-13.14-1.48-26.3-3.06-39.49-4.74-9.62-1.22-19.24-2.49-28.88-3.8-10.08-1.37-20.16-2.79-30.26-4.25-10.75-1.56-21.5-3.16-32.26-4.8-6.2-.95-12.4-1.91-18.6-2.88-9.91-1.56-19.82-3.14-29.73-4.75-38.69-6.29-77.34-12.97-115.78-19.71-13.58-2.38-27.14-4.77-40.66-7.16-177.11-31.24-360.24-63.53-527.36-63.53-27.77,0-54.89.9-80.62,2.65-16.68,1.15-33.57,2.11-49.9,3.03-46.21,2.63-94,5.35-139.96,12.44C33.18,218.8,16.41,221.73,0,224.98v2.25c16.58-3.32,33.46-6.29,50.67-8.91,45.86-7.08,93.59-9.8,139.76-12.42,16.34-.94,33.23-1.89,49.92-3.04,25.69-1.75,52.77-2.65,80.48-2.65,152.41,0,318.25,26.91,480.66,55.35,15.48,2.71,30.92,5.43,46.32,8.15,13.43,2.37,26.89,4.74,40.37,7.11,1.07.19,2.13.37,3.2.56,16.05,2.81,32.14,5.61,48.25,8.38,6.65,1.14,13.3,2.27,19.95,3.4,11.69,1.98,23.38,3.93,35.09,5.85,9.75,1.6,19.5,3.18,29.26,4.73,9.63,1.53,19.26,3.04,28.89,4.51,12.17,1.86,24.34,3.67,36.5,5.41,8.68,1.25,17.35,2.45,26.02,3.64,14.38,1.96,28.75,3.83,43.09,5.58,8.42,1.03,16.82,2.01,25.22,2.95,17.52,1.97,35,3.77,52.41,5.34,9.21.83,18.39,1.61,27.56,2.32,23.52,1.82,46.9,3.21,70.11,4.11,15.21.59,30.35.97,45.4,1.1,4.32.04,8.64.08,12.94.08,35.3,0,69.26-1.36,101.99-4.07,15.22-1.26,30.16-2.82,44.85-4.67,3.21-.4,6.41-.82,9.6-1.25,6.94-.94,13.82-1.95,20.64-3.02,2.48-.39,4.95-.8,7.42-1.22,23.24-3.86,45.81-8.5,67.74-13.96,52.52-13.07,101.39-30.72,147.12-53.08,45.86-22.41,88.63-49.47,128.57-81.41v-3.2c-96.52,77.43-210.01,126.59-343.64,149.17-4.73.8-9.49,1.57-14.27,2.3Z"/></g></g></svg>