<?xml version="1.0" encoding="UTF-8"?><svg id="Camada_2" xmlns="http://www.w3.org/2000/svg" viewBox="0 0 374.79 109.09"><defs><style>.cls-1{fill:none;stroke:#fff;stroke-miterlimit:10;stroke-width:.76px;}</style></defs><g id="Camada_1-2"><path class="cls-1" d="M34.62,26.06l-3.36,6.44-5.82,10.58c-1.06,1.96-1.68,2.46-3.42,2.46h-2.97c-1.85,0-2.24-.5-2.74-2.46l-2.58-9.52-1.85-6.83h-.34l-3.14,22.28c-.17,1.06-.45,1.12-1.34,1.12H1.53c-.84,0-1.29-.06-1.12-1.12L5.23,14.81c.39-2.86,1.4-3.92,4.03-3.92h2.8c2.07,0,2.69.67,3.3,2.63l3.75,13.55,2.35,9.12h.22l5.21-9.52,7.17-13.04c1.18-2.02,2.13-2.74,4.42-2.74h2.91c2.41,0,3.36.78,2.97,3.64l-4.87,34.49c-.17,1.06-.45,1.12-1.4,1.12h-5.32c-.84,0-1.29-.06-1.12-1.12l3.25-22.95h-.28Z"/><path class="cls-1" d="M53.15,41.96l-3.14,7.11c-.39.73-.62,1.06-1.68,1.06h-6.61c-.73,0-.84-.5-.62-1.12L57.34,13.92c1.12-2.52,2.18-3.02,4.37-3.08h3.3c2.35,0,3.3.34,3.75,3.08l6.38,35.1c.06.45,0,1.12-.84,1.12h-6.21c-.84,0-1.29-.06-1.46-.9l-1.12-7.28h-12.37ZM59.25,6.08c-.95,0-1.9.56-2.86,1.68-.5.62-.73.84-1.46.39l-2.18-1.29c-.84-.45-.73-.56-.34-1.23,1.79-2.91,4.2-4.87,7.33-4.87,2.74,0,4.53,2.24,6.89,2.24.9,0,1.85-.67,2.86-1.96.62-.73.5-.78,1.12-.5l2.52,1.12c.67.39.84.45.45,1.29-1.74,3.53-4.09,5.32-7.17,5.32-2.63,0-4.76-2.18-7.17-2.18ZM64.51,35.02l-1.01-7.11-.84-8.01h-.39l-3.19,8.01-3.08,7.11h8.51Z"/><path class="cls-1" d="M112.26,25.95c0,14.16-6.94,24.8-19.76,24.8-9.85,0-14.5-5.54-14.5-15.4,0-15.45,8.06-25.02,19.59-25.02,9.8,0,14.67,6.05,14.67,15.62ZM86.56,34.8c0,5.21,1.85,8.29,6.83,8.29,7.17,0,10.36-8.45,10.36-16.68,0-4.87-1.68-8.45-6.89-8.45-6.94,0-10.3,8.51-10.3,16.85Z"/><path class="cls-1" d="M134.31,48.96c-.17.95-.34,1.18-1.4,1.18h-5.71c-.84,0-1.29-.28-1.12-1.18l4.81-34.15c.39-2.91,1.4-3.92,4.09-3.92h2.3c2.24,0,2.63.39,3.7,2.52l7.11,16.07,3.42,7.78h.28l3.53-25.19c.17-.9.39-1.18,1.46-1.18h5.71c.84,0,1.18.39,1.06,1.18l-4.81,34.21c-.39,2.41-1.18,3.86-4.03,3.86h-2.3c-2.18,0-2.8-.39-3.7-2.46l-7.22-16.12-3.36-7.78h-.28l-3.53,25.19Z"/><path class="cls-1" d="M172.04,41.96l-3.14,7.11c-.39.73-.62,1.06-1.68,1.06h-6.61c-.73,0-.84-.5-.62-1.12l16.24-35.1c1.12-2.52,2.18-3.02,4.37-3.08h3.3c2.35,0,3.3.34,3.75,3.08l6.38,35.1c.06.45,0,1.12-.84,1.12h-6.21c-.84,0-1.29-.06-1.46-.9l-1.12-7.28h-12.37ZM183.4,35.02l-1.01-7.11-.84-8.01h-.39l-3.19,8.01-3.08,7.11h8.51Z"/><path class="cls-1" d="M242.74,26.06l-3.36,6.44-5.82,10.58c-1.06,1.96-1.68,2.46-3.42,2.46h-2.97c-1.85,0-2.24-.5-2.74-2.46l-2.58-9.52-1.85-6.83h-.34l-3.14,22.28c-.17,1.06-.45,1.12-1.34,1.12h-5.54c-.84,0-1.29-.06-1.12-1.12l4.81-34.21c.39-2.86,1.4-3.92,4.03-3.92h2.8c2.07,0,2.69.67,3.3,2.63l3.75,13.55,2.35,9.12h.22l5.21-9.52,7.17-13.04c1.18-2.02,2.13-2.74,4.42-2.74h2.91c2.41,0,3.36.78,2.97,3.64l-4.87,34.49c-.17,1.06-.45,1.12-1.4,1.12h-5.32c-.84,0-1.29-.06-1.12-1.12l3.25-22.95h-.28Z"/><path class="cls-1" d="M261.26,41.96l-3.14,7.11c-.39.73-.62,1.06-1.68,1.06h-6.61c-.73,0-.84-.5-.62-1.12l16.24-35.1c1.12-2.52,2.18-3.02,4.37-3.08h3.3c2.35,0,3.3.34,3.75,3.08l6.38,35.1c.06.45,0,1.12-.84,1.12h-6.21c-.84,0-1.29-.06-1.46-.9l-1.12-7.28h-12.37ZM272.63,35.02l-1.01-7.11-.84-8.01h-.39l-3.19,8.01-3.08,7.11h8.51Z"/><path class="cls-1" d="M283.93,47.23c-.5-.39-.62-.73-.11-1.68l2.13-4.48c.45-.9.78-1.01,1.62-.62,2.69,1.23,6.83,2.63,10.52,2.63,5.04,0,6.33-2.3,6.33-4.37s-1.51-3.02-5.37-4.87c-7.11-3.42-11.36-6.66-11.36-12.09,0-6.94,5.04-11.48,14.16-11.48,4.09,0,8.62.84,11.59,2.46.84.39.95.73.56,1.9l-1.34,4.2c-.45,1.12-.9,1.06-1.74.84-3.19-1.06-6.55-1.79-9.46-1.79-3.53,0-4.81,1.68-4.81,3.53,0,1.51,1.57,2.8,5.77,4.65,6.44,2.86,11.25,5.88,11.25,12.37,0,8.51-6.72,12.32-15.56,12.32-4.76,0-10.41-.95-14.16-3.53Z"/><path class="cls-1" d="M313.32,47.23c-.5-.39-.62-.73-.11-1.68l2.13-4.48c.45-.9.78-1.01,1.62-.62,2.69,1.23,6.83,2.63,10.52,2.63,5.04,0,6.33-2.3,6.33-4.37s-1.51-3.02-5.37-4.87c-7.11-3.42-11.36-6.66-11.36-12.09,0-6.94,5.04-11.48,14.16-11.48,4.09,0,8.62.84,11.59,2.46.84.39.95.73.56,1.9l-1.34,4.2c-.45,1.12-.9,1.06-1.74.84-3.19-1.06-6.55-1.79-9.46-1.79-3.53,0-4.81,1.68-4.81,3.53,0,1.51,1.57,2.8,5.77,4.65,6.44,2.86,11.25,5.88,11.25,12.37,0,8.51-6.72,12.32-15.56,12.32-4.76,0-10.41-.95-14.16-3.53Z"/><path class="cls-1" d="M352.39,41.96l-3.14,7.11c-.39.73-.62,1.06-1.68,1.06h-6.61c-.73,0-.84-.5-.62-1.12l16.24-35.1c1.12-2.52,2.18-3.02,4.37-3.08h3.3c2.35,0,3.3.34,3.75,3.08l6.38,35.1c.06.45,0,1.12-.84,1.12h-6.21c-.84,0-1.29-.06-1.46-.9l-1.12-7.28h-12.37ZM363.76,35.02l-1.01-7.11-.84-8.01h-.39l-3.19,8.01-3.08,7.11h8.51Z"/><path class="cls-1" d="M34.62,84.02l-3.36,6.44-5.82,10.58c-1.06,1.96-1.68,2.46-3.42,2.46h-2.97c-1.85,0-2.24-.5-2.74-2.46l-2.58-9.52-1.85-6.83h-.34l-3.14,22.28c-.17,1.06-.45,1.12-1.34,1.12H1.53c-.84,0-1.29-.06-1.12-1.12l4.81-34.21c.39-2.86,1.4-3.92,4.03-3.92h2.8c2.07,0,2.69.67,3.3,2.63l3.75,13.55,2.35,9.12h.22l5.21-9.52,7.17-13.04c1.18-2.02,2.13-2.74,4.42-2.74h2.91c2.41,0,3.36.78,2.97,3.64l-4.87,34.49c-.17,1.06-.45,1.12-1.4,1.12h-5.32c-.84,0-1.29-.06-1.12-1.12l3.25-22.95h-.28Z"/><path class="cls-1" d="M53.15,99.92l-3.14,7.11c-.39.73-.62,1.06-1.68,1.06h-6.61c-.73,0-.84-.5-.62-1.12l16.24-35.1c1.12-2.52,2.18-3.02,4.37-3.08h3.3c2.35,0,3.3.34,3.75,3.08l6.38,35.1c.06.45,0,1.12-.84,1.12h-6.21c-.84,0-1.29-.06-1.46-.9l-1.12-7.28h-12.37ZM59.25,64.03c-.95,0-1.9.56-2.86,1.68-.5.62-.73.84-1.46.39l-2.18-1.29c-.84-.45-.73-.56-.34-1.23,1.79-2.91,4.2-4.87,7.33-4.87,2.74,0,4.53,2.24,6.89,2.24.9,0,1.85-.67,2.86-1.96.62-.73.5-.78,1.12-.5l2.52,1.12c.67.39.84.45.45,1.29-1.74,3.53-4.09,5.32-7.17,5.32-2.63,0-4.76-2.18-7.17-2.18ZM64.51,92.97l-1.01-7.11-.84-8.01h-.39l-3.19,8.01-3.08,7.11h8.51Z"/><path class="cls-1" d="M112.26,83.9c0,14.16-6.94,24.8-19.76,24.8-9.85,0-14.5-5.54-14.5-15.4,0-15.45,8.06-25.02,19.59-25.02,9.8,0,14.67,6.05,14.67,15.62ZM86.56,92.75c0,5.21,1.85,8.29,6.83,8.29,7.17,0,10.36-8.45,10.36-16.68,0-4.87-1.68-8.45-6.89-8.45-6.94,0-10.3,8.51-10.3,16.85Z"/><path class="cls-1" d="M134.31,106.91c-.17.95-.34,1.18-1.4,1.18h-5.71c-.84,0-1.29-.28-1.12-1.18l4.81-34.15c.39-2.91,1.4-3.92,4.09-3.92h2.3c2.24,0,2.63.39,3.7,2.52l7.11,16.07,3.42,7.78h.28l3.53-25.19c.17-.9.39-1.18,1.46-1.18h5.71c.84,0,1.18.39,1.06,1.18l-4.81,34.21c-.39,2.41-1.18,3.86-4.03,3.86h-2.3c-2.18,0-2.8-.39-3.7-2.46l-7.22-16.12-3.36-7.78h-.28l-3.53,25.19Z"/><path class="cls-1" d="M172.04,99.92l-3.14,7.11c-.39.73-.62,1.06-1.68,1.06h-6.61c-.73,0-.84-.5-.62-1.12l16.24-35.1c1.12-2.52,2.18-3.02,4.37-3.08h3.3c2.35,0,3.3.34,3.75,3.08l6.38,35.1c.06.45,0,1.12-.84,1.12h-6.21c-.84,0-1.29-.06-1.46-.9l-1.12-7.28h-12.37ZM183.4,92.97l-1.01-7.11-.84-8.01h-.39l-3.19,8.01-3.08,7.11h8.51Z"/><path class="cls-1" d="M242.74,84.02l-3.36,6.44-5.82,10.58c-1.06,1.96-1.68,2.46-3.42,2.46h-2.97c-1.85,0-2.24-.5-2.74-2.46l-2.58-9.52-1.85-6.83h-.34l-3.14,22.28c-.17,1.06-.45,1.12-1.34,1.12h-5.54c-.84,0-1.29-.06-1.12-1.12l4.81-34.21c.39-2.86,1.4-3.92,4.03-3.92h2.8c2.07,0,2.69.67,3.3,2.63l3.75,13.55,2.35,9.12h.22l5.21-9.52,7.17-13.04c1.18-2.02,2.13-2.74,4.42-2.74h2.91c2.41,0,3.36.78,2.97,3.64l-4.87,34.49c-.17,1.06-.45,1.12-1.4,1.12h-5.32c-.84,0-1.29-.06-1.12-1.12l3.25-22.95h-.28Z"/><path class="cls-1" d="M261.26,99.92l-3.14,7.11c-.39.73-.62,1.06-1.68,1.06h-6.61c-.73,0-.84-.5-.62-1.12l16.24-35.1c1.12-2.52,2.18-3.02,4.37-3.08h3.3c2.35,0,3.3.34,3.75,3.08l6.38,35.1c.06.45,0,1.12-.84,1.12h-6.21c-.84,0-1.29-.06-1.46-.9l-1.12-7.28h-12.37ZM272.63,92.97l-1.01-7.11-.84-8.01h-.39l-3.19,8.01-3.08,7.11h8.51Z"/><path class="cls-1" d="M283.93,105.18c-.5-.39-.62-.73-.11-1.68l2.13-4.48c.45-.9.78-1.01,1.62-.62,2.69,1.23,6.83,2.63,10.52,2.63,5.04,0,6.33-2.3,6.33-4.37s-1.51-3.02-5.37-4.87c-7.11-3.42-11.36-6.66-11.36-12.09,0-6.94,5.04-11.48,14.16-11.48,4.09,0,8.62.84,11.59,2.46.84.39.95.73.56,1.9l-1.34,4.2c-.45,1.12-.9,1.06-1.74.84-3.19-1.06-6.55-1.79-9.46-1.79-3.53,0-4.81,1.68-4.81,3.53,0,1.51,1.57,2.8,5.77,4.65,6.44,2.86,11.25,5.88,11.25,12.37,0,8.51-6.72,12.32-15.56,12.32-4.76,0-10.41-.95-14.16-3.53Z"/><path class="cls-1" d="M313.32,105.18c-.5-.39-.62-.73-.11-1.68l2.13-4.48c.45-.9.78-1.01,1.62-.62,2.69,1.23,6.83,2.63,10.52,2.63,5.04,0,6.33-2.3,6.33-4.37s-1.51-3.02-5.37-4.87c-7.11-3.42-11.36-6.66-11.36-12.09,0-6.94,5.04-11.48,14.16-11.48,4.09,0,8.62.84,11.59,2.46.84.39.95.73.56,1.9l-1.34,4.2c-.45,1.12-.9,1.06-1.74.84-3.19-1.06-6.55-1.79-9.46-1.79-3.53,0-4.81,1.68-4.81,3.53,0,1.51,1.57,2.8,5.77,4.65,6.44,2.86,11.25,5.88,11.25,12.37,0,8.51-6.72,12.32-15.56,12.32-4.76,0-10.41-.95-14.16-3.53Z"/><path class="cls-1" d="M352.39,99.92l-3.14,7.11c-.39.73-.62,1.06-1.68,1.06h-6.61c-.73,0-.84-.5-.62-1.12l16.24-35.1c1.12-2.52,2.18-3.02,4.37-3.08h3.3c2.35,0,3.3.34,3.75,3.08l6.38,35.1c.06.45,0,1.12-.84,1.12h-6.21c-.84,0-1.29-.06-1.46-.9l-1.12-7.28h-12.37ZM363.76,92.97l-1.01-7.11-.84-8.01h-.39l-3.19,8.01-3.08,7.11h8.51Z"/></g></svg>