<svg width="90" height="14" viewBox="0 0 90 14" fill="none" xmlns="http://www.w3.org/2000/svg">
<path d="M7 0L9.05725 4.16844L13.6574 4.83688L10.3287 8.08156L11.1145 12.6631L7 10.5L2.8855 12.6631L3.6713 8.08156L0.342604 4.83688L4.94275 4.16844L7 0Z" fill="#FFCD4B"/>
<path d="M26 0L28.0572 4.16844L32.6574 4.83688L29.3287 8.08156L30.1145 12.6631L26 10.5L21.8855 12.6631L22.6713 8.08156L19.3426 4.83688L23.9428 4.16844L26 0Z" fill="#FFCD4B"/>
<path d="M45 0L47.0572 4.16844L51.6574 4.83688L48.3287 8.08156L49.1145 12.6631L45 10.5L40.8855 12.6631L41.6713 8.08156L38.3426 4.83688L42.9428 4.16844L45 0Z" fill="#FFCD4B"/>
<path d="M64 0L66.0572 4.16844L70.6574 4.83688L67.3287 8.08156L68.1145 12.6631L64 10.5L59.8855 12.6631L60.6713 8.08156L57.3426 4.83688L61.9428 4.16844L64 0Z" fill="#FFCD4B"/>
<path d="M83 0L85.0572 4.16844L89.6574 4.83688L86.3287 8.08156L87.1145 12.6631L83 10.5L78.8855 12.6631L79.6713 8.08156L76.3426 4.83688L80.9428 4.16844L83 0Z" fill="#FFCD4B"/>
</svg>
