<?xml version="1.0" encoding="UTF-8"?><svg id="Layer_2" xmlns="http://www.w3.org/2000/svg" viewBox="0 0 59.52 59.52"><defs><style>.cls-1{fill:#004b8d;}</style></defs><g id="Camada_2"><path class="cls-1" d="M32.91,0C18.24,0,6.3,11.94,6.3,26.61s11.94,26.61,26.61,26.61,26.61-11.94,26.61-26.61S47.58,0,32.91,0ZM32.91,50.92c-13.4,0-24.31-10.9-24.31-24.31S19.51,2.3,32.91,2.3s24.31,10.9,24.31,24.31-10.9,24.31-24.31,24.31Z"/><path class="cls-1" d="M52.04,21.17c-.17-.61-.81-.97-1.42-.79-.61.17-.96.81-.79,1.42.44,1.56.67,3.18.67,4.81,0,9.69-7.89,17.58-17.58,17.58s-17.58-7.89-17.58-17.58c0-8.32,5.9-15.56,14.04-17.22,1.16-.24,2.35-.36,3.54-.36.63,0,1.15-.51,1.15-1.15s-.51-1.15-1.15-1.15c-1.35,0-2.69.14-4,.4-9.2,1.88-15.87,10.07-15.87,19.47,0,10.96,8.92,19.88,19.88,19.88s19.88-8.92,19.88-19.88c0-1.85-.25-3.68-.75-5.44Z"/><path class="cls-1" d="M7.45,44.61c-4.11,0-7.45,3.34-7.45,7.45s3.34,7.45,7.45,7.45,7.45-3.34,7.45-7.45-3.34-7.45-7.45-7.45ZM7.45,57.22c-2.84,0-5.16-2.31-5.16-5.16s2.31-5.16,5.16-5.16,5.16,2.31,5.16,5.16-2.31,5.16-5.16,5.16Z"/><path class="cls-1" d="M29,16.44v11.54c0,2.1,1.71,3.8,3.8,3.8h.05c2.1,0,3.8-1.71,3.8-3.8v-11.54c0-2.1-1.71-3.8-3.86-3.8s-3.8,1.71-3.8,3.8ZM34.36,16.44v11.54c0,.83-.68,1.5-1.5,1.5h-.05c-.83,0-1.5-.67-1.5-1.5v-11.54c0-.83.68-1.51,1.56-1.51.83,0,1.5.68,1.5,1.51Z"/><path class="cls-1" d="M32.82,32.91c-2.11,0-3.83,1.72-3.83,3.83s1.72,3.83,3.83,3.83,3.83-1.72,3.83-3.83-1.72-3.83-3.83-3.83ZM32.82,38.27c-.84,0-1.53-.69-1.53-1.53s.69-1.53,1.53-1.53,1.53.69,1.53,1.53-.69,1.53-1.53,1.53Z"/></g></svg>