<?xml version="1.0" encoding="UTF-8"?><svg id="Layer_2" xmlns="http://www.w3.org/2000/svg" viewBox="0 0 69.41 96.67"><defs><style>.cls-1{fill:#fff;}.cls-2{fill:#f7941d;}</style></defs><g id="Camada_1"><path class="cls-1" d="M38.96,80.93c-.22.22-.36.52-.36.85,0,.16.03.31.09.47.06.14.16.28.27.39.22.22.53.34.86.34s.63-.12.85-.34c.13-.11.2-.25.27-.39.06-.16.09-.31.09-.47s-.03-.31-.09-.47c-.06-.14-.14-.27-.27-.38-.44-.47-1.27-.47-1.71,0Z"/><path class="cls-1" d="M53.07,94.24h-12.04v-5.27c0-.67-.54-1.21-1.21-1.21s-1.21.54-1.21,1.21v5.27h-5.94v-23.87c0-1.64,1.33-2.97,2.97-2.97s2.97,1.33,2.97,2.97v4.21c0,.67.54,1.21,1.21,1.21s1.21-.54,1.21-1.21v-4.21c0-2.97-2.42-5.4-5.4-5.4s-5.4,2.42-5.4,5.4v23.87h-12.04c-.67,0-1.21.54-1.21,1.21s.54,1.21,1.21,1.21h34.87c.67,0,1.21-.54,1.21-1.21s-.54-1.21-1.21-1.21Z"/><path class="cls-1" d="M67.32,65.31l-13.45-12.12c-1.06-.96-2.36-1.65-3.74-2l-11.09-2.8,2.56-6.24,5.1,1.95c.87.33,1.78.5,2.69.5.57,0,1.14-.06,1.71-.2l7.43-1.72c2.52-.58,4.1-3.11,3.52-5.64-.56-2.42-2.91-3.98-5.35-3.58l-6.78,1.13-7.31-3.64c3.3-.92,5.74-3.92,5.74-7.51,0-4.32-3.51-7.83-7.83-7.83s-7.83,3.51-7.83,7.83c0,1.03.21,2,.57,2.9l-8.88-3.11c-2.04-.72-4.25-.59-6.2.35l-7.61,3.67c-1.1.53-1.92,1.45-2.31,2.61-.39,1.15-.31,2.39.24,3.47,1.1,2.18,3.78,3.1,5.98,2.03l6.99-3.38,6.1,2.83-3.04,13.86-8.28,6.29-7.7-7.48c-.97-.94-2.24-1.37-3.6-1.42-1.35.02-2.61.57-3.54,1.55-1.89,1.97-1.87,5.05.04,7l8.42,8.61c1.85,1.89,4.4,2.92,6.98,2.92,1.04,0,2.08-.17,3.09-.51l10.56-3.57c1.09.33,2.24.45,3.39.33l12.86-1.37,14.07,11.78c.93.78,2.06,1.17,3.19,1.17,1.27,0,2.53-.49,3.51-1.46.97-.97,1.49-2.26,1.45-3.63s-.62-2.64-1.64-3.56ZM49.93,37.04l7.17-1.19c1.19-.2,2.32.56,2.59,1.73.28,1.22-.48,2.45-1.7,2.73l-7.43,1.72c-1,.23-2.03.16-2.99-.21l-5.05-1.93c.83-2.07.83-4.28.11-6.22l6.55,3.26c.23.11.49.15.74.11ZM40.52,18.03c2.98,0,5.4,2.42,5.4,5.4s-2.42,5.4-5.4,5.4-5.4-2.42-5.4-5.4,2.42-5.4,5.4-5.4ZM29.47,33.01l-7.5-3.48c-.33-.15-.71-.15-1.04,0l-7.51,3.63c-1.01.49-2.25.07-2.76-.94-.25-.5-.29-1.07-.11-1.6s.56-.96,1.06-1.2l7.61-3.67c1.37-.66,2.91-.75,4.34-.24l9.4,3.29,4.41,2.32c2.87,1.51,4.11,4.91,2.87,7.91l-3.68,8.97h-9.42l2.99-13.63c.12-.56-.16-1.12-.68-1.36ZM19.16,63.32c-2.64.89-5.61.18-7.56-1.81l-8.42-8.61c-.99-1.01-1-2.6-.02-3.62.48-.51,1.13-.79,1.83-.8.68-.02,1.36.25,1.86.73l8.45,8.2c.43.42,1.1.46,1.58.09l7.55-5.73v2.1c0,2.42,1.03,4.74,2.83,6.36.1.09.2.16.3.24l-8.41,2.84ZM65.79,70.78c-.94.93-2.4,1-3.42.15l-14.46-12.11c-.22-.18-.5-.28-.78-.28-.04,0-.09,0-.13,0l-13.37,1.43c-1.72.19-3.45-.37-4.74-1.53-1.29-1.16-2.03-2.82-2.03-4.55v-3.45h10.38l12.3,3.1c1.01.25,1.94.75,2.71,1.45l13.45,12.12c.52.47.82,1.11.84,1.82.02.7-.24,1.36-.74,1.85Z"/><path class="cls-2" d="M40.3,4.62c-.57-.1-.95-.65-.84-1.22l.25-1.35c.1-.57.65-.95,1.22-.84s.95.65.84,1.22l-.25,1.35c-.1.57-.65.95-1.22.84Z"/><path class="cls-2" d="M60.35,17.95c-.09-.02-.17-.04-.26-.08-.34-.16-.57-.5-.6-.87s.15-.74.47-.95l1.6-1.11c.24-.17.53-.23.81-.18.09.02.17.05.25.08.34.16.57.5.6.87.03.38-.15.74-.47.95l-1.6,1.11c-.23.17-.53.23-.8.18Z"/><path class="cls-2" d="M16.81,9.91c-.28-.05-.51-.21-.68-.44l-1.1-1.6c-.22-.31-.26-.72-.1-1.06.16-.34.5-.57.87-.6.09,0,.18,0,.27.01.28.05.53.22.69.45l1.11,1.6c.24.35.25.81.02,1.17-.23.36-.65.54-1.07.46Z"/><path class="cls-2" d="M28.26,6.14c-.42-.08-.75-.4-.84-.81l-.86-4.03c-.09-.38.03-.77.31-1.02.24-.22.58-.32.9-.26.5.15.77.46.84.83l.86,4.04c.06.27,0,.55-.14.79-.15.23-.39.4-.66.46-.14.03-.28.03-.41,0Z"/><path class="cls-2" d="M51.02,10.34c-.14-.03-.27-.08-.38-.15-.23-.15-.4-.39-.46-.66-.06-.27,0-.56.15-.79l2.24-3.46c.23-.36.65-.54,1.07-.46.14.02.26.08.38.15.24.15.4.39.46.66.06.27,0,.56-.15.79l-2.24,3.46c-.23.36-.65.54-1.07.46h0Z"/><path class="cls-2" d="M64.14,29.39c-.49-.09-.85-.52-.86-1.02,0-.5.34-.94.83-1.04l4.03-.86c.14-.03.27-.03.41,0,.23.04.44.16.59.33.25.28.33.67.22,1.03-.12.35-.41.62-.78.7l-4.03.86c-.14.03-.28.03-.41,0h0Z"/><path class="cls-2" d="M9.21,19.27c-.14-.02-.26-.08-.38-.15l-3.46-2.24c-.49-.31-.63-.97-.31-1.45.23-.36.65-.54,1.07-.46.14.02.26.08.38.15l3.46,2.24c.23.15.4.39.46.66.06.28,0,.56-.15.79-.23.36-.65.54-1.07.46h0Z"/></g></svg>