<?xml version="1.0" encoding="UTF-8"?><svg id="Layer_2" xmlns="http://www.w3.org/2000/svg" viewBox="0 0 84.99 91.69"><defs><style>.cls-1{fill:#fff;}.cls-2,.cls-3{fill:#f7941d;}.cls-3{fill-rule:evenodd;}</style></defs><g id="Camada_1"><path class="cls-1" d="M25.28,33c-6.78-2.48-12.24-2.12-15.38,1.03l-7.23,7.23c-6.41,6.41-.94,21.91,12.45,35.3,9.6,9.6,20.28,15.13,27.92,15.13,3.02,0,5.56-.86,7.38-2.68l7.23-7.23c6.41-6.41.94-21.91-12.45-35.3-6.3-6.31-13.37-11.1-19.92-13.49h0ZM3.95,42.53l3.53-3.53c-.34,1.95-.24,4.2.33,6.7l-5.72,5.72c-.67-3.89-.05-6.97,1.86-8.89h0ZM2.54,53.51l5.79-5.79c.17.56.33,1.11.54,1.69.59,1.59,1.29,3.15,2.07,4.66l-5.88,5.88c-.65-1.28-1.22-2.59-1.73-3.93-.32-.86-.58-1.7-.79-2.51h0ZM31.76,86.59l5.83-5.83c2.02,1.07,4.13,1.95,6.31,2.64l-5.68,5.71c-2.23-.62-4.39-1.47-6.46-2.52ZM30.09,85.71c-1.8-.99-3.54-2.09-5.21-3.28l5.92-5.92c1.66,1.2,3.38,2.32,5.16,3.33l-5.87,5.86ZM23.39,81.37c-2.23-1.69-4.35-3.51-6.35-5.47l5.96-5.96c2,1.96,4.11,3.79,6.32,5.5l-5.93,5.93ZM15.77,74.63c-1.96-1.99-3.79-4.11-5.48-6.33l5.95-5.95c1.7,2.22,3.53,4.33,5.49,6.33l-5.96,5.95ZM9.22,66.83c-1.2-1.67-2.3-3.41-3.29-5.2l5.91-5.91c1.01,1.78,2.12,3.51,3.32,5.17l-5.94,5.94ZM49.15,87.73c-1.94,1.94-5.08,2.46-8.84,1.82l5.66-5.66c1.41.34,2.86.53,4.31.56.79,0,1.58-.07,2.37-.21l-3.49,3.49ZM56.37,80.51c-5.5,5.5-20.5-.2-32.75-12.45-12.25-12.25-17.94-27.25-12.44-32.75,1.42-1.41,3.48-2.14,6.05-2.14,2.16,0,4.67.51,7.44,1.52,6.31,2.31,13.15,6.95,19.26,13.06,12.25,12.25,17.95,27.24,12.44,32.75Z"/><path class="cls-1" d="M16.63,40.75c-2.02,2.02-2,5.72.05,10.43,1.94,4.45,5.48,9.37,9.97,13.87s9.41,8.03,13.86,9.97c2.38,1.03,4.5,1.55,6.27,1.55s3.16-.5,4.16-1.5c4-4-.4-14.67-10.02-24.29-9.62-9.62-20.3-14.03-24.29-10.03h0ZM49.66,73.79c-1.44,1.43-4.51,1.28-8.44-.43-4.25-1.85-8.97-5.25-13.31-9.59s-7.74-9.06-9.59-13.31c-1.71-3.93-1.87-7-.43-8.44.65-.65,1.65-.97,2.89-.97,1.51,0,3.4.47,5.55,1.41,4.25,1.85,8.98,5.25,13.31,9.59s7.74,9.06,9.59,13.31c1.71,3.92,1.87,7,.43,8.43h0Z"/><path class="cls-1" d="M43.81,35.2l4.98,4.98c1.27,1.27,3.06,1.91,5.24,1.91,1.08-.03,2.15-.17,3.19-.43h.01s.05-.03.08-.03c.8-.18,1.59-.4,2.36-.68,2.73-1,5.58-2.65,8.37-4.7.05-.03.11-.02.15-.06s.01-.05.03-.07c1.87-1.37,3.63-2.88,5.28-4.51,1.63-1.65,3.14-3.41,4.51-5.28.02-.02.05,0,.07-.03s.03-.1.06-.15c2.06-2.79,3.71-5.64,4.7-8.37,1.75-4.78,1.47-8.64-.78-10.89l-4.97-4.98c-4.53-4.53-15.38-.75-24.72,8.58-4.37,4.37-7.69,9.28-9.35,13.82-1.75,4.78-1.47,8.64.78,10.89h0ZM50.07,38.91l-1.86-1.86c.28.02.55.07.85.07.98-.02,1.96-.13,2.91-.35l3.38,3.38c-2.27.27-4.15-.1-5.28-1.23h0ZM59.07,39.27c-.56.2-1.07.31-1.6.45l-3.53-3.53c.26-.08.5-.12.76-.22,1.05-.39,2.07-.85,3.06-1.36l3.62,3.62c-.77.38-1.55.76-2.31,1.04h0ZM67.87,27.23l3.71,3.71c-1.25,1.2-2.57,2.34-3.95,3.39l-3.7-3.7c1.38-1.06,2.69-2.2,3.95-3.4ZM78.13,12.08l3.48,3.48c-.14.53-.24,1.04-.45,1.6-.28.75-.66,1.53-1.03,2.3l-3.59-3.59c.63-1.22,1.16-2.5,1.58-3.8h0ZM75.65,17.52l3.63,3.63c-.6,1.07-1.25,2.11-1.95,3.11l-3.68-3.68c.73-1.03,1.4-2.05,1.99-3.06ZM72.57,22.04l3.67,3.67c-1.05,1.38-2.19,2.7-3.39,3.96l-3.69-3.69c1.21-1.25,2.35-2.56,3.42-3.93h0ZM62.46,31.73l3.7,3.7c-1,.7-2.04,1.35-3.1,1.95l-3.67-3.67c1.03-.6,2.06-1.25,3.08-1.97h0ZM82.03,13.44l-3.37-3.37c.28-1.22.39-2.48.32-3.73l1.84,1.83c1.12,1.13,1.49,3,1.22,5.28h0ZM44.73,24.93c1.58-4.31,4.75-8.98,8.94-13.17,6.2-6.2,13.4-9.96,18.21-9.96,1.65,0,3.02.44,3.96,1.39,3.69,3.68-.24,13.84-8.58,22.17-4.19,4.19-8.86,7.36-13.17,8.94-4.02,1.47-7.29,1.34-9-.36s-1.83-4.98-.36-9Z"/><path class="cls-1" d="M51.5,31.69c1.27,0,2.77-.36,4.43-1.09,3.1-1.35,6.52-3.81,9.64-6.92,3.12-3.12,5.58-6.54,6.92-9.64,1.46-3.36,1.46-6.02-.02-7.5-2.91-2.92-10.28.05-17.13,6.9-6.85,6.85-9.82,14.22-6.9,17.13.74.75,1.78,1.12,3.06,1.12ZM56.62,14.71c4.96-4.95,9.97-7.49,12.8-7.49.78,0,1.4.2,1.79.59.89.89.75,2.95-.36,5.5-1.26,2.89-3.59,6.11-6.55,9.08-2.96,2.96-6.19,5.29-9.08,6.55-2.56,1.11-4.62,1.25-5.5.36-1.81-1.82.57-8.25,6.9-14.59Z"/><path class="cls-2" d="M84.28,62.13c-.1-.02-10.42-2.44-10.42-15.72,0-.5-.4-.9-.9-.9s-.9.4-.9.9c0,13.23-9.99,15.63-10.42,15.72-.49.11-.79.59-.69,1.07.08.34.34.61.69.69.43.09,10.42,2.49,10.42,15.72,0,.5.4.9.9.9s.9-.4.9-.9c0-13.23,9.99-15.63,10.42-15.72.49-.11.79-.59.69-1.07-.08-.34-.34-.61-.69-.69ZM72.97,73.1c-1.28-4.44-4.41-8.11-8.58-10.09,4.17-1.98,7.3-5.66,8.58-10.09,1.28,4.44,4.41,8.11,8.58,10.09-4.17,1.98-7.3,5.66-8.58,10.09Z"/><path class="cls-2" d="M23.27,16.64c.08.02,8.46,1.99,8.46,12.82,0,.5.4.9.9.9s.9-.4.9-.9h0c0-10.78,8.13-12.74,8.46-12.82.49-.11.79-.59.69-1.07-.08-.34-.34-.61-.69-.69-.09-.02-8.46-1.99-8.46-12.82,0-.5-.4-.9-.9-.9s-.9.4-.9.9c0,10.78-8.12,12.74-8.46,12.82-.49.11-.79.59-.69,1.07.08.34.34.61.69.69h0ZM32.64,7.95c1.11,3.39,3.54,6.2,6.73,7.81-3.19,1.61-5.61,4.41-6.73,7.81-1.12-3.39-3.53-6.2-6.72-7.81,3.19-1.61,5.61-4.41,6.72-7.81Z"/><path class="cls-3" d="M38.33,66.85c-.06.08-.16.15-.26.2-.26.07-.51-.03-.63-.28l-3.46-6.63-2.06,2.82c-.13.14-.28.23-.48.22-.18-.03-.35-.13-.43-.28l-4.44-8.39c-.1-.16-.09-.35.02-.52l2.68-4.53c.09-.18.27-.27.47-.27.19.01.36.11.45.29l2.21,4.22,3.14-2.98c.13-.14.34-.19.54-.13.19.07.33.25.35.44l2.02,15.42c0,.14-.04.28-.11.38ZM33.64,58.83c.11-.14.28-.23.47-.2.18,0,.33.12.43.28l2.46,4.72-1.5-11.41-2.88,2.76c-.12.11-.29.16-.45.13-.17-.01-.31-.12-.39-.27l-2.09-4-2.05,3.45.43.81,3.49,6.56,2.07-2.81h.01Z"/><path class="cls-3" d="M53.74,21.64c-.06-.04-.1-.1-.14-.17-.05-.17,0-.34.17-.43l4.32-2.42-1.91-1.31c-.1-.08-.16-.18-.15-.31.01-.12.08-.23.18-.29l5.47-3.1c.11-.07.23-.06.35,0l3.05,1.69c.12.06.18.17.19.31,0,.13-.07.24-.18.3l-2.75,1.55,2.04,2.02c.1.08.13.22.09.35-.05.13-.16.22-.29.24l-10.18,1.64c-.09,0-.19-.02-.26-.07ZM58.96,18.37c.1.07.16.18.14.3,0,.12-.07.22-.18.29l-3.08,1.72,7.53-1.21-1.88-1.85c-.07-.08-.11-.19-.09-.3,0-.11.07-.21.17-.27l2.61-1.46-2.33-1.29-.53.3-4.28,2.44,1.9,1.32h0Z"/></g></svg>