<?xml version="1.0" encoding="UTF-8"?><svg id="Layer_2" xmlns="http://www.w3.org/2000/svg" viewBox="0 0 442.67 442.67"><defs><style>.cls-1{fill:#fff;}.cls-2{fill:none;}.cls-3{fill:#f49323;}</style></defs><g id="Camada_1"><rect class="cls-2" width="442.67" height="442.67"/><path class="cls-3" d="M190.61,10.29c-44.58,6.41-83.41,27.56-112.25,57.81,28.06-26.77,64.43-45.37,105.74-51.31,105.61-15.18,203.54,58.12,218.72,163.74,8.77,61.03-12,119.49-51.49,160.91,43.68-41.66,67.24-103.11,57.99-167.41C394.15,68.41,296.23-4.9,190.61,10.29Z"/><path class="cls-1" d="M62.14,239.83c-7.97-55.41,8.44-108.7,41.07-149.04-51.2,41.4-79.93,107.94-69.88,177.84,15.18,105.61,113.11,178.92,218.72,163.74,50.2-7.22,93.09-33.14,122.66-69.68-26.15,21.14-58.15,35.74-93.85,40.88-105.61,15.18-203.54-58.12-218.72-163.74Z"/></g></svg>