<?xml version="1.0" encoding="UTF-8"?><svg id="Camada_2" xmlns="http://www.w3.org/2000/svg" viewBox="0 0 139.69 135.7"><defs><style>.cls-1{fill:#fff;stroke-width:0px;}</style></defs><g id="Camada_1-2"><path class="cls-1" d="M32.08,71.13c0,4.5,2.31,8.45,5.8,10.77.31.21.71-.05.71-.43V.86C38.59.39,38.2,0,37.72,0h-4.78c-.48,0-.86.39-.86.86v70.26Z"/><path class="cls-1" d="M22.42,61.43c0,4.48,2.29,8.42,5.76,10.74.31.21.71-.05.71-.42V.86c0-.48-.39-.86-.87-.86h-4.74c-.48,0-.86.39-.86.86v60.57Z"/><path class="cls-1" d="M133.65,30.36c-.08-.17-.34-.1-.33.09.06,1.14.03,2.32-.13,3.52-.87,6.82-5.16,12.81-10.92,16.27-.36.22-.4.72-.1,1.02l3.48,3.48c.37.37.95.41,1.38.12,5.15-3.49,8.53-9.38,8.53-16.07,0-3.02-.69-5.88-1.93-8.43"/><path class="cls-1" d="M131.6,29.1c0-3.02-.69-5.88-1.92-8.43-.08-.17-.34-.1-.33.09.06,1.14.03,2.32-.13,3.52-1.06,8.28-7.14,15.33-14.79,18.12-.38.14-.51.62-.23.9l3.58,3.58c.37.37.93.51,1.41.32,7.26-2.81,12.41-9.85,12.41-18.09"/><path class="cls-1" d="M126.34,25.86c.72-2.02,1.11-4.2,1.11-6.46,0-1.11-.1-2.18-.27-3.23-.39-2.32-1.19-4.5-2.33-6.47-.67-1.16-1.45-2.24-2.34-3.23C118.95,2.5,113.79,0,108.05,0h-36.27c-.48,0-.86.38-.86.86v67.03h-22.63V.86c0-.48-.39-.86-.86-.86h-4.75c-.48,0-.87.38-.87.86v79.97c0,2.36.64,4.56,1.74,6.46,1.14,1.97,2.77,3.6,4.74,4.73,1.9,1.09,4.1,1.73,6.45,1.73h41.18c.48,0,.87-.39.87-.86V25.86h22.46c-2.57,4.48-8,7.28-13.6,7.95-.34.05-.45.46-.22.7l3.61,3.61c.39.4.96.59,1.51.52,7.34-.94,13.4-5.99,15.8-12.77M48.28,74.36h29.1V6.46h30.67c3.28,0,6.26,1.23,8.54,3.23h-35.15c-.48,0-.86.39-.86.86v67.03h-32.29v-3.23ZM91.16,19.4c-.48,0-.86.39-.86.86v67.03h-35.59c-2.38,0-4.46-1.31-5.57-3.23h37.07c.48,0,.86-.39.86-.87V16.16h33.48c.27,1.03.43,2.12.43,3.23h-29.82Z"/><path class="cls-1" d="M23.08,131.27c0,.95-.21,1.76-.63,2.44-.42.68-1.2,1.17-2.34,1.46-.54.14-1.14.24-1.79.31-.65.07-1.3.11-1.95.14-.65.02-1.26.05-1.83.06-.57.01-1.03.02-1.38.02-2.33,0-4.33-.2-5.99-.59-1.67-.39-3.03-1.06-4.08-2.01-1.06-.95-1.83-2.21-2.32-3.78-.49-1.57-.73-3.55-.73-5.93l-.04-15.76c0-.33.08-.55.24-.67.16-.12.39-.19.69-.19h4.35c.41,0,.67.06.79.16.12.11.18.34.18.69v16.13c0,1.11.1,2.08.29,2.91.19.83.53,1.51,1.01,2.05.49.55,1.14.95,1.97,1.2.82.26,1.89.39,3.19.39.19,0,.45,0,.77-.02.33-.02.69-.03,1.08-.04.39-.01.8-.04,1.22-.08.42-.04.81-.1,1.16-.18v-22.35c0-.33.07-.55.22-.67.15-.12.39-.19.71-.19h4.31c.41,0,.66.06.75.16.1.11.14.34.14.69v23.65Z"/><path class="cls-1" d="M33.68,117.54v16.82c0,.35-.06.58-.18.69-.12.11-.37.16-.75.16h-4.26c-.33,0-.56-.06-.71-.18-.15-.12-.22-.34-.22-.67v-24.78c0-1.06.19-1.79.57-2.21.38-.42,1.07-.63,2.07-.63h1.71c.41,0,.75.02,1.03.06.29.04.54.13.75.26.21.14.42.33.61.57.19.24.41.56.65.94l10.4,16.01h.2v-16.98c0-.33.06-.55.18-.67.12-.12.37-.18.75-.18h4.27c.62,0,.93.28.93.85v24.83c0,.87-.18,1.55-.53,2.05-.35.5-1.06.75-2.11.75h-1.71c-.41,0-.75-.02-1.04-.06-.28-.04-.53-.12-.75-.26-.22-.14-.42-.32-.61-.55-.19-.23-.41-.54-.65-.92l-10.4-15.88h-.2Z"/><path class="cls-1" d="M62.19,135.05c-.12.11-.39.16-.79.16h-4.31c-.33,0-.56-.06-.71-.19-.15-.12-.22-.34-.22-.67v-26.74c0-.33.08-.55.22-.67.15-.12.39-.19.71-.19h4.31c.4,0,.67.06.79.16.12.11.18.34.18.69v26.74c0,.35-.06.58-.18.69"/><path class="cls-1" d="M103.89,129.28h-9.3l-1.59,5.16c-.08.27-.2.47-.34.59-.15.12-.41.19-.79.19h-4.75c-.3,0-.48-.08-.55-.24-.07-.16-.07-.35-.02-.57l8.45-25.48c.14-.46.29-.83.47-1.12.18-.28.38-.51.61-.67.23-.16.5-.28.82-.35.31-.07.67-.1,1.08-.1h2.44c.46,0,.85.02,1.18.06.33.04.61.14.85.3.24.16.45.39.63.69.17.3.34.69.51,1.18l8.45,25.48c.06.16.06.34,0,.53-.05.19-.23.28-.53.28h-4.84c-.3,0-.55-.03-.75-.1-.2-.07-.34-.25-.43-.55l-1.59-5.28ZM96.04,124.28h6.38l-3.05-11.01h-.25l-3.09,11.01Z"/><path class="cls-1" d="M88.09,112.05c-.44-1.08-1.06-2.02-1.89-2.81-.83-.78-1.83-1.4-3.01-1.85-1.18-.45-2.5-.67-3.96-.67h-9.96c-.97,0-1.62.22-1.95.67-.32.45-.49,1.05-.49,1.81v25.15c0,.33.08.55.23.67.15.12.39.18.71.18h4.27c.41,0,.67-.05.79-.15.12-.09.18-.33.18-.71v-22.18h5.28c.81,0,1.48.13,2.01.38.53.26.95.59,1.26.98.31.39.52.81.63,1.26.11.45.16.86.16,1.24,0,1.09-.32,2-.97,2.75-.65.75-1.67,1.12-3.05,1.12h-2.24c-.34,0-.66.19-.82.51-.16.32-.12.69.09.96l2.37,3.16c.08.11.19.2.32.27.13.06.36.1.36.1,2.28,0,4.1-.35,5.47-1.06,1.37-.71,2.41-1.55,3.13-2.54.72-.99,1.19-2.01,1.4-3.05.22-1.04.33-1.92.33-2.62,0-1.3-.22-2.49-.65-3.58"/><path class="cls-1" d="M139.51,133.82l-7.7-10.27c1.13-.65,2.02-1.4,2.65-2.27.72-.99,1.19-2,1.4-3.04.22-1.04.33-1.92.33-2.62,0-1.3-.22-2.49-.65-3.58-.43-1.08-1.06-2.02-1.89-2.81-.83-.78-1.83-1.4-3.01-1.85-1.18-.45-2.5-.67-3.96-.67h-9.96c-.97,0-1.62.22-1.95.67-.33.45-.49,1.05-.49,1.81v25.15c0,.33.07.55.22.67.15.12.38.19.71.19h4.27c.41,0,.67-.05.79-.15.12-.09.18-.33.18-.71v-22.18h5.28c.81,0,1.48.13,2.01.39.53.26.94.58,1.26.98.31.39.52.81.63,1.26.11.45.16.86.16,1.24,0,1.09-.32,2-.97,2.74-.65.75-1.67,1.12-3.05,1.12h-2.24c-.34,0-.66.19-.82.5-.16.32-.12.69.09.96l9.35,12.47c.65.87,1.68,1.39,2.77,1.39h3.89c.71,0,1.12-.82.69-1.39"/></g></svg>