<?xml version="1.0" encoding="UTF-8"?><svg id="Camada_2" xmlns="http://www.w3.org/2000/svg" viewBox="0 0 119.49 99"><defs><style>.cls-1{fill:#e4262a;stroke-width:0px;}</style></defs><g id="Camada_1-2"><path class="cls-1" d="M117.45,32.06c-.09-.18-.36-.11-.35.09.07,1.21.03,2.45-.13,3.72-.92,7.2-5.45,13.53-11.53,17.18-.38.23-.42.76-.1,1.07l3.68,3.68c.39.39,1.01.43,1.46.12,5.43-3.68,9.01-9.91,9.01-16.96,0-3.19-.73-6.21-2.03-8.9"/><path class="cls-1" d="M10.2,75.11c0,4.75,2.43,8.93,6.12,11.37.33.22.75-.05.75-.45V.92C17.07.41,16.66,0,16.15,0h-5.04c-.51,0-.91.41-.91.91v74.19Z"/><path class="cls-1" d="M0,64.87c0,4.73,2.42,8.9,6.08,11.34.33.22.75-.05.75-.45V.91C6.82.41,6.42,0,5.91,0H.91C.41,0,0,.41,0,.91v63.95Z"/><path class="cls-1" d="M115.29,30.72c0-3.19-.73-6.21-2.03-8.9-.09-.18-.36-.11-.35.09.07,1.21.03,2.45-.13,3.72-1.12,8.74-7.54,16.19-15.62,19.13-.4.15-.54.65-.24.95l3.78,3.78c.39.39.98.54,1.49.34,7.67-2.96,13.11-10.4,13.11-19.11"/><path class="cls-1" d="M109.73,27.31c.75-2.14,1.17-4.43,1.17-6.83,0-1.17-.1-2.3-.29-3.42-.41-2.45-1.26-4.75-2.46-6.83-.71-1.23-1.54-2.37-2.47-3.42-3.75-4.19-9.2-6.82-15.26-6.82h-38.3c-.5,0-.91.41-.91.91v70.78h-23.9V.91c0-.51-.41-.91-.91-.91h-5.02c-.5,0-.91.41-.91.91v84.43c0,2.49.68,4.82,1.84,6.82,1.2,2.07,2.93,3.8,5,5,2.01,1.15,4.33,1.83,6.81,1.83h43.49c.5,0,.91-.41.91-.91V27.31h23.71c-2.71,4.73-8.44,7.69-14.36,8.4-.35.04-.48.48-.23.73l3.81,3.81c.42.42,1.01.62,1.6.54,7.76-.99,14.15-6.33,16.68-13.49M27.31,78.52h30.73V6.82h32.38c3.46,0,6.6,1.3,9.01,3.42h-37.11c-.51,0-.91.41-.91.91v70.78H27.31v-3.42ZM72.59,20.49c-.5,0-.91.41-.91.91v70.78h-37.58c-2.52,0-4.7-1.38-5.88-3.41h39.15c.51,0,.92-.41.92-.91V17.07h35.35c.28,1.09.45,2.23.45,3.42h-31.49Z"/></g></svg>