<?xml version="1.0" encoding="UTF-8"?><svg id="Camada_2" xmlns="http://www.w3.org/2000/svg" viewBox="0 0 522.22 554.25"><defs><style>.cls-1{fill:#4c0a01;stroke-width:0px;}</style></defs><g id="Camada_1-2"><path class="cls-1" d="M522.22,213.09l-2.38-1.36h0s-71.92-41.1-71.92-41.1v-1.24l-1.09.62-1.09-.62v1.24l-73.02,41.72-71.91-41.09,71.91-41.09,1.09.62v-1.24l1.11-.63-1.11-.63V42.34l-74.1,42.35V0s-77.39,44.21-77.39,44.21l75.22,42.98v82.18s0,1.24,0,1.24l-71.93,41.1h0s-2.12,1.21-2.12,1.21l-1.16.66-71.9,41.1-1.09-.62v1.24l-1.11.63,1.11.63v82.18l-74.11-42.35v85.94l-1.11.63,1.11.63v1.24l1.09-.62,71.91,41.1-74.11,42.34h0L0,510.02l77.39,44.23v-84.69s71.93,41.1,71.93,41.1v1.24l1.09-.62,1.09.62v-1.24l73.01-41.72,1.09.62,71.93,41.1v1.24l1.08-.62,1.09.62v-1.24l75.21-42.97h0l70.83-40.47,1.09-.62,1.09.62,71.92,41.1v1.24l1.09-.62,1.09.62v-1.24l.21-.12v-2.51l-.21.12v-80.94s.21.12.21.12v-3.99l-.21.12v-80.94l.21.12v-3.99l-.21.12v-80.94s.21.12.21.12v-2.51ZM297.53,84.69l-70.83-40.47L297.53,3.75v80.94ZM75.21,550.49L4.39,510.02l70.83-40.46v80.94ZM77.39,300.17l70.83,40.47-70.83,40.47v-80.94ZM149.32,508.14l-70.83-40.46,70.83-40.47v80.93ZM78.49,382.98l56.9-32.51,13.93-7.96v80.94s-70.83-40.47-70.83-40.47ZM223.42,215.48v80.94s-26.65-15.23-26.65-15.23l-44.17-25.24,70.82-40.47ZM152.6,340.64h0l47.81-27.32,23.01-13.15v80.94l-70.82-40.47ZM222.31,382.98l-70.82,40.47v-80.94l70.82,40.47ZM170.26,268.55l52.05,29.74-70.82,40.47v-80.94s18.76,10.72,18.76,10.72ZM151.5,508.14v-80.93s58.55,33.46,58.55,33.46l12.26,7.01-70.82,40.46ZM152.6,425.33l70.82-40.47v80.94s-70.82-40.47-70.82-40.47ZM297.53,173.13v80.95l-70.83-40.47,70.83-40.47ZM225.59,215.48l70.83,40.47-70.83,40.47v-80.94ZM225.59,300.17h0s70.83,40.47,70.83,40.47h0s0,0,0,0l-70.83,40.47h0s0-80.94,0-80.94ZM225.59,384.86l10.01,5.72,60.82,34.76-9.45,5.4-61.38,35.07v-80.94ZM297.53,508.15l-70.83-40.47,9.45-5.4,61.38-35.07v80.94ZM297.53,423.46l-10.01-5.72-60.82-34.76,70.83-40.47v80.95ZM226.7,298.29l70.83-40.47v80.94s-70.83-40.47-70.83-40.47ZM371.63,296.42l-61.09-34.91-9.73-5.56,17.55-10.03,53.27-30.44v80.94ZM346.24,314.68l25.39-14.51v80.94l-70.82-40.47,45.43-25.96ZM299.7,338.76v-80.94l70.82,40.47-57.29,32.74-13.53,7.73ZM371.63,46.09v80.94s-25.39-14.51-25.39-14.51l-45.43-25.96,70.82-40.47ZM299.7,88.44l13.53,7.73,57.29,32.74-70.82,40.47v-80.94ZM370.52,213.6l-26.33,15.04-44.5,25.42v-80.94s70.82,40.47,70.82,40.47ZM299.7,508.14v-80.93l70.82,40.47-70.82,40.46ZM300.81,425.33h0s-1.11-.63-1.11-.63v-82.19l71.93,41.1v82.19s-70.82-40.47-70.82-40.47ZM445.74,173.13v80.94l-70.83-40.47,70.83-40.47ZM373.81,215.48l70.83,40.47-70.83,40.47v-80.94ZM444.63,340.64l-70.83,40.47v-80.94s70.83,40.47,70.83,40.47ZM373.81,465.8v-80.94l1.84,1.05,68.99,39.42-70.83,40.47ZM445.74,423.46l-1.84-1.05-68.99-39.42,70.83-40.47v80.94ZM374.91,298.29l70.83-40.47h0s0,80.94,0,80.94l-70.83-40.47ZM447.91,173.13l70.82,40.47-70.82,40.47v-80.94ZM519.84,215.48v80.94l-70.82-40.47,70.82-40.47ZM447.91,257.83l70.82,40.47-63.1,36.06-7.72,4.41v-80.94ZM447.91,342.51l7.72,4.41,63.1,36.06-70.82,40.47v-80.94ZM519.84,465.8l-70.82-40.47h0l53.05-30.32,17.76-10.15v80.94ZM495.51,367.21l-46.49-26.57,46.49-26.57,24.32-13.9v80.94s-24.32-13.9-24.32-13.9Z"/></g></svg>