<?xml version="1.0" encoding="UTF-8"?><svg id="Camada_2" xmlns="http://www.w3.org/2000/svg" viewBox="0 0 1556.35 324.03"><defs><style>.cls-1{fill:none;stroke:#e4262a;stroke-miterlimit:10;}</style></defs><g id="Camada_1-2"><path class="cls-1" d="M257.48,274.22c0,10.56-2.36,19.61-7.03,27.12-4.69,7.53-13.35,13-26.01,16.3-6.07,1.53-12.68,2.62-19.92,3.4-7.27.76-14.46,1.27-21.71,1.59-7.27.26-14.01.5-20.38.65-6.33.15-11.48.24-15.38.24-25.92,0-48.19-2.18-66.74-6.57-18.54-4.34-33.69-11.8-45.44-22.38-11.76-10.56-20.38-24.57-25.79-42.08C3.66,235,.96,212.98.96,186.43L.5,10.89c0-3.62.92-6.11,2.71-7.44,1.81-1.37,4.39-2.07,7.7-2.07h48.39c4.52,0,7.46.63,8.81,1.83,1.37,1.22,2.05,3.77,2.05,7.68v179.62c0,12.37,1.07,23.19,3.19,32.35,2.09,9.21,5.87,16.82,11.28,22.8,5.45,6.09,12.74,10.54,21.97,13.4,9.18,2.86,21.03,4.3,35.5,4.3,2.12,0,4.97-.09,8.6-.22,3.62-.17,7.64-.3,12-.46,4.36-.13,8.88-.48,13.57-.92,4.67-.46,8.97-1.11,12.89-2.03V10.89c0-3.62.83-6.11,2.49-7.44,1.68-1.37,4.3-2.07,7.9-2.07h47.98c4.52,0,7.33.63,8.38,1.83,1.07,1.22,1.59,3.77,1.59,7.68v263.33Z"/><path class="cls-1" d="M375.56,121.29v187.3c0,3.95-.68,6.48-2.05,7.7-1.35,1.2-4.12,1.81-8.38,1.81h-47.47c-3.64,0-6.26-.7-7.94-2.05-1.66-1.35-2.49-3.84-2.49-7.46V32.63c0-11.78,2.09-19.98,6.33-24.65,4.23-4.67,11.93-7.03,23.08-7.03h19c4.52,0,8.38.22,11.52.68,3.21.46,5.98,1.44,8.4,2.92,2.38,1.53,4.69,3.64,6.78,6.33,2.09,2.73,4.52,6.22,7.24,10.43l115.8,178.24h2.25V10.46c0-3.64.7-6.11,2.03-7.46,1.37-1.37,4.17-2.05,8.38-2.05h47.52c6.94,0,10.41,3.16,10.41,9.51v276.42c0,9.66-1.96,17.28-5.89,22.86-3.93,5.59-11.76,8.36-23.5,8.36h-19.02c-4.52,0-8.36-.24-11.54-.7-3.16-.44-5.96-1.37-8.38-2.92-2.42-1.51-4.67-3.56-6.76-6.09-2.14-2.57-4.54-6-7.24-10.23l-115.8-176.87h-2.27Z"/><path class="cls-1" d="M692.92,316.3c-1.35,1.2-4.32,1.81-8.81,1.81h-48c-3.62,0-6.26-.7-7.92-2.07-1.64-1.33-2.49-3.82-2.49-7.46V10.89c0-3.62.85-6.09,2.49-7.44,1.66-1.35,4.3-2.07,7.92-2.07h48c4.49,0,7.46.65,8.81,1.83,1.35,1.22,2.01,3.77,2.01,7.68v297.69c0,3.95-.65,6.48-2.01,7.72"/><path class="cls-1" d="M1157.26,252.05h-103.59l-17.67,57.47c-.92,3.01-2.18,5.19-3.84,6.52-1.66,1.37-4.6,2.07-8.84,2.07h-52.93c-3.32,0-5.35-.92-6.11-2.73-.74-1.83-.83-3.93-.22-6.35l94.1-283.66c1.51-5.11,3.23-9.27,5.21-12.44,1.96-3.16,4.23-5.67,6.78-7.46,2.55-1.83,5.59-3.1,9.08-3.86,3.43-.74,7.46-1.11,11.98-1.11h27.14c5.11,0,9.49.2,13.11.68,3.62.44,6.78,1.59,9.51,3.38,2.73,1.81,5.04,4.39,7,7.7,1.94,3.34,3.82,7.7,5.67,13.11l94.07,283.66c.63,1.81.63,3.77,0,5.91-.61,2.07-2.57,3.16-5.87,3.16h-53.84c-3.32,0-6.09-.37-8.38-1.16-2.25-.74-3.82-2.79-4.73-6.11l-17.65-58.8ZM1069.93,196.39h71.06l-33.93-122.61h-2.75l-34.38,122.61Z"/><path class="cls-1" d="M981.32,60.23c-4.87-12.06-11.85-22.45-21.05-31.24-9.21-8.73-20.35-15.58-33.47-20.57-13.13-4.97-27.82-7.46-44.11-7.46h-110.85c-10.84,0-18.09,2.49-21.71,7.46-3.6,5-5.45,11.69-5.45,20.12v280.06c0,3.62.87,6.11,2.51,7.46,1.66,1.35,4.32,2.05,7.92,2.05h47.52c4.52,0,7.44-.52,8.79-1.61,1.37-1.03,2.05-3.69,2.05-7.9V61.58h58.82c9.03,0,16.52,1.42,22.41,4.28,5.85,2.88,10.54,6.52,14.01,10.86,3.47,4.38,5.8,9.05,7,14.01,1.2,5.02,1.81,9.6,1.81,13.81,0,12.11-3.6,22.25-10.84,30.57-7.24,8.31-18.54,12.44-33.97,12.44h-24.91c-3.73,0-7.33,2.09-9.12,5.63-1.79,3.58-1.29,7.7.98,10.69l26.4,35.23c.92,1.24,2.14,2.27,3.6,3.03,1.48.72,3.97,1.07,3.97,1.07,25.37,0,45.66-3.95,60.89-11.76,15.23-7.88,26.81-17.26,34.8-28.3,7.98-11,13.2-22.34,15.62-33.93,2.4-11.58,3.64-21.34,3.64-29.17,0-14.51-2.42-27.73-7.24-39.82"/><path class="cls-1" d="M1553.9,302.66l-85.72-114.3c12.57-7.22,22.49-15.58,29.5-25.24,8.01-10.97,13.2-22.32,15.62-33.9,2.42-11.58,3.62-21.36,3.62-29.17,0-14.51-2.42-27.75-7.22-39.82-4.84-12.06-11.85-22.47-21.05-31.24-9.21-8.73-20.36-15.6-33.47-20.57-13.13-4.97-27.86-7.46-44.14-7.46h-110.85c-10.84,0-18.06,2.49-21.71,7.46-3.62,4.97-5.41,11.69-5.41,20.12v280.04c0,3.62.81,6.13,2.49,7.46,1.64,1.37,4.28,2.07,7.9,2.07h47.52c4.52,0,7.46-.52,8.84-1.61,1.35-1.03,2.03-3.69,2.03-7.92V61.57h58.82c9.05,0,16.49,1.44,22.41,4.3,5.85,2.86,10.52,6.5,14.03,10.86,3.45,4.38,5.76,9.05,6.98,14.01,1.2,5.02,1.81,9.6,1.81,13.81,0,12.11-3.6,22.23-10.84,30.54-7.24,8.31-18.54,12.46-33.93,12.46h-24.94c-3.75,0-7.35,2.07-9.14,5.61-1.79,3.6-1.29,7.72.96,10.71l104.09,138.8c7.24,9.69,18.72,15.45,30.83,15.45h43.28c7.94,0,12.48-9.08,7.7-15.45"/></g></svg>