<?xml version="1.0" encoding="UTF-8"?><svg id="Camada_2" xmlns="http://www.w3.org/2000/svg" viewBox="0 0 952.83 952.83"><defs><style>.cls-1{stroke:#e4262a;}.cls-1,.cls-2{fill:none;stroke-miterlimit:10;stroke-width:3px;}.cls-2{stroke:#fff;}.cls-3{opacity:.15;}.cls-4{fill:#fff;stroke-width:0px;}</style></defs><g id="Camada_1-2"><circle class="cls-1" cx="476.42" cy="476.42" r="474.86"/><g class="cls-3"><path class="cls-4" d="M476.76,921.73c-30.89,0-62.05-3.28-92.61-9.76-56.57-11.98-109.44-34.4-157.15-66.61-49.39-33.36-91.04-75.82-123.81-126.2-32.77-50.39-54.69-105.68-65.16-164.35-10.11-56.67-9.16-114.09,2.83-170.66,11.98-56.57,34.4-109.44,66.61-157.15,33.35-49.39,75.81-91.04,126.2-123.81,50.39-32.77,105.68-54.69,164.35-65.16,25.78-4.6,52.04-6.93,78.04-6.93,30.89,0,62.05,3.28,92.61,9.76,56.57,11.98,109.44,34.4,157.15,66.61,49.39,33.35,91.04,75.81,123.81,126.2,32.77,50.39,54.69,105.68,65.16,164.35,10.11,56.67,9.16,114.09-2.83,170.66-11.98,56.57-34.4,109.44-66.61,157.15-33.35,49.39-75.81,91.04-126.2,123.81-50.39,32.77-105.68,54.69-164.35,65.16-25.78,4.6-52.04,6.93-78.05,6.93ZM475.85,119.49c-69,0-136.12,19.93-194.08,57.63-165.03,107.33-211.97,328.92-104.64,493.95,66.08,101.6,178.18,162.26,299.87,162.27h.03c68.98,0,136.08-19.93,194.05-57.63,79.81-51.91,134.67-131.94,154.45-225.34,19.79-93.4,2.1-188.8-49.81-268.61-66.08-101.61-178.18-162.27-299.87-162.27Z"/></g><path class="cls-4" d="M398.64,885.69l-1.35-.28c-.35-.07-.51-.31-.38-.65l6.85-18.83c3.36-9.25,3.11-13.26-7.22-15.44-1.1-.23-4.93-.83-8.56-.92l-11.23,30.94c-.12.34-.37.5-.72.42l-1.4-.3c-.35-.07-.46-.3-.28-.63l11.04-30.56c.58-1.5,1.35-2.22,3.17-2.2,2.6.03,6.8.65,8.79,1.07,10.78,2.28,13.13,6.21,9.04,17.65l-7,19.32c-.12.34-.37.5-.77.41Z"/><path class="cls-4" d="M342.64,871.2l-1.22-.37c-.34-.1-.48-.36-.33-.68l14.2-30.83c.43-.89.91-1.43,2.08-1.08l.68.2c.93.28,1.02.68,1.12,1.93l3.9,27.64.75,6.03.2.06,13.46-29.24c.15-.33.41-.47.75-.36l1.27.38c.34.1.48.36.33.69l-14.14,30.8c-.44.93-.97,1.47-2.14,1.11l-.68-.21c-.93-.28-.92-.65-1.12-1.93l-3.61-25.95-.95-7.85-.2-.06-13.5,29.39c-.2.31-.5.43-.85.33Z"/><path class="cls-4" d="M331.23,866.85l-1.29-.47c-.34-.12-.41-.37-.24-.68l16.41-30.89c.12-.34.38-.46.72-.34l1.29.47c.38.14.51.4.34.72l-16.41,30.89c-.17.32-.43.44-.81.3Z"/><path class="cls-4" d="M304.03,846.04c1.73-4.09,6.44-9.62,15.37-5.86l9.3,3.93,7.74-12.84c.14-.33.41-.44.78-.28l1.22.52c.33.14.44.41.25.71l-17.23,28.76c-.62,1.07-1.34,1.59-2.84.96l-9.96-4.2c-5.12-2.16-6.72-6.76-4.64-11.7ZM327.5,846.15l-9.02-3.81c-5.03-2.12-9.72-.84-12.02,4.61-1.27,3.01-1.09,6.79,3.79,8.85l9.11,3.85,8.13-13.5Z"/><path class="cls-4" d="M295.65,812.28l-2.4,8.39,14.35,7.23,7.55-5.79c.27-.2.57-.23.8-.11l1.78.9c.32.16.34.34.04.59l-30.26,22.85c-.96.66-1.19.77-2.05.34l-.73-.37c-.96-.48-1-.73-.77-1.76l9.26-33.43c.02-.16.18-.48.55-.29l1.5.76c.32.16.43.27.39.71ZM286.58,843.98l.14.07,7.11-5.5,11.78-9.08-13.03-6.57-3.69,12.99-2.31,8.09Z"/><path class="cls-4" d="M253.41,818.91c2.74-4.54,7.19-6.21,11.7-5.1l.08-.13c-1.73-2.17-1.43-4.25-.29-6.84l4.28-9.98c.14-.33.33-.45.64-.27l1.44.87c.17.1.48.29.29.71l-4.1,9.38c-1.75,4.19-.27,6.38,2.74,8.2l7.73,4.66,9.96-12.28c.23-.28.51-.35.86-.14l1.18.71c.31.18.38.46.15.74l-21.15,26.02c-.76.97-1.55,1.39-2.95.55l-9.39-5.66c-4.85-2.92-5.6-7.42-3.17-11.44ZM276.44,822.18l-8.48-5.1c-4.54-2.74-9.44-1.63-12.22,3-1.89,3.15-1.07,6.32,2.56,8.51l8.7,5.24,9.45-11.64Z"/><path class="cls-4" d="M237.2,792.58c1.63-2.22,4.89-2.6,6.91-1.12,1.77,1.3,2.02,3.45.78,5.13-1.6,2.18-4.84,2.71-6.94,1.16-1.77-1.3-2.05-3.41-.75-5.18Z"/><path class="cls-4" d="M204.6,792.26l-1.02-.92c-.27-.24-.28-.53,0-.76l15.34-12.89c7.53-6.33,9.33-9.93,1.47-16.98-.83-.75-3.85-3.19-6.95-5.08l-25.19,21.18c-.28.23-.56.25-.83,0l-1.06-.95c-.27-.24-.24-.49.07-.69l24.84-20.94c1.25-1.01,2.28-1.24,3.85-.32,2.24,1.33,5.56,3.96,7.08,5.33,8.2,7.36,8.26,11.94-1,19.81l-15.72,13.23c-.28.23-.56.25-.87-.03Z"/><path class="cls-4" d="M163.39,751.73l-.87-.93c-.25-.26-.24-.55.06-.76l27.72-19.58c.81-.55,1.5-.78,2.34.11l.49.52c.66.71.54,1.1,0,2.24l-10.45,25.87-2.37,5.59.14.15,26.28-18.58c.29-.21.58-.2.83.06l.91.97c.24.26.24.55-.06.76l-27.65,19.58c-.85.59-1.58.78-2.41-.11l-.49-.52c-.66-.71-.47-1.02,0-2.24l9.86-24.27,3.11-7.27-.14-.15-26.39,18.68c-.33.17-.65.12-.9-.14Z"/><path class="cls-4" d="M155.68,742.22l-.89-1.05c-.23-.27-.17-.52.13-.71l29.67-18.51c.27-.23.56-.2.79.07l.89,1.06c.26.31.24.6-.07.79l-29.67,18.51c-.31.19-.59.17-.86-.15Z"/><path class="cls-4" d="M142.53,710.58c3.54-2.67,10.4-5.11,16.24,2.63l6.09,8.06,13.13-7.24c.29-.22.57-.18.82.15l.8,1.06c.21.28.17.57-.14.74l-29.32,16.27c-1.07.62-1.96.71-2.94-.59l-6.52-8.63c-3.35-4.44-2.43-9.22,1.84-12.45ZM162.8,722.44l-5.9-7.81c-3.29-4.35-8-5.59-12.72-2.03-2.6,1.97-4.35,5.33-1.15,9.56l5.96,7.9,13.81-7.62Z"/><path class="cls-4" d="M152.34,677.2l-6.35,5.98,8.64,13.55,9.45-1.12c.34-.04.61.1.74.31l1.07,1.68c.19.3.12.47-.27.53l-37.68,4.18c-1.16.07-1.42.06-1.94-.76l-.44-.69c-.58-.9-.49-1.14.24-1.9l25.04-24.01c.1-.12.4-.32.62.03l.9,1.42c.19.3.23.46-.03.81ZM128.35,699.81l.08.13,8.92-1.09,14.76-1.79-7.84-12.3-9.81,9.28-6.12,5.78Z"/><path class="cls-4" d="M112.26,661.83c4.64-2.57,9.33-1.79,12.68,1.42l.13-.07c-.41-2.74.88-4.4,3.16-6.07l8.69-6.51c.29-.22.52-.23.69.08l.82,1.47c.1.18.27.49-.11.76l-8.23,6.08c-3.6,2.76-3.42,5.4-1.71,8.47l4.38,7.89,14.75-5.68c.34-.13.61-.05.81.31l.67,1.2c.17.31.09.59-.24.72l-31.31,12c-1.14.46-2.04.43-2.83-1l-5.32-9.59c-2.75-4.95-1.15-9.22,2.95-11.49ZM130.59,676.15l-4.8-8.65c-2.57-4.64-7.36-6.12-12.09-3.5-3.21,1.78-4.08,4.94-2.03,8.65l4.92,8.87,13.99-5.37Z"/><path class="cls-4" d="M111.34,630.94c2.52-1.11,5.54.18,6.55,2.47.88,2.01.03,4-1.88,4.84-2.47,1.09-5.55-.07-6.59-2.45-.88-2.01-.08-3.98,1.93-4.86Z"/><path class="cls-4" d="M83.24,614.48l-.43-1.31c-.11-.34.02-.6.37-.66l19.72-3.54c9.68-1.74,13.03-3.96,9.73-13.99-.35-1.07-1.76-4.68-3.5-7.87l-32.39,5.83c-.35.06-.61-.07-.72-.41l-.45-1.36c-.11-.34.03-.55.41-.56l31.97-5.8c1.58-.25,2.6.06,3.49,1.64,1.28,2.26,2.85,6.2,3.48,8.14,3.44,10.46,1.22,14.47-10.72,16.68l-20.22,3.65c-.36.06-.61-.07-.74-.45Z"/><path class="cls-4" d="M67.69,558.73l-.3-1.24c-.08-.35.07-.59.43-.62l33.79-3.16c.98-.08,1.69.07,1.98,1.26l.17.69c.22.94-.08,1.22-1.11,1.94l-21.96,17.22-4.84,3.67.05.2,32.05-3.01c.36-.03.6.12.69.47l.31,1.29c.08.35-.07.59-.43.63l-33.73,3.2c-1.03.09-1.75-.11-2.04-1.3l-.17-.69c-.22-.94.1-1.13,1.11-1.94l20.64-16.12,6.31-4.75-.05-.2-32.19,3.04c-.37-.02-.63-.22-.71-.56Z"/><path class="cls-4" d="M65.74,546.67l-.24-1.35c-.06-.35.11-.54.47-.55l34.95-1.26c.35-.06.59.1.65.45l.24,1.36c.07.4-.09.64-.45.65l-34.95,1.26c-.36.01-.6-.15-.67-.55Z"/><path class="cls-4" d="M70.14,512.7c4.4-.55,11.56.76,12.76,10.38l1.26,10.02,14.99.28c.35-.04.58.13.63.54l.16,1.32c.04.35-.13.58-.49.58l-33.52-.53c-1.23,0-2.05-.36-2.25-1.98l-1.34-10.73c-.69-5.52,2.5-9.2,7.81-9.87ZM81.79,533.08l-1.22-9.71c-.68-5.42-4.14-8.83-10.01-8.1-3.24.41-6.43,2.45-5.77,7.71l1.23,9.82,15.76.29Z"/><path class="cls-4" d="M95.18,488.57l-8.46,2.12.91,16.04,8.79,3.64c.31.14.48.38.5.64l.11,1.99c.02.36-.13.47-.49.33l-34.91-14.77c-1.05-.5-1.26-.64-1.32-1.61l-.05-.81c-.06-1.07.13-1.23,1.14-1.55l33.58-8.7c.15-.06.51-.08.53.33l.1,1.68c.02.36-.02.51-.42.69ZM63.2,496.57v.15s8.33,3.41,8.33,3.41l13.76,5.65-.83-14.56-13.09,3.3-8.16,2.05Z"/><path class="cls-4" d="M68.32,455.29c5.3.1,8.97,3.12,10.27,7.58h.15c1.02-2.58,2.97-3.36,5.78-3.67l10.78-1.29c.36-.04.56.06.55.42l-.03,1.68c0,.2,0,.56-.47.6l-10.17,1.14c-4.5.58-5.66,2.96-5.73,6.48l-.16,9.02,15.61,2.47c.36.06.56.27.55.67l-.02,1.38c0,.36-.21.56-.57.5l-33.11-5.29c-1.22-.18-1.98-.65-1.95-2.28l.2-10.96c.1-5.66,3.62-8.56,8.31-8.47ZM77.01,476.87l.18-9.89c.1-5.3-3.31-8.99-8.71-9.08-3.67-.07-6.01,2.24-6.08,6.47l-.18,10.15,14.8,2.36Z"/><path class="cls-4" d="M82.99,428.1c2.74.3,4.71,2.93,4.43,5.41-.24,2.18-1.97,3.48-4.05,3.25-2.69-.3-4.77-2.83-4.48-5.42.24-2.18,1.92-3.48,4.1-3.24Z"/><path class="cls-4" d="M66.91,399.76l.28-1.35c.07-.35.31-.51.65-.38l18.85,6.79c9.25,3.33,13.27,3.08,15.42-7.26.23-1.1.82-4.93.9-8.56l-30.96-11.14c-.34-.12-.5-.36-.42-.71l.29-1.4c.07-.35.3-.46.63-.29l30.58,10.96c1.5.57,2.22,1.35,2.2,3.17-.02,2.6-.63,6.8-1.05,8.79-2.25,10.78-6.18,13.14-17.62,9.09l-19.34-6.95c-.34-.12-.5-.36-.41-.76Z"/><path class="cls-4" d="M81.23,343.75l.36-1.22c.1-.34.36-.48.68-.33l30.87,14.12c.89.42,1.43.9,1.09,2.08l-.2.68c-.28.93-.68,1.02-1.93,1.13l-27.62,3.98-6.03.76-.06.19,29.28,13.38c.33.15.47.4.36.75l-.38,1.27c-.1.34-.35.48-.68.33l-30.83-14.05c-.93-.44-1.47-.97-1.12-2.14l.2-.68c.28-.93.65-.92,1.93-1.13l25.94-3.68,7.84-.97.06-.2-29.43-13.42c-.31-.2-.44-.5-.33-.84Z"/><path class="cls-4" d="M85.55,332.34l.47-1.3c.12-.34.36-.41.68-.24l30.93,16.32c.34.12.46.38.34.72l-.47,1.3c-.14.38-.4.51-.72.34l-30.93-16.32c-.32-.17-.44-.43-.3-.81Z"/><path class="cls-4" d="M106.28,305.06c4.09,1.71,9.64,6.41,5.9,15.35l-3.9,9.31,12.86,7.71c.33.14.44.41.28.78l-.51,1.22c-.14.33-.4.44-.71.25l-28.81-17.15c-1.07-.61-1.6-1.33-.97-2.84l4.17-9.97c2.15-5.13,6.75-6.74,11.69-4.67ZM106.23,328.54l3.78-9.03c2.11-5.03.81-9.72-4.65-12.01-3.01-1.26-6.79-1.07-8.84,3.82l-3.82,9.13,13.53,8.1Z"/><path class="cls-4" d="M140.01,296.61l-8.39-2.38-7.19,14.37,5.81,7.53c.21.27.23.57.11.8l-.89,1.78c-.16.32-.34.34-.59.04l-22.93-30.19c-.66-.96-.77-1.19-.34-2.05l.37-.73c.48-.96.73-1,1.76-.77l33.46,9.17c.16.02.48.18.3.55l-.75,1.5c-.16.32-.27.43-.71.39ZM108.28,287.63l-.07.14,5.52,7.1,9.12,11.75,6.53-13.04-13-3.66-8.1-2.29Z"/><path class="cls-4" d="M133.27,254.36c4.55,2.72,6.23,7.17,5.13,11.69l.13.08c2.17-1.73,4.25-1.44,6.84-.31l10,4.26c.33.14.46.33.27.64l-.86,1.44c-.1.18-.29.48-.71.29l-9.39-4.07c-4.19-1.74-6.39-.25-8.19,2.77l-4.63,7.75,12.31,9.92c.28.23.35.51.14.86l-.71,1.18c-.18.31-.46.38-.74.15l-26.09-21.07c-.97-.76-1.39-1.55-.56-2.95l5.63-9.41c2.91-4.86,7.4-5.62,11.43-3.21ZM130.07,277.4l5.08-8.49c2.72-4.55,1.61-9.44-3.04-12.22-3.15-1.88-6.33-1.05-8.5,2.58l-5.21,8.71,11.67,9.41Z"/><path class="cls-4" d="M159.56,238.09c2.22,1.63,2.62,4.89,1.14,6.9-1.3,1.77-3.44,2.03-5.13.79-2.18-1.6-2.72-4.83-1.18-6.93,1.3-1.77,3.4-2.06,5.17-.77Z"/><path class="cls-4" d="M159.77,205.51l.92-1.03c.24-.27.52-.28.76,0l12.93,15.3c6.35,7.51,9.96,9.29,16.98,1.42.75-.84,3.17-3.86,5.06-6.97l-21.26-25.12c-.23-.28-.25-.56-.01-.83l.95-1.07c.24-.27.49-.24.69.07l21.02,24.77c1.01,1.24,1.25,2.28.33,3.85-1.32,2.24-3.95,5.57-5.3,7.09-7.33,8.22-11.92,8.3-19.81-.93l-13.28-15.68c-.23-.27-.25-.56.02-.87Z"/><path class="cls-4" d="M200.21,164.15l.93-.88c.26-.25.55-.24.76.06l19.66,27.67c.56.81.79,1.5-.1,2.34l-.52.49c-.7.67-1.1.55-2.24.01l-25.91-10.38-5.6-2.35-.15.14,18.65,26.24c.21.29.2.58-.06.83l-.96.91c-.26.25-.55.24-.76-.06l-19.66-27.6c-.59-.85-.79-1.57.1-2.42l.52-.49c.7-.67,1.02-.48,2.24-.01l24.3,9.8,7.27,3.09.15-.14-18.76-26.35c-.17-.33-.13-.65.13-.9Z"/><path class="cls-4" d="M209.69,156.43l1.05-.89c.27-.23.52-.17.71.13l18.59,29.62c.23.27.21.56-.07.79l-1.05.89c-.31.26-.6.24-.79-.07l-18.59-29.62c-.19-.31-.17-.59.14-.86Z"/><path class="cls-4" d="M241.27,143.19c2.69,3.53,5.14,10.38-2.58,16.25l-8.04,6.11,7.28,13.11c.22.28.18.57-.15.82l-1.06.8c-.28.22-.57.18-.75-.14l-16.36-29.27c-.62-1.07-.72-1.95.58-2.94l8.61-6.54c4.43-3.36,9.22-2.46,12.46,1.81ZM229.48,163.5l7.8-5.92c4.34-3.3,5.57-8.01,1.99-12.72-1.97-2.6-5.34-4.33-9.56-1.12l-7.88,5.99,7.66,13.78Z"/><path class="cls-4" d="M274.7,152.94l-5.98-6.35-13.55,8.64,1.12,9.45c.04.34-.1.61-.31.74l-1.68,1.07c-.3.19-.47.12-.53-.27l-4.18-37.68c-.08-1.16-.06-1.42.76-1.94l.69-.44c.9-.58,1.14-.49,1.91.24l24.01,25.04c.13.1.32.4-.03.62l-1.42.9c-.3.19-.46.23-.81-.03ZM252.08,128.95l-.13.08,1.09,8.92,1.79,14.76,12.3-7.84-9.28-9.81-5.78-6.12Z"/><path class="cls-4" d="M289.95,112.78c2.59,4.63,1.82,9.32-1.38,12.69l.07.13c2.74-.42,4.4.87,6.08,3.15l6.54,8.67c.22.29.23.51-.08.69l-1.47.82c-.18.1-.49.27-.76-.1l-6.11-8.21c-2.77-3.6-5.41-3.4-8.48-1.69l-7.88,4.4,5.72,14.74c.13.34.05.61-.31.81l-1.2.67c-.31.17-.59.1-.72-.24l-12.1-31.27c-.46-1.14-.44-2.04.99-2.83l9.57-5.35c4.94-2.76,9.22-1.18,11.5,2.92ZM275.68,131.16l8.64-4.83c4.63-2.59,6.1-7.38,3.46-12.1-1.79-3.21-4.96-4.06-8.65-2l-8.86,4.95,5.41,13.98Z"/><path class="cls-4" d="M320.84,111.78c1.12,2.52-.16,5.54-2.45,6.55-2,.89-4,.04-4.85-1.87-1.1-2.47.05-5.54,2.43-6.6,2-.89,3.98-.09,4.87,1.91Z"/><path class="cls-4" d="M337.27,83.63l1.31-.43c.34-.11.6.02.66.37l3.59,19.71c1.76,9.68,4,13.02,14.02,9.69,1.07-.35,4.68-1.77,7.86-3.52l-5.91-32.38c-.06-.35.07-.61.4-.73l1.36-.45c.34-.11.55.03.56.4l5.88,31.96c.26,1.58-.05,2.6-1.63,3.5-2.26,1.29-6.2,2.86-8.13,3.5-10.46,3.47-14.47,1.26-16.71-10.68l-3.7-20.21c-.06-.35.07-.61.45-.74Z"/><path class="cls-4" d="M392.95,67.93l1.24-.3c.35-.08.59.07.63.43l3.25,33.78c.08.98-.06,1.69-1.25,1.98l-.69.17c-.94.23-1.22-.07-1.94-1.11l-17.28-21.91-3.68-4.83-.2.05,3.09,32.04c.03.36-.12.6-.46.69l-1.29.31c-.35.08-.59-.07-.63-.43l-3.28-33.72c-.09-1.03.1-1.76,1.29-2.04l.69-.17c.94-.23,1.12.1,1.94,1.11l16.18,20.6,4.77,6.3.2-.05-3.12-32.19c.02-.37.22-.63.56-.71Z"/><path class="cls-4" d="M405,65.95l1.35-.25c.35-.06.54.11.55.47l1.35,34.94c.06.35-.1.59-.45.65l-1.36.25c-.4.07-.64-.09-.65-.45l-1.35-34.94c-.01-.36.15-.6.55-.67Z"/><path class="cls-4" d="M438.98,70.25c.56,4.4-.73,11.56-10.34,12.79l-10.02,1.28-.24,14.99c.05.35-.13.58-.54.63l-1.31.17c-.35.05-.58-.13-.58-.49l.44-33.53c0-1.23.35-2.05,1.97-2.26l10.72-1.37c5.51-.71,9.21,2.47,9.89,7.78ZM418.63,81.95l9.71-1.24c5.41-.69,8.82-4.16,8.07-10.03-.41-3.24-2.47-6.42-7.73-5.75l-9.81,1.26-.24,15.76Z"/><path class="cls-4" d="M463.19,95.23l-2.14-8.46-16.03.96-3.61,8.8c-.13.31-.38.48-.63.5l-1.99.12c-.36.02-.47-.12-.34-.49l14.68-34.95c.5-1.05.64-1.26,1.61-1.32l.81-.05c1.07-.06,1.23.13,1.55,1.13l8.79,33.55c.06.15.08.51-.33.53l-1.68.1c-.36.02-.51-.02-.69-.42ZM455.1,63.27h-.15s-3.39,8.33-3.39,8.33l-5.62,13.77,14.56-.87-3.33-13.08-2.07-8.15Z"/><path class="cls-4" d="M496.39,68.26c-.08,5.3-3.09,8.98-7.55,10.29v.15c2.58,1.01,3.37,2.96,3.69,5.77l1.32,10.78c.05.36-.06.56-.42.55l-1.68-.02c-.2,0-.56,0-.6-.47l-1.17-10.17c-.6-4.5-2.98-5.66-6.49-5.71l-9.03-.14-2.43,15.62c-.06.36-.26.56-.67.55l-1.38-.02c-.36,0-.56-.21-.5-.57l5.19-33.13c.17-1.22.64-1.98,2.27-1.96l10.96.16c5.66.09,8.57,3.6,8.5,8.29ZM474.84,77.02l9.89.15c5.3.08,8.98-3.33,9.06-8.74.05-3.67-2.26-6-6.49-6.07l-10.15-.15-2.31,14.81Z"/><path class="cls-4" d="M523.63,82.87c-.29,2.74-2.92,4.71-5.4,4.45-2.18-.23-3.48-1.96-3.26-4.04.29-2.69,2.82-4.77,5.41-4.5,2.18.23,3.49,1.91,3.25,4.09Z"/><path class="cls-4" d="M551.89,66.7l1.35.28c.35.07.51.31.39.65l-6.74,18.87c-3.31,9.27-3.04,13.28,7.3,15.4,1.1.23,4.94.81,8.57.88l11.06-31c.12-.34.36-.5.71-.43l1.4.29c.35.07.46.3.29.63l-10.88,30.62c-.57,1.5-1.34,2.22-3.16,2.21-2.6-.01-6.8-.62-8.8-1.03-10.79-2.22-13.16-6.14-9.14-17.6l6.89-19.36c.12-.34.36-.5.76-.42Z"/><path class="cls-4" d="M607.96,80.88l1.22.36c.34.1.48.35.33.68l-14.03,30.91c-.42.89-.9,1.44-2.07,1.09l-.69-.2c-.93-.27-1.02-.67-1.13-1.93l-4.06-27.61-.78-6.02-.2-.06-13.3,29.31c-.15.33-.4.47-.75.37l-1.27-.37c-.34-.1-.48-.35-.33-.68l13.97-30.87c.44-.94.96-1.47,2.14-1.13l.69.2c.93.27.93.64,1.13,1.93l3.75,25.93.99,7.84.2.06,13.34-29.46c.2-.31.5-.44.84-.34Z"/><path class="cls-4" d="M619.4,85.17l1.3.46c.34.12.41.36.24.68l-16.24,30.97c-.12.34-.38.46-.72.34l-1.3-.46c-.38-.14-.51-.4-.34-.72l16.24-30.97c.17-.32.43-.44.81-.31Z"/><path class="cls-4" d="M646.73,105.82c-1.7,4.1-6.39,9.66-15.34,5.95l-9.33-3.87-7.67,12.88c-.14.33-.4.44-.78.28l-1.22-.51c-.33-.14-.44-.4-.26-.71l17.07-28.86c.61-1.07,1.33-1.6,2.84-.98l9.98,4.15c5.13,2.13,6.76,6.73,4.71,11.67ZM623.25,105.84l9.04,3.76c5.04,2.09,9.73.78,12-4.68,1.25-3.01,1.05-6.8-3.84-8.83l-9.14-3.79-8.06,13.55Z"/><path class="cls-4" d="M655.26,139.52l2.35-8.4-14.38-7.15-7.51,5.83c-.27.21-.57.23-.8.12l-1.78-.89c-.32-.16-.34-.34-.05-.59l30.12-23.01c.96-.66,1.18-.78,2.05-.35l.73.36c.96.48,1.01.73.78,1.75l-9.07,33.48c-.02.16-.18.48-.55.3l-1.51-.75c-.32-.16-.43-.27-.39-.71ZM664.16,107.78l-.14-.07-7.08,5.54-11.73,9.15,13.06,6.49,3.62-13.01,2.26-8.1Z"/><path class="cls-4" d="M697.5,132.68c-2.71,4.56-7.16,6.25-11.67,5.16l-.08.13c1.74,2.16,1.45,4.25.33,6.84l-4.23,10.01c-.14.33-.33.46-.64.27l-1.45-.86c-.17-.1-.48-.29-.29-.71l4.05-9.4c1.72-4.2.24-6.39-2.79-8.19l-7.76-4.61-9.89,12.34c-.23.28-.51.35-.86.14l-1.18-.7c-.31-.18-.38-.46-.15-.74l21-26.15c.76-.97,1.54-1.4,2.95-.56l9.43,5.6c4.87,2.89,5.64,7.39,3.24,11.42ZM674.44,129.53l8.51,5.06c4.56,2.71,9.44,1.58,12.21-3.07,1.88-3.16,1.03-6.33-2.61-8.49l-8.73-5.19-9.38,11.69Z"/><path class="cls-4" d="M713.83,158.91c-1.62,2.23-4.88,2.63-6.9,1.16-1.77-1.29-2.04-3.44-.81-5.13,1.59-2.19,4.83-2.73,6.93-1.2,1.77,1.29,2.07,3.4.78,5.17Z"/><path class="cls-4" d="M746.41,159.02l1.03.91c.27.24.28.52,0,.76l-15.27,12.98c-7.5,6.37-9.27,9.98-1.37,16.99.84.74,3.87,3.16,6.98,5.04l25.07-21.33c.27-.23.56-.25.83-.01l1.07.95c.27.24.25.49-.07.69l-24.72,21.09c-1.24,1.01-2.27,1.26-3.85.34-2.25-1.31-5.58-3.93-7.11-5.28-8.24-7.31-8.33-11.89.88-19.81l15.64-13.32c.28-.23.56-.25.87.02Z"/><path class="cls-4" d="M787.89,199.37l.88.92c.25.26.24.55-.05.76l-27.61,19.73c-.81.56-1.5.79-2.34-.09l-.49-.52c-.67-.7-.55-1.1-.02-2.24l10.31-25.93,2.34-5.6-.14-.15-26.18,18.72c-.29.21-.58.2-.83-.06l-.91-.96c-.25-.26-.24-.55.05-.76l27.54-19.73c.84-.59,1.57-.79,2.41.1l.49.52c.67.7.48,1.02.02,2.24l-9.73,24.32-3.07,7.28.14.15,26.29-18.83c.33-.17.65-.13.9.13Z"/><path class="cls-4" d="M795.64,208.82l.89,1.05c.23.27.17.52-.13.71l-29.57,18.67c-.27.23-.56.21-.79-.06l-.89-1.05c-.26-.31-.24-.6.06-.79l29.57-18.67c.31-.19.59-.17.86.14Z"/><path class="cls-4" d="M808.94,240.36c-3.53,2.69-10.37,5.16-16.25-2.53l-6.13-8.02-13.09,7.31c-.28.22-.57.18-.82-.15l-.81-1.05c-.22-.28-.18-.57.14-.75l29.22-16.43c1.07-.62,1.95-.72,2.94.58l6.57,8.59c3.38,4.42,2.48,9.21-1.77,12.46ZM788.61,228.62l5.95,7.78c3.31,4.34,8.03,5.55,12.73,1.95,2.59-1.98,4.32-5.35,1.1-9.57l-6.01-7.86-13.76,7.69Z"/><path class="cls-4" d="M799.54,273.66l6.15-6.19-9.07-13.26-9.4,1.43c-.34.05-.61-.08-.75-.29l-1.12-1.64c-.2-.29-.13-.46.25-.54l37.52-5.4c1.16-.11,1.41-.1,1.96.7l.46.67c.6.88.52,1.13-.18,1.91l-24.25,24.8c-.1.13-.39.33-.62,0l-.95-1.39c-.2-.3-.25-.45,0-.81ZM822.79,250.28l-.09-.13-8.88,1.38-14.7,2.27,8.24,12.04,9.5-9.59,5.93-5.97Z"/><path class="cls-4" d="M839.5,288.95c-4.62,2.6-9.32,1.85-12.69-1.35l-.13.08c.43,2.74-.86,4.4-3.13,6.09l-8.66,6.56c-.29.22-.51.23-.69-.08l-.82-1.47c-.1-.18-.27-.49.1-.76l8.2-6.13c3.59-2.78,3.39-5.42,1.67-8.49l-4.42-7.87-14.72,5.76c-.34.13-.61.05-.81-.3l-.67-1.2c-.18-.31-.1-.59.24-.72l31.24-12.18c1.14-.47,2.03-.44,2.83.98l5.37,9.56c2.77,4.94,1.2,9.21-2.89,11.51ZM821.08,274.73l4.85,8.62c2.6,4.62,7.4,6.08,12.11,3.43,3.2-1.8,4.05-4.97,1.98-8.66l-4.97-8.85-13.96,5.45Z"/><path class="cls-4" d="M840.58,319.83c-2.51,1.12-5.54-.15-6.56-2.43-.89-2-.05-4,1.85-4.85,2.47-1.1,5.55.04,6.61,2.41.9,2,.1,3.98-1.9,4.87Z"/><path class="cls-4" d="M868.78,336.18l.44,1.31c.11.34-.02.6-.37.66l-19.71,3.64c-9.67,1.79-13.01,4.04-9.66,14.05.36,1.06,1.78,4.67,3.54,7.85l32.36-6c.35-.06.61.06.73.4l.45,1.35c.11.34-.03.55-.4.56l-31.94,5.97c-1.58.26-2.6-.04-3.5-1.62-1.29-2.26-2.88-6.19-3.53-8.12-3.5-10.45-1.3-14.47,10.64-16.74l20.2-3.76c.36-.06.61.06.74.45Z"/><path class="cls-4" d="M884.65,391.82l.3,1.24c.08.35-.06.59-.42.63l-33.78,3.35c-.98.08-1.69-.06-1.98-1.25l-.17-.69c-.23-.94.07-1.22,1.1-1.95l21.87-17.35,4.82-3.69-.05-.2-32.04,3.18c-.36.04-.61-.11-.69-.46l-.31-1.29c-.08-.35.06-.59.42-.63l33.72-3.38c1.03-.09,1.76.1,2.05,1.29l.17.69c.23.94-.09,1.13-1.1,1.95l-20.56,16.24-6.29,4.79.05.2,32.18-3.22c.37.01.63.21.71.56Z"/><path class="cls-4" d="M886.65,403.87l.25,1.35c.07.35-.11.54-.47.55l-34.94,1.45c-.35.06-.59-.1-.65-.45l-.25-1.35c-.07-.4.09-.64.45-.65l34.94-1.45c.36-.01.6.15.67.55Z"/><path class="cls-4" d="M882.45,437.88c-4.4.57-11.56-.7-12.82-10.31l-1.31-10.01-14.99-.2c-.35.05-.58-.13-.64-.53l-.17-1.32c-.05-.35.13-.58.49-.58l33.53.35c1.23,0,2.05.35,2.26,1.97l1.4,10.72c.72,5.51-2.45,9.22-7.76,9.91ZM870.69,417.56l1.27,9.71c.71,5.41,4.19,8.81,10.05,8.05,3.24-.42,6.41-2.48,5.73-7.74l-1.28-9.81-15.76-.2Z"/><path class="cls-4" d="M857.53,462.16l8.45-2.16-1-16.04-8.81-3.59c-.31-.13-.48-.38-.5-.63l-.12-1.99c-.02-.36.12-.47.49-.34l34.99,14.59c1.05.5,1.27.64,1.33,1.6l.05.81c.07,1.07-.13,1.23-1.13,1.55l-33.54,8.88c-.15.06-.51.08-.53-.33l-.1-1.68c-.02-.36.02-.51.42-.69ZM889.47,453.99v-.15s-8.34-3.37-8.34-3.37l-13.79-5.58.9,14.56,13.08-3.37,8.15-2.09Z"/><path class="cls-4" d="M884.59,495.28c-5.3-.07-8.99-3.07-10.31-7.52h-.15c-1,2.59-2.95,3.38-5.76,3.7l-10.78,1.34c-.36.05-.56-.06-.56-.41l.02-1.68c0-.2,0-.56.47-.61l10.17-1.2c4.5-.61,5.65-2.99,5.69-6.51l.11-9.03-15.63-2.39c-.36-.06-.56-.26-.55-.67l.02-1.38c0-.36.21-.56.57-.5l33.14,5.1c1.22.17,1.98.64,1.96,2.27l-.14,10.97c-.07,5.66-3.58,8.58-8.27,8.52ZM875.77,473.75l-.12,9.89c-.07,5.3,3.36,8.97,8.76,9.04,3.67.04,6-2.27,6.05-6.51l.13-10.15-14.81-2.28Z"/><path class="cls-4" d="M870.06,522.53c-2.74-.29-4.72-2.9-4.46-5.39.23-2.18,1.95-3.49,4.03-3.27,2.69.28,4.78,2.81,4.51,5.39-.23,2.18-1.9,3.49-4.08,3.26Z"/><path class="cls-4" d="M886.3,550.78l-.27,1.35c-.07.35-.31.51-.65.39l-18.88-6.69c-9.27-3.28-13.28-3-15.38,7.34-.22,1.1-.79,4.94-.85,8.57l31.02,10.97c.34.12.5.36.43.71l-.28,1.4c-.07.35-.3.46-.63.29l-30.64-10.79c-1.5-.56-2.23-1.34-2.22-3.16,0-2.6.6-6.8,1-8.8,2.19-10.79,6.1-13.18,17.57-9.18l19.37,6.84c.34.12.5.36.42.76Z"/><path class="cls-4" d="M872.28,606.89l-.36,1.22c-.1.34-.35.48-.68.33l-30.94-13.94c-.89-.42-1.44-.9-1.1-2.07l.2-.69c.27-.93.67-1.03,1.93-1.14l27.6-4.13,6.02-.8.06-.2-29.35-13.22c-.33-.15-.47-.4-.37-.74l.37-1.27c.1-.34.35-.48.68-.33l30.91,13.88c.94.43,1.47.96,1.13,2.14l-.2.68c-.27.93-.64.93-1.93,1.14l-25.92,3.83-7.84,1.01-.06.2,29.5,13.26c.31.2.44.5.34.84Z"/><path class="cls-4" d="M868.03,618.3l-.46,1.3c-.12.34-.36.41-.68.25l-31.02-16.15c-.34-.12-.46-.38-.34-.72l.46-1.3c.14-.38.4-.51.72-.34l31.02,16.15c.32.17.44.43.31.81Z"/><path class="cls-4" d="M847.46,645.7c-4.1-1.69-9.68-6.36-5.99-15.32l3.85-9.34-12.91-7.64c-.33-.14-.44-.4-.29-.78l.5-1.23c.14-.33.4-.44.71-.26l28.91,16.99c1.07.61,1.61,1.32.98,2.83l-4.12,10c-2.12,5.14-6.71,6.78-11.66,4.74ZM847.37,622.21l-3.73,9.06c-2.08,5.05-.75,9.73,4.72,11.98,3.02,1.24,6.8,1.04,8.82-3.87l3.77-9.15-13.58-8.02Z"/><path class="cls-4" d="M813.76,654.35l8.41,2.33,7.11-14.41-5.85-7.5c-.21-.27-.23-.57-.12-.8l.88-1.78c.16-.32.34-.34.59-.05l23.1,30.07c.67.95.78,1.18.35,2.05l-.36.73c-.47.96-.72,1.01-1.75.78l-33.51-8.98c-.16-.02-.48-.18-.3-.55l.75-1.51c.16-.32.27-.44.71-.39ZM845.53,663.16l.07-.14-5.56-7.07-9.18-11.7-6.46,13.08,13.02,3.59,8.11,2.24Z"/><path class="cls-4" d="M820.73,696.55c-4.57-2.7-6.27-7.14-5.2-11.66l-.13-.08c-2.16,1.75-4.24,1.46-6.84.34l-10.02-4.2c-.33-.14-.46-.33-.28-.64l.86-1.45c.1-.18.29-.48.71-.29l9.41,4.02c4.2,1.71,6.39.22,8.18-2.81l4.59-7.77-12.36-9.85c-.28-.23-.35-.5-.15-.86l.7-1.18c.18-.31.46-.38.74-.15l26.2,20.92c.98.75,1.4,1.54.57,2.94l-5.58,9.44c-2.88,4.87-7.37,5.66-11.41,3.27ZM823.8,673.49l-5.03,8.52c-2.7,4.57-1.55,9.45,3.1,12.2,3.16,1.87,6.33,1.01,8.48-2.63l5.16-8.74-11.71-9.35Z"/><path class="cls-4" d="M794.54,712.96c-2.23-1.61-2.65-4.87-1.18-6.9,1.28-1.78,3.43-2.05,5.13-.82,2.19,1.58,2.75,4.82,1.22,6.92-1.29,1.78-3.39,2.08-5.17.79Z"/><path class="cls-4" d="M794.51,745.56l-.91,1.03c-.24.27-.52.29-.76.01l-13.02-15.23c-6.39-7.48-10.01-9.24-17-1.33-.74.84-3.15,3.88-5.02,7l21.4,25.01c.23.27.25.56.02.83l-.95,1.07c-.24.27-.49.25-.69-.06l-21.16-24.66c-1.02-1.24-1.26-2.27-.35-3.85,1.31-2.25,3.92-5.59,5.27-7.12,7.29-8.26,11.87-8.37,19.82.82l13.37,15.61c.23.27.25.56-.02.87Z"/><path class="cls-4" d="M754.29,787.13l-.92.88c-.26.25-.55.24-.76-.05l-19.81-27.57c-.56-.81-.8-1.5.09-2.34l.52-.49c.7-.67,1.1-.55,2.24-.02l25.96,10.24,5.61,2.32.15-.14-18.8-26.14c-.21-.29-.2-.58.05-.83l.96-.92c.26-.25.55-.24.76.05l19.81,27.5c.59.84.8,1.57-.09,2.41l-.52.49c-.7.67-1.02.48-2.24.02l-24.35-9.67-7.29-3.05-.15.14,18.9,26.25c.17.33.13.65-.13.9Z"/><path class="cls-4" d="M744.86,794.91l-1.05.89c-.27.23-.52.18-.71-.13l-18.75-29.52c-.23-.27-.21-.56.06-.79l1.05-.89c.31-.26.6-.24.79.06l18.75,29.52c.19.31.17.59-.14.86Z"/><path class="cls-4" d="M713.35,808.31c-2.7-3.52-5.19-10.35,2.49-16.26l8.01-6.16-7.35-13.07c-.22-.28-.18-.57.14-.82l1.05-.81c.28-.22.57-.18.75.13l16.51,29.19c.62,1.06.73,1.95-.57,2.94l-8.57,6.59c-4.41,3.39-9.2,2.51-12.47-1.74ZM725.03,787.94l-7.76,5.97c-4.33,3.33-5.53,8.04-1.92,12.73,1.99,2.59,5.37,4.3,9.57,1.07l7.84-6.03-7.73-13.74Z"/><path class="cls-4" d="M679.98,798.99l6.18,6.15,13.26-9.07-1.43-9.4c-.05-.34.08-.61.29-.75l1.64-1.12c.29-.2.47-.13.54.25l5.4,37.52c.11,1.16.1,1.41-.7,1.96l-.67.46c-.88.6-1.12.52-1.91-.17l-24.8-24.25c-.13-.1-.33-.39,0-.62l1.39-.95c.29-.2.45-.25.81,0ZM703.35,822.24l.13-.09-1.38-8.88-2.27-14.7-12.04,8.24,9.59,9.5,5.97,5.93Z"/><path class="cls-4" d="M664.84,838.98c-2.61-4.62-1.87-9.31,1.31-12.69l-.08-.13c-2.74.44-4.41-.85-6.1-3.11l-6.59-8.64c-.22-.29-.23-.51.08-.69l1.46-.83c.18-.1.49-.28.76.1l6.15,8.18c2.79,3.58,5.42,3.37,8.49,1.64l7.86-4.44-5.8-14.71c-.13-.34-.05-.61.3-.81l1.2-.68c.31-.18.59-.1.72.24l12.26,31.2c.47,1.14.45,2.03-.97,2.84l-9.54,5.4c-4.93,2.79-9.21,1.23-11.52-2.86ZM679.01,820.54l-8.61,4.87c-4.62,2.61-6.06,7.41-3.4,12.12,1.81,3.2,4.98,4.04,8.66,1.95l8.83-5-5.49-13.94Z"/><path class="cls-4" d="M633.97,840.15c-1.13-2.51.13-5.54,2.41-6.57,2-.9,4-.07,4.85,1.84,1.11,2.46-.02,5.55-2.39,6.61-2,.9-3.98.11-4.88-1.89Z"/><path class="cls-4" d="M617.7,868.4l-1.3.44c-.34.11-.6-.01-.66-.37l-3.7-19.69c-1.82-9.67-4.07-13-14.07-9.62-1.06.36-4.67,1.79-7.84,3.57l6.09,32.34c.07.35-.06.61-.4.73l-1.35.46c-.34.11-.55-.03-.57-.4l-6.06-31.92c-.26-1.58.04-2.6,1.61-3.51,2.25-1.3,6.18-2.9,8.11-3.55,10.44-3.53,14.46-1.34,16.77,10.59l3.81,20.19c.07.35-.06.61-.45.74Z"/><path class="cls-4" d="M562.11,884.42l-1.24.3c-.35.08-.59-.06-.63-.42l-3.44-33.77c-.08-.98.06-1.69,1.24-1.99l.69-.17c.94-.23,1.23.07,1.95,1.1l17.41,21.82,3.71,4.81.2-.05-3.27-32.03c-.04-.36.11-.6.46-.69l1.29-.32c.35-.09.59.06.63.42l3.48,33.71c.1,1.03-.09,1.76-1.28,2.05l-.69.17c-.94.23-1.13-.09-1.95-1.09l-16.3-20.51-4.8-6.27-.2.05,3.31,32.17c-.01.37-.21.63-.56.72Z"/><path class="cls-4" d="M550.05,886.47l-1.35.25c-.35.07-.54-.11-.55-.47l-1.55-34.94c-.07-.35.1-.59.45-.65l1.35-.25c.4-.08.64.09.65.45l1.55,34.94c.02.36-.15.6-.55.67Z"/><path class="cls-4" d="M516.04,882.35c-.59-4.4.67-11.56,10.27-12.85l10.01-1.34.16-14.99c-.05-.35.13-.58.53-.64l1.31-.18c.35-.05.58.13.58.49l-.25,33.53c.01,1.23-.34,2.05-1.96,2.27l-10.71,1.43c-5.51.74-9.22-2.42-9.93-7.73ZM536.33,870.53l-9.7,1.3c-5.41.72-8.8,4.21-8.02,10.08.43,3.23,2.5,6.4,7.76,5.7l9.8-1.31.16-15.76Z"/><path class="cls-4" d="M491.72,857.5l2.19,8.44,16.03-1.05,3.57-8.82c.13-.31.38-.48.63-.5l1.98-.13c.36-.02.47.12.34.49l-14.48,35.04c-.49,1.05-.63,1.27-1.6,1.33l-.81.05c-1.07.07-1.23-.12-1.56-1.13l-8.98-33.51c-.06-.15-.08-.5.32-.53l1.68-.11c.36-.02.51.02.69.42ZM499.99,889.42h.15s3.34-8.36,3.34-8.36l5.54-13.8-14.56.95,3.41,13.07,2.12,8.14Z"/><path class="cls-4" d="M458.66,884.65c.05-5.3,3.04-9,7.5-10.33v-.15c-2.59-.99-3.39-2.94-3.72-5.75l-1.38-10.78c-.05-.36.06-.56.41-.56l1.68.02c.2,0,.56,0,.61.46l1.23,10.16c.62,4.49,3.01,5.64,6.52,5.67l9.03.09,2.34-15.64c.05-.36.26-.56.67-.55h1.38c.36.02.56.22.5.58l-5.01,33.15c-.17,1.22-.63,1.98-2.26,1.97l-10.97-.11c-5.66-.06-8.59-3.55-8.54-8.24ZM480.16,875.77l-9.89-.1c-5.3-.05-8.96,3.38-9.01,8.79-.04,3.67,2.29,5.99,6.52,6.03l10.15.1,2.23-14.82Z"/><path class="cls-4" d="M431.34,870.2c.28-2.74,2.89-4.73,5.38-4.48,2.18.22,3.49,1.94,3.28,4.02-.27,2.69-2.79,4.79-5.38,4.53-2.18-.22-3.5-1.89-3.28-4.08Z"/><circle class="cls-2" cx="476.42" cy="476.42" r="330.02"/></g></svg>