<?xml version="1.0" encoding="UTF-8"?><svg id="Camada_2" xmlns="http://www.w3.org/2000/svg" viewBox="0 0 137.26 146.68"><defs><style>.cls-1{fill:#fff;}.cls-2{fill:none;stroke:#ff6511;stroke-miterlimit:10;stroke-width:2px;}.cls-3{fill:#3f156b;}</style></defs><g id="Camada_1-2"><path class="cls-3" d="m50.7,143.86c-4.52,4.93-12.68,3.12-14.7-3.25l-16.05-50.87L3.9,38.86c-2.01-6.38,3.64-12.55,10.17-11.1l52.08,11.54,52.08,11.54c6.53,1.45,9.05,9.42,4.53,14.35l-36.03,39.34-36.03,39.34Z"/><path class="cls-2" d="m14.1,139.75c-7.24,2.44-14.4-3.86-12.9-11.35l11.99-59.71L25.17,8.98c1.5-7.49,10.55-10.54,16.28-5.5l45.72,40.24,45.72,40.24c5.73,5.05,3.85,14.41-3.38,16.85l-57.7,19.48-57.7,19.48Z"/><polygon class="cls-1" points="62.95 73.41 62.95 88.55 45.61 88.55 45.61 74.98 53.46 59.14 60.82 59.14 56.08 73.41 62.95 73.41"/><polygon class="cls-1" points="83.14 73.41 83.14 88.55 65.81 88.55 65.81 74.98 73.66 59.14 81.02 59.14 76.28 73.41 83.14 73.41"/></g></svg>