<?xml version="1.0" encoding="UTF-8"?><svg id="Camada_2" xmlns="http://www.w3.org/2000/svg" xmlns:xlink="http://www.w3.org/1999/xlink" viewBox="0 0 656 232"><defs><style>.cls-1{fill:none;}.cls-1,.cls-2{stroke-width:0px;}.cls-2{fill:#fff;}.cls-3{clip-path:url(#clippath);}</style><clipPath id="clippath"><rect class="cls-1" width="656" height="232"/></clipPath></defs><g id="Camada_1-2"><g class="cls-3"><path class="cls-2" d="M10.15,151.14l65.38,72.98c2.73,3.04,6.47,4.87,10.46,5.2L13.37,148.26l-3.22,2.88Z"/><path class="cls-2" d="M0,160.24l56.24,62.78c2.7,3.02,6.41,4.84,10.36,5.19L3.17,157.4l-3.17,2.84Z"/><path class="cls-2" d="M114.36,223.24c-3.06,2.72-7.38,3.62-11.28,2.34l-4.01-1.31,27.5-24.64-2.84-3.17-27.08,24.26-6.3-7.03,27.08-24.26-2.84-3.17-27.08,24.26-63.95-71.39-3.19,2.86,74.51,83.18c1.84,2.06,4.22,3.6,6.86,4.46,2.64.86,5.47,1.02,8.18.45,2.73-.58,5.25-1.85,7.29-3.68l18.48-16.56-2.84-3.17-18.51,16.58Z"/><path class="cls-2" d="M83.45,110.54l65.38,72.98c2.73,3.04,6.47,4.87,10.46,5.2l-72.62-81.06-3.22,2.88Z"/><path class="cls-2" d="M129.53,182.41c2.7,3.02,6.41,4.84,10.36,5.19l-63.43-70.81-3.17,2.84,56.24,62.78Z"/><path class="cls-2" d="M57.53,119.33c-2.64-.86-5.47-1.02-8.18-.45-2.73.58-5.25,1.85-7.29,3.68l-18.48,16.56,2.84,3.17,18.51-16.58c3.06-2.72,7.38-3.62,11.28-2.34l4.01,1.31-27.5,24.64,2.84,3.17,27.08-24.26,6.3,7.03-27.08,24.26,2.84,3.17,27.08-24.26,63.95,71.39,3.19-2.86-74.51-83.18c-1.84-2.06-4.22-3.6-6.86-4.46Z"/><path class="cls-2" d="M119.69,151.14l65.38,72.98c2.73,3.04,6.47,4.87,10.46,5.2l-72.62-81.06-3.22,2.88Z"/><path class="cls-2" d="M109.54,160.24l56.24,62.78c2.7,3.02,6.41,4.84,10.36,5.19l-63.43-70.81-3.17,2.84Z"/><path class="cls-2" d="M223.89,223.24c-3.06,2.72-7.38,3.62-11.28,2.34l-4.01-1.31,27.5-24.64-2.84-3.17-27.08,24.26-6.3-7.03,27.08-24.26-2.84-3.17-27.08,24.26-63.95-71.39-3.19,2.86,74.51,83.18c1.84,2.06,4.22,3.6,6.86,4.46,2.64.86,5.47,1.02,8.18.45,2.73-.58,5.25-1.85,7.29-3.68l18.48-16.56-2.84-3.17-18.51,16.58Z"/><path class="cls-2" d="M192.98,110.54l65.38,72.98c2.73,3.04,6.47,4.87,10.46,5.2l-72.62-81.06-3.22,2.88Z"/><path class="cls-2" d="M239.07,182.41c2.7,3.02,6.41,4.84,10.36,5.19l-63.43-70.81-3.17,2.84,56.24,62.78Z"/><path class="cls-2" d="M167.06,119.33c-2.64-.86-5.47-1.02-8.18-.45-2.73.58-5.25,1.85-7.29,3.68l-18.48,16.56,2.84,3.17,18.51-16.58c3.06-2.72,7.38-3.62,11.28-2.34l4.01,1.31-27.5,24.64,2.84,3.17,27.08-24.26,6.3,7.03-27.08,24.26,2.84,3.17,27.08-24.26,63.95,71.39,3.19-2.86-74.51-83.18c-1.84-2.06-4.22-3.6-6.86-4.46Z"/><path class="cls-2" d="M229.23,151.14l65.38,72.98c2.73,3.04,6.47,4.87,10.46,5.2l-72.62-81.06-3.22,2.88Z"/><path class="cls-2" d="M219.07,160.24l56.24,62.78c2.7,3.02,6.41,4.84,10.36,5.19l-63.43-70.81-3.17,2.84Z"/><path class="cls-2" d="M333.43,223.24c-3.06,2.72-7.38,3.62-11.28,2.34l-4.01-1.31,27.5-24.64-2.84-3.17-27.08,24.26-6.3-7.03,27.08-24.26-2.84-3.17-27.08,24.26-63.95-71.39-3.19,2.86,74.51,83.18c1.84,2.06,4.22,3.6,6.86,4.46,2.64.86,5.47,1.02,8.18.45,2.73-.58,5.25-1.85,7.29-3.68l18.48-16.56-2.84-3.17-18.51,16.58Z"/><path class="cls-2" d="M302.52,110.54l65.38,72.98c2.73,3.04,6.47,4.87,10.46,5.2l-72.62-81.06-3.22,2.88Z"/><path class="cls-2" d="M348.6,182.41c2.7,3.02,6.41,4.84,10.36,5.19l-63.43-70.81-3.17,2.84,56.24,62.78Z"/><path class="cls-2" d="M276.6,119.33c-2.64-.86-5.47-1.02-8.18-.45-2.73.58-5.25,1.85-7.29,3.68l-18.48,16.56,2.84,3.17,18.51-16.58c3.06-2.72,7.38-3.62,11.28-2.34l4.01,1.31-27.5,24.64,2.84,3.17,27.08-24.26,6.3,7.03-27.08,24.26,2.84,3.17,27.08-24.26,63.95,71.39,3.19-2.86-74.51-83.18c-1.84-2.06-4.22-3.6-6.86-4.46Z"/><path class="cls-2" d="M338.76,151.14l65.38,72.98c2.73,3.04,6.47,4.87,10.46,5.2l-72.62-81.06-3.22,2.88Z"/><path class="cls-2" d="M328.61,160.24l56.24,62.78c2.7,3.02,6.41,4.84,10.36,5.19l-63.43-70.81-3.17,2.84Z"/><path class="cls-2" d="M442.96,223.24c-3.06,2.72-7.38,3.62-11.28,2.34l-4.01-1.31,27.5-24.64-2.84-3.17-27.08,24.26-6.3-7.03,27.08-24.26-2.84-3.17-27.08,24.26-63.95-71.39-3.19,2.86,74.51,83.18c1.84,2.06,4.22,3.6,6.86,4.46,2.64.86,5.47,1.02,8.18.45,2.73-.58,5.25-1.85,7.29-3.68l18.48-16.56-2.84-3.17-18.51,16.58Z"/><path class="cls-2" d="M412.06,110.54l65.38,72.98c2.73,3.04,6.47,4.87,10.46,5.2l-72.62-81.06-3.22,2.88Z"/><path class="cls-2" d="M458.14,182.41c2.7,3.02,6.41,4.84,10.36,5.19l-63.43-70.81-3.17,2.84,56.24,62.78Z"/><path class="cls-2" d="M386.13,119.33c-2.64-.86-5.47-1.02-8.18-.45-2.73.58-5.25,1.85-7.29,3.68l-18.48,16.56,2.84,3.17,18.51-16.58c3.06-2.72,7.38-3.62,11.28-2.34l4.01,1.31-27.5,24.64,2.84,3.17,27.08-24.26,6.3,7.03-27.08,24.26,2.84,3.17,27.08-24.26,63.95,71.39,3.19-2.86-74.51-83.18c-1.84-2.06-4.22-3.6-6.86-4.46Z"/><path class="cls-2" d="M448.3,151.14l65.38,72.98c2.73,3.04,6.47,4.87,10.46,5.2l-72.62-81.06-3.22,2.88Z"/><path class="cls-2" d="M438.14,160.24l56.24,62.78c2.7,3.02,6.41,4.84,10.36,5.19l-63.43-70.81-3.17,2.84Z"/><path class="cls-2" d="M552.5,223.24c-3.06,2.72-7.38,3.62-11.28,2.34l-4.01-1.31,27.5-24.64-2.84-3.17-27.08,24.26-6.3-7.03,27.08-24.26-2.84-3.17-27.08,24.26-63.95-71.39-3.19,2.86,74.51,83.18c1.84,2.06,4.22,3.6,6.86,4.46,2.64.86,5.47,1.02,8.18.45,2.73-.58,5.25-1.85,7.29-3.68l18.48-16.56-2.84-3.17-18.51,16.58Z"/><path class="cls-2" d="M521.59,110.54l65.38,72.98c2.73,3.04,6.47,4.87,10.46,5.2l-72.62-81.06-3.22,2.88Z"/><path class="cls-2" d="M567.68,182.41c2.7,3.02,6.41,4.84,10.36,5.19l-63.43-70.81-3.17,2.84,56.24,62.78Z"/><path class="cls-2" d="M495.67,119.33c-2.64-.86-5.47-1.02-8.18-.45-2.73.58-5.25,1.85-7.29,3.68l-18.48,16.56,2.84,3.17,18.51-16.58c3.06-2.72,7.38-3.62,11.28-2.34l4.01,1.31-27.5,24.64,2.84,3.17,27.08-24.26,6.3,7.03-27.08,24.26,2.84,3.17,27.08-24.26,63.95,71.39,3.19-2.86-74.51-83.18c-1.84-2.06-4.22-3.6-6.86-4.46Z"/><path class="cls-2" d="M557.83,151.14l65.38,72.98c2.73,3.04,6.47,4.87,10.46,5.2l-72.62-81.06-3.22,2.88Z"/><path class="cls-2" d="M547.68,160.24l56.24,62.78c2.7,3.02,6.41,4.84,10.36,5.19l-63.43-70.81-3.17,2.84Z"/><path class="cls-2" d="M662.04,223.24c-3.06,2.72-7.38,3.62-11.28,2.34l-4.01-1.31,27.5-24.64-2.84-3.17-27.08,24.26-6.3-7.03,27.08-24.26-2.84-3.17-27.08,24.26-63.95-71.39-3.19,2.86,74.51,83.18c1.84,2.06,4.22,3.6,6.86,4.46,2.64.86,5.47,1.02,8.18.45,2.73-.58,5.25-1.85,7.29-3.68l18.48-16.56-2.84-3.17-18.51,16.58Z"/><path class="cls-2" d="M631.13,110.54l65.38,72.98c2.73,3.04,6.47,4.87,10.46,5.2l-72.62-81.06-3.22,2.88Z"/><path class="cls-2" d="M677.21,182.41c2.7,3.02,6.41,4.84,10.36,5.19l-63.43-70.81-3.17,2.84,56.24,62.78Z"/><path class="cls-2" d="M605.21,119.33c-2.64-.86-5.47-1.02-8.18-.45-2.73.58-5.25,1.85-7.29,3.68l-18.48,16.56,2.84,3.17,18.51-16.58c3.06-2.72,7.38-3.62,11.28-2.34l4.01,1.31-27.5,24.64,2.84,3.17,27.08-24.26,6.3,7.03-27.08,24.26,2.84,3.17,27.08-24.26,63.95,71.39,3.19-2.86-74.51-83.18c-1.84-2.06-4.22-3.6-6.86-4.46Z"/><path class="cls-2" d="M27.19,47.69l65.38,72.98c2.73,3.04,6.47,4.87,10.46,5.2L30.41,44.81l-3.22,2.88Z"/><path class="cls-2" d="M17.04,56.79l56.24,62.78c2.7,3.02,6.41,4.84,10.36,5.19L20.21,53.95l-3.17,2.84Z"/><path class="cls-2" d="M131.39,119.79c-3.06,2.72-7.38,3.62-11.28,2.34l-4.01-1.31,27.5-24.64-2.84-3.17-27.08,24.26-6.3-7.03,27.08-24.26-2.84-3.17-27.08,24.26L40.61,35.67l-3.19,2.86,74.51,83.18c1.84,2.06,4.22,3.6,6.86,4.46,2.64.86,5.47,1.02,8.18.45,2.73-.58,5.25-1.85,7.29-3.68l18.48-16.56-2.84-3.17-18.51,16.58Z"/><path class="cls-2" d="M100.49,7.08l65.38,72.98c2.73,3.04,6.47,4.87,10.46,5.2L103.7,4.2l-3.22,2.88Z"/><path class="cls-2" d="M146.57,78.96c2.7,3.02,6.41,4.84,10.36,5.19L93.5,13.34l-3.17,2.84,56.24,62.78Z"/><path class="cls-2" d="M74.57,15.88c-2.64-.86-5.47-1.02-8.18-.45-2.73.58-5.25,1.85-7.29,3.68l-18.48,16.56,2.84,3.17,18.51-16.58c3.06-2.72,7.38-3.62,11.28-2.34l4.01,1.31-27.5,24.64,2.84,3.17,27.08-24.26,6.3,7.03-27.08,24.26,2.84,3.17,27.08-24.26,63.95,71.39,3.19-2.86L81.43,20.34c-1.84-2.06-4.22-3.6-6.86-4.46Z"/><path class="cls-2" d="M136.73,47.69l65.38,72.98c2.73,3.04,6.47,4.87,10.46,5.2l-72.62-81.06-3.22,2.88Z"/><path class="cls-2" d="M126.57,56.79l56.24,62.78c2.7,3.02,6.41,4.84,10.36,5.19l-63.43-70.81-3.17,2.84Z"/><path class="cls-2" d="M240.93,119.79c-3.06,2.72-7.38,3.62-11.28,2.34l-4.01-1.31,27.5-24.64-2.84-3.17-27.08,24.26-6.3-7.03,27.08-24.26-2.84-3.17-27.08,24.26-63.95-71.39-3.19,2.86,74.51,83.18c1.84,2.06,4.22,3.6,6.86,4.46,2.64.86,5.47,1.02,8.18.45,2.73-.58,5.25-1.85,7.29-3.68l18.48-16.56-2.84-3.17-18.51,16.58Z"/><path class="cls-2" d="M210.02,7.08l65.38,72.98c2.73,3.04,6.47,4.87,10.46,5.2L213.24,4.2l-3.22,2.88Z"/><path class="cls-2" d="M256.11,78.96c2.7,3.02,6.41,4.84,10.36,5.19L203.04,13.34l-3.17,2.84,56.24,62.78Z"/><path class="cls-2" d="M184.1,15.88c-2.64-.86-5.47-1.02-8.18-.45-2.73.58-5.25,1.85-7.29,3.68l-18.48,16.56,2.84,3.17,18.51-16.58c3.06-2.72,7.38-3.62,11.28-2.34l4.01,1.31-27.5,24.64,2.84,3.17,27.08-24.26,6.3,7.03-27.08,24.26,2.84,3.17,27.08-24.26,63.95,71.39,3.19-2.86L190.97,20.34c-1.84-2.06-4.22-3.6-6.86-4.46Z"/><path class="cls-2" d="M246.27,47.69l65.38,72.98c2.73,3.04,6.47,4.87,10.46,5.2l-72.62-81.06-3.22,2.88Z"/><path class="cls-2" d="M236.11,56.79l56.24,62.78c2.7,3.02,6.41,4.84,10.36,5.19l-63.43-70.81-3.17,2.84Z"/><path class="cls-2" d="M350.47,119.79c-3.06,2.72-7.38,3.62-11.28,2.34l-4.01-1.31,27.5-24.64-2.84-3.17-27.08,24.26-6.3-7.03,27.08-24.26-2.84-3.17-27.08,24.26-63.95-71.39-3.19,2.86,74.51,83.18c1.84,2.06,4.22,3.6,6.86,4.46,2.64.86,5.47,1.02,8.18.45,2.73-.58,5.25-1.85,7.29-3.68l18.48-16.56-2.84-3.17-18.51,16.58Z"/><path class="cls-2" d="M319.56,7.08l65.38,72.98c2.73,3.04,6.47,4.87,10.46,5.2L322.78,4.2l-3.22,2.88Z"/><path class="cls-2" d="M365.64,78.96c2.7,3.02,6.41,4.84,10.36,5.19l-63.43-70.81-3.17,2.84,56.24,62.78Z"/><path class="cls-2" d="M293.64,15.88c-2.64-.86-5.47-1.02-8.18-.45-2.73.58-5.25,1.85-7.29,3.68l-18.48,16.56,2.84,3.17,18.51-16.58c3.06-2.72,7.38-3.62,11.28-2.34l4.01,1.31-27.5,24.64,2.84,3.17,27.08-24.26,6.3,7.03-27.08,24.26,2.84,3.17,27.08-24.26,63.95,71.39,3.19-2.86-74.51-83.18c-1.84-2.06-4.22-3.6-6.86-4.46Z"/><path class="cls-2" d="M355.8,47.69l65.38,72.98c2.73,3.04,6.47,4.87,10.46,5.2l-72.62-81.06-3.22,2.88Z"/><path class="cls-2" d="M345.65,56.79l56.24,62.78c2.7,3.02,6.41,4.84,10.36,5.19l-63.43-70.81-3.17,2.84Z"/><path class="cls-2" d="M460,119.79c-3.06,2.72-7.38,3.62-11.28,2.34l-4.01-1.31,27.5-24.64-2.84-3.17-27.08,24.26-6.3-7.03,27.08-24.26-2.84-3.17-27.08,24.26-63.95-71.39-3.19,2.86,74.51,83.18c1.84,2.06,4.22,3.6,6.86,4.46,2.64.86,5.47,1.02,8.18.45,2.73-.58,5.25-1.85,7.29-3.68l18.48-16.56-2.84-3.17-18.51,16.58Z"/><path class="cls-2" d="M429.09,7.08l65.38,72.98c2.73,3.04,6.47,4.87,10.46,5.2L432.31,4.2l-3.22,2.88Z"/><path class="cls-2" d="M475.18,78.96c2.7,3.02,6.41,4.84,10.36,5.19l-63.43-70.81-3.17,2.84,56.24,62.78Z"/><path class="cls-2" d="M403.17,15.88c-2.64-.86-5.47-1.02-8.18-.45-2.73.58-5.25,1.85-7.29,3.68l-18.48,16.56,2.84,3.17,18.51-16.58c3.06-2.72,7.38-3.62,11.28-2.34l4.01,1.31-27.5,24.64,2.84,3.17,27.08-24.26,6.3,7.03-27.08,24.26,2.84,3.17,27.08-24.26,63.95,71.39,3.19-2.86-74.51-83.18c-1.84-2.06-4.22-3.6-6.86-4.46Z"/><path class="cls-2" d="M465.34,47.69l65.38,72.98c2.73,3.04,6.47,4.87,10.46,5.2l-72.62-81.06-3.22,2.88Z"/><path class="cls-2" d="M455.18,56.79l56.24,62.78c2.7,3.02,6.41,4.84,10.36,5.19l-63.43-70.81-3.17,2.84Z"/><path class="cls-2" d="M569.54,119.79c-3.06,2.72-7.38,3.62-11.28,2.34l-4.01-1.31,27.5-24.64-2.84-3.17-27.08,24.26-6.3-7.03,27.08-24.26-2.84-3.17-27.08,24.26-63.95-71.39-3.19,2.86,74.51,83.18c1.84,2.06,4.22,3.6,6.86,4.46,2.64.86,5.47,1.02,8.18.45,2.73-.58,5.25-1.85,7.29-3.68l18.48-16.56-2.84-3.17-18.51,16.58Z"/><path class="cls-2" d="M538.63,7.08l65.38,72.98c2.73,3.04,6.47,4.87,10.46,5.2L541.85,4.2l-3.22,2.88Z"/><path class="cls-2" d="M584.72,78.96c2.7,3.02,6.41,4.84,10.36,5.19l-63.43-70.81-3.17,2.84,56.24,62.78Z"/><path class="cls-2" d="M512.71,15.88c-2.64-.86-5.47-1.02-8.18-.45-2.73.58-5.25,1.85-7.29,3.68l-18.48,16.56,2.84,3.17,18.51-16.58c3.06-2.72,7.38-3.62,11.28-2.34l4.01,1.31-27.5,24.64,2.84,3.17,27.08-24.26,6.3,7.03-27.08,24.26,2.84,3.17,27.08-24.26,63.95,71.39,3.19-2.86-74.51-83.18c-1.84-2.06-4.22-3.6-6.86-4.46Z"/><path class="cls-2" d="M574.87,47.69l65.38,72.98c2.73,3.04,6.47,4.87,10.46,5.2l-72.62-81.06-3.22,2.88Z"/><path class="cls-2" d="M564.72,56.79l56.24,62.78c2.7,3.02,6.41,4.84,10.36,5.19l-63.43-70.81-3.17,2.84Z"/><path class="cls-2" d="M679.07,119.79c-3.06,2.72-7.38,3.62-11.28,2.34l-4.01-1.31,27.5-24.64-2.84-3.17-27.08,24.26-6.3-7.03,27.08-24.26-2.84-3.17-27.08,24.26-63.95-71.39-3.19,2.86,74.51,83.18c1.84,2.06,4.22,3.6,6.86,4.46,2.64.86,5.47,1.02,8.18.45,2.73-.58,5.25-1.85,7.29-3.68l18.48-16.56-2.84-3.17-18.51,16.58Z"/><path class="cls-2" d="M648.17,7.08l65.38,72.98c2.73,3.04,6.47,4.87,10.46,5.2L651.38,4.2l-3.22,2.88Z"/><path class="cls-2" d="M694.25,78.96c2.7,3.02,6.41,4.84,10.36,5.19l-63.43-70.81-3.17,2.84,56.24,62.78Z"/><path class="cls-2" d="M622.25,15.88c-2.64-.86-5.47-1.02-8.18-.45-2.73.58-5.25,1.85-7.29,3.68l-18.48,16.56,2.84,3.17,18.51-16.58c3.06-2.72,7.38-3.62,11.28-2.34l4.01,1.31-27.5,24.64,2.84,3.17,27.08-24.26,6.3,7.03-27.08,24.26,2.84,3.17,27.08-24.26,63.95,71.39,3.19-2.86-74.51-83.18c-1.84-2.06-4.22-3.6-6.86-4.46Z"/></g></g></svg>