<?xml version="1.0" encoding="UTF-8"?><svg id="Camada_2" xmlns="http://www.w3.org/2000/svg" viewBox="0 0 134.67 134.67"><defs><style>.cls-1{fill:#e4262a;}.cls-1,.cls-2{stroke-width:0px;}.cls-2{fill:#fff;}.cls-3{stroke:#e4262a;stroke-dasharray:0 0 .1 4.02;stroke-linecap:round;stroke-linejoin:round;}.cls-3,.cls-4{fill:none;}.cls-4{stroke:#4c0a01;stroke-miterlimit:10;stroke-width:2.5px;}</style></defs><g id="Layer_1"><circle class="cls-2" cx="67.33" cy="67.33" r="62"/><path class="cls-1" d="M67.39,134.67c-4.67,0-9.38-.5-14-1.48-8.55-1.81-16.55-5.2-23.76-10.07-7.47-5.04-13.77-11.46-18.72-19.08-4.96-7.62-8.27-15.98-9.85-24.85-1.53-8.57-1.38-17.25.43-25.8,1.81-8.55,5.2-16.55,10.07-23.76,5.04-7.47,11.46-13.77,19.08-18.72,7.62-4.96,15.98-8.27,24.85-9.85,3.9-.7,7.87-1.05,11.8-1.05,4.67,0,9.38.5,14,1.48,8.55,1.81,16.55,5.2,23.76,10.07,7.47,5.04,13.77,11.46,18.72,19.08,4.96,7.62,8.27,15.98,9.85,24.85,1.53,8.57,1.38,17.25-.43,25.8-1.81,8.55-5.2,16.55-10.07,23.76-5.04,7.47-11.46,13.77-19.08,18.72-7.62,4.95-15.98,8.27-24.85,9.85-3.9.7-7.87,1.05-11.8,1.05ZM67.25,13.37c-10.43,0-20.58,3.01-29.35,8.71C12.95,38.31,5.85,71.81,22.08,96.77c9.99,15.36,26.94,24.53,45.34,24.54h0c10.43,0,20.58-3.01,29.34-8.71,12.07-7.85,20.36-19.95,23.35-34.07,2.99-14.12.32-28.55-7.53-40.62-9.99-15.36-26.94-24.54-45.34-24.54Z"/><circle class="cls-3" cx="67.33" cy="67.33" r="49.9" transform="translate(-25.66 87.84) rotate(-57.44)"/><circle class="cls-4" cx="67.33" cy="66.53" r="17.65" transform="translate(-19.95 103.16) rotate(-67.42)"/><path class="cls-4" d="M72.15,36.04c0,2.66-2.16,4.81-4.81,4.81s-4.81-2.16-4.81-4.81,2.16-4.81,4.81-4.81,4.81,2.16,4.81,4.81Z"/><circle class="cls-4" cx="67.33" cy="98.62" r="4.81"/><path class="cls-4" d="M96.22,44.07c0,2.66-2.16,4.81-4.81,4.81s-4.81-2.16-4.81-4.81c0-2.66,2.16-4.81,4.81-4.81,2.66,0,4.81,2.16,4.81,4.81Z"/><path class="cls-4" d="M101.03,66.53c0,2.66-2.16,4.81-4.81,4.81s-4.81-2.16-4.81-4.81c0-2.66,2.16-4.81,4.81-4.81s4.81,2.16,4.81,4.81Z"/><path class="cls-4" d="M96.22,89c0,2.66-2.16,4.81-4.81,4.81-2.66,0-4.81-2.16-4.81-4.81,0-2.66,2.16-4.81,4.81-4.81s4.81,2.16,4.81,4.81Z"/><line class="cls-4" x1="67.33" y1="40.86" x2="67.33" y2="48.88"/><line class="cls-4" x1="67.33" y1="84.18" x2="67.33" y2="93.81"/><line class="cls-4" x1="88.19" y1="47.28" x2="80.17" y2="55.3"/><line class="cls-4" x1="88.19" y1="85.79" x2="80.17" y2="77.76"/><line class="cls-4" x1="84.98" y1="66.53" x2="91.4" y2="66.53"/><path class="cls-4" d="M38.45,44.07c0,2.66,2.16,4.81,4.81,4.81s4.81-2.16,4.81-4.81c0-2.66-2.16-4.81-4.81-4.81-2.66,0-4.81,2.16-4.81,4.81Z"/><path class="cls-4" d="M33.64,66.53c0,2.66,2.16,4.81,4.81,4.81s4.81-2.16,4.81-4.81c0-2.66-2.16-4.81-4.81-4.81s-4.81,2.16-4.81,4.81Z"/><path class="cls-4" d="M38.45,89c0,2.66,2.16,4.81,4.81,4.81,2.66,0,4.81-2.16,4.81-4.81,0-2.66-2.16-4.81-4.81-4.81s-4.81,2.16-4.81,4.81Z"/><line class="cls-4" x1="46.47" y1="47.28" x2="54.5" y2="55.3"/><line class="cls-4" x1="46.47" y1="85.79" x2="54.5" y2="77.76"/><line class="cls-4" x1="49.68" y1="66.53" x2="43.26" y2="66.53"/><path class="cls-4" d="M76.96,80.97v-5.53c0-2.32-5.3-5.71-9.63-5.71s-9.63,3.39-9.63,5.71v5.53"/><path class="cls-4" d="M67.33,55.3c-3.32,0-6.42,2.59-6.42,5.78v2.89c0,3.19,3.1,5.78,6.42,5.78s6.42-2.59,6.42-5.78v-2.89c0-3.19-3.1-5.78-6.42-5.78Z"/></g></svg>