<?xml version="1.0" encoding="UTF-8"?><svg id="Camada_2" xmlns="http://www.w3.org/2000/svg" viewBox="0 0 134.67 134.67"><defs><style>.cls-1{stroke:#4c0a01;stroke-width:2.5px;}.cls-1,.cls-2{fill:none;stroke-linejoin:round;}.cls-3{fill:#e4262a;stroke-width:0px;}.cls-2{stroke:#e4262a;stroke-dasharray:0 0 .1 4.02;stroke-linecap:round;}</style></defs><g id="Camada_1-2"><path class="cls-3" d="M67.39,134.67c-4.67,0-9.38-.5-14-1.48-8.55-1.81-16.55-5.2-23.76-10.07-7.47-5.04-13.77-11.46-18.72-19.08-4.96-7.62-8.27-15.98-9.85-24.85-1.53-8.57-1.38-17.25.43-25.8,1.81-8.55,5.2-16.55,10.07-23.76,5.04-7.47,11.46-13.77,19.08-18.72,7.62-4.96,15.98-8.27,24.85-9.85,3.9-.7,7.87-1.05,11.8-1.05,4.67,0,9.38.5,14,1.48,8.55,1.81,16.55,5.2,23.76,10.07,7.47,5.04,13.77,11.46,18.72,19.08,4.96,7.62,8.27,15.98,9.85,24.85,1.53,8.57,1.38,17.25-.43,25.8-1.81,8.55-5.2,16.55-10.07,23.76-5.04,7.47-11.46,13.77-19.08,18.72-7.62,4.95-15.98,8.27-24.85,9.85-3.9.7-7.87,1.05-11.8,1.05ZM67.25,13.37c-10.43,0-20.58,3.01-29.35,8.71C12.95,38.31,5.85,71.81,22.08,96.77c9.99,15.36,26.94,24.53,45.34,24.54h0c10.43,0,20.58-3.01,29.34-8.71,12.07-7.85,20.36-19.95,23.35-34.07,2.99-14.12.32-28.55-7.53-40.62-9.99-15.36-26.94-24.54-45.34-24.54Z"/><circle class="cls-2" cx="67.33" cy="67.33" r="49.9" transform="translate(-27.77 62.59) rotate(-42.14)"/><path class="cls-1" d="M50.5,89.55c-2.79.75-4.43,3.62-3.68,6.41s3.62,4.43,6.41,3.68c2.79-.75,4.43-3.62,3.68-6.41-.75-2.79-3.62-4.43-6.41-3.68Z"/><path class="cls-1" d="M48.68,82.83c2.31-.62,3.37-2.26,3.38-4.33.01-2.06-2.41-15.5-3.83-22.6-.79-3.93-4.63-5.83-8.14-4.88s-5.88,4.53-4.58,8.31c2.35,6.85,7.02,19.68,8.07,21.45,1.05,1.78,2.79,2.66,5.1,2.04Z"/><path class="cls-1" d="M77.76,93.23c-.75,2.79.9,5.65,3.68,6.41,2.79.75,5.65-.9,6.41-3.68s-.9-5.65-3.68-6.41c-2.79-.75-5.65.9-6.41,3.68Z"/><path class="cls-1" d="M85.99,82.83c-2.31-.62-3.37-2.26-3.38-4.33-.01-2.06,2.41-15.5,3.83-22.6.79-3.93,4.63-5.83,8.14-4.88,3.51.95,5.88,4.53,4.58,8.31-2.35,6.85-7.02,19.68-8.07,21.45-1.05,1.78-2.79,2.66-5.1,2.04Z"/><path class="cls-1" d="M68.42,34.84c.88.18,1.77.3,2.62.54,5.29,1.48,9.2,6.19,9.7,11.65.57,6.23-3.04,11.9-8.94,13.98-.32.11-.43.25-.43.6.02,1.41.03,2.81,0,4.22-.03,2.04-1.56,3.68-3.61,3.94-1.93.24-3.83-1.07-4.33-3.01-.1-.37-.13-.77-.14-1.15-.01-2.57-.01-5.15,0-7.72,0-2.4,1.7-4.12,4.11-4.18,3.06-.07,5.42-2.56,5.32-5.61-.1-2.97-2.71-5.32-5.72-5.16-2.77.15-4.98,2.46-5.05,5.29-.05,1.94-1.18,3.48-2.91,3.97-2.61.73-5.14-1.16-5.17-3.87-.07-6.32,4.59-12.01,10.81-13.2.53-.1,1.06-.18,1.59-.27.72,0,1.44,0,2.16,0Z"/><path class="cls-1" d="M67.33,76.17c-2.79,0-5.05,2.26-5.05,5.05s2.26,5.05,5.05,5.05,5.05-2.26,5.05-5.05-2.26-5.05-5.05-5.05Z"/></g></svg>