<?xml version="1.0" encoding="UTF-8"?><svg id="Camada_2" xmlns="http://www.w3.org/2000/svg" xmlns:xlink="http://www.w3.org/1999/xlink" viewBox="0 0 2230.49 1307.6"><defs><style>.cls-1{fill:url(#linear-gradient-2);}.cls-2{fill:url(#linear-gradient-51);}.cls-3{opacity:.7;}.cls-4,.cls-5{fill:#fff;}.cls-6{fill:url(#linear-gradient-17);}.cls-7{fill:url(#linear-gradient-43);}.cls-8{fill:url(#linear-gradient-15);}.cls-9{fill:url(#linear-gradient-58);}.cls-10{fill:url(#linear-gradient-18);}.cls-11{fill:url(#linear-gradient-56);}.cls-12{fill:url(#linear-gradient-40);}.cls-13{fill:url(#linear-gradient-52);}.cls-14{fill:url(#linear-gradient-28);}.cls-15{fill:url(#linear-gradient-14);}.cls-16{fill:url(#linear-gradient-36);}.cls-17{fill:url(#linear-gradient-20);}.cls-18{fill:url(#linear-gradient-6);}.cls-19{fill:url(#linear-gradient-53);}.cls-20{fill:url(#linear-gradient-60);}.cls-21{fill:url(#linear-gradient-35);}.cls-22{fill:url(#linear-gradient-48);}.cls-23{fill:url(#linear-gradient-32);}.cls-24{fill:url(#linear-gradient-11);}.cls-25{fill:url(#linear-gradient-50);}.cls-26{fill:url(#linear-gradient-63);}.cls-27{fill:url(#linear-gradient-39);}.cls-28{fill:url(#linear-gradient-10);}.cls-29{fill:#91b3fa;}.cls-30{fill:url(#linear-gradient-59);}.cls-31{fill:url(#linear-gradient-49);}.cls-32{fill:url(#linear-gradient-37);}.cls-33{fill:url(#linear-gradient-16);}.cls-34{fill:url(#linear-gradient-31);}.cls-35{fill:#7d97f4;}.cls-36{fill:url(#linear-gradient-61);}.cls-37{fill:url(#linear-gradient-62);}.cls-38{fill:url(#linear-gradient-41);}.cls-39{fill:url(#linear-gradient-21);}.cls-40{fill:url(#linear-gradient-25);}.cls-41{fill:url(#linear-gradient-5);}.cls-42{fill:url(#linear-gradient-64);}.cls-43{fill:url(#linear-gradient-54);}.cls-44{fill:url(#linear-gradient-45);}.cls-45{fill:url(#linear-gradient-55);}.cls-46{fill:url(#linear-gradient-34);}.cls-47{fill:url(#linear-gradient-65);}.cls-48{fill:url(#linear-gradient-7);}.cls-49{fill:url(#linear-gradient-66);}.cls-50{fill:url(#linear-gradient-24);}.cls-51{fill:url(#linear-gradient-9);}.cls-52{fill:url(#linear-gradient-22);}.cls-53{fill:url(#linear-gradient-42);}.cls-54{fill:url(#linear-gradient-3);}.cls-5{opacity:.6;}.cls-55{fill:url(#linear-gradient);}.cls-56{fill:url(#linear-gradient-27);}.cls-57{fill:url(#linear-gradient-33);}.cls-58{fill:url(#linear-gradient-38);}.cls-59{fill:url(#linear-gradient-29);}.cls-60{fill:url(#linear-gradient-30);}.cls-61{fill:#bdd0fb;}.cls-62{fill:url(#linear-gradient-23);}.cls-63{fill:url(#linear-gradient-19);}.cls-64{fill:url(#linear-gradient-4);}.cls-65{fill:url(#linear-gradient-8);}.cls-66{fill:url(#linear-gradient-44);}.cls-67{fill:url(#linear-gradient-57);}.cls-68{fill:url(#linear-gradient-47);}.cls-69{fill:url(#linear-gradient-46);}.cls-70{fill:url(#linear-gradient-12);}.cls-71{fill:url(#linear-gradient-13);}.cls-72{fill:url(#linear-gradient-26);}</style><linearGradient id="linear-gradient" x1="-1753.82" y1="594.27" x2="430.68" y2="594.27" gradientTransform="translate(476.68) rotate(-180) scale(1 -1)" gradientUnits="userSpaceOnUse"><stop offset="0" stop-color="#dae3fe"/><stop offset="1" stop-color="#e9effd"/></linearGradient><linearGradient id="linear-gradient-2" x1="1939.39" y1="1425.65" x2="1995.86" y2="1149.56" gradientTransform="matrix(1, 0, 0, 1, 0, 0)" gradientUnits="userSpaceOnUse"><stop offset="0" stop-color="#4042e2"/><stop offset="1" stop-color="#4f52ff"/></linearGradient><linearGradient id="linear-gradient-3" x1="201.2" y1="1425.65" x2="257.67" y2="1149.56" xlink:href="#linear-gradient-2"/><linearGradient id="linear-gradient-4" x1="1016.09" y1="581.65" x2="1149.2" y2="326.63" gradientTransform="translate(300.7)" gradientUnits="userSpaceOnUse"><stop offset="0" stop-color="#09005d"/><stop offset="1" stop-color="#1a0f91"/></linearGradient><linearGradient id="linear-gradient-5" x1="-1377.97" y1="262.71" x2="-1317.4" y2="432.5" gradientTransform="translate(-392.28 -79.66) rotate(-167.33) scale(1 -1)" xlink:href="#linear-gradient-4"/><linearGradient id="linear-gradient-6" x1="5804.92" y1="588.76" x2="5633.51" y2="799.48" gradientTransform="translate(-4813.96 610.21) rotate(-7.16)" gradientUnits="userSpaceOnUse"><stop offset="0" stop-color="#ff928e"/><stop offset="1" stop-color="#feb3b1"/></linearGradient><linearGradient id="linear-gradient-7" x1="2120.44" y1="3605.3" x2="1650.43" y2="3987.3" gradientTransform="translate(-4813.96 610.21) rotate(-7.16)" gradientUnits="userSpaceOnUse"><stop offset="0" stop-color="#fe7062"/><stop offset="1" stop-color="#ff928e"/></linearGradient><linearGradient id="linear-gradient-8" x1="-7390.76" y1="1803.84" x2="-7381.61" y2="1738.82" gradientTransform="translate(-6758.6 962.85) rotate(163.78) scale(1 -1)" xlink:href="#linear-gradient-6"/><linearGradient id="linear-gradient-9" x1="-7891.32" y1="1610.55" x2="-7805.69" y2="1708.99" gradientTransform="translate(-7120.4 -606.12) rotate(176.45) scale(1 -1)" xlink:href="#linear-gradient-6"/><linearGradient id="linear-gradient-10" x1="-1332.92" y1="246.65" x2="-1272.36" y2="416.43" gradientTransform="translate(-392.28 -79.66) rotate(-167.33) scale(1 -1)" xlink:href="#linear-gradient-4"/><linearGradient id="linear-gradient-11" x1="-7869.93" y1="1591.94" x2="-7784.3" y2="1690.38" gradientTransform="translate(-7120.4 -606.12) rotate(176.45) scale(1 -1)" xlink:href="#linear-gradient-6"/><linearGradient id="linear-gradient-12" x1="807.58" y1="1139.2" x2="467.58" y2="1301.2" gradientTransform="matrix(1, 0, 0, 1, 0, 0)" xlink:href="#linear-gradient-6"/><linearGradient id="linear-gradient-13" x1="5415.97" y1="1249.38" x2="5475.68" y2="1249.38" gradientTransform="translate(-4693.79 49.66) rotate(-.54)" xlink:href="#linear-gradient-4"/><linearGradient id="linear-gradient-14" x1="989.29" y1="953.01" x2="831.29" y2="1127.01" gradientTransform="matrix(1, 0, 0, 1, 0, 0)" xlink:href="#linear-gradient-6"/><linearGradient id="linear-gradient-15" x1="5471.33" y1="1260.17" x2="5542.51" y2="1260.17" gradientTransform="translate(-4693.79 49.66) rotate(-.54)" xlink:href="#linear-gradient-4"/><linearGradient id="linear-gradient-16" x1="2658.97" y1="3225.25" x2="2188.97" y2="3607.25" gradientTransform="translate(-4693.79 49.66) rotate(-.54)" xlink:href="#linear-gradient-7"/><linearGradient id="linear-gradient-17" x1="5455.13" y1="893.2" x2="5794.01" y2="505.57" xlink:href="#linear-gradient-6"/><linearGradient id="linear-gradient-18" x1="-442.18" y1="920.78" x2="-406.88" y2="920.78" gradientTransform="translate(344.6) rotate(-180) scale(1 -1)" xlink:href="#linear-gradient-4"/><linearGradient id="linear-gradient-19" x1="-499.96" y1="923.04" x2="-435.09" y2="923.04" gradientTransform="translate(344.6) rotate(-180) scale(1 -1)" xlink:href="#linear-gradient-4"/><linearGradient id="linear-gradient-20" x1="766.13" y1="946.4" x2="845.44" y2="946.4" gradientTransform="matrix(1, 0, 0, 1, 0, 0)" xlink:href="#linear-gradient-6"/><linearGradient id="linear-gradient-21" x1="750" y1="1076.57" x2="720.95" y2="1277.23" xlink:href="#linear-gradient-2"/><linearGradient id="linear-gradient-22" x1="673.41" y1="1248.93" x2="702.17" y2="1248.93" gradientTransform="matrix(1, 0, 0, 1, 0, 0)" xlink:href="#linear-gradient-6"/><linearGradient id="linear-gradient-23" x1="893.85" y1="1097.39" x2="864.81" y2="1298.05" xlink:href="#linear-gradient-2"/><linearGradient id="linear-gradient-24" x1="689.8" y1="981.97" x2="569.81" y2="1214.46" gradientTransform="matrix(1, 0, 0, 1, 0, 0)" xlink:href="#linear-gradient-4"/><linearGradient id="linear-gradient-25" x1="809.63" y1="1251.35" x2="843.97" y2="1251.35" gradientTransform="matrix(1, 0, 0, 1, 0, 0)" xlink:href="#linear-gradient-6"/><linearGradient id="linear-gradient-26" x1="681.16" y1="894.1" x2="663.16" y2="994.6" gradientTransform="matrix(1, 0, 0, 1, 0, 0)" xlink:href="#linear-gradient-4"/><linearGradient id="linear-gradient-27" x1="658.66" y1="712.3" x2="555.16" y2="829.3" gradientTransform="matrix(1, 0, 0, 1, 0, 0)" xlink:href="#linear-gradient-6"/><linearGradient id="linear-gradient-28" x1="585.61" y1="924.81" x2="772.05" y2="1230.88" gradientTransform="matrix(1, 0, 0, 1, 0, 0)" xlink:href="#linear-gradient-7"/><linearGradient id="linear-gradient-29" x1="604.32" y1="844.17" x2="629.57" y2="844.17" gradientTransform="matrix(1, 0, 0, 1, 0, 0)" gradientUnits="userSpaceOnUse"><stop offset="0" stop-color="#e1473d"/><stop offset="1" stop-color="#e9605a"/></linearGradient><linearGradient id="linear-gradient-30" x1="2295.33" y1="206" x2="2325.33" y2="321.5" gradientTransform="translate(-2044.7 -172.1) rotate(-7.5)" xlink:href="#linear-gradient-6"/><linearGradient id="linear-gradient-31" x1="614.44" y1="627.55" x2="701.54" y2="739.7" xlink:href="#linear-gradient-29"/><linearGradient id="linear-gradient-32" x1="2267.64" y1="213.19" x2="2297.64" y2="328.68" gradientTransform="translate(-2044.7 -172.1) rotate(-7.5)" xlink:href="#linear-gradient-6"/><linearGradient id="linear-gradient-33" x1="662.31" y1="628.99" x2="677.97" y2="628.99" gradientTransform="matrix(1, 0, 0, 1, 0, 0)" xlink:href="#linear-gradient-6"/><linearGradient id="linear-gradient-34" x1="1178.84" y1="1129.76" x2="1297.68" y2="1129.76" gradientTransform="matrix(1, 0, 0, 1, 0, 0)" xlink:href="#linear-gradient-6"/><linearGradient id="linear-gradient-35" x1="1251.55" y1="1207.19" x2="1234.08" y2="1475.2" xlink:href="#linear-gradient-2"/><linearGradient id="linear-gradient-36" x1="1039.31" y1="1137.87" x2="1290.08" y2="1137.87" gradientTransform="matrix(1, 0, 0, 1, 0, 0)" xlink:href="#linear-gradient-6"/><linearGradient id="linear-gradient-37" x1="1194.04" y1="1007.06" x2="1474.98" y2="1007.06" xlink:href="#linear-gradient-2"/><linearGradient id="linear-gradient-38" x1="1082.89" y1="1196.19" x2="1065.41" y2="1464.2" xlink:href="#linear-gradient-2"/><linearGradient id="linear-gradient-39" x1="1380.49" y1="910.96" x2="1513.74" y2="1200.97" gradientTransform="matrix(1, 0, 0, 1, 0, 0)" xlink:href="#linear-gradient-7"/><linearGradient id="linear-gradient-40" x1="1323.47" y1="809.73" x2="1306.55" y2="701.11" gradientTransform="matrix(1, 0, 0, 1, 0, 0)" xlink:href="#linear-gradient-6"/><linearGradient id="linear-gradient-41" x1="2856.54" y1="-2385.61" x2="2989.65" y2="-2640.64" gradientTransform="translate(596.1 -4015.5) rotate(-178.48) scale(1 -1)" xlink:href="#linear-gradient-6"/><linearGradient id="linear-gradient-42" x1="2861.66" y1="-2382.82" x2="2994.77" y2="-2637.85" gradientTransform="translate(596.1 -4015.5) rotate(-178.48) scale(1 -1)" xlink:href="#linear-gradient-4"/><linearGradient id="linear-gradient-43" x1="2884.18" y1="-2371.17" x2="3017.29" y2="-2626.2" gradientTransform="translate(596.1 -4015.5) rotate(-178.48) scale(1 -1)" xlink:href="#linear-gradient-6"/><linearGradient id="linear-gradient-44" x1="1392.98" y1="933.06" x2="1628.55" y2="933.06" gradientTransform="matrix(1, 0, 0, 1, 0, 0)" xlink:href="#linear-gradient-6"/><linearGradient id="linear-gradient-45" x1="-9793.7" y1="1427.15" x2="-9792.24" y2="1581.39" gradientTransform="translate(-8252.6) rotate(-180) scale(1 -1)" xlink:href="#linear-gradient-4"/><linearGradient id="linear-gradient-46" x1="-9830.87" y1="1254.91" x2="-9838.88" y2="1192.34" gradientTransform="translate(-8252.6) rotate(-180) scale(1 -1)" xlink:href="#linear-gradient-6"/><linearGradient id="linear-gradient-47" x1="-10002.08" y1="1429.11" x2="-10000.63" y2="1583.35" gradientTransform="translate(-8252.6) rotate(-180) scale(1 -1)" xlink:href="#linear-gradient-4"/><linearGradient id="linear-gradient-48" x1="-10005.79" y1="1276.35" x2="-10013.59" y2="1215.38" gradientTransform="translate(-8252.6) rotate(-180) scale(1 -1)" xlink:href="#linear-gradient-6"/><linearGradient id="linear-gradient-49" x1="-10060.29" y1="1044.67" x2="-9820.25" y2="1044.67" gradientTransform="translate(-8252.6) rotate(-180) scale(1 -1)" xlink:href="#linear-gradient-4"/><linearGradient id="linear-gradient-50" x1="-10010.5" y1="1007.84" x2="-10001.77" y2="990.38" gradientTransform="translate(-8252.6) rotate(-180) scale(1 -1)" gradientUnits="userSpaceOnUse"><stop offset="0" stop-color="#53d8ff"/><stop offset="1" stop-color="#3840f7"/></linearGradient><linearGradient id="linear-gradient-51" x1="1575.22" y1="858.84" x2="1349.22" y2="1080.84" gradientTransform="matrix(1, 0, 0, 1, 0, 0)" xlink:href="#linear-gradient-7"/><linearGradient id="linear-gradient-52" x1="-9832.94" y1="739.78" x2="-9779.83" y2="796.53" gradientTransform="translate(-8252.6) rotate(-180) scale(1 -1)" xlink:href="#linear-gradient-29"/><linearGradient id="linear-gradient-53" x1="-9946.85" y1="875.9" x2="-9837.55" y2="875.9" gradientTransform="translate(-8252.6) rotate(-180) scale(1 -1)" xlink:href="#linear-gradient-6"/><linearGradient id="linear-gradient-54" x1="-9846.12" y1="738.89" x2="-9642.01" y2="738.89" gradientTransform="translate(-8252.6) rotate(-180) scale(1 -1)" xlink:href="#linear-gradient-6"/><linearGradient id="linear-gradient-55" x1="-9919.61" y1="624.41" x2="-9848.57" y2="551.53" gradientTransform="translate(-8252.6) rotate(-180) scale(1 -1)" xlink:href="#linear-gradient-6"/><linearGradient id="linear-gradient-56" x1="-8108.48" y1="311.53" x2="-8203.67" y2="437.46" gradientTransform="translate(-4849.02 -4434.58) rotate(-144.83) scale(1 -1)" xlink:href="#linear-gradient-6"/><linearGradient id="linear-gradient-57" x1="-8181.18" y1="341.91" x2="-8067.47" y2="341.91" gradientTransform="translate(-4849.02 -4434.58) rotate(-144.83) scale(1 -1)" xlink:href="#linear-gradient-4"/><linearGradient id="linear-gradient-58" x1="-8247.9" y1="411.25" x2="-8171.55" y2="332.92" gradientTransform="translate(-4849.02 -4434.58) rotate(-144.83) scale(1 -1)" xlink:href="#linear-gradient-6"/><linearGradient id="linear-gradient-59" x1="-9954.71" y1="782.38" x2="-9995.64" y2="902.97" gradientTransform="translate(-8252.6) rotate(-180) scale(1 -1)" xlink:href="#linear-gradient-29"/><linearGradient id="linear-gradient-60" x1="-6006.84" y1="1045.62" x2="-6007.61" y2="999.03" gradientTransform="translate(-4426.6) rotate(-180) scale(1 -1)" xlink:href="#linear-gradient-7"/><linearGradient id="linear-gradient-61" x1="1250.67" y1="920.78" x2="1285.96" y2="920.78" xlink:href="#linear-gradient-2"/><linearGradient id="linear-gradient-62" x1="1191.31" y1="923.04" x2="1256.35" y2="923.04" xlink:href="#linear-gradient-2"/><linearGradient id="linear-gradient-63" x1="955.06" y1="920.78" x2="990.35" y2="920.78" xlink:href="#linear-gradient-2"/><linearGradient id="linear-gradient-64" x1="983.26" y1="923.04" x2="1048.14" y2="923.04" xlink:href="#linear-gradient-2"/><linearGradient id="linear-gradient-65" x1="1548.2" y1="920.78" x2="1583.49" y2="920.78" gradientTransform="matrix(1, 0, 0, 1, 0, 0)" xlink:href="#linear-gradient-4"/><linearGradient id="linear-gradient-66" x1="1488.84" y1="923.04" x2="1553.88" y2="923.04" gradientTransform="matrix(1, 0, 0, 1, 0, 0)" xlink:href="#linear-gradient-4"/></defs><g id="Illustration"><g><path class="cls-55" d="M1157.17,1182.58s741.73,7.36,948.33-158.14c206.6-165.5,128.84-330.49-29.36-377.23-158.2-46.74-185.18-95.35-100.06-160.91,85.12-65.57,193.23-200.15,13.73-335.4-179.5-135.25-384.32,59.02-544.76,33.22-160.43-25.8-96.89-112.68-307.87-52.68C926.2,191.44,972.72,16.74,803.11,.91c-169.62-15.83-152.23,181.7-326.69,107.14C301.95,33.48,159.25,43.77,84.24,162.19c-75.01,118.42-42.42,277.92,122.13,372.97,164.55,95.05,146.89,88.57,85.39,181.97-61.5,93.4-116.64,400.56,163.32,444.43,279.96,43.87,702.09,21.02,702.09,21.02Z"/><path class="cls-29" d="M1991.06,756.47s105.71-185.48,72.91-213.11c-32.79-27.63-33.38,52.62-46.65,41.25-13.27-11.37,8.37-78.37,2.48-124.93-5.9-46.56-18.7-108.84-35.24-46.25-16.54,62.59-14.47,124.3-21.64,92.41-7.16-31.89-31.87-198.1-63.64-148.5-31.77,49.6-38.44,114.16-6.41,151.78,32.02,37.62,75.01,79.63,22.16,51.9-52.85-27.73-88.88-15.36-32.35,34.88,0,0,85.01,70.36,48.11,67.06-36.91-3.3-95.67,35.66-35.11,63.81,0,0,86.03,12.5,95.37,29.7Z"/><path class="cls-61" d="M1947.14,925.62s-206.03-9.78-196.91-57.48c9.12-47.7,76.36-15.76,106.28-12.73,29.92,3.03,12.37-17.43-48.58-60.33-60.95-42.9-94.45-105.74-29.92-76.44,64.53,29.3,90.32,84.32,85.95,45.51-4.37-38.81-87.32-148.06-17.16-103.33,70.16,44.74,65.36,86.13,67.48,118.79,2.12,32.66,11.46-63.21,33.4-48.93,21.94,14.28,9.48,28.95,1.63,66.92-7.85,37.96,14.13,7.36,21.4-5.1s25.12,17.43,7.63,58.66c-17.49,41.23-31.2,74.45-31.2,74.45Z"/><path class="cls-35" d="M1988.17,1142.81c-.14,.12-.23,.26-.27,.41-.02,.01-.03,.29-.01,.08l.03-.59,.12-2.34,.19-4.79,.32-9.67,.5-19.42,.67-38.9c.33-25.94,.45-51.89,.36-77.84-.15-51.9-1.09-103.8-3.07-155.64-1.03-25.92-2.34-51.82-3.97-77.7-1.72-25.87-3.8-51.7-6.44-77.47-2.66-25.76-6.02-51.43-10.48-76.86-4.56-25.36-10.08-50.7-19.19-74.44l-.05-.13c-.9-2.33,.27-4.95,2.6-5.85,2.31-.89,4.91,.25,5.82,2.55,9.87,24.72,15.76,50.36,20.76,76.03,4.87,25.7,8.61,51.56,11.64,77.46,3.01,25.91,5.46,51.86,7.54,77.83,1.99,25.97,3.67,51.97,5.05,77.97,2.7,52.01,4.35,104.05,5.21,156.1,.44,26.03,.68,52.05,.7,78.09l-.14,39.06-.23,19.56-.19,9.81-.13,4.95-.09,2.53-.02,.63c0,.19-.06,.87-.11,1.29-.1,.96-.26,1.91-.47,2.84-1.53,4.6-6.51,7.09-11.11,5.56-4.6-1.53-7.09-6.51-5.56-11.11Z"/><path class="cls-35" d="M1987.04,1152.81c-.08,.23-.11,.48-.1,.72,0,.06,.04,.36,.02,.23l-.05-.37-.21-1.47-.46-3.02-.97-6.13-2.04-12.31-4.26-24.63c-2.91-16.41-5.94-32.81-9.09-49.19-6.28-32.75-13-65.42-20.3-97.95-7.34-32.51-15.24-64.9-24.38-96.88-4.58-15.98-9.52-31.85-15.07-47.45-5.6-15.55-11.72-30.99-19.71-45.06l-.06-.11c-1.23-2.17-.47-4.94,1.7-6.17,2.14-1.22,4.86-.49,6.12,1.62,8.84,14.84,15.38,30.48,21.44,46.22,5.99,15.77,11.33,31.72,16.3,47.76,9.91,32.09,18.54,64.5,26.62,97.02,8.03,32.53,15.48,65.19,22.48,97.94,3.51,16.38,6.9,32.77,10.17,49.2l4.81,24.67,2.32,12.38,1.12,6.23,.55,3.16,.27,1.63,.07,.41,.12,1c.07,.76,.1,1.52,.08,2.28-.47,4.83-4.77,8.36-9.6,7.89-4.83-.47-8.36-4.77-7.89-9.6Z"/><path class="cls-29" d="M2031.2,793.91s208.87-33.29,188.94-77.58c-19.93-44.29-77.93,2.37-106.34,12.25-28.4,9.88-32.48,4.95,16.86-50.91,49.34-55.86,53.95-113.82-2.04-70.36-55.98,43.46-36.61,83.77-41.35,45-4.74-38.76,70.09-186.77,12.2-126.99-57.88,59.78-64.96,110.66-59.44,142.92,5.51,32.26-25.8-58.83-43.83-39.85-18.03,18.98-2.51,30.36,13.93,65.47,16.44,35.11-12.04,10.44-22,0-9.96-10.44-20.39,22.77,6.17,58.83,26.57,36.06,36.9,41.21,36.9,41.21Z"/><path class="cls-35" d="M2015.46,1148.37c-.2-.82-.35-1.68-.44-2.53-.04-.36-.09-1-.09-1.14l-.02-.48-.06-1.91-.09-3.73-.13-7.35-.14-14.64-.04-29.23c.06-19.48,.29-38.95,.66-58.42,.74-38.94,2.06-77.87,4.17-116.78,2.16-38.91,5.07-77.8,9.7-116.58,2.32-19.39,5.16-38.74,8.85-58,3.79-19.23,8.24-38.45,15.72-57.05,.93-2.32,3.57-3.44,5.89-2.51,2.29,.92,3.42,3.51,2.54,5.81l-.05,.13c-6.72,17.62-10.79,36.54-14.15,55.46-3.28,18.98-5.75,38.16-7.69,57.4-3.88,38.5-6.07,77.21-7.51,115.95-1.39,38.75-2,77.54-2.03,116.33-.02,19.39,.11,38.79,.41,58.18l.57,29.06,.4,14.5,.26,7.22,.15,3.56,.09,1.73,.02,.43c0,.16,0-.17-.03-.23-.04-.25-.14-.5-.29-.72,1.53,4.6-.95,9.58-5.56,11.11-4.6,1.53-9.58-.95-11.11-5.56Z"/><path class="cls-1" d="M1915.47,1108.1h172.95c11.34,0,19.72,10.55,17.17,21.59-11.06,47.94-24.33,96.58-51.46,145.95-5.01,9.12-14.55,14.84-24.96,14.84h-56.43c-10.25,0-19.65-5.63-24.51-14.66-21.74-40.4-42.65-88.55-52.98-143.21-2.4-12.72,7.28-24.52,20.22-24.52Z"/><path class="cls-29" d="M270.32,758.53s118.75-177.42,88.02-207.33c-30.72-29.91-37.07,50.08-49.49,37.8-12.42-12.29,13.98-77.57,11.44-124.43-2.54-46.86-10.84-109.91-31.83-48.66-20.99,61.24-23.36,122.94-28.21,90.62-4.86-32.32-17.56-199.87-52.81-152.68-35.25,47.19-46.53,111.11-17.29,150.93,29.24,39.82,69.1,84.81,18.38,53.35-50.73-31.45-87.55-21.7-34.77,32.47,0,0,79.74,76.28,43.17,70.34-36.58-5.94-97.98,28.7-39.6,61.12,0,0,84.91,18.64,92.99,36.47Z"/><path class="cls-35" d="M239.7,1143.67c-.15,.11-.25,.25-.29,.39-.02,0-.05,.29-.02,.07l.07-.58,.28-2.33,.54-4.76,1.01-9.63,1.89-19.33,3.46-38.75c2.19-25.85,4.17-51.73,5.95-77.61,3.57-51.78,6.36-103.61,8.11-155.46,.84-25.93,1.39-51.86,1.62-77.78,.14-25.92-.08-51.84-.87-77.73-.81-25.88-2.31-51.73-4.93-77.41-2.73-25.62-6.41-51.29-13.79-75.62l-.04-.13c-.73-2.39,.62-4.92,3.02-5.64,2.37-.72,4.88,.6,5.63,2.96,8.07,25.36,12.11,51.37,15.25,77.32,3.01,25.99,4.88,52.04,6.05,78.09,1.15,26.06,1.73,52.11,1.94,78.17,.12,26.05-.07,52.09-.56,78.13-1.04,52.07-3.13,104.09-6.01,156.07-1.43,25.99-3.06,51.97-4.91,77.94l-2.95,38.95-1.64,19.49-.89,9.77-.49,4.93-.27,2.51-.07,.63c-.02,.19-.12,.87-.2,1.28-.17,.95-.4,1.89-.67,2.8-1.86,4.48-7,6.6-11.48,4.74-4.48-1.86-6.6-7-4.74-11.48Z"/><path class="cls-29" d="M319.49,925.62s206.03-9.78,196.91-57.48c-9.12-47.7-76.36-15.76-106.28-12.73-29.92,3.03-12.37-17.43,48.58-60.33,60.95-42.9,94.45-105.74,29.92-76.44-64.53,29.3-90.32,84.32-85.95,45.51,4.37-38.81,87.32-148.06,17.16-103.33-70.16,44.74-65.36,86.13-67.48,118.79-2.12,32.66-11.46-63.21-33.4-48.93-21.94,14.28-9.48,28.95-1.63,66.92,7.85,37.96-14.13,7.36-21.4-5.1s-25.12,17.43-7.63,58.66c17.49,41.23,31.2,74.45,31.2,74.45Z"/><path class="cls-35" d="M279.6,1152.81c.08,.23,.11,.48,.1,.72,0,.06-.04,.36-.02,.23l.05-.37,.21-1.47,.46-3.02,.97-6.13,2.04-12.31,4.26-24.63c2.91-16.41,5.94-32.81,9.09-49.19,6.28-32.75,13-65.42,20.3-97.95,7.34-32.51,15.24-64.9,24.38-96.88,4.58-15.98,9.52-31.85,15.07-47.45,5.6-15.55,11.72-30.99,19.71-45.06l.06-.11c1.23-2.17,.47-4.94-1.7-6.17-2.14-1.22-4.86-.49-6.12,1.62-8.84,14.84-15.39,30.48-21.44,46.22-5.99,15.77-11.33,31.72-16.3,47.76-9.91,32.09-18.54,64.5-26.62,97.02-8.03,32.53-15.48,65.19-22.48,97.94-3.51,16.38-6.9,32.77-10.17,49.2l-4.81,24.67-2.32,12.38-1.12,6.23-.55,3.16-.27,1.63-.07,.41-.12,1c-.07,.76-.1,1.52-.08,2.28,.47,4.83,4.77,8.36,9.6,7.89,4.83-.47,8.36-4.77,7.89-9.6Z"/><path class="cls-61" d="M196.87,840.59S-14.34,829.63,.77,783.47c15.12-46.15,77.75-5.91,107.04,.91,29.29,6.82,32.83,1.48-22.16-48.84-54.99-50.32-65.71-107.46-5.43-70.18,60.28,37.28,45.28,79.42,45.89,40.37,.61-39.05-89.49-178.29-25.6-124.98,63.89,53.31,76.32,103.15,74.26,135.82s19.42-61.23,39.36-44.27c19.94,16.96,5.72,29.93-6.91,66.58-12.63,36.65,13.08,9.1,21.87-2.33,8.79-11.43,22.69,20.48,.1,59.15-22.6,38.67-32.32,44.89-32.32,44.89Z"/><path class="cls-35" d="M250.1,1191.38c.11-.84,.17-1.71,.17-2.57,0-.37-.01-1-.03-1.14l-.03-.48-.14-1.91-.3-3.72-.65-7.33-1.41-14.57-3.06-29.07c-2.13-19.36-4.41-38.7-6.85-58.03-4.86-38.64-10.3-77.22-16.52-115.68-6.28-38.46-13.29-76.82-22-114.89-4.36-19.03-9.23-37.98-14.95-56.73-5.81-18.72-12.27-37.36-21.68-55.07-1.17-2.21-3.91-3.05-6.12-1.87-2.18,1.16-3.03,3.85-1.91,6.04l.06,.12c8.55,16.81,14.6,35.19,19.95,53.65,5.28,18.52,9.76,37.33,13.73,56.26,7.94,37.87,14.22,76.13,19.76,114.5,5.49,38.38,10.21,76.89,14.34,115.46,2.07,19.28,4,38.58,5.76,57.89l2.51,28.96,1.14,14.47,.51,7.2,.23,3.55,.09,1.73,.02,.43c0,.16-.01-.17,0-.23,.02-.25,.09-.51,.21-.74-1.04,4.74,1.96,9.42,6.7,10.46,4.74,1.04,9.42-1.96,10.46-6.7Z"/><path class="cls-54" d="M177.28,1108.1h172.95c11.34,0,19.72,10.55,17.17,21.59-11.07,47.94-24.33,96.58-51.46,145.95-5.01,9.12-14.55,14.84-24.96,14.84h-56.43c-10.25,0-19.65-5.63-24.51-14.66-21.74-40.4-42.65-88.55-52.98-143.21-2.4-12.72,7.28-24.52,20.22-24.52Z"/><path class="cls-64" d="M1327.82,634.48s19.57-49.87-38.33-42.28c-57.9,7.58-48.05,41.7-52.63,58.78-4.58,17.08-28.87,36.44-96.47,62.8-67.6,26.36-47.56,98.21-17.19,122.06,30.36,23.85,46.92,8,53.98,49.16,7.06,41.16,35.23,74.59,70.38,39.7,35.15-34.89,75.1-76.16,63.93-130.26-11.17-54.11,1.48-43.87,23.29-68.69,21.81-24.82-24.42-48.85-6.97-91.26Z"/><g><rect class="cls-35" x="942.82" y="1101.99" width="16.71" height="180.74"/><path class="cls-35" d="M1024.36,1286.22h-146.38c0-6.01,4.87-10.88,10.88-10.88h124.62c6.01,0,10.88,4.87,10.88,10.88h0Z"/><rect class="cls-35" x="862.04" y="1061.49" width="184.05" height="52.2" rx="17.97" ry="17.97"/></g><g><path class="cls-41" d="M857.22,509.11s16.16-40.26-33.74-46.91c-49.9-6.64-69.1,35.34-88.82,90.43-16.15,45.1-70.57,70-105.86,97.75-44.44,34.94-65.11,88.34-48.82,144.65,13.33,46.06,63.81,61.57,107.04,59.82,132.28-5.35,165.24-2.53,173.22-86.21,7.98-83.68-3.02-259.53-3.02-259.53Z"/><path class="cls-18" d="M1002.77,530.16c-1.12-2.13-4.27-1.8-4.92,.52-2.39,8.59-8.16,23.57-20.28,28.89-.61,.27-1.19,.54-1.75,.81-.55-1.65-.56-3.56,.76-5.57,3.77-5.76-3.03-13.62-3.03-13.62,0,0-.45,6.92-5.71,11.28-4.53,3.76-6.71,12.11-3.61,18.97,6.56,25.47,16.38,59.16-21.87,83.77-38.25,24.61-92.11-46.44-92.11-46.44l26.73,84.75s41.26,30.45,89.26-12.37c48-42.82,16.18-105.12,16.18-105.12,0,0,36.61-14.77,20.34-45.87Z"/><path class="cls-48" d="M846.67,599.46c-11.44-3.43-44.75-9.76-76.44,19.48-5.37,4.96-7.57,12.5-5.65,19.55,8.51,31.33,30.97,123.9,11.28,163.96,0,0,34.7,38.25,72.55,7.42,0,0,16.98-74.02,39.23-106.52,15.36-22.43-24.49-84.24-34.57-99.18-1.53-2.26-3.78-3.93-6.39-4.72Z"/><path class="cls-65" d="M815.08,537.21s-16.92,47.86-18.19,68.98c0,0,18.7,8.5,36.32-5.85,0,0,1.85-47.81,4.52-56.37l-22.65-6.76Z"/><path class="cls-51" d="M853.66,499.69s29.59,70.14-.17,81.88c-29.76,11.75-50.84-38.11-50.84-38.11,0,0-2.58-35.33,10.42-44.19,13-8.86,40.59,.42,40.59,.42Z"/><path class="cls-28" d="M836.93,480.75s18.78,9.16,19.54,18.76c.76,9.6-32.02,10.97-40.77,9.43l-15.12,34.65s-12.97-38.71-.37-56.55c12.6-17.84,36.72-6.29,36.72-6.29Z"/><path class="cls-24" d="M812.03,540.9s-12.43-23.24-21.97-12.06c-9.54,11.19,10.13,25.62,19.08,21.09l2.88-9.03Z"/><path class="cls-70" d="M892.59,965.28c-.13,3.36,5.77,30.01,8.98,44.23,1.29,5.72,.39,11.71-2.52,16.8l-111.2,187.15c-1.35,2.26-2.32,4.72-2.92,7.28-2.04,8.78-6.26,30.31-4.06,49.89l5.75,11.95-24.88-5.65-5.41-66.81,7.04-4.29c6.08-3.71,10.82-9.26,13.54-15.85,10.05-24.42,35.02-86.6,41.46-116.9,7.31-34.44,45.55-62.4,45.55-62.4l-6.72-15.88,35.38-29.52Z"/><path class="cls-71" d="M734.1,1253.94s13.43-21.3,15.02-29.59c1.58-8.29,5.98-22.93,14.26-18.52,0,0,3.9,40.28,2.56,56.01-1.35,15.74,17.79,15.23,17.79,15.23,0,0,5.27,.74,9.14,4.6,2.67,2.67,.76,7.29-3,7.54-6.26,.4-16.21,.51-26.65-1.51-3.65-.71-6.36-3.81-6.58-7.52l-2.76-46.35-16.95,21.4-2.83-1.28Z"/><path class="cls-15" d="M826.16,995.09s-3.92,167.41-4.45,191.18c-.53,23.78,3.75,76.47,27.59,92.22l-10.37,7.68s-12.96-11.02-25.62-32.22c-14.22-23.82-18.53-28.17-18.53-28.17l4.72-9.67c2.07-4.23,2.67-9.02,1.72-13.63-5.14-24.93-22.33-107.85-27.01-125.7-5.53-21.08-5.93-49.23,13.32-72.79,19.25-23.56,38.63-8.9,38.63-8.9Z"/><path class="cls-8" d="M804.15,1293.72c-.74,0-1.37-.52-1.47-1.25-.79-5.58-4.09-27.96-6.8-33.75-3.1-6.64-13.21-34.56,0-36.93,0,0,32.84,47.99,39.15,54.45,6.3,6.47,14.26,2.26,14.26,2.26,0,0,6.14,1.81,10.78,7.74,2.2,2.82,.15,6.95-3.43,6.99l-22.12,.21c-6.42,.06-12.2-3.84-14.59-9.81-3.89-9.73-10.58-23.99-18.38-30.32l4.05,38.79c.09,.86-.58,1.62-1.45,1.63h0Z"/><path class="cls-33" d="M853.64,791.82s-4.99,15.89,2.67,42.06l47.51,165.91c.75,2.61-.66,5.34-3.21,6.25-14.21,5.1-60.93,19.52-124.7,15.12-3.21-.22-5.9-2.49-6.6-5.64-4.2-18.91-18.54-83.45-21.49-96.71-11.25-50.52-23.81-105.01,31.44-137.96,25.46,10.91,49.21,17.33,74.38,10.96Z"/><path class="cls-6" d="M765.7,625.19s-54.05,44.92-67.47,106.31c-13.42,61.39,78.99,67.91,78.99,67.91,0,0,12.54-14.01,27.44-9.01,14.89,5,1.15-24.45-16.27-24.37-17.42,.08-9.35,13.86-34,2.69-24.01-10.88-38.85-44.51,22.41-95.51,3.55-2.96,6.38-6.72,8.09-11.02,11.9-29.96,2.46-49.6-19.18-37Z"/><path class="cls-35" d="M651.84,834.52s-.02,0-.03,0c-11.78-.71-25.68-5.54-34.57-12.03-9.67-7.06-18.49-23.49-23.52-36.52-10.58-27.41-7.82-54.75,8.21-81.28,11.95-19.77,31.34-39.46,59.29-60.17,12.17-9.02,25.24-18,38.84-26.7,.26-.17,.61-.09,.77,.17,.17,.26,.09,.61-.17,.77-13.58,8.68-26.63,17.65-38.78,26.65-27.83,20.63-47.13,40.21-59,59.85-15.84,26.22-18.57,53.23-8.12,80.3,4.97,12.88,13.66,29.1,23.14,36.02,8.74,6.37,22.39,11.12,33.98,11.82,.31,.02,.54,.28,.52,.59-.02,.3-.26,.53-.56,.53Z"/><path class="cls-35" d="M852.28,492.21c-.26,0-.49-.18-.55-.45-.03-.14-3-14.02-19.96-17.83-.3-.07-.49-.37-.42-.67,.07-.3,.37-.49,.67-.42,17.69,3.98,20.78,18.56,20.81,18.7,.06,.3-.14,.6-.44,.66-.04,0-.07,.01-.11,.01Z"/></g><g><path class="cls-10" d="M781.39,947.35c.75,0,1.52-.02,2.29-.07l-.59-9.61c-6.97,.42-12.74-1.68-16.68-6.09-4.4-4.93-6.21-12.52-4.84-20.29,.43-2.41,1.48-6.57,3.75-7.29,3.45-1.09,10.74,3.72,14.67,7.62l6.78-6.84c-2.26-2.24-14.06-13.24-24.37-9.96-5.42,1.72-8.89,6.7-10.31,14.79-1.91,10.81,.69,21.16,7.14,28.38,5.43,6.08,13.23,9.36,22.16,9.36Z"/><path class="cls-63" d="M781.75,890.6h61.55c1.08,0,1.26,1.14,1.26,2.22v46.72c0,9.27-6.82,15.93-16.09,15.93h-31.89c-9.27,0-16.89-6.65-16.89-15.93v-46.72c0-1.08,.97-2.22,2.06-2.22Z"/></g><g><path class="cls-35" d="M428.28,1080.12c-4.36,6.46-21.7,152.62-24.42,206.6-.18,3.65,2.74,6.69,6.39,6.69h0c3.15,0,5.83-2.3,6.32-5.41l31.71-203.23-20.01-4.65Z"/><path class="cls-35" d="M567.68,1080.12c4.36,6.46,21.7,152.62,24.41,206.6,.18,3.65-2.74,6.69-6.39,6.69h0c-3.15,0-5.83-2.3-6.32-5.41l-31.71-203.23,20.01-4.65Z"/><path class="cls-35" d="M402.05,1068.71v1.59c-.12,11.47,9.76,20.87,22.13,21.08l146.59,2.49c12.19,.21,22.35-8.6,22.94-19.89l.08-1.46c.62-11.77-9.38-21.69-22.09-21.92l-146.65-2.63c-12.55-.23-22.89,9.09-22.99,20.73Z"/></g><g><path class="cls-35" d="M1708.93,1080.12c-4.36,6.46-21.7,152.62-24.42,206.6-.18,3.65,2.74,6.69,6.39,6.69h0c3.15,0,5.83-2.3,6.32-5.41l31.71-203.23-20.01-4.65Z"/><path class="cls-35" d="M1848.33,1080.12c4.36,6.46,21.7,152.62,24.41,206.6,.18,3.65-2.74,6.69-6.39,6.69h0c-3.15,0-5.83-2.3-6.32-5.41l-31.71-203.23,20.01-4.65Z"/><path class="cls-35" d="M1682.7,1068.71v1.59c-.12,11.47,9.76,20.87,22.13,21.08l146.59,2.49c12.19,.21,22.35-8.6,22.94-19.89l.08-1.46c.62-11.77-9.38-21.69-22.09-21.92l-146.65-2.63c-12.55-.23-22.89,9.09-22.99,20.73Z"/></g><g><path class="cls-17" d="M766.13,947.18l10.28-2.74,31.22-7.23c3.76-.87,7.71-.2,10.97,1.85l26.84,16.89-74.12-.13-5.19-8.64Z"/><g><path class="cls-35" d="M710.84,1281.41c-26.06,0-37.59-2.24-42.74-4.27,1,4.28,4.81,7.66,9.63,7.66h92.19c3.1,0,5.06-2.97,4.32-5.66-10.51,.85-32.83,2.28-63.4,2.28Z"/><path class="cls-39" d="M774.24,1279.13c-.15-.54-.37-1.08-.75-1.57-7.02-8.97-21.13-23.05-40.32-22.78-28.11,.4-37.91,3.44-59.76,.17l-5.15,17.08c-.53,1.74-.53,3.48-.16,5.1,5.16,2.04,16.68,4.27,42.74,4.27,30.57,0,52.89-1.43,63.4-2.28Z"/></g><path class="cls-52" d="M679.74,1236.55l-6.33,21.51s14.01,6.38,26.34,1.26l2.42-18.64-22.43-4.13Z"/><g><path class="cls-35" d="M870.8,1267.86c-20.31,16.32-30.69,21.81-35.98,23.46,3.45,2.69,8.53,2.93,12.28-.09l71.86-57.74c2.42-1.94,2.09-5.48-.16-7.1-7.67,7.24-24.17,22.33-48,41.48Z"/><path class="cls-62" d="M918.8,1226.39c-.46-.33-.96-.6-1.57-.74-11.06-2.56-30.84-4.65-45.63,7.58-21.67,17.91-27.41,26.42-46.48,37.56l6.63,16.48c.68,1.68,1.75,3.03,3.06,4.05,5.29-1.65,15.67-7.13,35.98-23.46,23.83-19.15,40.33-34.24,48-41.48Z"/></g><path class="cls-50" d="M544.41,991.43s156.01,12.74,188.02,27.8c32,15.07-26.12,226.23-26.12,226.23,0,0-8.71,4.19-28.1-1.83,0,0,19.88-155.83,5.09-189.62l-168.92-27.63,30.03-34.95Z"/><path class="cls-40" d="M809.63,1241.13c1.45,1.32,15.5,29.66,15.5,29.66,0,0,15.64-3.38,18.83-13.29l-14.08-25.58-20.26,9.2Z"/><path class="cls-72" d="M450.45,990.13s-5.08,12.23-4.88,28.49c.29,22.48,18.36,40.73,40.82,41.85l184.43,8.41c3.89,.18,7.19,2.87,8.17,6.65,4.33,16.76,25.52,68.24,129.07,170.96,2.75,2.73,7.05,3.2,10.33,1.13l14.74-9.31c1.55-.98,2.04-3.01,1.12-4.59l-107.39-183.38c-5.64-9.31-14.71-16.03-25.25-18.73l-157.19-40.18-93.96-1.3Z"/><path class="cls-56" d="M632.2,703.68s-19.76,34.93-39.9,51.86l41.64,23.23s9.38-36.98,30.82-47.81l-32.55-27.28Z"/><path class="cls-14" d="M447.1,991.43s49.79,12.13,97.31,0c0,0,66.5-89.4,92.23-113.73,0,0,41.04,64.76,132.38,73.93l5.09-11.38s-72.72-33.52-95.1-85.03c-22.39-51.51-31.38-73.47-51.74-86.91-12.68-8.37-20.28-14.09-24.2-17.21-2.15-1.71-5.11-1.9-7.46-.47-21.61,13.17-123.32,82.83-148.5,240.8Z"/><path class="cls-59" d="M625.91,863.73c-1.1,0-2.18-.49-2.9-1.43-11.67-15.22-18.18-32.01-18.45-32.71-.72-1.88,.22-4,2.1-4.72,1.88-.72,4,.22,4.73,2.1,.06,.16,6.42,16.53,17.43,30.88,1.23,1.6,.93,3.9-.68,5.13-.66,.51-1.45,.76-2.22,.76Z"/><g><path class="cls-60" d="M663.58,651.3s19.2,31.92,22.53,49.56c3.33,17.64,8.68,28.67-11.4,34.95-20.08,6.29-38.74-1.67-50.45-18.14,0,0-18.29-25.34-16.46-36.95,1.82-11.61,55.78-29.43,55.78-29.43Z"/><path class="cls-34" d="M631.22,675.83s60.72-20.16,55.35-48.64c-5.38-28.47-32.31-30.08-46.29-6-13.98,24.07-53.68,27.78-46.16,50.28,3.05,13.56-23.84,26.4,34.43,52.42-6.8-20.87-1.63-21.21,1.01-21.21h3.36s-17.65-24.78-1.69-26.86Z"/><path class="cls-23" d="M630.67,707.19s-8.47-20.89-17.37-13.55c-8.9,7.34,8.22,23.57,16.13,23.35l1.24-9.81Z"/><path class="cls-57" d="M670.15,647.07c-.22,0-.43-.13-.52-.35-.12-.29,.02-.61,.3-.73,.28-.12,6.93-3.04,6.93-15.14s-14.07-18.81-14.22-18.88c-.28-.13-.4-.46-.27-.74,.13-.28,.46-.4,.74-.27,.15,.07,14.87,7.01,14.87,19.9s-7.31,16.05-7.62,16.18c-.07,.03-.14,.04-.21,.04Z"/></g></g><g><rect class="cls-35" x="1352.88" y="1101.99" width="16.71" height="180.74"/><path class="cls-35" d="M1434.43,1286.22h-146.38c0-6.01,4.87-10.88,10.88-10.88h124.62c6.01,0,10.88,4.87,10.88,10.88h0Z"/><rect class="cls-35" x="1272.11" y="1061.49" width="184.05" height="52.2" rx="17.97" ry="17.97"/></g><g><path class="cls-46" d="M1237.85,981.48s-24.83,3.85-52.76,22.52c-4.39,2.94-6.8,8.06-6.14,13.3,3.34,26.48,17.09,112.21,62.42,195.93,2.39,4.41,3.08,9.55,2.02,14.46l-7.88,36.65-14.61,13.69h37.62l25.05-67.78-10.71-3.39c-8.3-2.63-14-10.26-14.15-18.97l-1.26-72.71c1.07-32.4-19.86-54.75-19.86-54.75l60.08-2.92-59.83-76.03Z"/><path class="cls-21" d="M1206.23,1284.65c-3.43,4.48,36.87,10.4,57.24,.59,0,0,28.22-49.11,28.22-74.39,0,0-2.24-5.16-18.81-3.99,0,0-9.48,58.15-19.48,64.66-10.01,6.51-28,.66-28,.66,0,0-14.11,5.85-19.17,12.47Z"/><path class="cls-16" d="M1290.08,1061.49c-.32-.55-64.69-7.74-64.69-7.74,0,0,2.11,19.57-4.48,46.51-6.58,26.94-101.09,143.66-101.09,143.66l9.91,31.41c-30.64,10.67-60.77,12.38-90.43,5.44l61.41-36.85s57.47-195.85,92.68-230.79l64.52-22.32,32.16,70.68Z"/><path class="cls-32" d="M1434.43,947.53s37.08,55.16,40.13,80.32c3.04,25.16-10.16,35.38-49.07,37.07-38.91,1.69-142.79,1.66-142.79,1.66l-88.66-75.77s64.61-23.05,81.41-29.57c16.8-6.52,158.98-13.71,158.98-13.71Z"/><path class="cls-58" d="M1125.99,1264.76s10.67,10.33,3.46,21.83c0,0-84.51,14.98-107.45,8.18,0,0,4.76-10.87,30.6-23.25l-1.91,1.46c-2.41,1.85-1,5.71,2.04,5.54,17.03-.97,52.26-4.09,73.26-13.76Z"/></g><path class="cls-27" d="M1334.14,940.23s-43.18-41.12-64.44-68.36c-11.49-14.72-15.1-34.1-9.78-52.01,9.7-32.7,26.95-66.56,28.53-71.83,2.41-8.08,50.83-7.74,50.83-7.74,0,0,95.28,61.84,132.72,166.59l-42.04,13.09s-24.88-41.74-49.46-68.27c0,0,42.53,56.19,44.03,79.19l-90.38,9.34Z"/><path class="cls-12" d="M1282.58,702.88c.51,1.68,13.14,43.58,14.13,44.45,.99,.87,27.72,2.31,40.3-6.29l-31.21-61.04-23.22,22.89Z"/><g><path class="cls-38" d="M1301.98,626.83s22.55,10.24,37.18,43.61c14.63,33.37,2.65,48.28-11.95,49.98-14.6,1.7-36.35,.81-58.79-21.09-22.45-21.9,4.22-84.7,33.56-72.49Z"/><path class="cls-53" d="M1284.35,682.14s-15.93-48.68,26.84-48.11l9.87,7.3s16.4-26.32-9.01-39.76c-25.41-13.45-55.82-3.7-67.69,30.69-11.88,34.39-14.36,57.56,3.42,74.64,17.79,17.08,25.8-1.54,25.8-1.54,0,0-9.51-15.78-5.25-23.98,4.26-8.2,13.32,2.07,13.32,2.07l2.71-1.31Z"/><path class="cls-7" d="M1279.41,687.38s-8.04-25.07-19.91-15.49c-11.87,9.58,8.82,23.19,16.95,27.64l2.96-12.15Z"/></g><path class="cls-66" d="M1246.16,943.28l31.73-30.58,43.89,18.54s43.69,6.77,68.7,0l25.01-6.77,56.51-17.59,8.87,25.08c2.25,6.37-.01,13.44-5.52,17.35-4.89,3.47-10.62,7.29-14.27,8.89-7.44,3.26-183.44-2.25-183.44-2.25l-31.47-12.67Z"/><g><g><path class="cls-44" d="M1587.89,1245.25s1.81,10.05,2.52,21.97c.3,5.08-3.46,9.5-8.53,9.99-17.64,1.71-57.8,4.87-83.45,1.17-3.59-.52-5.02-4.93-2.36-7.4,10.57-9.85,36.11-29.01,78.14-33.2l13.68,7.48Z"/><path class="cls-69" d="M1596.66,1222.6l-8.92,21.86c-1.22,3-4.26,4.86-7.48,4.52-2.18-.23-4.77-.65-7.29-1.41-5.03-1.53-7.87-6.86-6.37-11.9l6.73-22.52,23.32,9.45Z"/><path class="cls-68" d="M1749.17,1262.66s-17.86,14.95-24.82,34.12c-1.91,5.27,2.13,10.83,7.74,10.83h36.76c5.38,0,9.5-4.84,8.57-10.14-2.34-13.24-9.09-34.75-28.25-34.81Z"/><path class="cls-22" d="M1771.3,1243.21s-3.61,15.97-6.38,26.52c-.5,1.92-2.55,2.97-4.41,2.3-5.56-1.99-10.09-2.87-13.38-2.43-1.52,.2-2.85-1.06-2.87-2.6l-.35-26.52,27.39,2.72Z"/><path class="cls-31" d="M1676.3,883.86l-108.65,331.46s20.84,13.65,30.77,13.08l129.05-266.38s22.58,164.13,11.64,281.97l36.96,2.82s60.1-301.13,14.58-404.27l-114.35,41.32Z"/><path class="cls-25" d="M1726.77,959.15s.09,0,.13,0c.58-.07,.99-.6,.91-1.18l-4.22-33.47c-.07-.58-.59-.98-1.18-.91-.58,.07-.98,.6-.91,1.18l4.22,33.47c.07,.53,.52,.92,1.04,.92Z"/></g><path class="cls-2" d="M1655.93,592.19s88.03,7.82,75.57,70.54c0,0,48.66,91.57,71.41,199.44,.74,3.51-1.61,6.93-5.15,7.54l-146.59,25.1c-4.04,.69-7.94-1.83-8.97-5.8l-35.03-135.37-13.65,62.94-43.37-11.3,36.51-184.94s5.09-26.98,69.26-28.14Z"/><path class="cls-13" d="M1606.43,747.58c.08,0,.15,0,.23-.02,.59-.13,.96-.71,.83-1.3l-12.22-56.11c-.13-.59-.7-.96-1.3-.83-.59,.13-.96,.71-.83,1.3l12.22,56.11c.11,.51,.56,.86,1.07,.86Z"/><path class="cls-19" d="M1615.27,914.55c4.62-2.54,10.02-3.24,15.14-1.97l10.2,2.54c2.17,.54,4.32-.95,4.57-3.17l10.55-93.94c13.2,6.27,32.24,5.52,38.52,5.06l-24.29,110.75h-85.01l30.33-19.26Z"/><path class="cls-43" d="M1389.41,710.77l2.57-8.54c1.48-4.91,5.11-8.89,9.87-10.8l46.47-18.69s.7-5.96-9.82-10.01c-10.52-4.05-8.06-15.83-8.06-15.83,0,0,14.37,6.56,35.41,16.96,12.03,5.95,18.79,16.45,22.37,24.35l105.3,128.37-12.36,8.49c-16.26,11.17-38.62,5.68-47.86-11.74l-57.05-109.39c-28.64,8.6-57.62,10.25-86.85,6.84Z"/><g><path class="cls-45" d="M1627.41,532.31l27.07,75.77s-23.97,18.74-41.47,12.41l-13.64-43.44s10.42-53.09,28.04-44.74Z"/><g><path class="cls-11" d="M1584.46,479.34c-.72,1.03-22.8,81.01-22.8,81.01l45.94,11.63,32.18-72.7s-43.22-37.12-55.32-19.94Z"/><path class="cls-67" d="M1622.49,510.34l-13.94,39.6c-.18,.51-.42,.98-.73,1.42-1.89,2.7-9.09,11.49-17.64,3.58-7.76-7.18-14.95-13.62-21.58-14.78-2.98-.52-5.86,1.3-6.67,4.21-2,7.27-6.22,23.73-7.69,38.59-.3,3.01,1.78,5.74,4.76,6.3,8.97,1.7,27.99,4.75,43.87,3.61,2.15-.15,4.04-1.45,4.94-3.41,4.37-9.57,17.75-38.59,22.73-46.1,4.68-7.05,16.15-6.86,20.96-6.44,1.58,.14,3.13-.37,4.32-1.42,4.21-3.69,12.21-13.12,.93-24.39-2.36-2.36-2.3-6.17,.13-8.45,4.84-4.55,10.01-12.63,1.93-22.63-8.2-10.17-19.02-8.54-25.65-6.12-2.68,.98-5.6-.15-7.06-2.6-.83-1.4-2.28-2.45-4.79-2.23-3.38,.29-6.23-2.53-6.17-5.92,.11-6.52-2.23-14.75-13.54-18.26-20.07-6.23-32.56,13.16-33.79,27.63-1.23,14.46,20.91,19.98,33.93,18.99,9.9-.75,17.25,9.06,20.21,13.8,.94,1.5,1.13,3.35,.54,5.02Z"/><path class="cls-9" d="M1625.31,557.73s3.22-25.11,13.67-26.35c10.44-1.24,20.62,7.34,10.24,21.44-12.9,17.54-23.91,4.91-23.91,4.91Z"/><path class="cls-35" d="M1587.71,482.31s-.03,0-.04,0c-4.2-.3-7.87-2.29-10.08-5.44-2.13-3.05-2.74-6.97-1.66-10.77,1.87-6.58,6.79-13.04,13.14-17.29,.25-.17,.6-.1,.78,.16,.17,.26,.1,.6-.16,.78-6.14,4.1-10.88,10.33-12.69,16.66-1,3.52-.47,7.01,1.5,9.82,2.04,2.92,5.32,4.68,9.24,4.97,.31,.02,.54,.29,.52,.6-.02,.29-.27,.52-.56,.52Z"/></g></g><path class="cls-30" d="M1685.7,824.47c6.01,0,10.3-.46,10.76-.51l.78-.09,32.05-149.44c.13-.59-.25-1.17-.84-1.3-.6-.13-1.17,.25-1.3,.84l-31.72,147.89c-4.77,.42-30.24,2.11-43.69-7.42l27.77-129.84-5.8-10.92c-.28-.53-.94-.74-1.48-.45-.53,.28-.74,.94-.45,1.48l5.42,10.22-27.89,130.43,.56,.42c9.72,7.3,25.37,8.68,35.82,8.68Z"/></g><g><path class="cls-35" d="M654.47,1300.65c-.79,0-1.58-.17-2.35-.53-3.03-1.42-4.42-5.25-3.12-8.55l125.06-317.33c1.3-3.3,4.81-4.83,7.83-3.41,3.03,1.42,4.42,5.25,3.12,8.55l-125.06,317.33c-.97,2.46-3.17,3.94-5.48,3.94Z"/><path class="cls-35" d="M795.36,1300.65c-2.31,0-4.51-1.47-5.48-3.94l-125.06-317.33c-1.3-3.3,.1-7.13,3.12-8.55,3.02-1.42,6.53,.1,7.83,3.41l125.06,317.33c1.3,3.3-.1,7.13-3.12,8.55-.77,.36-1.57,.53-2.35,.53Z"/><path class="cls-35" d="M1503.25,1300.65c-.79,0-1.58-.17-2.35-.53-3.02-1.42-4.42-5.25-3.12-8.55l125.06-317.33c1.3-3.3,4.81-4.83,7.83-3.41,3.03,1.42,4.42,5.25,3.12,8.55l-125.06,317.33c-.97,2.46-3.17,3.94-5.48,3.94Z"/><path class="cls-35" d="M1644.14,1300.65c-2.31,0-4.51-1.47-5.48-3.94l-125.06-317.33c-1.3-3.3,.1-7.13,3.12-8.55,3.02-1.42,6.53,.1,7.83,3.41l125.06,317.33c1.3,3.3-.1,7.13-3.12,8.55-.77,.36-1.57,.53-2.35,.53Z"/></g><g><path class="cls-29" d="M1485.1,951.82h181.14v-18.69h-181.14c3.88,0,3.88,18.69,0,18.69Z"/><path class="cls-20" d="M1665.24,951.82c.55,0,1-.45,1-1v-16.69c0-.55-.45-1-1-1h-184.66c-.55,0-1-.45-1-1v-2.23c0-.55,.45-1,1-1h196.03c4.32,0,7.82,3.5,7.82,7.82v11.95c0,4.07-3.3,7.38-7.38,7.38h-196.48c-.55,0-1-.45-1-1v-2.23c0-.55,.45-1,1-1h184.66Z"/></g><path class="cls-35" d="M1692.5,964.42c.61-2.09-.22-4.24-2.26-5.88-2.04-1.64-5.08-2.59-8.28-2.59H596.6c-4.21,0-8.14,1.42-10.41,3.78-2.27,2.35-2.58,5.31-.81,7.85l11.76,16.89c2.69,3.87,8.53,6.34,14.95,6.34H1674.51c5.97,0,11.11-2.81,12.24-6.7l5.74-19.69Z"/><g><path class="cls-36" d="M1256.05,947.35c-.76,0-1.52-.02-2.29-.07l.59-9.61c6.97,.42,12.74-1.68,16.68-6.09,4.4-4.93,6.21-12.52,4.84-20.29-.43-2.41-1.48-6.57-3.75-7.29-3.45-1.09-10.74,3.72-14.67,7.62l-6.78-6.84c2.26-2.24,14.06-13.24,24.37-9.96,5.42,1.72,8.89,6.7,10.31,14.79,1.91,10.81-.69,21.16-7.14,28.38-5.43,6.08-13.23,9.36-22.16,9.36Z"/><path class="cls-37" d="M1255.7,890.6h-61.55c-1.08,0-2.84,1.14-2.84,2.22v46.72c0,9.27,8.39,15.93,17.67,15.93h31.89c9.27,0,15.31-6.65,15.31-15.93v-46.72c0-1.08,.6-2.22-.48-2.22Z"/></g><g><path class="cls-26" d="M984.97,947.35c.75,0,1.52-.02,2.29-.07l-.59-9.61c-6.97,.42-12.74-1.68-16.68-6.09-4.4-4.93-6.21-12.52-4.84-20.29,.43-2.41,1.48-6.57,3.75-7.29,3.45-1.09,10.74,3.72,14.67,7.62l6.78-6.84c-2.26-2.24-14.06-13.24-24.37-9.96-5.42,1.72-8.89,6.7-10.31,14.79-1.91,10.81,.69,21.16,7.14,28.38,5.43,6.08,13.23,9.36,22.16,9.36Z"/><path class="cls-42" d="M985.32,890.6h61.55c1.08,0,1.26,1.14,1.26,2.22v46.72c0,9.27-6.82,15.93-16.09,15.93h-31.89c-9.27,0-16.89-6.65-16.89-15.93v-46.72c0-1.08,.97-2.22,2.06-2.22Z"/></g><g><path class="cls-47" d="M1553.58,947.35c-.76,0-1.52-.02-2.29-.07l.59-9.61c6.97,.42,12.74-1.68,16.68-6.09,4.4-4.93,6.21-12.52,4.84-20.29-.43-2.41-1.48-6.57-3.75-7.29-3.45-1.09-10.74,3.72-14.67,7.62l-6.78-6.84c2.26-2.24,14.06-13.24,24.37-9.96,5.42,1.72,8.89,6.7,10.31,14.79,1.91,10.81-.69,21.16-7.14,28.38-5.43,6.08-13.23,9.36-22.16,9.36Z"/><path class="cls-49" d="M1553.23,890.6h-61.55c-1.08,0-2.84,1.14-2.84,2.22v46.72c0,9.27,8.39,15.93,17.67,15.93h31.89c9.27,0,15.31-6.65,15.31-15.93v-46.72c0-1.08,.6-2.22-.48-2.22Z"/></g><g class="cls-3"><path class="cls-29" d="M1212.52,691.56c-.22,0-.42-.14-.5-.35-.09-.27,.05-.57,.32-.67,24.24-8.43,36.2-23.77,33.68-43.2-2.65-20.43,10.21-23.79,10.34-23.82,.29-.07,.56,.1,.63,.38,.07,.28-.1,.56-.38,.63-.49,.12-12.07,3.21-9.55,22.67,2.59,19.97-9.62,35.71-34.38,44.32-.06,.02-.11,.03-.17,.03Z"/><path class="cls-29" d="M1161.74,843.9c-.09,0-.17-.02-.25-.07-27.77-15.42-44.12-34.07-48.61-55.41-5.86-27.87,11.11-50.63,11.28-50.85,.17-.23,.5-.27,.73-.1,.23,.18,.28,.5,.1,.73-.17,.22-16.85,22.63-11.08,50.02,4.43,21.03,20.61,39.43,48.09,54.7,.25,.14,.34,.46,.2,.71-.1,.17-.27,.27-.46,.27Z"/></g><g><path class="cls-4" d="M801.32,885.5c-.24,0-.48-.08-.69-.24-.39-.3-9.55-7.52-10.39-15.87-.33-3.25,.65-6.23,2.89-8.85,1.45-1.69,3.07-3.1,4.63-4.46,4.3-3.74,7.4-6.44,4.73-12.53-1-2.27-2.19-4.34-3.34-6.34-3.89-6.77-7.56-13.16,1.4-21.5,.45-.42,1.16-.4,1.58,.06,.42,.45,.4,1.16-.06,1.58-7.66,7.13-4.86,12-.98,18.75,1.18,2.05,2.4,4.18,3.45,6.56,3.34,7.6-1.06,11.42-5.31,15.12-1.5,1.31-3.05,2.66-4.4,4.22-1.83,2.14-2.63,4.55-2.37,7.17,.74,7.4,9.45,14.27,9.54,14.34,.49,.38,.57,1.08,.19,1.57-.22,.28-.55,.43-.88,.43Z"/><path class="cls-4" d="M816.98,885.5c-.24,0-.48-.08-.69-.24-.39-.3-9.55-7.52-10.39-15.87-.33-3.25,.65-6.23,2.89-8.85,1.45-1.69,3.07-3.1,4.63-4.46,4.3-3.74,7.4-6.44,4.73-12.53-1-2.27-2.19-4.34-3.34-6.34-3.89-6.77-7.56-13.16,1.4-21.5,.45-.42,1.16-.4,1.58,.06,.42,.45,.4,1.16-.06,1.58-7.66,7.13-4.86,12-.98,18.75,1.18,2.05,2.4,4.18,3.45,6.56,3.34,7.6-1.06,11.42-5.31,15.12-1.5,1.31-3.05,2.66-4.4,4.22-1.83,2.14-2.63,4.55-2.37,7.17,.74,7.4,9.45,14.27,9.54,14.34,.49,.38,.57,1.08,.19,1.57-.22,.28-.55,.43-.88,.43Z"/><path class="cls-4" d="M832.64,885.5c-.24,0-.48-.08-.69-.24-.39-.3-9.55-7.52-10.39-15.87-.33-3.25,.65-6.23,2.89-8.85,1.45-1.69,3.07-3.1,4.63-4.46,4.3-3.74,7.4-6.44,4.73-12.53-1-2.27-2.19-4.34-3.34-6.34-3.89-6.77-7.56-13.16,1.4-21.5,.45-.42,1.16-.4,1.58,.06,.42,.45,.4,1.16-.06,1.58-7.66,7.13-4.86,12-.98,18.75,1.18,2.05,2.4,4.18,3.45,6.56,3.34,7.6-1.06,11.42-5.31,15.12-1.5,1.31-3.05,2.66-4.4,4.22-1.83,2.14-2.63,4.55-2.37,7.17,.74,7.4,9.45,14.27,9.54,14.34,.49,.38,.57,1.08,.19,1.57-.22,.28-.55,.43-.88,.43Z"/></g><g><path class="cls-4" d="M1000.42,885.5c-.24,0-.48-.08-.69-.24-.39-.3-9.55-7.52-10.39-15.87-.33-3.25,.65-6.23,2.89-8.85,1.45-1.69,3.07-3.1,4.63-4.46,4.3-3.74,7.4-6.44,4.73-12.53-1-2.27-2.19-4.34-3.34-6.34-3.89-6.77-7.56-13.16,1.4-21.5,.45-.42,1.16-.4,1.58,.06,.42,.45,.4,1.16-.06,1.58-7.66,7.13-4.86,12-.98,18.75,1.18,2.05,2.4,4.18,3.45,6.56,3.34,7.6-1.06,11.42-5.31,15.12-1.5,1.31-3.05,2.66-4.4,4.22-1.83,2.14-2.63,4.55-2.37,7.17,.74,7.4,9.45,14.27,9.54,14.34,.49,.38,.57,1.08,.19,1.57-.22,.28-.55,.43-.88,.43Z"/><path class="cls-4" d="M1016.08,885.5c-.24,0-.48-.08-.69-.24-.39-.3-9.55-7.52-10.39-15.87-.33-3.25,.65-6.23,2.89-8.85,1.45-1.69,3.07-3.1,4.63-4.46,4.3-3.74,7.4-6.44,4.73-12.53-1-2.27-2.19-4.34-3.34-6.34-3.89-6.77-7.56-13.16,1.4-21.5,.45-.42,1.16-.4,1.58,.06,.42,.45,.4,1.16-.06,1.58-7.66,7.13-4.86,12-.98,18.75,1.18,2.05,2.4,4.18,3.45,6.56,3.34,7.6-1.06,11.42-5.31,15.12-1.5,1.31-3.05,2.66-4.4,4.22-1.83,2.14-2.63,4.55-2.37,7.17,.74,7.4,9.45,14.27,9.54,14.34,.49,.38,.57,1.08,.19,1.57-.22,.28-.55,.43-.88,.43Z"/><path class="cls-4" d="M1031.74,885.5c-.24,0-.48-.08-.69-.24-.39-.3-9.55-7.52-10.39-15.87-.33-3.25,.65-6.23,2.89-8.85,1.45-1.69,3.07-3.1,4.63-4.46,4.3-3.74,7.4-6.44,4.73-12.53-1-2.27-2.19-4.34-3.34-6.34-3.89-6.77-7.56-13.16,1.4-21.5,.45-.42,1.16-.4,1.58,.06,.42,.45,.4,1.16-.06,1.58-7.66,7.13-4.86,12-.98,18.75,1.18,2.05,2.4,4.18,3.45,6.56,3.34,7.6-1.06,11.42-5.31,15.12-1.5,1.31-3.05,2.66-4.4,4.22-1.83,2.14-2.63,4.55-2.37,7.17,.74,7.4,9.45,14.27,9.54,14.34,.49,.38,.57,1.08,.19,1.57-.22,.28-.55,.43-.88,.43Z"/></g><g><path class="cls-4" d="M1237.53,885.5c-.33,0-.66-.15-.88-.43-.38-.49-.29-1.19,.19-1.57,.09-.07,8.8-6.94,9.54-14.34,.26-2.62-.53-5.03-2.37-7.17-1.35-1.57-2.9-2.92-4.4-4.22-4.25-3.7-8.65-7.52-5.31-15.12,1.05-2.38,2.27-4.51,3.45-6.56,3.87-6.75,6.67-11.62-.98-18.75-.45-.42-.48-1.13-.06-1.58,.42-.45,1.13-.48,1.58-.06,8.96,8.34,5.28,14.73,1.4,21.5-1.15,2-2.34,4.07-3.34,6.35-2.68,6.09,.43,8.79,4.73,12.53,1.56,1.36,3.18,2.76,4.63,4.46,2.25,2.62,3.22,5.6,2.89,8.85-.84,8.35-10,15.57-10.39,15.87-.2,.16-.45,.24-.69,.24Z"/><path class="cls-4" d="M1221.87,885.5c-.33,0-.66-.15-.88-.43-.38-.49-.29-1.19,.19-1.57,.09-.07,8.8-6.94,9.54-14.34,.26-2.62-.53-5.03-2.37-7.17-1.35-1.57-2.9-2.92-4.4-4.22-4.25-3.7-8.65-7.52-5.31-15.12,1.05-2.38,2.27-4.51,3.45-6.56,3.87-6.75,6.67-11.62-.98-18.75-.45-.42-.48-1.13-.06-1.58,.42-.45,1.13-.48,1.58-.06,8.96,8.34,5.28,14.73,1.4,21.5-1.15,2-2.34,4.07-3.34,6.35-2.68,6.09,.43,8.79,4.73,12.53,1.56,1.36,3.18,2.76,4.63,4.46,2.25,2.62,3.22,5.6,2.89,8.85-.84,8.35-10,15.57-10.39,15.87-.2,.16-.45,.24-.69,.24Z"/><path class="cls-4" d="M1206.21,885.5c-.33,0-.66-.15-.88-.43-.38-.49-.29-1.19,.19-1.57,.09-.07,8.8-6.94,9.54-14.34,.26-2.62-.53-5.03-2.37-7.17-1.35-1.57-2.9-2.92-4.4-4.22-4.25-3.7-8.65-7.52-5.31-15.12,1.05-2.38,2.27-4.51,3.45-6.56,3.87-6.75,6.67-11.62-.98-18.75-.45-.42-.48-1.13-.06-1.58,.42-.45,1.13-.48,1.58-.06,8.96,8.34,5.28,14.73,1.4,21.5-1.15,2-2.34,4.07-3.34,6.35-2.68,6.09,.43,8.79,4.73,12.53,1.56,1.36,3.18,2.76,4.63,4.46,2.25,2.62,3.22,5.6,2.89,8.85-.84,8.35-10,15.57-10.39,15.87-.2,.16-.45,.24-.69,.24Z"/></g><g><path class="cls-4" d="M1535.06,885.5c-.33,0-.66-.15-.88-.43-.38-.49-.29-1.19,.19-1.57,.09-.07,8.8-6.94,9.54-14.34,.26-2.62-.53-5.03-2.37-7.17-1.35-1.57-2.9-2.92-4.4-4.22-4.25-3.7-8.65-7.52-5.31-15.12,1.05-2.38,2.27-4.51,3.45-6.56,3.87-6.75,6.67-11.62-.98-18.75-.45-.42-.48-1.13-.06-1.58,.42-.45,1.13-.48,1.58-.06,8.96,8.34,5.28,14.73,1.4,21.5-1.15,2-2.34,4.07-3.34,6.35-2.68,6.09,.43,8.79,4.73,12.53,1.56,1.36,3.18,2.76,4.63,4.46,2.25,2.62,3.22,5.6,2.89,8.85-.84,8.35-10,15.57-10.39,15.87-.2,.16-.45,.24-.69,.24Z"/><path class="cls-4" d="M1519.4,885.5c-.33,0-.66-.15-.88-.43-.38-.49-.29-1.19,.19-1.57,.09-.07,8.8-6.94,9.54-14.34,.26-2.62-.53-5.03-2.37-7.17-1.35-1.57-2.9-2.92-4.4-4.22-4.25-3.7-8.65-7.52-5.31-15.12,1.05-2.38,2.27-4.51,3.45-6.56,3.87-6.75,6.67-11.62-.98-18.75-.45-.42-.48-1.13-.06-1.58,.42-.45,1.13-.48,1.58-.06,8.96,8.34,5.28,14.73,1.4,21.5-1.15,2-2.34,4.07-3.34,6.35-2.68,6.09,.43,8.79,4.73,12.53,1.56,1.36,3.18,2.76,4.63,4.46,2.25,2.62,3.22,5.6,2.89,8.85-.84,8.35-10,15.57-10.39,15.87-.2,.16-.45,.24-.69,.24Z"/><path class="cls-4" d="M1503.74,885.5c-.33,0-.66-.15-.88-.43-.38-.49-.29-1.19,.19-1.57,.09-.07,8.8-6.94,9.54-14.34,.26-2.62-.53-5.03-2.37-7.17-1.35-1.57-2.9-2.92-4.4-4.22-4.25-3.7-8.65-7.52-5.31-15.12,1.05-2.38,2.27-4.51,3.45-6.56,3.87-6.75,6.67-11.62-.98-18.75-.45-.42-.48-1.13-.06-1.58,.42-.45,1.13-.48,1.58-.06,8.96,8.34,5.28,14.73,1.4,21.5-1.15,2-2.34,4.07-3.34,6.35-2.68,6.09,.43,8.79,4.73,12.53,1.56,1.36,3.18,2.76,4.63,4.46,2.25,2.62,3.22,5.6,2.89,8.85-.84,8.35-10,15.57-10.39,15.87-.2,.16-.45,.24-.69,.24Z"/></g><path class="cls-29" d="M1424.33,205.35c-68.64,5.67-144.42,45.56-155.15,119.52-9.12,62.89,56.01,99.6,96.73,117.38,11.36,4.96,20.49,13.9,25.71,25.14,12.5,26.89,42.07,74.05,91.8,61.24,3.62-.93,3.51-6.14-.14-6.97-11.61-2.62-27.47-8.63-35.67-22.4-11.18-18.75,1.12-42.79,22.78-45.51,40.98-5.14,121.67-27.42,137.47-122.6,21.37-128.73-183.53-125.81-183.53-125.81Z"/><path class="cls-5" d="M1308.12,279.86c-.96,0-1.93-.31-2.75-.95-1.95-1.52-2.29-4.33-.77-6.28,38-48.63,100.25-58.14,145.79-57.55,2.47,.03,4.45,2.06,4.42,4.53-.03,2.47-2.12,4.48-4.53,4.42-43.54-.57-102.88,8.36-138.62,54.11-.88,1.13-2.2,1.72-3.53,1.72Z"/><path class="cls-5" d="M1283.99,333.3c-.18,0-.35,0-.53-.03-2.45-.29-4.2-2.51-3.92-4.96,.04-.34,1.03-8.51,5.39-20.36,.85-2.32,3.42-3.51,5.74-2.65,2.32,.85,3.51,3.42,2.65,5.74-3.96,10.77-4.89,18.25-4.9,18.32-.27,2.27-2.2,3.94-4.44,3.94Z"/><rect class="cls-61" x="1345.66" y="275.41" width="223.71" height="11.19" rx="5.29" ry="5.29"/><path class="cls-61" d="M1553.71,391.49c0,2.78-.47,4.72-3.2,4.72h-199.27c-2.73,0-5.58-1.95-5.58-4.72v-.57c0-2.78,2.85-5.89,5.58-5.89h199.27c2.73,0,3.2,3.11,3.2,5.89v.57Z"/><path class="cls-61" d="M1571.61,320.74c0,3.17-2.01,3.89-5.23,3.89h-234.4c-3.21,0-6.45-.72-6.45-3.89v-.65c0-3.17,3.24-6.64,6.45-6.64h234.4c3.21,0,5.23,3.47,5.23,6.64v.65Z"/><path class="cls-61" d="M1571.61,354.29c0,3.17-2.01,3.89-5.23,3.89h-234.4c-3.21,0-6.45-.72-6.45-3.89v-.65c0-3.17,3.24-6.64,6.45-6.64h234.4c3.21,0,5.23,3.47,5.23,6.64v.65Z"/><g><path class="cls-4" d="M1883.72,1068.81l3.83-10.51c.26-.71,1.04-1.07,1.75-.82,.71,.26,1.07,1.04,.82,1.75h0l-3.94,10.49c-.25,.67-1,1.01-1.68,.76-.67-.25-1.01-.99-.77-1.66Z"/><path class="cls-4" d="M1892.59,1041.32l2.39-10.93c.18-.82,.99-1.34,1.81-1.16,.82,.18,1.34,.99,1.16,1.81v.02l-2.51,10.9c-.18,.79-.96,1.28-1.75,1.1-.78-.18-1.27-.95-1.1-1.73Z"/><path class="cls-4" d="M1897.15,1012.95l.15-11.18c.01-.93,.77-1.67,1.7-1.66,.93,.01,1.67,.77,1.66,1.7v.02l-.27,11.18c-.02,.89-.76,1.6-1.65,1.58-.89-.02-1.59-.75-1.58-1.64Z"/><path class="cls-4" d="M1895.16,984.47s-.69-2.71-1.38-5.42c-.84-2.57-1.67-5.14-1.67-5.14l-.04-.12c-.31-.96,.21-2,1.18-2.31,.96-.31,2,.21,2.31,1.18v.02s.87,2.75,1.73,5.51c.66,2.72,1.32,5.43,1.32,5.43,.23,.95-.35,1.91-1.3,2.14-.94,.23-1.9-.35-2.14-1.29Z"/><path class="cls-4" d="M1884.42,958.33s-1.59-2.3-3.18-4.6c-1.68-2.11-3.36-4.21-3.36-4.21l-.08-.1c-.69-.86-.54-2.11,.31-2.8,.86-.69,2.11-.55,2.8,.31v.02s1.79,2.28,3.57,4.57c1.57,2.32,3.13,4.63,3.13,4.63,.6,.88,.36,2.08-.52,2.68-.88,.59-2.07,.37-2.67-.5Z"/><path class="cls-4" d="M1865.36,937.46l-9.09-6.5c-.96-.69-1.19-2.03-.5-3,.69-.96,2.03-1.19,3-.5l.02,.02,9.02,6.6c.93,.68,1.13,1.99,.45,2.92-.68,.92-1.98,1.13-2.9,.46Z"/><path class="cls-4" d="M1841.02,922.57l-10.28-4.41c-1.17-.5-1.71-1.86-1.21-3.03,.5-1.17,1.86-1.71,3.03-1.21h.03l10.23,4.54c1.13,.5,1.65,1.83,1.15,2.96-.5,1.13-1.81,1.64-2.94,1.15Z"/><path class="cls-4" d="M1814.13,912.51l-10.8-2.9c-1.31-.35-2.09-1.7-1.74-3.02,.35-1.31,1.7-2.09,3.02-1.74h.03l10.77,3.03c1.28,.36,2.02,1.68,1.67,2.96-.36,1.27-1.67,2.01-2.94,1.67Z"/><path class="cls-4" d="M1786.06,905.95l-11.03-1.82c-1.43-.24-2.39-1.58-2.16-3.01,.24-1.43,1.58-2.39,3.01-2.16h.03l11.01,1.95c1.39,.25,2.32,1.57,2.08,2.97-.24,1.38-1.56,2.31-2.94,2.08Z"/><path class="cls-4" d="M1757.47,901.92l-11.13-1.03c-1.53-.14-2.65-1.49-2.51-3.02,.14-1.53,1.49-2.65,3.02-2.51h.03l11.12,1.15c1.49,.15,2.58,1.49,2.42,2.98-.15,1.48-1.47,2.56-2.95,2.43Z"/><path class="cls-4" d="M1728.62,899.77l-11.17-.45c-1.61-.06-2.86-1.42-2.8-3.03,.06-1.61,1.42-2.86,3.03-2.8h.02l11.17,.53c1.59,.07,2.81,1.42,2.74,3.01-.07,1.58-1.41,2.8-2.99,2.74Z"/><path class="cls-4" d="M1699.7,899l-11.18,.02c-1.66,0-3.01-1.34-3.01-3,0-1.66,1.34-3.01,3-3.01h.02l11.18,.05c1.64,0,2.96,1.34,2.96,2.98,0,1.63-1.33,2.95-2.96,2.96Z"/><path class="cls-4" d="M1670.72,899.38l-11.18,.4c-1.71,.06-3.14-1.27-3.2-2.98-.06-1.71,1.27-3.14,2.98-3.2h.02l11.18-.34c1.69-.05,3.1,1.28,3.15,2.96,.05,1.68-1.27,3.09-2.95,3.15Z"/><path class="cls-4" d="M1641.76,900.68l-11.17,.71c-1.75,.11-3.26-1.22-3.38-2.97-.11-1.75,1.22-3.26,2.97-3.38h.02l11.17-.65c1.73-.1,3.22,1.22,3.32,2.96,.1,1.73-1.22,3.21-2.94,3.32Z"/><path class="cls-4" d="M1612.82,902.75l-11.14,.97c-1.8,.16-3.38-1.17-3.54-2.97-.16-1.8,1.17-3.38,2.97-3.54h.02l11.15-.9c1.78-.14,3.34,1.18,3.48,2.96,.14,1.77-1.17,3.33-2.94,3.48Z"/><path class="cls-4" d="M1583.92,905.44l-11.12,1.18c-1.84,.2-3.5-1.14-3.69-2.98-.2-1.84,1.14-3.5,2.98-3.69h.02l11.13-1.11c1.83-.18,3.45,1.15,3.64,2.98,.18,1.82-1.14,3.44-2.96,3.63Z"/><path class="cls-4" d="M1555.06,908.64l-11.1,1.34c-1.89,.23-3.61-1.12-3.83-3.01-.23-1.89,1.12-3.61,3.01-3.83h.02l11.11-1.28c1.87-.21,3.56,1.13,3.78,3,.21,1.86-1.12,3.55-2.98,3.78Z"/><path class="cls-4" d="M1526.23,912.22l-11.09,1.45c-1.94,.25-3.71-1.11-3.96-3.05-.25-1.94,1.11-3.71,3.05-3.96h.02l11.1-1.39c1.92-.24,3.67,1.12,3.91,3.04,.24,1.91-1.11,3.65-3.02,3.9Z"/><path class="cls-4" d="M1497.4,916.03l-11.09,1.46c-1.98,.26-3.8-1.14-4.06-3.12-.26-1.98,1.14-3.8,3.12-4.06h.02l11.1-1.39c1.97-.25,3.76,1.15,4.01,3.12,.24,1.96-1.14,3.75-3.1,4Z"/><path class="cls-4" d="M1468.5,919.69l-11.11,1.29c-2.04,.24-3.88-1.22-4.11-3.26s1.22-3.88,3.26-4.11h.02l11.12-1.23c2.02-.22,3.83,1.23,4.06,3.25,.22,2.01-1.22,3.82-3.23,4.05Z"/><path class="cls-4" d="M1439.54,922.92l-11.13,1.12c-2.09,.21-3.95-1.31-4.16-3.4-.21-2.09,1.31-3.95,3.4-4.16h.02l11.13-1.06c2.07-.2,3.91,1.32,4.1,3.39,.2,2.06-1.31,3.89-3.37,4.1Z"/><path class="cls-4" d="M1410.54,925.72l-11.14,.96c-2.14,.18-4.02-1.4-4.21-3.54-.18-2.14,1.4-4.02,3.54-4.21h.02l11.15-.89c2.12-.17,3.98,1.41,4.15,3.53,.17,2.11-1.4,3.96-3.51,4.15Z"/><path class="cls-4" d="M1381.49,928.08l-11.16,.8c-2.19,.16-4.09-1.49-4.25-3.68-.16-2.19,1.49-4.09,3.68-4.25h.02l11.16-.73c2.17-.14,4.05,1.5,4.19,3.68,.14,2.16-1.49,4.03-3.65,4.19Z"/><path class="cls-4" d="M1352.42,929.99l-11.17,.61c-2.21,.12-4.1-1.57-4.22-3.78s1.57-4.1,3.78-4.22h0l11.17-.59c2.2-.12,4.08,1.58,4.2,3.78,.12,2.2-1.57,4.08-3.77,4.2Z"/><path class="cls-4" d="M1323.32,931.45l-11.17,.45c-2.23,.09-4.11-1.64-4.2-3.87-.09-2.23,1.64-4.11,3.87-4.2h0l11.17-.43c2.22-.09,4.09,1.65,4.18,3.87,.09,2.22-1.64,4.09-3.86,4.18Z"/><path class="cls-4" d="M1294.21,932.5l-11.19,.29c-2.24,.06-4.11-1.71-4.17-3.96-.06-2.24,1.71-4.11,3.96-4.17h0l11.19-.27c2.24-.05,4.1,1.72,4.15,3.96,.05,2.24-1.71,4.1-3.95,4.15Z"/><path class="cls-4" d="M1265.07,933.13l-11.18,.14c-2.26,.03-4.12-1.78-4.14-4.04-.03-2.26,1.78-4.12,4.04-4.14h0l11.18-.11c2.26-.02,4.1,1.79,4.12,4.04,.02,2.25-1.78,4.1-4.03,4.12Z"/><path class="cls-4" d="M1235.93,933.36l-11.19-.02c-2.28,0-4.12-1.85-4.12-4.13,0-2.28,1.85-4.12,4.13-4.12h0l11.19,.04c2.27,0,4.11,1.86,4.1,4.13,0,2.27-1.85,4.11-4.12,4.1Z"/><path class="cls-4" d="M1206.79,933.18l-11.18-.17c-2.29-.04-4.12-1.92-4.09-4.22,.04-2.29,1.92-4.12,4.22-4.09h0l11.18,.2c2.29,.04,4.11,1.93,4.07,4.21-.04,2.29-1.92,4.11-4.21,4.07Z"/><path class="cls-4" d="M1177.66,932.6l-11.18-.33c-2.31-.07-4.13-1.99-4.06-4.3,.07-2.31,1.99-4.13,4.3-4.06h0l11.18,.35c2.3,.07,4.11,2,4.04,4.3-.07,2.3-1.99,4.11-4.29,4.04Z"/><path class="cls-4" d="M1148.54,931.63l-11.17-.48c-2.32-.1-4.13-2.06-4.03-4.39,.1-2.32,2.07-4.13,4.39-4.03h0l11.17,.5c2.32,.1,4.11,2.07,4.01,4.39-.1,2.32-2.06,4.11-4.38,4.01Z"/><path class="cls-4" d="M1119.43,930.25l-11.17-.63c-2.34-.13-4.13-2.14-3.99-4.47,.13-2.34,2.14-4.13,4.47-3.99h0l11.17,.66c2.33,.14,4.11,2.14,3.97,4.47-.14,2.33-2.13,4.11-4.46,3.97Z"/><path class="cls-4" d="M1090.34,928.48l-11.16-.78c-2.35-.17-4.13-2.21-3.96-4.56,.17-2.35,2.21-4.13,4.56-3.96h0l11.16,.81c2.35,.17,4.11,2.21,3.94,4.56-.17,2.35-2.2,4.11-4.55,3.94Z"/><path class="cls-4" d="M1061.29,926.31l-11.15-.94c-2.37-.2-4.12-2.28-3.92-4.64,.2-2.37,2.28-4.12,4.64-3.92h0l11.14,.96c2.36,.2,4.11,2.28,3.91,4.64-.2,2.36-2.27,4.11-4.63,3.91Z"/><path class="cls-4" d="M1032.26,923.75l-11.13-1.09c-2.38-.23-4.12-2.35-3.89-4.73,.23-2.38,2.35-4.12,4.73-3.89h0l11.13,1.11c2.37,.24,4.1,2.35,3.87,4.72-.24,2.37-2.34,4.11-4.72,3.87Z"/><path class="cls-4" d="M1003.27,920.8l-11.12-1.24c-2.39-.27-4.12-2.42-3.85-4.81,.27-2.39,2.42-4.12,4.81-3.85h0l11.11,1.26c2.39,.27,4.1,2.42,3.83,4.81-.27,2.39-2.41,4.1-4.8,3.83Z"/><path class="cls-4" d="M974.32,917.46l-11.1-1.39c-2.4-.3-4.11-2.49-3.81-4.9,.3-2.4,2.49-4.11,4.9-3.81h0l11.1,1.41c2.4,.3,4.09,2.5,3.79,4.89-.3,2.4-2.49,4.1-4.88,3.79Z"/><path class="cls-4" d="M945.42,913.73l-11.08-1.54c-2.42-.34-4.1-2.57-3.77-4.98,.34-2.42,2.57-4.1,4.98-3.77h0l11.08,1.56c2.41,.34,4.09,2.57,3.75,4.98-.34,2.41-2.56,4.09-4.97,3.75Z"/><path class="cls-4" d="M916.57,909.6l-11.06-1.69c-2.43-.37-4.09-2.64-3.72-5.07,.37-2.43,2.64-4.09,5.07-3.72h0l11.05,1.71c2.42,.37,4.08,2.64,3.7,5.06-.37,2.42-2.63,4.08-5.05,3.71Z"/><path class="cls-4" d="M887.78,905.08l-11.03-1.84c-2.44-.41-4.08-2.71-3.68-5.15,.41-2.44,2.71-4.08,5.15-3.68h0l11.03,1.86c2.43,.41,4.07,2.71,3.66,5.14-.41,2.43-2.71,4.07-5.14,3.66Z"/><path class="cls-4" d="M859.06,900.14l-11-2.01c-2.41-.44-4.01-2.76-3.57-5.17,.44-2.41,2.75-4.02,5.16-3.57l11.01,1.99c2.42,.44,4.03,2.76,3.59,5.18-.44,2.42-2.76,4.03-5.18,3.59h0Z"/><path class="cls-4" d="M830.41,894.77l-10.97-2.16c-2.39-.47-3.95-2.79-3.48-5.19,.47-2.39,2.79-3.95,5.18-3.48l10.98,2.14c2.4,.47,3.97,2.79,3.5,5.19-.47,2.4-2.79,3.97-5.19,3.5h0Z"/><path class="cls-4" d="M801.85,889.01l-10.94-2.32c-2.37-.5-3.89-2.83-3.38-5.2,.5-2.37,2.82-3.89,5.19-3.39l10.95,2.3c2.38,.5,3.9,2.83,3.4,5.21-.5,2.38-2.83,3.9-5.21,3.4h0Z"/><path class="cls-4" d="M773.36,882.85l-10.91-2.47c-2.35-.53-3.82-2.87-3.29-5.21,.53-2.35,2.86-3.82,5.21-3.29l10.92,2.45c2.36,.53,3.84,2.87,3.31,5.22-.53,2.35-2.87,3.84-5.22,3.31h0Z"/><path class="cls-4" d="M744.98,876.29l-10.88-2.59c-2.33-.55-3.76-2.89-3.21-5.21,.55-2.33,2.88-3.77,5.21-3.21l10.89,2.56c2.33,.55,3.78,2.89,3.23,5.22-.55,2.33-2.89,3.78-5.22,3.23h0Z"/><path class="cls-4" d="M716.67,869.51l-10.86-2.66c-2.31-.57-3.72-2.89-3.16-5.2,.57-2.31,2.89-3.72,5.19-3.16l10.87,2.64c2.31,.56,3.74,2.89,3.17,5.21-.56,2.31-2.89,3.74-5.21,3.17h0Z"/><path class="cls-4" d="M688.4,862.51l-10.84-2.76c-2.29-.58-3.67-2.91-3.09-5.19,.58-2.29,2.9-3.67,5.19-3.09l10.85,2.73c2.29,.58,3.69,2.91,3.11,5.2s-2.91,3.69-5.2,3.11h0Z"/><path class="cls-4" d="M660.2,855.24l-10.82-2.87c-2.27-.6-3.61-2.93-3.01-5.19,.6-2.27,2.92-3.62,5.18-3.01l10.82,2.85c2.27,.6,3.63,2.93,3.03,5.2-.6,2.27-2.93,3.63-5.2,3.03h0Z"/><path class="cls-4" d="M632.06,847.65l-10.77-3.01c-2.24-.63-3.55-2.95-2.93-5.19,.63-2.24,2.94-3.56,5.19-2.93l10.78,2.99c2.25,.62,3.57,2.95,2.94,5.2-.62,2.25-2.95,3.57-5.2,2.94h0Z"/><path class="cls-4" d="M604.03,839.69l-10.73-3.17c-2.22-.65-3.49-2.98-2.83-5.2,.65-2.22,2.98-3.49,5.19-2.83l10.73,3.14c2.23,.65,3.5,2.98,2.85,5.21-.65,2.23-2.98,3.5-5.21,2.85h0Z"/><path class="cls-4" d="M576.11,831.3l-10.67-3.34c-2.19-.69-3.41-3.02-2.73-5.21,.69-2.19,3.01-3.41,5.2-2.73l10.68,3.32c2.2,.68,3.43,3.02,2.74,5.22-.68,2.2-3.02,3.43-5.22,2.74h0Z"/><path class="cls-4" d="M548.34,822.43l-10.61-3.54c-2.16-.72-3.33-3.06-2.61-5.23,.72-2.16,3.05-3.33,5.22-2.61l10.62,3.52c2.17,.72,3.35,3.06,2.63,5.23-.72,2.17-3.06,3.35-5.23,2.63h0Z"/><path class="cls-4" d="M520.73,813.03l-10.53-3.76c-2.13-.76-3.25-3.11-2.48-5.24,.76-2.13,3.1-3.25,5.23-2.49l10.54,3.74c2.14,.76,3.26,3.11,2.5,5.25-.76,2.14-3.11,3.26-5.25,2.5h0Z"/><path class="cls-4" d="M493.32,803.03l-10.45-4c-2.1-.8-3.15-3.16-2.35-5.26,.8-2.1,3.15-3.15,5.25-2.35l10.45,3.98c2.11,.8,3.17,3.16,2.36,5.27s-3.16,3.17-5.27,2.36h0Z"/><path class="cls-4" d="M466.14,792.39l-10.34-4.26c-2.07-.85-3.05-3.21-2.2-5.28,.85-2.07,3.21-3.05,5.27-2.2l10.35,4.24c2.07,.85,3.07,3.22,2.22,5.29-.85,2.07-3.22,3.06-5.29,2.22h0Z"/><path class="cls-4" d="M439.24,781.05l-10.22-4.54c-2.03-.9-2.94-3.27-2.04-5.3,.9-2.03,3.27-2.94,5.29-2.04l10.23,4.52c2.03,.9,2.96,3.28,2.06,5.31-.9,2.03-3.28,2.96-5.31,2.06h0Z"/><path class="cls-4" d="M412.66,768.97l-10.09-4.84c-1.99-.95-2.82-3.33-1.87-5.32,.95-1.99,3.33-2.83,5.31-1.87l10.1,4.82c1.99,.95,2.84,3.34,1.89,5.33-.95,1.99-3.34,2.84-5.33,1.89h0Z"/><path class="cls-4" d="M386.45,756.06l-9.92-5.18c-1.92-1-2.66-3.37-1.66-5.29,1-1.91,3.35-2.66,5.27-1.67l9.95,5.12c1.94,1,2.71,3.38,1.71,5.32-1,1.94-3.38,2.71-5.32,1.71h-.02Z"/><path class="cls-4" d="M360.69,742.28l-9.74-5.51c-1.84-1.04-2.49-3.38-1.45-5.22,1.04-1.84,3.37-2.49,5.2-1.46l9.77,5.45c1.87,1.04,2.53,3.4,1.49,5.26-1.04,1.87-3.4,2.53-5.26,1.49h-.02Z"/><path class="cls-4" d="M335.38,727.42l-9.33-6.17c-1.73-1.14-2.2-3.47-1.06-5.19,1.14-1.72,3.45-2.19,5.18-1.07l9.37,6.12c1.75,1.14,2.24,3.48,1.1,5.23-1.14,1.75-3.48,2.24-5.23,1.1h-.02Z"/><path class="cls-4" d="M311.32,710.38l-8.6-7.15c-1.55-1.29-1.77-3.6-.47-5.16,1.29-1.55,3.59-1.76,5.14-.48l8.64,7.1c1.58,1.3,1.8,3.62,.51,5.2-1.3,1.58-3.62,1.8-5.2,.51l-.02-.02Z"/><path class="cls-4" d="M289.39,690.52l-7.49-8.31c-1.32-1.47-1.21-3.73,.26-5.05,1.46-1.32,3.71-1.2,5.04,.25l7.54,8.26c1.34,1.47,1.24,3.75-.23,5.1-1.47,1.34-3.75,1.24-5.1-.23l-.02-.02Z"/><path class="cls-4" d="M270.72,667.41l-5.84-9.54c-1.01-1.64-.49-3.79,1.15-4.8,1.64-1,3.78-.49,4.79,1.14l5.9,9.5c1.03,1.65,.52,3.82-1.14,4.85-1.65,1.03-3.82,.52-4.85-1.13v-.02Z"/><path class="cls-4" d="M256.91,641.01l-3.59-10.59c-.6-1.78,.35-3.71,2.13-4.32,1.77-.6,3.7,.34,4.31,2.11l3.66,10.57c.62,1.79-.33,3.75-2.12,4.37-1.79,.62-3.75-.33-4.37-2.12v-.02Z"/><path class="cls-4" d="M249.44,612.15l-1.01-11.13c-.17-1.82,1.18-3.44,3-3.6,1.82-.17,3.43,1.17,3.6,2.98l1.08,11.13c.18,1.84-1.17,3.48-3.01,3.66-1.84,.18-3.48-1.17-3.66-3.01v-.02Z"/><path class="cls-4" d="M248.82,582.43l1.4-11.09c.22-1.77,1.84-3.03,3.61-2.8,1.76,.22,3.01,1.83,2.81,3.59l-1.33,11.1c-.21,1.79-1.84,3.07-3.63,2.85-1.79-.21-3.07-1.84-2.85-3.63v-.02Z"/><path class="cls-4" d="M254.22,553.33l3.33-10.68c.52-1.66,2.28-2.58,3.93-2.07,1.65,.51,2.58,2.27,2.07,3.92l-3.27,10.7c-.51,1.68-2.28,2.62-3.96,2.11-1.68-.51-2.63-2.28-2.11-3.96v-.02Z"/><path class="cls-4" d="M264.25,525.6l4.76-10.12c.72-1.53,2.54-2.19,4.07-1.47,1.52,.71,2.18,2.53,1.48,4.05l-4.7,10.15c-.72,1.55-2.55,2.23-4.1,1.51-1.55-.72-2.23-2.55-1.51-4.1v-.02Z"/><path class="cls-4" d="M277.67,499.45l5.8-9.55c.85-1.4,2.68-1.85,4.08-1,1.4,.85,1.85,2.66,1.01,4.07l-5.74,9.59c-.85,1.42-2.7,1.89-4.12,1.04-1.42-.85-1.89-2.7-1.04-4.12v-.02Z"/><path class="cls-4" d="M293.54,474.81l6.58-9.05c.94-1.29,2.74-1.57,4.02-.64,1.28,.93,1.57,2.72,.65,4.01l-6.52,9.09c-.94,1.31-2.76,1.61-4.07,.67-1.31-.94-1.61-2.76-.67-4.07v-.02Z"/><path class="cls-4" d="M311.28,451.54l7.18-8.57c.97-1.15,2.69-1.31,3.84-.34,1.15,.96,1.3,2.67,.36,3.82l-7.09,8.65c-.98,1.19-2.73,1.36-3.92,.39-1.19-.98-1.36-2.73-.39-3.92l.02-.02Z"/><path class="cls-4" d="M330.44,429.48l7.64-8.16c.97-1.04,2.6-1.09,3.64-.12,1.03,.97,1.09,2.58,.14,3.62l-7.56,8.24c-.98,1.07-2.65,1.14-3.72,.16-1.07-.98-1.14-2.65-.16-3.72l.02-.02Z"/><path class="cls-4" d="M350.71,408.47l8.02-7.8c.96-.93,2.49-.91,3.42,.05,.93,.95,.91,2.47-.03,3.41l-7.93,7.88c-.97,.97-2.54,.96-3.51-.01-.97-.97-.96-2.54,.01-3.51l.02-.02Z"/><path class="cls-4" d="M371.89,388.4l8.33-7.47c.93-.84,2.37-.76,3.2,.17,.83,.93,.76,2.35-.16,3.19l-8.25,7.56c-.95,.87-2.42,.8-3.29-.14-.87-.95-.8-2.42,.14-3.29l.02-.02Z"/><path class="cls-4" d="M393.82,369.18l8.59-7.17c.9-.75,2.23-.63,2.98,.27,.74,.89,.63,2.21-.25,2.96l-8.52,7.26c-.91,.78-2.28,.67-3.06-.24-.78-.91-.67-2.28,.24-3.06h.02Z"/><path class="cls-4" d="M416.41,350.73l8.83-6.88c.85-.67,2.09-.51,2.75,.34,.66,.85,.51,2.07-.32,2.74l-8.75,6.97c-.87,.7-2.14,.55-2.84-.32-.7-.87-.55-2.14,.32-2.84h.02Z"/><path class="cls-4" d="M439.56,333.03l9.03-6.61c.81-.59,1.94-.41,2.52,.39,.59,.8,.42,1.92-.38,2.51l-8.96,6.7c-.83,.62-1.99,.45-2.61-.38-.62-.83-.45-1.99,.38-2.61h.02Z"/><path class="cls-4" d="M463.24,316.04l9.23-6.34c.75-.52,1.78-.33,2.3,.43,.51,.75,.33,1.77-.41,2.29l-9.16,6.44c-.77,.54-1.84,.36-2.38-.42-.54-.77-.36-1.84,.42-2.38h.01Z"/><path class="cls-4" d="M487.41,299.77l9.42-6.06c.7-.45,1.62-.25,2.07,.45,.44,.69,.25,1.61-.44,2.06l-9.35,6.15c-.72,.47-1.69,.27-2.16-.45-.47-.72-.27-1.69,.45-2.16h.01Z"/><path class="cls-4" d="M512.08,284.25l9.61-5.74c.64-.38,1.46-.17,1.85,.47,.38,.63,.17,1.45-.45,1.84l-9.55,5.84c-.66,.4-1.53,.2-1.93-.47-.4-.66-.2-1.53,.47-1.93h.01Z"/></g><g><polygon class="cls-35" points="561.73 223.72 566.47 258.54 588.02 240.36 561.73 223.72"/><path class="cls-29" d="M715.58,182.43l-82.8,95.27c-1.59,1.82-3.84,2.92-6.26,3.05-2.41,.12-4.77-.74-6.54-2.39l-92.52-86.73c-1.06-.99-1.41-2.53-.89-3.88,.52-1.35,1.82-2.26,3.27-2.28l185.73-3.02Z"/><polygon class="cls-35" points="561.75 223.72 715.58 182.43 576.63 237.77 577.54 247.48 561.75 223.72"/><polygon class="cls-35" points="585.52 246.03 566.47 258.54 576.63 237.77 585.52 246.03"/></g></g></g></svg>