<?xml version="1.0" encoding="UTF-8"?><svg id="Camada_2" xmlns="http://www.w3.org/2000/svg" viewBox="0 0 218.99 58.36"><defs><style>.cls-1{fill:none;stroke:#fff;stroke-linecap:round;stroke-linejoin:round;stroke-width:.85px;}.cls-2{fill:#fff;}</style></defs><g id="Camada_1-2"><g><g><path class="cls-2" d="M80.57,12.27l-.05,.28c-.03,.12-.07,.2-.13,.23-.06,.03-.13,.05-.22,.05h-.14c-.2-.02-.46-.04-.78-.07-.31-.03-.65-.06-1.01-.07s-.74-.03-1.13-.05c-.39-.02-.77-.02-1.13-.02-.69,0-1.35,.11-1.97,.33-.62,.22-1.18,.58-1.68,1.07-.5,.5-.94,1.15-1.32,1.96-.38,.81-.67,1.81-.87,2.99l-.54,3.12c-.14,.85-.21,1.59-.21,2.22,0,.77,.09,1.42,.28,1.95,.19,.53,.45,.95,.79,1.28,.34,.32,.74,.56,1.2,.7s.98,.21,1.54,.21c.36,0,.74,0,1.13-.02s.77-.03,1.14-.05c.37-.02,.71-.04,1.04-.06s.59-.05,.81-.08h.14c.17,0,.26,.06,.26,.19v.09l-.05,.28c-.03,.12-.1,.21-.2,.28s-.21,.1-.32,.11c-.31,.03-.81,.08-1.48,.14-.68,.06-1.56,.09-2.64,.09-.61,0-1.2-.09-1.77-.27-.56-.18-1.06-.47-1.5-.87-.43-.4-.78-.93-1.04-1.59-.26-.66-.39-1.46-.39-2.4,0-.66,.07-1.39,.21-2.19l.54-3.11c.25-1.43,.61-2.62,1.07-3.56,.46-.94,1.01-1.69,1.64-2.25,.63-.56,1.31-.95,2.05-1.18,.74-.23,1.51-.34,2.31-.34,1.08,0,1.95,.03,2.59,.09,.64,.06,1.12,.11,1.44,.14,.09,.02,.18,.05,.26,.1,.08,.05,.12,.13,.12,.24v.05Z"/><path class="cls-2" d="M84.45,12.22l-2.94,16.61c-.03,.13-.09,.23-.16,.32-.08,.09-.18,.13-.31,.13h-.24c-.11,0-.19-.04-.25-.11-.06-.07-.08-.15-.08-.25v-.09l2.94-16.61c.03-.13,.09-.23,.17-.32,.08-.09,.18-.13,.31-.13h.24c.11,0,.19,.04,.25,.11s.08,.15,.08,.25v.09Z"/><path class="cls-2" d="M88.08,16.62c.25,0,.35,.15,.31,.45l-2.07,11.76c-.03,.13-.08,.23-.14,.32-.06,.09-.19,.13-.38,.13h-.14c-.3,0-.42-.15-.38-.45l2.07-11.76c.03-.12,.07-.23,.13-.32,.06-.09,.17-.13,.34-.13h.26Zm.21-2.33c-.17,0-.29-.04-.34-.12-.06-.08-.07-.19-.04-.33l.33-1.74c.03-.19,.09-.31,.19-.37,.09-.05,.2-.08,.33-.08h.14c.33,0,.46,.15,.38,.45l-.33,1.74c-.03,.17-.09,.29-.19,.35-.09,.06-.2,.09-.33,.09h-.14Z"/><path class="cls-2" d="M100.47,17.23s0,.06-.01,.08c0,.02-.01,.05-.01,.08l-2.83,16.02c-.03,.12-.09,.23-.16,.32-.08,.09-.18,.13-.31,.13h-.24c-.22,0-.33-.13-.33-.38v-.07l.78-4.36c-1.04,.24-2.03,.35-2.97,.35-.6,0-1.15-.07-1.66-.2-.51-.13-.95-.35-1.32-.65-.37-.3-.66-.69-.87-1.19s-.32-1.11-.32-1.85c0-.27,.01-.54,.04-.84,.02-.29,.07-.59,.13-.91l.28-1.55c.35-1.87,.97-3.29,1.88-4.26s2.14-1.46,3.68-1.46c.67,0,1.37,.05,2.1,.14,.72,.09,1.33,.2,1.84,.31,.2,.05,.31,.14,.31,.28Zm-1.13,.5c-.41-.08-.89-.15-1.44-.21-.55-.06-1.11-.09-1.67-.09-1.32,0-2.33,.41-3.04,1.24-.71,.83-1.2,2.01-1.48,3.57l-.28,1.55c-.06,.31-.11,.61-.13,.88s-.04,.53-.04,.77c0,.6,.08,1.09,.24,1.48,.16,.39,.37,.71,.65,.94,.27,.24,.6,.4,.99,.51,.38,.1,.8,.15,1.26,.15,.91,0,1.95-.12,3.11-.35l1.84-10.44Z"/><path class="cls-2" d="M112.82,17.07l-2.1,11.76c-.03,.13-.09,.24-.19,.33-.09,.09-.2,.14-.33,.14h-.19c-.2,0-.31-.12-.31-.38v-.09l.05-.38c-.66,.3-1.3,.54-1.93,.72-.63,.18-1.25,.27-1.86,.27-.5,0-.97-.06-1.41-.19-.44-.13-.82-.33-1.15-.6-.33-.27-.59-.62-.78-1.05s-.28-.94-.28-1.55c0-.17,0-.35,.02-.53,.02-.18,.04-.38,.07-.6l1.41-7.84c.03-.12,.09-.23,.19-.32,.09-.09,.2-.13,.33-.13h.16c.24,0,.35,.13,.35,.38v.07l-1.41,7.84c-.03,.2-.06,.4-.07,.59s-.02,.37-.02,.54c0,.93,.25,1.57,.75,1.93,.5,.36,1.13,.54,1.88,.54,.6,0,1.24-.09,1.92-.28s1.35-.42,1.99-.71l1.86-10.46c.03-.12,.09-.23,.19-.32,.09-.09,.2-.13,.33-.13h.14c.25,0,.38,.13,.38,.38v.07Z"/><path class="cls-2" d="M124.48,20.51c0,.5-.05,1.04-.14,1.6l-.12,.64c-.03,.13-.1,.23-.21,.32-.11,.09-.23,.13-.35,.13h-7.94l-.07,.49c-.03,.28-.06,.55-.09,.81-.03,.26-.05,.5-.05,.71,0,.64,.08,1.17,.25,1.58,.17,.41,.4,.74,.71,.99,.31,.24,.68,.41,1.11,.52,.43,.1,.92,.15,1.47,.15,.52,0,1.1-.03,1.73-.09,.64-.06,1.25-.16,1.85-.28,.05-.02,.12-.02,.21-.02,.19,0,.28,.06,.28,.19,0,.08,0,.13-.02,.16l-.05,.17c-.05,.18-.11,.29-.18,.33-.07,.04-.19,.08-.37,.11-.6,.13-1.21,.23-1.85,.3-.64,.07-1.22,.11-1.75,.11-.64,0-1.24-.08-1.78-.24-.54-.16-1.01-.4-1.41-.73-.4-.33-.7-.76-.92-1.28-.22-.53-.33-1.16-.33-1.9,0-.24,0-.49,.02-.77,.02-.27,.05-.55,.09-.81l.26-1.55c.31-1.85,.96-3.25,1.94-4.21,.98-.95,2.25-1.43,3.83-1.43,.68,0,1.26,.1,1.75,.29,.49,.2,.89,.47,1.2,.82s.55,.78,.7,1.27c.15,.49,.22,1.03,.22,1.61Zm-1.04-.06c0-.98-.23-1.74-.68-2.25s-1.22-.77-2.31-.77c-.66,0-1.24,.11-1.73,.33s-.93,.53-1.3,.94c-.37,.41-.68,.9-.93,1.48-.25,.58-.45,1.23-.59,1.95l-.02,.12h7.37l.02-.14c.05-.31,.09-.6,.12-.87,.03-.27,.05-.52,.05-.77Z"/><path class="cls-2" d="M141.58,19.87c0,.31-.04,.69-.12,1.13l-1.37,7.82c-.03,.13-.09,.23-.19,.32-.09,.09-.2,.13-.33,.13h-.16c-.24,0-.35-.13-.35-.38v-.07l1.39-7.82c.03-.19,.05-.37,.07-.54s.02-.35,.02-.52c0-.93-.25-1.58-.75-1.96-.5-.38-1.13-.57-1.88-.57-.6,0-1.24,.09-1.92,.27-.68,.18-1.35,.41-1.99,.7l-1.84,10.44c-.03,.13-.09,.23-.19,.32-.09,.09-.2,.13-.33,.13h-.14c-.25,0-.38-.13-.38-.38v-.07l2.07-11.73c.03-.12,.09-.24,.19-.33,.09-.09,.2-.14,.33-.14h.19c.11,0,.19,.04,.25,.11,.05,.07,.08,.15,.08,.25v.12l-.07,.38c.66-.3,1.3-.53,1.93-.71,.63-.17,1.25-.26,1.86-.26,.49,0,.95,.06,1.4,.19,.45,.13,.83,.32,1.16,.59,.33,.27,.58,.61,.78,1.04,.19,.42,.29,.94,.29,1.55Z"/><path class="cls-2" d="M154.09,20.58c0,.47-.05,.99-.14,1.55l-.28,1.65c-.31,1.81-.94,3.2-1.89,4.17-.94,.97-2.27,1.46-3.97,1.46-1.34,0-2.34-.37-3.01-1.1-.67-.73-1-1.74-1-3.03,0-.46,.05-.96,.14-1.51l.28-1.65c.31-1.85,.96-3.25,1.92-4.21,.97-.95,2.29-1.43,3.96-1.43,1.35,0,2.36,.36,3.01,1.08,.65,.72,.98,1.72,.98,2.99Zm-1.04-.07c0-.99-.24-1.75-.72-2.29-.48-.53-1.28-.8-2.41-.8-1.33,0-2.38,.43-3.14,1.3-.76,.86-1.26,2-1.52,3.42l-.28,1.65c-.05,.3-.09,.58-.12,.85-.03,.27-.05,.53-.05,.78,0,.99,.24,1.75,.73,2.29s1.29,.8,2.42,.8c.67,0,1.27-.11,1.8-.34s.97-.54,1.35-.95c.38-.41,.69-.9,.93-1.48,.24-.58,.43-1.22,.55-1.93l.28-1.65c.05-.3,.09-.58,.12-.85,.03-.27,.05-.53,.05-.78Z"/><path class="cls-2" d="M171.05,20.53c0,.27-.01,.54-.04,.83-.02,.28-.07,.57-.13,.87l-.28,1.55c-.36,1.95-.99,3.37-1.9,4.28-.9,.9-2.14,1.35-3.71,1.35-.24,0-.49,0-.77-.02-.27-.02-.56-.04-.85-.08s-.57-.08-.85-.13c-.28-.05-.52-.09-.74-.14l-.78,4.38c-.03,.12-.09,.23-.17,.32-.08,.09-.18,.13-.31,.13h-.24c-.22,0-.33-.13-.33-.38v-.07l2.83-16.02c.03-.14,.07-.24,.12-.31,.05-.06,.15-.11,.31-.14,.5-.11,1.09-.21,1.77-.31,.68-.09,1.44-.14,2.29-.14,.66,0,1.23,.1,1.7,.29s.86,.47,1.17,.82,.53,.78,.68,1.27c.15,.49,.22,1.04,.22,1.64Zm-1.04-.17c0-.99-.23-1.73-.69-2.21-.46-.49-1.21-.73-2.23-.73-.28,0-.58,.01-.9,.04-.31,.02-.62,.06-.93,.09s-.59,.08-.85,.12c-.26,.04-.48,.08-.67,.11l-1.81,10.37c.22,.05,.47,.09,.74,.13,.27,.04,.56,.08,.85,.12,.29,.04,.57,.07,.85,.08,.27,.02,.53,.02,.77,.02,1.26,0,2.24-.4,2.94-1.21,.71-.81,1.19-1.98,1.46-3.5l.28-1.55c.13-.72,.19-1.34,.19-1.86Z"/><path class="cls-2" d="M176.85,12.22l-2.94,16.61c-.03,.13-.09,.23-.16,.32-.08,.09-.18,.13-.31,.13h-.24c-.11,0-.19-.04-.25-.11-.06-.07-.08-.15-.08-.25v-.09l2.94-16.61c.03-.13,.09-.23,.17-.32,.08-.09,.18-.13,.31-.13h.24c.11,0,.19,.04,.25,.11s.08,.15,.08,.25v.09Z"/><path class="cls-2" d="M188.06,17.23s0,.06-.01,.08c0,.02-.01,.05-.01,.08l-2,11.4c-.03,.12-.09,.24-.19,.33-.09,.09-.2,.14-.33,.14h-.19c-.24,0-.35-.13-.35-.38,0-.02,0-.03,.01-.05,0-.02,.01-.03,.01-.05l.14-.78c-.63,.33-1.28,.64-1.97,.94-.68,.3-1.38,.45-2.08,.45-.49,0-.94-.07-1.35-.2-.42-.13-.78-.34-1.08-.62-.31-.28-.55-.64-.72-1.06s-.26-.93-.26-1.51c0-.31,.04-.69,.12-1.13l.47-2.66c.19-1.02,.43-1.89,.73-2.62,.3-.72,.68-1.31,1.13-1.78,.46-.46,.99-.8,1.61-1.01,.62-.21,1.34-.32,2.16-.32,.67,0,1.36,.05,2.06,.14,.7,.09,1.3,.2,1.8,.31,.2,.05,.31,.14,.31,.28Zm-1.13,.5c-.41-.08-.9-.15-1.48-.21-.58-.06-1.15-.09-1.72-.09-1.32,0-2.32,.42-3,1.25-.68,.83-1.16,2.02-1.43,3.56l-.47,2.66c-.08,.44-.12,.82-.12,1.13,0,.52,.07,.94,.21,1.26,.14,.32,.33,.57,.58,.75,.24,.18,.52,.3,.84,.36,.31,.06,.64,.09,.99,.09,.6,0,1.2-.13,1.8-.39,.6-.26,1.33-.62,2.18-1.07l1.63-9.3Z"/><path class="cls-2" d="M200.05,16.9c0,.09-.02,.2-.07,.31l-6.22,13.38c-.28,.6-.55,1.1-.81,1.52-.26,.42-.55,.75-.87,1.01-.32,.26-.7,.45-1.13,.57-.43,.12-.95,.18-1.57,.18-.27,0-.52-.02-.77-.05-.24-.03-.47-.06-.67-.09-.13-.03-.23-.06-.31-.09-.08-.03-.12-.09-.12-.19v-.05l.05-.26c.05-.22,.2-.33,.45-.33h.12c.17,.03,.42,.06,.73,.09,.31,.03,.57,.05,.75,.05,.42,0,.79-.04,1.1-.12,.31-.08,.58-.22,.82-.42,.24-.2,.47-.47,.67-.79,.2-.32,.42-.73,.64-1.24l.5-1.11h-.28c-.36,0-.63-.08-.81-.24s-.31-.52-.39-1.08l-1.3-10.77v-.07c0-.14,.05-.26,.14-.35,.09-.09,.21-.14,.35-.14h.16c.08,0,.15,.04,.2,.11,.05,.07,.09,.15,.11,.22l1.27,10.84c.03,.25,.07,.4,.12,.45,.05,.05,.16,.07,.33,.07h.54l5.23-11.38c.03-.08,.1-.15,.2-.21,.1-.06,.2-.09,.29-.09h.26c.19,0,.28,.09,.28,.28Z"/><path class="cls-2" d="M210.51,20.51c0,.5-.05,1.04-.14,1.6l-.12,.64c-.03,.13-.1,.23-.21,.32-.11,.09-.23,.13-.35,.13h-7.94l-.07,.49c-.03,.28-.06,.55-.09,.81-.03,.26-.05,.5-.05,.71,0,.64,.08,1.17,.25,1.58,.17,.41,.4,.74,.71,.99,.31,.24,.68,.41,1.11,.52,.43,.1,.92,.15,1.47,.15,.52,0,1.1-.03,1.73-.09,.64-.06,1.25-.16,1.85-.28,.05-.02,.12-.02,.21-.02,.19,0,.28,.06,.28,.19,0,.08,0,.13-.02,.16l-.05,.17c-.05,.18-.11,.29-.18,.33-.07,.04-.19,.08-.37,.11-.6,.13-1.21,.23-1.85,.3-.64,.07-1.22,.11-1.75,.11-.64,0-1.24-.08-1.78-.24-.54-.16-1.01-.4-1.41-.73-.4-.33-.7-.76-.92-1.28-.22-.53-.33-1.16-.33-1.9,0-.24,0-.49,.02-.77,.02-.27,.05-.55,.09-.81l.26-1.55c.31-1.85,.96-3.25,1.94-4.21,.98-.95,2.25-1.43,3.83-1.43,.68,0,1.26,.1,1.75,.29,.49,.2,.89,.47,1.2,.82s.55,.78,.7,1.27c.15,.49,.22,1.03,.22,1.61Zm-1.04-.06c0-.98-.23-1.74-.68-2.25s-1.22-.77-2.31-.77c-.66,0-1.24,.11-1.73,.33s-.93,.53-1.3,.94c-.37,.41-.68,.9-.93,1.48-.25,.58-.45,1.23-.59,1.95l-.02,.12h7.37l.02-.14c.05-.31,.09-.6,.12-.87,.03-.27,.05-.52,.05-.77Z"/><path class="cls-2" d="M218.99,16.86l-.02,.19c-.03,.16-.09,.26-.19,.29s-.24,.06-.42,.06c-.46,0-.94,.07-1.45,.22s-1.16,.44-1.94,.88l-1.84,10.32c-.03,.13-.09,.23-.19,.32-.09,.09-.2,.13-.33,.13h-.14c-.25,0-.38-.13-.38-.38v-.07l2.07-11.73c.03-.12,.09-.24,.19-.33,.09-.09,.2-.14,.33-.14h.19c.24,0,.35,.11,.35,.33,0,.03,0,.05-.01,.07,0,.02-.01,.04-.01,.07l-.09,.5c.64-.39,1.22-.67,1.72-.84,.5-.17,1.04-.25,1.63-.25,.17,0,.31,.02,.4,.05,.09,.03,.14,.11,.14,.24v.07Z"/><path class="cls-2" d="M77.88,44.53c0,.27-.01,.54-.04,.83-.02,.28-.07,.57-.13,.87l-.28,1.55c-.36,1.95-.99,3.37-1.9,4.28-.9,.9-2.14,1.35-3.71,1.35-.24,0-.49,0-.77-.02-.27-.02-.56-.04-.85-.08s-.57-.08-.85-.13c-.28-.05-.52-.09-.74-.14l-.78,4.38c-.03,.12-.09,.23-.17,.32-.08,.09-.18,.13-.31,.13h-.24c-.22,0-.33-.13-.33-.38v-.07l2.83-16.02c.03-.14,.07-.24,.12-.31,.05-.06,.15-.11,.31-.14,.5-.11,1.09-.21,1.77-.31,.68-.09,1.44-.14,2.29-.14,.66,0,1.23,.1,1.7,.29s.86,.47,1.17,.82,.53,.78,.68,1.27c.15,.49,.22,1.04,.22,1.64Zm-1.04-.17c0-.99-.23-1.73-.69-2.21-.46-.49-1.21-.73-2.23-.73-.28,0-.58,.01-.9,.04-.31,.02-.62,.06-.93,.09s-.59,.08-.85,.12c-.26,.04-.48,.08-.67,.11l-1.81,10.37c.22,.05,.47,.09,.74,.13,.27,.04,.56,.08,.85,.12,.29,.04,.57,.07,.85,.08,.27,.02,.53,.02,.77,.02,1.26,0,2.24-.4,2.94-1.21,.71-.81,1.19-1.98,1.46-3.5l.28-1.55c.13-.72,.19-1.34,.19-1.86Z"/><path class="cls-2" d="M90.08,41.23s0,.06-.01,.08c0,.02-.01,.05-.01,.08l-2,11.4c-.03,.12-.09,.24-.19,.33-.09,.09-.2,.14-.33,.14h-.19c-.24,0-.35-.13-.35-.38,0-.02,0-.03,.01-.05,0-.02,.01-.03,.01-.05l.14-.78c-.63,.33-1.28,.64-1.97,.94-.68,.3-1.38,.45-2.08,.45-.49,0-.94-.07-1.35-.2-.42-.13-.78-.34-1.08-.62-.31-.28-.55-.64-.72-1.06s-.26-.93-.26-1.51c0-.31,.04-.69,.12-1.13l.47-2.66c.19-1.02,.43-1.89,.73-2.62,.3-.72,.68-1.31,1.13-1.78,.46-.46,.99-.8,1.61-1.01,.62-.21,1.34-.32,2.16-.32,.67,0,1.36,.05,2.06,.14,.7,.09,1.3,.2,1.8,.31,.2,.05,.31,.14,.31,.28Zm-1.13,.5c-.41-.08-.9-.15-1.48-.21-.58-.06-1.15-.09-1.72-.09-1.32,0-2.32,.42-3,1.25-.68,.83-1.16,2.02-1.43,3.56l-.47,2.66c-.08,.44-.12,.82-.12,1.13,0,.52,.07,.94,.21,1.26,.14,.32,.33,.57,.58,.75,.24,.18,.52,.3,.84,.36,.31,.06,.64,.09,.99,.09,.6,0,1.2-.13,1.8-.39,.6-.26,1.33-.62,2.18-1.07l1.63-9.3Z"/><path class="cls-2" d="M98.23,40.86l-.02,.19c-.03,.16-.09,.26-.19,.29s-.24,.06-.42,.06c-.46,0-.94,.07-1.45,.22s-1.16,.44-1.94,.88l-1.84,10.32c-.03,.13-.09,.23-.19,.32-.09,.09-.2,.13-.33,.13h-.14c-.25,0-.38-.13-.38-.38v-.07l2.07-11.73c.03-.12,.09-.24,.19-.33,.09-.09,.2-.14,.33-.14h.19c.24,0,.35,.11,.35,.33,0,.03,0,.05-.01,.07,0,.02-.01,.04-.01,.07l-.09,.5c.64-.39,1.22-.67,1.72-.84,.5-.17,1.04-.25,1.63-.25,.17,0,.31,.02,.4,.05,.09,.03,.14,.11,.14,.24v.07Z"/><path class="cls-2" d="M108.53,41.23s0,.06-.01,.08c0,.02-.01,.05-.01,.08l-2,11.4c-.03,.12-.09,.24-.19,.33-.09,.09-.2,.14-.33,.14h-.19c-.24,0-.35-.13-.35-.38,0-.02,0-.03,.01-.05,0-.02,.01-.03,.01-.05l.14-.78c-.63,.33-1.28,.64-1.97,.94-.68,.3-1.38,.45-2.08,.45-.49,0-.94-.07-1.35-.2-.42-.13-.78-.34-1.08-.62-.31-.28-.55-.64-.72-1.06s-.26-.93-.26-1.51c0-.31,.04-.69,.12-1.13l.47-2.66c.19-1.02,.43-1.89,.73-2.62,.3-.72,.68-1.31,1.13-1.78,.46-.46,.99-.8,1.61-1.01,.62-.21,1.34-.32,2.16-.32,.67,0,1.36,.05,2.06,.14,.7,.09,1.3,.2,1.8,.31,.2,.05,.31,.14,.31,.28Zm-1.13,.5c-.41-.08-.9-.15-1.48-.21-.58-.06-1.15-.09-1.72-.09-1.32,0-2.32,.42-3,1.25-.68,.83-1.16,2.02-1.43,3.56l-.47,2.66c-.08,.44-.12,.82-.12,1.13,0,.52,.07,.94,.21,1.26,.14,.32,.33,.57,.58,.75,.24,.18,.52,.3,.84,.36,.31,.06,.64,.09,.99,.09,.6,0,1.2-.13,1.8-.39,.6-.26,1.33-.62,2.18-1.07l1.63-9.3Z"/><path class="cls-2" d="M125.54,44.58c0,.47-.05,.99-.14,1.55l-.28,1.65c-.31,1.81-.94,3.2-1.89,4.17-.94,.97-2.27,1.46-3.97,1.46-1.34,0-2.34-.37-3.01-1.1-.67-.73-1-1.74-1-3.03,0-.46,.05-.96,.14-1.51l.28-1.65c.31-1.85,.96-3.25,1.92-4.21,.97-.95,2.29-1.43,3.96-1.43,1.35,0,2.36,.36,3.01,1.08,.65,.72,.98,1.72,.98,2.99Zm-1.04-.07c0-.99-.24-1.75-.72-2.29-.48-.53-1.28-.8-2.41-.8-1.33,0-2.38,.43-3.14,1.3-.76,.86-1.26,2-1.52,3.42l-.28,1.65c-.05,.3-.09,.58-.12,.85-.03,.27-.05,.53-.05,.78,0,.99,.24,1.75,.73,2.29s1.29,.8,2.42,.8c.67,0,1.27-.11,1.8-.34s.97-.54,1.35-.95c.38-.41,.69-.9,.93-1.48,.24-.58,.43-1.22,.55-1.93l.28-1.65c.05-.3,.09-.58,.12-.85,.03-.27,.05-.53,.05-.78Z"/><path class="cls-2" d="M138.24,41.07l-2.1,11.76c-.03,.13-.09,.24-.19,.33-.09,.09-.2,.14-.33,.14h-.19c-.2,0-.31-.12-.31-.38v-.09l.05-.38c-.66,.3-1.3,.54-1.93,.72-.63,.18-1.25,.27-1.86,.27-.5,0-.97-.06-1.41-.19-.44-.13-.82-.33-1.15-.6-.33-.27-.59-.62-.78-1.05s-.28-.94-.28-1.55c0-.17,0-.35,.02-.53,.02-.18,.04-.38,.07-.6l1.41-7.84c.03-.12,.09-.23,.19-.32,.09-.09,.2-.13,.33-.13h.16c.24,0,.35,.13,.35,.38v.07l-1.41,7.84c-.03,.2-.06,.4-.07,.59s-.02,.37-.02,.54c0,.93,.25,1.57,.75,1.93,.5,.36,1.13,.54,1.88,.54,.6,0,1.24-.09,1.92-.28s1.35-.42,1.99-.71l1.86-10.46c.03-.12,.09-.23,.19-.32,.09-.09,.2-.13,.33-.13h.14c.25,0,.38,.13,.38,.38v.07Z"/><path class="cls-2" d="M150.3,40.88c0,.06-.03,.17-.09,.33l-4.97,10.72c-.3,.63-.6,1.03-.9,1.21-.3,.18-.62,.27-.97,.27s-.62-.09-.88-.27c-.26-.18-.43-.58-.51-1.21l-1.2-10.72v-.09c0-.14,.04-.26,.11-.35,.07-.09,.18-.14,.32-.14h.24c.08,0,.15,.03,.22,.08,.07,.06,.11,.17,.13,.34l1.13,10.62c.03,.36,.1,.59,.21,.69,.11,.1,.23,.15,.35,.15s.25-.05,.37-.15c.12-.1,.26-.33,.44-.69l4.9-10.62c.08-.17,.16-.29,.25-.34,.09-.05,.17-.08,.25-.08h.33c.19,0,.28,.09,.28,.26Z"/><path class="cls-2" d="M153.78,40.62c.25,0,.35,.15,.31,.45l-2.07,11.76c-.03,.13-.08,.23-.14,.32-.06,.09-.19,.13-.38,.13h-.14c-.3,0-.42-.15-.38-.45l2.07-11.76c.03-.12,.07-.23,.13-.32,.06-.09,.17-.13,.34-.13h.26Zm.21-2.33c-.17,0-.29-.04-.34-.12-.06-.08-.07-.19-.04-.33l.33-1.74c.03-.19,.09-.31,.19-.37,.09-.05,.2-.08,.33-.08h.14c.33,0,.46,.15,.38,.45l-.33,1.74c-.03,.17-.09,.29-.19,.35-.09,.06-.2,.09-.33,.09h-.14Z"/><path class="cls-2" d="M162.45,40.86l-.02,.19c-.03,.16-.09,.26-.19,.29s-.24,.06-.42,.06c-.46,0-.94,.07-1.45,.22s-1.16,.44-1.94,.88l-1.84,10.32c-.03,.13-.09,.23-.19,.32-.09,.09-.2,.13-.33,.13h-.14c-.25,0-.38-.13-.38-.38v-.07l2.07-11.73c.03-.12,.09-.24,.19-.33,.09-.09,.2-.14,.33-.14h.19c.24,0,.35,.11,.35,.33,0,.03,0,.05-.01,.07,0,.02-.01,.04-.01,.07l-.09,.5c.64-.39,1.22-.67,1.72-.84,.5-.17,1.04-.25,1.63-.25,.17,0,.31,.02,.4,.05,.09,.03,.14,.11,.14,.24v.07Z"/></g><g><path class="cls-1" d="M59.64,33.32c-2.06,.7-22.62,7.36-40.62-5.59C8.67,20.29,4.37,10.1,2.62,4.15"/><polygon class="cls-2" points="5.76 4.26 1.62 0 0 5.71 5.76 4.26"/></g></g></g></svg>