<?xml version="1.0" encoding="UTF-8"?><svg id="Camada_2" xmlns="http://www.w3.org/2000/svg" viewBox="0 0 493.34 134.59"><defs><style>.cls-1{fill:#fff;}.cls-2{fill:none;stroke:#fff;stroke-linecap:round;stroke-linejoin:round;stroke-width:1.34px;}</style></defs><g id="Camada_1-2"><g><path class="cls-1" d="M279.72,134.59c-2.3,0-4.55-.42-6.7-1.24l-23.6-9.02H93.48c-14.5,0-26.56-11.42-27.52-25.74h2.24c.96,13.08,12.02,23.51,25.28,23.51H249.63c.14,0,.27,.02,.4,.07l23.8,9.09c1.88,.72,3.87,1.08,5.9,1.08s4.02-.36,5.9-1.08l23.79-9.09c.13-.05,.26-.07,.4-.07h155.93c13.98,0,25.36-11.37,25.36-25.36V18.77c0-9.12-7.42-16.53-16.53-16.53H84.66c-8.51,0-15.62,6.56-16.45,14.89h-2.24c.84-9.57,8.94-17.13,18.69-17.13H474.57c10.35,0,18.77,8.42,18.77,18.77V96.75c0,15.21-12.38,27.59-27.59,27.59h-155.72l-23.6,9.02c-2.15,.82-4.4,1.24-6.7,1.24Z"/><g><path class="cls-1" d="M114.61,82.77c-6.62,0-11.96-3.17-11.96-5.8,0-1.31,1.24-3.24,2.35-3.24,.6,0,1.31,.55,2.21,1.24,1.57,1.21,3.72,2.87,7.22,2.87,4.07,0,6.81-2.04,6.81-5.09,0-3.72-3.64-5.41-7.48-7.19-4.97-2.31-10.11-4.7-10.11-11.35,0-7.42,6.61-10.07,12.79-10.07,3.87,0,9.63,.92,9.63,3.46,0,.86-.62,3.13-2.02,3.13-.43,0-.83-.2-1.57-.58-1.25-.65-2.95-1.53-6.04-1.53-5.15,0-6.97,2.56-6.97,4.75,0,3.07,3.26,4.51,6.7,6.03,5.11,2.25,10.9,4.8,10.9,12.46,0,6.83-4.66,10.9-12.46,10.9Z"/><path class="cls-1" d="M146.47,82.21c-1.58,0-2.91-.57-2.91-1.24v-31.57h-9.08c-.74,0-1.19-1.28-1.19-2.52,0-.93,.32-2.41,1.19-2.41h23.98c.86,0,1.19,1.48,1.19,2.41,0,1.24-.44,2.52-1.19,2.52h-9.08v31.57c0,.67-1.33,1.24-2.91,1.24Z"/><path class="cls-1" d="M178.73,82.55c-8.08,0-12.18-3.93-12.18-11.68v-14.71c0-7.75,4.1-11.68,12.18-11.68s12.24,3.93,12.24,11.68v14.71c0,9.65-6.65,11.68-12.24,11.68Zm0-33.36c-4.04,0-6.36,2.54-6.36,6.97v14.71c0,4.43,2.32,6.97,6.36,6.97s6.42-2.54,6.42-6.97v-14.71c0-4.43-2.34-6.97-6.42-6.97Z"/><path class="cls-1" d="M222.3,82.55c-.96,0-1.33-.48-1.52-.85l-8-15.53h-5.95v14.8c0,.67-1.33,1.24-2.91,1.24s-2.91-.57-2.91-1.24V45.66c0-.57,.39-1.19,1.24-1.19h11.49c8.23,0,12.24,3.42,12.24,10.46,0,5.04-2.01,8.48-5.81,9.94l-1.52,.59,7.59,13.75,.03,.05s.04,.1,.04,.21c0,1.24-2.12,3.08-4.02,3.08Zm-15.47-20.2h6.92c4.26,0,6.42-2.22,6.42-6.58s-2.16-6.58-6.42-6.58h-6.92v13.17Z"/><path class="cls-1" d="M246.62,82.21c-1.58,0-2.91-.57-2.91-1.24v-13.93c0-.55-.16-1.09-.44-1.53l-11.39-18.87v-.03c0-.84,2.39-2.13,4.46-2.13,.66,0,.78,.05,1.27,.9l9.01,16.53,8.96-16.57c.4-.76,.55-.86,1.25-.86,2.07,0,4.46,1.29,4.46,2.13v.03l-11.33,18.87c-.28,.44-.44,.98-.44,1.53v13.93c0,.67-1.33,1.24-2.91,1.24Z"/><path class="cls-1" d="M279.7,82.21c-1.58,0-2.91-.57-2.91-1.24v-31.57h-9.08c-.74,0-1.19-1.28-1.19-2.52,0-.93,.32-2.41,1.19-2.41h23.98c.86,0,1.19,1.48,1.19,2.41,0,1.24-.44,2.52-1.19,2.52h-9.08v31.57c0,.67-1.33,1.24-2.91,1.24Z"/><path class="cls-1" d="M303.18,82.21c-.91,0-2.35-.34-2.35-1.24V45.72c0-.91,1.44-1.24,2.35-1.24h19.76c.97,0,1.19,1.66,1.19,2.3,0,1.18-.44,2.41-1.19,2.41h-16.3v12.23h9.75c.87,0,1.19,1.17,1.19,1.96,0,.02-.01,1.85-1.19,1.85h-9.75v12.28h16.3c.74,0,1.19,1.22,1.19,2.41,0,.64-.21,2.3-1.19,2.3h-19.76Z"/><path class="cls-1" d="M334.77,82.21c-.91,0-2.35-.34-2.35-1.24V45.66c0-.74,1.48-1.19,2.91-1.19s2.91,.44,2.91,1.19v31.84h14.08c.66,0,1.08,1.22,1.08,2.35s-.41,2.35-1.08,2.35h-17.54Z"/><path class="cls-1" d="M363.75,82.21c-.91,0-2.35-.34-2.35-1.24V45.66c0-.74,1.48-1.19,2.91-1.19s2.91,.44,2.91,1.19v31.84h14.08c.66,0,1.08,1.22,1.08,2.35s-.41,2.35-1.08,2.35h-17.54Z"/><path class="cls-1" d="M393.28,82.21c-1.58,0-2.91-.57-2.91-1.24V45.66c0-.74,1.48-1.19,2.91-1.19s2.91,.44,2.91,1.19v35.31c0,.67-1.33,1.24-2.91,1.24Z"/><path class="cls-1" d="M429.31,82.21c-1.98,0-2.95-.43-3.58-1.59l-10.55-19.21-2.67,.68v18.87c0,.67-1.33,1.24-2.91,1.24s-2.91-.57-2.91-1.24V45.72c0-.78,1.48-1.24,2.91-1.24,2.58,0,3.27,0,5.12,3.57l9,17.16,2.68-.66v-18.88c0-.74,1.48-1.19,2.91-1.19s2.91,.44,2.91,1.19v35.31c0,.67-1.33,1.24-2.91,1.24Z"/><path class="cls-1" d="M454.45,82.55c-8.08,0-12.18-3.93-12.18-11.68v-14.71c0-9.65,6.47-11.68,11.9-11.68,7.6,0,12.51,3.78,12.51,9.63,0,2.26-.46,2.69-2.91,2.69-1.91,0-2.89-.41-2.91-1.23-.05-1.74-.18-6.38-6.36-6.38-4.08,0-6.42,2.54-6.42,6.97v14.71c0,4.43,2.32,6.97,6.36,6.97s6.42-2.61,6.42-6.97v-3.31h-4.7c-.87,0-1.19-1.14-1.19-1.91s.41-1.91,1.19-1.91h9.33c1.1,0,1.19,.99,1.19,1.3v5.83c0,9.65-6.65,11.68-12.24,11.68Z"/></g><g><g><path class="cls-2" d="M27.26,79.21c-.15,1.06-.07,2.15,.3,3.21l4.4,12.72c1.31,3.78,5.67,5.73,9.7,4.33l1-.34,1.63,4.7,2.53-6.14,10.18-3.53s6.28-1.65,5.83-7.19"/><path class="cls-2" d="M60.48,67.25c.5,1.44,2.07,2.2,3.51,1.7s2.2-2.07,1.7-3.51-2.07-2.2-3.51-1.7-2.2,2.07-1.7,3.51Z"/><path class="cls-2" d="M50.8,70.6c.5,1.44,2.07,2.2,3.51,1.7s2.2-2.07,1.7-3.51-2.07-2.2-3.51-1.7-2.2,2.07-1.7,3.51Z"/><path class="cls-2" d="M41.13,73.95c.5,1.44,2.07,2.2,3.51,1.7s2.2-2.07,1.7-3.51-2.07-2.2-3.51-1.7-2.2,2.07-1.7,3.51Z"/></g><g><path class="cls-2" d="M63.94,52.25c3.14-.62,6.29,.67,7.9,3.18"/><path class="cls-2" d="M71.85,55.42c.29,.45,.53,.93,.71,1.45l4.4,12.72c1.31,3.78-.91,8.01-4.94,9.4l-1,.34,1.63,4.7-5.78-3.26-22.82,7.9c-4.03,1.39-8.39-.56-9.7-4.33l-4.4-12.72c-.07-.21-.13-.42-.18-.63"/><polyline class="cls-2" points="39.56 36.84 33.65 19.77 .67 31.2 16.1 75.73 29.76 71"/><polyline class="cls-2" points="63.59 48.66 65.51 50.92 63.94 52.25"/><line class="cls-2" x1="63.59" y1="48.66" x2="58.32" y2="42.45"/><polyline class="cls-2" points="54.27 37.67 47.71 29.93 39.56 36.84"/><line class="cls-2" x1="58.32" y1="42.45" x2="54.27" y2="37.67"/><polyline class="cls-2" points="40.84 40.53 47.32 35.03 54.76 43.8"/><line class="cls-2" x1="46.62" y1="57.23" x2="55.24" y2="49.92"/><polyline class="cls-2" points="54.76 43.8 57.98 47.6 55.24 49.92"/><polyline class="cls-2" points="54.27 37.67 53.6 29.27 77.27 27.39 79.45 54.82 71.85 55.42"/><polyline class="cls-2" points="63.59 48.66 75.28 47.73 73.97 31.3 57.54 32.6 58.32 42.45"/></g><g><line class="cls-2" x1="19.45" y1="66.4" x2="40.93" y2="58.96"/><line class="cls-2" x1="11.35" y1="43" x2="32.82" y2="35.57"/><g><line class="cls-2" x1="32.55" y1="48.76" x2="15.4" y2="54.7"/><line class="cls-2" x1="36.84" y1="53.83" x2="17.43" y2="60.55"/><line class="cls-2" x1="33.69" y1="41.82" x2="13.38" y2="48.85"/><g><path class="cls-2" d="M41.9,59.79l20.95-7.26c.36-.13,.73-.21,1.09-.29"/><path class="cls-2" d="M29.76,71c-.87-3.61,1.31-7.46,5.12-8.78l7.02-2.43"/><line class="cls-2" x1="36.84" y1="53.83" x2="41.9" y2="59.79"/></g><line class="cls-2" x1="32.55" y1="48.76" x2="36.84" y2="53.83"/><polyline class="cls-2" points="33.69 41.82 29.6 45.29 32.55 48.76"/><line class="cls-2" x1="33.69" y1="41.82" x2="39.56" y2="36.84"/><polyline class="cls-2" points="36.26 47.48 34.75 45.69 40.84 40.53"/><polyline class="cls-2" points="36.26 47.48 45.41 58.26 46.62 57.23"/></g><line class="cls-2" x1="9.33" y1="37.16" x2="28.47" y2="30.52"/></g></g></g></g></svg>