{
  "accessors": [
    {
      "bufferView": 3,
      "componentType": 5126,
      "count": 2816,
      "max": [
        0.10724739730358124,
        0.020044749602675438,
        0.017547428607940674
      ],
      "min": [
        -0.10666367411613464,
        -0.04293593391776085,
        -0.13555996119976044
      ],
      "type": "VEC3"
    },
    {
      "bufferView": 3,
      "byteOffset": 33792,
      "componentType": 5126,
      "count": 2816,
      "max": [
        0.9999982714653015,
        0.9542889595031738,
        0.9981409907341003
      ],
      "min": [
        -0.9999696016311646,
        -0.9574161171913147,
        -0.9991211295127869
      ],
      "type": "VEC3"
    },
    {
      "bufferView": 2,
      "componentType": 5126,
      "count": 2816,
      "max": [
        0.0,
        0.0
      ],
      "min": [
        0.0,
        0.0
      ],
      "type": "VEC2"
    },
    {
      "bufferView": 1,
      "componentType": 5125,
      "count": 4224,
      "type": "SCALAR"
    },
    {
      "bufferView": 3,
      "byteOffset": 67584,
      "componentType": 5126,
      "count": 37248,
      "max": [
        0.1065005362033844,
        0.03279971331357956,
        0.021150488406419754
      ],
      "min": [
        -0.10720209777355194,
        -0.0005732811987400055,
        0.012974074110388756
      ],
      "type": "VEC3"
    },
    {
      "bufferView": 3,
      "byteOffset": 514560,
      "componentType": 5126,
      "count": 37248,
      "max": [
        0.9997896552085876,
        0.9999440908432007,
        0.9999998211860657
      ],
      "min": [
        -0.9999058246612549,
        -0.999944806098938,
        -0.9999997615814209
      ],
      "type": "VEC3"
    },
    {
      "bufferView": 1,
      "byteOffset": 16896,
      "componentType": 5125,
      "count": 221184,
      "type": "SCALAR"
    },
    {
      "bufferView": 3,
      "byteOffset": 961536,
      "componentType": 5126,
      "count": 256,
      "max": [
        0.10350295901298523,
        0.029911242425441742,
        0.01974145695567131
      ],
      "min": [
        -0.1041756346821785,
        -0.023478344082832336,
        0.013498066924512386
      ],
      "type": "VEC3"
    },
    {
      "bufferView": 3,
      "byteOffset": 964608,
      "componentType": 5126,
      "count": 256,
      "max": [
        -0.0031049877870827913,
        -0.08585280925035477,
        0.9963030219078064
      ],
      "min": [
        -0.004896535072475672,
        -0.0858541876077652,
        0.9962957501411438
      ],
      "type": "VEC3"
    },
    {
      "bufferView": 1,
      "byteOffset": 901632,
      "componentType": 5125,
      "count": 756,
      "type": "SCALAR"
    },
    {
      "bufferView": 3,
      "byteOffset": 967680,
      "componentType": 5126,
      "count": 200,
      "max": [
        0.015214362181723118,
        0.019423682242631912,
        0.023052936419844627
      ],
      "min": [
        -0.015850234776735306,
        0.01664896309375763,
        0.01618209481239319
      ],
      "type": "VEC3"
    },
    {
      "bufferView": 3,
      "byteOffset": 970080,
      "componentType": 5126,
      "count": 200,
      "max": [
        0.8138642907142639,
        0.9919793009757996,
        0.9907084703445435
      ],
      "min": [
        -0.7912871241569519,
        -0.9919794201850891,
        -0.9907084107398987
      ],
      "type": "VEC3"
    },
    {
      "bufferView": 1,
      "byteOffset": 904656,
      "componentType": 5125,
      "count": 300,
      "type": "SCALAR"
    },
    {
      "bufferView": 3,
      "byteOffset": 972480,
      "componentType": 5126,
      "count": 100,
      "max": [
        0.011041061952710152,
        0.0017958451062440872,
        0.017626529559493065
      ],
      "min": [
        -0.011652693152427673,
        -0.008506853133440018,
        0.007971316576004028
      ],
      "type": "VEC3"
    },
    {
      "bufferView": 3,
      "byteOffset": 973680,
      "componentType": 5126,
      "count": 100,
      "max": [
        0.997187614440918,
        0.991060733795166,
        0.9246004819869995
      ],
      "min": [
        -0.9971876740455627,
        -0.991060733795166,
        -0.9246004223823547
      ],
      "type": "VEC3"
    },
    {
      "bufferView": 2,
      "byteOffset": 22528,
      "componentType": 5126,
      "count": 100,
      "max": [
        0.0,
        0.0
      ],
      "min": [
        0.0,
        0.0
      ],
      "type": "VEC2"
    },
    {
      "bufferView": 1,
      "byteOffset": 905856,
      "componentType": 5125,
      "count": 576,
      "type": "SCALAR"
    },
    {
      "bufferView": 5,
      "componentType": 5126,
      "count": 3,
      "max": [
        1.0,
        0.005824032239615917,
        5.715992656973867e-08,
        0.0,
        0.0008601760491728783,
        1.0,
        0.9890345931053162,
        0.0,
        0.005760160740464926,
        0.0,
        1.0,
        0.0,
        0.10655703395605087,
        0.019940942525863647,
        0.0,
        1.0
      ],
      "min": [
        0.9999830722808838,
        -0.005824032239615917,
        -5.715992656973867e-08,
        0.0,
        -0.0008601760491728783,
        -0.1476820409297943,
        0.0,
        0.0,
        -0.005760160740464926,
        -0.9890177249908447,
        -0.14768454432487488,
        0.0,
        -0.10582637786865234,
        0.0,
        -0.015541914850473404,
        1.0
      ],
      "type": "MAT4"
    },
    {
      "bufferView": 0,
      "componentType": 5123,
      "count": 2816,
      "type": "VEC4"
    },
    {
      "bufferView": 4,
      "componentType": 5126,
      "count": 2816,
      "max": [
        1.0,
        0.0,
        0.0,
        0.0
      ],
      "min": [
        1.0,
        0.0,
        0.0,
        0.0
      ],
      "type": "VEC4"
    },
    {
      "bufferView": 0,
      "byteOffset": 22528,
      "componentType": 5123,
      "count": 37248,
      "type": "VEC4"
    },
    {
      "bufferView": 4,
      "byteOffset": 45056,
      "componentType": 5126,
      "count": 37248,
      "max": [
        1.0,
        0.0,
        0.0,
        0.0
      ],
      "min": [
        1.0,
        0.0,
        0.0,
        0.0
      ],
      "type": "VEC4"
    },
    {
      "bufferView": 0,
      "byteOffset": 320512,
      "componentType": 5123,
      "count": 200,
      "type": "VEC4"
    },
    {
      "bufferView": 4,
      "byteOffset": 641024,
      "componentType": 5126,
      "count": 200,
      "max": [
        1.0,
        0.0,
        0.0,
        0.0
      ],
      "min": [
        1.0,
        0.0,
        0.0,
        0.0
      ],
      "type": "VEC4"
    },
    {
      "bufferView": 0,
      "byteOffset": 322112,
      "componentType": 5123,
      "count": 100,
      "type": "VEC4"
    },
    {
      "bufferView": 4,
      "byteOffset": 644224,
      "componentType": 5126,
      "count": 100,
      "max": [
        1.0,
        0.0,
        0.0,
        0.0
      ],
      "min": [
        1.0,
        0.0,
        0.0,
        0.0
      ],
      "type": "VEC4"
    }
  ],
  "asset": {
    "extras": {
      "author": "Mohit Akundi (https://sketchfab.com/mohitakundi)",
      "license": "SKETCHFAB Standard (https://sketchfab.com/licenses)",
      "source": "https://sketchfab.com/3d-models/rounded-rectangle-eyeglasses-d9ee418eb0b84c1b97c1063f30787cb0",
      "title": "Rounded Rectangle Eyeglasses"
    },
    "generator": "Sketchfab-16.14.0",
    "version": "2.0"
  },
  "bufferViews": [
    {
      "buffer": 0,
      "byteLength": 322912,
      "byteStride": 8,
      "name": "shortBufferViews",
      "target": 34962
    },
    {
      "buffer": 0,
      "byteLength": 908160,
      "byteOffset": 322912,
      "name": "floatBufferViews",
      "target": 34963
    },
    {
      "buffer": 0,
      "byteLength": 23328,
      "byteOffset": 1231072,
      "byteStride": 8,
      "name": "floatBufferViews",
      "target": 34962
    },
    {
      "buffer": 0,
      "byteLength": 974880,
      "byteOffset": 1254400,
      "byteStride": 12,
      "name": "floatBufferViews",
      "target": 34962
    },
    {
      "buffer": 0,
      "byteLength": 645824,
      "byteOffset": 2229280,
      "byteStride": 16,
      "name": "floatBufferViews",
      "target": 34962
    },
    {
      "buffer": 0,
      "byteLength": 192,
      "byteOffset": 2875104,
      "name": "floatBufferViews"
    }
  ],
  "buffers": [
    {
      "byteLength": 2875296,
      "uri": "scene.bin"
    }
  ],
  "materials": [
    {
      "doubleSided": true,
      "name": "Glasses_Chassis",
      "pbrMetallicRoughness": {
        "baseColorFactor": [
          0.00101438,
          0.0,
          0.0725664,
          1.0
        ],
        "roughnessFactor": 0.359712
      }
    },
    {
      "alphaMode": "BLEND",
      "doubleSided": true,
      "name": "Glasses_Glass",
      "pbrMetallicRoughness": {
        "baseColorFactor": [
          0.0,
          0.0,
          0.0,
          0.8700978898221403
        ],
        "metallicFactor": 0.0,
        "roughnessFactor": 0.5
      }
    },
    {
      "doubleSided": true,
      "name": "Glasses_Padding",
      "pbrMetallicRoughness": {
        "baseColorFactor": [
          0.8000469999999997,
          0.7812529999999996,
          0.49883200000000005,
          1.0
        ],
        "metallicFactor": 0.0,
        "roughnessFactor": 0.5
      }
    }
  ],
  "meshes": [
    {
      "name": "Object_0",
      "primitives": [
        {
          "attributes": {
            "JOINTS_0": 18,
            "NORMAL": 1,
            "POSITION": 0,
            "TEXCOORD_0": 2,
            "WEIGHTS_0": 19
          },
          "indices": 3,
          "material": 0,
          "mode": 4
        }
      ]
    },
    {
      "name": "Object_1",
      "primitives": [
        {
          "attributes": {
            "JOINTS_0": 20,
            "NORMAL": 5,
            "POSITION": 4,
            "WEIGHTS_0": 21
          },
          "indices": 6,
          "material": 0,
          "mode": 4
        }
      ]
    },
    {
      "name": "Object_2",
      "primitives": [
        {
          "attributes": {
            "NORMAL": 8,
            "POSITION": 7
          },
          "indices": 9,
          "material": 1,
          "mode": 4
        }
      ]
    },
    {
      "name": "Object_3",
      "primitives": [
        {
          "attributes": {
            "JOINTS_0": 22,
            "NORMAL": 11,
            "POSITION": 10,
            "WEIGHTS_0": 23
          },
          "indices": 12,
          "material": 0,
          "mode": 4
        }
      ]
    },
    {
      "name": "Object_4",
      "primitives": [
        {
          "attributes": {
            "JOINTS_0": 24,
            "NORMAL": 14,
            "POSITION": 13,
            "TEXCOORD_0": 15,
            "WEIGHTS_0": 25
          },
          "indices": 16,
          "material": 2,
          "mode": 4
        }
      ]
    }
  ],
  "nodes": [
    {
      "children": [
        1
      ],
      "matrix": [
        1.0,
        0.0,
        0.0,
        0.0,
        0.0,
        2.220446049250313e-16,
        -1.0,
        0.0,
        0.0,
        1.0,
        2.220446049250313e-16,
        0.0,
        0.0,
        0.0,
        0.0,
        1.0
      ],
      "name": "Sketchfab_model"
    },
    {
      "children": [
        2
      ],
      "name": "root"
    },
    {
      "children": [
        3
      ],
      "matrix": [
        1.0,
        0.0,
        0.0,
        0.0,
        0.0,
        2.220446049250313e-16,
        1.0,
        0.0,
        0.0,
        -1.0,
        2.220446049250313e-16,
        0.0,
        0.0,
        0.0,
        0.0,
        1.0
      ],
      "name": "GLTF_SceneRootNode"
    },
    {
      "children": [
        4
      ],
      "matrix": [
        1.0,
        0.0,
        0.0,
        0.0,
        0.0,
        1.0,
        0.0,
        0.0,
        0.0,
        0.0,
        1.0,
        0.0,
        -0.000365331768989563,
        0.018156684935092926,
        0.020536266267299652,
        1.0
      ],
      "name": "Regular Glasses 1_7"
    },
    {
      "children": [
        5,
        7,
        9,
        13,
        15,
        6,
        8,
        10,
        12,
        14
      ],
      "name": "GLTF_created_0"
    },
    {
      "children": [
        16,
        17
      ],
      "name": "GLTF_created_0_rootJoint"
    },
    {
      "name": "Regular Glasses 1_Arms_2"
    },
    {
      "mesh": 0,
      "name": "Object_7",
      "skin": 0
    },
    {
      "name": "Regular Glasses 1_Chassis_3"
    },
    {
      "mesh": 1,
      "name": "Object_9",
      "skin": 0
    },
    {
      "children": [
        11
      ],
      "matrix": [
        1.0,
        0.0,
        0.0,
        0.0,
        0.0,
        1.0,
        0.0,
        0.0,
        0.0,
        0.0,
        1.0,
        0.0,
        0.000365331768989563,
        -0.018156684935092926,
        -0.020536266267299652,
        1.0
      ],
      "name": "Regular Glasses 1_Lens_4"
    },
    {
      "mesh": 2,
      "name": "Object_11"
    },
    {
      "name": "Regular Glasses 1_NoseBridge_5"
    },
    {
      "mesh": 3,
      "name": "Object_13",
      "skin": 0
    },
    {
      "name": "Regular Glasses 1_Padding_6"
    },
    {
      "mesh": 4,
      "name": "Object_15",
      "skin": 0
    },
    {
      "name": "arm.r_0",
      "rotation": [
        -0.7575205564498901,
        -0.0022059492766857147,
        -0.0019009725656360388,
        0.6528048515319824
      ],
      "translation": [
        -0.10630601644515991,
        6.806477904319763e-05,
        -0.0037234053015708923
      ]
    },
    {
      "name": "arm.l_1",
      "rotation": [
        -0.7575205564498901,
        0.0022059492766857147,
        0.0019009725656360388,
        0.6528048515319824
      ],
      "translation": [
        0.10630601644515991,
        6.806477904319763e-05,
        -0.0037234053015708923
      ]
    }
  ],
  "scene": 0,
  "scenes": [
    {
      "name": "Sketchfab_Scene",
      "nodes": [
        0
      ]
    }
  ],
  "skins": [
    {
      "inverseBindMatrices": 17,
      "joints": [
        5,
        16,
        17
      ],
      "skeleton": 5
    }
  ]
}
