{
  "accessors": [
    {
      "bufferView": 2,
      "componentType": 5126,
      "count": 174,
      "max": [
        198.8025665283203,
        0.8343976736068726,
        158.0270233154297
      ],
      "min": [
        -198.64617919921875,
        0.026798076927661896,
        11.773261070251465
      ],
      "type": "VEC3"
    },
    {
      "bufferView": 2,
      "byteOffset": 2088,
      "componentType": 5126,
      "count": 174,
      "max": [
        0.0005244702333584428,
        0.999999463558197,
        0.0008978825062513351
      ],
      "min": [
        -0.001729858573526144,
        0.9999982714653015,
        -0.0008187892381101847
      ],
      "type": "VEC3"
    },
    {
      "bufferView": 1,
      "componentType": 5126,
      "count": 174,
      "max": [
        0.0,
        0.0
      ],
      "min": [
        0.0,
        0.0
      ],
      "type": "VEC2"
    },
    {
      "bufferView": 0,
      "componentType": 5125,
      "count": 510,
      "type": "SCALAR"
    },
    {
      "bufferView": 2,
      "byteOffset": 4176,
      "componentType": 5126,
      "count": 2377,
      "max": [
        154.4311981201172,
        0.5003076195716858,
        31.864686965942383
      ],
      "min": [
        125.12286376953125,
        0.5002982020378113,
        16.361520767211914
      ],
      "type": "VEC3"
    },
    {
      "bufferView": 2,
      "byteOffset": 32700,
      "componentType": 5126,
      "count": 2377,
      "max": [
        1.1149631973239593e-05,
        1.0,
        0.00012834258086513728
      ],
      "min": [
        -2.2704873572365614e-06,
        0.9999999403953552,
        -0.0003451035881880671
      ],
      "type": "VEC3"
    },
    {
      "bufferView": 1,
      "byteOffset": 1392,
      "componentType": 5126,
      "count": 2377,
      "max": [
        1.0,
        0.0
      ],
      "min": [
        0.0,
        0.0
      ],
      "type": "VEC2"
    },
    {
      "bufferView": 0,
      "byteOffset": 2040,
      "componentType": 5125,
      "count": 7122,
      "type": "SCALAR"
    },
    {
      "bufferView": 2,
      "byteOffset": 61224,
      "componentType": 5126,
      "count": 22434,
      "max": [
        235.74649047851563,
        442.9158630371094,
        165.82565307617188
      ],
      "min": [
        -235.7776641845703,
        -8.37252140045166,
        2.7532358169555664
      ],
      "type": "VEC3"
    },
    {
      "bufferView": 2,
      "byteOffset": 330432,
      "componentType": 5126,
      "count": 22434,
      "max": [
        0.9999978542327881,
        0.9999974370002747,
        0.9999701380729675
      ],
      "min": [
        -0.9999978542327881,
        -0.9999991059303284,
        -0.9999072551727295
      ],
      "type": "VEC3"
    },
    {
      "bufferView": 1,
      "byteOffset": 20408,
      "componentType": 5126,
      "count": 22434,
      "max": [
        0.6250002384185791,
        0.9375002980232239
      ],
      "min": [
        0.0,
        0.0
      ],
      "type": "VEC2"
    },
    {
      "bufferView": 0,
      "byteOffset": 30528,
      "componentType": 5125,
      "count": 134592,
      "type": "SCALAR"
    },
    {
      "bufferView": 2,
      "byteOffset": 599640,
      "componentType": 5126,
      "count": 768,
      "max": [
        227.14356994628906,
        -4.039995193481445,
        140.0801544189453
      ],
      "min": [
        -219.410888671875,
        -8.677032470703125,
        135.443115234375
      ],
      "type": "VEC3"
    },
    {
      "bufferView": 2,
      "byteOffset": 608856,
      "componentType": 5126,
      "count": 768,
      "max": [
        0.9951872229576111,
        1.0,
        0.9951847195625305
      ],
      "min": [
        -0.9951872229576111,
        -1.0,
        -0.9951847791671753
      ],
      "type": "VEC3"
    },
    {
      "bufferView": 1,
      "byteOffset": 199880,
      "componentType": 5126,
      "count": 768,
      "max": [
        1.0,
        1.0
      ],
      "min": [
        0.0,
        0.009999990463256836
      ],
      "type": "VEC2"
    },
    {
      "bufferView": 0,
      "byteOffset": 568896,
      "componentType": 5125,
      "count": 1488,
      "type": "SCALAR"
    }
  ],
  "asset": {
    "extras": {
      "author": "mosta.ghazall29 (https://sketchfab.com/mosta.ghazall29)",
      "license": "SKETCHFAB Standard (https://sketchfab.com/licenses)",
      "source": "https://sketchfab.com/3d-models/ray-ban-glasses-ffcc9de0e3304d2484d7ae5b692f6bb1",
      "title": "Ray-Ban glasses"
    },
    "generator": "Sketchfab-16.12.0",
    "version": "2.0"
  },
  "bufferViews": [
    {
      "buffer": 0,
      "byteLength": 574848,
      "name": "floatBufferViews",
      "target": 34963
    },
    {
      "buffer": 0,
      "byteLength": 206024,
      "byteOffset": 574848,
      "byteStride": 8,
      "name": "floatBufferViews",
      "target": 34962
    },
    {
      "buffer": 0,
      "byteLength": 618072,
      "byteOffset": 780872,
      "byteStride": 12,
      "name": "floatBufferViews",
      "target": 34962
    }
  ],
  "buffers": [
    {
      "byteLength": 1398944,
      "uri": "scene.bin"
    }
  ],
  "materials": [
    {
      "doubleSided": true,
      "name": "M_Glass",
      "pbrMetallicRoughness": {
        "baseColorFactor": [
          0.191486,
          0.28125,
          0.186035,
          1.0
        ],
        "metallicFactor": 0.0,
        "roughnessFactor": 0.9577051494623774
      }
    },
    {
      "doubleSided": true,
      "name": "SVGMat_004",
      "pbrMetallicRoughness": {
        "baseColorFactor": [
          0.0,
          0.0,
          0.0,
          1.0
        ],
        "metallicFactor": 0.0,
        "roughnessFactor": 0.9577051494623774
      }
    },
    {
      "doubleSided": true,
      "name": "Material_002",
      "pbrMetallicRoughness": {
        "baseColorFactor": [
          0.0,
          0.0,
          0.0,
          1.0
        ],
        "metallicFactor": 0.0,
        "roughnessFactor": 0.9577051494623774
      }
    },
    {
      "doubleSided": true,
      "name": "Material_004",
      "pbrMetallicRoughness": {
        "metallicFactor": 0.0,
        "roughnessFactor": 0.9577051494623774
      }
    }
  ],
  "meshes": [
    {
      "name": "mo_Retopo_Cube_003_M_Glass_0",
      "primitives": [
        {
          "attributes": {
            "NORMAL": 1,
            "POSITION": 0,
            "TEXCOORD_0": 2
          },
          "indices": 3,
          "material": 0,
          "mode": 4
        }
      ]
    },
    {
      "name": "mo_Retopo_Cube_003_SVGMat_004_0",
      "primitives": [
        {
          "attributes": {
            "NORMAL": 5,
            "POSITION": 4,
            "TEXCOORD_0": 6
          },
          "indices": 7,
          "material": 1,
          "mode": 4
        }
      ]
    },
    {
      "name": "mo_Retopo_Cube_003_Material_002_0",
      "primitives": [
        {
          "attributes": {
            "NORMAL": 9,
            "POSITION": 8,
            "TEXCOORD_0": 10
          },
          "indices": 11,
          "material": 2,
          "mode": 4
        }
      ]
    },
    {
      "name": "mo_Retopo_Cube_003_Material_004_0",
      "primitives": [
        {
          "attributes": {
            "NORMAL": 13,
            "POSITION": 12,
            "TEXCOORD_0": 14
          },
          "indices": 15,
          "material": 3,
          "mode": 4
        }
      ]
    }
  ],
  "nodes": [
    {
      "children": [
        1
      ],
      "matrix": [
        1.0,
        0.0,
        0.0,
        0.0,
        0.0,
        2.220446049250313e-16,
        -1.0,
        0.0,
        0.0,
        1.0,
        2.220446049250313e-16,
        0.0,
        0.0,
        0.0,
        0.0,
        1.0
      ],
      "name": "Sketchfab_model"
    },
    {
      "children": [
        2
      ],
      "matrix": [
        0.009999999776482582,
        0.0,
        0.0,
        0.0,
        0.0,
        -0.009999999776482582,
        0.0,
        0.0,
        0.0,
        0.0,
        -0.009999999776482582,
        0.0,
        0.0,
        0.0,
        0.0,
        1.0
      ],
      "name": "7a0a80224e4f4eadb21c288a4bbdbc08.fbx"
    },
    {
      "children": [
        3
      ],
      "name": "RootNode"
    },
    {
      "children": [
        4,
        5,
        6,
        7
      ],
      "matrix": [
        1.2167965150262262e-09,
        0.1000000014901161,
        0.0,
        0.0,
        -0.1000000014901161,
        1.2167965150262262e-09,
        0.0,
        0.0,
        0.0,
        0.0,
        0.10000000149011612,
        0.0,
        -10.0,
        -1.4702590703964233,
        0.5,
        1.0
      ],
      "name": "mo_Retopo_Cube_003"
    },
    {
      "mesh": 0,
      "name": "mo_Retopo_Cube_003_M_Glass_0"
    },
    {
      "mesh": 1,
      "name": "mo_Retopo_Cube_003_SVGMat_004_0"
    },
    {
      "mesh": 2,
      "name": "mo_Retopo_Cube_003_Material_002_0"
    },
    {
      "mesh": 3,
      "name": "mo_Retopo_Cube_003_Material_004_0"
    }
  ],
  "scene": 0,
  "scenes": [
    {
      "name": "Sketchfab_Scene",
      "nodes": [
        0
      ]
    }
  ]
}
