{"asset":{"generator":"glTF-Transform v4.0.2","version":"2.0","extras":{"author":"Andrea Munegato 3D (https://sketchfab.com/andreamunegato)","license":"CC-BY-4.0 (http://creativecommons.org/licenses/by/4.0/)","source":"https://sketchfab.com/3d-models/glasses-bed4643c801b4a0581333489a5e0b3ea","title":"Glasses"}},"accessors":[{"type":"VEC3","componentType":5126,"count":19867,"max":[0.7622489929199219,0.3558650016784668,0.7163320183753967],"min":[-0.7622489929199219,0.17662300169467926,-0.10487399995326996],"bufferView":0,"byteOffset":0},{"type":"VEC3","componentType":5126,"count":19867,"bufferView":0,"byteOffset":12},{"type":"VEC2","componentType":5126,"count":19867,"bufferView":0,"byteOffset":24},{"type":"SCALAR","componentType":5125,"count":91992,"bufferView":1,"byteOffset":0},{"type":"SCALAR","componentType":5125,"count":14376,"bufferView":1,"byteOffset":367968},{"type":"SCALAR","componentType":5125,"count":4464,"bufferView":1,"byteOffset":425472},{"type":"SCALAR","componentType":5125,"count":42471,"bufferView":1,"byteOffset":443328},{"type":"SCALAR","componentType":5125,"count":3042,"bufferView":1,"byteOffset":613212},{"type":"SCALAR","componentType":5125,"count":960,"bufferView":1,"byteOffset":625380},{"type":"VEC3","componentType":5126,"count":2524,"max":[0.6211349964141846,0.40858399868011475,0.7034620046615601],"min":[-0.6227700114250183,0.009166385047137737,0.6443679928779602],"bufferView":2,"byteOffset":0},{"type":"VEC3","componentType":5126,"count":2524,"bufferView":2,"byteOffset":12},{"type":"VEC2","componentType":5126,"count":2524,"bufferView":2,"byteOffset":24},{"type":"VEC3","componentType":5126,"count":924,"max":[0.6211349964141846,0.4087199866771698,0.703357994556427],"min":[-0.6227700114250183,0.009061384946107864,0.6443790197372437],"bufferView":3,"byteOffset":0},{"type":"VEC3","componentType":5126,"count":924,"bufferView":3,"byteOffset":12},{"type":"VEC2","componentType":5126,"count":924,"bufferView":3,"byteOffset":24},{"type":"VEC3","componentType":5126,"count":8017,"max":[0.7788950204849243,0.2920610010623932,-0.09271100163459778],"min":[-0.7788950204849243,0.0022509999107569456,-0.7093369960784912],"bufferView":4,"byteOffset":0},{"type":"VEC3","componentType":5126,"count":8017,"bufferView":4,"byteOffset":12},{"type":"VEC2","componentType":5126,"count":8017,"bufferView":4,"byteOffset":24},{"type":"VEC3","componentType":5126,"count":549,"max":[0.12841199338436127,0.24316099286079407,0.6715570092201233],"min":[-0.1277969926595688,0.14245200157165527,0.6290180087089539],"bufferView":5,"byteOffset":0},{"type":"VEC3","componentType":5126,"count":549,"bufferView":5,"byteOffset":12},{"type":"VEC2","componentType":5126,"count":549,"bufferView":5,"byteOffset":24},{"type":"VEC3","componentType":5126,"count":396,"max":[0.7665309906005859,0.08478999882936478,-0.6157479882240295],"min":[-0.7665309906005859,0.022836999967694283,-0.6886680126190186],"bufferView":6,"byteOffset":0},{"type":"VEC3","componentType":5126,"count":396,"bufferView":6,"byteOffset":12},{"type":"VEC2","componentType":5126,"count":396,"bufferView":6,"byteOffset":24}],"bufferViews":[{"buffer":0,"byteOffset":0,"byteLength":635744,"byteStride":32,"target":34962},{"buffer":0,"byteOffset":635744,"byteLength":629220,"target":34963},{"buffer":0,"byteOffset":1264964,"byteLength":80768,"byteStride":32,"target":34962},{"buffer":0,"byteOffset":1345732,"byteLength":29568,"byteStride":32,"target":34962},{"buffer":0,"byteOffset":1375300,"byteLength":256544,"byteStride":32,"target":34962},{"buffer":0,"byteOffset":1631844,"byteLength":17568,"byteStride":32,"target":34962},{"buffer":0,"byteOffset":1649412,"byteLength":12672,"byteStride":32,"target":34962}],"samplers":[{"magFilter":9729,"minFilter":9987,"wrapS":10497,"wrapT":10497}],"textures":[{"source":0,"sampler":0}],"images":[{"mimeType":"image/png","uri":"textures/material_diffuse.png"}],"buffers":[{"uri":"scene.bin","byteLength":1662084}],"materials":[{"name":"Base1","doubleSided":true,"pbrMetallicRoughness":{"baseColorFactor":[0.017388,0.017388,0.017388,1],"roughnessFactor":0.29355836054210827,"metallicFactor":0},"extensions":{"KHR_materials_ior":{"ior":1000},"KHR_materials_specular":{}}},{"name":"Glasses1","alphaMode":"BLEND","doubleSided":true,"pbrMetallicRoughness":{"baseColorFactor":[0.0177319702793015,0.010554663396456672,0.010554663396456672,0.1],"roughnessFactor":0.10507299247882584,"metallicFactor":0},"extensions":{"KHR_materials_ior":{"ior":1000},"KHR_materials_specular":{}}},{"name":"Glasses_Side1","alphaMode":"BLEND","doubleSided":true,"pbrMetallicRoughness":{"baseColorFactor":[0.4987199530935721,0.4987199530935721,0.4987199530935721,0.5063644212587175],"roughnessFactor":0.10507299247882584,"metallicFactor":0},"extensions":{"KHR_materials_ior":{"ior":1000},"KHR_materials_specular":{"specularColorFactor":[0.5002842480953857,0.5002842480953857,0.5002842480953857]}}},{"name":"material","doubleSided":true,"pbrMetallicRoughness":{"roughnessFactor":0.09899281931549408,"metallicFactor":0,"baseColorTexture":{"index":0}},"extensions":{"KHR_materials_ior":{"ior":1000},"KHR_materials_specular":{"specularColorFactor":[0.2509971483987864,0.2509971483987864,0.2509971483987864]}}},{"name":"nose1","alphaMode":"BLEND","doubleSided":true,"pbrMetallicRoughness":{"baseColorFactor":[0.14729219488171025,0.14729219488171025,0.14729219488171025,0.2631574947254498],"roughnessFactor":0.4394825164620688,"metallicFactor":0},"extensions":{"KHR_materials_ior":{"ior":1000},"KHR_materials_specular":{"specularColorFactor":[0.555005806565371,0.555005806565371,0.555005806565371]}}},{"name":"Steel1","doubleSided":true,"pbrMetallicRoughness":{"baseColorFactor":[0.15766773041875703,0.15766773041875703,0.15766773041875703,1],"roughnessFactor":0.28139801421544486,"metallicFactor":0},"extensions":{"KHR_materials_ior":{"ior":1000},"KHR_materials_specular":{"specularColorFactor":[0.4394825164620689,0.4394825164620689,0.4394825164620689]}}}],"meshes":[{"name":"Mesh__Base1_0","primitives":[{"attributes":{"NORMAL":1,"POSITION":0,"TEXCOORD_0":2},"mode":4,"material":0,"indices":3}]},{"name":"Mesh__Glasses1_0","primitives":[{"attributes":{"NORMAL":10,"POSITION":9,"TEXCOORD_0":11},"mode":4,"material":1,"indices":4}]},{"name":"Mesh__Glasses_Side1_0","primitives":[{"attributes":{"NORMAL":13,"POSITION":12,"TEXCOORD_0":14},"mode":4,"material":2,"indices":5}]},{"name":"Mesh__T1_0","primitives":[{"attributes":{"NORMAL":16,"POSITION":15,"TEXCOORD_0":17},"mode":4,"material":3,"indices":6}]},{"name":"Mesh__nose1_0","primitives":[{"attributes":{"NORMAL":19,"POSITION":18,"TEXCOORD_0":20},"mode":4,"material":4,"indices":7}]},{"name":"Mesh__Steel1_0","primitives":[{"attributes":{"NORMAL":22,"POSITION":21,"TEXCOORD_0":23},"mode":4,"material":5,"indices":8}]}],"nodes":[{"name":"Sketchfab_model","rotation":[-0.7071067811865475,0,0,0.7071067811865476],"children":[1]},{"name":"14967bdaa53e435587badc28ce8ed67b.fbx","rotation":[0.7071067811865475,0,0,0.7071067811865476],"children":[2]},{"name":"RootNode","children":[3]},{"name":"Mesh","children":[4,5,6,7,8,9]},{"name":"Mesh__Base1_0","mesh":0},{"name":"Mesh__Glasses1_0","mesh":1},{"name":"Mesh__Glasses_Side1_0","mesh":2},{"name":"Mesh__T1_0","mesh":3},{"name":"Mesh__nose1_0","mesh":4},{"name":"Mesh__Steel1_0","mesh":5}],"scenes":[{"name":"Sketchfab_Scene","nodes":[0]}],"scene":0,"extensionsUsed":["KHR_materials_ior","KHR_materials_specular"]}