{
  "accessors": [
    {
      "bufferView": 2,
      "componentType": 5126,
      "count": 3844,
      "max": [
        4.154209136962891,
        0.12294899672269821,
        1.4600659608840942
      ],
      "min": [
        -4.154209136962891,
        -0.5825309753417969,
        -1.4886939525604248
      ],
      "type": "VEC3"
    },
    {
      "bufferView": 2,
      "byteOffset": 46128,
      "componentType": 5126,
      "count": 3844,
      "max": [
        0.9995239973068237,
        0.9999945163726807,
        0.9999847412109375
      ],
      "min": [
        -0.9995241165161133,
        -0.9998828768730164,
        -0.9999005198478699
      ],
      "type": "VEC3"
    },
    {
      "bufferView": 1,
      "componentType": 5126,
      "count": 3844,
      "max": [
        0.625,
        0.25
      ],
      "min": [
        0.375,
        0.0
      ],
      "type": "VEC2"
    },
    {
      "bufferView": 0,
      "componentType": 5125,
      "count": 23040,
      "type": "SCALAR"
    },
    {
      "bufferView": 2,
      "byteOffset": 92256,
      "componentType": 5126,
      "count": 360,
      "max": [
        4.110619068145752,
        0.5367149710655212,
        1.1846649646759033
      ],
      "min": [
        -4.142273902893066,
        0.25950101017951965,
        1.0384889841079712
      ],
      "type": "VEC3"
    },
    {
      "bufferView": 2,
      "byteOffset": 96576,
      "componentType": 5126,
      "count": 360,
      "max": [
        0.999887228012085,
        0.999887228012085,
        1.0
      ],
      "min": [
        -0.999887228012085,
        -0.999887228012085,
        -1.0
      ],
      "type": "VEC3"
    },
    {
      "bufferView": 1,
      "byteOffset": 30752,
      "componentType": 5126,
      "count": 360,
      "max": [
        0.875,
        1.0
      ],
      "min": [
        0.125,
        -0.0
      ],
      "type": "VEC2"
    },
    {
      "bufferView": 0,
      "byteOffset": 92160,
      "componentType": 5125,
      "count": 1128,
      "type": "SCALAR"
    },
    {
      "bufferView": 2,
      "byteOffset": 100896,
      "componentType": 5126,
      "count": 8032,
      "max": [
        4.522090911865234,
        7.135982990264893,
        1.5843100547790527
      ],
      "min": [
        -4.55674409866333,
        -0.6881870031356812,
        -1.53672194480896
      ],
      "type": "VEC3"
    },
    {
      "bufferView": 2,
      "byteOffset": 197280,
      "componentType": 5126,
      "count": 8032,
      "max": [
        1.0,
        0.9999997615814209,
        1.0
      ],
      "min": [
        -1.0,
        -0.9999988675117493,
        -1.0
      ],
      "type": "VEC3"
    },
    {
      "bufferView": 3,
      "componentType": 5126,
      "count": 8032,
      "max": [
        0.9999996423721313,
        0.9990562796592712,
        0.9999474287033081,
        1.0
      ],
      "min": [
        -0.9999998211860657,
        -0.9988597631454468,
        -0.9991319179534912,
        -1.0
      ],
      "type": "VEC4"
    },
    {
      "bufferView": 1,
      "byteOffset": 33632,
      "componentType": 5126,
      "count": 8032,
      "max": [
        1.0,
        0.9102969765663147
      ],
      "min": [
        0.0,
        0.0
      ],
      "type": "VEC2"
    },
    {
      "bufferView": 0,
      "byteOffset": 96672,
      "componentType": 5125,
      "count": 40884,
      "type": "SCALAR"
    },
    {
      "bufferView": 2,
      "byteOffset": 293664,
      "componentType": 5126,
      "count": 3031,
      "max": [
        4.572763919830322,
        7.1109538078308105,
        1.3062599897384644
      ],
      "min": [
        4.019257068634033,
        0.16507500410079956,
        -0.7434279918670654
      ],
      "type": "VEC3"
    },
    {
      "bufferView": 2,
      "byteOffset": 330036,
      "componentType": 5126,
      "count": 3031,
      "max": [
        0.9999998807907104,
        0.9905891418457031,
        0.9999997615814209
      ],
      "min": [
        -0.9999997615814209,
        -0.999298632144928,
        -0.9999987483024597
      ],
      "type": "VEC3"
    },
    {
      "bufferView": 3,
      "byteOffset": 128512,
      "componentType": 5126,
      "count": 3031,
      "max": [
        0.9999998807907104,
        0.8652621507644653,
        0.9999307990074158,
        1.0
      ],
      "min": [
        -0.811671793460846,
        -0.9737229943275452,
        -0.9991868138313293,
        -1.0
      ],
      "type": "VEC4"
    },
    {
      "bufferView": 1,
      "byteOffset": 97888,
      "componentType": 5126,
      "count": 3031,
      "max": [
        0.964028000831604,
        0.9431300163269043
      ],
      "min": [
        0.018014999106526375,
        1.9999999494757503e-05
      ],
      "type": "VEC2"
    },
    {
      "bufferView": 0,
      "byteOffset": 260208,
      "componentType": 5125,
      "count": 15660,
      "type": "SCALAR"
    }
  ],
  "asset": {
    "extras": {
      "author": "Leonardo_g (https://sketchfab.com/Leonardo_g)",
      "license": "CC-BY-4.0 (http://creativecommons.org/licenses/by/4.0/)",
      "source": "https://sketchfab.com/3d-models/maya-3d-modeling-of-rayban-glasses-for-children-07c7d65777054b758fba51a044ffd586",
      "title": "Maya 3D modeling of Rayban glasses for children"
    },
    "generator": "Sketchfab-16.28.0",
    "version": "2.0"
  },
  "bufferViews": [
    {
      "buffer": 0,
      "byteLength": 322848,
      "name": "floatBufferViews",
      "target": 34963
    },
    {
      "buffer": 0,
      "byteLength": 122136,
      "byteOffset": 322848,
      "byteStride": 8,
      "name": "floatBufferViews",
      "target": 34962
    },
    {
      "buffer": 0,
      "byteLength": 366408,
      "byteOffset": 444984,
      "byteStride": 12,
      "name": "floatBufferViews",
      "target": 34962
    },
    {
      "buffer": 0,
      "byteLength": 177008,
      "byteOffset": 811392,
      "byteStride": 16,
      "name": "floatBufferViews",
      "target": 34962
    }
  ],
  "buffers": [
    {
      "byteLength": 988400,
      "uri": "scene.bin"
    }
  ],
  "extensionsUsed": [
    "KHR_materials_clearcoat",
    "KHR_materials_transmission"
  ],
  "images": [
    {
      "uri": "textures/aiStandardSurface1SG_clearcoat_normal.png"
    },
    {
      "uri": "textures/aiStandardSurface3SG_metallicRoughness.png"
    },
    {
      "uri": "textures/set1_baseColor.png"
    },
    {
      "uri": "textures/set1_metallicRoughness.png"
    }
  ],
  "materials": [
    {
      "alphaMode": "BLEND",
      "doubleSided": true,
      "extensions": {
        "KHR_materials_clearcoat": {
          "clearcoatFactor": 1.0,
          "clearcoatNormalTexture": {
            "index": 0
          },
          "clearcoatRoughnessFactor": 0.12677263110038645
        },
        "KHR_materials_transmission": {
          "transmissionFactor": 0.24956431015288494
        }
      },
      "name": "aiStandardSurface1SG",
      "pbrMetallicRoughness": {
        "baseColorFactor": [
          1.0,
          1.0,
          1.0,
          0.7504356898471151
        ],
        "metallicFactor": 0.0
      }
    },
    {
      "doubleSided": true,
      "name": "aiStandardSurface3SG",
      "pbrMetallicRoughness": {
        "baseColorFactor": [
          0.37296621767951,
          0.37296621767951,
          0.37296621767951,
          1.0
        ],
        "metallicRoughnessTexture": {
          "index": 1
        }
      }
    },
    {
      "doubleSided": true,
      "name": "set1",
      "normalTexture": {
        "index": 0
      },
      "pbrMetallicRoughness": {
        "baseColorTexture": {
          "index": 2
        },
        "metallicRoughnessTexture": {
          "index": 3
        }
      }
    }
  ],
  "meshes": [
    {
      "name": "Object_0",
      "primitives": [
        {
          "attributes": {
            "NORMAL": 1,
            "POSITION": 0,
            "TEXCOORD_0": 2
          },
          "indices": 3,
          "material": 0,
          "mode": 4
        }
      ]
    },
    {
      "name": "Object_1",
      "primitives": [
        {
          "attributes": {
            "NORMAL": 5,
            "POSITION": 4,
            "TEXCOORD_0": 6
          },
          "indices": 7,
          "material": 1,
          "mode": 4
        }
      ]
    },
    {
      "name": "Object_2",
      "primitives": [
        {
          "attributes": {
            "NORMAL": 9,
            "POSITION": 8,
            "TANGENT": 10,
            "TEXCOORD_0": 11
          },
          "indices": 12,
          "material": 2,
          "mode": 4
        }
      ]
    },
    {
      "name": "Object_3",
      "primitives": [
        {
          "attributes": {
            "NORMAL": 14,
            "POSITION": 13,
            "TANGENT": 15,
            "TEXCOORD_0": 16
          },
          "indices": 17,
          "material": 2,
          "mode": 4
        }
      ]
    }
  ],
  "nodes": [
    {
      "children": [
        1
      ],
      "matrix": [
        1.0,
        0.0,
        0.0,
        0.0,
        0.0,
        2.220446049250313e-16,
        -1.0,
        0.0,
        0.0,
        1.0,
        2.220446049250313e-16,
        0.0,
        0.0,
        0.0,
        0.0,
        1.0
      ],
      "name": "Sketchfab_model"
    },
    {
      "children": [
        2,
        3,
        4,
        5
      ],
      "name": "Int_Lentes_Vrds - copia.obj.cleaner.materialmerger.gles"
    },
    {
      "mesh": 0,
      "name": "Object_2"
    },
    {
      "mesh": 1,
      "name": "Object_3"
    },
    {
      "mesh": 2,
      "name": "Object_4"
    },
    {
      "mesh": 3,
      "name": "Object_5"
    }
  ],
  "samplers": [
    {
      "magFilter": 9729,
      "minFilter": 9987,
      "wrapS": 10497,
      "wrapT": 10497
    }
  ],
  "scene": 0,
  "scenes": [
    {
      "name": "Sketchfab_Scene",
      "nodes": [
        0
      ]
    }
  ],
  "textures": [
    {
      "sampler": 0,
      "source": 0
    },
    {
      "sampler": 0,
      "source": 1
    },
    {
      "sampler": 0,
      "source": 2
    },
    {
      "sampler": 0,
      "source": 3
    }
  ]
}
