<?xml version="1.0" encoding="UTF-8"?><svg id="Layer_2" xmlns="http://www.w3.org/2000/svg" xmlns:xlink="http://www.w3.org/1999/xlink" viewBox="0 0 210.67 217.63"><defs><style>.cls-1{fill:none;}.cls-2{fill:#004b8d;}.cls-3{fill:#f49323;}.cls-4{clip-path:url(#clippath);}</style><clipPath id="clippath"><circle class="cls-1" cx="109.48" cy="99.41" r="69.04"/></clipPath></defs><g id="Camada_1"><rect class="cls-1" width="210.67" height="210.67"/><path class="cls-3" d="M90.71,4.9c-21.22,3.05-39.69,13.12-53.42,27.51,13.36-12.74,30.66-21.59,50.32-24.42,50.26-7.23,96.86,27.66,104.09,77.92,4.18,29.04-5.71,56.87-24.5,76.58,20.79-19.83,32-49.07,27.6-79.67C187.58,32.56,140.98-2.33,90.71,4.9Z"/><path class="cls-2" d="M29.57,114.14c-3.79-26.37,4.02-51.73,19.55-70.93C24.75,62.92,11.08,94.58,15.86,127.85c7.23,50.26,53.83,85.15,104.09,77.92,23.89-3.43,44.3-15.77,58.38-33.16-12.44,10.06-27.67,17.01-44.67,19.45-50.26,7.23-96.86-27.66-104.09-77.92Z"/><g class="cls-4"><image width="287" height="376" transform="translate(37.14 30.96) scale(.5)" xlink:href="../assets/KevinAshton.png"/></g></g></svg>