<?xml version="1.0" encoding="UTF-8"?><svg id="Layer_2" xmlns="http://www.w3.org/2000/svg" viewBox="0 0 502.39 125.73"><defs><style>.cls-1{fill:#004b8d;}</style></defs><g id="Camada_1"><path class="cls-1" d="M141.1,61.63c2.54-12.9,11.21-21.33,24.54-21.33s21.98,8.6,23.89,21.33h-48.43ZM394.6,84.31h0c-2.79,14.65-17.91,16.84-21.34,17.02-24.45,1.29-25.32-15.44-17.1-20.53,11.05-6.85,38.54-3,38.54-3,0,.99.26,3.48-.1,6.5M502.39,101.15c-.57.01-1.13.03-1.72.03-23.71,0-40.89-15.17-40.89-36.07v-.47c0-20,17.23-35.66,39.2-35.66,1.18,0,2.32.04,3.42.1V5.06c-1.02-.04-2.07-.04-3.13-.04-38.17,0-68.03,20.27-74.33,48.74-2.71-22.56-18.37-35.69-50.07-35.69-1.42,0-6.34.02-7.68.06v24.24c6.26.06,14.83,1.12,18.65,3.13,5.61,2.95,8.52,7.93,8.66,14.67-7.65-.9-16.33-1.51-23.85-1.7-29.78-.76-44.94,8.77-48.6,24.18v-15.74c0-27.11-16.57-48.26-51.63-48.26-32.12,0-48.72,17.71-51.31,41.49-4.09-23.44-20.95-42.64-53.46-42.64s-56.02,23.56-56.02,52.15v.37c0,.7.02,1.4.04,2.1-6.62-10.8-21.3-16.68-42.65-21.3-25.41-5.42-28.99-8.03-28.99-16.06v-.36c0-5.92,6.52-10.63,18.9-10.63,6.32,0,14.57,1.72,20.36,3.86V2c-5.39-.93-13.65-2-19.93-2C27.3,0,5.9,14.68,5.9,36.87v.33c0,24.27,19.09,31.07,48.71,37.36,24.57,5.24,26.88,8.73,26.88,15.55v.35c0,7.16-7.98,11.52-21.22,11.52-16.8,0-27.93-5.76-41.16-14.84L0,106.17c17.65,13.09,37.39,19.56,59.65,19.56,30.8,0,52.68-12.84,53.93-35.8,8.36,19.53,29.2,31.88,55.23,31.88.98,0,4.15-.13,5.12-.15v-22.84c-.81.03-3.86.19-4.71.19-14.38,0-24.52-6.71-27.71-19.63h77.23v40.59h32.48v-55.01c.59-10.04,4.53-21.89,19.2-21.89s18.89,11.85,19.46,21.89v55.01h32.17v-21.99c3.82,15.12,19.48,23.28,37.99,23.28,15.66,0,26.45-5.07,34.25-12.72v11.55h31.08v-41.76c7.18,27.1,36.82,46.85,73.35,46.85,1.28,0,2.46-.03,3.68-.06v-23.96Z"/></g></svg>