<?xml version="1.0" encoding="UTF-8"?><svg id="Camada_2" xmlns="http://www.w3.org/2000/svg" viewBox="0 0 127.17 122.69"><defs><style>.cls-1{fill:#fff;}.cls-2{fill:#f7941d;}</style></defs><g id="Camada_1-2"><path class="cls-2" d="M49.28,99.58c-.85-1.94-2.4-3.44-4.38-4.22-1.97-.78-4.13-.74-6.08.11-1.94.85-3.44,2.4-4.22,4.38-.78,1.97-.74,4.13.11,6.08l.02.05c.85,1.94,2.4,3.44,4.38,4.22.94.37,1.92.55,2.9.55,1.08,0,2.16-.22,3.17-.67,1.94-.85,3.44-2.4,4.22-4.38.78-1.97.74-4.13-.11-6.08l-.02-.05ZM46.16,104.42c-.43,1.11-1.27,1.98-2.36,2.45-1.09.48-2.3.5-3.41.06-1.12-.44-2.01-1.3-2.47-2.41-.48-1.09-.5-2.3-.06-3.41.43-1.11,1.27-1.98,2.36-2.45,1.09-.48,2.3-.5,3.41-.06,1.11.43,1.98,1.27,2.45,2.36.49,1.1.53,2.33.08,3.46h0Z"/><path class="cls-1" d="M114.47,45.7c-.57-.78-1.66-.95-2.44-.38s-.95,1.66-.38,2.44c3.4,4.66,4.73,10.55,3.66,16.15-1.76,9.21-9.51,16.16-18.84,16.88-1.57.12-2.9,1.25-3.33,2.81l-.68,2.54c-.31,1.15-1.05,2.11-2.07,2.7-1.03.59-2.23.75-3.38.44-1.15-.31-2.11-1.04-2.7-2.07-.59-1.03-.75-2.23-.44-3.38l.68-2.54c1.39-5.19,5.91-8.96,11.23-9.38,5.34-.42,9.78-4.4,10.79-9.68,1.11-5.79-2.27-11.59-7.85-13.49-3.15-1.07-6.56-.73-9.41.76.16-1.56.19-3.15.08-4.75-.11-1.56-.36-3.09-.74-4.57,4.22-1.32,8.75-1.29,12.93.13,1.64.56,3.2,1.32,4.65,2.27.29.19.63.29.95.29.57,0,1.13-.28,1.46-.79.53-.81.3-1.89-.5-2.42-1.69-1.11-3.52-2-5.44-2.65-4.89-1.66-10.2-1.7-15.12-.14-3.76-9.51-12.78-16.43-23.4-17.13-13.37-.88-25.38,8.27-28.24,21.13-6.07-3.3-13.3-3.9-19.83-1.55C4.16,43.62-2.52,56.54.89,68.73c.3,1.07.68,2.15,1.14,3.2.85,1.94,2.4,3.44,4.38,4.22,1.97.78,4.13.74,6.08-.11,1.94-.85,3.44-2.4,4.22-4.38s.74-4.13-.11-6.08c-.16-.36-.29-.74-.4-1.12-1.18-4.22,1.15-8.7,5.3-10.19,3.92-1.41,8.33.3,10.27,3.99,1.77,3.37,1.07,7.53-1.7,10.12-4.99,4.66-6.49,12.01-3.75,18.29l1.05,2.41c1.3,2.98,4.23,4.77,7.29,4.77,1.06,0,2.13-.21,3.16-.66,1.94-.85,3.44-2.4,4.22-4.38s.74-4.13-.11-6.08l-1.05-2.41c-.06-.13-.03-.27.03-.32.73-.68,1.41-1.41,2.05-2.16.62-.74.52-1.84-.22-2.46-.74-.62-1.84-.52-2.46.22-.54.65-1.13,1.27-1.75,1.85-1.15,1.08-1.5,2.79-.85,4.27l1.05,2.41c.48,1.09.5,2.3.06,3.41-.43,1.11-1.27,1.98-2.36,2.45-2.25.98-4.88-.05-5.86-2.3l-1.05-2.41c-2.15-4.93-.97-10.69,2.93-14.34,3.92-3.66,4.9-9.54,2.4-14.3-2.74-5.22-9-7.65-14.55-5.65-5.86,2.11-9.15,8.44-7.48,14.42.15.54.34,1.07.56,1.57.48,1.09.5,2.3.06,3.41-.43,1.11-1.27,1.98-2.36,2.45-1.09.48-2.3.5-3.41.06s-1.98-1.27-2.45-2.36c-.39-.9-.72-1.82-.97-2.74-2.92-10.44,2.8-21.51,13.03-25.19,5.99-2.16,12.67-1.41,18.09,1.98-.06.73-.09,1.46-.09,2.18,0,4.8,3.9,8.7,8.7,8.7,0,0,.02,0,.02,0,1.49,4.38,1.49,9.15-.04,13.57-.31.91.17,1.91,1.08,2.22.19.07.38.1.57.1.72,0,1.4-.45,1.65-1.18,1.73-5.02,1.78-10.43.18-15.43,3.08-1.34,5.24-4.41,5.24-7.98,0-.46.03-.92.09-1.36.7-4.98,5.2-8.63,10.25-8.29,4.77.31,8.63,4.14,8.98,8.91.32,4.36-2.32,8.42-6.43,9.87-7.13,2.52-11.93,9.33-11.93,16.93v2.95c0,4.8,3.9,8.7,8.7,8.7s8.7-3.9,8.7-8.7v-2.95c0-.24.13-.45.32-.52,8.19-2.9,14.3-9.49,16.8-17.45,2.19-2.8,6.01-3.95,9.39-2.8,3.94,1.34,6.33,5.43,5.55,9.52-.72,3.74-3.86,6.56-7.63,6.86-6.8.53-12.56,5.34-14.33,11.96l-.68,2.54c-.55,2.05-.27,4.19.79,6.03,1.06,1.84,2.77,3.15,4.82,3.7,2.03.55,4.19.27,6.03-.79,1.84-1.06,3.15-2.77,3.7-4.82l.68-2.54c.04-.15.15-.23.23-.24,10.89-.85,19.94-8.95,22-19.71,1.25-6.55-.3-13.42-4.27-18.86h0ZM70.22,69.01c-1.58.56-2.65,2.09-2.65,3.81v2.95c0,2.87-2.34,5.21-5.21,5.21s-5.21-2.34-5.21-5.21v-2.95c0-6.13,3.86-11.61,9.6-13.64,5.58-1.97,9.18-7.49,8.75-13.42-.47-6.5-5.73-11.72-12.23-12.14-.29-.02-.58-.03-.87-.03-6.51,0-12.16,4.83-13.07,11.32-.08.6-.13,1.22-.13,1.84,0,2.87-2.34,5.21-5.21,5.21s-5.21-2.34-5.21-5.21c0-1.1.08-2.2.23-3.28,1.7-12.17,12.65-21.06,24.94-20.26,11.66.76,21.1,10.13,21.95,21.79.77,10.6-5.67,20.47-15.67,24h0Z"/><path class="cls-2" d="M85.46,95.08c-2.05-.55-4.19-.27-6.03.79s-3.15,2.77-3.7,4.82v.05c-1.15,4.23,1.37,8.59,5.6,9.73.69.18,1.38.27,2.05.27,3.51,0,6.73-2.34,7.68-5.89v-.05c.56-2.05.28-4.19-.78-6.03-1.06-1.84-2.77-3.15-4.82-3.7h0ZM87.7,103.9v.05c-.65,2.37-3.09,3.78-5.46,3.15-2.37-.64-3.78-3.08-3.15-5.45.3-1.17,1.04-2.15,2.09-2.76,1.03-.59,2.23-.75,3.38-.44,1.15.31,2.11,1.04,2.7,2.07.59,1.03.75,2.23.44,3.38h0Z"/><path class="cls-2" d="M62.36,87.72c-4.8,0-8.7,3.9-8.7,8.7v.06c0,4.8,3.9,8.7,8.7,8.7s8.7-3.9,8.7-8.7v-.06c0-4.8-3.9-8.7-8.7-8.7ZM67.57,96.48c0,2.87-2.34,5.21-5.21,5.21s-5.21-2.34-5.21-5.21v-.06c0-2.87,2.34-5.21,5.21-5.21s5.21,2.34,5.21,5.21v.06Z"/><path class="cls-2" d="M126.46,104.31c-.1-.02-10.42-2.44-10.42-15.72,0-.5-.4-.9-.9-.9s-.9.4-.9.9c0,13.23-9.99,15.63-10.42,15.72-.49.11-.79.59-.69,1.07.08.34.34.61.69.69.43.09,10.42,2.49,10.42,15.72,0,.5.4.9.9.9s.9-.4.9-.9c0-13.23,9.99-15.63,10.42-15.72.49-.11.79-.59.69-1.07-.08-.34-.34-.61-.69-.69ZM115.14,115.28c-1.28-4.44-4.41-8.11-8.58-10.09,4.17-1.98,7.3-5.66,8.58-10.09,1.28,4.44,4.41,8.11,8.58,10.09-4.17,1.98-7.3,5.66-8.58,10.09Z"/><path class="cls-2" d="M5.57,15.48c.08.02,8.46,1.99,8.46,12.82,0,.5.4.9.9.9s.9-.4.9-.9h0c0-10.78,8.13-12.74,8.46-12.82.49-.11.79-.59.69-1.07-.08-.34-.34-.61-.69-.69-.09-.02-8.46-1.99-8.46-12.82,0-.5-.4-.9-.9-.9s-.9.4-.9.9c0,10.78-8.12,12.74-8.46,12.82-.49.11-.79.59-.69,1.07.08.34.34.61.69.69h0ZM14.93,6.79c1.11,3.39,3.54,6.2,6.73,7.81-3.19,1.61-5.61,4.41-6.73,7.81-1.12-3.39-3.53-6.2-6.72-7.81,3.19-1.61,5.61-4.41,6.72-7.81Z"/></g></svg>