<?xml version="1.0" encoding="UTF-8"?><svg id="Layer_2" xmlns="http://www.w3.org/2000/svg" viewBox="0 0 226.67 174.22"><defs><style>.cls-1{fill:#fff;}.cls-1,.cls-2{fill-rule:evenodd;}.cls-3{fill:none;}.cls-2{fill:#f49323;}</style></defs><g id="Camada_1"><path id="_329934272" class="cls-1" d="M114.14,132.22c-8.56,0-16.51-6.2-22.41-17.46-5.73-10.93-8.88-25.42-8.88-40.82s3.15-29.89,8.88-40.82c5.9-11.26,13.86-17.46,22.41-17.46s16.51,6.2,22.41,17.46c5.73,10.93,8.88,25.42,8.88,40.82s-3.15,29.89-8.88,40.82c-5.9,11.26-13.86,17.46-22.41,17.46ZM114.14,18.88c-7.3,0-14.25,5.59-19.57,15.74-5.49,10.48-8.51,24.44-8.51,39.33s3.02,28.85,8.51,39.33c5.32,10.15,12.26,15.74,19.57,15.74s14.25-5.59,19.57-15.74c5.49-10.48,8.51-24.44,8.51-39.33s-3.02-28.85-8.51-39.33c-5.32-10.15-12.27-15.74-19.57-15.74h0Z"/><path id="_329934176" class="cls-1" d="M114.14,53.97c-16.08,0-31.05-6.41-42.15-18.04-.61-.64-.59-1.66.05-2.27.64-.61,1.66-.59,2.27.05,10.49,10.99,24.64,17.04,39.83,17.04s29.34-6.05,39.83-17.05c.61-.64,1.63-.66,2.27-.05.64.61.66,1.63.05,2.27-11.11,11.63-26.08,18.04-42.15,18.04h0Z"/><path id="_329934080" class="cls-1" d="M155.13,114.69c-.42,0-.85-.17-1.16-.5-10.49-10.99-24.64-17.05-39.83-17.05s-29.2,6-39.68,16.89c-.62.64-1.63.66-2.27.04-.64-.61-.66-1.63-.04-2.27,11.09-11.53,26-17.88,41.99-17.88s31.05,6.41,42.15,18.04c.61.64.59,1.66-.05,2.27-.31.3-.71.44-1.11.44h0Z"/><path id="_329933984" class="cls-1" d="M170.81,75.55H57.47c-.89,0-1.61-.72-1.61-1.61s.72-1.6,1.61-1.6h113.34c.89,0,1.61.72,1.61,1.6s-.72,1.61-1.61,1.61Z"/><path id="_211925448" class="cls-1" d="M114.14,132.22c-.89,0-1.61-.72-1.61-1.61V17.28c0-.89.72-1.61,1.61-1.61s1.61.72,1.61,1.61v113.34c0,.89-.72,1.61-1.61,1.61Z"/><path id="_329507584" class="cls-1" d="M114.14,132.22c-32.13,0-58.28-26.14-58.28-58.28S82,15.67,114.14,15.67s58.28,26.14,58.28,58.27-26.14,58.28-58.28,58.28ZM114.14,18.88c-30.36,0-55.06,24.7-55.06,55.06s24.7,55.07,55.06,55.07,55.06-24.7,55.06-55.07-24.7-55.06-55.06-55.06h0Z"/><path id="_330402120" class="cls-1" d="M152.66,145.71h-77.06c-.89,0-1.6-.72-1.6-1.61v-12.84c0-.89.72-1.61,1.6-1.61h77.06c.89,0,1.61.72,1.61,1.61v12.84c0,.89-.72,1.61-1.61,1.61ZM77.21,142.5h73.85v-9.63h-73.85v9.63Z"/><path id="_328495344" class="cls-1" d="M175.14,158.55H53.13c-4.43,0-8.03-3.6-8.03-8.03s3.6-8.03,8.03-8.03h122.01c4.43,0,8.03,3.6,8.03,8.03s-3.6,8.03-8.03,8.03h0ZM53.13,145.71c-2.66,0-4.82,2.16-4.82,4.82s2.16,4.82,4.82,4.82h122.01c2.66,0,4.82-2.16,4.82-4.82s-2.16-4.82-4.82-4.82H53.13Z"/><path id="_330339416" class="cls-2" d="M178.35,123.23c-5.31,0-9.63-4.32-9.63-9.63s4.32-9.63,9.63-9.63,9.63,4.32,9.63,9.63-4.32,9.63-9.63,9.63ZM178.35,107.18c-3.54,0-6.42,2.88-6.42,6.42s2.88,6.42,6.42,6.42,6.42-2.88,6.42-6.42-2.88-6.42-6.42-6.42Z"/><path id="_210177496" class="cls-2" d="M51.53,136.08c-7.08,0-12.84-5.76-12.84-12.84s5.76-12.85,12.84-12.85,12.84,5.76,12.84,12.85-5.76,12.84-12.84,12.84ZM51.53,113.6c-5.31,0-9.63,4.32-9.63,9.63s4.32,9.63,9.63,9.63,9.63-4.32,9.63-9.63-4.32-9.63-9.63-9.63Z"/><path id="_329016568" class="cls-2" d="M59.55,31.73c-4.43,0-8.03-3.6-8.03-8.03s3.6-8.03,8.03-8.03,8.03,3.6,8.03,8.03-3.6,8.03-8.03,8.03ZM59.55,18.88c-2.66,0-4.82,2.16-4.82,4.82s2.16,4.82,4.82,4.82,4.82-2.16,4.82-4.82-2.16-4.82-4.82-4.82Z"/><rect class="cls-3" width="226.67" height="174.22"/></g></svg>