<?xml version="1.0" encoding="UTF-8" standalone="no"?>
<!DOCTYPE svg PUBLIC "-//W3C//DTD SVG 1.1//EN" "http://www.w3.org/Graphics/SVG/1.1/DTD/svg11.dtd">
<svg width="100%" height="100%" viewBox="0 0 217 48" version="1.1" xmlns="http://www.w3.org/2000/svg" xmlns:xlink="http://www.w3.org/1999/xlink" xml:space="preserve" xmlns:serif="http://www.serif.com/" style="fill-rule:evenodd;clip-rule:evenodd;stroke-linejoin:round;stroke-miterlimit:2;">
    <g transform="matrix(1,0,0,1,-1455,-1568)">
        <g transform="matrix(1,0,0,2.00133,0,0)">
            <g id="papers-template-logo-v2" transform="matrix(1,0,0,1,336.911,132.012)">
                <g transform="matrix(2.91701,0,0,1.45753,-1112.35,-6.151)">
                    <path d="M764.88,460.188L764.88,451.548L768.528,451.548C768.612,451.548 768.725,451.551 768.867,451.557C769.009,451.563 769.136,451.576 769.248,451.596C769.764,451.676 770.187,451.846 770.517,452.106C770.847,452.366 771.09,452.693 771.246,453.087C771.402,453.481 771.48,453.92 771.48,454.404C771.48,454.888 771.401,455.327 771.243,455.721C771.085,456.115 770.841,456.442 770.511,456.702C770.181,456.962 769.76,457.132 769.248,457.212C769.136,457.228 769.008,457.24 768.864,457.248C768.72,457.256 768.608,457.26 768.528,457.26L766.512,457.26L766.512,460.188L764.88,460.188ZM766.512,455.736L768.456,455.736C768.54,455.736 768.632,455.732 768.732,455.724C768.832,455.716 768.924,455.7 769.008,455.676C769.228,455.616 769.398,455.515 769.518,455.373C769.638,455.231 769.721,455.073 769.767,454.899C769.813,454.725 769.836,454.56 769.836,454.404C769.836,454.248 769.813,454.083 769.767,453.909C769.721,453.735 769.638,453.577 769.518,453.435C769.398,453.293 769.228,453.192 769.008,453.132C768.924,453.108 768.832,453.092 768.732,453.084C768.632,453.076 768.54,453.072 768.456,453.072L766.512,453.072L766.512,455.736Z" style="fill:rgb(24,27,32);fill-rule:nonzero;"/>
                    <path d="M778.2,460.188L780.924,451.548L783.042,451.548L785.766,460.188L784.278,460.188L781.806,452.436L782.13,452.436L779.688,460.188L778.2,460.188ZM779.718,458.316L779.718,456.966L784.254,456.966L784.254,458.316L779.718,458.316Z" style="fill:rgb(24,27,32);fill-rule:nonzero;"/>
                    <path d="M792.846,460.188L792.846,451.548L796.338,451.548C796.422,451.548 796.526,451.551 796.65,451.557C796.774,451.563 796.892,451.576 797.004,451.596C797.484,451.672 797.885,451.836 798.207,452.088C798.529,452.34 798.77,452.658 798.93,453.042C799.09,453.426 799.17,453.85 799.17,454.314C799.17,454.782 799.09,455.208 798.93,455.592C798.77,455.976 798.529,456.294 798.207,456.546C797.885,456.798 797.484,456.962 797.004,457.038C796.892,457.054 796.773,457.066 796.647,457.074C796.521,457.082 796.418,457.086 796.338,457.086L794.1,457.086L794.1,460.188L792.846,460.188ZM794.1,455.898L796.29,455.898C796.37,455.898 796.459,455.894 796.557,455.886C796.655,455.878 796.748,455.864 796.836,455.844C797.092,455.784 797.298,455.673 797.454,455.511C797.61,455.349 797.722,455.162 797.79,454.95C797.858,454.738 797.892,454.526 797.892,454.314C797.892,454.102 797.858,453.891 797.79,453.681C797.722,453.471 797.61,453.285 797.454,453.123C797.298,452.961 797.092,452.85 796.836,452.79C796.748,452.766 796.655,452.75 796.557,452.742C796.459,452.734 796.37,452.73 796.29,452.73L794.1,452.73L794.1,455.898Z" style="fill:rgb(24,27,32);fill-rule:nonzero;"/>
                    <path d="M806.37,460.188L806.37,451.548L811.83,451.548L811.83,452.562L807.438,452.562L807.438,455.268L811.11,455.268L811.11,456.282L807.438,456.282L807.438,459.174L811.83,459.174L811.83,460.188L806.37,460.188Z" style="fill:rgb(24,27,32);fill-rule:nonzero;"/>
                    <path d="M819.27,460.188L819.27,451.548L822.606,451.548C822.69,451.548 822.785,451.551 822.891,451.557C822.997,451.563 823.104,451.576 823.212,451.596C823.664,451.664 824.047,451.821 824.361,452.067C824.675,452.313 824.913,452.622 825.075,452.994C825.237,453.366 825.318,453.778 825.318,454.23C825.318,454.882 825.146,455.448 824.802,455.928C824.458,456.408 823.966,456.71 823.326,456.834L823.02,456.906L820.152,456.906L820.152,460.188L819.27,460.188ZM824.502,460.188L822.798,456.672L823.644,456.348L825.516,460.188L824.502,460.188ZM820.152,456.066L822.582,456.066C822.654,456.066 822.738,456.062 822.834,456.054C822.93,456.046 823.024,456.032 823.116,456.012C823.412,455.948 823.655,455.826 823.845,455.646C824.035,455.466 824.177,455.252 824.271,455.004C824.365,454.756 824.412,454.498 824.412,454.23C824.412,453.962 824.365,453.703 824.271,453.453C824.177,453.203 824.035,452.988 823.845,452.808C823.655,452.628 823.412,452.506 823.116,452.442C823.024,452.422 822.93,452.409 822.834,452.403C822.738,452.397 822.654,452.394 822.582,452.394L820.152,452.394L820.152,456.066Z" style="fill:rgb(24,27,32);fill-rule:nonzero;"/>
                    <path d="M835.77,460.368C835.178,460.368 834.645,460.27 834.171,460.074C833.697,459.878 833.305,459.6 832.995,459.24C832.685,458.88 832.478,458.452 832.374,457.956L833.082,457.836C833.23,458.412 833.547,458.866 834.033,459.198C834.519,459.53 835.104,459.696 835.788,459.696C836.252,459.696 836.662,459.622 837.018,459.474C837.374,459.326 837.652,459.117 837.852,458.847C838.052,458.577 838.152,458.262 838.152,457.902C838.152,457.642 838.105,457.424 838.011,457.248C837.917,457.072 837.796,456.927 837.648,456.813C837.5,456.699 837.342,456.607 837.174,456.537C837.006,456.467 836.848,456.41 836.7,456.366L834.528,455.718C834.24,455.634 833.983,455.529 833.757,455.403C833.531,455.277 833.341,455.131 833.187,454.965C833.033,454.799 832.915,454.61 832.833,454.398C832.751,454.186 832.71,453.95 832.71,453.69C832.71,453.226 832.834,452.82 833.082,452.472C833.33,452.124 833.671,451.853 834.105,451.659C834.539,451.465 835.038,451.368 835.602,451.368C836.17,451.372 836.68,451.477 837.132,451.683C837.584,451.889 837.955,452.18 838.245,452.556C838.535,452.932 838.722,453.378 838.806,453.894L838.092,454.02C838.036,453.624 837.893,453.278 837.663,452.982C837.433,452.686 837.14,452.456 836.784,452.292C836.428,452.128 836.032,452.046 835.596,452.046C835.176,452.042 834.805,452.112 834.483,452.256C834.161,452.4 833.908,452.594 833.724,452.838C833.54,453.082 833.448,453.358 833.448,453.666C833.448,453.986 833.535,454.241 833.709,454.431C833.883,454.621 834.097,454.77 834.351,454.878C834.605,454.986 834.848,455.074 835.08,455.142L836.82,455.658C836.984,455.706 837.18,455.774 837.408,455.862C837.636,455.95 837.86,456.075 838.08,456.237C838.3,456.399 838.483,456.613 838.629,456.879C838.775,457.145 838.848,457.478 838.848,457.878C838.848,458.266 838.774,458.614 838.626,458.922C838.478,459.23 838.266,459.491 837.99,459.705C837.714,459.919 837.388,460.083 837.012,460.197C836.636,460.311 836.222,460.368 835.77,460.368Z" style="fill:rgb(24,27,32);fill-rule:nonzero;"/>
                </g>
                <g transform="matrix(1.10719,0,0,0.553228,282.732,420.812)">
                    <path d="M758.016,460.188L758.016,452.73L755.142,452.73L755.142,451.548L762.144,451.548L762.144,452.73L759.27,452.73L759.27,460.188L758.016,460.188Z" style="fill:rgb(73,80,87);fill-rule:nonzero;"/>
                    <path d="M767.904,460.188L767.904,451.548L773.424,451.548L773.424,452.73L769.158,452.73L769.158,455.154L772.704,455.154L772.704,456.336L769.158,456.336L769.158,459.006L773.424,459.006L773.424,460.188L767.904,460.188Z" style="fill:rgb(73,80,87);fill-rule:nonzero;"/>
                    <path d="M779.664,460.188L779.664,451.548L780.798,451.548L783.93,458.046L787.044,451.548L788.19,451.548L788.19,460.182L787.002,460.182L787.002,454.272L784.212,460.188L783.642,460.188L780.846,454.272L780.846,460.188L779.664,460.188Z" style="fill:rgb(73,80,87);fill-rule:nonzero;"/>
                    <path d="M794.67,460.188L794.67,451.548L798.162,451.548C798.246,451.548 798.35,451.551 798.474,451.557C798.598,451.563 798.716,451.576 798.828,451.596C799.308,451.672 799.709,451.836 800.031,452.088C800.353,452.34 800.594,452.658 800.754,453.042C800.914,453.426 800.994,453.85 800.994,454.314C800.994,454.782 800.914,455.208 800.754,455.592C800.594,455.976 800.353,456.294 800.031,456.546C799.709,456.798 799.308,456.962 798.828,457.038C798.716,457.054 798.597,457.066 798.471,457.074C798.345,457.082 798.242,457.086 798.162,457.086L795.924,457.086L795.924,460.188L794.67,460.188ZM795.924,455.898L798.114,455.898C798.194,455.898 798.283,455.894 798.381,455.886C798.479,455.878 798.572,455.864 798.66,455.844C798.916,455.784 799.122,455.673 799.278,455.511C799.434,455.349 799.546,455.162 799.614,454.95C799.682,454.738 799.716,454.526 799.716,454.314C799.716,454.102 799.682,453.891 799.614,453.681C799.546,453.471 799.434,453.285 799.278,453.123C799.122,452.961 798.916,452.85 798.66,452.79C798.572,452.766 798.479,452.75 798.381,452.742C798.283,452.734 798.194,452.73 798.114,452.73L795.924,452.73L795.924,455.898Z" style="fill:rgb(73,80,87);fill-rule:nonzero;"/>
                    <path d="M807.114,460.188L807.114,451.548L808.368,451.548L808.368,459.006L812.28,459.006L812.28,460.188L807.114,460.188Z" style="fill:rgb(73,80,87);fill-rule:nonzero;"/>
                    <path d="M817.5,460.188L820.308,451.548L822.114,451.548L824.922,460.188L823.62,460.188L821.034,452.304L821.358,452.304L818.802,460.188L817.5,460.188ZM818.958,458.238L818.958,457.062L823.47,457.062L823.47,458.238L818.958,458.238Z" style="fill:rgb(73,80,87);fill-rule:nonzero;"/>
                    <path d="M832.236,460.188L832.236,452.73L829.362,452.73L829.362,451.548L836.364,451.548L836.364,452.73L833.49,452.73L833.49,460.188L832.236,460.188Z" style="fill:rgb(73,80,87);fill-rule:nonzero;"/>
                    <path d="M842.124,460.188L842.124,451.548L847.644,451.548L847.644,452.73L843.378,452.73L843.378,455.154L846.924,455.154L846.924,456.336L843.378,456.336L843.378,459.006L847.644,459.006L847.644,460.188L842.124,460.188Z" style="fill:rgb(73,80,87);fill-rule:nonzero;"/>
                </g>
            </g>
        </g>
    </g>
</svg>
