<?xml version="1.0" encoding="UTF-8"?>
<svg id="Camada_2" xmlns="http://www.w3.org/2000/svg" viewBox="0 0 523.11 159.97">
  <defs>
    <style>
      .cls-1 {
        fill: #f49323;
      }

      .cls-2 {
        fill: #f8b133;
      }

      .cls-3 {
        fill: #fff;
      }

      .cls-3, .cls-4 {
        stroke: #004b8d;
      }

      .cls-3, .cls-4, .cls-5 {
        stroke-miterlimit: 10;
      }

      .cls-6 {
        fill: #004b8d;
      }

      .cls-4, .cls-7 {
        fill: #004b8d;
      }

      .cls-5 {
        fill: none;
        stroke: #f7941d;
        stroke-width: .5px;
      }

      .cls-8 {
        fill: #f9be81;
      }
    </style>
  </defs>
  <g id="Camada_1-2" data-name="Camada_1">
    <g>
      <g id="BOOM">
        <path class="cls-2" d="M196.39,45.73l-9.5-20.97,31.44,12.66-3.57-37.42,25.13,29.57,11.57-21.84,5.69,23.33,32.73-28.89-11.37,36.69,28.75-10.11-9.62,14.97h-2.89l6.63-10.33-26.61,9.36,10.25-33.05-29.26,25.83-5.13-21.02-10.25,19.37-22.45-26.41,3.21,33.73-29.52-11.91,6.9,15.24c-.78.27-1.53.68-2.11,1.21ZM288.02,116.69l6.9,17.98-25.88-15.21,2.58,20.17-16.18-13.24-8.92,25.49-7.36-26.36-15.21,15.43,2.38-19.51-34.19,12.61,10.47-19.05c-1,.27-2.02.46-3.01.46l-12.71,23.13,36.57-13.51-2.77,22.62,17.28-17.52,8.29,29.79,10.33-29.5,18.22,14.92-2.72-21.33,27.6,16.23-9.21-23.98c-.8.15-1.63.32-2.45.39h0Z"/>
      </g>
      <g>
        <g>
          <path class="cls-4" d="M183.46,82.07c-1.42,0-2.03-1.05-2.03-2.79,0-.78,0-1.05.1-2.42.3-4.53.34-7.46.34-11.62,0-2.24-.1-4.99-.1-7.14-1.79.18-3.59.64-5.38,1.01-.61.14-1.08.18-1.29.18-1.42,0-2.17-1.37-2.17-2.84,0-1.88,1.15-3.52,1.46-3.84.88-.87,1.86-1.24,3.25-1.46,1.32-.23,3.11-.32,5.75-.59,5.14-.55,7.68-1.05,9.38-1.05,1.15,0,3.45.46,3.45,3.29,0,2.56-2.03,3.71-3.69,3.71s-3.76.32-4.94.64c0,1.42.03,3.16.03,4.3,0,5.03-.13,9.61-.13,13.59,0,2.29-.3,7.78-3.55,7.04h-.47Z"/>
          <path class="cls-4" d="M197,78.09c0-.92.07-3.75.07-6.68,0-9.61.07-14.14.07-15.92,0-1.97.34-6.13,3.25-6.13,2.27,0,2.44,2.75,2.44,5.44,0,1.78-.24,8.05-.24,11.48,0,3.07-.1,5.31-.27,10.57-.1,2.84-.44,5.35-2.34,5.35-2.37,0-2.98-1.24-2.98-4.12Z"/>
          <path class="cls-4" d="M211.76,73.47c0,1.19.07,2.42.07,4.03,0,1.51-.51,4.89-4.23,4.89-1.39,0-2.13-1.69-2.13-3.34,0-3.25.3-5.9.3-9.06,0-2.24-.07-4.21-.07-6.31s-.17-4.94-.17-7.14c0-1.42,0-2.56.3-3.48.85-2.56,7.17-3.11,11.81-3.11s8.56,1.78,8.56,7.46c0,4.99-3.21,9.24-8.02,11.57.61.73,1.25,1.46,1.89,2.15,1.66,1.88,2.91,3.2,3.76,4.3.81,1.05,1.46,2.06,1.46,3.25,0,2.33-1.66,3.29-2.88,3.29-2.37,0-4.6-2.7-7.24-6.31-.54-.73-1.96-2.38-3.42-3.98v1.78ZM211.76,63.91c3.79-.41,7.99-3.06,7.99-5.67,0-.5-.17-.73-.64-.87-.64-.23-1.35-.18-2-.18-1.52,0-3.22.09-5.35.87v5.86Z"/>
          <path class="cls-4" d="M233.55,77.13c-.88,3.02-1.76,5.08-4.71,5.08-1.22,0-2.33-1.05-2.33-2.88,0-1.01.3-1.92.61-2.75,1.46-3.8,3.21-8.14,4.77-12.31,1.56-4.12,2.91-8.05,3.69-11.07.47-1.97,1.42-4.12,3.25-4.12.88,0,2.03.32,2.61,1.69.81,1.83,1.86,5.35,2.91,7.91,3.45,8.28,7.21,17.79,7.21,19.67,0,2.38-.98,3.71-2.91,3.71-1.32,0-2.57-.64-3.28-2.88-.37-1.24-.95-3.06-1.66-5.12-2.88.32-6.8.37-9.41.64l-.74,2.42ZM239.1,61.25c-.13,0-.37.87-.81,2.1-.47,1.24-1.05,2.88-1.66,4.58,1.59-.09,3.32-.18,4.87-.32-1.18-3.43-2.06-6.36-2.4-6.36Z"/>
          <path class="cls-4" d="M258.47,75.34c0,1.33-.03,2.33-.03,3.2,0,2.1-1.22,3.66-2.78,3.66-1.46,0-3.15-1.37-3.15-3.98,0-1.28.07-3.02.14-4.21.1-1.83.27-6.45.27-8.51,0-4.85-.2-10.16-.2-12.44,0-1.33.75-2.84,2.06-2.84,2.3,0,4.06,3.66,5.89,7.59,2.06,4.39,4.1,8.65,6.74,12.35.03-4.94.14-6.91.14-14.23,0-.82-.03-1.97-.03-2.61,0-3.71,1.69-4.67,3.21-4.67,1.35,0,2.78,1.14,2.78,3.11,0,1.33-.51,9.06-.51,12.53,0,6.4.61,12.58.61,14.09,0,2.01-1.35,3.2-2.78,3.2-3.79,0-9.07-8.6-12.22-14.18-.07,4.3-.13,6.4-.13,7.91Z"/>
          <path class="cls-4" d="M278.13,82.53c-1.02,0-2.37-.18-2.37-2.84,0-3.2.37-8,.37-12.03,0-4.35-.1-9.74-.1-10.89,0-3.2,1.46-4.8,3.45-5.26,2.17-.55,6.09-1.46,9-1.46,3.35,0,9.65,1.23,9.65,7.82,0,9.79-7.89,24.52-20,24.66ZM281.89,74.06c.64,0,1.52-.37,2.4-.78,4.54-2.1,7.89-9.38,7.89-13.54,0-2.15-1.25-3.11-3.55-3.11-1.96,0-4.3.73-6.19,1.51-.03,4.48-.71,13.82-.74,15.92h.2Z"/>
          <path class="cls-4" d="M308.97,82.16c-6.33,0-10.76-4.12-10.76-12.4,0-11.48,9.48-20.58,17.53-20.58,5.35,0,10.73,4.71,10.73,13.04,0,13.27-10.02,19.95-17.5,19.95ZM315.23,56.04c-5.11,0-10.93,7.04-10.93,14.09,0,3.66,2.1,5.17,4.5,5.17,6.16,0,11.91-5.44,11.91-12.12,0-4.8-2.3-7.14-5.48-7.14Z"/>
          <path class="cls-4" d="M172.75,116.53c-1.02,0-2.37-.18-2.37-2.84,0-3.2.37-8,.37-12.03,0-4.35-.1-9.74-.1-10.89,0-3.2,1.46-4.8,3.45-5.26,2.17-.55,6.09-1.46,9-1.46,3.35,0,9.65,1.23,9.65,7.82,0,9.79-7.89,24.52-20,24.66ZM176.5,108.06c.64,0,1.52-.37,2.4-.78,4.54-2.1,7.89-9.38,7.89-13.54,0-2.15-1.25-3.11-3.55-3.11-1.96,0-4.3.73-6.19,1.51-.03,4.48-.71,13.82-.74,15.92h.2Z"/>
          <path class="cls-4" d="M201.11,108.84c2.47,0,4.94-1.19,8.63-1.19,1.46,0,3.11.92,3.11,3.11s-1.79,3.71-3.93,3.93c-2.71.27-7.75,1.65-11.78,1.65-1.52,0-3.05-.46-3.25-3.02,0-.64.1-1.24.1-2.24,0-2.42.37-7.23.37-10.29v-6.59l.13-3.57c.1-1.69.54-4.85,2.71-4.85h1.79c5.28,0,10.39-1.28,11.78-1.28,1.25,0,2.27,1.51,2.27,3.34,0,2.06-1.42,3.75-2.88,3.89-4.4.41-8.39.73-10.12.82-.07,1.23-.07,2.79-.07,3.98,0,.18-.03.37-.03.55,3.79-.14,7.51-1.14,9.61-1.14,1.46,0,2.37,1.37,2.37,3.11,0,2.29-2.06,3.48-3.18,3.71-3.21.69-5.58.64-8.93,1.33-.03.41-.03,1.05-.03,2.52,0,.69,0,1.51.03,2.24h1.29Z"/>
          <path class="cls-4" d="M240.61,107.01c1.02,0,2.1.73,2.1,2.93,0,.87-.41,3.89-2,4.21-3.45.73-6.9,1.65-10.39,2.52-.61.14-1.05.23-1.86.23-1.69,0-2.33-1.83-2.33-3.48,0-2.65.58-7.87.54-13.13,0-9.01-.17-10.2-.13-11.34,0-3.11,1.83-4.94,3.89-4.94,1.42,0,2.23,1.6,2.27,3.29,0,1.01-.2,2.06-.2,3.29,0,5.12-.24,9.74-.24,15.37,0,1.05-.03,2.01-.03,2.93,2.81-.14,5.55-1.88,8.39-1.88Z"/>
          <path class="cls-4" d="M251.24,108.84c2.47,0,4.94-1.19,8.63-1.19,1.46,0,3.11.92,3.11,3.11s-1.79,3.71-3.93,3.93c-2.71.27-7.75,1.65-11.78,1.65-1.52,0-3.05-.46-3.25-3.02,0-.64.1-1.24.1-2.24,0-2.42.37-7.23.37-10.29v-6.59l.13-3.57c.1-1.69.54-4.85,2.71-4.85h1.79c5.28,0,10.39-1.28,11.78-1.28,1.25,0,2.27,1.51,2.27,3.34,0,2.06-1.42,3.75-2.88,3.89-4.4.41-8.39.73-10.12.82-.07,1.23-.07,2.79-.07,3.98,0,.18-.03.37-.03.55,3.79-.14,7.51-1.14,9.61-1.14,1.46,0,2.37,1.37,2.37,3.11,0,2.29-2.06,3.48-3.18,3.71-3.21.69-5.58.64-8.93,1.33-.03.41-.03,1.05-.03,2.52,0,.69,0,1.51.03,2.24h1.29Z"/>
          <path class="cls-4" d="M276.76,95.44c0,5.03-.14,8.78-.14,12.72,0,2.7-.37,7.96-3.25,7.96-2.17,0-2.74-1.51-2.74-4.21,0-4.3.41-8.1.41-12.67,0-2.24-.1-4.99-.14-7.14-1.52.18-3.01.64-4.5,1.01-.44.09-.88.18-1.15.18-1.42,0-2.17-1.37-2.17-2.84,0-1.65.54-3.48,1.56-4.12,1.66-1.01,3.38-1.28,8.53-1.78,5.14-.55,6.7-1.05,8.39-1.05,1.12,0,2.78.41,2.78,3.29,0,2.29-1.08,3.84-3.01,3.84-1.66,0-3.52.23-4.64.5.03,1.42.07,3.16.07,4.3Z"/>
          <path class="cls-4" d="M291.89,107.47c0,1.19.07,2.42.07,4.03,0,1.51-.51,4.89-4.23,4.89-1.39,0-2.13-1.69-2.13-3.34,0-3.25.3-5.9.3-9.06,0-2.24-.07-4.21-.07-6.31s-.17-4.94-.17-7.14c0-1.42,0-2.56.3-3.48.85-2.56,7.17-3.11,11.81-3.11s8.56,1.78,8.56,7.46c0,4.99-3.22,9.24-8.02,11.57.61.73,1.25,1.46,1.9,2.15,1.66,1.88,2.91,3.2,3.76,4.3.81,1.05,1.46,2.06,1.46,3.25,0,2.33-1.66,3.29-2.88,3.29-2.37,0-4.6-2.7-7.24-6.31-.54-.73-1.96-2.38-3.42-3.98v1.78ZM291.89,97.91c3.79-.41,7.99-3.06,7.99-5.67,0-.5-.17-.73-.64-.87-.64-.23-1.35-.18-2-.18-1.52,0-3.21.09-5.35.87v5.86Z"/>
          <path class="cls-4" d="M313.69,111.13c-.88,3.02-1.76,5.08-4.7,5.08-1.22,0-2.33-1.05-2.33-2.88,0-1.01.3-1.92.61-2.75,1.46-3.8,3.22-8.14,4.77-12.31,1.56-4.12,2.91-8.05,3.69-11.07.47-1.97,1.42-4.12,3.25-4.12.88,0,2.03.32,2.61,1.69.81,1.83,1.86,5.35,2.91,7.91,3.45,8.28,7.21,17.79,7.21,19.67,0,2.38-.98,3.71-2.91,3.71-1.32,0-2.57-.64-3.28-2.88-.37-1.24-.95-3.06-1.66-5.12-2.88.32-6.8.37-9.41.64l-.75,2.42ZM319.24,95.25c-.14,0-.37.87-.81,2.1-.47,1.24-1.05,2.88-1.66,4.58,1.59-.09,3.32-.18,4.87-.32-1.18-3.43-2.06-6.36-2.4-6.36Z"/>
        </g>
        <g>
          <path class="cls-3" d="M185.73,78.63c-1.42,0-2.03-1.05-2.03-2.79,0-.78,0-1.05.1-2.42.3-4.53.34-7.46.34-11.62,0-2.24-.1-4.99-.1-7.14-1.79.18-3.59.64-5.38,1.01-.61.14-1.08.18-1.29.18-1.42,0-2.17-1.37-2.17-2.84,0-1.88,1.15-3.52,1.46-3.84.88-.87,1.86-1.24,3.25-1.46,1.32-.23,3.11-.32,5.75-.59,5.14-.55,7.68-1.05,9.38-1.05,1.15,0,3.45.46,3.45,3.29,0,2.56-2.03,3.71-3.69,3.71s-3.76.32-4.94.64c0,1.42.03,3.16.03,4.3,0,5.03-.14,9.61-.14,13.59,0,2.29-.3,7.78-3.55,7.04h-.47Z"/>
          <path class="cls-3" d="M199.27,74.65c0-.92.07-3.75.07-6.68,0-9.61.07-14.14.07-15.92,0-1.97.34-6.13,3.25-6.13,2.27,0,2.44,2.75,2.44,5.44,0,1.78-.24,8.05-.24,11.48,0,3.07-.1,5.31-.27,10.57-.1,2.84-.44,5.35-2.34,5.35-2.37,0-2.98-1.24-2.98-4.12Z"/>
          <path class="cls-3" d="M214.03,70.03c0,1.19.07,2.42.07,4.03,0,1.51-.51,4.89-4.23,4.89-1.39,0-2.13-1.69-2.13-3.34,0-3.25.3-5.9.3-9.06,0-2.24-.07-4.21-.07-6.31s-.17-4.94-.17-7.14c0-1.42,0-2.56.3-3.48.85-2.56,7.18-3.11,11.81-3.11s8.56,1.78,8.56,7.46c0,4.99-3.21,9.24-8.02,11.57.61.73,1.25,1.46,1.9,2.15,1.66,1.88,2.91,3.2,3.76,4.3.81,1.05,1.46,2.06,1.46,3.25,0,2.33-1.66,3.29-2.88,3.29-2.37,0-4.6-2.7-7.24-6.31-.54-.73-1.96-2.38-3.42-3.98v1.78ZM214.03,60.47c3.79-.41,7.99-3.06,7.99-5.67,0-.5-.17-.73-.64-.87-.64-.23-1.35-.18-2-.18-1.52,0-3.22.09-5.35.87v5.86Z"/>
          <path class="cls-3" d="M235.83,73.69c-.88,3.02-1.76,5.08-4.71,5.08-1.22,0-2.33-1.05-2.33-2.88,0-1.01.3-1.92.61-2.75,1.46-3.8,3.22-8.14,4.77-12.31,1.56-4.12,2.91-8.05,3.69-11.07.47-1.97,1.42-4.12,3.25-4.12.88,0,2.03.32,2.61,1.69.81,1.83,1.86,5.35,2.91,7.91,3.45,8.28,7.21,17.79,7.21,19.67,0,2.38-.98,3.71-2.91,3.71-1.32,0-2.57-.64-3.28-2.88-.37-1.24-.95-3.06-1.66-5.12-2.88.32-6.8.37-9.41.64l-.74,2.42ZM241.38,57.82c-.14,0-.37.87-.81,2.1-.47,1.24-1.05,2.88-1.66,4.58,1.59-.09,3.32-.18,4.87-.32-1.19-3.43-2.06-6.36-2.4-6.36Z"/>
          <path class="cls-3" d="M260.74,71.91c0,1.33-.03,2.33-.03,3.2,0,2.1-1.22,3.66-2.78,3.66-1.46,0-3.15-1.37-3.15-3.98,0-1.28.07-3.02.14-4.21.1-1.83.27-6.45.27-8.51,0-4.85-.2-10.16-.2-12.44,0-1.33.75-2.84,2.06-2.84,2.3,0,4.06,3.66,5.89,7.59,2.06,4.39,4.09,8.65,6.74,12.35.03-4.94.13-6.91.13-14.23,0-.82-.03-1.97-.03-2.61,0-3.71,1.69-4.67,3.21-4.67,1.35,0,2.78,1.14,2.78,3.11,0,1.33-.51,9.06-.51,12.53,0,6.4.61,12.58.61,14.09,0,2.01-1.35,3.2-2.78,3.2-3.79,0-9.07-8.6-12.22-14.18-.07,4.3-.14,6.4-.14,7.91Z"/>
          <path class="cls-3" d="M280.41,79.09c-1.02,0-2.37-.18-2.37-2.84,0-3.2.37-8,.37-12.03,0-4.35-.1-9.74-.1-10.89,0-3.2,1.46-4.8,3.45-5.26,2.17-.55,6.09-1.46,9-1.46,3.35,0,9.64,1.23,9.64,7.82,0,9.79-7.88,24.52-20,24.66ZM284.16,70.63c.64,0,1.52-.37,2.4-.78,4.54-2.1,7.89-9.38,7.89-13.54,0-2.15-1.25-3.11-3.55-3.11-1.96,0-4.3.73-6.19,1.51-.03,4.48-.71,13.82-.74,15.92h.2Z"/>
          <path class="cls-3" d="M311.24,78.73c-6.33,0-10.76-4.12-10.76-12.4,0-11.48,9.48-20.58,17.53-20.58,5.35,0,10.73,4.71,10.73,13.04,0,13.27-10.02,19.95-17.5,19.95ZM317.5,52.6c-5.11,0-10.93,7.04-10.93,14.09,0,3.66,2.1,5.17,4.5,5.17,6.16,0,11.91-5.44,11.91-12.12,0-4.8-2.3-7.14-5.48-7.14Z"/>
          <path class="cls-3" d="M175.02,113.09c-1.02,0-2.37-.18-2.37-2.84,0-3.2.37-8,.37-12.03,0-4.35-.1-9.74-.1-10.89,0-3.2,1.46-4.8,3.45-5.26,2.17-.55,6.09-1.46,9-1.46,3.35,0,9.65,1.23,9.65,7.82,0,9.79-7.89,24.52-20,24.66ZM178.78,104.63c.64,0,1.52-.37,2.4-.78,4.54-2.1,7.89-9.38,7.89-13.54,0-2.15-1.25-3.11-3.55-3.11-1.96,0-4.3.73-6.19,1.51-.03,4.48-.71,13.82-.75,15.92h.2Z"/>
          <path class="cls-3" d="M203.38,105.41c2.47,0,4.94-1.19,8.63-1.19,1.46,0,3.11.92,3.11,3.11s-1.79,3.71-3.93,3.93c-2.71.27-7.75,1.65-11.78,1.65-1.52,0-3.05-.46-3.25-3.02,0-.64.1-1.24.1-2.24,0-2.42.37-7.23.37-10.29v-6.59l.14-3.57c.1-1.69.54-4.85,2.71-4.85h1.79c5.28,0,10.39-1.28,11.78-1.28,1.25,0,2.27,1.51,2.27,3.34,0,2.06-1.42,3.75-2.88,3.89-4.4.41-8.39.73-10.12.82-.07,1.23-.07,2.79-.07,3.98,0,.18-.03.37-.03.55,3.79-.14,7.51-1.14,9.61-1.14,1.46,0,2.37,1.37,2.37,3.11,0,2.29-2.06,3.48-3.18,3.71-3.21.69-5.58.64-8.93,1.33-.03.41-.03,1.05-.03,2.52,0,.69,0,1.51.03,2.24h1.29Z"/>
          <path class="cls-3" d="M242.89,103.58c1.02,0,2.1.73,2.1,2.93,0,.87-.41,3.89-2,4.21-3.45.73-6.9,1.65-10.39,2.52-.61.14-1.05.23-1.86.23-1.69,0-2.34-1.83-2.34-3.48,0-2.65.58-7.87.54-13.13,0-9.01-.17-10.2-.14-11.34,0-3.11,1.83-4.94,3.89-4.94,1.42,0,2.23,1.6,2.27,3.29,0,1.01-.2,2.06-.2,3.29,0,5.12-.24,9.74-.24,15.37,0,1.05-.03,2.01-.03,2.93,2.81-.14,5.55-1.88,8.39-1.88Z"/>
          <path class="cls-3" d="M253.51,105.41c2.47,0,4.94-1.19,8.63-1.19,1.46,0,3.11.92,3.11,3.11s-1.79,3.71-3.93,3.93c-2.71.27-7.75,1.65-11.78,1.65-1.52,0-3.05-.46-3.25-3.02,0-.64.1-1.24.1-2.24,0-2.42.37-7.23.37-10.29v-6.59l.13-3.57c.1-1.69.54-4.85,2.71-4.85h1.79c5.28,0,10.39-1.28,11.78-1.28,1.25,0,2.27,1.51,2.27,3.34,0,2.06-1.42,3.75-2.88,3.89-4.4.41-8.39.73-10.12.82-.07,1.23-.07,2.79-.07,3.98,0,.18-.03.37-.03.55,3.79-.14,7.51-1.14,9.61-1.14,1.46,0,2.37,1.37,2.37,3.11,0,2.29-2.06,3.48-3.18,3.71-3.21.69-5.58.64-8.93,1.33-.03.41-.03,1.05-.03,2.52,0,.69,0,1.51.03,2.24h1.29Z"/>
          <path class="cls-3" d="M279.04,92c0,5.03-.14,8.78-.14,12.72,0,2.7-.37,7.96-3.25,7.96-2.17,0-2.74-1.51-2.74-4.21,0-4.3.41-8.1.41-12.67,0-2.24-.1-4.99-.13-7.14-1.52.18-3.01.64-4.5,1.01-.44.09-.88.18-1.15.18-1.42,0-2.17-1.37-2.17-2.84,0-1.65.54-3.48,1.56-4.12,1.66-1.01,3.38-1.28,8.53-1.78,5.14-.55,6.7-1.05,8.39-1.05,1.12,0,2.78.41,2.78,3.29,0,2.29-1.08,3.84-3.01,3.84-1.66,0-3.52.23-4.64.5.03,1.42.07,3.16.07,4.3Z"/>
          <path class="cls-3" d="M294.17,104.03c0,1.19.07,2.42.07,4.03,0,1.51-.51,4.89-4.23,4.89-1.39,0-2.13-1.69-2.13-3.34,0-3.25.3-5.9.3-9.06,0-2.24-.07-4.21-.07-6.31s-.17-4.94-.17-7.14c0-1.42,0-2.56.3-3.48.85-2.56,7.17-3.11,11.81-3.11s8.56,1.78,8.56,7.46c0,4.99-3.21,9.24-8.02,11.57.61.73,1.25,1.46,1.9,2.15,1.66,1.88,2.91,3.2,3.76,4.3.81,1.05,1.46,2.06,1.46,3.25,0,2.33-1.66,3.29-2.88,3.29-2.37,0-4.6-2.7-7.24-6.31-.54-.73-1.96-2.38-3.42-3.98v1.78ZM294.17,94.47c3.79-.41,7.99-3.06,7.99-5.67,0-.5-.17-.73-.64-.87-.64-.23-1.35-.18-2-.18-1.52,0-3.21.09-5.35.87v5.86Z"/>
          <path class="cls-3" d="M315.97,107.69c-.88,3.02-1.76,5.08-4.71,5.08-1.22,0-2.33-1.05-2.33-2.88,0-1.01.3-1.92.61-2.75,1.46-3.8,3.22-8.14,4.77-12.31,1.56-4.12,2.91-8.05,3.69-11.07.47-1.97,1.42-4.12,3.25-4.12.88,0,2.03.32,2.61,1.69.81,1.83,1.86,5.35,2.91,7.91,3.45,8.28,7.21,17.79,7.21,19.67,0,2.38-.98,3.71-2.91,3.71-1.32,0-2.57-.64-3.28-2.88-.37-1.24-.95-3.06-1.66-5.12-2.88.32-6.8.37-9.41.64l-.74,2.42ZM321.52,91.82c-.14,0-.37.87-.81,2.1-.47,1.24-1.05,2.88-1.66,4.58,1.59-.09,3.32-.18,4.87-.32-1.18-3.43-2.06-6.36-2.4-6.36Z"/>
        </g>
      </g>
      <g>
        <polygon class="cls-7" points="286.97 149.03 291.83 145.06 278.3 133.67 286.97 149.03"/>
        <polygon class="cls-7" points="203.29 146.79 214.39 133.64 198.99 141.81 203.29 146.79"/>
        <polygon class="cls-7" points="300.26 17.29 296.62 13.33 287 27.69 300.26 17.29"/>
        <polygon class="cls-7" points="208 15.96 203.29 19.6 211.99 28.3 208 15.96"/>
        <polygon class="cls-7" points="235.77 3.13 231.89 4.29 237.67 20.5 235.77 3.13"/>
        <polygon class="cls-7" points="258.54 146.98 261.68 145.7 257.98 138.46 258.54 146.98"/>
      </g>
      <g>
        <path class="cls-5" d="M102.7,76c9.13-4.31,18.69-6.13,27.7-5.73-7.76-3.43-16.67-5.23-26.09-4.89-4.64.17-9.13.85-13.38,1.98-2.12,2.85-3.87,5.91-5.2,9.13,2.05,2.01,4.28,3.91,6.69,5.66,3.14-2.32,6.57-4.39,10.28-6.14"/>
        <path class="cls-5" d="M86.42,77.14c-.07-.06-.13-.12-.2-.19M92.43,82.14c-.3-.22-.59-.43-.88-.65h-.01s0-.01,0-.01c-1.81-1.37-3.52-2.82-5.12-4.34-.07-.06-.13-.12-.2-.19h0s-.1-.09-.1-.09l-.1-.09-.1-.09-.1-.09-.1-.09c1.33-3.22,3.08-6.28,5.2-9.13-3.53.93-6.91,2.17-10.08,3.68,1.49,1.89,3.12,3.72,4.88,5.45-1.9,4.6-2.93,9.53-2.95,14.64,2.79-3.27,6.02-6.29,9.64-8.98"/>
        <path class="cls-5" d="M106.3,58.25c-1.63-.39-3.28-.75-4.98-1-.06,0-.13-.01-.2-.02-2.41,1.78-4.64,3.75-6.64,5.86,2.21-.32,4.48-.53,6.79-.62,8.06-.3,15.73,1.03,22.65,3.54-4.99-3.44-11.02-6.15-17.63-7.77"/>
      </g>
      <g>
        <path class="cls-1" d="M21.32,68.48c8.91-4.21,18.24-5.98,27.04-5.59-7.58-3.35-16.27-5.11-25.47-4.77-4.53.17-8.91.83-13.06,1.93-2.07,2.78-3.78,5.76-5.08,8.91,2,1.97,4.18,3.82,6.53,5.52,3.06-2.26,6.41-4.28,10.03-5.99"/>
        <path class="cls-8" d="M5.43,69.59c-.06-.06-.13-.12-.19-.18M11.3,74.47c-.29-.21-.58-.42-.86-.64h-.01s0-.01,0-.01c-1.76-1.34-3.43-2.75-4.99-4.24-.06-.06-.13-.12-.19-.18h0s-.09-.09-.09-.09l-.09-.09-.09-.09-.09-.09-.09-.09c1.3-3.14,3.01-6.13,5.08-8.91-3.45.91-6.74,2.12-9.84,3.59,1.45,1.85,3.04,3.63,4.76,5.32-1.85,4.49-2.86,9.3-2.88,14.29,2.72-3.19,5.87-6.14,9.41-8.76"/>
        <path class="cls-6" d="M24.83,51.15c-1.6-.38-3.2-.73-4.86-.97-.06,0-.13-.01-.19-.02-2.36,1.74-4.52,3.66-6.48,5.72,2.16-.32,4.37-.52,6.62-.6,7.87-.29,15.36,1,22.11,3.46-4.87-3.36-10.75-6-17.21-7.58"/>
      </g>
      <g>
        <path class="cls-5" d="M420.4,75.25c-9.13-4.31-18.69-6.13-27.7-5.73,7.76-3.43,16.67-5.23,26.09-4.89,4.64.17,9.13.85,13.38,1.98,2.12,2.85,3.87,5.91,5.2,9.13-2.05,2.01-4.28,3.91-6.69,5.66-3.14-2.32-6.57-4.39-10.28-6.14"/>
        <path class="cls-5" d="M436.88,76.2c-.06.06-.13.12-.2.19M430.67,81.39c3.63,2.69,6.86,5.71,9.64,8.98-.02-5.11-1.05-10.04-2.95-14.64,1.76-1.73,3.39-3.56,4.88-5.45-3.18-1.51-6.55-2.75-10.08-3.68,2.12,2.85,3.87,5.91,5.2,9.13l-.1.09-.1.09-.1.09-.1.09-.1.09h0c-.06.06-.13.12-.2.19-1.6,1.52-3.31,2.97-5.12,4.34h0s-.01.01-.01.01c-.29.22-.59.44-.88.65"/>
        <path class="cls-5" d="M416.81,57.49c1.63-.39,3.28-.75,4.98-1,.06,0,.13-.01.2-.02,2.41,1.78,4.64,3.75,6.64,5.86-2.21-.32-4.48-.53-6.79-.62-8.06-.3-15.73,1.03-22.65,3.54,4.99-3.44,11.02-6.15,17.63-7.77"/>
      </g>
      <g>
        <path class="cls-1" d="M501.78,67.72c-8.91-4.21-18.24-5.98-27.04-5.59,7.58-3.35,16.27-5.11,25.47-4.77,4.53.17,8.91.83,13.06,1.93,2.07,2.78,3.78,5.76,5.08,8.91-2,1.97-4.18,3.82-6.53,5.52-3.06-2.26-6.41-4.28-10.03-5.99"/>
        <path class="cls-8" d="M517.87,68.65c-.06.06-.13.12-.19.18M511.81,73.72c3.54,2.62,6.69,5.57,9.41,8.76-.02-4.99-1.03-9.8-2.88-14.29,1.72-1.69,3.31-3.47,4.76-5.32-3.1-1.47-6.39-2.68-9.84-3.59,2.07,2.78,3.78,5.77,5.08,8.91l-.09.09-.09.09-.09.09-.09.09-.09.09h0c-.06.06-.13.12-.19.18-1.56,1.49-3.23,2.9-4.99,4.24h0s-.01.01-.01.01c-.28.21-.57.43-.86.64"/>
        <path class="cls-6" d="M498.28,50.39c1.6-.38,3.2-.73,4.86-.97.06,0,.13-.01.19-.02,2.36,1.74,4.52,3.66,6.48,5.72-2.16-.32-4.37-.52-6.62-.6-7.87-.29-15.36,1-22.11,3.46,4.87-3.36,10.75-6,17.21-7.58"/>
      </g>
    </g>
  </g>
</svg>