<?xml version="1.0" encoding="utf-8"?>
<!-- Generator: Adobe Illustrator 25.2.3, SVG Export Plug-In . SVG Version: 6.00 Build 0)  -->
<svg version="1.1" id="Camada_1" xmlns="http://www.w3.org/2000/svg" xmlns:xlink="http://www.w3.org/1999/xlink" x="0px" y="0px"
	 viewBox="0 0 500 240" style="enable-background:new 0 0 500 240;" xml:space="preserve">
<style type="text/css">
	.st0{fill:#753BBD;}
	.st1{fill:#FF9800;}
	.st2{fill:#FFFFFF;}
</style>
<g>
	<path class="st2" d="M160,163.9c0-35.3-28.6-63.9-63.9-63.9H66.7v40h29.7c13,0,23.6,10.6,23.6,23.6V200h40V163.9z"/>
	<path class="st2" d="M96.1,0H40v40h56.4c13,0,23.6,10.6,23.6,23.6V100h40V63.9C160,28.6,131.4,0,96.1,0z"/>
	<path class="st2" d="M0,176.1C0,211.4,28.6,240,63.9,240H120v-40H63.6c-13,0-23.6-10.6-23.6-23.6V40H0V176.1z"/>
	<path class="st2" d="M220,76.4V0h-40v76.1c0,35.3,28.6,63.9,63.9,63.9h22.8v-40h-23.2C230.6,100,220,89.4,220,76.4z"/>
	<path class="st2" d="M500,63.9C500,28.6,471.4,0,436.1,0H340v40h96.4c13,0,23.6,10.6,23.6,23.6V100h40V63.9z"/>
	<rect x="280" y="40" class="st2" width="40" height="200"/>
	<path class="st2" d="M460,140v-40H340v40v36.1c0,35.3,28.6,63.9,63.9,63.9H500v-40h-96.4c-13,0-23.6-10.6-23.6-23.6V140H460z"/>
</g>
</svg>
