<?xml version="1.0" encoding="UTF-8"?><svg id="Layer_2" xmlns="http://www.w3.org/2000/svg" viewBox="0 0 73.85 75.77"><defs><style>.cls-1{fill:#004b8d;}</style></defs><g id="Camada_2"><path class="cls-1" d="M73.84,37.18c0-.09,0-.17,0-.26C73.85,16.56,57.29,0,36.93,0S0,16.56,0,36.93c0,.1,0,.19,0,.29,0,.01,0,.02,0,.03,0,.02,0,.03,0,.05.1,10.36,4.5,19.72,11.49,26.37.07.37.29.71.65.91.17.09.34.14.52.16,6.49,5.67,14.98,9.12,24.26,9.12h0s0,0,0,0h0s.03,0,.05,0c0,0,0,0,0,0h0s0,0,0,0c3.07,0,5.07-.14,8.02-.89.72-.18,1.15-.91.97-1.63-.18-.72-.91-1.15-1.63-.97-1,.25-1.87.43-2.72.55.55-.45,1.13-.95,1.74-1.52.54-.5.57-1.35.07-1.9-.5-.54-1.35-.58-1.9-.07-1.23,1.14-2.34,2.01-3.22,2.64v-12.31c0-.74-.61-1.34-1.35-1.34h0c-.74,0-1.34.6-1.34,1.34v12.29c-2.89-2.15-8.41-7.13-11.9-15.78,2.16-1.26,4.48-2.19,6.91-2.78.72-.18,1.16-.9.99-1.62-.18-.72-.9-1.16-1.62-.99-2.53.62-4.94,1.57-7.2,2.84-1.23-3.75-2.05-8.11-2.18-13.13h15v1.65c0,.74.6,1.34,1.34,1.34h0c.74,0,1.34-.6,1.34-1.34v-1.64s15.47,0,15.47,0c-.03,1.15-.08,2.28-.19,3.39-.07.74.47,1.39,1.21,1.46.04,0,.08,0,.13,0,.68,0,1.27-.52,1.33-1.22.11-1.19.17-2.41.2-3.64h14.68c-.08,1.73-.29,3.46-.63,5.14-.15.73.32,1.43,1.05,1.58.73.14,1.43-.32,1.58-1.05.46-2.26.69-4.58.72-6.91,0-.03.01-.07.01-.1,0-.02,0-.04,0-.06ZM71.14,35.9h-14.7c-.14-5.75-1.13-10.69-2.59-14.9,3-2.15,5.58-4.86,7.57-7.97,5.8,5.95,9.46,13.99,9.72,22.87ZM21.39,18.71c-2.79-2.03-5.17-4.62-6.97-7.56,5.11-4.47,11.55-7.44,18.64-8.24-3.34,2.69-8.34,7.74-11.67,15.8ZM35.59,4.38v19.34c-4.18-.21-8.23-1.4-11.84-3.49,3.43-8.47,8.82-13.52,11.84-15.84ZM38.27,3.98c2.86,2.08,8.63,7.13,12.27,15.98-3.71,2.25-7.9,3.53-12.26,3.75V3.98ZM41.41,2.99c6.85.9,13.06,3.83,18.02,8.16-1.72,2.8-3.95,5.28-6.57,7.26-3.3-7.81-8.15-12.75-11.45-15.42ZM12.43,13.03c2.08,3.25,4.81,6.07,8,8.26-1.41,4.15-2.36,8.99-2.49,14.61H2.71c.26-8.88,3.92-16.92,9.72-22.87ZM2.72,38.58h15.21c.13,5.64,1.07,10.49,2.48,14.62-3.05,2.1-5.68,4.78-7.73,7.87-5.81-5.83-9.53-13.73-9.95-22.49ZM32.26,70.84c-6.66-.91-12.71-3.74-17.58-7.92,1.77-2.76,4.05-5.19,6.7-7.12,3.1,7.49,7.62,12.31,10.88,15.04ZM20.61,35.9c.13-5,.96-9.35,2.19-13.12,3.91,2.18,8.28,3.41,12.79,3.62v9.5s-14.99,0-14.99,0ZM38.28,26.41c4.67-.22,9.19-1.54,13.21-3.88,1.28,3.82,2.14,8.26,2.27,13.37h-15.47v-9.49Z"/><path class="cls-1" d="M70.54,60.28l-7.73-4.43,6.37-5.26c.64-.52.9-1.37.67-2.17-.23-.79-.91-1.37-1.73-1.47l-33.14-4.03c-.05,0-.17-.01-.23-.01-.67,0-1.29.37-1.62.96-.32.59-.3,1.31.06,1.88l18.45,29.05c.38.6,1.03.96,1.73.96.98,0,1.81-.67,2.02-1.62l1.84-8.47,7.5,4.74c.48.32,1.04.48,1.61.48,1.05,0,2.02-.56,2.56-1.51l2.72-5.11c.39-.68.49-1.47.29-2.23-.2-.76-.69-1.39-1.37-1.78ZM69.28,62.99l-2.72,5.11c-.07.12-.18.12-.22.12-.05,0-.09-.01-.15-.05l-9.14-5.78c-.37-.23-.83-.27-1.24-.1-.4.17-.7.52-.79.95l-1.92,8.86-16.69-26.28,29.95,3.64-6.75,5.57c-.34.28-.52.71-.48,1.15.04.44.29.83.67,1.05l9.41,5.39c.07.04.1.1.12.15.01.05.02.11-.05.23Z"/></g></svg>