<?xml version="1.0" encoding="UTF-8"?><svg id="Camada_2" xmlns="http://www.w3.org/2000/svg" viewBox="0 0 134.67 134.67"><defs><style>.cls-1,.cls-2{stroke:#4c0a01;stroke-width:2.5px;}.cls-1,.cls-2,.cls-3{fill:none;stroke-linejoin:round;}.cls-1,.cls-3{stroke-linecap:round;}.cls-4{fill:#e4262a;}.cls-4,.cls-5{stroke-width:0px;}.cls-5{fill:#fff;}.cls-3{stroke:#e4262a;stroke-dasharray:0 0 .1 4.02;}</style></defs><g id="Layer_1"><circle class="cls-5" cx="67.33" cy="67.33" r="62"/><path class="cls-4" d="M67.39,134.67c-4.67,0-9.38-.5-14-1.48-8.55-1.81-16.55-5.2-23.76-10.07-7.47-5.04-13.77-11.46-18.72-19.08-4.96-7.62-8.27-15.98-9.85-24.85-1.53-8.57-1.38-17.25.43-25.8,1.81-8.55,5.2-16.55,10.07-23.76,5.04-7.47,11.46-13.77,19.08-18.72,7.62-4.96,15.98-8.27,24.85-9.85,3.9-.7,7.87-1.05,11.8-1.05,4.67,0,9.38.5,14,1.48,8.55,1.81,16.55,5.2,23.76,10.07,7.47,5.04,13.77,11.46,18.72,19.08,4.96,7.62,8.27,15.98,9.85,24.85,1.53,8.57,1.38,17.25-.43,25.8-1.81,8.55-5.2,16.55-10.07,23.76-5.04,7.47-11.46,13.77-19.08,18.72-7.62,4.95-15.98,8.27-24.85,9.85-3.9.7-7.87,1.05-11.8,1.05ZM67.25,13.37c-10.43,0-20.58,3.01-29.35,8.71C12.95,38.31,5.85,71.81,22.08,96.77c9.99,15.36,26.94,24.53,45.34,24.54h0c10.43,0,20.58-3.01,29.34-8.71,12.07-7.85,20.36-19.95,23.35-34.07,2.99-14.12.32-28.55-7.53-40.62-9.99-15.36-26.94-24.54-45.34-24.54Z"/><circle class="cls-3" cx="67.33" cy="67.33" r="49.9" transform="translate(-12.49 119.25) rotate(-78.04)"/><line class="cls-2" x1="67.33" y1="30.56" x2="67.33" y2="44.64"/><line class="cls-2" x1="50.12" y1="35.17" x2="57.16" y2="47.37"/><line class="cls-2" x1="37.52" y1="47.77" x2="49.72" y2="54.82"/><line class="cls-2" x1="32.91" y1="64.99" x2="46.99" y2="64.99"/><line class="cls-2" x1="37.52" y1="82.2" x2="49.72" y2="75.16"/><line class="cls-2" x1="97.15" y1="82.2" x2="84.95" y2="75.16"/><line class="cls-2" x1="101.76" y1="64.99" x2="87.68" y2="64.99"/><line class="cls-2" x1="97.15" y1="47.77" x2="84.95" y2="54.82"/><line class="cls-2" x1="84.55" y1="35.17" x2="77.51" y2="47.37"/><polyline class="cls-2" points="73.59 102.54 72.03 102.54 70.46 104.11 67.33 104.11 64.2 104.11 62.64 102.54 61.07 102.54"/><line class="cls-2" x1="57.94" y1="90.02" x2="76.72" y2="90.02"/><line class="cls-2" x1="57.94" y1="96.28" x2="76.72" y2="96.28"/><path class="cls-2" d="M75.16,85.33v-1.56c0-2.83.98-5.43,2.94-7.43,2.96-3.02,4.88-6.75,4.88-11.34,0-8.64-7.01-15.65-15.65-15.65s-15.65,7.01-15.65,15.65c0,4.6,1.92,8.33,4.88,11.34,1.96,2,2.94,4.61,2.94,7.43v1.56"/><polyline class="cls-2" points="62.64 69.68 67.33 74.38 72.03 69.68"/><line class="cls-2" x1="67.33" y1="74.38" x2="67.33" y2="85.33"/><path class="cls-1" d="M57.94,64.99c0-5.19,4.2-9.39,9.39-9.39"/></g></svg>