<?xml version="1.0" encoding="UTF-8"?><svg id="Layer_2" xmlns="http://www.w3.org/2000/svg" viewBox="0 0 206.11 199.72"><defs><style>.cls-1{fill:#3f156b;}</style></defs><g id="Camada_1"><path class="cls-1" d="m151.16,185.47c23.04-13.71,39.41-35.5,46.08-61.36.64-2.5,1.19-5.01,1.64-7.52,1.42.35,3,.16,4.38-.67,2.74-1.63,3.67-5.1,2.09-7.76-1.09-1.83-3.09-2.79-5.12-2.68,1.3-19.83-3.38-39.54-13.74-56.95-13.61-22.87-35.37-39.03-61.28-45.51-21.57-5.39-43.87-3.53-64.02,5.15-.04-.07-.07-.13-.11-.2-1.88-3.17-6.06-4.16-9.32-2.22-3.07,1.83-4.24,5.6-2.8,8.68-.9.53-1.77,1.09-2.64,1.65C24.84,29.87,9.59,50.87,3.21,75.61c-6.67,25.86-2.86,52.7,10.75,75.57,11.02,18.52,27.39,32.64,46.98,40.78-.06.59.05,1.2.37,1.74.81,1.36,2.61,1.79,4.01.95.32-.19.59-.43.81-.7,2.97,1.05,6.01,1.96,9.11,2.74,25.91,6.48,52.87,2.49,75.91-11.21ZM49.62,15.55c2.02,2.73,5.89,3.5,8.96,1.68,2.76-1.64,3.98-4.87,3.14-7.74,40.65-16.68,88.59-1.54,111.7,37.31,25.42,42.72,11.31,98.17-31.45,123.61-42.76,25.44-98.22,11.37-123.63-31.35C-6.28,97.68,6.18,44.35,45.84,17.93c1.23-.82,2.49-1.61,3.77-2.38Zm17.1,177.18c.15-.68.06-1.42-.32-2.06-.81-1.36-2.61-1.79-4.01-.95-.42.25-.75.58-1,.96-18.74-7.82-35.19-21.46-46.32-40.16C-3.44,119.42-2.61,82.06,13.94,52.35.66,79.23.8,112.1,17.23,139.72c25.78,43.33,82.04,57.6,125.41,31.8,43.37-25.8,57.68-82.05,31.9-125.38C157.42,17.38,126.9,1.43,95.62,1.49c35.39-1.82,70.52,15.38,89.75,47.71,10.52,17.68,14.79,37.37,13.48,56.53-.45.14-.9.32-1.32.58-2.74,1.63-3.67,5.1-2.09,7.76.53.9,1.29,1.58,2.16,2.04-4.82,27.48-21.19,52.85-47.1,68.26-26.34,15.67-57.02,17.77-83.78,8.37Z"/><ellipse class="cls-1" cx="100.52" cy="97.25" rx="70.05" ry="69.54" transform="translate(-35.59 65.07) rotate(-30.75)"/></g></svg>