<?xml version="1.0" encoding="UTF-8"?><svg id="Layer_2" xmlns="http://www.w3.org/2000/svg" viewBox="0 0 67.64 54.86"><defs><style>.cls-1{fill:#004b8d;}</style></defs><g id="Camada_2"><path class="cls-1" d="M30.17,27.97c.22.2.51.31.81.31.04,0,.07,0,.11,0,.33-.03.64-.19.85-.46l12.26-15.49c.42-.53.33-1.29-.2-1.71-.53-.42-1.29-.33-1.71.2l-11.46,14.48-5.6-4.95c-.5-.45-1.27-.4-1.72.11-.45.5-.4,1.27.11,1.72l6.57,5.8Z"/><path class="cls-1" d="M61.32,0H6.33C2.84,0,0,2.84,0,6.33v33.09c0,3.49,2.84,6.33,6.33,6.33h20.17l-1.94,6.68h-4.14c-.67,0-1.22.55-1.22,1.22s.55,1.22,1.22,1.22h5.05s0,0,0,0c0,0,0,0,0,0h16.7s0,0,0,0c0,0,0,0,0,0h5.05c.67,0,1.22-.55,1.22-1.22s-.55-1.22-1.22-1.22h-4.14l-1.94-6.68h20.17c3.49,0,6.33-2.84,6.33-6.33V6.33c0-3.49-2.84-6.33-6.33-6.33ZM6.33,2.44h54.99c2.15,0,3.89,1.75,3.89,3.89v29.66H2.44V6.33c0-2.15,1.75-3.89,3.89-3.89ZM40.55,52.42h-13.46l1.94-6.68h9.57l1.94,6.68ZM61.32,43.31H6.33c-2.15,0-3.89-1.75-3.89-3.89v-.99h62.77v.99c0,2.15-1.75,3.89-3.89,3.89Z"/></g></svg>