<?xml version="1.0" encoding="UTF-8"?><svg id="Layer_2" xmlns="http://www.w3.org/2000/svg" viewBox="0 0 226.67 174.22"><defs><style>.cls-1{fill:#fff;}.cls-1,.cls-2,.cls-3{fill-rule:evenodd;}.cls-4{fill:none;}.cls-2{fill:#f49323;}</style></defs><g id="Camada_1"><rect class="cls-4" width="226.67" height="174.22"/><g id="Layer_x5F_1"><g id="_328503576"><path id="_331338440" class="cls-1" d="M116.44,156.39c-3.53,0-6.41-2.87-6.41-6.41s2.87-6.41,6.41-6.41,6.41,2.87,6.41,6.41c0,3.53-2.87,6.41-6.41,6.41ZM116.44,146.78c-1.76,0-3.19,1.43-3.19,3.19s1.43,3.19,3.19,3.19,3.19-1.43,3.19-3.19c0-1.76-1.43-3.19-3.19-3.19Z"/><path id="_331343840" class="cls-1" d="M145.25,162.63h-57.74c-8.03,0-14.57-6.54-14.57-14.57v-38.46c0-.89.72-1.61,1.61-1.61s1.61.72,1.61,1.61v38.46c0,6.26,5.09,11.35,11.35,11.35h57.74c6.26,0,11.35-5.09,11.35-11.36l.11-60.54-.11-55v-6.37c0-6.26-5.09-11.35-11.35-11.35h-57.74c-6.26,0-11.35,5.09-11.35,11.35v67.38c0,.89-.72,1.61-1.61,1.61s-1.61-.72-1.61-1.61V26.16c0-8.03,6.54-14.57,14.57-14.57h57.74c8.03,0,14.57,6.54,14.57,14.57v6.36l.11,55.01-.11,60.54c0,8.03-6.54,14.57-14.57,14.57h0Z"/><path id="_328503432" class="cls-3" d="M74.66,61.4c-.42,0-.84-.17-1.14-.47-.3-.3-.47-.71-.47-1.14s.17-.83.47-1.14c.3-.3.72-.47,1.14-.47s.83.17,1.14.47c.3.3.47.71.47,1.14s-.17.83-.47,1.14c-.3.3-.71.47-1.14.47Z"/><path id="_328503264" class="cls-1" d="M143.35,140.14h-53.83c-3.76,0-6.83-3.06-6.83-6.83v-23.7c0-.89.72-1.61,1.61-1.61s1.61.72,1.61,1.61v23.7c0,1.99,1.62,3.61,3.62,3.61h53.83c1.99,0,3.62-1.62,3.62-3.61V29.67c0-2-1.62-3.62-3.62-3.62h-12.61c-.75,3.66-3.99,6.43-7.87,6.43h-12.85c-3.88,0-7.13-2.77-7.87-6.43h-12.61c-1.99,0-3.62,1.62-3.62,3.62v22.1c0,.89-.72,1.61-1.61,1.61s-1.61-.72-1.61-1.61v-22.1c0-3.77,3.06-6.83,6.83-6.83h14.06c.89,0,1.61.72,1.61,1.61,0,2.66,2.16,4.82,4.82,4.82h12.85c2.66,0,4.82-2.16,4.82-4.82,0-.89.72-1.61,1.61-1.61h14.06c3.76,0,6.83,3.06,6.83,6.83v103.64c0,3.76-3.06,6.83-6.83,6.83h0Z"/><path id="_328505304" class="cls-1" d="M84.3,95.15c-.89,0-1.61-.72-1.61-1.61v-25.71c0-.89.72-1.61,1.61-1.61s1.61.72,1.61,1.61v25.71c0,.89-.72,1.61-1.61,1.61Z"/><path id="_328504152" class="cls-1" d="M148.57,128.89h-64.27c-.89,0-1.61-.72-1.61-1.61s.72-1.61,1.61-1.61h64.27c.89,0,1.61.72,1.61,1.61s-.72,1.61-1.61,1.61Z"/><path id="_328502112" class="cls-2" d="M56.16,146.7c-4.43,0-8.03-3.6-8.03-8.03s3.6-8.03,8.03-8.03,8.03,3.6,8.03,8.03-3.6,8.03-8.03,8.03ZM56.16,133.84c-2.66,0-4.82,2.16-4.82,4.82s2.16,4.82,4.82,4.82,4.82-2.16,4.82-4.82-2.16-4.82-4.82-4.82Z"/><path id="_328502352" class="cls-2" d="M172.9,160.47c-4.43,0-8.04-3.6-8.04-8.03s3.6-8.03,8.04-8.03,8.03,3.6,8.03,8.03-3.6,8.03-8.03,8.03ZM172.9,147.62c-2.66,0-4.82,2.16-4.82,4.82s2.16,4.82,4.82,4.82,4.82-2.16,4.82-4.82-2.16-4.82-4.82-4.82Z"/><path id="_328504632" class="cls-2" d="M116.44,75.86c-.5,0-.98-.24-1.29-.64l-4.34-5.79h-28.12c-5.32,0-9.64-4.33-9.64-9.64s4.32-9.64,9.64-9.64h41.78c5.32,0,9.64,4.32,9.64,9.64s-4.32,9.64-9.64,9.64h-3.83l-2.77,5.54c-.25.5-.74.83-1.29.88-.05,0-.1,0-.14,0h0ZM82.69,53.37c-3.54,0-6.43,2.88-6.43,6.43s2.88,6.43,6.43,6.43h28.92c.51,0,.98.24,1.29.64l3.26,4.35,2.05-4.1c.27-.54.83-.89,1.44-.89h4.82c3.54,0,6.43-2.88,6.43-6.43s-2.88-6.43-6.43-6.43h-41.78s0,0,0,0h0Z"/><path id="_328502760" class="cls-2" d="M92.33,117.64c-.5,0-.98-.24-1.29-.64l-4.34-5.79h-28.12c-5.32,0-9.64-4.32-9.64-9.64s4.32-9.64,9.64-9.64h41.78c5.32,0,9.64,4.32,9.64,9.64s-4.32,9.64-9.64,9.64h-3.83l-2.77,5.54c-.25.5-.74.83-1.29.88-.05,0-.1,0-.14,0h0ZM58.59,95.15c-3.54,0-6.43,2.88-6.43,6.43s2.88,6.43,6.43,6.43h28.92c.51,0,.98.24,1.29.64l3.26,4.35,2.05-4.1c.27-.54.83-.89,1.44-.89h4.82c3.54,0,6.43-2.88,6.43-6.43s-2.88-6.43-6.43-6.43h-41.78s0,0,0,0h0Z"/><path id="_328503168" class="cls-2" d="M56.98,56.58c-6.2,0-11.25-5.05-11.25-11.25s5.05-11.25,11.25-11.25,11.25,5.05,11.25,11.25c0,6.2-5.04,11.25-11.25,11.25ZM56.98,37.3c-4.43,0-8.03,3.6-8.03,8.03s3.6,8.03,8.03,8.03,8.03-3.6,8.03-8.03c0-4.43-3.6-8.03-8.03-8.03Z"/><path id="_328505376" class="cls-1" d="M148.57,120.85h-25.71c-.89,0-1.61-.72-1.61-1.61s.72-1.61,1.61-1.61h25.71c.89,0,1.61.72,1.61,1.61s-.72,1.61-1.61,1.61Z"/><path id="_328504584" class="cls-1" d="M148.57,112.82h-25.71c-.89,0-1.61-.72-1.61-1.61s.72-1.61,1.61-1.61h25.71c.89,0,1.61.72,1.61,1.61s-.72,1.61-1.61,1.61Z"/><path id="_328504224" class="cls-1" d="M148.57,104.79h-25.71c-.89,0-1.61-.72-1.61-1.61s.72-1.61,1.61-1.61h25.71c.89,0,1.61.72,1.61,1.61s-.72,1.61-1.61,1.61Z"/><path id="_328504896" class="cls-1" d="M148.57,96.75h-25.71c-.89,0-1.61-.72-1.61-1.61s.72-1.61,1.61-1.61h25.71c.89,0,1.61.72,1.61,1.61s-.72,1.61-1.61,1.61Z"/></g></g></g></svg>