<?xml version="1.0" encoding="UTF-8"?><svg id="Layer_2" xmlns="http://www.w3.org/2000/svg" viewBox="0 0 298.77 347"><defs><style>.cls-1{fill:#fff;}.cls-2{fill:#fac482;}.cls-3{fill:#f29100;}</style></defs><g id="Camada_1"><path class="cls-3" d="M298.77,84.07c-19.3-1.09-38.86-1.31-58.65-.59-47.53,1.75-93.44,8.74-136.92,20.24-21.69,29.13-39.61,60.45-53.23,93.42,20.96,20.62,43.84,40.04,68.46,57.94,32.1-23.75,67.24-44.92,105.19-62.86,24.8-11.7,49.91-21.6,75.15-29.76v-78.39Z"/><path class="cls-2" d="M56.92,203.86c-.67-.64-1.33-1.28-2-1.91M118.48,255.09c-3.04-2.21-6.05-4.44-9.04-6.69l-.12-.09-.04-.04c-18.52-14-36-28.85-52.37-44.42-.67-.64-1.33-1.28-2-1.91l-1-.96-1-.96-.99-.96-.99-.97-.98-.97c13.61-32.95,31.53-64.28,53.22-93.43-36.16,9.55-70.69,22.23-103.2,37.66,15.23,19.4,31.9,38.05,49.96,55.8-19.46,47.08-30.05,97.51-30.21,149.83,28.52-33.5,61.59-64.38,98.73-91.91"/><path class="cls-1" d="M298.77,22.37c-13.89-4.57-28.11-8.65-42.61-12.2-16.27-3.83-32.64-7.47-49.55-9.93-.63-.1-1.35-.14-1.98-.24-24.02,17.74-46.15,37.32-66.06,58.35,22.05-3.23,44.56-5.29,67.56-6.12,31.56-1.16,62.5.18,92.63,3.75V22.37Z"/></g></svg>