<?xml version="1.0" encoding="UTF-8"?>
<svg id="Camada_2" xmlns="http://www.w3.org/2000/svg" viewBox="0 0 669.3 431.94">
  <defs>
    <style>
      .cls-1 {
        opacity: .3;
      }

      .cls-2 {
        fill: #fff;
        stroke: #f7941d;
        stroke-miterlimit: 10;
        stroke-width: 4.57px;
      }
    </style>
  </defs>
  <g id="Camada_1-2" data-name="Camada_1">
    <g class="cls-1">
      <path class="cls-2" d="M285.11,251.98c125.82-45.18,254.12-57.01,372.48-40.3-97.98-55.08-213.13-90.2-337.72-97.69-61.42-3.65-121.42-.36-178.84,9.05-31.56,34.81-58.52,72.92-80.16,113.69,24.44,29.15,51.49,57,80.96,83.11,44.29-26.59,92.18-49.48,143.28-67.86"/>
      <path class="cls-2" d="M69,246.26c-.78-.91-1.56-1.81-2.34-2.71M141.89,319.88c-3.64-3.22-7.24-6.47-10.8-9.74l-.14-.13-.05-.03c-22.1-20.33-42.77-41.63-61.91-63.72-.78-.91-1.56-1.81-2.34-2.71h0s-1.16-1.37-1.16-1.37l-1.16-1.37-1.16-1.35-1.15-1.36-1.15-1.36c21.62-40.75,48.59-78.86,80.16-113.69-47.76,7.8-93.8,19.83-137.57,35.67,17.19,26.87,36.34,52.97,57.39,78.06-30.89,58.21-50.81,121.83-57.53,189.18,40.9-39.59,87.32-75.25,138.56-106.07"/>
      <path class="cls-2" d="M355.1,22.5c-21.05-7.16-42.26-14.06-64.33-19.49-.82-.21-1.76-.36-2.58-.57-34.07,20.42-65.88,43.52-94.94,68.83,29.61-1.47,59.69-1.31,90.25.53,106.68,6.37,206.09,33.55,294.14,75.55-61.44-51.69-137.42-95.08-222.54-124.85"/>
    </g>
  </g>
</svg>