<?xml version="1.0" encoding="UTF-8"?><svg id="Layer_2" xmlns="http://www.w3.org/2000/svg" viewBox="0 0 504.28 127.23"><defs><style>.cls-1{fill:none;stroke:#004a8d;stroke-miterlimit:10;stroke-width:1.5px;}</style></defs><g id="Camada_1"><path class="cls-1" d="M190.67,62.38c-1.91-12.72-10.38-21.33-23.89-21.33s-22,8.43-24.54,21.33h48.43ZM395.75,85.06c.36-3.02.1-5.51.1-6.5,0,0-27.49-3.85-38.54,3-8.22,5.09-7.35,21.81,17.1,20.53,3.43-.18,18.55-2.38,21.34-17.02h0M503.53,125.86c-1.22.03-2.4.06-3.68.06-36.53,0-66.18-19.75-73.35-46.85v41.76h-31.08v-11.55c-7.8,7.66-18.58,12.72-34.25,12.72-18.51,0-34.17-8.16-37.99-23.28v21.99h-32.17v-55.01c-.57-10.04-4.84-21.89-19.46-21.89s-18.61,11.85-19.2,21.89v55.01h-32.48v-40.59h-77.23c3.19,12.91,13.33,19.63,27.71,19.63.85,0,3.9-.15,4.71-.19v22.84c-.98.02-4.15.15-5.12.15-26.03,0-46.87-12.35-55.23-31.88-1.25,22.96-23.13,35.8-53.93,35.8-22.26,0-42.01-6.47-59.65-19.56l19.13-19.03c13.22,9.08,24.36,14.84,41.16,14.84,13.23,0,21.22-4.36,21.22-11.52v-.35c0-6.81-2.32-10.31-26.88-15.55-29.63-6.29-48.71-13.09-48.71-37.36v-.33C7.05,15.43,28.45.75,58.5.75c6.28,0,14.54,1.07,19.93,2v25.62c-5.79-2.14-14.04-3.86-20.36-3.86-12.38,0-18.9,4.71-18.9,10.63v.36c0,8.03,3.58,10.64,28.99,16.06,21.35,4.62,36.03,10.51,42.65,21.3-.03-.7-.04-1.39-.04-2.1v-.37c0-28.59,23.03-52.15,56.02-52.15s49.37,19.2,53.46,42.64c2.59-23.78,19.2-41.49,51.31-41.49,35.06,0,51.63,21.15,51.63,48.26v15.74c3.65-15.41,18.82-24.94,48.6-24.18,7.52.2,16.2.8,23.85,1.7-.14-6.74-3.05-11.72-8.66-14.67-3.82-2.01-12.39-3.07-18.65-3.13v-24.24c1.34-.04,6.26-.06,7.68-.06,31.7,0,47.36,13.13,50.07,35.69,6.3-28.47,36.16-48.74,74.33-48.74,1.05,0,2.11,0,3.13.04v24.02c-1.1-.06-2.24-.1-3.42-.1-21.97,0-39.2,15.66-39.2,35.66v.47c0,20.9,17.19,36.07,40.89,36.07.59,0,1.15-.02,1.72-.03v23.96Z"/></g></svg>