<?xml version="1.0" encoding="UTF-8"?><svg id="Camada_2" xmlns="http://www.w3.org/2000/svg" xmlns:xlink="http://www.w3.org/1999/xlink" viewBox="0 0 219.8 360.82"><defs><style>.cls-1,.cls-2{opacity:.05;}.cls-1,.cls-3{fill:#ff6511;}.cls-4,.cls-2{fill:#662d91;}.cls-5{fill:url(#Gradiente_sem_nome_24);}.cls-5,.cls-6{opacity:.5;}.cls-6{fill:url(#Gradiente_sem_nome_36);}</style><linearGradient id="Gradiente_sem_nome_36" x1="133.05" y1="-387.81" x2="226.84" y2="-387.81" gradientTransform="translate(-33.01 -79.18) scale(1 -1)" gradientUnits="userSpaceOnUse"><stop offset="0" stop-color="#fff" stop-opacity="0"/><stop offset=".18" stop-color="#e9e0ef" stop-opacity=".14"/><stop offset=".56" stop-color="#b093c6" stop-opacity=".51"/><stop offset="1" stop-color="#662d91"/></linearGradient><linearGradient id="Gradiente_sem_nome_24" x1="72.13" y1="46.84" x2="188.41" y2="46.84" gradientTransform="translate(217.8) rotate(-180) scale(1 -1)" gradientUnits="userSpaceOnUse"><stop offset="0" stop-color="#fff" stop-opacity="0"/><stop offset="0" stop-color="#fffdfc" stop-opacity=".01"/><stop offset=".38" stop-color="#ffbd99" stop-opacity=".43"/><stop offset=".68" stop-color="#ff8d4f" stop-opacity=".74"/><stop offset=".9" stop-color="#ff7022" stop-opacity=".93"/><stop offset="1" stop-color="#ff6511"/></linearGradient></defs><g id="Camada_1-2"><rect class="cls-6" x="100.04" y="277.58" width="93.79" height="62.12" transform="translate(416.64 518.66) rotate(153.37)"/><circle class="cls-2" cx="47.06" cy="301.26" r="21.22"/><circle class="cls-4" cx="104.83" cy="329.75" r="31.06"/><path class="cls-3" d="m33.29.32l29.27,7.88c3.24.87,5.77,3.41,6.63,6.65l7.81,29.29c.86,3.24-.07,6.7-2.44,9.07l-21.46,21.4c-2.38,2.37-5.84,3.29-9.08,2.42l-29.27-7.88c-3.24-.87-5.77-3.41-6.63-6.65L.32,33.22c-.86-3.24.07-6.7,2.44-9.07L24.22,2.74C26.59.37,30.05-.55,33.29.32Z"/><path class="cls-1" d="m109.21,85.28l29.27,7.88c3.24.87,5.77,3.41,6.63,6.65l7.81,29.29c.86,3.24-.07,6.7-2.44,9.07l-21.46,21.4c-2.38,2.37-5.84,3.29-9.08,2.42l-29.27-7.88c-3.24-.87-5.77-3.41-6.63-6.65l-7.81-29.29c-.86-3.24.07-6.7,2.44-9.07l21.46-21.4c2.38-2.37,5.84-3.29,9.08-2.42Z"/><path class="cls-5" d="m47.93,4.26l93.68,25.23c-1.98,2.43-2.71,5.67-1.89,8.74l5.95,22.32-6.94,25.78c-.5-.23-1.01-.43-1.55-.58l-28.76-7.74c-3.4-.91-7.02.05-9.51,2.54l-8.9,8.87-60.61-16.32L47.93,4.26Z"/><path class="cls-1" d="m175.77,4.04l29.27,7.88c3.24.87,5.77,3.41,6.63,6.65l7.81,29.29c.86,3.24-.07,6.7-2.44,9.07l-21.46,21.4c-2.38,2.37-5.84,3.29-9.08,2.42l-29.27-7.88c-3.24-.87-5.77-3.41-6.63-6.65l-7.81-29.29c-.86-3.24.07-6.7,2.44-9.07l21.46-21.4c2.38-2.37,5.84-3.29,9.08-2.42Z"/></g></svg>