<?xml version="1.0" encoding="UTF-8"?>
<svg id="Camada_2" xmlns="http://www.w3.org/2000/svg" viewBox="0 0 1601.13 1616.32">
  <defs>
    <style>
      .cls-1 {
        fill: #fff;
      }

      .cls-2 {
        opacity: .5;
      }
    </style>
  </defs>
  <g id="Camada_1-2" data-name="Camada_1">
    <g class="cls-2">
      <path class="cls-1" d="M353.66,44.67c-17.87-6.5-36.65-9.8-55.83-9.8-2.02,0-4.07.04-6.09.11-6.26.23-12.5.8-18.55,1.68l-1.04.15.72-.76c5.5-5.82,11.63-11.24,18.22-16.1l.12-.09.15.02c.09.01.18.02.28.03.09,0,.18.02.26.03,4.4.64,8.65,1.56,13.66,2.74,17.71,4.33,34.45,11.72,48.42,21.34l-.33.64ZM297.83,34.14c18.29,0,36.23,2.99,53.37,8.88-13.4-8.79-29.17-15.56-45.8-19.63-5-1.17-9.22-2.09-13.6-2.73-.07-.01-.15-.02-.23-.03-.05,0-.11-.01-.16-.02-6.22,4.6-12.03,9.7-17.28,15.17,5.74-.81,11.66-1.32,17.58-1.54,2.03-.08,4.09-.11,6.12-.11"/>
      <path class="cls-1" d="M267.72,88.79l-.43-.58c8.75-6.48,18.25-12.15,28.21-16.85,23.57-11.13,49.16-16.58,74.12-15.81-21.4-9.12-45.39-13.48-69.54-12.6-12.4.46-24.66,2.26-36.44,5.37-5.79,7.79-10.54,16.14-14.12,24.82l-.67-.27c3.62-8.77,8.43-17.21,14.29-25.08l.08-.1.12-.03c11.87-3.14,24.22-4.97,36.72-5.43,12.67-.46,25.29.5,37.51,2.83,11.85,2.27,23.32,5.83,34.11,10.6l-.16.69c-25.45-1.12-51.63,4.3-75.71,15.67-9.92,4.69-19.37,10.33-28.08,16.78"/>
      <path class="cls-1" d="M267.5,88.86h-.12l-.11-.07c-12.08-8.79-22.76-19.05-31.75-30.5l-.28-.36.41-.2c8.79-4.17,18.1-7.57,27.68-10.1l.18.7c-9.38,2.48-18.51,5.79-27.14,9.86,8.89,11.25,19.43,21.34,31.33,30l-.2.28v.38Z"/>
      <path class="cls-1" d="M240.73,114.08v-.99c.04-13.78,2.77-27.32,8.11-40.24l.67.28c-5.18,12.52-7.88,25.62-8.05,38.97,7.53-8.74,16.22-16.77,25.82-23.89l.44.58c-9.84,7.29-18.71,15.55-26.35,24.53l-.64.76Z"/>
      <path class="cls-1" d="M484.49,289.48c-26.63-9.69-54.61-14.6-83.17-14.6-3.01,0-6.06.06-9.07.17-9.33.34-18.63,1.18-27.63,2.51l-1.04.15.72-.76c8.19-8.65,17.31-16.71,27.1-23.94l.12-.09.15.02c.13.02.27.04.42.05.13.01.26.03.39.05,7.28,1.07,14.3,2.66,20.32,4.08,26.33,6.45,51.23,17.42,72.01,31.73l-.33.64ZM401.33,274.15c27.68,0,54.82,4.6,80.72,13.68-20.22-13.48-44.15-23.84-69.41-30.02-6-1.41-13.01-3.01-20.25-4.07-.11-.01-.23-.03-.36-.04-.1-.01-.2-.02-.31-.04-9.43,6.98-18.23,14.71-26.17,23.01,8.7-1.24,17.67-2.03,26.67-2.36,3.02-.11,6.08-.17,9.1-.17"/>
      <path class="cls-1" d="M356.39,355.18l-.43-.58c13.03-9.64,27.14-18.07,41.97-25.07,18.25-8.62,37.33-14.98,56.72-18.91,18.13-3.67,36.44-5.21,54.47-4.58-32.09-13.84-68.16-20.46-104.46-19.14-18.49.68-36.77,3.38-54.34,8.02-8.65,11.62-15.74,24.08-21.08,37.03l-.67-.27c5.38-13.05,12.53-25.59,21.24-37.29l.08-.1.12-.03c17.66-4.67,36.03-7.39,54.62-8.07,18.84-.68,37.62.73,55.8,4.21,17.62,3.37,34.69,8.67,50.74,15.76l-.16.7c-37.92-1.67-76.92,6.4-112.79,23.34-14.78,6.98-28.85,15.39-41.84,25"/>
      <path class="cls-1" d="M356.17,355.25h-.12l-.11-.07c-17.97-13.07-33.86-28.34-47.23-45.36l-.28-.36.41-.19c13.08-6.21,26.93-11.26,41.17-15.02l.19.7c-14.05,3.71-27.72,8.68-40.63,14.78,13.27,16.83,29.01,31.92,46.8,44.86l-.21.28v.37Z"/>
      <path class="cls-1" d="M316.5,392.49v-.99c.06-20.5,4.12-40.62,12.06-59.83l.67.28c-7.77,18.8-11.81,38.5-12,58.56,11.29-13.14,24.31-25.22,38.73-35.91l.43.58c-14.65,10.86-27.86,23.16-39.26,36.55l-.64.76Z"/>
      <path class="cls-1" d="M269.12,472.76c-14.81-5.39-30.38-8.12-46.27-8.12-1.67,0-3.37.03-5.05.09-5.19.19-10.37.66-15.37,1.4l-1.04.15.72-.76c4.57-4.82,9.65-9.32,15.12-13.35l.12-.09.15.02c.07.01.15.02.23.03.08,0,.15.01.22.03,3.65.54,7.17,1.3,11.33,2.27,14.69,3.6,28.58,9.72,40.16,17.7l-.33.64ZM222.85,463.92c15.01,0,29.73,2.43,43.8,7.21-11.02-7.16-23.93-12.67-37.54-16-4.14-.97-7.64-1.73-11.27-2.26-.06,0-.13-.01-.19-.02-.04,0-.07,0-.11-.01-5.1,3.78-9.87,7.95-14.18,12.43,4.71-.65,9.56-1.08,14.41-1.25,1.68-.06,3.39-.09,5.07-.09"/>
      <path class="cls-1" d="M197.92,509.34l-.43-.58c7.26-5.37,15.14-10.08,23.4-13.98,19.46-9.19,40.56-13.7,61.16-13.12-17.65-7.47-37.43-11.03-57.33-10.31-10.27.38-20.42,1.87-30.18,4.44-4.79,6.45-8.72,13.36-11.69,20.55l-.67-.28c3-7.28,6.99-14.28,11.85-20.8l.08-.1.13-.03c9.84-2.61,20.09-4.12,30.46-4.51,10.51-.38,20.98.41,31.12,2.35,9.83,1.88,19.35,4.83,28.3,8.79l-.17.69c-21.09-.93-42.79,3.56-62.74,12.98-8.22,3.88-16.05,8.56-23.28,13.91"/>
      <path class="cls-1" d="M197.7,509.41h-.12l-.1-.07c-10.02-7.29-18.89-15.8-26.34-25.3l-.28-.36.41-.19c7.3-3.46,15.02-6.28,22.96-8.38l.18.7c-7.75,2.04-15.29,4.78-22.42,8.14,7.35,9.3,16.07,17.64,25.92,24.8l-.21.28v.37Z"/>
      <path class="cls-1" d="M175.44,530.43v-.99c.04-11.44,2.3-22.67,6.73-33.39l.67.28c-4.27,10.32-6.51,21.12-6.67,32.12,6.22-7.2,13.39-13.82,21.31-19.69l.43.58c-8.15,6.04-15.5,12.89-21.84,20.33l-.64.76Z"/>
      <path class="cls-1" d="M193.51,144.75c-29.27-10.65-60.04-16.05-91.44-16.05-3.31,0-6.66.06-9.97.18-10.26.37-20.48,1.3-30.38,2.75l-1.04.15.72-.76c9-9.51,19.02-18.37,29.79-26.32l.12-.09.15.03c.14.02.31.04.46.05.14.01.29.03.42.05,7.2,1.06,14.13,2.56,22.34,4.48,28.94,7.09,56.31,19.15,79.15,34.89l-.33.64ZM102.06,127.97c30.53,0,60.45,5.09,89,15.13-22.28-14.9-48.68-26.35-76.55-33.17-8.18-1.92-15.1-3.42-22.27-4.47-.13-.02-.26-.03-.39-.05-.12,0-.23-.02-.35-.04-10.4,7.69-20.1,16.23-28.85,25.38,9.6-1.37,19.49-2.25,29.42-2.61,3.32-.12,6.68-.18,10-.18"/>
      <path class="cls-1" d="M52.64,216.99l-.43-.58c14.32-10.59,29.84-19.86,46.12-27.56,20.06-9.47,41.04-16.46,62.35-20.78,19.99-4.05,40.19-5.74,60.07-5.02-35.33-15.27-75.05-22.57-115.03-21.13-20.33.75-40.44,3.72-59.76,8.82-9.51,12.78-17.31,26.48-23.19,40.73l-.67-.28c5.91-14.34,13.77-28.13,23.35-40.98l.08-.1.12-.03c19.41-5.14,39.61-8.12,60.04-8.88,20.71-.75,41.35.81,61.34,4.63,19.37,3.71,38.13,9.54,55.78,17.33l-.16.69c-41.69-1.83-84.57,7.04-124.01,25.66-16.25,7.67-31.72,16.92-46,27.49"/>
      <path class="cls-1" d="M52.42,217.06h-.14l-.09-.07c-19.76-14.37-37.22-31.15-51.92-49.86l-.28-.36.41-.2c14.38-6.82,29.6-12.38,45.25-16.51l.19.7c-15.46,4.08-30.5,9.56-44.71,16.27,14.59,18.52,31.91,35.13,51.49,49.36l-.2.27v.39Z"/>
      <path class="cls-1" d="M8.85,257.93v-.99c.07-22.53,4.53-44.65,13.26-65.76l.67.28c-8.56,20.71-13,42.41-13.2,64.49,12.42-14.47,26.76-27.77,42.64-39.54l.43.59c-16.11,11.94-30.63,25.46-43.16,40.18l-.64.76Z"/>
      <path class="cls-1" d="M889.33,44.67c-17.87-6.5-36.65-9.8-55.83-9.8-2.02,0-4.07.04-6.09.11-6.26.23-12.5.8-18.55,1.68l-1.04.15.72-.76c5.5-5.82,11.63-11.24,18.22-16.1l.12-.09.15.02c.09.01.18.02.28.03.09,0,.18.02.26.03,4.4.64,8.65,1.56,13.66,2.74,17.71,4.33,34.45,11.72,48.42,21.34l-.33.64ZM833.5,34.14c18.29,0,36.23,2.99,53.37,8.88-13.4-8.79-29.17-15.56-45.8-19.63-5-1.17-9.22-2.09-13.6-2.73-.07-.01-.15-.02-.23-.03-.05,0-.11-.01-.16-.02-6.22,4.6-12.03,9.7-17.28,15.17,5.74-.81,11.66-1.32,17.58-1.54,2.03-.08,4.09-.11,6.12-.11"/>
      <path class="cls-1" d="M803.39,88.79l-.43-.58c8.75-6.48,18.25-12.15,28.21-16.85,23.57-11.13,49.16-16.58,74.12-15.81-21.4-9.12-45.39-13.48-69.54-12.6-12.4.46-24.66,2.26-36.44,5.37-5.79,7.79-10.54,16.14-14.12,24.82l-.67-.27c3.62-8.77,8.43-17.21,14.29-25.08l.08-.1.12-.03c11.87-3.14,24.22-4.97,36.72-5.43,12.67-.46,25.29.5,37.51,2.83,11.85,2.27,23.32,5.83,34.11,10.6l-.16.69c-25.45-1.12-51.63,4.3-75.71,15.67-9.92,4.69-19.37,10.33-28.08,16.78"/>
      <path class="cls-1" d="M803.17,88.86h-.12l-.11-.07c-12.08-8.79-22.76-19.05-31.75-30.5l-.28-.36.41-.2c8.79-4.17,18.1-7.57,27.68-10.1l.18.7c-9.38,2.48-18.51,5.79-27.14,9.86,8.89,11.25,19.43,21.34,31.33,30l-.2.28v.38Z"/>
      <path class="cls-1" d="M776.4,114.08v-.99c.04-13.78,2.77-27.32,8.11-40.24l.67.28c-5.18,12.52-7.88,25.62-8.05,38.97,7.53-8.74,16.22-16.77,25.82-23.89l.44.58c-9.84,7.29-18.71,15.55-26.35,24.53l-.64.76Z"/>
      <path class="cls-1" d="M1020.16,289.48c-26.63-9.69-54.61-14.6-83.17-14.6-3.01,0-6.06.06-9.07.17-9.33.34-18.63,1.18-27.63,2.51l-1.04.15.72-.76c8.19-8.65,17.31-16.71,27.1-23.94l.12-.09.15.02c.13.02.27.04.42.05.13.01.26.03.39.05,7.28,1.07,14.3,2.66,20.32,4.08,26.33,6.45,51.23,17.42,72.01,31.73l-.33.64ZM936.99,274.15c27.68,0,54.83,4.6,80.72,13.68-20.22-13.48-44.15-23.84-69.41-30.02-6-1.41-13.01-3.01-20.25-4.07-.11-.01-.23-.03-.36-.04-.1-.01-.2-.02-.31-.04-9.43,6.98-18.23,14.71-26.17,23.01,8.7-1.24,17.67-2.03,26.67-2.36,3.02-.11,6.08-.17,9.1-.17"/>
      <path class="cls-1" d="M892.06,355.18l-.43-.58c13.03-9.64,27.14-18.07,41.97-25.07,18.25-8.62,37.33-14.98,56.72-18.91,18.13-3.67,36.44-5.21,54.47-4.58-32.09-13.84-68.16-20.46-104.46-19.14-18.49.68-36.77,3.38-54.34,8.02-8.65,11.63-15.74,24.08-21.08,37.03l-.67-.27c5.38-13.05,12.53-25.59,21.24-37.29l.08-.1.12-.03c17.66-4.67,36.03-7.39,54.62-8.07,18.84-.68,37.62.73,55.8,4.21,17.62,3.37,34.69,8.67,50.74,15.76l-.16.7c-37.91-1.67-76.92,6.4-112.79,23.34-14.78,6.98-28.85,15.39-41.84,25"/>
      <path class="cls-1" d="M891.84,355.25h-.12l-.11-.07c-17.97-13.07-33.86-28.34-47.23-45.36l-.28-.36.41-.19c13.08-6.21,26.93-11.26,41.17-15.02l.19.7c-14.05,3.71-27.72,8.68-40.63,14.78,13.26,16.83,29.01,31.92,46.8,44.86l-.21.28v.37Z"/>
      <path class="cls-1" d="M852.17,392.49v-.99c.06-20.5,4.12-40.62,12.06-59.83l.67.28c-7.77,18.8-11.81,38.5-12,58.56,11.29-13.14,24.31-25.22,38.73-35.91l.43.58c-14.65,10.86-27.86,23.16-39.26,36.55l-.64.76Z"/>
      <path class="cls-1" d="M804.79,472.76c-14.81-5.39-30.38-8.12-46.27-8.12-1.67,0-3.37.03-5.05.09-5.19.19-10.37.66-15.37,1.4l-1.04.15.72-.76c4.57-4.82,9.65-9.32,15.12-13.35l.12-.09.15.02c.07.01.15.02.23.03.08,0,.15.01.22.03,3.65.54,7.17,1.3,11.33,2.27,14.69,3.6,28.58,9.72,40.16,17.7l-.33.64ZM758.52,463.92c15.01,0,29.73,2.43,43.8,7.21-11.02-7.16-23.93-12.67-37.54-16-4.14-.97-7.64-1.73-11.27-2.26-.06,0-.13-.01-.19-.02-.04,0-.07,0-.11-.01-5.1,3.78-9.87,7.95-14.18,12.43,4.71-.65,9.56-1.08,14.41-1.25,1.68-.06,3.39-.09,5.07-.09"/>
      <path class="cls-1" d="M733.59,509.34l-.43-.58c7.26-5.37,15.14-10.08,23.4-13.98,19.46-9.19,40.56-13.7,61.16-13.12-17.65-7.47-37.43-11.03-57.33-10.31-10.27.38-20.42,1.87-30.18,4.44-4.79,6.45-8.72,13.36-11.69,20.55l-.67-.28c3-7.28,6.99-14.28,11.85-20.8l.08-.1.12-.03c9.85-2.61,20.1-4.12,30.46-4.51,10.51-.38,20.98.41,31.12,2.35,9.83,1.88,19.35,4.83,28.3,8.79l-.16.69c-21.09-.93-42.79,3.56-62.74,12.98-8.22,3.88-16.05,8.56-23.28,13.91"/>
      <path class="cls-1" d="M733.37,509.41h-.12l-.1-.07c-10.02-7.29-18.89-15.8-26.34-25.3l-.28-.36.41-.19c7.3-3.46,15.02-6.28,22.96-8.38l.18.7c-7.75,2.04-15.29,4.78-22.42,8.14,7.35,9.3,16.07,17.64,25.91,24.8l-.2.28v.37Z"/>
      <path class="cls-1" d="M711.11,530.43v-.99c.04-11.44,2.3-22.67,6.73-33.39l.67.28c-4.27,10.32-6.51,21.12-6.67,32.12,6.22-7.2,13.39-13.82,21.31-19.69l.43.58c-8.15,6.04-15.5,12.89-21.84,20.33l-.64.76Z"/>
      <path class="cls-1" d="M729.17,144.75c-29.27-10.65-60.04-16.05-91.44-16.05-3.31,0-6.66.06-9.97.18-10.26.37-20.48,1.3-30.38,2.75l-1.04.15.72-.76c9-9.51,19.02-18.37,29.79-26.32l.12-.09.15.03c.14.02.31.04.46.05.14.01.29.03.42.05,7.2,1.06,14.13,2.56,22.34,4.48,28.94,7.09,56.31,19.15,79.15,34.89l-.33.64ZM637.73,127.97c30.53,0,60.45,5.09,89,15.13-22.28-14.9-48.68-26.35-76.55-33.17-8.18-1.92-15.1-3.42-22.27-4.47-.13-.02-.26-.03-.39-.05-.12,0-.23-.02-.35-.04-10.4,7.69-20.1,16.23-28.85,25.38,9.6-1.37,19.49-2.25,29.42-2.61,3.32-.12,6.68-.18,10-.18"/>
      <path class="cls-1" d="M588.31,216.99l-.43-.58c14.32-10.59,29.84-19.86,46.12-27.56,20.06-9.47,41.04-16.46,62.35-20.78,19.99-4.05,40.19-5.74,60.07-5.02-35.33-15.27-75.05-22.57-115.03-21.13-20.33.75-40.44,3.72-59.76,8.82-9.51,12.78-17.31,26.48-23.19,40.73l-.67-.28c5.91-14.34,13.77-28.13,23.35-40.98l.08-.1.12-.03c19.41-5.14,39.61-8.12,60.04-8.88,20.71-.75,41.35.81,61.34,4.63,19.37,3.71,38.13,9.54,55.78,17.33l-.16.69c-41.69-1.83-84.57,7.04-124.01,25.66-16.25,7.67-31.72,16.92-46,27.49"/>
      <path class="cls-1" d="M588.09,217.06h-.14l-.09-.07c-19.76-14.37-37.22-31.15-51.92-49.86l-.28-.36.41-.2c14.38-6.82,29.6-12.38,45.25-16.51l.19.7c-15.46,4.08-30.5,9.56-44.71,16.27,14.59,18.52,31.91,35.13,51.49,49.36l-.2.27v.39Z"/>
      <path class="cls-1" d="M544.52,257.93v-.99c.07-22.53,4.53-44.65,13.26-65.76l.67.28c-8.56,20.71-13,42.41-13.2,64.49,12.42-14.47,26.76-27.77,42.64-39.54l.43.59c-16.11,11.94-30.63,25.46-43.16,40.18l-.64.76Z"/>
      <path class="cls-1" d="M353.66,579.15c-17.87-6.5-36.65-9.8-55.83-9.8-2.02,0-4.07.04-6.09.11-6.26.23-12.5.8-18.55,1.68l-1.04.15.72-.76c5.5-5.82,11.63-11.24,18.22-16.1l.12-.09.15.02c.09.01.18.02.27.03.09,0,.18.02.27.03,4.4.64,8.65,1.56,13.66,2.74,17.71,4.33,34.45,11.72,48.42,21.34l-.33.64ZM297.83,568.62c18.29,0,36.23,2.99,53.37,8.88-13.4-8.79-29.17-15.56-45.79-19.63-5-1.17-9.22-2.09-13.6-2.73-.07-.01-.15-.02-.23-.03-.05,0-.11-.01-.16-.02-6.22,4.6-12.03,9.7-17.29,15.17,5.75-.81,11.66-1.32,17.59-1.54,2.03-.08,4.09-.11,6.12-.11"/>
      <path class="cls-1" d="M267.72,623.27l-.43-.58c8.75-6.48,18.25-12.15,28.21-16.85,23.57-11.13,49.16-16.58,74.12-15.81-21.4-9.12-45.39-13.48-69.54-12.6-12.4.46-24.66,2.26-36.44,5.37-5.79,7.79-10.54,16.14-14.12,24.82l-.67-.28c3.62-8.77,8.43-17.21,14.29-25.08l.08-.1.12-.03c11.87-3.14,24.22-4.97,36.72-5.43,12.67-.46,25.29.5,37.51,2.83,11.85,2.27,23.32,5.83,34.11,10.6l-.16.69c-25.45-1.12-51.63,4.3-75.71,15.67-9.92,4.68-19.37,10.33-28.08,16.78"/>
      <path class="cls-1" d="M267.5,623.34h-.12l-.11-.07c-12.08-8.79-22.76-19.05-31.75-30.5l-.28-.36.41-.2c8.79-4.17,18.1-7.57,27.68-10.1l.18.7c-9.38,2.48-18.51,5.79-27.14,9.86,8.89,11.25,19.43,21.34,31.33,30l-.2.28v.38Z"/>
      <path class="cls-1" d="M240.73,648.56v-.99c.04-13.78,2.77-27.32,8.11-40.24l.67.28c-5.18,12.52-7.88,25.62-8.05,38.97,7.53-8.74,16.22-16.77,25.82-23.89l.44.58c-9.84,7.29-18.71,15.55-26.35,24.53l-.64.76Z"/>
      <path class="cls-1" d="M484.49,823.96c-26.63-9.69-54.61-14.6-83.17-14.6-3.01,0-6.06.06-9.07.17-9.33.34-18.63,1.18-27.63,2.51l-1.04.15.72-.76c8.19-8.65,17.31-16.71,27.1-23.94l.12-.09.15.02c.13.02.28.04.42.05.13.01.26.03.39.05,7.28,1.06,14.3,2.66,20.32,4.08,26.33,6.45,51.24,17.42,72.01,31.73l-.33.64ZM401.33,808.64c27.68,0,54.82,4.6,80.72,13.68-20.22-13.48-44.15-23.84-69.41-30.02-6-1.41-13.01-3.01-20.25-4.07-.11-.01-.23-.03-.36-.04-.1-.01-.2-.02-.31-.04-9.43,6.98-18.23,14.71-26.17,23.01,8.71-1.24,17.67-2.03,26.67-2.36,3.02-.11,6.08-.17,9.1-.17"/>
      <path class="cls-1" d="M356.39,889.67l-.43-.59c13.03-9.64,27.14-18.07,41.97-25.07,18.25-8.62,37.33-14.98,56.72-18.91,18.13-3.67,36.44-5.21,54.47-4.58-32.09-13.84-68.16-20.46-104.46-19.14-18.49.68-36.78,3.38-54.34,8.02-8.65,11.62-15.74,24.08-21.08,37.03l-.67-.27c5.38-13.05,12.53-25.59,21.24-37.29l.08-.1.12-.03c17.66-4.67,36.03-7.39,54.62-8.07,18.84-.68,37.62.73,55.8,4.21,17.62,3.37,34.69,8.67,50.74,15.76l-.16.7c-37.92-1.67-76.92,6.4-112.79,23.34-14.78,6.98-28.85,15.39-41.84,25"/>
      <path class="cls-1" d="M356.17,889.74h-.12l-.11-.07c-17.97-13.07-33.86-28.34-47.23-45.36l-.28-.36.41-.19c13.08-6.21,26.93-11.26,41.17-15.02l.19.7c-14.05,3.71-27.72,8.68-40.63,14.78,13.27,16.83,29.01,31.92,46.8,44.86l-.21.28v.37Z"/>
      <path class="cls-1" d="M316.5,926.98v-.99c.06-20.5,4.12-40.62,12.06-59.83l.67.28c-7.77,18.8-11.81,38.5-12,58.56,11.29-13.14,24.31-25.22,38.73-35.91l.43.58c-14.65,10.86-27.86,23.16-39.26,36.55l-.64.76Z"/>
      <path class="cls-1" d="M269.12,1007.25c-14.81-5.39-30.38-8.12-46.27-8.12-1.67,0-3.37.03-5.05.09-5.19.19-10.37.66-15.37,1.4l-1.04.15.72-.76c4.57-4.82,9.65-9.32,15.12-13.35l.12-.09.15.02c.07.01.15.02.23.03.08,0,.15.01.22.03,3.65.54,7.17,1.3,11.33,2.27,14.69,3.6,28.58,9.72,40.16,17.7l-.33.64ZM222.85,998.4c15.01,0,29.73,2.43,43.8,7.21-11.02-7.16-23.93-12.67-37.54-16-4.14-.97-7.64-1.73-11.27-2.26-.06,0-.13-.01-.19-.02-.04,0-.07,0-.11-.01-5.1,3.78-9.87,7.95-14.18,12.43,4.71-.65,9.56-1.08,14.41-1.25,1.68-.06,3.39-.09,5.07-.09"/>
      <path class="cls-1" d="M197.92,1043.83l-.43-.59c7.26-5.37,15.14-10.08,23.4-13.98,19.46-9.19,40.56-13.7,61.16-13.12-17.65-7.47-37.43-11.03-57.33-10.31-10.27.38-20.42,1.87-30.18,4.45-4.79,6.45-8.72,13.36-11.69,20.55l-.67-.28c3-7.28,6.99-14.28,11.85-20.8l.08-.1.13-.03c9.84-2.61,20.09-4.12,30.46-4.51,10.51-.38,20.98.41,31.12,2.35,9.83,1.88,19.35,4.83,28.3,8.79l-.17.69c-21.09-.93-42.79,3.56-62.74,12.98-8.22,3.88-16.05,8.56-23.28,13.91"/>
      <path class="cls-1" d="M197.7,1043.9h-.12l-.1-.07c-10.02-7.29-18.89-15.8-26.34-25.3l-.28-.36.41-.19c7.3-3.46,15.02-6.28,22.96-8.38l.18.7c-7.75,2.04-15.29,4.78-22.42,8.14,7.35,9.3,16.07,17.64,25.92,24.8l-.21.28v.37Z"/>
      <path class="cls-1" d="M175.44,1064.92v-.99c.04-11.44,2.3-22.67,6.73-33.39l.67.28c-4.27,10.32-6.51,21.12-6.67,32.12,6.22-7.2,13.39-13.82,21.31-19.69l.43.58c-8.15,6.04-15.5,12.89-21.84,20.33l-.64.76Z"/>
      <path class="cls-1" d="M193.51,679.24c-29.27-10.65-60.04-16.05-91.44-16.05-3.31,0-6.66.06-9.97.18-10.26.37-20.48,1.3-30.38,2.75l-1.04.15.72-.76c9-9.51,19.02-18.37,29.79-26.32l.12-.09.15.03c.14.02.31.04.46.05.14.01.29.03.42.05,7.2,1.06,14.13,2.56,22.34,4.48,28.94,7.09,56.31,19.15,79.15,34.89l-.33.64ZM102.06,662.46c30.53,0,60.45,5.09,89,15.13-22.28-14.9-48.68-26.35-76.55-33.17-8.18-1.92-15.1-3.42-22.27-4.47-.13-.02-.26-.03-.39-.05-.12,0-.23-.02-.35-.04-10.4,7.69-20.1,16.23-28.85,25.38,9.6-1.37,19.49-2.25,29.42-2.61,3.32-.12,6.68-.18,10-.18"/>
      <path class="cls-1" d="M52.64,751.47l-.43-.58c14.32-10.59,29.84-19.86,46.12-27.56,20.06-9.47,41.04-16.46,62.35-20.78,19.99-4.05,40.19-5.74,60.07-5.02-35.33-15.27-75.05-22.57-115.03-21.13-20.34.75-40.44,3.72-59.76,8.82-9.51,12.78-17.31,26.48-23.19,40.73l-.67-.28c5.91-14.34,13.77-28.13,23.35-40.98l.08-.1.12-.03c19.41-5.14,39.61-8.12,60.04-8.88,20.71-.75,41.35.81,61.34,4.63,19.37,3.71,38.13,9.54,55.78,17.33l-.16.69c-41.69-1.83-84.57,7.04-124.01,25.66-16.25,7.67-31.73,16.92-46,27.49"/>
      <path class="cls-1" d="M52.42,751.54h-.14l-.09-.07c-19.76-14.37-37.22-31.15-51.92-49.86l-.28-.36.41-.19c14.38-6.83,29.6-12.38,45.25-16.51l.19.7c-15.46,4.08-30.5,9.56-44.71,16.27,14.59,18.52,31.91,35.13,51.49,49.36l-.2.27v.39Z"/>
      <path class="cls-1" d="M8.85,792.42v-.99c.07-22.53,4.53-44.65,13.26-65.76l.67.28c-8.56,20.71-13,42.41-13.2,64.49,12.42-14.47,26.76-27.77,42.64-39.54l.43.58c-16.11,11.94-30.63,25.47-43.16,40.19l-.64.76Z"/>
      <path class="cls-1" d="M889.33,579.15c-17.87-6.5-36.65-9.8-55.83-9.8-2.02,0-4.07.04-6.09.11-6.26.23-12.5.8-18.55,1.68l-1.04.15.72-.76c5.5-5.82,11.63-11.24,18.22-16.1l.12-.09.15.02c.09.01.18.02.27.03.09,0,.18.02.27.03,4.4.64,8.65,1.56,13.66,2.74,17.71,4.33,34.45,11.72,48.42,21.34l-.33.64ZM833.5,568.62c18.29,0,36.23,2.99,53.37,8.88-13.4-8.79-29.17-15.56-45.79-19.63-5-1.17-9.22-2.09-13.6-2.73-.07-.01-.15-.02-.23-.03-.05,0-.11-.01-.16-.02-6.22,4.6-12.03,9.7-17.29,15.17,5.75-.81,11.66-1.32,17.59-1.54,2.03-.08,4.09-.11,6.12-.11"/>
      <path class="cls-1" d="M803.39,623.27l-.43-.58c8.75-6.48,18.25-12.15,28.21-16.85,23.57-11.13,49.16-16.58,74.12-15.81-21.4-9.12-45.39-13.48-69.54-12.6-12.4.46-24.66,2.26-36.44,5.37-5.79,7.79-10.54,16.14-14.12,24.82l-.67-.28c3.62-8.77,8.43-17.21,14.29-25.08l.08-.1.12-.03c11.87-3.14,24.22-4.97,36.72-5.43,12.67-.46,25.29.5,37.51,2.83,11.85,2.27,23.32,5.83,34.11,10.6l-.16.69c-25.45-1.12-51.63,4.3-75.71,15.67-9.92,4.69-19.37,10.33-28.08,16.78"/>
      <path class="cls-1" d="M803.17,623.34h-.12l-.11-.07c-12.08-8.79-22.76-19.05-31.75-30.5l-.28-.36.41-.2c8.79-4.17,18.1-7.57,27.68-10.1l.18.7c-9.38,2.48-18.51,5.79-27.14,9.86,8.89,11.25,19.43,21.34,31.33,30l-.2.28v.38Z"/>
      <path class="cls-1" d="M776.4,648.56v-.99c.04-13.78,2.77-27.32,8.11-40.24l.67.28c-5.18,12.52-7.88,25.62-8.05,38.97,7.53-8.74,16.22-16.77,25.82-23.89l.44.58c-9.84,7.29-18.71,15.55-26.35,24.53l-.64.76Z"/>
      <path class="cls-1" d="M1020.16,823.96c-26.63-9.69-54.61-14.6-83.17-14.6-3.01,0-6.06.06-9.07.17-9.33.34-18.63,1.18-27.63,2.51l-1.04.15.72-.76c8.19-8.65,17.31-16.71,27.1-23.94l.12-.09.15.02c.13.02.28.04.42.05.13.01.26.03.39.05,7.28,1.06,14.3,2.66,20.32,4.08,26.33,6.45,51.23,17.42,72.01,31.73l-.33.64ZM936.99,808.64c27.68,0,54.83,4.6,80.72,13.68-20.22-13.48-44.15-23.84-69.41-30.02-6-1.41-13.01-3.01-20.25-4.07-.11-.01-.23-.03-.36-.04-.1-.01-.2-.02-.31-.04-9.43,6.98-18.23,14.71-26.17,23.01,8.71-1.24,17.67-2.03,26.67-2.36,3.02-.11,6.08-.17,9.1-.17"/>
      <path class="cls-1" d="M892.06,889.67l-.43-.59c13.03-9.64,27.14-18.07,41.97-25.07,18.25-8.62,37.33-14.98,56.72-18.91,18.13-3.67,36.44-5.21,54.47-4.58-32.09-13.84-68.16-20.46-104.46-19.14-18.49.68-36.77,3.38-54.34,8.02-8.65,11.63-15.74,24.08-21.08,37.03l-.67-.27c5.38-13.05,12.53-25.59,21.24-37.29l.08-.1.12-.03c17.66-4.67,36.03-7.39,54.62-8.07,18.84-.68,37.62.73,55.8,4.21,17.62,3.37,34.69,8.67,50.74,15.76l-.16.7c-37.91-1.67-76.92,6.4-112.79,23.34-14.78,6.98-28.85,15.39-41.84,25"/>
      <path class="cls-1" d="M891.84,889.74h-.12l-.11-.07c-17.97-13.07-33.86-28.34-47.23-45.36l-.28-.36.41-.19c13.08-6.21,26.93-11.26,41.17-15.02l.19.7c-14.05,3.71-27.72,8.68-40.63,14.78,13.27,16.83,29.01,31.92,46.8,44.86l-.21.28v.37Z"/>
      <path class="cls-1" d="M852.17,926.98v-.99c.06-20.5,4.12-40.62,12.06-59.83l.67.28c-7.77,18.8-11.81,38.5-12,58.56,11.29-13.14,24.31-25.22,38.73-35.91l.43.58c-14.65,10.86-27.86,23.16-39.26,36.55l-.64.76Z"/>
      <path class="cls-1" d="M804.79,1007.25c-14.81-5.39-30.38-8.12-46.27-8.12-1.67,0-3.37.03-5.05.09-5.19.19-10.37.66-15.37,1.4l-1.04.15.72-.76c4.57-4.82,9.65-9.32,15.12-13.35l.12-.09.15.02c.07.01.15.02.23.03.08,0,.15.01.22.03,3.65.54,7.17,1.3,11.34,2.27,14.69,3.6,28.58,9.72,40.16,17.7l-.33.64ZM758.52,998.4c15.01,0,29.73,2.43,43.8,7.21-11.02-7.16-23.93-12.67-37.54-16-4.14-.97-7.64-1.73-11.27-2.26-.06,0-.13-.01-.19-.02-.04,0-.07,0-.11-.01-5.1,3.78-9.87,7.95-14.18,12.43,4.71-.65,9.56-1.08,14.41-1.25,1.68-.06,3.39-.09,5.07-.09"/>
      <path class="cls-1" d="M733.59,1043.83l-.43-.59c7.26-5.37,15.14-10.08,23.4-13.98,19.46-9.19,40.56-13.7,61.16-13.12-17.65-7.47-37.43-11.04-57.33-10.31-10.27.38-20.42,1.87-30.18,4.45-4.79,6.45-8.72,13.36-11.69,20.55l-.67-.28c3-7.28,6.99-14.28,11.85-20.8l.08-.1.12-.03c9.85-2.61,20.1-4.12,30.46-4.51,10.51-.38,20.98.41,31.12,2.35,9.83,1.88,19.35,4.83,28.3,8.79l-.16.69c-21.09-.93-42.79,3.56-62.74,12.98-8.22,3.88-16.05,8.56-23.28,13.91"/>
      <path class="cls-1" d="M733.37,1043.9h-.12l-.1-.07c-10.02-7.29-18.89-15.8-26.34-25.3l-.28-.36.41-.19c7.3-3.46,15.02-6.28,22.96-8.38l.18.7c-7.75,2.04-15.29,4.78-22.42,8.14,7.35,9.3,16.07,17.64,25.91,24.8l-.2.28v.37Z"/>
      <path class="cls-1" d="M711.11,1064.92v-.99c.04-11.44,2.3-22.67,6.73-33.39l.67.28c-4.27,10.32-6.51,21.12-6.67,32.12,6.22-7.2,13.39-13.82,21.31-19.69l.43.58c-8.15,6.04-15.5,12.89-21.84,20.33l-.64.76Z"/>
      <path class="cls-1" d="M729.18,679.24c-29.27-10.65-60.04-16.05-91.44-16.05-3.31,0-6.66.06-9.97.18-10.26.37-20.48,1.3-30.38,2.75l-1.04.15.72-.76c9-9.51,19.02-18.37,29.79-26.32l.12-.09.15.03c.14.02.31.04.46.05.14.01.29.03.42.05,7.2,1.06,14.13,2.56,22.34,4.48,28.94,7.09,56.31,19.15,79.15,34.89l-.33.64ZM637.73,662.46c30.53,0,60.45,5.09,89,15.13-22.28-14.9-48.68-26.35-76.55-33.17-8.18-1.92-15.1-3.42-22.27-4.47-.13-.02-.26-.03-.39-.05-.12,0-.23-.02-.35-.04-10.4,7.69-20.1,16.23-28.85,25.38,9.6-1.37,19.49-2.25,29.42-2.61,3.32-.12,6.68-.18,10-.18"/>
      <path class="cls-1" d="M588.31,751.47l-.43-.58c14.32-10.59,29.84-19.86,46.12-27.56,20.06-9.47,41.04-16.46,62.35-20.78,19.99-4.05,40.19-5.74,60.07-5.02-35.33-15.27-75.05-22.57-115.03-21.13-20.34.75-40.44,3.72-59.76,8.82-9.51,12.78-17.31,26.48-23.19,40.73l-.67-.28c5.91-14.34,13.77-28.13,23.35-40.98l.08-.1.12-.03c19.41-5.14,39.61-8.12,60.04-8.88,20.71-.75,41.35.81,61.34,4.63,19.37,3.71,38.13,9.54,55.78,17.33l-.16.69c-41.69-1.83-84.57,7.04-124.01,25.66-16.25,7.67-31.73,16.92-46,27.49"/>
      <path class="cls-1" d="M588.09,751.54h-.14l-.09-.07c-19.76-14.37-37.22-31.15-51.92-49.86l-.28-.36.41-.19c14.38-6.83,29.6-12.38,45.25-16.51l.19.7c-15.46,4.08-30.5,9.56-44.71,16.27,14.59,18.52,31.91,35.13,51.49,49.36l-.2.27v.39Z"/>
      <path class="cls-1" d="M544.52,792.42v-.99c.07-22.53,4.53-44.65,13.26-65.76l.67.28c-8.56,20.71-13,42.41-13.2,64.49,12.42-14.47,26.76-27.77,42.64-39.54l.43.58c-16.11,11.94-30.63,25.47-43.16,40.19l-.64.76Z"/>
      <path class="cls-1" d="M1425,44.67c-17.87-6.5-36.65-9.8-55.83-9.8-2.02,0-4.07.04-6.09.11-6.26.23-12.5.8-18.55,1.68l-1.04.15.72-.76c5.5-5.82,11.63-11.24,18.22-16.1l.12-.09.15.02c.09.01.18.02.28.03.09,0,.18.02.26.03,4.4.64,8.65,1.56,13.66,2.74,17.71,4.33,34.45,11.72,48.42,21.34l-.33.64ZM1369.17,34.14c18.29,0,36.23,2.99,53.37,8.88-13.4-8.79-29.17-15.56-45.8-19.63-5-1.17-9.22-2.09-13.6-2.73-.07-.01-.15-.02-.23-.03-.06,0-.11-.01-.17-.02-6.22,4.6-12.03,9.7-17.28,15.17,5.74-.81,11.66-1.32,17.58-1.54,2.03-.08,4.09-.11,6.12-.11"/>
      <path class="cls-1" d="M1339.06,88.79l-.43-.58c8.75-6.48,18.25-12.15,28.21-16.85,23.57-11.13,49.16-16.58,74.12-15.81-21.4-9.12-45.39-13.48-69.54-12.6-12.4.46-24.66,2.26-36.44,5.37-5.79,7.79-10.54,16.14-14.12,24.82l-.67-.27c3.62-8.77,8.43-17.21,14.29-25.08l.08-.1.12-.03c11.87-3.14,24.22-4.97,36.72-5.43,12.67-.46,25.29.5,37.51,2.83,11.85,2.27,23.32,5.83,34.11,10.6l-.16.69c-25.45-1.12-51.63,4.3-75.71,15.67-9.92,4.69-19.37,10.33-28.08,16.78"/>
      <path class="cls-1" d="M1338.84,88.86h-.12l-.11-.07c-12.08-8.79-22.76-19.05-31.75-30.5l-.28-.36.41-.2c8.79-4.17,18.1-7.57,27.68-10.1l.18.7c-9.38,2.48-18.51,5.79-27.14,9.86,8.88,11.25,19.43,21.34,31.33,30l-.2.28v.38Z"/>
      <path class="cls-1" d="M1312.07,114.08v-.99c.04-13.79,2.77-27.32,8.11-40.24l.67.28c-5.18,12.52-7.88,25.62-8.05,38.97,7.53-8.74,16.22-16.77,25.82-23.89l.44.58c-9.84,7.29-18.71,15.55-26.35,24.53l-.64.76Z"/>
      <path class="cls-1" d="M1555.83,289.48c-26.63-9.69-54.61-14.6-83.17-14.6-3.01,0-6.06.06-9.07.17-9.33.34-18.63,1.18-27.63,2.51l-1.04.15.72-.76c8.19-8.65,17.31-16.71,27.1-23.94l.12-.09.15.02c.13.02.27.04.42.05.13.01.26.03.39.05,7.28,1.07,14.3,2.66,20.32,4.08,26.33,6.45,51.23,17.42,72.01,31.73l-.33.64ZM1472.66,274.15c27.68,0,54.83,4.6,80.72,13.68-20.22-13.48-44.15-23.84-69.41-30.02-6-1.41-13.01-3.01-20.25-4.07-.11-.01-.23-.03-.36-.04-.1-.01-.2-.02-.31-.04-9.43,6.98-18.23,14.71-26.17,23.01,8.7-1.24,17.67-2.03,26.67-2.36,3.02-.11,6.08-.17,9.1-.17"/>
      <path class="cls-1" d="M1427.73,355.18l-.43-.58c13.03-9.64,27.14-18.07,41.97-25.07,18.25-8.62,37.33-14.98,56.72-18.91,18.13-3.67,36.44-5.21,54.47-4.58-32.09-13.84-68.16-20.46-104.46-19.14-18.49.68-36.77,3.38-54.34,8.02-8.65,11.62-15.74,24.08-21.08,37.03l-.67-.27c5.38-13.05,12.53-25.59,21.24-37.29l.08-.1.12-.03c17.66-4.67,36.03-7.39,54.62-8.07,18.84-.68,37.62.73,55.8,4.21,17.62,3.37,34.69,8.67,50.74,15.76l-.16.7c-37.91-1.67-76.92,6.4-112.79,23.34-14.78,6.98-28.85,15.39-41.84,25"/>
      <path class="cls-1" d="M1427.51,355.25h-.12l-.11-.07c-17.97-13.07-33.86-28.34-47.23-45.36l-.28-.36.41-.19c13.08-6.21,26.93-11.26,41.17-15.02l.19.7c-14.05,3.71-27.72,8.68-40.63,14.78,13.27,16.83,29.01,31.92,46.8,44.86l-.21.28v.37Z"/>
      <path class="cls-1" d="M1387.84,392.49v-.99c.06-20.49,4.12-40.62,12.06-59.83l.67.28c-7.77,18.8-11.81,38.5-12,58.56,11.29-13.14,24.31-25.22,38.73-35.91l.43.58c-14.65,10.86-27.86,23.16-39.26,36.55l-.64.76Z"/>
      <path class="cls-1" d="M1340.46,472.76c-14.81-5.39-30.38-8.12-46.27-8.12-1.67,0-3.37.03-5.05.09-5.19.19-10.37.66-15.37,1.4l-1.04.15.72-.76c4.57-4.82,9.65-9.32,15.12-13.35l.12-.09.15.02c.07.01.15.02.23.03.08,0,.15.01.22.03,3.65.54,7.17,1.3,11.34,2.27,14.69,3.6,28.58,9.72,40.16,17.7l-.33.64ZM1294.19,463.92c15.01,0,29.73,2.43,43.8,7.21-11.02-7.16-23.93-12.67-37.54-16-4.14-.97-7.64-1.73-11.27-2.26-.06,0-.13-.01-.19-.02-.04,0-.07,0-.11-.01-5.1,3.78-9.87,7.95-14.18,12.43,4.71-.65,9.56-1.08,14.41-1.25,1.68-.06,3.39-.09,5.07-.09"/>
      <path class="cls-1" d="M1269.26,509.34l-.43-.58c7.26-5.37,15.14-10.08,23.4-13.98,19.46-9.19,40.56-13.7,61.16-13.12-17.65-7.47-37.43-11.03-57.33-10.31-10.27.38-20.42,1.87-30.18,4.44-4.79,6.45-8.72,13.36-11.69,20.55l-.67-.28c3-7.28,6.99-14.28,11.85-20.8l.08-.1.12-.03c9.85-2.61,20.1-4.12,30.46-4.51,10.51-.38,20.98.41,31.12,2.35,9.83,1.88,19.35,4.83,28.3,8.79l-.16.69c-21.09-.93-42.79,3.56-62.74,12.98-8.22,3.88-16.05,8.56-23.28,13.91"/>
      <path class="cls-1" d="M1269.04,509.41h-.12l-.1-.07c-10.02-7.29-18.89-15.8-26.34-25.3l-.28-.36.41-.19c7.3-3.46,15.02-6.28,22.96-8.38l.18.7c-7.75,2.04-15.29,4.78-22.42,8.14,7.35,9.3,16.07,17.64,25.91,24.8l-.2.28v.37Z"/>
      <path class="cls-1" d="M1246.78,530.43v-.99c.04-11.44,2.3-22.67,6.73-33.39l.67.28c-4.27,10.32-6.51,21.12-6.67,32.12,6.22-7.2,13.39-13.82,21.31-19.69l.43.58c-8.15,6.04-15.5,12.89-21.84,20.33l-.64.76Z"/>
      <path class="cls-1" d="M1264.84,144.75c-29.27-10.65-60.04-16.05-91.44-16.05-3.31,0-6.66.06-9.97.18-10.26.37-20.48,1.3-30.38,2.75l-1.04.15.72-.76c9-9.51,19.02-18.37,29.79-26.32l.12-.09.15.03c.14.02.31.04.46.05.14.01.29.03.42.05,7.2,1.06,14.13,2.56,22.34,4.48,28.94,7.09,56.31,19.15,79.15,34.89l-.33.64ZM1173.4,127.97c30.53,0,60.45,5.09,89,15.13-22.28-14.9-48.68-26.35-76.55-33.17-8.18-1.92-15.1-3.42-22.27-4.47-.13-.02-.26-.03-.39-.05-.12,0-.23-.02-.35-.04-10.4,7.69-20.1,16.23-28.85,25.38,9.6-1.37,19.49-2.25,29.42-2.61,3.32-.12,6.68-.18,10-.18"/>
      <path class="cls-1" d="M1123.98,216.99l-.43-.58c14.32-10.59,29.84-19.86,46.12-27.56,20.06-9.47,41.04-16.46,62.35-20.78,19.99-4.05,40.19-5.74,60.07-5.02-35.33-15.27-75.05-22.57-115.03-21.13-20.34.75-40.44,3.72-59.76,8.82-9.51,12.78-17.31,26.48-23.19,40.73l-.67-.28c5.91-14.34,13.77-28.13,23.35-40.98l.08-.1.12-.03c19.41-5.14,39.61-8.12,60.04-8.88,20.71-.75,41.35.81,61.34,4.63,19.37,3.71,38.13,9.54,55.78,17.33l-.16.69c-41.69-1.83-84.57,7.04-124.01,25.66-16.25,7.67-31.73,16.92-46,27.49"/>
      <path class="cls-1" d="M1123.76,217.06h-.14l-.09-.07c-19.76-14.37-37.22-31.15-51.92-49.86l-.28-.36.41-.2c14.38-6.82,29.6-12.38,45.25-16.51l.19.7c-15.46,4.08-30.5,9.56-44.71,16.27,14.59,18.52,31.91,35.13,51.49,49.36l-.2.27v.39Z"/>
      <path class="cls-1" d="M1080.19,257.93v-.99c.07-22.53,4.53-44.65,13.25-65.76l.68.28c-8.56,20.71-13,42.41-13.2,64.49,12.42-14.47,26.76-27.77,42.64-39.54l.43.59c-16.11,11.94-30.63,25.46-43.16,40.18l-.64.76Z"/>
      <path class="cls-1" d="M1425,579.15c-17.87-6.5-36.65-9.8-55.83-9.8-2.02,0-4.07.04-6.09.11-6.26.23-12.5.8-18.55,1.68l-1.04.15.72-.76c5.5-5.82,11.63-11.24,18.22-16.1l.12-.09.15.02c.09.01.18.02.27.03.09,0,.18.02.27.03,4.4.64,8.65,1.56,13.66,2.74,17.71,4.33,34.45,11.72,48.41,21.34l-.33.64ZM1369.17,568.62c18.29,0,36.23,2.99,53.37,8.88-13.4-8.79-29.17-15.56-45.79-19.63-5-1.17-9.22-2.09-13.6-2.73-.07-.01-.15-.02-.23-.03-.05,0-.11-.01-.16-.02-6.22,4.6-12.03,9.7-17.29,15.17,5.75-.81,11.66-1.32,17.59-1.54,2.03-.08,4.09-.11,6.12-.11"/>
      <path class="cls-1" d="M1339.06,623.27l-.43-.58c8.75-6.48,18.25-12.15,28.21-16.85,23.57-11.13,49.16-16.59,74.12-15.81-21.4-9.12-45.39-13.48-69.54-12.6-12.4.46-24.66,2.26-36.44,5.37-5.79,7.79-10.54,16.14-14.12,24.82l-.67-.28c3.62-8.77,8.43-17.21,14.29-25.08l.08-.1.12-.03c11.87-3.14,24.22-4.97,36.72-5.43,12.67-.46,25.29.5,37.51,2.83,11.85,2.27,23.32,5.83,34.11,10.6l-.16.69c-25.45-1.12-51.63,4.3-75.71,15.67-9.92,4.68-19.37,10.33-28.08,16.78"/>
      <path class="cls-1" d="M1338.84,623.34h-.12l-.11-.07c-12.08-8.79-22.76-19.05-31.75-30.5l-.28-.36.41-.2c8.79-4.17,18.1-7.57,27.68-10.1l.18.7c-9.38,2.48-18.51,5.79-27.14,9.86,8.88,11.25,19.43,21.34,31.33,30l-.2.28v.38Z"/>
      <path class="cls-1" d="M1312.07,648.56v-.99c.04-13.79,2.77-27.32,8.11-40.24l.67.28c-5.18,12.52-7.88,25.62-8.05,38.97,7.53-8.74,16.22-16.77,25.82-23.89l.44.58c-9.84,7.29-18.71,15.55-26.35,24.53l-.64.76Z"/>
      <path class="cls-1" d="M1555.83,823.96c-26.63-9.69-54.61-14.6-83.17-14.6-3.01,0-6.06.06-9.07.17-9.33.34-18.63,1.18-27.63,2.51l-1.04.15.72-.76c8.19-8.65,17.31-16.71,27.1-23.94l.12-.09.15.02c.13.02.28.04.42.05.13.01.26.03.39.05,7.28,1.06,14.3,2.66,20.32,4.08,26.33,6.45,51.23,17.42,72.01,31.73l-.33.64ZM1472.66,808.64c27.68,0,54.83,4.6,80.72,13.68-20.22-13.48-44.15-23.84-69.41-30.02-6-1.41-13.01-3.01-20.25-4.07-.11-.01-.23-.03-.36-.04-.1-.01-.2-.02-.31-.04-9.43,6.98-18.23,14.71-26.17,23.01,8.7-1.24,17.67-2.03,26.67-2.36,3.02-.11,6.08-.17,9.1-.17"/>
      <path class="cls-1" d="M1427.73,889.67l-.43-.59c13.03-9.64,27.14-18.07,41.97-25.07,18.25-8.62,37.33-14.98,56.72-18.91,18.13-3.67,36.44-5.21,54.47-4.58-32.09-13.84-68.16-20.46-104.46-19.14-18.49.68-36.78,3.38-54.34,8.02-8.65,11.62-15.74,24.08-21.08,37.03l-.67-.27c5.38-13.05,12.53-25.59,21.24-37.29l.08-.1.12-.03c17.66-4.67,36.03-7.39,54.62-8.07,18.84-.68,37.62.73,55.8,4.21,17.62,3.37,34.69,8.67,50.74,15.76l-.16.7c-37.91-1.67-76.92,6.4-112.79,23.34-14.77,6.98-28.85,15.39-41.84,25"/>
      <path class="cls-1" d="M1427.51,889.74h-.12l-.11-.07c-17.97-13.07-33.86-28.34-47.23-45.36l-.28-.36.41-.19c13.08-6.21,26.93-11.26,41.17-15.02l.19.7c-14.05,3.71-27.72,8.68-40.63,14.78,13.27,16.83,29.01,31.92,46.8,44.86l-.21.28v.37Z"/>
      <path class="cls-1" d="M1387.84,926.98v-.99c.06-20.49,4.12-40.62,12.06-59.83l.67.28c-7.77,18.8-11.81,38.5-12,58.56,11.29-13.14,24.31-25.22,38.73-35.91l.43.58c-14.65,10.86-27.86,23.16-39.26,36.55l-.64.76Z"/>
      <path class="cls-1" d="M1340.46,1007.25c-14.81-5.39-30.38-8.12-46.27-8.12-1.67,0-3.37.03-5.05.09-5.19.19-10.37.66-15.37,1.4l-1.04.15.72-.76c4.57-4.82,9.65-9.32,15.12-13.35l.12-.09.15.02c.07.01.15.02.23.03.08,0,.15.01.22.03,3.65.54,7.17,1.3,11.34,2.27,14.69,3.6,28.58,9.72,40.16,17.7l-.33.64ZM1294.19,998.4c15.01,0,29.73,2.43,43.8,7.21-11.02-7.16-23.93-12.67-37.54-16-4.14-.97-7.64-1.73-11.27-2.26-.06,0-.13-.01-.19-.02-.04,0-.07,0-.11-.01-5.1,3.78-9.87,7.95-14.18,12.43,4.71-.65,9.56-1.08,14.41-1.25,1.68-.06,3.39-.09,5.07-.09"/>
      <path class="cls-1" d="M1269.26,1043.83l-.43-.59c7.26-5.37,15.14-10.08,23.4-13.98,19.46-9.19,40.56-13.7,61.16-13.12-17.65-7.47-37.43-11.04-57.33-10.31-10.27.38-20.42,1.87-30.18,4.45-4.79,6.45-8.72,13.36-11.69,20.55l-.67-.28c3-7.28,6.99-14.28,11.85-20.8l.08-.1.12-.03c9.85-2.61,20.1-4.12,30.46-4.51,10.51-.38,20.98.41,31.12,2.35,9.83,1.88,19.35,4.83,28.3,8.79l-.16.69c-21.09-.93-42.79,3.56-62.74,12.98-8.22,3.88-16.05,8.56-23.28,13.91"/>
      <path class="cls-1" d="M1269.04,1043.9h-.12l-.1-.07c-10.02-7.29-18.89-15.8-26.34-25.3l-.28-.36.41-.19c7.3-3.46,15.02-6.28,22.96-8.38l.18.7c-7.75,2.04-15.29,4.78-22.42,8.14,7.35,9.3,16.07,17.64,25.91,24.8l-.2.28v.37Z"/>
      <path class="cls-1" d="M1246.78,1064.92v-.99c.04-11.44,2.3-22.67,6.73-33.39l.67.28c-4.27,10.32-6.51,21.12-6.67,32.12,6.22-7.2,13.39-13.82,21.31-19.69l.43.58c-8.15,6.04-15.5,12.89-21.84,20.33l-.64.76Z"/>
      <path class="cls-1" d="M1264.84,679.24c-29.27-10.65-60.04-16.05-91.44-16.05-3.31,0-6.66.06-9.97.18-10.26.37-20.48,1.3-30.38,2.75l-1.04.15.72-.76c9-9.51,19.02-18.37,29.79-26.32l.12-.09.15.03c.14.02.31.04.46.05.14.01.29.03.42.05,7.2,1.06,14.13,2.56,22.34,4.48,28.94,7.09,56.31,19.15,79.15,34.89l-.33.64ZM1173.4,662.46c30.53,0,60.45,5.09,89,15.13-22.28-14.9-48.68-26.35-76.55-33.17-8.18-1.92-15.1-3.42-22.27-4.47-.13-.02-.26-.03-.39-.05-.12,0-.23-.02-.35-.04-10.4,7.69-20.1,16.23-28.85,25.38,9.6-1.37,19.49-2.25,29.42-2.61,3.32-.12,6.68-.18,10-.18"/>
      <path class="cls-1" d="M1123.98,751.47l-.43-.58c14.32-10.59,29.84-19.86,46.12-27.56,20.06-9.47,41.04-16.46,62.35-20.78,19.99-4.05,40.19-5.74,60.07-5.02-35.33-15.27-75.05-22.57-115.03-21.13-20.34.75-40.44,3.72-59.76,8.82-9.51,12.78-17.31,26.48-23.19,40.73l-.67-.28c5.91-14.34,13.77-28.13,23.35-40.98l.08-.1.12-.03c19.41-5.14,39.61-8.12,60.04-8.88,20.71-.75,41.35.81,61.34,4.63,19.37,3.71,38.13,9.54,55.78,17.33l-.16.69c-41.69-1.83-84.57,7.04-124.01,25.66-16.25,7.67-31.73,16.92-46,27.49"/>
      <path class="cls-1" d="M1123.76,751.54h-.14l-.09-.07c-19.76-14.37-37.22-31.15-51.92-49.86l-.28-.36.41-.19c14.38-6.83,29.6-12.38,45.25-16.51l.19.7c-15.46,4.08-30.5,9.56-44.71,16.27,14.59,18.52,31.91,35.13,51.49,49.36l-.2.27v.39Z"/>
      <path class="cls-1" d="M1080.19,792.42v-.99c.07-22.53,4.53-44.65,13.25-65.76l.68.28c-8.56,20.71-13,42.41-13.2,64.49,12.42-14.47,26.76-27.77,42.64-39.54l.43.58c-16.11,11.94-30.63,25.47-43.16,40.19l-.64.76Z"/>
      <path class="cls-1" d="M353.66,1111.18c-17.87-6.5-36.65-9.8-55.83-9.8-2.02,0-4.07.04-6.09.11-6.26.23-12.5.8-18.55,1.68l-1.04.15.72-.76c5.5-5.82,11.63-11.24,18.22-16.1l.12-.09.15.02c.09.01.18.02.27.03s.18.02.27.03c4.41.64,8.65,1.56,13.66,2.74,17.71,4.33,34.45,11.71,48.42,21.34l-.33.64ZM297.83,1100.65c18.29,0,36.23,2.99,53.37,8.88-13.4-8.79-29.17-15.56-45.79-19.63-5-1.17-9.22-2.09-13.6-2.73-.07-.01-.15-.02-.23-.03-.05,0-.11-.01-.16-.02-6.22,4.6-12.03,9.7-17.28,15.17,5.74-.81,11.66-1.32,17.58-1.54,2.03-.08,4.09-.11,6.12-.11"/>
      <path class="cls-1" d="M267.72,1155.3l-.43-.59c8.75-6.48,18.25-12.15,28.21-16.85,23.57-11.13,49.16-16.59,74.12-15.81-21.4-9.12-45.39-13.48-69.54-12.6-12.4.46-24.66,2.26-36.44,5.37-5.79,7.79-10.54,16.14-14.12,24.82l-.67-.27c3.62-8.77,8.43-17.21,14.29-25.08l.08-.1.12-.03c11.87-3.14,24.22-4.97,36.72-5.43,12.67-.46,25.29.49,37.51,2.83,11.85,2.27,23.32,5.83,34.11,10.59l-.16.7c-25.45-1.12-51.63,4.3-75.71,15.66-9.92,4.69-19.37,10.33-28.08,16.78"/>
      <path class="cls-1" d="M267.5,1155.37h-.12l-.11-.07c-12.08-8.79-22.76-19.05-31.75-30.5l-.28-.36.41-.2c8.79-4.17,18.1-7.57,27.68-10.1l.18.7c-9.38,2.48-18.51,5.79-27.14,9.86,8.89,11.25,19.43,21.34,31.33,30l-.2.28v.38Z"/>
      <path class="cls-1" d="M240.73,1180.59v-.99c.04-13.78,2.77-27.32,8.11-40.24l.67.28c-5.18,12.52-7.88,25.62-8.05,38.97,7.53-8.74,16.22-16.77,25.82-23.89l.44.59c-9.84,7.29-18.71,15.55-26.35,24.53l-.64.76Z"/>
      <path class="cls-1" d="M484.49,1355.99c-26.63-9.69-54.61-14.6-83.17-14.6-3.01,0-6.06.06-9.07.17-9.33.34-18.62,1.18-27.63,2.51l-1.04.15.72-.76c8.19-8.65,17.31-16.71,27.11-23.94l.12-.09.15.02c.13.02.28.04.42.05.13.01.26.03.39.05,6.55.96,12.86,2.32,20.32,4.08,26.33,6.45,51.24,17.42,72.01,31.73l-.33.64ZM401.32,1340.67c27.68,0,54.83,4.6,80.72,13.68-20.22-13.48-44.15-23.84-69.4-30.02-7.44-1.75-13.74-3.11-20.26-4.07-.11-.01-.23-.03-.36-.04-.1-.01-.2-.02-.31-.04-9.43,6.98-18.23,14.71-26.17,23.01,8.71-1.24,17.67-2.03,26.67-2.36,3.02-.11,6.08-.17,9.1-.17"/>
      <path class="cls-1" d="M356.39,1421.7l-.43-.59c13.03-9.64,27.14-18.07,41.97-25.07,18.25-8.62,37.33-14.98,56.72-18.91,18.13-3.67,36.44-5.21,54.47-4.58-32.09-13.84-68.16-20.46-104.46-19.14-18.49.68-36.77,3.38-54.34,8.02-8.65,11.62-15.74,24.08-21.08,37.03l-.67-.27c5.38-13.05,12.53-25.59,21.24-37.29l.08-.1.12-.03c17.66-4.67,36.03-7.39,54.62-8.07,18.84-.68,37.62.73,55.8,4.21,17.62,3.37,34.69,8.67,50.74,15.76l-.16.7c-37.92-1.67-76.92,6.4-112.79,23.34-14.77,6.98-28.85,15.39-41.84,25"/>
      <path class="cls-1" d="M356.17,1421.77h-.12l-.11-.07c-17.97-13.07-33.86-28.34-47.23-45.36l-.28-.36.41-.19c13.08-6.21,26.93-11.26,41.17-15.02l.19.7c-14.05,3.71-27.72,8.68-40.63,14.78,13.27,16.83,29.01,31.92,46.8,44.86l-.21.28v.37Z"/>
      <path class="cls-1" d="M316.5,1459.01v-.99c.06-20.5,4.12-40.62,12.06-59.83l.67.28c-7.77,18.8-11.81,38.5-12,58.56,11.29-13.14,24.31-25.22,38.73-35.91l.43.58c-14.65,10.86-27.86,23.16-39.26,36.55l-.64.76Z"/>
      <path class="cls-1" d="M269.12,1539.28c-14.81-5.39-30.38-8.12-46.27-8.12-1.67,0-3.37.03-5.05.09-5.19.19-10.37.66-15.37,1.4l-1.04.15.72-.76c4.57-4.82,9.65-9.32,15.12-13.35l.12-.09.15.02c.07.01.15.02.23.03.08,0,.15.01.22.03,3.66.54,7.17,1.3,11.34,2.27,14.69,3.6,28.58,9.72,40.16,17.7l-.33.64ZM222.85,1530.43c15.01,0,29.73,2.43,43.8,7.21-11.02-7.16-23.93-12.67-37.54-16-4.14-.97-7.64-1.73-11.27-2.26-.06,0-.13-.01-.19-.02-.04,0-.07,0-.11-.01-5.1,3.78-9.87,7.95-14.18,12.43,4.71-.65,9.55-1.08,14.41-1.25,1.68-.06,3.39-.09,5.07-.09"/>
      <path class="cls-1" d="M197.92,1575.85l-.43-.59c7.26-5.37,15.14-10.08,23.4-13.98,19.46-9.19,40.56-13.71,61.16-13.12-17.65-7.47-37.43-11.03-57.33-10.31-10.27.38-20.42,1.87-30.18,4.45-4.79,6.45-8.72,13.36-11.69,20.55l-.67-.28c3-7.28,6.99-14.28,11.85-20.8l.08-.1.13-.03c9.84-2.61,20.09-4.12,30.46-4.51,10.51-.38,20.98.41,31.12,2.35,9.83,1.88,19.35,4.83,28.3,8.79l-.17.69c-21.09-.93-42.79,3.56-62.74,12.98-8.22,3.88-16.05,8.56-23.28,13.91"/>
      <path class="cls-1" d="M197.7,1575.92h-.12l-.1-.07c-10.02-7.29-18.89-15.8-26.34-25.3l-.28-.36.41-.19c7.3-3.46,15.02-6.28,22.96-8.38l.18.7c-7.75,2.04-15.29,4.78-22.42,8.14,7.35,9.3,16.07,17.64,25.92,24.8l-.21.28v.37Z"/>
      <path class="cls-1" d="M175.44,1596.94v-.99c.04-11.44,2.3-22.67,6.73-33.39l.67.28c-4.27,10.32-6.51,21.12-6.67,32.12,6.22-7.2,13.39-13.82,21.31-19.69l.43.58c-8.15,6.04-15.5,12.89-21.84,20.33l-.64.76Z"/>
      <path class="cls-1" d="M193.51,1211.27c-29.27-10.65-60.04-16.05-91.44-16.05-3.31,0-6.66.06-9.97.18-10.26.37-20.48,1.3-30.38,2.75l-1.04.15.72-.76c9-9.51,19.02-18.37,29.79-26.32l.12-.09.15.03c.14.02.31.04.46.05.14.01.29.03.42.04,7.2,1.05,14.13,2.56,22.34,4.48,28.94,7.09,56.31,19.15,79.15,34.89l-.33.64ZM102.06,1194.49c30.53,0,60.45,5.09,89,15.13-22.28-14.9-48.68-26.35-76.55-33.17-8.18-1.92-15.1-3.42-22.27-4.47-.12-.02-.26-.03-.39-.04-.12,0-.23-.02-.35-.04-10.4,7.69-20.1,16.23-28.85,25.38,9.6-1.37,19.49-2.25,29.42-2.61,3.32-.12,6.68-.18,10-.18"/>
      <path class="cls-1" d="M52.64,1283.5l-.43-.59c14.32-10.59,29.84-19.86,46.12-27.56,20.06-9.47,41.04-16.46,62.35-20.78,19.99-4.06,40.19-5.74,60.07-5.02-35.33-15.27-75.05-22.57-115.03-21.13-20.33.75-40.44,3.72-59.76,8.82-9.51,12.78-17.31,26.48-23.19,40.73l-.67-.28c5.91-14.33,13.77-28.13,23.35-40.98l.08-.1.12-.03c19.41-5.14,39.61-8.12,60.04-8.88,20.71-.75,41.35.81,61.34,4.63,19.37,3.71,38.13,9.54,55.78,17.33l-.16.69c-41.69-1.83-84.57,7.04-124.01,25.66-16.25,7.67-31.73,16.92-46,27.49"/>
      <path class="cls-1" d="M52.42,1283.57h-.14l-.09-.07c-19.76-14.37-37.22-31.15-51.92-49.86l-.28-.36.41-.2c14.38-6.82,29.6-12.38,45.25-16.51l.19.7c-15.46,4.08-30.5,9.56-44.71,16.27,14.59,18.52,31.91,35.13,51.49,49.36l-.2.27v.39Z"/>
      <path class="cls-1" d="M8.85,1324.45v-.99c.07-22.53,4.53-44.65,13.26-65.76l.67.28c-8.56,20.71-13,42.41-13.2,64.49,12.42-14.47,26.76-27.77,42.64-39.54l.43.59c-16.11,11.94-30.63,25.46-43.16,40.18l-.64.76Z"/>
      <path class="cls-1" d="M889.33,1111.18c-17.87-6.5-36.65-9.8-55.83-9.8-2.02,0-4.07.04-6.09.11-6.26.23-12.5.8-18.55,1.68l-1.04.15.72-.76c5.5-5.82,11.63-11.24,18.22-16.1l.12-.09.15.02c.09.01.18.02.27.03.09,0,.18.02.27.03,4.41.64,8.65,1.56,13.66,2.74,17.71,4.33,34.45,11.71,48.42,21.34l-.33.64ZM833.5,1100.65c18.29,0,36.23,2.99,53.37,8.88-13.4-8.79-29.17-15.56-45.79-19.63-5-1.17-9.22-2.09-13.6-2.73-.07-.01-.15-.02-.23-.03-.05,0-.11-.01-.16-.02-6.22,4.6-12.03,9.7-17.29,15.17,5.75-.81,11.66-1.32,17.59-1.54,2.03-.08,4.09-.11,6.12-.11"/>
      <path class="cls-1" d="M803.39,1155.3l-.43-.59c8.75-6.48,18.25-12.15,28.21-16.85,23.57-11.13,49.16-16.59,74.12-15.81-21.4-9.12-45.39-13.48-69.54-12.6-12.4.46-24.66,2.26-36.44,5.37-5.79,7.79-10.54,16.14-14.12,24.82l-.67-.27c3.62-8.77,8.43-17.21,14.29-25.08l.08-.1.12-.03c11.87-3.14,24.22-4.97,36.72-5.43,12.67-.46,25.29.49,37.51,2.83,11.85,2.27,23.32,5.83,34.11,10.59l-.16.7c-25.45-1.12-51.63,4.3-75.71,15.66-9.92,4.69-19.37,10.33-28.08,16.78"/>
      <path class="cls-1" d="M803.17,1155.37h-.12l-.11-.07c-12.08-8.79-22.76-19.05-31.75-30.5l-.28-.36.41-.2c8.79-4.17,18.1-7.57,27.68-10.1l.18.7c-9.38,2.48-18.51,5.79-27.14,9.86,8.89,11.25,19.43,21.34,31.33,30l-.2.28v.38Z"/>
      <path class="cls-1" d="M776.4,1180.59v-.99c.04-13.78,2.77-27.32,8.11-40.24l.67.28c-5.18,12.52-7.88,25.62-8.05,38.97,7.53-8.74,16.22-16.77,25.82-23.89l.44.58c-9.84,7.29-18.71,15.55-26.35,24.53l-.64.76Z"/>
      <path class="cls-1" d="M1020.16,1355.99c-26.62-9.69-54.61-14.6-83.17-14.6-3.01,0-6.06.06-9.07.17-9.33.34-18.62,1.18-27.63,2.51l-1.04.15.72-.76c8.19-8.65,17.31-16.71,27.11-23.94l.12-.09.15.02c.13.02.28.04.42.05.13.01.26.03.39.05,6.55.96,12.86,2.32,20.32,4.08,26.33,6.45,51.24,17.42,72.01,31.73l-.33.64ZM936.99,1340.67c27.68,0,54.83,4.6,80.72,13.68-20.22-13.48-44.15-23.84-69.4-30.02-7.44-1.75-13.74-3.11-20.26-4.07-.11-.01-.23-.03-.36-.04-.1-.01-.2-.02-.31-.04-9.43,6.98-18.23,14.71-26.17,23.01,8.71-1.24,17.67-2.03,26.67-2.36,3.02-.11,6.08-.17,9.1-.17"/>
      <path class="cls-1" d="M892.06,1421.7l-.43-.59c13.03-9.64,27.14-18.07,41.97-25.07,18.25-8.62,37.33-14.98,56.72-18.91,18.13-3.67,36.44-5.21,54.47-4.58-32.09-13.84-68.16-20.46-104.46-19.14-18.49.68-36.77,3.38-54.34,8.02-8.65,11.63-15.74,24.08-21.08,37.03l-.67-.27c5.38-13.05,12.53-25.59,21.24-37.29l.08-.1.12-.03c17.66-4.67,36.03-7.39,54.62-8.07,18.84-.68,37.62.73,55.8,4.21,17.62,3.37,34.69,8.67,50.74,15.76l-.16.7c-37.91-1.67-76.92,6.4-112.79,23.34-14.77,6.98-28.85,15.39-41.84,25"/>
      <path class="cls-1" d="M891.84,1421.77h-.12l-.11-.07c-17.97-13.07-33.86-28.34-47.23-45.36l-.28-.36.41-.19c13.08-6.21,26.93-11.26,41.17-15.02l.19.7c-14.05,3.71-27.72,8.68-40.63,14.78,13.27,16.83,29.01,31.92,46.8,44.86l-.21.28v.37Z"/>
      <path class="cls-1" d="M852.17,1459.01v-.99c.06-20.5,4.12-40.62,12.06-59.83l.67.28c-7.77,18.8-11.81,38.5-12,58.56,11.29-13.14,24.31-25.22,38.73-35.91l.43.58c-14.65,10.86-27.86,23.16-39.26,36.55l-.64.76Z"/>
      <path class="cls-1" d="M804.79,1539.28c-14.82-5.39-30.38-8.12-46.27-8.12-1.67,0-3.37.03-5.05.09-5.19.19-10.37.66-15.37,1.4l-1.04.15.72-.76c4.57-4.82,9.65-9.32,15.12-13.35l.12-.09.15.02c.07.01.15.02.23.03.08,0,.15.01.22.03,3.66.54,7.17,1.3,11.34,2.27,14.69,3.6,28.58,9.72,40.16,17.7l-.33.64ZM758.52,1530.43c15.01,0,29.73,2.43,43.8,7.21-11.02-7.16-23.93-12.67-37.54-16-4.14-.97-7.64-1.73-11.27-2.26-.06,0-.13-.01-.19-.02h-.11c-5.1,3.76-9.87,7.94-14.18,12.41,4.71-.65,9.55-1.08,14.41-1.25,1.68-.06,3.39-.09,5.07-.09"/>
      <path class="cls-1" d="M733.59,1575.85l-.43-.59c7.26-5.37,15.14-10.08,23.4-13.98,19.46-9.19,40.56-13.71,61.16-13.12-17.65-7.47-37.43-11.03-57.33-10.31-10.27.38-20.42,1.87-30.18,4.45-4.79,6.45-8.72,13.36-11.69,20.55l-.67-.28c3-7.28,6.99-14.28,11.85-20.8l.08-.1.12-.03c9.85-2.61,20.1-4.12,30.46-4.51,10.51-.38,20.98.41,31.12,2.35,9.83,1.88,19.35,4.83,28.3,8.79l-.16.69c-21.09-.93-42.79,3.56-62.74,12.98-8.22,3.88-16.05,8.56-23.28,13.91"/>
      <path class="cls-1" d="M733.37,1575.92h-.12l-.1-.07c-10.02-7.29-18.89-15.8-26.34-25.3l-.28-.36.41-.19c7.3-3.46,15.02-6.28,22.96-8.38l.18.7c-7.75,2.04-15.29,4.78-22.42,8.14,7.35,9.3,16.07,17.64,25.91,24.8l-.2.28v.37Z"/>
      <path class="cls-1" d="M711.11,1596.94v-.99c.04-11.44,2.3-22.67,6.73-33.39l.67.28c-4.27,10.32-6.51,21.12-6.67,32.12,6.22-7.2,13.39-13.82,21.31-19.69l.43.58c-8.15,6.04-15.5,12.89-21.84,20.33l-.64.76Z"/>
      <path class="cls-1" d="M729.17,1211.27c-29.27-10.65-60.04-16.05-91.44-16.05-3.31,0-6.66.06-9.97.18-10.26.37-20.48,1.3-30.38,2.75l-1.04.15.72-.76c9-9.51,19.02-18.37,29.79-26.32l.12-.09.15.03c.14.02.31.04.46.05.14.01.29.03.42.04,7.2,1.05,14.13,2.56,22.34,4.48,28.94,7.09,56.31,19.15,79.15,34.89l-.33.64ZM637.73,1194.49c30.53,0,60.45,5.09,89,15.13-22.28-14.9-48.68-26.35-76.55-33.17-8.18-1.92-15.1-3.42-22.27-4.47-.12-.02-.26-.03-.39-.04-.12,0-.23-.02-.35-.04-10.4,7.69-20.1,16.23-28.85,25.38,9.6-1.37,19.49-2.25,29.42-2.61,3.32-.12,6.68-.18,10-.18"/>
      <path class="cls-1" d="M588.31,1283.5l-.43-.59c14.32-10.59,29.84-19.86,46.12-27.56,20.06-9.47,41.04-16.46,62.35-20.78,19.99-4.06,40.19-5.74,60.07-5.02-35.33-15.27-75.05-22.57-115.03-21.13-20.33.75-40.44,3.72-59.76,8.82-9.51,12.78-17.31,26.48-23.19,40.73l-.67-.28c5.91-14.33,13.77-28.13,23.35-40.98l.08-.1.12-.03c19.41-5.14,39.61-8.12,60.04-8.88,20.71-.75,41.35.81,61.34,4.63,19.37,3.71,38.13,9.54,55.78,17.33l-.16.69c-41.69-1.83-84.57,7.04-124.01,25.66-16.25,7.67-31.73,16.92-46,27.49"/>
      <path class="cls-1" d="M588.09,1283.57h-.14l-.09-.07c-19.76-14.37-37.22-31.15-51.92-49.86l-.28-.36.41-.2c14.38-6.82,29.6-12.38,45.25-16.51l.19.7c-15.46,4.08-30.5,9.56-44.71,16.27,14.59,18.52,31.91,35.13,51.49,49.36l-.2.27v.39Z"/>
      <path class="cls-1" d="M544.52,1324.45v-.99c.07-22.53,4.53-44.65,13.26-65.76l.67.28c-8.56,20.71-13,42.41-13.2,64.49,12.42-14.47,26.76-27.77,42.64-39.54l.43.59c-16.11,11.94-30.63,25.46-43.16,40.18l-.64.76Z"/>
      <path class="cls-1" d="M1425,1111.18c-17.87-6.5-36.65-9.8-55.83-9.8-2.02,0-4.07.04-6.09.11-6.26.23-12.5.8-18.55,1.68l-1.04.15.72-.76c5.5-5.82,11.63-11.24,18.22-16.1l.12-.09.15.02c.09.01.18.02.27.03.09,0,.18.02.27.03,4.41.64,8.65,1.56,13.66,2.74,17.71,4.33,34.45,11.71,48.42,21.34l-.33.64ZM1369.17,1100.65c18.29,0,36.23,2.99,53.37,8.88-13.4-8.79-29.17-15.56-45.79-19.63-5-1.17-9.22-2.09-13.6-2.73-.07-.01-.15-.02-.23-.03-.05,0-.11-.01-.16-.02-6.22,4.6-12.03,9.7-17.28,15.17,5.74-.81,11.66-1.32,17.58-1.54,2.03-.08,4.09-.11,6.12-.11"/>
      <path class="cls-1" d="M1339.06,1155.3l-.43-.59c8.75-6.48,18.25-12.15,28.21-16.85,23.57-11.13,49.16-16.59,74.12-15.81-21.4-9.12-45.39-13.48-69.54-12.6-12.4.46-24.66,2.26-36.44,5.37-5.79,7.79-10.54,16.14-14.12,24.82l-.67-.27c3.62-8.77,8.43-17.21,14.29-25.08l.08-.1.12-.03c11.87-3.14,24.22-4.97,36.72-5.43,12.67-.46,25.29.49,37.51,2.83,11.85,2.27,23.32,5.83,34.11,10.59l-.16.7c-25.45-1.12-51.63,4.3-75.71,15.66-9.92,4.69-19.37,10.33-28.08,16.78"/>
      <path class="cls-1" d="M1338.84,1155.37h-.12l-.11-.07c-12.08-8.79-22.76-19.05-31.75-30.5l-.28-.36.41-.2c8.79-4.17,18.1-7.57,27.68-10.1l.18.7c-9.38,2.48-18.51,5.79-27.14,9.86,8.88,11.25,19.43,21.34,31.33,30l-.2.28v.38Z"/>
      <path class="cls-1" d="M1312.07,1180.59v-.99c.04-13.79,2.77-27.32,8.11-40.24l.67.28c-5.18,12.52-7.88,25.62-8.05,38.97,7.53-8.74,16.22-16.77,25.82-23.89l.44.58c-9.84,7.29-18.71,15.55-26.35,24.53l-.64.76Z"/>
      <path class="cls-1" d="M1555.83,1355.99c-26.62-9.69-54.61-14.6-83.17-14.6-3.01,0-6.06.06-9.07.17-9.33.34-18.62,1.18-27.63,2.51l-1.04.15.72-.76c8.19-8.65,17.31-16.71,27.11-23.94l.12-.09.15.02c.13.02.28.04.42.05.13.01.26.03.39.05,6.55.96,12.86,2.32,20.32,4.08,26.33,6.45,51.24,17.42,72.01,31.73l-.33.64ZM1472.66,1340.67c27.68,0,54.83,4.6,80.72,13.68-20.22-13.48-44.15-23.84-69.4-30.02-7.44-1.75-13.74-3.11-20.26-4.07-.11-.01-.23-.03-.36-.04-.1-.01-.2-.02-.31-.04-9.43,6.98-18.23,14.71-26.17,23.01,8.71-1.24,17.67-2.03,26.67-2.36,3.02-.11,6.08-.17,9.1-.17"/>
      <path class="cls-1" d="M1427.73,1421.7l-.43-.59c13.03-9.64,27.14-18.07,41.97-25.07,18.25-8.62,37.33-14.98,56.72-18.91,18.13-3.67,36.44-5.21,54.47-4.58-32.09-13.84-68.16-20.46-104.46-19.14-18.49.68-36.77,3.38-54.34,8.02-8.65,11.62-15.74,24.08-21.08,37.03l-.67-.27c5.38-13.05,12.53-25.59,21.24-37.29l.08-.1.12-.03c17.66-4.67,36.03-7.39,54.62-8.07,18.84-.68,37.62.73,55.8,4.21,17.62,3.37,34.69,8.67,50.74,15.76l-.16.7c-37.91-1.67-76.92,6.4-112.79,23.34-14.77,6.98-28.85,15.39-41.84,25"/>
      <path class="cls-1" d="M1427.51,1421.77h-.12l-.11-.07c-17.97-13.07-33.86-28.34-47.23-45.36l-.28-.36.41-.19c13.08-6.21,26.93-11.26,41.17-15.02l.19.7c-14.05,3.71-27.72,8.68-40.63,14.78,13.27,16.83,29.01,31.92,46.8,44.86l-.21.28v.37Z"/>
      <path class="cls-1" d="M1387.84,1459.01v-.99c.06-20.49,4.12-40.62,12.06-59.83l.67.28c-7.77,18.8-11.81,38.5-12,58.56,11.29-13.14,24.31-25.22,38.73-35.91l.43.58c-14.65,10.86-27.86,23.16-39.26,36.55l-.64.76Z"/>
      <path class="cls-1" d="M1340.46,1539.28c-14.81-5.39-30.38-8.12-46.27-8.12-1.67,0-3.37.03-5.05.09-5.19.19-10.37.66-15.37,1.4l-1.04.15.72-.76c4.57-4.82,9.65-9.32,15.12-13.35l.12-.09.15.02c.07.01.15.02.23.03.08,0,.15.01.22.03,3.65.54,7.17,1.3,11.34,2.27,14.69,3.6,28.58,9.72,40.16,17.7l-.33.64ZM1294.19,1530.43c15.01,0,29.73,2.43,43.8,7.21-11.02-7.16-23.93-12.67-37.54-16-4.14-.97-7.64-1.73-11.27-2.26-.06,0-.13-.01-.19-.02h-.11c-5.1,3.76-9.87,7.94-14.18,12.41,4.71-.65,9.55-1.08,14.41-1.25,1.68-.06,3.39-.09,5.07-.09"/>
      <path class="cls-1" d="M1269.26,1575.85l-.43-.59c7.26-5.37,15.14-10.08,23.4-13.98,19.46-9.19,40.56-13.71,61.16-13.12-17.65-7.47-37.43-11.03-57.33-10.31-10.27.38-20.42,1.87-30.18,4.45-4.79,6.45-8.72,13.36-11.69,20.55l-.67-.28c3-7.28,6.99-14.28,11.85-20.8l.08-.1.12-.03c9.85-2.61,20.1-4.12,30.46-4.51,10.51-.38,20.98.41,31.12,2.35,9.83,1.88,19.35,4.83,28.3,8.79l-.16.69c-21.09-.93-42.79,3.56-62.74,12.98-8.22,3.88-16.05,8.56-23.28,13.91"/>
      <path class="cls-1" d="M1269.04,1575.92h-.12l-.1-.07c-10.02-7.29-18.89-15.8-26.34-25.3l-.28-.36.41-.19c7.3-3.46,15.02-6.28,22.96-8.38l.18.7c-7.75,2.04-15.29,4.78-22.42,8.14,7.35,9.3,16.07,17.64,25.91,24.8l-.2.28v.37Z"/>
      <path class="cls-1" d="M1246.78,1596.94v-.99c.04-11.44,2.3-22.67,6.73-33.39l.67.28c-4.27,10.32-6.51,21.12-6.67,32.12,6.22-7.2,13.39-13.82,21.31-19.69l.43.58c-8.15,6.04-15.5,12.89-21.84,20.33l-.64.76Z"/>
      <path class="cls-1" d="M1264.84,1211.27c-29.27-10.65-60.04-16.05-91.44-16.05-3.31,0-6.66.06-9.97.18-10.26.37-20.48,1.3-30.38,2.75l-1.04.15.72-.76c9-9.51,19.02-18.37,29.79-26.32l.12-.09.15.03c.14.02.31.04.46.05.14.01.29.03.42.04,7.2,1.06,14.13,2.56,22.34,4.48,28.94,7.09,56.31,19.15,79.15,34.89l-.33.64ZM1173.4,1194.49c30.53,0,60.45,5.09,89,15.13-22.28-14.9-48.68-26.35-76.55-33.17-8.18-1.92-15.1-3.42-22.27-4.47-.13-.02-.26-.03-.39-.04-.12,0-.23-.02-.35-.04-10.4,7.69-20.1,16.23-28.85,25.38,9.6-1.37,19.49-2.25,29.42-2.61,3.32-.12,6.68-.18,10-.18"/>
      <path class="cls-1" d="M1123.98,1283.5l-.43-.59c14.32-10.59,29.84-19.86,46.12-27.56,20.06-9.47,41.04-16.46,62.35-20.78,19.99-4.06,40.19-5.74,60.07-5.02-35.33-15.27-75.05-22.57-115.03-21.13-20.34.75-40.44,3.72-59.76,8.82-9.51,12.78-17.31,26.48-23.19,40.73l-.67-.28c5.91-14.34,13.77-28.13,23.35-40.98l.08-.1.12-.03c19.41-5.14,39.61-8.12,60.04-8.88,20.71-.75,41.35.81,61.34,4.63,19.37,3.71,38.13,9.54,55.78,17.33l-.16.69c-41.69-1.83-84.57,7.04-124.01,25.66-16.25,7.67-31.73,16.92-46,27.49"/>
      <path class="cls-1" d="M1123.76,1283.57h-.14l-.09-.07c-19.76-14.37-37.22-31.15-51.92-49.86l-.28-.36.41-.2c14.38-6.82,29.6-12.38,45.25-16.51l.19.7c-15.46,4.08-30.5,9.56-44.71,16.27,14.59,18.52,31.91,35.13,51.49,49.36l-.2.27v.39Z"/>
      <path class="cls-1" d="M1080.19,1324.45v-.99c.07-22.53,4.53-44.65,13.25-65.76l.68.28c-8.56,20.71-13,42.41-13.2,64.49,12.42-14.47,26.76-27.77,42.64-39.54l.43.59c-16.11,11.94-30.63,25.46-43.16,40.18l-.64.76Z"/>
      <path class="cls-1" d="M124.54,24.44c-13.9-9.56-30.66-17.09-49.06-21.6-4.55-1.07-9.13-2.08-13.86-2.78-.17-.03-.37-.03-.54-.06-6.72,4.96-12.9,10.42-18.47,16.29,6.17-.9,12.46-1.48,18.89-1.71,22.45-.82,43.79,2.85,63.05,9.85"/>
      <path class="cls-1" d="M36.88,69.27c8.73-6.45,18.28-12.2,28.59-17.07,25.41-11.98,52-17.04,77.1-15.94-21.6-9.53-46.4-14.55-72.61-13.6-12.92.47-25.4,2.38-37.23,5.5-5.89,7.91-10.77,16.42-14.47,25.37,5.7,5.6,11.92,10.88,18.61,15.73"/>
      <path class="cls-1" d="M10.05,94.23c6.89-8.09,14.8-15.59,23.57-22.41-6.06-4.34-11.72-9.01-16.99-13.94-4.22,11.54-6.54,23.74-6.58,36.36"/>
      <path class="cls-1" d="M16.51,47.45c2.92-6.05,6.15-11.83,9.64-17.33-7.44,2.29-14.64,5.03-21.47,8.27,3.25,4.13,6.75,8.12,10.47,11.99.45-.98.9-1.96,1.36-2.93"/>
      <path class="cls-1" d="M660.23,24.44c-13.9-9.56-30.66-17.09-49.06-21.6-4.55-1.07-9.13-2.08-13.86-2.78-.17-.03-.37-.03-.54-.06-6.72,4.96-12.9,10.42-18.47,16.29,6.17-.9,12.46-1.48,18.89-1.71,22.45-.82,43.79,2.85,63.05,9.85"/>
      <path class="cls-1" d="M572.56,69.27c8.73-6.45,18.28-12.2,28.59-17.07,25.41-11.98,52-17.04,77.1-15.94-21.6-9.53-46.4-14.55-72.61-13.6-12.92.47-25.4,2.38-37.23,5.5-5.89,7.91-10.77,16.42-14.47,25.37,5.7,5.6,11.92,10.88,18.61,15.73"/>
      <path class="cls-1" d="M545.73,94.23c6.89-8.09,14.8-15.59,23.57-22.41-6.06-4.34-11.72-9.01-16.99-13.94-4.22,11.54-6.54,23.74-6.58,36.36"/>
      <path class="cls-1" d="M552.19,47.45c2.92-6.05,6.15-11.83,9.64-17.33-7.44,2.29-14.64,5.03-21.47,8.27,3.25,4.13,6.75,8.12,10.47,11.99.45-.98.9-1.96,1.36-2.93"/>
      <path class="cls-1" d="M1195.91,24.44c-13.9-9.56-30.66-17.09-49.06-21.6-4.55-1.07-9.13-2.08-13.86-2.78-.17-.03-.37-.03-.54-.06-6.72,4.96-12.9,10.42-18.47,16.29,6.17-.9,12.46-1.48,18.89-1.71,22.45-.82,43.79,2.85,63.05,9.85"/>
      <path class="cls-1" d="M1108.24,69.27c8.73-6.45,18.28-12.2,28.59-17.07,25.41-11.98,52-17.04,77.1-15.94-21.6-9.53-46.4-14.55-72.61-13.6-12.92.47-25.4,2.38-37.23,5.5-5.89,7.91-10.77,16.42-14.47,25.37,5.7,5.6,11.92,10.88,18.61,15.73"/>
      <path class="cls-1" d="M1081.41,94.23c6.89-8.09,14.8-15.59,23.57-22.41-6.06-4.34-11.72-9.01-16.99-13.94-4.22,11.54-6.54,23.74-6.58,36.36"/>
      <path class="cls-1" d="M1087.88,47.45c2.92-6.05,6.15-11.83,9.64-17.33-7.44,2.29-14.64,5.03-21.47,8.27,3.25,4.13,6.75,8.12,10.47,11.99.45-.98.9-1.96,1.36-2.93"/>
      <path class="cls-1" d="M502.28,122.83c-22.26-15.31-49.11-27.38-78.58-34.59-7.29-1.71-14.61-3.34-22.19-4.44-.27-.05-.6-.06-.88-.1-10.76,7.93-20.66,16.68-29.58,26.1,9.88-1.44,19.96-2.36,30.25-2.74,35.95-1.32,70.13,4.56,100.97,15.78"/>
      <path class="cls-1" d="M361.87,194.63c13.97-10.33,29.28-19.54,45.8-27.34,40.69-19.18,83.29-27.28,123.48-25.52-34.6-15.26-74.31-23.3-116.29-21.78-20.69.76-40.68,3.8-59.62,8.8-9.44,12.67-17.24,26.3-23.17,40.64,9.13,8.97,19.09,17.42,29.81,25.2"/>
      <path class="cls-1" d="M318.91,234.61c11.04-12.95,23.71-24.97,37.74-35.9-9.7-6.94-18.77-14.42-27.2-22.33-6.76,18.47-10.47,38.02-10.54,58.23"/>
      <path class="cls-1" d="M329.26,159.68c4.68-9.69,9.85-18.95,15.44-27.76-11.93,3.67-23.45,8.06-34.39,13.25,5.19,6.61,10.82,13,16.77,19.19.72-1.57,1.43-3.13,2.17-4.68"/>
      <path class="cls-1" d="M478.06,469.33c-15.9-10.93-35.07-19.55-56.12-24.7-5.21-1.22-10.44-2.39-15.85-3.17-.2-.03-.43-.04-.63-.07-7.68,5.67-14.76,11.91-21.12,18.63,7.05-1.03,14.25-1.69,21.6-1.95,25.67-.95,50.08,3.25,72.11,11.27"/>
      <path class="cls-1" d="M377.8,520.6c9.98-7.38,20.91-13.95,32.7-19.52,29.06-13.7,59.48-19.49,88.18-18.23-24.7-10.9-53.06-16.64-83.05-15.55-14.78.54-29.05,2.72-42.57,6.29-6.74,9.05-12.31,18.78-16.55,29.02,6.52,6.4,13.64,12.44,21.29,18"/>
      <path class="cls-1" d="M347.12,549.16c7.88-9.25,16.93-17.83,26.95-25.64-6.93-4.96-13.4-10.3-19.43-15.95-4.83,13.19-7.48,27.15-7.53,41.58"/>
      <path class="cls-1" d="M354.51,495.65c3.34-6.92,7.03-13.53,11.03-19.83-8.52,2.62-16.74,5.76-24.56,9.47,3.71,4.72,7.72,9.29,11.98,13.7.51-1.12,1.02-2.24,1.55-3.34"/>
      <path class="cls-1" d="M1013.93,469.33c-15.9-10.93-35.07-19.55-56.12-24.7-5.21-1.22-10.44-2.39-15.85-3.17-.2-.03-.43-.04-.63-.07-7.68,5.67-14.76,11.91-21.12,18.63,7.05-1.03,14.25-1.69,21.6-1.95,25.67-.95,50.08,3.25,72.11,11.27"/>
      <path class="cls-1" d="M913.66,520.6c9.98-7.38,20.91-13.95,32.7-19.52,29.06-13.7,59.48-19.49,88.18-18.23-24.7-10.9-53.06-16.64-83.05-15.55-14.78.54-29.05,2.72-42.57,6.29-6.74,9.05-12.31,18.78-16.55,29.02,6.52,6.4,13.64,12.44,21.29,18"/>
      <path class="cls-1" d="M882.98,549.16c7.88-9.25,16.93-17.83,26.95-25.64-6.93-4.96-13.4-10.3-19.43-15.95-4.83,13.19-7.48,27.15-7.53,41.58"/>
      <path class="cls-1" d="M890.37,495.65c3.34-6.92,7.03-13.53,11.03-19.83-8.52,2.62-16.74,5.76-24.56,9.47,3.71,4.72,7.72,9.29,11.98,13.7.51-1.12,1.02-2.24,1.55-3.34"/>
      <path class="cls-1" d="M1549.8,469.33c-15.9-10.93-35.07-19.55-56.12-24.7-5.21-1.22-10.44-2.39-15.85-3.17-.2-.03-.43-.04-.63-.07-7.68,5.67-14.76,11.91-21.12,18.63,7.05-1.03,14.25-1.69,21.6-1.95,25.67-.95,50.08,3.25,72.11,11.27"/>
      <path class="cls-1" d="M1449.53,520.6c9.98-7.38,20.91-13.95,32.7-19.52,29.06-13.7,59.48-19.49,88.18-18.23-24.7-10.9-53.06-16.64-83.05-15.55-14.78.54-29.05,2.72-42.58,6.29-6.74,9.05-12.31,18.78-16.54,29.02,6.52,6.4,13.64,12.44,21.29,18"/>
      <path class="cls-1" d="M1418.85,549.16c7.88-9.25,16.93-17.83,26.95-25.64-6.93-4.96-13.4-10.3-19.43-15.95-4.83,13.19-7.48,27.15-7.53,41.58"/>
      <path class="cls-1" d="M1426.24,495.65c3.34-6.92,7.03-13.53,11.03-19.83-8.52,2.62-16.74,5.76-24.56,9.47,3.71,4.72,7.72,9.29,11.98,13.7.51-1.12,1.02-2.24,1.55-3.34"/>
      <path class="cls-1" d="M478.06,1003.7c-15.9-10.93-35.07-19.55-56.12-24.7-5.21-1.22-10.44-2.39-15.85-3.17-.2-.03-.43-.04-.63-.07-7.68,5.67-14.76,11.91-21.12,18.63,7.05-1.03,14.25-1.69,21.6-1.95,25.67-.95,50.08,3.25,72.11,11.27"/>
      <path class="cls-1" d="M377.8,1054.98c9.98-7.38,20.91-13.95,32.7-19.52,29.06-13.7,59.48-19.49,88.18-18.23-24.7-10.9-53.06-16.63-83.05-15.55-14.78.54-29.05,2.72-42.57,6.29-6.74,9.05-12.31,18.78-16.55,29.02,6.52,6.4,13.64,12.44,21.29,18"/>
      <path class="cls-1" d="M347.12,1083.53c7.88-9.25,16.93-17.83,26.95-25.64-6.93-4.96-13.4-10.3-19.43-15.95-4.83,13.19-7.48,27.15-7.53,41.58"/>
      <path class="cls-1" d="M354.51,1030.02c3.34-6.92,7.03-13.53,11.03-19.83-8.52,2.62-16.74,5.76-24.56,9.47,3.71,4.72,7.72,9.29,11.98,13.7.51-1.12,1.02-2.24,1.55-3.34"/>
      <path class="cls-1" d="M1013.93,1003.7c-15.9-10.93-35.07-19.55-56.12-24.7-5.21-1.22-10.44-2.39-15.85-3.17-.2-.03-.43-.04-.63-.07-7.68,5.67-14.76,11.91-21.12,18.63,7.05-1.03,14.25-1.69,21.6-1.95,25.67-.95,50.08,3.25,72.11,11.27"/>
      <path class="cls-1" d="M913.66,1054.98c9.98-7.38,20.91-13.95,32.7-19.52,29.06-13.7,59.48-19.49,88.18-18.23-24.7-10.9-53.06-16.63-83.05-15.55-14.78.54-29.05,2.72-42.57,6.29-6.74,9.05-12.31,18.78-16.55,29.02,6.52,6.4,13.64,12.44,21.29,18"/>
      <path class="cls-1" d="M882.98,1083.53c7.88-9.25,16.93-17.83,26.95-25.64-6.93-4.96-13.4-10.3-19.43-15.95-4.83,13.19-7.48,27.15-7.53,41.58"/>
      <path class="cls-1" d="M890.37,1030.02c3.34-6.92,7.03-13.53,11.03-19.83-8.52,2.62-16.74,5.76-24.56,9.47,3.71,4.72,7.72,9.29,11.98,13.7.51-1.12,1.02-2.24,1.55-3.34"/>
      <path class="cls-1" d="M1549.8,1003.7c-15.9-10.93-35.07-19.55-56.12-24.7-5.21-1.22-10.44-2.39-15.85-3.17-.2-.03-.43-.04-.63-.07-7.68,5.67-14.76,11.91-21.12,18.63,7.05-1.03,14.25-1.69,21.6-1.95,25.67-.95,50.08,3.25,72.11,11.27"/>
      <path class="cls-1" d="M1449.53,1054.98c9.98-7.38,20.91-13.95,32.7-19.52,29.06-13.7,59.48-19.49,88.18-18.23-24.7-10.9-53.06-16.63-83.05-15.55-14.78.54-29.05,2.72-42.58,6.29-6.74,9.05-12.31,18.78-16.54,29.02,6.52,6.4,13.64,12.44,21.29,18"/>
      <path class="cls-1" d="M1418.85,1083.53c7.88-9.25,16.93-17.83,26.95-25.64-6.93-4.96-13.4-10.3-19.43-15.95-4.83,13.19-7.48,27.15-7.53,41.58"/>
      <path class="cls-1" d="M1426.24,1030.02c3.34-6.92,7.03-13.53,11.03-19.83-8.52,2.62-16.74,5.76-24.56,9.47,3.71,4.72,7.72,9.29,11.98,13.7.51-1.12,1.02-2.24,1.55-3.34"/>
      <path class="cls-1" d="M1037.27,122.83c-22.26-15.31-49.11-27.38-78.58-34.59-7.29-1.71-14.61-3.34-22.19-4.44-.28-.05-.6-.06-.88-.1-10.76,7.93-20.66,16.68-29.58,26.1,9.88-1.44,19.96-2.36,30.25-2.74,35.95-1.32,70.13,4.56,100.97,15.78"/>
      <path class="cls-1" d="M896.87,194.63c13.97-10.33,29.28-19.54,45.8-27.34,40.69-19.18,83.29-27.28,123.48-25.52-34.6-15.26-74.31-23.3-116.29-21.78-20.69.76-40.68,3.8-59.62,8.8-9.44,12.67-17.24,26.3-23.17,40.64,9.13,8.97,19.09,17.42,29.81,25.2"/>
      <path class="cls-1" d="M853.9,234.61c11.04-12.95,23.71-24.97,37.74-35.9-9.7-6.94-18.77-14.42-27.2-22.33-6.76,18.47-10.48,38.02-10.54,58.23"/>
      <path class="cls-1" d="M864.25,159.68c4.68-9.69,9.85-18.95,15.44-27.76-11.93,3.67-23.45,8.06-34.39,13.25,5.19,6.61,10.82,13,16.77,19.19.72-1.57,1.43-3.13,2.17-4.68"/>
      <path class="cls-1" d="M1572.27,122.83c-22.26-15.31-49.11-27.38-78.58-34.59-7.29-1.71-14.61-3.34-22.19-4.44-.28-.05-.6-.06-.88-.1-10.76,7.93-20.66,16.68-29.58,26.1,9.88-1.44,19.96-2.36,30.25-2.74,35.95-1.32,70.13,4.56,100.97,15.78"/>
      <path class="cls-1" d="M1431.86,194.63c13.97-10.33,29.28-19.54,45.8-27.34,40.69-19.18,83.29-27.28,123.48-25.52-34.6-15.26-74.31-23.3-116.29-21.78-20.69.76-40.68,3.8-59.62,8.8-9.44,12.67-17.24,26.3-23.17,40.64,9.13,8.97,19.09,17.42,29.81,25.2"/>
      <path class="cls-1" d="M1388.9,234.61c11.04-12.95,23.71-24.97,37.74-35.9-9.7-6.94-18.77-14.42-27.2-22.33-6.76,18.47-10.48,38.02-10.54,58.23"/>
      <path class="cls-1" d="M1399.25,159.68c4.68-9.69,9.85-18.95,15.44-27.76-11.93,3.67-23.45,8.06-34.39,13.25,5.19,6.61,10.81,13,16.77,19.19.72-1.57,1.43-3.13,2.17-4.68"/>
      <path class="cls-1" d="M502.28,656.95c-22.26-15.31-49.11-27.38-78.58-34.59-7.29-1.71-14.61-3.34-22.19-4.45-.27-.04-.6-.05-.88-.1-10.76,7.93-20.66,16.68-29.58,26.1,9.88-1.44,19.96-2.36,30.25-2.74,35.95-1.32,70.13,4.56,100.97,15.78"/>
      <path class="cls-1" d="M361.87,728.75c13.97-10.33,29.28-19.54,45.8-27.34,40.69-19.18,83.29-27.28,123.48-25.52-34.6-15.26-74.31-23.3-116.29-21.78-20.69.76-40.68,3.8-59.62,8.8-9.44,12.67-17.24,26.3-23.17,40.64,9.13,8.97,19.09,17.42,29.81,25.2"/>
      <path class="cls-1" d="M318.91,768.73c11.04-12.95,23.71-24.97,37.74-35.9-9.7-6.94-18.77-14.42-27.2-22.33-6.76,18.47-10.47,38.02-10.54,58.23"/>
      <path class="cls-1" d="M329.26,693.81c4.68-9.69,9.85-18.95,15.44-27.76-11.93,3.67-23.45,8.06-34.39,13.25,5.19,6.61,10.82,13,16.77,19.19.72-1.57,1.43-3.13,2.17-4.68"/>
      <path class="cls-1" d="M1037.27,656.95c-22.26-15.31-49.11-27.38-78.58-34.59-7.29-1.71-14.61-3.34-22.19-4.45-.28-.04-.6-.05-.88-.1-10.76,7.93-20.66,16.68-29.58,26.1,9.88-1.44,19.96-2.36,30.25-2.74,35.95-1.32,70.13,4.56,100.97,15.78"/>
      <path class="cls-1" d="M896.87,728.75c13.97-10.33,29.28-19.54,45.8-27.34,40.69-19.18,83.29-27.28,123.48-25.52-34.6-15.26-74.31-23.3-116.29-21.78-20.69.76-40.68,3.8-59.62,8.8-9.44,12.67-17.24,26.3-23.17,40.64,9.13,8.97,19.09,17.42,29.81,25.2"/>
      <path class="cls-1" d="M853.9,768.73c11.04-12.95,23.71-24.97,37.74-35.9-9.7-6.94-18.77-14.42-27.2-22.33-6.76,18.47-10.48,38.02-10.54,58.23"/>
      <path class="cls-1" d="M864.25,693.81c4.68-9.69,9.85-18.95,15.44-27.76-11.93,3.67-23.45,8.06-34.39,13.25,5.19,6.61,10.82,13,16.77,19.19.72-1.57,1.43-3.13,2.17-4.68"/>
      <path class="cls-1" d="M1572.27,656.95c-22.26-15.31-49.11-27.38-78.58-34.59-7.29-1.71-14.61-3.34-22.19-4.45-.28-.04-.6-.05-.88-.1-10.76,7.93-20.66,16.68-29.58,26.1,9.88-1.44,19.96-2.36,30.25-2.74,35.95-1.32,70.13,4.56,100.97,15.78"/>
      <path class="cls-1" d="M1431.86,728.75c13.97-10.33,29.28-19.54,45.8-27.34,40.69-19.18,83.29-27.28,123.48-25.52-34.6-15.26-74.31-23.3-116.29-21.78-20.69.76-40.68,3.8-59.62,8.8-9.44,12.67-17.24,26.3-23.17,40.64,9.13,8.97,19.09,17.42,29.81,25.2"/>
      <path class="cls-1" d="M1388.9,768.73c11.04-12.95,23.71-24.97,37.74-35.9-9.7-6.94-18.77-14.42-27.2-22.33-6.76,18.47-10.48,38.02-10.54,58.23"/>
      <path class="cls-1" d="M1399.25,693.81c4.68-9.69,9.85-18.95,15.44-27.76-11.93,3.67-23.45,8.06-34.39,13.25,5.19,6.61,10.81,13,16.77,19.19.72-1.57,1.43-3.13,2.17-4.68"/>
      <path class="cls-1" d="M502.28,1188.89c-22.26-15.31-49.11-27.38-78.58-34.59-7.29-1.71-14.61-3.34-22.19-4.44-.27-.05-.6-.06-.88-.1-10.76,7.93-20.66,16.68-29.58,26.1,9.88-1.44,19.96-2.36,30.25-2.74,35.95-1.32,70.13,4.56,100.97,15.78"/>
      <path class="cls-1" d="M361.87,1260.69c13.97-10.33,29.28-19.54,45.8-27.34,40.69-19.18,83.29-27.28,123.48-25.52-34.6-15.26-74.31-23.3-116.29-21.78-20.69.76-40.68,3.8-59.62,8.8-9.44,12.67-17.24,26.3-23.17,40.64,9.13,8.97,19.09,17.42,29.81,25.2"/>
      <path class="cls-1" d="M318.91,1300.67c11.04-12.95,23.71-24.97,37.74-35.9-9.7-6.94-18.77-14.42-27.2-22.33-6.76,18.47-10.47,38.02-10.54,58.23"/>
      <path class="cls-1" d="M329.26,1225.75c4.68-9.69,9.85-18.95,15.44-27.76-11.93,3.67-23.45,8.06-34.39,13.25,5.19,6.61,10.82,13,16.77,19.19.72-1.57,1.43-3.13,2.17-4.68"/>
      <path class="cls-1" d="M1037.27,1188.89c-22.26-15.31-49.11-27.38-78.58-34.59-7.29-1.71-14.61-3.34-22.19-4.44-.28-.05-.6-.06-.88-.1-10.76,7.93-20.66,16.68-29.58,26.1,9.88-1.44,19.96-2.36,30.25-2.74,35.95-1.32,70.13,4.56,100.97,15.78"/>
      <path class="cls-1" d="M896.87,1260.69c13.97-10.33,29.28-19.54,45.8-27.34,40.69-19.18,83.29-27.28,123.48-25.52-34.6-15.26-74.31-23.3-116.29-21.78-20.69.76-40.68,3.8-59.62,8.8-9.44,12.67-17.24,26.3-23.17,40.64,9.13,8.97,19.09,17.42,29.81,25.2"/>
      <path class="cls-1" d="M853.9,1300.67c11.04-12.95,23.71-24.97,37.74-35.9-9.7-6.94-18.77-14.42-27.2-22.33-6.76,18.47-10.48,38.02-10.54,58.23"/>
      <path class="cls-1" d="M864.25,1225.75c4.68-9.69,9.85-18.95,15.44-27.76-11.93,3.67-23.45,8.06-34.39,13.25,5.19,6.61,10.82,13,16.77,19.19.72-1.57,1.43-3.13,2.17-4.68"/>
      <path class="cls-1" d="M1572.27,1188.89c-22.26-15.31-49.11-27.38-78.58-34.59-7.29-1.71-14.61-3.34-22.19-4.44-.28-.05-.6-.06-.88-.1-10.76,7.93-20.66,16.68-29.58,26.1,9.88-1.44,19.96-2.36,30.25-2.74,35.95-1.32,70.13,4.56,100.97,15.78"/>
      <path class="cls-1" d="M1431.86,1260.69c13.97-10.33,29.28-19.54,45.8-27.34,40.69-19.18,83.29-27.28,123.48-25.52-34.6-15.26-74.31-23.3-116.29-21.78-20.69.76-40.68,3.8-59.62,8.8-9.44,12.67-17.24,26.3-23.17,40.64,9.13,8.97,19.09,17.42,29.81,25.2"/>
      <path class="cls-1" d="M1388.9,1300.67c11.04-12.95,23.71-24.97,37.74-35.9-9.7-6.94-18.77-14.42-27.2-22.33-6.76,18.47-10.48,38.02-10.54,58.23"/>
      <path class="cls-1" d="M1399.25,1225.75c4.68-9.69,9.85-18.95,15.44-27.76-11.93,3.67-23.45,8.06-34.39,13.25,5.19,6.61,10.81,13,16.77,19.19.72-1.57,1.43-3.13,2.17-4.68"/>
      <path class="cls-1" d="M209.11,1446.03c-22.26-15.31-49.11-27.38-78.58-34.59-7.29-1.71-14.61-3.34-22.19-4.44-.27-.05-.6-.06-.88-.1-10.76,7.93-20.66,16.68-29.58,26.1,9.88-1.44,19.96-2.36,30.25-2.74,35.95-1.32,70.13,4.56,100.97,15.78"/>
      <path class="cls-1" d="M68.71,1517.83c13.97-10.33,29.28-19.54,45.8-27.34,40.69-19.18,83.29-27.28,123.48-25.52-34.6-15.26-74.31-23.3-116.29-21.78-20.69.76-40.68,3.8-59.62,8.8-9.44,12.67-17.24,26.3-23.17,40.64,9.13,8.97,19.09,17.42,29.81,25.2"/>
      <path class="cls-1" d="M25.75,1557.81c11.04-12.95,23.71-24.97,37.74-35.9-9.7-6.94-18.77-14.42-27.2-22.33-6.76,18.47-10.47,38.02-10.54,58.23"/>
      <path class="cls-1" d="M36.09,1482.89c4.68-9.69,9.85-18.95,15.44-27.76-11.93,3.67-23.45,8.06-34.39,13.25,5.19,6.61,10.82,13,16.77,19.19.72-1.57,1.43-3.13,2.17-4.68"/>
      <path class="cls-1" d="M744.11,1446.03c-22.26-15.31-49.11-27.38-78.58-34.59-7.29-1.71-14.61-3.34-22.19-4.44-.28-.05-.6-.06-.88-.1-10.76,7.93-20.66,16.68-29.58,26.1,9.88-1.44,19.96-2.36,30.25-2.74,35.95-1.32,70.13,4.56,100.97,15.78"/>
      <path class="cls-1" d="M603.7,1517.83c13.97-10.33,29.28-19.54,45.8-27.34,40.69-19.18,83.29-27.28,123.48-25.52-34.6-15.26-74.31-23.3-116.3-21.78-20.69.76-40.68,3.8-59.62,8.8-9.44,12.67-17.24,26.3-23.17,40.64,9.13,8.97,19.09,17.42,29.81,25.2"/>
      <path class="cls-1" d="M560.74,1557.81c11.04-12.95,23.71-24.97,37.74-35.9-9.7-6.94-18.77-14.42-27.2-22.33-6.76,18.47-10.48,38.02-10.54,58.23"/>
      <path class="cls-1" d="M571.09,1482.89c4.68-9.69,9.85-18.95,15.44-27.76-11.93,3.67-23.45,8.06-34.39,13.25,5.19,6.61,10.82,13,16.77,19.19.72-1.57,1.43-3.13,2.17-4.68"/>
      <path class="cls-1" d="M1279.1,1446.03c-22.26-15.31-49.11-27.38-78.58-34.59-7.29-1.71-14.61-3.34-22.19-4.44-.28-.05-.6-.06-.88-.1-10.76,7.93-20.66,16.68-29.58,26.1,9.88-1.44,19.96-2.36,30.25-2.74,35.95-1.32,70.13,4.56,100.97,15.78"/>
      <path class="cls-1" d="M1138.7,1517.83c13.97-10.33,29.28-19.54,45.8-27.34,40.69-19.18,83.29-27.28,123.48-25.52-34.6-15.26-74.31-23.3-116.29-21.78-20.69.76-40.68,3.8-59.62,8.8-9.44,12.67-17.24,26.3-23.17,40.64,9.13,8.97,19.09,17.42,29.81,25.2"/>
      <path class="cls-1" d="M1095.74,1557.81c11.04-12.95,23.71-24.97,37.74-35.9-9.7-6.94-18.77-14.42-27.2-22.33-6.76,18.47-10.48,38.02-10.54,58.23"/>
      <path class="cls-1" d="M1106.08,1482.89c4.68-9.69,9.85-18.95,15.44-27.76-11.93,3.67-23.45,8.06-34.39,13.25,5.19,6.61,10.81,13,16.77,19.19.72-1.57,1.43-3.13,2.17-4.68"/>
      <path class="cls-1" d="M209.11,914.44c-22.26-15.31-49.11-27.38-78.58-34.59-7.29-1.71-14.61-3.34-22.19-4.44-.27-.05-.6-.06-.88-.1-10.76,7.93-20.66,16.68-29.58,26.1,9.88-1.44,19.96-2.36,30.25-2.74,35.95-1.32,70.13,4.56,100.97,15.78"/>
      <path class="cls-1" d="M68.71,986.24c13.97-10.33,29.28-19.54,45.8-27.34,40.69-19.18,83.29-27.28,123.48-25.52-34.6-15.26-74.31-23.3-116.29-21.78-20.69.76-40.68,3.8-59.62,8.8-9.44,12.67-17.24,26.3-23.17,40.64,9.13,8.97,19.09,17.42,29.81,25.2"/>
      <path class="cls-1" d="M25.75,1026.22c11.04-12.96,23.71-24.97,37.74-35.9-9.7-6.94-18.77-14.42-27.2-22.33-6.76,18.47-10.47,38.02-10.54,58.23"/>
      <path class="cls-1" d="M36.09,951.29c4.68-9.69,9.85-18.95,15.44-27.76-11.93,3.67-23.45,8.06-34.39,13.25,5.19,6.61,10.82,13,16.77,19.19.72-1.57,1.43-3.13,2.17-4.68"/>
      <path class="cls-1" d="M744.11,914.44c-22.26-15.31-49.11-27.38-78.58-34.59-7.29-1.71-14.61-3.34-22.19-4.44-.28-.05-.6-.06-.88-.1-10.76,7.93-20.66,16.68-29.58,26.1,9.88-1.44,19.96-2.36,30.25-2.74,35.95-1.32,70.13,4.56,100.97,15.78"/>
      <path class="cls-1" d="M603.7,986.24c13.97-10.33,29.28-19.54,45.8-27.34,40.69-19.18,83.29-27.28,123.48-25.52-34.6-15.26-74.31-23.3-116.3-21.78-20.69.76-40.68,3.8-59.62,8.8-9.44,12.67-17.24,26.3-23.17,40.64,9.13,8.97,19.09,17.42,29.81,25.2"/>
      <path class="cls-1" d="M560.74,1026.22c11.04-12.96,23.71-24.97,37.74-35.9-9.7-6.94-18.77-14.42-27.2-22.33-6.76,18.47-10.48,38.02-10.54,58.23"/>
      <path class="cls-1" d="M571.09,951.29c4.68-9.69,9.85-18.95,15.44-27.76-11.93,3.67-23.45,8.06-34.39,13.25,5.19,6.61,10.82,13,16.77,19.19.72-1.57,1.43-3.13,2.17-4.68"/>
      <path class="cls-1" d="M1279.1,914.44c-22.26-15.31-49.11-27.38-78.58-34.59-7.29-1.71-14.61-3.34-22.19-4.44-.28-.05-.6-.06-.88-.1-10.76,7.93-20.66,16.68-29.58,26.1,9.88-1.44,19.96-2.36,30.25-2.74,35.95-1.32,70.13,4.56,100.97,15.78"/>
      <path class="cls-1" d="M1138.7,986.24c13.97-10.33,29.28-19.54,45.8-27.34,40.69-19.18,83.29-27.28,123.48-25.52-34.6-15.26-74.31-23.3-116.29-21.78-20.69.76-40.68,3.8-59.62,8.8-9.44,12.67-17.24,26.3-23.17,40.64,9.13,8.97,19.09,17.42,29.81,25.2"/>
      <path class="cls-1" d="M1095.74,1026.22c11.04-12.96,23.71-24.97,37.74-35.9-9.7-6.94-18.77-14.42-27.2-22.33-6.76,18.47-10.48,38.02-10.54,58.23"/>
      <path class="cls-1" d="M1106.08,951.29c4.68-9.69,9.85-18.95,15.44-27.76-11.93,3.67-23.45,8.06-34.39,13.25,5.19,6.61,10.81,13,16.77,19.19.72-1.57,1.43-3.13,2.17-4.68"/>
      <path class="cls-1" d="M209.11,379.12c-22.26-15.31-49.11-27.38-78.58-34.59-7.29-1.71-14.61-3.34-22.19-4.44-.27-.05-.6-.06-.88-.1-10.76,7.93-20.66,16.68-29.58,26.1,9.88-1.44,19.96-2.36,30.25-2.74,35.95-1.32,70.13,4.56,100.97,15.78"/>
      <path class="cls-1" d="M68.71,450.92c13.97-10.33,29.28-19.54,45.8-27.34,40.69-19.18,83.29-27.28,123.48-25.52-34.6-15.26-74.31-23.3-116.29-21.78-20.69.76-40.68,3.8-59.62,8.8-9.44,12.67-17.24,26.3-23.17,40.64,9.13,8.97,19.09,17.42,29.81,25.2"/>
      <path class="cls-1" d="M25.75,490.9c11.04-12.95,23.71-24.97,37.74-35.9-9.7-6.94-18.77-14.42-27.2-22.33-6.76,18.47-10.47,38.02-10.54,58.23"/>
      <path class="cls-1" d="M36.09,415.98c4.68-9.69,9.85-18.95,15.44-27.76-11.93,3.67-23.45,8.06-34.39,13.25,5.19,6.61,10.82,13,16.77,19.19.72-1.57,1.43-3.13,2.17-4.68"/>
      <path class="cls-1" d="M744.11,379.12c-22.26-15.31-49.11-27.38-78.58-34.59-7.29-1.71-14.61-3.34-22.19-4.44-.28-.05-.6-.06-.88-.1-10.76,7.93-20.66,16.68-29.58,26.1,9.88-1.44,19.96-2.36,30.25-2.74,35.95-1.32,70.13,4.56,100.97,15.78"/>
      <path class="cls-1" d="M603.7,450.92c13.97-10.33,29.28-19.54,45.8-27.34,40.69-19.18,83.29-27.28,123.48-25.52-34.6-15.26-74.31-23.3-116.3-21.78-20.69.76-40.68,3.8-59.62,8.8-9.44,12.67-17.24,26.3-23.17,40.64,9.13,8.97,19.09,17.42,29.81,25.2"/>
      <path class="cls-1" d="M560.74,490.9c11.04-12.95,23.71-24.97,37.74-35.9-9.7-6.94-18.77-14.42-27.2-22.33-6.76,18.47-10.48,38.02-10.54,58.23"/>
      <path class="cls-1" d="M571.09,415.98c4.68-9.69,9.85-18.95,15.44-27.76-11.93,3.67-23.45,8.06-34.39,13.25,5.19,6.61,10.82,13,16.77,19.19.72-1.57,1.43-3.13,2.17-4.68"/>
      <path class="cls-1" d="M1279.1,379.12c-22.26-15.31-49.11-27.38-78.58-34.59-7.29-1.71-14.61-3.34-22.19-4.44-.28-.05-.6-.06-.88-.1-10.76,7.93-20.66,16.68-29.58,26.1,9.88-1.44,19.96-2.36,30.25-2.74,35.95-1.32,70.13,4.56,100.97,15.78"/>
      <path class="cls-1" d="M1138.7,450.92c13.97-10.33,29.28-19.54,45.8-27.34,40.69-19.18,83.29-27.28,123.48-25.52-34.6-15.26-74.31-23.3-116.29-21.78-20.69.76-40.68,3.8-59.62,8.8-9.44,12.67-17.24,26.3-23.17,40.64,9.13,8.97,19.09,17.42,29.81,25.2"/>
      <path class="cls-1" d="M1095.74,490.9c11.04-12.95,23.71-24.97,37.74-35.9-9.7-6.94-18.77-14.42-27.2-22.33-6.76,18.47-10.48,38.02-10.54,58.23"/>
      <path class="cls-1" d="M1106.08,415.98c4.68-9.69,9.85-18.95,15.44-27.76-11.93,3.67-23.45,8.06-34.39,13.25,5.19,6.61,10.81,13,16.77,19.19.72-1.57,1.43-3.13,2.17-4.68"/>
      <path class="cls-1" d="M124.54,558.92c-13.9-9.56-30.66-17.09-49.06-21.6-4.55-1.07-9.13-2.08-13.86-2.78-.17-.03-.37-.03-.54-.06-6.72,4.96-12.9,10.42-18.47,16.29,6.17-.9,12.46-1.48,18.89-1.71,22.45-.82,43.79,2.85,63.05,9.85"/>
      <path class="cls-1" d="M36.88,603.75c8.73-6.45,18.28-12.2,28.59-17.07,25.41-11.98,52-17.04,77.1-15.94-21.6-9.53-46.4-14.55-72.61-13.6-12.92.47-25.4,2.37-37.23,5.5-5.89,7.91-10.77,16.42-14.47,25.37,5.7,5.6,11.92,10.88,18.61,15.73"/>
      <path class="cls-1" d="M10.05,628.71c6.89-8.09,14.8-15.59,23.57-22.41-6.06-4.34-11.72-9.01-16.99-13.94-4.22,11.54-6.54,23.74-6.58,36.36"/>
      <path class="cls-1" d="M16.51,581.93c2.92-6.05,6.15-11.83,9.64-17.33-7.44,2.29-14.64,5.03-21.47,8.27,3.25,4.13,6.75,8.12,10.47,11.99.45-.98.9-1.96,1.36-2.93"/>
      <path class="cls-1" d="M660.23,558.92c-13.9-9.56-30.66-17.09-49.06-21.6-4.55-1.07-9.13-2.08-13.86-2.78-.17-.03-.37-.03-.54-.06-6.72,4.96-12.9,10.42-18.47,16.29,6.17-.9,12.46-1.48,18.89-1.71,22.45-.82,43.79,2.85,63.05,9.85"/>
      <path class="cls-1" d="M572.56,603.75c8.73-6.45,18.28-12.2,28.59-17.07,25.41-11.98,52-17.04,77.1-15.94-21.6-9.53-46.4-14.55-72.61-13.6-12.92.47-25.4,2.37-37.23,5.5-5.89,7.91-10.77,16.42-14.47,25.37,5.7,5.6,11.92,10.88,18.61,15.73"/>
      <path class="cls-1" d="M545.73,628.71c6.89-8.09,14.8-15.59,23.57-22.41-6.06-4.34-11.72-9.01-16.99-13.94-4.22,11.54-6.54,23.74-6.58,36.36"/>
      <path class="cls-1" d="M552.19,581.93c2.92-6.05,6.15-11.83,9.64-17.33-7.44,2.29-14.64,5.03-21.47,8.27,3.25,4.13,6.75,8.12,10.47,11.99.45-.98.9-1.96,1.36-2.93"/>
      <path class="cls-1" d="M1195.91,558.92c-13.9-9.56-30.66-17.09-49.06-21.6-4.55-1.07-9.13-2.08-13.86-2.78-.17-.03-.37-.03-.54-.06-6.72,4.96-12.9,10.42-18.47,16.29,6.17-.9,12.46-1.48,18.89-1.71,22.45-.82,43.79,2.85,63.05,9.85"/>
      <path class="cls-1" d="M1108.24,603.75c8.73-6.45,18.28-12.2,28.59-17.07,25.41-11.98,52-17.04,77.1-15.94-21.6-9.53-46.4-14.55-72.61-13.6-12.92.47-25.4,2.37-37.23,5.5-5.89,7.91-10.77,16.42-14.47,25.37,5.7,5.6,11.92,10.88,18.61,15.73"/>
      <path class="cls-1" d="M1081.41,628.71c6.89-8.09,14.8-15.59,23.57-22.41-6.06-4.34-11.72-9.01-16.99-13.94-4.22,11.54-6.54,23.74-6.58,36.36"/>
      <path class="cls-1" d="M1087.88,581.93c2.92-6.05,6.15-11.83,9.64-17.33-7.44,2.29-14.64,5.03-21.47,8.27,3.25,4.13,6.75,8.12,10.47,11.99.45-.98.9-1.96,1.36-2.93"/>
      <path class="cls-1" d="M124.54,1091.22c-13.9-9.56-30.66-17.09-49.06-21.6-4.55-1.07-9.13-2.08-13.86-2.78-.17-.03-.37-.03-.54-.06-6.72,4.96-12.9,10.42-18.47,16.29,6.17-.9,12.46-1.48,18.89-1.71,22.45-.82,43.79,2.85,63.05,9.85"/>
      <path class="cls-1" d="M36.88,1136.05c8.73-6.45,18.28-12.2,28.59-17.07,25.41-11.98,52-17.04,77.1-15.94-21.6-9.53-46.4-14.55-72.61-13.6-12.92.47-25.4,2.37-37.23,5.5-5.89,7.91-10.77,16.42-14.47,25.37,5.7,5.6,11.92,10.88,18.61,15.73"/>
      <path class="cls-1" d="M10.05,1161.01c6.89-8.09,14.8-15.59,23.57-22.41-6.06-4.34-11.72-9.01-16.99-13.94-4.22,11.54-6.54,23.74-6.58,36.36"/>
      <path class="cls-1" d="M16.51,1114.23c2.92-6.05,6.15-11.83,9.64-17.33-7.44,2.29-14.64,5.03-21.47,8.27,3.25,4.13,6.75,8.12,10.47,11.99.45-.98.9-1.96,1.36-2.93"/>
      <path class="cls-1" d="M232.82,1305.36c-11.78-8.11-26-14.5-41.6-18.31-3.86-.91-7.74-1.77-11.75-2.35-.14-.02-.32-.03-.46-.05-5.69,4.2-10.94,8.83-15.66,13.81,5.23-.76,10.56-1.25,16.01-1.44,19.03-.7,37.13,2.42,53.46,8.35"/>
      <path class="cls-1" d="M158.48,1343.37c7.4-5.47,15.5-10.34,24.25-14.47,21.54-10.15,44.09-14.44,65.37-13.51-18.32-8.08-39.34-12.33-61.57-11.53-10.95.41-21.54,2.02-31.56,4.66-5,6.71-9.13,13.92-12.26,21.51,4.83,4.74,10.1,9.22,15.78,13.34"/>
      <path class="cls-1" d="M135.74,1364.54c5.84-6.86,12.55-13.22,19.98-19-5.14-3.68-9.94-7.64-14.4-11.82-3.58,9.78-5.55,20.13-5.58,30.83"/>
      <path class="cls-1" d="M141.21,1324.87c2.48-5.13,5.22-10.03,8.17-14.7-6.31,1.94-12.41,4.27-18.21,7.02,2.75,3.5,5.72,6.89,8.88,10.16.38-.83.76-1.66,1.15-2.48"/>
      <path class="cls-1" d="M769.08,1305.36c-11.78-8.11-26-14.5-41.6-18.31-3.86-.91-7.74-1.77-11.75-2.35-.14-.02-.32-.03-.46-.05-5.69,4.2-10.94,8.83-15.66,13.81,5.23-.76,10.56-1.25,16.01-1.44,19.03-.7,37.13,2.42,53.46,8.35"/>
      <path class="cls-1" d="M694.75,1343.37c7.4-5.47,15.5-10.34,24.25-14.47,21.54-10.15,44.09-14.44,65.37-13.51-18.32-8.08-39.34-12.33-61.57-11.53-10.95.41-21.54,2.02-31.56,4.66-5,6.71-9.13,13.92-12.26,21.51,4.83,4.74,10.1,9.22,15.78,13.34"/>
      <path class="cls-1" d="M672,1364.54c5.84-6.86,12.55-13.22,19.98-19-5.14-3.68-9.94-7.64-14.4-11.82-3.58,9.78-5.55,20.13-5.58,30.83"/>
      <path class="cls-1" d="M677.48,1324.87c2.48-5.13,5.22-10.03,8.17-14.7-6.31,1.94-12.41,4.27-18.21,7.02,2.75,3.5,5.72,6.89,8.88,10.16.38-.83.76-1.66,1.15-2.48"/>
      <path class="cls-1" d="M1305.34,1305.36c-11.79-8.11-26-14.5-41.6-18.31-3.86-.91-7.74-1.77-11.75-2.35-.14-.02-.32-.03-.46-.05-5.69,4.2-10.94,8.83-15.66,13.81,5.23-.76,10.56-1.25,16.01-1.44,19.03-.7,37.13,2.42,53.46,8.35"/>
      <path class="cls-1" d="M1231.01,1343.37c7.4-5.47,15.5-10.34,24.25-14.47,21.54-10.15,44.09-14.44,65.37-13.51-18.32-8.08-39.34-12.33-61.57-11.53-10.95.41-21.54,2.02-31.56,4.66-5,6.71-9.13,13.92-12.26,21.51,4.83,4.74,10.1,9.22,15.78,13.34"/>
      <path class="cls-1" d="M1208.26,1364.54c5.84-6.86,12.55-13.22,19.98-19-5.14-3.68-9.94-7.64-14.4-11.82-3.58,9.78-5.55,20.13-5.58,30.83"/>
      <path class="cls-1" d="M1213.74,1324.87c2.48-5.13,5.22-10.03,8.17-14.7-6.31,1.94-12.41,4.27-18.21,7.02,2.75,3.5,5.72,6.89,8.88,10.16.38-.83.76-1.66,1.15-2.48"/>
      <path class="cls-1" d="M232.82,773.32c-11.78-8.11-26-14.5-41.6-18.31-3.86-.91-7.74-1.77-11.75-2.35-.14-.02-.32-.03-.46-.05-5.69,4.2-10.94,8.83-15.66,13.81,5.23-.76,10.56-1.25,16.01-1.44,19.03-.7,37.13,2.41,53.46,8.35"/>
      <path class="cls-1" d="M158.48,811.34c7.4-5.47,15.5-10.34,24.25-14.47,21.54-10.15,44.09-14.44,65.37-13.51-18.32-8.08-39.34-12.33-61.57-11.53-10.95.41-21.54,2.02-31.56,4.66-5,6.71-9.13,13.92-12.26,21.51,4.83,4.75,10.1,9.22,15.78,13.34"/>
      <path class="cls-1" d="M135.74,832.5c5.84-6.86,12.55-13.22,19.98-19-5.14-3.68-9.94-7.64-14.4-11.82-3.58,9.78-5.55,20.13-5.58,30.83"/>
      <path class="cls-1" d="M141.21,792.84c2.48-5.13,5.22-10.03,8.17-14.7-6.31,1.94-12.41,4.27-18.21,7.02,2.75,3.5,5.72,6.89,8.88,10.16.38-.83.76-1.66,1.15-2.48"/>
      <path class="cls-1" d="M769.08,773.32c-11.78-8.11-26-14.5-41.6-18.31-3.86-.91-7.74-1.77-11.75-2.35-.14-.02-.32-.03-.46-.05-5.69,4.2-10.94,8.83-15.66,13.81,5.23-.76,10.56-1.25,16.01-1.44,19.03-.7,37.13,2.41,53.46,8.35"/>
      <path class="cls-1" d="M694.75,811.34c7.4-5.47,15.5-10.34,24.25-14.47,21.54-10.15,44.09-14.44,65.37-13.51-18.32-8.08-39.34-12.33-61.57-11.53-10.95.41-21.54,2.02-31.56,4.66-5,6.71-9.13,13.92-12.26,21.51,4.83,4.75,10.1,9.22,15.78,13.34"/>
      <path class="cls-1" d="M672,832.5c5.84-6.86,12.55-13.22,19.98-19-5.14-3.68-9.94-7.64-14.4-11.82-3.58,9.78-5.55,20.13-5.58,30.83"/>
      <path class="cls-1" d="M677.48,792.84c2.48-5.13,5.22-10.03,8.17-14.7-6.31,1.94-12.41,4.27-18.21,7.02,2.75,3.5,5.72,6.89,8.88,10.16.38-.83.76-1.66,1.15-2.48"/>
      <path class="cls-1" d="M1305.34,773.32c-11.79-8.11-26-14.5-41.6-18.31-3.86-.91-7.74-1.77-11.75-2.35-.14-.02-.32-.03-.46-.05-5.69,4.2-10.94,8.83-15.66,13.81,5.23-.76,10.56-1.25,16.01-1.44,19.03-.7,37.13,2.41,53.46,8.35"/>
      <path class="cls-1" d="M1231.01,811.34c7.4-5.47,15.5-10.34,24.25-14.47,21.54-10.15,44.09-14.44,65.37-13.51-18.32-8.08-39.34-12.33-61.57-11.53-10.95.41-21.54,2.02-31.56,4.66-5,6.71-9.13,13.92-12.26,21.51,4.83,4.75,10.1,9.22,15.78,13.34"/>
      <path class="cls-1" d="M1208.26,832.5c5.84-6.86,12.55-13.22,19.98-19-5.14-3.68-9.94-7.64-14.4-11.82-3.58,9.78-5.55,20.13-5.58,30.83"/>
      <path class="cls-1" d="M1213.74,792.84c2.48-5.13,5.22-10.03,8.17-14.7-6.31,1.94-12.41,4.27-18.21,7.02,2.75,3.5,5.72,6.89,8.88,10.16.38-.83.76-1.66,1.15-2.48"/>
      <path class="cls-1" d="M232.82,238.89c-11.78-8.11-26-14.5-41.6-18.31-3.86-.91-7.74-1.77-11.75-2.35-.14-.02-.32-.03-.46-.05-5.69,4.2-10.94,8.83-15.66,13.81,5.23-.76,10.56-1.25,16.01-1.44,19.03-.7,37.13,2.41,53.46,8.35"/>
      <path class="cls-1" d="M158.48,276.9c7.4-5.47,15.5-10.34,24.25-14.47,21.54-10.15,44.09-14.44,65.37-13.51-18.32-8.08-39.34-12.33-61.57-11.53-10.95.41-21.54,2.02-31.56,4.66-5,6.71-9.13,13.92-12.26,21.51,4.83,4.74,10.1,9.22,15.78,13.34"/>
      <path class="cls-1" d="M135.74,298.07c5.84-6.86,12.55-13.22,19.98-19.01-5.14-3.68-9.94-7.64-14.4-11.82-3.58,9.78-5.55,20.13-5.58,30.83"/>
      <path class="cls-1" d="M141.21,258.4c2.48-5.13,5.22-10.03,8.17-14.7-6.31,1.94-12.41,4.27-18.21,7.02,2.75,3.5,5.72,6.89,8.88,10.16.38-.83.76-1.66,1.15-2.48"/>
      <path class="cls-1" d="M769.08,238.89c-11.78-8.11-26-14.5-41.6-18.31-3.86-.91-7.74-1.77-11.75-2.35-.14-.02-.32-.03-.46-.05-5.69,4.2-10.94,8.83-15.66,13.81,5.23-.76,10.56-1.25,16.01-1.44,19.03-.7,37.13,2.41,53.46,8.35"/>
      <path class="cls-1" d="M694.75,276.9c7.4-5.47,15.5-10.34,24.25-14.47,21.54-10.15,44.09-14.44,65.37-13.51-18.32-8.08-39.34-12.33-61.57-11.53-10.95.41-21.54,2.02-31.56,4.66-5,6.71-9.13,13.92-12.26,21.51,4.83,4.74,10.1,9.22,15.78,13.34"/>
      <path class="cls-1" d="M672,298.07c5.84-6.86,12.55-13.22,19.98-19.01-5.14-3.68-9.94-7.64-14.4-11.82-3.58,9.78-5.55,20.13-5.58,30.83"/>
      <path class="cls-1" d="M677.48,258.4c2.48-5.13,5.22-10.03,8.17-14.7-6.31,1.94-12.41,4.27-18.21,7.02,2.75,3.5,5.72,6.89,8.88,10.16.38-.83.76-1.66,1.15-2.48"/>
      <path class="cls-1" d="M1305.34,238.89c-11.79-8.11-26-14.5-41.6-18.31-3.86-.91-7.74-1.77-11.75-2.35-.14-.02-.32-.03-.46-.05-5.69,4.2-10.94,8.83-15.66,13.81,5.23-.76,10.56-1.25,16.01-1.44,19.03-.7,37.13,2.41,53.46,8.35"/>
      <path class="cls-1" d="M1231.01,276.9c7.4-5.47,15.5-10.34,24.25-14.47,21.54-10.15,44.09-14.44,65.37-13.51-18.32-8.08-39.34-12.33-61.57-11.53-10.95.41-21.54,2.02-31.56,4.66-5,6.71-9.13,13.92-12.26,21.51,4.83,4.74,10.1,9.22,15.78,13.34"/>
      <path class="cls-1" d="M1208.26,298.07c5.84-6.86,12.55-13.22,19.98-19.01-5.14-3.68-9.94-7.64-14.4-11.82-3.58,9.78-5.55,20.13-5.58,30.83"/>
      <path class="cls-1" d="M1213.74,258.4c2.48-5.13,5.22-10.03,8.17-14.7-6.31,1.94-12.41,4.27-18.21,7.02,2.75,3.5,5.72,6.89,8.88,10.16.38-.83.76-1.66,1.15-2.48"/>
      <path class="cls-1" d="M660.23,1091.22c-13.9-9.56-30.66-17.09-49.06-21.6-4.55-1.07-9.13-2.08-13.86-2.78-.17-.03-.37-.03-.54-.06-6.72,4.96-12.9,10.42-18.47,16.29,6.17-.9,12.46-1.48,18.89-1.71,22.45-.82,43.79,2.85,63.05,9.85"/>
      <path class="cls-1" d="M572.56,1136.05c8.73-6.45,18.28-12.2,28.59-17.07,25.41-11.98,52-17.04,77.1-15.94-21.6-9.53-46.4-14.55-72.61-13.6-12.92.47-25.4,2.37-37.23,5.5-5.89,7.91-10.77,16.42-14.47,25.37,5.7,5.6,11.92,10.88,18.61,15.73"/>
      <path class="cls-1" d="M545.73,1161.01c6.89-8.09,14.8-15.59,23.57-22.41-6.06-4.34-11.72-9.01-16.99-13.94-4.22,11.54-6.54,23.74-6.58,36.36"/>
      <path class="cls-1" d="M552.19,1114.23c2.92-6.05,6.15-11.83,9.64-17.33-7.44,2.29-14.64,5.03-21.47,8.27,3.25,4.13,6.75,8.12,10.47,11.99.45-.98.9-1.96,1.36-2.93"/>
      <path class="cls-1" d="M1195.91,1091.22c-13.9-9.56-30.66-17.09-49.06-21.6-4.55-1.07-9.13-2.08-13.86-2.78-.17-.03-.37-.03-.54-.06-6.72,4.96-12.9,10.42-18.47,16.29,6.17-.9,12.46-1.48,18.89-1.71,22.45-.82,43.79,2.85,63.05,9.85"/>
      <path class="cls-1" d="M1108.24,1136.05c8.73-6.45,18.28-12.2,28.59-17.07,25.41-11.98,52-17.04,77.1-15.94-21.6-9.53-46.4-14.55-72.61-13.6-12.92.47-25.4,2.37-37.23,5.5-5.89,7.91-10.77,16.42-14.47,25.37,5.7,5.6,11.92,10.88,18.61,15.73"/>
      <path class="cls-1" d="M1081.41,1161.01c6.89-8.09,14.8-15.59,23.57-22.41-6.06-4.34-11.72-9.01-16.99-13.94-4.22,11.54-6.54,23.74-6.58,36.36"/>
      <path class="cls-1" d="M1087.88,1114.23c2.92-6.05,6.15-11.83,9.64-17.33-7.44,2.29-14.64,5.03-21.47,8.27,3.25,4.13,6.75,8.12,10.47,11.99.45-.98.9-1.96,1.36-2.93"/>
      <path class="cls-1" d="M478.75,1536.01c-15.99-11-35.29-19.67-56.46-24.86-5.24-1.23-10.5-2.39-15.94-3.19-.2-.03-.43-.04-.63-.07-7.73,5.7-14.85,11.99-21.25,18.75,7.1-1.04,14.34-1.7,21.73-1.96,25.83-.95,50.39,3.28,72.55,11.34"/>
      <path class="cls-1" d="M377.88,1587.6c10.04-7.42,21.04-14.04,32.9-19.64,29.23-13.78,59.84-19.61,88.71-18.34-24.86-10.96-53.39-16.74-83.56-15.65-14.87.55-29.23,2.74-42.83,6.32-6.78,9.1-12.39,18.89-16.64,29.2,6.56,6.45,13.71,12.52,21.41,18.11"/>
      <path class="cls-1" d="M347.01,1616.32c7.93-9.31,17.04-17.94,27.12-25.79-6.97-4.99-13.49-10.37-19.55-16.05-4.86,13.27-7.53,27.32-7.57,41.83"/>
      <path class="cls-1" d="M354.44,1562.49c3.36-6.96,7.08-13.61,11.09-19.95-8.57,2.64-16.85,5.79-24.71,9.52,3.74,4.75,7.77,9.34,12.05,13.79.51-1.13,1.03-2.25,1.56-3.36"/>
      <path class="cls-1" d="M1014.44,1536.01c-16-11-35.29-19.67-56.46-24.86-5.24-1.23-10.5-2.39-15.94-3.19-.2-.03-.43-.04-.63-.07-7.73,5.7-14.85,11.99-21.25,18.75,7.1-1.04,14.34-1.7,21.73-1.96,25.83-.95,50.39,3.28,72.55,11.34"/>
      <path class="cls-1" d="M913.56,1587.6c10.04-7.42,21.04-14.04,32.9-19.64,29.24-13.78,59.84-19.61,88.72-18.34-24.86-10.96-53.39-16.74-83.56-15.65-14.87.55-29.23,2.74-42.83,6.32-6.78,9.1-12.39,18.89-16.65,29.2,6.56,6.45,13.72,12.52,21.42,18.11"/>
      <path class="cls-1" d="M882.69,1616.32c7.93-9.31,17.04-17.94,27.12-25.79-6.97-4.99-13.49-10.37-19.55-16.05-4.86,13.27-7.53,27.32-7.57,41.83"/>
      <path class="cls-1" d="M890.13,1562.49c3.36-6.96,7.08-13.61,11.09-19.95-8.57,2.64-16.85,5.79-24.71,9.52,3.74,4.75,7.77,9.34,12.05,13.79.51-1.13,1.03-2.25,1.56-3.36"/>
      <path class="cls-1" d="M1550.12,1536.01c-15.99-11-35.29-19.67-56.46-24.86-5.24-1.23-10.5-2.39-15.94-3.19-.2-.03-.43-.04-.63-.07-7.73,5.7-14.85,11.99-21.25,18.75,7.1-1.04,14.34-1.7,21.73-1.96,25.83-.95,50.39,3.28,72.55,11.34"/>
      <path class="cls-1" d="M1449.24,1587.6c10.04-7.42,21.04-14.04,32.9-19.64,29.23-13.78,59.84-19.61,88.72-18.34-24.86-10.96-53.39-16.74-83.56-15.65-14.87.55-29.23,2.74-42.83,6.32-6.78,9.1-12.39,18.89-16.65,29.2,6.56,6.45,13.72,12.52,21.42,18.11"/>
      <path class="cls-1" d="M1418.37,1616.32c7.93-9.31,17.04-17.94,27.12-25.79-6.97-4.99-13.49-10.37-19.55-16.05-4.86,13.27-7.53,27.32-7.57,41.83"/>
      <path class="cls-1" d="M1425.81,1562.49c3.36-6.96,7.08-13.61,11.09-19.95-8.57,2.64-16.85,5.79-24.71,9.52,3.74,4.75,7.77,9.34,12.05,13.79.51-1.13,1.03-2.25,1.56-3.36"/>
    </g>
  </g>
</svg>