<?xml version="1.0" encoding="UTF-8"?><svg id="Camada_2" xmlns="http://www.w3.org/2000/svg" viewBox="0 0 1199.08 36.5"><defs><style>.cls-1,.cls-2{fill:none;stroke:#004b8d;stroke-miterlimit:10;}.cls-2{stroke-width:2px;}</style></defs><g id="Camada_1-2"><path class="cls-1" d="M23.09,19.7c9.32-4.4,19.08-6.26,28.29-5.85-7.93-3.5-17.02-5.34-26.64-5-4.74.17-9.32.87-13.66,2.02-2.16,2.91-3.95,6.03-5.31,9.32,2.09,2.06,4.37,3.99,6.83,5.78,3.2-2.37,6.71-4.48,10.49-6.27"/><path class="cls-1" d="M6.46,20.86c-.07-.06-.13-.13-.2-.19M12.6,25.97c-.3-.22-.6-.44-.9-.67h-.01s0-.01,0-.01c-1.85-1.4-3.59-2.88-5.22-4.43-.07-.06-.13-.13-.2-.19h0s-.1-.1-.1-.1l-.1-.1-.1-.1-.1-.1-.1-.1c1.36-3.29,3.15-6.41,5.31-9.32-3.61.95-7.05,2.22-10.29,3.76,1.52,1.93,3.18,3.8,4.98,5.57-1.94,4.7-3,9.73-3.01,14.94,2.85-3.34,6.14-6.42,9.85-9.17"/><path class="cls-1" d="M26.76,1.57c-1.67-.39-3.35-.77-5.08-1.02-.06,0-.14-.01-.2-.02-2.46,1.82-4.73,3.83-6.78,5.99,2.26-.33,4.57-.54,6.93-.63,8.23-.3,16.06,1.05,23.13,3.62-5.1-3.51-11.25-6.28-18-7.93"/><path class="cls-1" d="M102.92,19.7c9.32-4.4,19.08-6.26,28.29-5.85-7.93-3.5-17.02-5.34-26.64-5-4.74.17-9.32.87-13.66,2.02-2.16,2.91-3.95,6.03-5.31,9.32,2.09,2.06,4.37,3.99,6.83,5.78,3.2-2.37,6.71-4.48,10.49-6.27"/><path class="cls-1" d="M86.29,20.86c-.07-.06-.13-.13-.2-.19M92.43,25.97c-.3-.22-.6-.44-.9-.67h-.01s0-.01,0-.01c-1.85-1.4-3.59-2.88-5.22-4.43-.07-.06-.13-.13-.2-.19h0s-.1-.1-.1-.1l-.1-.1-.1-.1-.1-.1-.1-.1c1.36-3.29,3.15-6.41,5.31-9.32-3.61.95-7.05,2.22-10.29,3.76,1.52,1.93,3.18,3.8,4.98,5.57-1.94,4.7-3,9.73-3.01,14.94,2.85-3.34,6.14-6.42,9.85-9.17"/><path class="cls-1" d="M106.59,1.57c-1.67-.39-3.35-.77-5.08-1.02-.06,0-.14-.01-.2-.02-2.46,1.82-4.73,3.83-6.78,5.99,2.26-.33,4.57-.54,6.93-.63,8.23-.3,16.06,1.05,23.13,3.62-5.1-3.51-11.25-6.28-18-7.93"/><path class="cls-1" d="M182.76,19.7c9.32-4.4,19.08-6.26,28.29-5.85-7.93-3.5-17.02-5.34-26.64-5-4.74.17-9.32.87-13.66,2.02-2.16,2.91-3.95,6.03-5.31,9.32,2.09,2.06,4.37,3.99,6.83,5.78,3.2-2.37,6.71-4.48,10.49-6.27"/><path class="cls-1" d="M166.13,20.86c-.07-.06-.13-.13-.2-.19M172.27,25.97c-.3-.22-.6-.44-.9-.67h-.01s0-.01,0-.01c-1.85-1.4-3.59-2.88-5.22-4.43-.07-.06-.13-.13-.2-.19h0s-.1-.1-.1-.1l-.1-.1-.1-.1-.1-.1-.1-.1c1.36-3.29,3.15-6.41,5.31-9.32-3.61.95-7.05,2.22-10.29,3.76,1.52,1.93,3.18,3.8,4.98,5.57-1.94,4.7-3,9.73-3.01,14.94,2.85-3.34,6.14-6.42,9.85-9.17"/><path class="cls-1" d="M186.43,1.57c-1.67-.39-3.35-.77-5.08-1.02-.06,0-.14-.01-.2-.02-2.46,1.82-4.73,3.83-6.78,5.99,2.26-.33,4.57-.54,6.93-.63,8.23-.3,16.06,1.05,23.13,3.62-5.1-3.51-11.25-6.28-18-7.93"/><line class="cls-2" x1="224.98" y1="17.83" x2="1199.08" y2="17.83"/></g></svg>