<?xml version="1.0" encoding="UTF-8"?><svg id="Layer_2" xmlns="http://www.w3.org/2000/svg" viewBox="0 0 127.32 92.9"><defs><style>.cls-1{fill:#fff;}.cls-2{fill:#f7941d;}</style></defs><g id="Camada_1"><path class="cls-1" d="M102.46,91.9c-.28,0-.53-.11-.73-.3l-27.63-27.63-.5.08c-.76.12-1.54.18-2.31.18-2.86,0-5.63-.83-8-2.39l-5.36-3.53-.51.25c-.89.44-1.62.95-2.24,1.57l-31.36,31.36c-.19.19-.45.3-.73.3s-.53-.11-.73-.3-.3-.45-.3-.73.11-.53.3-.73l31.25-31.26-15.9-15.9-23.52,23.52c-.19.19-.45.3-.73.3s-.53-.11-.73-.3-.3-.45-.3-.73.11-.53.3-.73l23.52-23.52-3.58-3.58c-2.3-2.3-2.3-6.04,0-8.33.64-.64,1.43-1.11,2.36-1.41l1.17-.37-.6-1.07c-.51-.92-.77-1.88-.77-2.86,0-1.57.61-3.05,1.73-4.17s2.58-1.72,4.16-1.72h1s0-1,0-1c0-1.57.62-3.05,1.73-4.16,1.11-1.11,2.58-1.72,4.16-1.72h1s0-1,0-1c0-1.57.61-3.05,1.73-4.16,1.11-1.11,2.59-1.73,4.17-1.73s3.05.61,4.17,1.73l4.66,4.66,7.82-7.82c1.11-1.11,2.59-1.73,4.17-1.73s3.05.61,4.17,1.73c1.11,1.11,1.72,2.59,1.73,4.16v1s1,0,1,0c1.57,0,3.05.61,4.16,1.72s1.72,2.58,1.72,4.16v1s1,0,1,0c1.57,0,3.05.62,4.16,1.73,1.11,1.11,1.72,2.58,1.72,4.16v1s1,0,1,0c1.57,0,3.05.61,4.16,1.72,2.3,2.3,2.3,6.04,0,8.33l-4.1,4.1.33.65c1.49,2.95,2.28,6.25,2.28,9.54v.41s15.32,15.32,15.32,15.32c.4.4.4,1.05,0,1.46-.19.19-.45.3-.73.3s-.53-.11-.73-.3l-15.04-15.04-18.14,18.14,23.88,23.88c.4.4.4,1.05,0,1.46-.19.19-.45.3-.73.3ZM74.42,61.8c.27,0,.53.11.72.3l2.71,2.71,18.71-18.71v-.42c-.05-2.42-.54-4.78-1.47-7.01l-.57-1.38-11.18,11.18c-5.32,5.32-12.09,8.46-19.59,9.09l-2.88.24,3.54,2.33c2.04,1.34,4.41,2.05,6.86,2.05.98,0,1.95-.12,2.9-.34.08-.02.16-.03.24-.03ZM75.31,3.08c-1.03,0-2.02.4-2.71,1.1l-7.82,7.82,1.19,1.19c1.11,1.11,1.73,2.59,1.73,4.17s-.61,3.05-1.73,4.17c-1.11,1.11-2.59,1.72-4.16,1.72h-1s0,1,0,1c0,1.57-.62,3.05-1.73,4.16s-2.58,1.72-4.16,1.72h-1s0,1,0,1c0,1.57-.62,3.05-1.73,4.16s-2.59,1.72-4.16,1.72h-1s0,1,0,1c0,1.57-.62,3.05-1.72,4.16-.58.58-1.29,1.03-2.09,1.33l-1.45.55,13.41,13.4.67-.39c1.59-.93,3.41-1.42,5.24-1.42,7.86,0,15.25-3.06,20.8-8.62l16.77-16.77c.72-.72,1.12-1.69,1.12-2.71s-.4-1.99-1.12-2.71-1.69-1.12-2.71-1.12-1.99.4-2.71,1.12l-6.81,6.81c-.19.19-.45.3-.73.3s-.53-.11-.73-.3c-.4-.4-.4-1.05,0-1.46l6.81-6.81c1.5-1.5,1.5-3.93,0-5.42-.7-.7-1.69-1.1-2.71-1.1s-2.01.4-2.71,1.1l-6.81,6.81c-.19.19-.45.3-.73.3s-.53-.11-.73-.3c-.4-.4-.4-1.05,0-1.46l6.81-6.81c1.5-1.5,1.5-3.93,0-5.43-.72-.72-1.69-1.12-2.71-1.12s-1.99.4-2.71,1.12l-4.46,4.46c-.19.19-.45.3-.73.3s-.53-.11-.73-.3-.3-.45-.3-.73.11-.53.3-.73l4.46-4.46c.72-.72,1.12-1.69,1.12-2.71s-.4-1.99-1.12-2.71c-.7-.7-1.68-1.1-2.71-1.1ZM36.85,29.85c-1.03,0-1.99.4-2.71,1.12-.72.72-1.12,1.69-1.12,2.71s.4,1.99,1.12,2.71l4.31,4.31c.7.7,1.69,1.1,2.71,1.1s2.02-.4,2.71-1.1c.72-.72,1.12-1.69,1.12-2.71s-.4-1.99-1.12-2.71l-4.3-4.3c-.72-.72-1.69-1.12-2.71-1.12ZM40.73,19.97c-1.02,0-1.99.4-2.71,1.12s-1.12,1.69-1.12,2.71.4,1.99,1.12,2.71l7.3,7.3c.7.7,1.69,1.1,2.71,1.1s2.02-.4,2.71-1.1c.72-.72,1.12-1.69,1.12-2.71s-.4-1.99-1.12-2.71l-7.3-7.3c-.72-.73-1.69-1.12-2.71-1.12ZM47.61,13.09c-1.03,0-1.99.4-2.71,1.12-.72.72-1.12,1.69-1.12,2.71s.4,1.99,1.12,2.71l7.3,7.3c.72.72,1.69,1.12,2.71,1.12s1.99-.4,2.71-1.12c.72-.72,1.12-1.69,1.12-2.71s-.4-1.99-1.12-2.71l-7.31-7.31c-.72-.72-1.69-1.12-2.71-1.12ZM54.49,6.21c-1.02,0-1.99.4-2.71,1.12-.73.72-1.12,1.69-1.12,2.71s.4,1.99,1.12,2.71l7.3,7.3c.7.7,1.69,1.1,2.71,1.1s2.02-.4,2.71-1.1c.72-.72,1.12-1.69,1.12-2.71s-.4-1.99-1.12-2.71l-7.3-7.3c-.72-.72-1.69-1.12-2.71-1.12Z"/><path class="cls-2" d="M122.54,33.84l1.2,3.36c.05.14.15.26.28.32l2.99,1.35c.42.19.42.86,0,1.05l-2.99,1.35c-.13.06-.23.17-.28.32l-1.2,3.36c-.17.47-.77.47-.94,0l-1.2-3.36c-.05-.14-.15-.26-.28-.32l-2.99-1.35c-.42-.19-.42-.86,0-1.05l2.99-1.35c.13-.06.23-.17.28-.32l1.2-3.36c.17-.47.77-.47.94,0Z"/><path class="cls-2" d="M5.05,39.66l1.06,2.97c.05.13.13.23.25.28l2.64,1.19c.37.17.37.76,0,.93l-2.64,1.19c-.11.05-.2.15-.25.28l-1.06,2.97c-.15.42-.68.42-.83,0l-1.06-2.97c-.05-.13-.13-.23-.25-.28l-2.64-1.19c-.37-.17-.37-.76,0-.93l2.64-1.19c.11-.05.2-.15.25-.28l1.06-2.97c.15-.42.68-.42.83,0Z"/><circle class="cls-2" cx="6.92" cy="85.92" r="5.02"/><circle class="cls-2" cx="118.77" cy="89.36" r="2.89"/></g></svg>