<?xml version="1.0" encoding="UTF-8"?><svg id="Layer_2" xmlns="http://www.w3.org/2000/svg" viewBox="0 0 149.3 142.88"><defs><style>.cls-1{fill:#fff;}.cls-1,.cls-2{fill-rule:evenodd;}.cls-2{fill:#f49323;}</style></defs><g id="Camada_1"><path id="_329934272" class="cls-1" d="M75.45,116.55c-8.56,0-16.51-6.2-22.41-17.46-5.73-10.93-8.88-25.42-8.88-40.82s3.15-29.89,8.88-40.82C58.94,6.2,66.9,0,75.45,0s16.51,6.2,22.41,17.46c5.73,10.93,8.88,25.42,8.88,40.82s-3.15,29.89-8.88,40.82c-5.9,11.26-13.86,17.46-22.41,17.46ZM75.45,3.21c-7.3,0-14.25,5.59-19.57,15.74-5.49,10.48-8.51,24.44-8.51,39.33s3.02,28.85,8.51,39.33c5.32,10.15,12.26,15.74,19.57,15.74s14.25-5.59,19.57-15.74c5.49-10.48,8.51-24.44,8.51-39.33s-3.02-28.85-8.51-39.33c-5.32-10.15-12.27-15.74-19.57-15.74h0Z"/><path id="_329934176" class="cls-1" d="M75.45,38.29c-16.08,0-31.05-6.41-42.15-18.04-.61-.64-.59-1.66.05-2.27.64-.61,1.66-.59,2.27.05,10.49,10.99,24.64,17.04,39.83,17.04s29.34-6.05,39.83-17.05c.61-.64,1.63-.66,2.27-.05.64.61.66,1.63.05,2.27-11.11,11.63-26.08,18.04-42.15,18.04h0Z"/><path id="_329934080" class="cls-1" d="M116.44,99.01c-.42,0-.85-.17-1.16-.5-10.49-10.99-24.64-17.05-39.83-17.05s-29.2,6-39.68,16.89c-.62.64-1.63.66-2.27.04-.64-.61-.66-1.63-.04-2.27,11.09-11.53,26-17.88,41.99-17.88s31.05,6.41,42.15,18.04c.61.64.59,1.66-.05,2.27-.31.3-.71.44-1.11.44h0Z"/><path id="_329933984" class="cls-1" d="M132.12,59.88H18.78c-.89,0-1.61-.72-1.61-1.61s.72-1.6,1.61-1.6h113.34c.89,0,1.61.72,1.61,1.6s-.72,1.61-1.61,1.61Z"/><path id="_211925448" class="cls-1" d="M75.45,116.55c-.89,0-1.61-.72-1.61-1.61V1.61C73.85.72,74.57,0,75.45,0s1.61.72,1.61,1.61v113.34c0,.89-.72,1.61-1.61,1.61Z"/><path id="_329507584" class="cls-1" d="M75.45,116.55c-32.13,0-58.28-26.14-58.28-58.28S43.32,0,75.45,0s58.28,26.14,58.28,58.27-26.14,58.28-58.28,58.28ZM75.45,3.21c-30.36,0-55.06,24.7-55.06,55.06s24.7,55.07,55.06,55.07,55.06-24.7,55.06-55.07S105.82,3.21,75.45,3.21h0Z"/><path id="_330402120" class="cls-1" d="M113.98,130.03H36.92c-.89,0-1.6-.72-1.6-1.61v-12.84c0-.89.72-1.61,1.6-1.61h77.06c.89,0,1.61.72,1.61,1.61v12.84c0,.89-.72,1.61-1.61,1.61ZM38.53,126.82h73.85v-9.63H38.53v9.63Z"/><path id="_328495344" class="cls-1" d="M136.46,142.88H14.45c-4.43,0-8.03-3.6-8.03-8.03s3.6-8.03,8.03-8.03h122.01c4.43,0,8.03,3.6,8.03,8.03s-3.6,8.03-8.03,8.03h0ZM14.45,130.03c-2.66,0-4.82,2.16-4.82,4.82s2.16,4.82,4.82,4.82h122.01c2.66,0,4.82-2.16,4.82-4.82s-2.16-4.82-4.82-4.82H14.45Z"/><path id="_330339416" class="cls-2" d="M139.67,107.56c-5.31,0-9.63-4.32-9.63-9.63s4.32-9.63,9.63-9.63,9.63,4.32,9.63,9.63-4.32,9.63-9.63,9.63ZM139.67,91.51c-3.54,0-6.42,2.88-6.42,6.42s2.88,6.42,6.42,6.42,6.42-2.88,6.42-6.42-2.88-6.42-6.42-6.42Z"/><path id="_210177496" class="cls-2" d="M12.84,120.4c-7.08,0-12.84-5.76-12.84-12.84s5.76-12.85,12.84-12.85,12.84,5.76,12.84,12.85-5.76,12.84-12.84,12.84ZM12.84,97.93c-5.31,0-9.63,4.32-9.63,9.63s4.32,9.63,9.63,9.63,9.63-4.32,9.63-9.63-4.32-9.63-9.63-9.63Z"/><path id="_329016568" class="cls-2" d="M20.87,16.05c-4.43,0-8.03-3.6-8.03-8.03S16.45,0,20.87,0s8.03,3.6,8.03,8.03-3.6,8.03-8.03,8.03ZM20.87,3.21c-2.66,0-4.82,2.16-4.82,4.82s2.16,4.82,4.82,4.82,4.82-2.16,4.82-4.82-2.16-4.82-4.82-4.82Z"/></g></svg>