<?xml version="1.0" encoding="UTF-8"?><svg id="Layer_2" xmlns="http://www.w3.org/2000/svg" viewBox="0 0 581.85 74.44"><defs><style>.cls-1{fill:#fff;}.cls-2{fill:#f7941d;}.cls-3{fill:#004a8d;}.cls-4{fill:#00354f;}</style></defs><g id="Camada_1"><rect class="cls-3" x="0" y="0" width="581.85" height="74.44" rx="37.22" ry="37.22"/><circle class="cls-4" cx="38.56" cy="39.19" r="29.07"/><circle class="cls-2" cx="37.22" cy="37.52" r="29.07"/><path class="cls-1" d="M98.98,37.29c0,2.36-.51,4.5-1.54,6.42-1.03,1.92-2.4,3.41-4.11,4.47-1.19.73-2.51,1.26-3.97,1.59-1.46.33-3.38.49-5.77.49h-6.56v-25.99h6.49c2.54,0,4.55.18,6.05.55,1.49.37,2.76.87,3.8,1.51,1.77,1.11,3.15,2.58,4.14,4.42.99,1.84,1.48,4.02,1.48,6.54ZM95.36,37.24c0-2.04-.36-3.75-1.06-5.15-.71-1.4-1.77-2.5-3.18-3.3-1.02-.58-2.11-.99-3.26-1.21-1.15-.23-2.53-.34-4.14-.34h-3.25v20.05h3.25c1.66,0,3.12-.12,4.35-.37s2.38-.7,3.41-1.36c1.29-.83,2.26-1.91,2.91-3.26s.97-3.04.97-5.06Z"/><path class="cls-1" d="M120.62,40.85h-14.36c0,1.2.18,2.24.54,3.13.36.89.85,1.62,1.48,2.19.6.56,1.32.98,2.16,1.26.83.28,1.75.42,2.75.42,1.33,0,2.66-.26,4.01-.79s2.3-1.05,2.87-1.56h.17v3.58c-1.11.46-2.23.85-3.39,1.17-1.15.31-2.36.47-3.63.47-3.23,0-5.76-.88-7.57-2.63-1.81-1.75-2.72-4.24-2.72-7.46s.87-5.72,2.61-7.59,4.03-2.81,6.87-2.81c2.63,0,4.66.77,6.08,2.3,1.42,1.54,2.14,3.72,2.14,6.54v1.78ZM117.42,38.34c-.01-1.72-.45-3.05-1.3-4-.85-.94-2.16-1.41-3.9-1.41s-3.16.52-4.2,1.55c-1.04,1.04-1.63,2.32-1.77,3.86h11.17Z"/><path class="cls-1" d="M139.52,44.64c0,1.78-.74,3.24-2.21,4.38-1.47,1.14-3.48,1.71-6.03,1.71-1.44,0-2.77-.17-3.97-.52-1.21-.34-2.21-.72-3.03-1.12v-3.68h.17c1.04.78,2.19,1.4,3.46,1.86,1.27.46,2.48.69,3.65.69,1.44,0,2.57-.23,3.39-.7.81-.46,1.22-1.2,1.22-2.2,0-.77-.22-1.35-.66-1.75-.44-.4-1.29-.73-2.55-1.01-.47-.1-1.07-.23-1.82-.37-.75-.14-1.43-.29-2.05-.45-1.71-.45-2.92-1.12-3.64-2-.71-.88-1.07-1.96-1.07-3.24,0-.8.17-1.56.5-2.27.33-.71.83-1.34,1.51-1.9.65-.55,1.48-.98,2.49-1.3,1.01-.32,2.13-.48,3.38-.48,1.16,0,2.34.14,3.53.43,1.19.29,2.18.63,2.98,1.04v3.51h-.17c-.84-.62-1.86-1.14-3.05-1.56-1.2-.42-2.37-.64-3.53-.64s-2.21.23-3.04.69c-.83.46-1.24,1.14-1.24,2.05,0,.8.25,1.41.75,1.82.49.41,1.28.74,2.37.99.61.14,1.28.28,2.03.42.75.14,1.38.27,1.88.38,1.52.35,2.7.95,3.53,1.8.83.86,1.24,2,1.24,3.42Z"/><path class="cls-1" d="M161.36,40.36c0,1.63-.23,3.1-.69,4.4-.46,1.3-1.08,2.4-1.86,3.28-.83.92-1.73,1.61-2.72,2.07-.99.46-2.08.69-3.26.69-1.11,0-2.07-.13-2.9-.39s-1.64-.61-2.44-1.06l-.21.91h-3.07v-27.15h3.28v9.7c.92-.76,1.9-1.38,2.93-1.86,1.04-.48,2.2-.72,3.49-.72,2.3,0,4.12.88,5.45,2.65s2,4.26,2,7.49ZM157.98,40.45c0-2.33-.38-4.09-1.15-5.3s-2.01-1.81-3.72-1.81c-.95,0-1.92.21-2.9.62s-1.88.95-2.72,1.6v11.17c.93.42,1.73.71,2.4.87.67.16,1.43.24,2.28.24,1.81,0,3.24-.6,4.27-1.79,1.03-1.19,1.54-3.06,1.54-5.61Z"/><path class="cls-1" d="M169.79,50.26h-3.28v-27.15h3.28v27.15Z"/><path class="cls-1" d="M192.9,40.52c0,3.18-.81,5.68-2.44,7.52-1.63,1.84-3.81,2.76-6.54,2.76s-4.95-.92-6.57-2.76c-1.62-1.84-2.43-4.34-2.43-7.52s.81-5.69,2.43-7.53c1.62-1.84,3.81-2.77,6.57-2.77s4.92.92,6.54,2.77c1.63,1.84,2.44,4.35,2.44,7.53ZM189.52,40.52c0-2.52-.5-4.4-1.48-5.63-.99-1.23-2.36-1.84-4.12-1.84s-3.16.61-4.14,1.84-1.47,3.1-1.47,5.63.49,4.3,1.48,5.56c.99,1.26,2.37,1.89,4.14,1.89s3.12-.62,4.11-1.88c.99-1.25,1.49-3.11,1.49-5.58Z"/><path class="cls-1" d="M213.79,57.45h-3.28v-9.39c-1.01.87-2.02,1.52-3.02,1.95-1,.42-2.08.64-3.25.64-2.32,0-4.16-.89-5.54-2.68s-2.07-4.25-2.07-7.39c0-1.68.24-3.16.72-4.44.48-1.29,1.12-2.37,1.91-3.24.77-.85,1.67-1.51,2.71-1.97,1.04-.47,2.13-.7,3.28-.7,1.05,0,1.97.12,2.78.35.81.23,1.63.58,2.47,1.03l.21-.84h3.07v26.68ZM210.51,45.3v-11.03c-.91-.41-1.71-.69-2.41-.86s-1.45-.24-2.27-.24c-1.9,0-3.34.64-4.33,1.93-.99,1.29-1.48,3.06-1.48,5.31s.4,4.03,1.2,5.26,2.05,1.84,3.76,1.84c.95,0,1.91-.21,2.86-.62s1.84-.95,2.67-1.6Z"/><path class="cls-1" d="M236.41,50.26h-3.28v-2.16c-1.11.87-2.16,1.54-3.18,2.01-1.01.47-2.13.7-3.35.7-2.05,0-3.64-.62-4.78-1.88-1.14-1.25-1.71-3.09-1.71-5.51v-12.65h3.28v11.1c0,.99.05,1.84.14,2.54.09.7.29,1.31.59,1.81.31.51.72.88,1.22,1.12.5.23,1.23.35,2.18.35.85,0,1.78-.22,2.78-.66,1.01-.44,1.95-1.01,2.82-1.69v-14.55h3.28v19.49Z"/><path class="cls-1" d="M259.18,40.85h-14.36c0,1.2.18,2.24.54,3.13.36.89.85,1.62,1.48,2.19.6.56,1.32.98,2.16,1.26.83.28,1.75.42,2.75.42,1.33,0,2.66-.26,4.01-.79s2.3-1.05,2.87-1.56h.17v3.58c-1.11.46-2.23.85-3.39,1.17-1.15.31-2.36.47-3.63.47-3.23,0-5.76-.88-7.57-2.63-1.81-1.75-2.72-4.24-2.72-7.46s.87-5.72,2.61-7.59,4.03-2.81,6.87-2.81c2.63,0,4.66.77,6.08,2.3,1.42,1.54,2.14,3.72,2.14,6.54v1.78ZM255.99,38.34c-.01-1.72-.45-3.05-1.3-4-.85-.94-2.16-1.41-3.9-1.41s-3.16.52-4.2,1.55c-1.04,1.04-1.63,2.32-1.77,3.86h11.17Z"/><path class="cls-1" d="M279.3,50.26h-3.26v-2.08c-.29.2-.68.47-1.18.83-.5.36-.97.64-1.44.85-.55.27-1.17.49-1.88.67-.71.18-1.54.27-2.5.27-1.76,0-3.25-.58-4.47-1.75s-1.83-2.65-1.83-4.45c0-1.48.32-2.67.95-3.59s1.54-1.63,2.71-2.16c1.19-.52,2.61-.88,4.28-1.06,1.66-.19,3.45-.33,5.36-.42v-.51c0-.74-.13-1.36-.39-1.85-.26-.49-.64-.87-1.13-1.15-.46-.27-1.02-.45-1.67-.54s-1.33-.14-2.04-.14c-.86,0-1.82.11-2.88.34-1.06.23-2.15.56-3.28.99h-.17v-3.33c.64-.17,1.57-.37,2.78-.58,1.21-.21,2.4-.31,3.58-.31,1.37,0,2.57.11,3.59.34,1.02.23,1.9.61,2.64,1.16.73.54,1.29,1.23,1.68,2.08.38.85.58,1.9.58,3.16v13.23ZM276.04,45.46v-5.43c-1,.06-2.18.15-3.53.26-1.36.12-2.43.29-3.22.51-.94.27-1.71.68-2.29,1.25-.58.56-.87,1.34-.87,2.33,0,1.12.34,1.96,1.01,2.52.67.56,1.7.85,3.09.85,1.15,0,2.2-.22,3.16-.67.96-.45,1.84-.99,2.65-1.61Z"/><path class="cls-1" d="M301.92,50.26h-3.28v-11.1c0-.9-.05-1.74-.16-2.52-.1-.79-.3-1.4-.58-1.84-.29-.49-.71-.85-1.26-1.09s-1.26-.36-2.13-.36-1.83.22-2.81.66-1.91,1.01-2.81,1.69v14.55h-3.28v-19.49h3.28v2.16c1.02-.85,2.08-1.51,3.18-1.99,1.09-.48,2.22-.71,3.37-.71,2.11,0,3.71.63,4.82,1.9,1.11,1.27,1.66,3.09,1.66,5.48v12.65Z"/><path class="cls-1" d="M324.05,50.26h-3.28v-2.04c-.94.81-1.93,1.45-2.95,1.9-1.02.45-2.13.68-3.33.68-2.33,0-4.17-.9-5.54-2.69s-2.05-4.28-2.05-7.45c0-1.65.24-3.12.71-4.42.47-1.29,1.11-2.39,1.91-3.3.79-.88,1.71-1.56,2.77-2.02,1.05-.47,2.14-.7,3.27-.7,1.02,0,1.93.11,2.72.32.79.22,1.62.55,2.5,1v-8.45h3.28v27.15ZM320.77,45.46v-11.19c-.88-.4-1.68-.67-2.37-.82-.7-.15-1.46-.23-2.29-.23-1.84,0-3.27.64-4.29,1.92-1.02,1.28-1.54,3.09-1.54,5.45s.4,4.08,1.19,5.28,2.06,1.81,3.8,1.81c.93,0,1.87-.21,2.83-.62s1.84-.95,2.67-1.6Z"/><path class="cls-1" d="M347.12,40.52c0,3.18-.81,5.68-2.44,7.52-1.63,1.84-3.81,2.76-6.54,2.76s-4.95-.92-6.57-2.76c-1.62-1.84-2.43-4.34-2.43-7.52s.81-5.69,2.43-7.53c1.62-1.84,3.81-2.77,6.57-2.77s4.92.92,6.54,2.77c1.63,1.84,2.44,4.35,2.44,7.53ZM343.73,40.52c0-2.52-.5-4.4-1.48-5.63-.99-1.23-2.36-1.84-4.12-1.84s-3.16.61-4.14,1.84-1.47,3.1-1.47,5.63.49,4.3,1.48,5.56c.99,1.26,2.37,1.89,4.14,1.89s3.12-.62,4.11-1.88c.99-1.25,1.49-3.11,1.49-5.58Z"/><path class="cls-1" d="M381.06,50.26h-3.28v-11.1c0-.9-.05-1.74-.16-2.52-.1-.79-.3-1.4-.58-1.84-.29-.49-.71-.85-1.26-1.09s-1.26-.36-2.13-.36-1.83.22-2.81.66-1.91,1.01-2.81,1.69v14.55h-3.28v-27.15h3.28v9.83c1.02-.85,2.08-1.51,3.18-1.99,1.09-.48,2.22-.71,3.37-.71,2.11,0,3.71.63,4.82,1.9,1.11,1.27,1.66,3.09,1.66,5.48v12.65Z"/><path class="cls-1" d="M402.53,50.26h-3.26v-2.08c-.29.2-.68.47-1.18.83-.5.36-.97.64-1.44.85-.55.27-1.17.49-1.88.67s-1.54.27-2.5.27c-1.76,0-3.25-.58-4.47-1.75s-1.83-2.65-1.83-4.45c0-1.48.32-2.67.95-3.59.63-.91,1.54-1.63,2.71-2.16,1.19-.52,2.61-.88,4.28-1.06,1.66-.19,3.45-.33,5.36-.42v-.51c0-.74-.13-1.36-.39-1.85-.26-.49-.64-.87-1.13-1.15-.47-.27-1.02-.45-1.68-.54-.65-.09-1.33-.14-2.04-.14-.86,0-1.82.11-2.88.34-1.06.23-2.15.56-3.28.99h-.17v-3.33c.64-.17,1.56-.37,2.77-.58,1.21-.21,2.4-.31,3.58-.31,1.37,0,2.57.11,3.59.34,1.02.23,1.9.61,2.64,1.16.73.54,1.29,1.23,1.68,2.08.38.85.58,1.9.58,3.16v13.23ZM399.26,45.46v-5.43c-1,.06-2.18.15-3.53.26s-2.43.29-3.22.51c-.94.27-1.71.68-2.29,1.25-.58.56-.87,1.34-.87,2.33,0,1.12.34,1.96,1.01,2.52s1.7.85,3.09.85c1.15,0,2.2-.22,3.16-.67.95-.45,1.84-.99,2.65-1.61Z"/><path class="cls-1" d="M426,40.36c0,1.63-.23,3.1-.69,4.4-.46,1.3-1.08,2.4-1.86,3.28-.83.92-1.73,1.61-2.72,2.07-.99.46-2.08.69-3.26.69-1.11,0-2.07-.13-2.9-.39-.83-.26-1.64-.61-2.44-1.06l-.21.91h-3.07v-27.15h3.28v9.7c.92-.76,1.9-1.38,2.93-1.86,1.04-.48,2.2-.72,3.49-.72,2.3,0,4.12.88,5.45,2.65s2,4.26,2,7.49ZM422.61,40.45c0-2.33-.38-4.09-1.15-5.3-.77-1.2-2.01-1.81-3.72-1.81-.95,0-1.92.21-2.9.62-.98.41-1.88.95-2.72,1.6v11.17c.93.42,1.73.71,2.4.87s1.43.24,2.28.24c1.81,0,3.24-.6,4.27-1.79,1.03-1.19,1.54-3.06,1.54-5.61Z"/><path class="cls-1" d="M434.64,27.5h-3.7v-3.4h3.7v3.4ZM434.43,50.26h-3.28v-19.49h3.28v19.49Z"/><path class="cls-1" d="M444.24,50.26h-3.28v-27.15h3.28v27.15Z"/><path class="cls-1" d="M454.25,27.5h-3.7v-3.4h3.7v3.4ZM454.04,50.26h-3.28v-19.49h3.28v19.49Z"/><path class="cls-1" d="M476.35,50.26h-3.28v-2.04c-.94.81-1.93,1.45-2.95,1.9-1.02.45-2.13.68-3.33.68-2.33,0-4.17-.9-5.54-2.69s-2.05-4.28-2.05-7.45c0-1.65.24-3.12.71-4.42.47-1.29,1.11-2.39,1.91-3.3.79-.88,1.71-1.56,2.77-2.02,1.05-.47,2.14-.7,3.27-.7,1.02,0,1.93.11,2.72.32.79.22,1.62.55,2.5,1v-8.45h3.28v27.15ZM473.07,45.46v-11.19c-.88-.4-1.68-.67-2.37-.82-.7-.15-1.46-.23-2.29-.23-1.84,0-3.27.64-4.29,1.92-1.02,1.28-1.54,3.09-1.54,5.45s.4,4.08,1.19,5.28,2.06,1.81,3.8,1.81c.93,0,1.87-.21,2.83-.62s1.84-.95,2.67-1.6Z"/><path class="cls-1" d="M497.95,50.26h-3.26v-2.08c-.29.2-.68.47-1.18.83-.5.36-.97.64-1.44.85-.55.27-1.17.49-1.88.67s-1.54.27-2.5.27c-1.76,0-3.25-.58-4.47-1.75s-1.83-2.65-1.83-4.45c0-1.48.32-2.67.95-3.59.63-.91,1.54-1.63,2.71-2.16,1.19-.52,2.61-.88,4.28-1.06,1.66-.19,3.45-.33,5.36-.42v-.51c0-.74-.13-1.36-.39-1.85-.26-.49-.64-.87-1.13-1.15-.47-.27-1.02-.45-1.68-.54-.65-.09-1.33-.14-2.04-.14-.86,0-1.82.11-2.88.34-1.06.23-2.15.56-3.28.99h-.17v-3.33c.64-.17,1.56-.37,2.77-.58,1.21-.21,2.4-.31,3.58-.31,1.37,0,2.57.11,3.59.34,1.02.23,1.9.61,2.64,1.16.73.54,1.29,1.23,1.68,2.08.38.85.58,1.9.58,3.16v13.23ZM494.69,45.46v-5.43c-1,.06-2.18.15-3.53.26s-2.43.29-3.22.51c-.94.27-1.71.68-2.29,1.25-.58.56-.87,1.34-.87,2.33,0,1.12.34,1.96,1.01,2.52s1.7.85,3.09.85c1.15,0,2.2-.22,3.16-.67.95-.45,1.84-.99,2.65-1.61Z"/><path class="cls-1" d="M520.08,50.26h-3.28v-2.04c-.94.81-1.93,1.45-2.95,1.9-1.02.45-2.13.68-3.33.68-2.33,0-4.17-.9-5.54-2.69s-2.05-4.28-2.05-7.45c0-1.65.24-3.12.71-4.42.47-1.29,1.11-2.39,1.91-3.3.79-.88,1.71-1.56,2.77-2.02,1.05-.47,2.14-.7,3.27-.7,1.02,0,1.93.11,2.72.32.79.22,1.62.55,2.5,1v-8.45h3.28v27.15ZM516.8,45.46v-11.19c-.88-.4-1.68-.67-2.37-.82-.7-.15-1.46-.23-2.29-.23-1.84,0-3.27.64-4.29,1.92-1.02,1.28-1.54,3.09-1.54,5.45s.4,4.08,1.19,5.28,2.06,1.81,3.8,1.81c.93,0,1.87-.21,2.83-.62s1.84-.95,2.67-1.6Z"/><path class="cls-1" d="M542.86,40.85h-14.36c0,1.2.18,2.24.54,3.13.36.89.86,1.62,1.48,2.19.61.56,1.32.98,2.16,1.26.83.28,1.75.42,2.75.42,1.33,0,2.66-.26,4-.79s2.3-1.05,2.87-1.56h.17v3.58c-1.11.46-2.23.85-3.39,1.17-1.15.31-2.36.47-3.63.47-3.23,0-5.76-.88-7.57-2.63-1.81-1.75-2.72-4.24-2.72-7.46s.87-5.72,2.61-7.59,4.03-2.81,6.87-2.81c2.63,0,4.66.77,6.08,2.3,1.42,1.54,2.14,3.72,2.14,6.54v1.78ZM539.66,38.34c-.01-1.72-.45-3.05-1.3-4-.85-.94-2.16-1.41-3.9-1.41s-3.16.52-4.2,1.55c-1.04,1.04-1.63,2.32-1.77,3.86h11.17Z"/><path class="cls-1" d="M561.76,44.64c0,1.78-.74,3.24-2.21,4.38-1.47,1.14-3.48,1.71-6.03,1.71-1.44,0-2.77-.17-3.97-.52-1.2-.34-2.21-.72-3.03-1.12v-3.68h.17c1.04.78,2.19,1.4,3.46,1.86,1.27.46,2.48.69,3.65.69,1.44,0,2.57-.23,3.39-.7.81-.46,1.22-1.2,1.22-2.2,0-.77-.22-1.35-.66-1.75-.44-.4-1.29-.73-2.55-1.01-.46-.1-1.07-.23-1.82-.37-.75-.14-1.43-.29-2.05-.45-1.71-.45-2.92-1.12-3.64-2-.72-.88-1.07-1.96-1.07-3.24,0-.8.17-1.56.5-2.27.33-.71.83-1.34,1.51-1.9.65-.55,1.48-.98,2.49-1.3,1.01-.32,2.13-.48,3.38-.48,1.16,0,2.34.14,3.53.43s2.18.63,2.98,1.04v3.51h-.17c-.84-.62-1.86-1.14-3.05-1.56s-2.37-.64-3.53-.64-2.21.23-3.04.69c-.83.46-1.24,1.14-1.24,2.05,0,.8.25,1.41.75,1.82.49.41,1.28.74,2.37.99.6.14,1.28.28,2.03.42.75.14,1.38.27,1.88.38,1.52.35,2.7.95,3.53,1.8.83.86,1.24,2,1.24,3.42Z"/><path class="cls-1" d="M53.45,35.94l-12.73-10.35c-.87-.71-2.15-.58-2.85.29-.71.87-.58,2.15.29,2.85l8.3,6.75h-24.18c-1.12,0-2.03.91-2.03,2.03s.91,2.03,2.03,2.03h24.18l-8.3,6.75c-.87.71-1,1.99-.29,2.85.4.49.99.75,1.58.75.45,0,.9-.15,1.28-.46l12.73-10.35c.47-.39.75-.96.75-1.57s-.27-1.19-.75-1.57Z"/></g></svg>