<?xml version="1.0" encoding="UTF-8"?><svg id="Layer_2" xmlns="http://www.w3.org/2000/svg" viewBox="0 0 95.96 96.15"><defs><style>.cls-1{fill:#fff;}.cls-2{fill:#f7941d;}</style></defs><g id="Camada_1"><path class="cls-2" d="M88.74,63.9l1.55,4.35c.07.19.2.33.36.41l3.86,1.74c.55.25.55,1.11,0,1.36l-3.86,1.74c-.17.07-.3.22-.36.41l-1.55,4.35c-.22.61-.99.61-1.21,0l-1.55-4.35c-.07-.19-.2-.33-.36-.41l-3.86-1.74c-.55-.25-.55-1.12,0-1.36l3.86-1.74c.17-.07.3-.22.36-.41l1.55-4.35c.22-.61.99-.61,1.21,0Z"/><path class="cls-2" d="M9.36,51.66l1.15,3.22c.05.14.15.25.27.3l2.86,1.29c.4.18.4.83,0,1.01l-2.86,1.29c-.12.06-.22.16-.27.3l-1.15,3.22c-.16.46-.73.46-.9,0l-1.15-3.22c-.05-.14-.15-.25-.27-.3l-2.86-1.29c-.4-.18-.4-.83,0-1.01l2.86-1.29c.12-.06.22-.16.27-.3l1.15-3.22c.16-.46.74-.46.9,0Z"/><circle class="cls-2" cx="15.56" cy="78.85" r="3.38"/><circle class="cls-2" cx="73.57" cy="82.61" r="1.46"/><path class="cls-1" d="M39.95,94.95c-.22,0-.38-.08-.51-.21-.13-.13-.2-.3-.19-.49l.15-8.24-.9-.25c-2.96-.81-4.63-3.19-6.36-5.97-1.13-1.82-2.01-4.01-2.25-4.63l-.05-.14-2.14-3-4.27-6.34c-.73-1.1-.99-2.43-.72-3.72s1.02-2.41,2.12-3.14l.56-.37c.81-.53,1.75-.82,2.72-.82,1.67,0,3.22.83,4.14,2.22l2.73,4.2.07-13.37-3.26-3.75.13,3.4c.04,1.11-.31,2.05-1.05,2.78-.76.75-1.76,1.16-2.82,1.16-1.1,0-2.1-.43-2.86-1.19-.02-.03-.05-.06-.07-.09l-3.05-4.43-11.89-15.74c-2.28-2.8-3.11-5.98-2.31-8.76l.2-.68-6.66-6.62c-.27-.27-.27-.7,0-.97.13-.13.3-.2.49-.2s.35.07.48.2l7.01,6.97c.21.2.26.52.14.78-1.7,3.63.63,7.08,1.71,8.4l11.92,15.78,3.06,4.46.12.1c.47.4,1.07.62,1.68.62.71,0,1.37-.27,1.87-.76,1.03-1.02.7-2.7-.06-3.83l-4.99-9.37c-.16-.31-.07-.69.22-.89.11-.08.25-.12.39-.12.2,0,.39.09.52.24l9.08,10.44.02-4.46v-.05c-.09-.95.13-1.87.61-2.68l.44-.73-2.33-2.81-1.69-2.03c-.24-.29-.2-.72.08-.96.16-.14.33-.17.45-.17s.34.03.52.23l4.19,4.78.76-.25c.34-.11.69-.19,1.04-.22.13-.01.26-.02.39-.02.73,0,1.45.18,2.1.53l1.39.75.34-1.54c.04-.18.09-.37.16-.54l.25-.67-6.36-7.27c-.23-.26-.23-.66.01-.92l.14-.16c.13-.14.31-.22.5-.22.2,0,.38.08.51.22l6.42,7.06,5.22-4.55-3.4.13h-.17c-1.04,0-1.92-.35-2.61-1.05-1.03-1.04-1.41-2.57-.98-3.98l.2-.68-3-3.03-3.09-3.07c-.22-.21-.27-.55-.12-.81.12-.22.35-.36.61-.36.05,0,.1,0,.14.01l7.22,1.53c.24.05.48.07.72.07.7,0,1.38-.21,1.96-.59.8-.53,1.34-1.33,1.53-2.27l.13-.66c.19-.93,0-1.89-.52-2.69-.53-.8-1.33-1.34-2.27-1.53l-7.45-1.45-3.73-.62c-.06,0-.12-.03-.17-.05-.02-.01-2.51-1.14-4.83-1.69-2.09-.49-3.39-.69-4.5-.69-1.67,0-2.99.49-4.3,1.58-.16.13-.33.16-.44.16-.19,0-.37-.08-.5-.21l-7.34-7.62c-.26-.27-.25-.71.02-.97.13-.12.3-.19.48-.19.19,0,.36.07.5.21l6.87,7.13.81-.46c1.19-.67,2.44-.99,3.94-.99s2.95.29,4.78.72c2.09.49,4.26,1.41,4.87,1.68l.14.06,3.63.61,7.5,1.46c1.29.27,2.42,1.02,3.14,2.12.73,1.1.98,2.42.72,3.72l-.77,3.74,14.4-10.88c2.11-1.72,4.38-2.61,6.62-2.61.73,0,1.45.1,2.14.3l.68.2,6.62-6.66c.13-.13.3-.2.49-.2s.35.07.48.2c.27.27.27.7,0,.97l-6.97,7.01c-.13.13-.3.2-.49.2-.1,0-.2-.02-.29-.06-.85-.4-1.75-.6-2.69-.6-2.53,0-4.67,1.45-5.72,2.31l-15.78,11.92-4.46,3.06-.1.12c-.88,1.05-.82,2.57.14,3.55.42.42.99.65,1.65.65,1.04,0,1.93-.54,2.18-.71l9.37-4.99c.1-.05.21-.08.32-.08.23,0,.44.11.57.3.2.29.15.68-.12.91l-10.89,9.47,1.62.8c.85.42,1.55,1.11,1.99,1.95l.69,1.32,6.9-5.71,2.03-1.69c.16-.13.33-.16.44-.16.2,0,.39.09.52.24.24.28.21.72-.07.96l-6.7,5.87,1.64.79c.38.18.74.42,1.05.72.42.39.76.85,1,1.37l.67,1.46,6.8-5.94c.12-.11.29-.17.45-.17s.34.07.47.18l.15.14c.14.13.22.32.22.51,0,.19-.08.38-.22.51l-8.33,7.58-.35,5.07,2.31-2.5c.75-.81,1.65-1.22,2.68-1.22.46,0,.89.08,1.31.22l.71.24,7.78-7.7,3.06-3.09c.13-.13.3-.2.49-.2.11,0,.22.03.32.08.27.14.41.45.35.75l-1.53,7.22c-.23,1.04,0,2.06.65,2.87.76.94,2.06,1.53,3.39,1.53,1.87,0,3.29-1.11,3.62-2.84l1.45-7.45s.09-.49.18-1.08c.12-.73.38-2.39.49-2.81.09-.19,1.16-2.57,1.7-4.84.98-4.17,1.09-6.43-.88-8.8-.23-.28-.21-.69.05-.93l6.42-6.19c.13-.12.3-.19.48-.19.19,0,.36.07.49.21.13.13.2.31.19.49,0,.18-.08.35-.21.48l-5.93,5.72.46.81c1.52,2.67,1.02,5.53.27,8.72-.49,2.08-1.41,4.26-1.68,4.87l-.06.14s-.6,3.57-.61,3.67l-1.46,7.52c-.26,1.25-1.01,2.36-2.12,3.09-.81.54-1.75.82-2.71.82h0c-.34,0-.67-.04-1.01-.1-1.69-.25-3.01-1.04-3.78-2.24-.74-1.12-.99-2.44-.72-3.73l1.04-4.9-9.08,8.98.43.79c.32.59.49,1.26.48,1.93,0,.04,0,.08-.01.12l-.98,5.29-2.72,19.54c-.37,3.59-2.03,6.42-4.56,7.83l-.62.34.03,9.38c0,.18-.07.36-.2.49-.13.13-.3.2-.49.2-.38,0-.69-.31-.69-.68l-.03-9.89c0-.29.18-.55.45-.65,3.77-1.37,4.57-5.46,4.73-7.15l2.73-19.59.99-5.32v-.16c-.13-1.37-1.25-2.4-2.62-2.41-1.46,0-2.4,1.43-2.67,2.75l-3.1,10.15c-.09.29-.36.49-.66.49-.04,0-.08,0-.13-.01-.34-.06-.58-.38-.56-.72l1.25-18.01v-.09c-.07-.72-.4-1.39-.94-1.89-.54-.5-1.24-.77-1.98-.77h-.12c-.78.03-1.5.37-2.03.94-.53.58-.8,1.32-.77,2.1,0,.02,0,.06,0,.09l-1.16,12.31-.24,2.63c-.03.35-.33.63-.68.63-.43-.03-.71-.36-.69-.73l1.23-18.66v-.09c-.14-1.58-1.49-2.82-3.07-2.82h-.13c-.82.04-1.58.39-2.14.99s-.85,1.39-.81,2.21l-1.24,18.5c-.02.35-.31.63-.66.64,0,0-.21,0-.21,0-.21,0-.38-.07-.51-.2-.13-.14-.21-.33-.2-.52l.74-15.56-.02-.11c-.22-1.51-1.53-2.65-3.06-2.65-.09,0-.18,0-.28.01-.83.07-1.58.47-2.12,1.12-.53.65-.78,1.46-.69,2.3l-.09,18.03.02,4.36c0,.3-.2.58-.49.66-.06.02-.13.03-.2.03-.23,0-.45-.12-.58-.31l-4.02-6.19c-.66-1.01-1.78-1.6-2.98-1.6-.7,0-1.38.2-1.96.59l-.56.37c-.8.52-1.34,1.33-1.53,2.26-.19.93,0,1.89.52,2.68l4.24,6.3,2.2,3.08s.06.1.08.16c.17.46,1.07,2.75,2.22,4.62,2.26,3.65,3.78,5.32,6.85,5.6.36.03.63.34.62.7l-.16,8.91c0,.37-.31.67-.67.67ZM44.14,25.28l4.17-2.86-3.16-.38c-.14-.02-.28-.04-.42-.07l-4.9-1.04,4.3,4.35Z"/><path class="cls-1" d="M15.07,20.9c-.12,0-.29-.03-.45-.17-.73-.64-1.44-1.39-2.13-2.12-.7-.75-1.43-1.52-2.2-2.21-.28-.25-.31-.69-.06-.97.18-.2.4-.23.52-.23s.29.03.45.17c.83.73,1.57,1.52,2.29,2.29.66.7,1.34,1.43,2.03,2.04.29.25.32.68.07.97-.18.21-.4.24-.52.24Z"/><path class="cls-1" d="M6.48,12.32c-.18,0-.36-.07-.49-.2l-1.65-1.65c-.27-.27-.27-.7,0-.97.13-.13.3-.2.49-.2s.36.07.49.2l1.65,1.65c.13.13.2.3.2.49s-.07.36-.2.49c-.13.13-.3.2-.49.2Z"/><path class="cls-1" d="M41.75,80.75c-.14,0-.27-.04-.38-.12-.74-.49-1.44-1.09-2.08-1.79-.26-.28-.24-.71.04-.97.13-.12.29-.18.47-.18.11,0,.33.03.5.22.57.61,1.18,1.15,1.83,1.58.31.21.4.64.19.95-.13.19-.34.3-.57.3Z"/><path class="cls-1" d="M37.07,74.66c-.27,0-.52-.16-.63-.41l-.08-.18c-.04-.09-.08-.17-.13-.34-.06-.17-.04-.36.04-.52.08-.17.22-.29.4-.35.07-.02.15-.04.22-.04.29,0,.56.19.65.47l.08.2.09.21c.07.17.08.36,0,.53-.07.17-.2.3-.37.38-.09.04-.18.06-.27.06Z"/></g></svg>