<?xml version="1.0" encoding="UTF-8"?><svg xmlns="http://www.w3.org/2000/svg" viewBox="0 0 1719.56 1125.33"><defs><style>.cls-1{fill:#fffaef;}.cls-2{fill:#fbd442;}.cls-3{fill:#fff;}.cls-4{fill:#f6b238;}.cls-5{fill:#f4a535;mix-blend-mode:multiply;opacity:.31;}.cls-6{isolation:isolate;}.cls-7{stroke-width:3px;}.cls-7,.cls-8{stroke:#004b8d;}.cls-7,.cls-8,.cls-9{fill:none;}.cls-7,.cls-9{stroke-linecap:round;stroke-linejoin:round;}.cls-10{fill:#f49323;}.cls-11{fill:#004b8d;}.cls-12{fill:#388e3c;}.cls-13{fill:#fff176;}.cls-8{stroke-miterlimit:10;stroke-width:2px;}.cls-9{stroke:#f49323;stroke-width:17px;}</style></defs><g class="cls-6"><g id="Layer_2"><g id="Camada_1"><rect class="cls-1" x="0" y="0" width="1719.56" height="1125.33"/><path class="cls-10" d="M1200.98,756.8c18.31,0,18.34-18.68,0-18.68h-35.38v-34.14c0-11.56,0-15.22,0-14.98v-81.61h35.38c18.31,0,18.34-18.68,0-18.68h-35.38v-195.91c0-12.02-18.68-12.04-18.68,0v195.91h-175.42v-195.91c0-12.02-18.68-12.04-18.68,0v195.91h-168.08v-195.91c0-12.02-18.68-12.04-18.68,0v195.91h-168.08v-195.91c0-12.02-18.68-12.04-18.68,0v195.91h-115.89c-18.31,0-18.34,18.68,0,18.68h115.89v130.73h-115.89c-18.31,0-18.34,18.68,0,18.68h115.89v130.73h-115.89c-18.31,0-18.34,18.68,0,18.68h115.89v120.61c0,12.02,18.68,12.04,18.68,0v-120.61h168.08v120.61c0,12.02,18.68,12.04,18.68,0v-120.61h168.08v120.61c0,12.02,18.68,12.04,18.68,0v-120.61c5.08,0,6.91,0,6.7,0h168.72v120.61c0,12.02,18.68,12.04,18.68,0v-120.61h35.38c18.31,0,18.34-18.68,0-18.68h-35.38v-130.73h35.38ZM978.2,607.4h168.72v130.73h-175.42v-34.14c0-11.56,0-15.22,0-14.98v-81.61c5.08,0,6.91,0,6.7,0ZM887.06,607.4h65.76v130.73h-168.08v-34.14c0-11.56,0-15.22,0-14.98v-81.61h102.32ZM597.99,703.99c0-11.56,0-15.22,0-14.98v-81.61h168.08v130.73h-168.08v-34.14ZM617.9,887.53h-19.91v-130.73h168.08v130.73h-148.17ZM948.09,887.53h-163.35v-130.73h168.08v130.73h-4.73ZM1146.92,887.53h-175.42v-130.73c5.08,0,6.91,0,6.7,0h168.72v130.73Z"/><path class="cls-11" d="M429.63,393.5v642.34c0,5.05,4.28,9.34,9.34,9.34h820.16c12.02,0,12.04-18.68,0-18.68H438.97c3.11,3.11,6.23,6.23,9.34,9.34V393.5c0-12.02-18.68-12.04-18.68,0h0Z"/><path class="cls-8" d="M1529.28,1018.98c-4.27-3.42-7.55-8.37-9.84-14.85-2.29-6.48-3.44-14.23-3.44-23.24s1.15-16.76,3.44-23.24,5.57-11.43,9.84-14.85c4.27-3.42,9.38-5.13,15.33-5.13s11.07,1.71,15.33,5.13c4.27,3.42,7.55,8.37,9.84,14.85,2.29,6.48,3.44,14.23,3.44,23.24s-1.15,16.76-3.44,23.24c-2.29,6.48-5.58,11.43-9.84,14.85-4.27,3.42-9.38,5.13-15.33,5.13s-11.07-1.71-15.33-5.13ZM1552.4,1002.62c1.81-4.91,2.72-12.15,2.72-21.73s-.91-16.82-2.72-21.73c-1.81-4.91-4.41-7.37-7.79-7.37s-5.98,2.46-7.79,7.37c-1.81,4.91-2.72,12.16-2.72,21.73s.91,16.83,2.72,21.73c1.81,4.91,4.41,7.37,7.79,7.37s5.98-2.45,7.79-7.37Z"/><path class="cls-8" d="M1587.59,973.76c-3.46-2.98-5.19-8.25-5.19-15.82s1.73-12.84,5.19-15.82c3.46-2.98,7.77-4.47,12.92-4.47s9.46,1.49,12.92,4.47c3.46,2.98,5.19,8.25,5.19,15.82s-1.73,12.84-5.19,15.82c-3.46,2.98-7.77,4.47-12.92,4.47s-9.46-1.49-12.92-4.47ZM1606.19,957.95c0-6.6-1.89-9.9-5.67-9.9-2.17,0-3.68.95-4.53,2.84-.84,1.89-1.27,4.25-1.27,7.06s.44,5.35,1.33,7.37c.88,2.01,2.37,3.02,4.47,3.02,3.78,0,5.67-3.46,5.67-10.38ZM1596.1,1022.97c-.44-.28-.66-.66-.66-1.15,0-.4.2-1.01.6-1.81l43.1-78.24c1.29-2.25,3.06-3.38,5.31-3.38h5.31c.8,0,1.43.16,1.87.48.44.32.66.72.66,1.21,0,.32-.2.89-.6,1.69l-43.1,78.24c-1.29,2.25-3.06,3.38-5.31,3.38h-5.31c-.81,0-1.43-.14-1.87-.42ZM1634.32,1019.65c-3.46-2.98-5.19-8.25-5.19-15.82s1.73-12.84,5.19-15.82c3.46-2.98,7.77-4.47,12.92-4.47s9.46,1.49,12.92,4.47c3.46,2.98,5.19,8.25,5.19,15.82s-1.73,12.84-5.19,15.82c-3.46,2.98-7.77,4.47-12.92,4.47s-9.46-1.49-12.92-4.47ZM1652.91,1003.83c0-6.6-1.89-9.9-5.67-9.9-2.17,0-3.68.95-4.53,2.84-.85,1.89-1.27,4.25-1.27,7.06s.44,5.35,1.33,7.37c.88,2.01,2.37,3.02,4.47,3.02,3.78,0,5.67-3.46,5.67-10.38Z"/><path class="cls-11" d="M1438.27,980.05c-.56-.97-.85-2.49-.85-4.59v-.84c0-2.09.28-3.62.85-4.59.56-.97,1.49-1.45,2.78-1.45h50.47c1.29,0,2.21.48,2.78,1.45.56.97.85,2.5.85,4.59v.84c0,2.09-.28,3.62-.85,4.59-.56.97-1.49,1.45-2.78,1.45h-50.47c-1.29,0-2.21-.48-2.78-1.45ZM1438.27,1001.9c-.56-.97-.85-2.49-.85-4.59v-.84c0-2.09.28-3.62.85-4.59.56-.97,1.49-1.45,2.78-1.45h50.47c1.29,0,2.21.48,2.78,1.45.56.97.85,2.5.85,4.59v.84c0,2.09-.28,3.62-.85,4.59-.56.97-1.49,1.45-2.78,1.45h-50.47c-1.29,0-2.21-.48-2.78-1.45Z"/><path class="cls-8" d="M160.87,665.48c-3.55-.75-6.33-1.77-8.34-3.08s-3.02-2.74-3.02-4.32c0-.71.35-1.83,1.06-3.37.71-1.54,1.56-2.92,2.54-4.14.99-1.22,1.91-1.83,2.78-1.83.24,0,1.24.38,3.02,1.12,1.77.75,3.8,1.42,6.09,2.01,2.29.59,4.81.89,7.57.89,3.86,0,6.94-1.08,9.23-3.25,2.29-2.17,3.43-5.15,3.43-8.93,0-4.34-1.14-7.61-3.43-9.82-2.29-2.21-6.07-3.31-11.36-3.31h-12.89c-1.66,0-2.8-.35-3.43-1.06-.63-.71-.95-1.93-.95-3.67l2.25-35.13c.16-1.66.61-2.86,1.36-3.61.75-.75,1.95-1.12,3.61-1.12h34.9c1.26,0,2.17.47,2.72,1.42.55.95.83,2.45.83,4.5v3.19c0,1.66-.28,2.86-.83,3.61-.55.75-1.46,1.12-2.72,1.12h-23.89l-1.18,16.92h3.08c9.62,0,16.97,2.01,22.06,6.03,5.09,4.02,7.63,10.84,7.63,20.46,0,6.31-1.46,11.44-4.38,15.38-2.92,3.94-6.67,6.78-11.24,8.52-4.57,1.73-9.46,2.6-14.67,2.6-4.34,0-8.28-.38-11.83-1.12Z"/><path class="cls-8" d="M218.71,617.28c-3.39-2.92-5.09-8.08-5.09-15.5s1.69-12.58,5.09-15.5c3.39-2.92,7.61-4.38,12.66-4.38s9.27,1.46,12.66,4.38c3.39,2.92,5.09,8.08,5.09,15.5s-1.7,12.58-5.09,15.5c-3.39,2.92-7.61,4.38-12.66,4.38s-9.27-1.46-12.66-4.38ZM236.93,601.78c0-6.46-1.85-9.7-5.56-9.7-2.13,0-3.61.93-4.44,2.78-.83,1.85-1.24,4.16-1.24,6.92s.43,5.25,1.3,7.22c.87,1.97,2.33,2.96,4.38,2.96,3.71,0,5.56-3.39,5.56-10.17ZM227.05,665.48c-.43-.28-.65-.65-.65-1.12,0-.39.2-.99.59-1.77l42.23-76.65c1.26-2.21,3-3.31,5.2-3.31h5.21c.79,0,1.4.16,1.83.47.43.32.65.71.65,1.18,0,.32-.2.87-.59,1.66l-42.23,76.65c-1.26,2.21-3,3.31-5.21,3.31h-5.2c-.79,0-1.4-.14-1.83-.41ZM264.49,662.23c-3.39-2.92-5.09-8.08-5.09-15.5s1.69-12.58,5.09-15.5c3.39-2.92,7.61-4.38,12.66-4.38s9.27,1.46,12.66,4.38c3.39,2.92,5.09,8.08,5.09,15.5s-1.7,12.58-5.09,15.5c-3.39,2.92-7.61,4.38-12.66,4.38s-9.27-1.46-12.66-4.38ZM282.71,646.73c0-6.46-1.85-9.7-5.56-9.7-2.13,0-3.61.93-4.44,2.78-.83,1.85-1.24,4.16-1.24,6.92s.43,5.25,1.3,7.22c.87,1.97,2.32,2.96,4.38,2.96,3.71,0,5.56-3.39,5.56-10.17Z"/><path class="cls-11" d="M94.43,655.61c-.95-.55-1.42-1.46-1.42-2.72v-17.98h-17.86c-1.26,0-2.17-.47-2.72-1.42-.55-.95-.83-2.44-.83-4.5v-.83c0-2.05.28-3.55.83-4.5.55-.95,1.46-1.42,2.72-1.42h17.86v-18.22c0-1.26.47-2.17,1.42-2.72.95-.55,2.44-.83,4.5-.83h1.66c2.05,0,3.55.28,4.5.83.95.55,1.42,1.46,1.42,2.72v18.22h18.1c1.26,0,2.17.47,2.72,1.42.55.95.83,2.45.83,4.5v.83c0,2.05-.28,3.55-.83,4.5-.55.95-1.46,1.42-2.72,1.42h-18.1v17.98c0,1.26-.47,2.17-1.42,2.72-.95.55-2.45.83-4.5.83h-1.66c-2.05,0-3.55-.28-4.5-.83Z"/><line class="cls-9" x1="457.37" y1="462.92" x2="1205.41" y2="462.92"/><circle class="cls-11" cx="963.67" cy="890.79" r="50.32"/><path class="cls-3" d="M941.12,924.45v-58.31c0-2.66,2.16-4.82,4.82-4.82h35.45c2.66,0,4.82,2.16,4.82,4.82v58.31c0,2.66-2.16,4.82-4.82,4.82h-35.45c-2.66,0-4.82-2.16-4.82-4.82ZM945.94,864.22c-1.06,0-1.91.86-1.91,1.91v58.31c0,1.06.86,1.91,1.91,1.91h35.45c1.06,0,1.91-.86,1.91-1.91v-58.31c0-1.06-.86-1.91-1.91-1.91h-35.45Z"/><path class="cls-3" d="M949.89,862.04v-7.55c0-1.2.98-2.18,2.18-2.18h23.2c1.2,0,2.18.98,2.18,2.18v7.55c0,1.2-.98,2.18-2.18,2.18h-23.2c-1.2,0-2.18-.98-2.18-2.18ZM974.54,855.22h-21.75v6.1h21.75v-6.1Z"/><path class="cls-2" d="M944.47,921.21c0,1.99,1.13,3.73,2.79,4.59.71.37,1.52.58,2.38.58h28.04c1.43,0,2.72-.58,3.66-1.52.94-.93,1.52-2.22,1.52-3.65,0-2.61-1.94-4.77-4.45-5.12-.24-.03-.48-.05-.72-.05h-28.04c-1.43,0-2.72.58-3.66,1.51-.93.94-1.52,2.23-1.52,3.66Z"/><path class="cls-13" d="M976.84,925.37h0c.51,0,.93-.42.93-.93v-5c0-.51-.42-.93-.93-.93h0c-.51,0-.93.42-.93.93v5c0,.51.42.93.93.93Z"/><path class="cls-13" d="M972.45,925.37h0c.51,0,.93-.42.93-.93v-5c0-.51-.42-.93-.93-.93h0c-.51,0-.93.42-.93.93v5c0,.51.42.93.93.93Z"/><path class="cls-13" d="M968.06,925.37h0c.51,0,.93-.42.93-.93v-5c0-.51-.42-.93-.93-.93h0c-.51,0-.93.42-.93.93v5c0,.51.42.93.93.93Z"/><path class="cls-13" d="M963.67,925.37h0c.51,0,.93-.42.93-.93v-5c0-.51-.42-.93-.93-.93h0c-.51,0-.93.42-.93.93v5c0,.51.42.93.93.93Z"/><path class="cls-13" d="M959.27,925.37h0c.51,0,.93-.42.93-.93v-5c0-.51-.42-.93-.93-.93h0c-.51,0-.93.42-.93.93v5c0,.51.42.93.93.93Z"/><path class="cls-13" d="M954.88,925.37h0c.51,0,.93-.42.93-.93v-5c0-.51-.42-.93-.93-.93h0c-.51,0-.93.42-.93.93v5c0,.51.42.93.93.93Z"/><path class="cls-13" d="M950.49,925.37h0c.51,0,.93-.42.93-.93v-5c0-.51-.42-.93-.93-.93h0c-.51,0-.93.42-.93.93v5c0,.51.42.93.93.93Z"/><path class="cls-4" d="M976.84,924.74h0c.51,0,.93-.42.93-.93v-5c0-.51-.42-.93-.93-.93h0c-.51,0-.93.42-.93.93v5c0,.51.42.93.93.93Z"/><path class="cls-4" d="M972.45,924.74h0c.51,0,.93-.42.93-.93v-5c0-.51-.42-.93-.93-.93h0c-.51,0-.93.42-.93.93v5c0,.51.42.93.93.93Z"/><path class="cls-4" d="M968.06,924.74h0c.51,0,.93-.42.93-.93v-5c0-.51-.42-.93-.93-.93h0c-.51,0-.93.42-.93.93v5c0,.51.42.93.93.93Z"/><path class="cls-4" d="M963.67,924.74h0c.51,0,.93-.42.93-.93v-5c0-.51-.42-.93-.93-.93h0c-.51,0-.93.42-.93.93v5c0,.51.42.93.93.93Z"/><path class="cls-4" d="M959.27,924.74h0c.51,0,.93-.42.93-.93v-5c0-.51-.42-.93-.93-.93h0c-.51,0-.93.42-.93.93v5c0,.51.42.93.93.93Z"/><path class="cls-4" d="M954.88,924.74h0c.51,0,.93-.42.93-.93v-5c0-.51-.42-.93-.93-.93h0c-.51,0-.93.42-.93.93v5c0,.51.42.93.93.93Z"/><path class="cls-4" d="M950.49,924.74h0c.51,0,.93-.42.93-.93v-5c0-.51-.42-.93-.93-.93h0c-.51,0-.93.42-.93.93v5c0,.51.42.93.93.93Z"/><path class="cls-5" d="M944.47,921.21c0,1.99,1.13,3.73,2.79,4.59l2.49-.78,1.66-.52,2.54-.79,1.86-.58,2.53-.79,1.86-.58,2.53-.78,1.86-.58,2.53-.79,1.78-.56.08-.02,2.79-.87.85-.27,5.77-1.8c-.24-.03-.48-.05-.72-.05h-28.04c-1.43,0-2.72.58-3.66,1.51-.93.94-1.52,2.23-1.52,3.66Z"/><circle class="cls-11" cx="775.51" cy="591.98" r="50.32"/><path class="cls-3" d="M751.87,623.64v-58.31c0-2.66,2.16-4.82,4.82-4.82h35.45c2.66,0,4.82,2.16,4.82,4.82v58.31c0,2.66-2.16,4.82-4.82,4.82h-35.45c-2.66,0-4.82-2.16-4.82-4.82ZM756.69,563.41c-1.06,0-1.91.86-1.91,1.91v58.31c0,1.06.86,1.91,1.91,1.91h35.45c1.06,0,1.91-.86,1.91-1.91v-58.31c0-1.06-.86-1.91-1.91-1.91h-35.45Z"/><path class="cls-3" d="M760.64,561.23v-7.55c0-1.2.98-2.18,2.18-2.18h23.2c1.2,0,2.18.98,2.18,2.18v7.55c0,1.2-.98,2.18-2.18,2.18h-23.2c-1.2,0-2.18-.98-2.18-2.18ZM785.29,554.41h-21.75v6.1h21.75v-6.1Z"/><path class="cls-2" d="M755.22,620.41c0,1.99,1.13,3.73,2.79,4.59.71.37,1.52.58,2.38.58h28.04c1.43,0,2.72-.58,3.66-1.52.94-.93,1.52-2.22,1.52-3.65,0-2.61-1.94-4.77-4.45-5.12-.24-.03-.48-.05-.72-.05h-28.04c-1.43,0-2.72.58-3.66,1.51-.94.94-1.52,2.23-1.52,3.66Z"/><path class="cls-13" d="M787.59,624.57h0c.51,0,.93-.42.93-.93v-5c0-.51-.42-.93-.93-.93h0c-.51,0-.93.42-.93.93v5c0,.51.42.93.93.93Z"/><path class="cls-13" d="M783.2,624.57h0c.51,0,.93-.42.93-.93v-5c0-.51-.42-.93-.93-.93h0c-.51,0-.93.42-.93.93v5c0,.51.42.93.93.93Z"/><path class="cls-13" d="M778.81,624.57h0c.51,0,.93-.42.93-.93v-5c0-.51-.42-.93-.93-.93h0c-.51,0-.93.42-.93.93v5c0,.51.42.93.93.93Z"/><path class="cls-13" d="M774.41,624.57h0c.51,0,.93-.42.93-.93v-5c0-.51-.42-.93-.93-.93h0c-.51,0-.93.42-.93.93v5c0,.51.42.93.93.93Z"/><rect class="cls-13" x="769.09" y="617.71" width="1.86" height="6.86" rx=".93" ry=".93" transform="translate(1540.04 1242.28) rotate(180)"/><path class="cls-13" d="M765.63,624.57h0c.51,0,.93-.42.93-.93v-5c0-.51-.42-.93-.93-.93h0c-.51,0-.93.42-.93.93v5c0,.51.42.93.93.93Z"/><path class="cls-13" d="M761.24,624.57h0c.51,0,.93-.42.93-.93v-5c0-.51-.42-.93-.93-.93h0c-.51,0-.93.42-.93.93v5c0,.51.42.93.93.93Z"/><path class="cls-4" d="M787.59,623.93h0c.51,0,.93-.42.93-.93v-5c0-.51-.42-.93-.93-.93h0c-.51,0-.93.42-.93.93v5c0,.51.42.93.93.93Z"/><path class="cls-4" d="M783.2,623.93h0c.51,0,.93-.42.93-.93v-5c0-.51-.42-.93-.93-.93h0c-.51,0-.93.42-.93.93v5c0,.51.42.93.93.93Z"/><path class="cls-4" d="M778.81,623.93h0c.51,0,.93-.42.93-.93v-5c0-.51-.42-.93-.93-.93h0c-.51,0-.93.42-.93.93v5c0,.51.42.93.93.93Z"/><path class="cls-4" d="M774.41,623.93h0c.51,0,.93-.42.93-.93v-5c0-.51-.42-.93-.93-.93h0c-.51,0-.93.42-.93.93v5c0,.51.42.93.93.93Z"/><rect class="cls-4" x="769.09" y="617.07" width="1.86" height="6.86" rx=".93" ry=".93" transform="translate(1540.04 1241) rotate(180)"/><path class="cls-4" d="M765.63,623.93h0c.51,0,.93-.42.93-.93v-5c0-.51-.42-.93-.93-.93h0c-.51,0-.93.42-.93.93v5c0,.51.42.93.93.93Z"/><path class="cls-4" d="M761.24,623.93h0c.51,0,.93-.42.93-.93v-5c0-.51-.42-.93-.93-.93h0c-.51,0-.93.42-.93.93v5c0,.51.42.93.93.93Z"/><path class="cls-5" d="M755.22,620.41c0,1.99,1.13,3.73,2.79,4.59l2.49-.78,1.66-.52,2.54-.79,1.86-.58,2.53-.79,1.86-.58,2.53-.78,1.86-.58,2.53-.79,1.78-.56.08-.02,2.79-.87.85-.27,5.77-1.8c-.24-.03-.48-.05-.72-.05h-28.04c-1.43,0-2.72.58-3.66,1.51-.94.94-1.52,2.23-1.52,3.66Z"/><path class="cls-2" d="M755.22,610.07c0,1.99,1.13,3.73,2.79,4.59.71.37,1.52.58,2.38.58h28.04c1.43,0,2.72-.58,3.66-1.52.94-.93,1.52-2.22,1.52-3.65,0-2.61-1.94-4.77-4.45-5.12-.24-.03-.48-.05-.72-.05h-28.04c-1.43,0-2.72.58-3.66,1.51-.94.94-1.52,2.23-1.52,3.66Z"/><path class="cls-13" d="M787.59,614.23h0c.51,0,.93-.42.93-.93v-5c0-.51-.42-.93-.93-.93h0c-.51,0-.93.42-.93.93v5c0,.51.42.93.93.93Z"/><path class="cls-13" d="M783.2,614.23h0c.51,0,.93-.42.93-.93v-5c0-.51-.42-.93-.93-.93h0c-.51,0-.93.42-.93.93v5c0,.51.42.93.93.93Z"/><path class="cls-13" d="M778.81,614.23h0c.51,0,.93-.42.93-.93v-5c0-.51-.42-.93-.93-.93h0c-.51,0-.93.42-.93.93v5c0,.51.42.93.93.93Z"/><path class="cls-13" d="M774.41,614.23h0c.51,0,.93-.42.93-.93v-5c0-.51-.42-.93-.93-.93h0c-.51,0-.93.42-.93.93v5c0,.51.42.93.93.93Z"/><rect class="cls-13" x="769.09" y="607.37" width="1.86" height="6.86" rx=".93" ry=".93" transform="translate(1540.04 1221.6) rotate(-180)"/><path class="cls-13" d="M765.63,614.23h0c.51,0,.93-.42.93-.93v-5c0-.51-.42-.93-.93-.93h0c-.51,0-.93.42-.93.93v5c0,.51.42.93.93.93Z"/><path class="cls-13" d="M761.24,614.23h0c.51,0,.93-.42.93-.93v-5c0-.51-.42-.93-.93-.93h0c-.51,0-.93.42-.93.93v5c0,.51.42.93.93.93Z"/><path class="cls-4" d="M787.59,613.59h0c.51,0,.93-.42.93-.93v-5c0-.51-.42-.93-.93-.93h0c-.51,0-.93.42-.93.93v5c0,.51.42.93.93.93Z"/><path class="cls-4" d="M783.2,613.59h0c.51,0,.93-.42.93-.93v-5c0-.51-.42-.93-.93-.93h0c-.51,0-.93.42-.93.93v5c0,.51.42.93.93.93Z"/><path class="cls-4" d="M778.81,613.59h0c.51,0,.93-.42.93-.93v-5c0-.51-.42-.93-.93-.93h0c-.51,0-.93.42-.93.93v5c0,.51.42.93.93.93Z"/><path class="cls-4" d="M774.41,613.59h0c.51,0,.93-.42.93-.93v-5c0-.51-.42-.93-.93-.93h0c-.51,0-.93.42-.93.93v5c0,.51.42.93.93.93Z"/><rect class="cls-4" x="769.09" y="606.73" width="1.86" height="6.86" rx=".93" ry=".93" transform="translate(1540.04 1220.32) rotate(180)"/><path class="cls-4" d="M765.63,613.59h0c.51,0,.93-.42.93-.93v-5c0-.51-.42-.93-.93-.93h0c-.51,0-.93.42-.93.93v5c0,.51.42.93.93.93Z"/><path class="cls-4" d="M761.24,613.59h0c.51,0,.93-.42.93-.93v-5c0-.51-.42-.93-.93-.93h0c-.51,0-.93.42-.93.93v5c0,.51.42.93.93.93Z"/><path class="cls-5" d="M755.22,610.07c0,1.99,1.13,3.73,2.79,4.59l2.49-.78,1.66-.52,2.54-.79,1.86-.58,2.53-.79,1.86-.58,2.53-.78,1.86-.58,2.53-.79,1.78-.56.08-.02,2.79-.87.85-.27,5.77-1.8c-.24-.03-.48-.05-.72-.05h-28.04c-1.43,0-2.72.58-3.66,1.51-.94.94-1.52,2.23-1.52,3.66Z"/><path class="cls-2" d="M755.22,599.73c0,1.99,1.13,3.73,2.79,4.59.71.37,1.52.58,2.38.58h28.04c1.43,0,2.72-.58,3.66-1.52.94-.93,1.52-2.22,1.52-3.65,0-2.61-1.94-4.77-4.45-5.12-.24-.03-.48-.05-.72-.05h-28.04c-1.43,0-2.72.58-3.66,1.51-.94.94-1.52,2.23-1.52,3.66Z"/><path class="cls-13" d="M787.59,603.89h0c.51,0,.93-.42.93-.93v-5c0-.51-.42-.93-.93-.93h0c-.51,0-.93.42-.93.93v5c0,.51.42.93.93.93Z"/><path class="cls-13" d="M783.2,603.89h0c.51,0,.93-.42.93-.93v-5c0-.51-.42-.93-.93-.93h0c-.51,0-.93.42-.93.93v5c0,.51.42.93.93.93Z"/><path class="cls-13" d="M778.81,603.89h0c.51,0,.93-.42.93-.93v-5c0-.51-.42-.93-.93-.93h0c-.51,0-.93.42-.93.93v5c0,.51.42.93.93.93Z"/><path class="cls-13" d="M774.41,603.89h0c.51,0,.93-.42.93-.93v-5c0-.51-.42-.93-.93-.93h0c-.51,0-.93.42-.93.93v5c0,.51.42.93.93.93Z"/><rect class="cls-13" x="769.09" y="597.03" width="1.86" height="6.86" rx=".93" ry=".93" transform="translate(1540.04 1200.93) rotate(180)"/><path class="cls-13" d="M765.63,603.89h0c.51,0,.93-.42.93-.93v-5c0-.51-.42-.93-.93-.93h0c-.51,0-.93.42-.93.93v5c0,.51.42.93.93.93Z"/><path class="cls-13" d="M761.24,603.89h0c.51,0,.93-.42.93-.93v-5c0-.51-.42-.93-.93-.93h0c-.51,0-.93.42-.93.93v5c0,.51.42.93.93.93Z"/><path class="cls-4" d="M787.59,603.25h0c.51,0,.93-.42.93-.93v-5c0-.51-.42-.93-.93-.93h0c-.51,0-.93.42-.93.93v5c0,.51.42.93.93.93Z"/><path class="cls-4" d="M783.2,603.25h0c.51,0,.93-.42.93-.93v-5c0-.51-.42-.93-.93-.93h0c-.51,0-.93.42-.93.93v5c0,.51.42.93.93.93Z"/><path class="cls-4" d="M778.81,603.25h0c.51,0,.93-.42.93-.93v-5c0-.51-.42-.93-.93-.93h0c-.51,0-.93.42-.93.93v5c0,.51.42.93.93.93Z"/><path class="cls-4" d="M774.41,603.25h0c.51,0,.93-.42.93-.93v-5c0-.51-.42-.93-.93-.93h0c-.51,0-.93.42-.93.93v5c0,.51.42.93.93.93Z"/><rect class="cls-4" x="769.09" y="596.4" width="1.86" height="6.86" rx=".93" ry=".93" transform="translate(1540.04 1199.65) rotate(-180)"/><path class="cls-4" d="M765.63,603.25h0c.51,0,.93-.42.93-.93v-5c0-.51-.42-.93-.93-.93h0c-.51,0-.93.42-.93.93v5c0,.51.42.93.93.93Z"/><path class="cls-4" d="M761.24,603.25h0c.51,0,.93-.42.93-.93v-5c0-.51-.42-.93-.93-.93h0c-.51,0-.93.42-.93.93v5c0,.51.42.93.93.93Z"/><path class="cls-5" d="M755.22,599.73c0,1.99,1.13,3.73,2.79,4.59l2.49-.78,1.66-.52,2.54-.79,1.86-.58,2.53-.79,1.86-.58,2.53-.78,1.86-.58,2.53-.79,1.78-.56.08-.02,2.79-.87.85-.27,5.77-1.8c-.24-.03-.48-.05-.72-.05h-28.04c-1.43,0-2.72.58-3.66,1.51-.94.94-1.52,2.23-1.52,3.66Z"/><path class="cls-2" d="M755.22,589.39c0,1.99,1.13,3.73,2.79,4.59.71.37,1.52.58,2.38.58h28.04c1.43,0,2.72-.58,3.66-1.52.94-.93,1.52-2.22,1.52-3.65,0-2.61-1.94-4.77-4.45-5.12-.24-.03-.48-.05-.72-.05h-28.04c-1.43,0-2.72.58-3.66,1.51-.94.94-1.52,2.23-1.52,3.66Z"/><path class="cls-13" d="M787.59,593.55h0c.51,0,.93-.42.93-.93v-5c0-.51-.42-.93-.93-.93h0c-.51,0-.93.42-.93.93v5c0,.51.42.93.93.93Z"/><path class="cls-13" d="M783.2,593.55h0c.51,0,.93-.42.93-.93v-5c0-.51-.42-.93-.93-.93h0c-.51,0-.93.42-.93.93v5c0,.51.42.93.93.93Z"/><path class="cls-13" d="M778.81,593.55h0c.51,0,.93-.42.93-.93v-5c0-.51-.42-.93-.93-.93h0c-.51,0-.93.42-.93.93v5c0,.51.42.93.93.93Z"/><path class="cls-13" d="M774.41,593.55h0c.51,0,.93-.42.93-.93v-5c0-.51-.42-.93-.93-.93h0c-.51,0-.93.42-.93.93v5c0,.51.42.93.93.93Z"/><rect class="cls-13" x="769.09" y="586.7" width="1.86" height="6.86" rx=".93" ry=".93" transform="translate(1540.04 1180.25) rotate(-180)"/><path class="cls-13" d="M765.63,593.55h0c.51,0,.93-.42.93-.93v-5c0-.51-.42-.93-.93-.93h0c-.51,0-.93.42-.93.93v5c0,.51.42.93.93.93Z"/><path class="cls-13" d="M761.24,593.55h0c.51,0,.93-.42.93-.93v-5c0-.51-.42-.93-.93-.93h0c-.51,0-.93.42-.93.93v5c0,.51.42.93.93.93Z"/><path class="cls-4" d="M787.59,592.92h0c.51,0,.93-.42.93-.93v-5c0-.51-.42-.93-.93-.93h0c-.51,0-.93.42-.93.93v5c0,.51.42.93.93.93Z"/><path class="cls-4" d="M783.2,592.92h0c.51,0,.93-.42.93-.93v-5c0-.51-.42-.93-.93-.93h0c-.51,0-.93.42-.93.93v5c0,.51.42.93.93.93Z"/><path class="cls-4" d="M778.81,592.92h0c.51,0,.93-.42.93-.93v-5c0-.51-.42-.93-.93-.93h0c-.51,0-.93.42-.93.93v5c0,.51.42.93.93.93Z"/><path class="cls-4" d="M774.41,592.92h0c.51,0,.93-.42.93-.93v-5c0-.51-.42-.93-.93-.93h0c-.51,0-.93.42-.93.93v5c0,.51.42.93.93.93Z"/><rect class="cls-4" x="769.09" y="586.06" width="1.86" height="6.86" rx=".93" ry=".93" transform="translate(1540.04 1178.98) rotate(180)"/><path class="cls-4" d="M765.63,592.92h0c.51,0,.93-.42.93-.93v-5c0-.51-.42-.93-.93-.93h0c-.51,0-.93.42-.93.93v5c0,.51.42.93.93.93Z"/><path class="cls-4" d="M761.24,592.92h0c.51,0,.93-.42.93-.93v-5c0-.51-.42-.93-.93-.93h0c-.51,0-.93.42-.93.93v5c0,.51.42.93.93.93Z"/><path class="cls-5" d="M755.22,589.39c0,1.99,1.13,3.73,2.79,4.59l2.49-.78,1.66-.52,2.54-.79,1.86-.58,2.53-.79,1.86-.58,2.53-.78,1.86-.58,2.53-.79,1.78-.56.08-.02,2.79-.87.85-.27,5.77-1.8c-.24-.03-.48-.05-.72-.05h-28.04c-1.43,0-2.72.58-3.66,1.51-.94.94-1.52,2.23-1.52,3.66Z"/><circle class="cls-11" cx="591.98" cy="740.57" r="50.32"/><path class="cls-3" d="M569.44,774.22v-58.31c0-2.66,2.16-4.82,4.82-4.82h35.45c2.66,0,4.82,2.16,4.82,4.82v58.31c0,2.66-2.16,4.82-4.82,4.82h-35.45c-2.66,0-4.82-2.16-4.82-4.82ZM574.26,714c-1.06,0-1.91.86-1.91,1.91v58.31c0,1.06.86,1.91,1.91,1.91h35.45c1.06,0,1.91-.86,1.91-1.91v-58.31c0-1.06-.86-1.91-1.91-1.91h-35.45Z"/><path class="cls-3" d="M578.2,711.82v-7.55c0-1.2.98-2.18,2.18-2.18h23.2c1.2,0,2.18.98,2.18,2.18v7.55c0,1.2-.98,2.18-2.18,2.18h-23.2c-1.2,0-2.18-.98-2.18-2.18ZM602.85,705h-21.75v6.1h21.75v-6.1Z"/><path class="cls-2" d="M572.79,770.99c0,1.99,1.13,3.73,2.79,4.59.71.37,1.52.58,2.38.58h28.04c1.43,0,2.72-.58,3.66-1.52s1.52-2.22,1.52-3.65c0-2.61-1.94-4.77-4.45-5.12-.24-.03-.48-.05-.72-.05h-28.04c-1.43,0-2.72.58-3.66,1.51-.93.94-1.52,2.23-1.52,3.66Z"/><path class="cls-13" d="M605.16,775.15h0c.51,0,.93-.42.93-.93v-5c0-.51-.42-.93-.93-.93h0c-.51,0-.93.42-.93.93v5c0,.51.42.93.93.93Z"/><path class="cls-13" d="M600.77,775.15h0c.51,0,.93-.42.93-.93v-5c0-.51-.42-.93-.93-.93h0c-.51,0-.93.42-.93.93v5c0,.51.42.93.93.93Z"/><path class="cls-13" d="M596.37,775.15h0c.51,0,.93-.42.93-.93v-5c0-.51-.42-.93-.93-.93h0c-.51,0-.93.42-.93.93v5c0,.51.42.93.93.93Z"/><path class="cls-13" d="M591.98,775.15h0c.51,0,.93-.42.93-.93v-5c0-.51-.42-.93-.93-.93h0c-.51,0-.93.42-.93.93v5c0,.51.42.93.93.93Z"/><path class="cls-13" d="M587.59,775.15h0c.51,0,.93-.42.93-.93v-5c0-.51-.42-.93-.93-.93h0c-.51,0-.93.42-.93.93v5c0,.51.42.93.93.93Z"/><path class="cls-13" d="M583.2,775.15h0c.51,0,.93-.42.93-.93v-5c0-.51-.42-.93-.93-.93h0c-.51,0-.93.42-.93.93v5c0,.51.42.93.93.93Z"/><path class="cls-13" d="M578.8,775.15h0c.51,0,.93-.42.93-.93v-5c0-.51-.42-.93-.93-.93h0c-.51,0-.93.42-.93.93v5c0,.51.42.93.93.93Z"/><path class="cls-4" d="M605.16,774.52h0c.51,0,.93-.42.93-.93v-5c0-.51-.42-.93-.93-.93h0c-.51,0-.93.42-.93.93v5c0,.51.42.93.93.93Z"/><path class="cls-4" d="M600.77,774.52h0c.51,0,.93-.42.93-.93v-5c0-.51-.42-.93-.93-.93h0c-.51,0-.93.42-.93.93v5c0,.51.42.93.93.93Z"/><path class="cls-4" d="M596.37,774.52h0c.51,0,.93-.42.93-.93v-5c0-.51-.42-.93-.93-.93h0c-.51,0-.93.42-.93.93v5c0,.51.42.93.93.93Z"/><path class="cls-4" d="M591.98,774.52h0c.51,0,.93-.42.93-.93v-5c0-.51-.42-.93-.93-.93h0c-.51,0-.93.42-.93.93v5c0,.51.42.93.93.93Z"/><path class="cls-4" d="M587.59,774.52h0c.51,0,.93-.42.93-.93v-5c0-.51-.42-.93-.93-.93h0c-.51,0-.93.42-.93.93v5c0,.51.42.93.93.93Z"/><path class="cls-4" d="M583.2,774.52h0c.51,0,.93-.42.93-.93v-5c0-.51-.42-.93-.93-.93h0c-.51,0-.93.42-.93.93v5c0,.51.42.93.93.93Z"/><path class="cls-4" d="M578.8,774.52h0c.51,0,.93-.42.93-.93v-5c0-.51-.42-.93-.93-.93h0c-.51,0-.93.42-.93.93v5c0,.51.42.93.93.93Z"/><path class="cls-5" d="M572.79,770.99c0,1.99,1.13,3.73,2.79,4.59l2.49-.78,1.66-.52,2.54-.79,1.86-.58,2.53-.79,1.86-.58,2.53-.78,1.86-.58,2.53-.79,1.78-.56.08-.02,2.79-.87.85-.27,5.77-1.8c-.24-.03-.48-.05-.72-.05h-28.04c-1.43,0-2.72.58-3.66,1.51-.93.94-1.52,2.23-1.52,3.66Z"/><path class="cls-2" d="M572.79,760.66c0,1.99,1.13,3.73,2.79,4.59.71.37,1.52.58,2.38.58h28.04c1.43,0,2.72-.58,3.66-1.52s1.52-2.22,1.52-3.65c0-2.61-1.94-4.77-4.45-5.12-.24-.03-.48-.05-.72-.05h-28.04c-1.43,0-2.72.58-3.66,1.51-.93.94-1.52,2.23-1.52,3.66Z"/><path class="cls-13" d="M605.16,764.82h0c.51,0,.93-.42.93-.93v-5c0-.51-.42-.93-.93-.93h0c-.51,0-.93.42-.93.93v5c0,.51.42.93.93.93Z"/><path class="cls-13" d="M600.77,764.82h0c.51,0,.93-.42.93-.93v-5c0-.51-.42-.93-.93-.93h0c-.51,0-.93.42-.93.93v5c0,.51.42.93.93.93Z"/><path class="cls-13" d="M596.37,764.82h0c.51,0,.93-.42.93-.93v-5c0-.51-.42-.93-.93-.93h0c-.51,0-.93.42-.93.93v5c0,.51.42.93.93.93Z"/><path class="cls-13" d="M591.98,764.82h0c.51,0,.93-.42.93-.93v-5c0-.51-.42-.93-.93-.93h0c-.51,0-.93.42-.93.93v5c0,.51.42.93.93.93Z"/><path class="cls-13" d="M587.59,764.82h0c.51,0,.93-.42.93-.93v-5c0-.51-.42-.93-.93-.93h0c-.51,0-.93.42-.93.93v5c0,.51.42.93.93.93Z"/><path class="cls-13" d="M583.2,764.82h0c.51,0,.93-.42.93-.93v-5c0-.51-.42-.93-.93-.93h0c-.51,0-.93.42-.93.93v5c0,.51.42.93.93.93Z"/><path class="cls-13" d="M578.8,764.82h0c.51,0,.93-.42.93-.93v-5c0-.51-.42-.93-.93-.93h0c-.51,0-.93.42-.93.93v5c0,.51.42.93.93.93Z"/><path class="cls-4" d="M605.16,764.18h0c.51,0,.93-.42.93-.93v-5c0-.51-.42-.93-.93-.93h0c-.51,0-.93.42-.93.93v5c0,.51.42.93.93.93Z"/><path class="cls-4" d="M600.77,764.18h0c.51,0,.93-.42.93-.93v-5c0-.51-.42-.93-.93-.93h0c-.51,0-.93.42-.93.93v5c0,.51.42.93.93.93Z"/><path class="cls-4" d="M596.37,764.18h0c.51,0,.93-.42.93-.93v-5c0-.51-.42-.93-.93-.93h0c-.51,0-.93.42-.93.93v5c0,.51.42.93.93.93Z"/><path class="cls-4" d="M591.98,764.18h0c.51,0,.93-.42.93-.93v-5c0-.51-.42-.93-.93-.93h0c-.51,0-.93.42-.93.93v5c0,.51.42.93.93.93Z"/><path class="cls-4" d="M587.59,764.18h0c.51,0,.93-.42.93-.93v-5c0-.51-.42-.93-.93-.93h0c-.51,0-.93.42-.93.93v5c0,.51.42.93.93.93Z"/><path class="cls-4" d="M583.2,764.18h0c.51,0,.93-.42.93-.93v-5c0-.51-.42-.93-.93-.93h0c-.51,0-.93.42-.93.93v5c0,.51.42.93.93.93Z"/><path class="cls-4" d="M578.8,764.18h0c.51,0,.93-.42.93-.93v-5c0-.51-.42-.93-.93-.93h0c-.51,0-.93.42-.93.93v5c0,.51.42.93.93.93Z"/><path class="cls-5" d="M572.79,760.66c0,1.99,1.13,3.73,2.79,4.59l2.49-.78,1.66-.52,2.54-.79,1.86-.58,2.53-.79,1.86-.58,2.53-.78,1.86-.58,2.53-.79,1.78-.56.08-.02,2.79-.87.85-.27,5.77-1.8c-.24-.03-.48-.05-.72-.05h-28.04c-1.43,0-2.72.58-3.66,1.51-.93.94-1.52,2.23-1.52,3.66Z"/><path class="cls-7" d="M1010.3,929.89s227.34,91.63,402.71,71.26"/><polygon class="cls-11" points="1400.15 1020.97 1396.74 1018.02 1411.29 1001.26 1393.51 987.98 1396.21 984.38 1417.86 1000.56 1400.15 1020.97"/><path class="cls-7" d="M553.86,727.37s-63.52-70.78-232.71-111.56"/><polygon class="cls-11" points="340.13 601.75 342.28 605.7 322.8 616.31 334.81 634.97 331.02 637.41 316.4 614.68 340.13 601.75"/><path class="cls-7" d="M774.68,541.97s1.13-95.1-95.84-239.61"/><polygon class="cls-11" points="702.33 304.85 701.24 309.22 679.72 303.85 675.93 325.71 671.49 324.94 676.11 298.31 702.33 304.85"/><rect class="cls-10" x="133.09" y="491.07" width="166.26" height="69.65" rx="28.64" ry="28.64"/><path class="cls-11" d="M193.29,542.9c-1.79-.28-3.31-.75-4.59-1.41-1.27-.65-1.91-1.49-1.91-2.52,0-.35.14-.86.42-1.51.28-.65.62-1.24,1.01-1.75.39-.51.78-.77,1.17-.77.21,0,.67.18,1.38.53,1.03.5,2.02.89,2.97,1.19.95.3,2.07.45,3.34.45,1.59,0,2.86-.45,3.82-1.35.96-.9,1.43-2.17,1.43-3.79,0-1.8-.5-3.16-1.49-4.06-.99-.9-2.56-1.35-4.72-1.35h-1.49c-.57,0-.97-.21-1.22-.64-.25-.42-.37-1.1-.37-2.01v-.96c0-.92.12-1.59.37-2.01s.65-.64,1.22-.64h1.01c1.7,0,3.03-.4,4-1.19.97-.8,1.46-1.86,1.46-3.21s-.36-2.39-1.09-3.15c-.73-.76-1.79-1.14-3.21-1.14-1.17,0-2.14.12-2.92.34-.78.23-1.52.52-2.23.88-.5.28-.87.42-1.11.42-.53,0-1.11-.49-1.72-1.46-.62-.97-.93-1.83-.93-2.57,0-1.24,1-2.19,3-2.86,2-.67,4.43-1.01,7.29-1.01,3.32,0,5.97.84,7.93,2.52,1.96,1.68,2.94,3.93,2.94,6.76,0,1.8-.44,3.39-1.33,4.75-.88,1.36-2.09,2.36-3.61,3v.21c2.05.78,3.59,2,4.61,3.66,1.02,1.66,1.54,3.61,1.54,5.83,0,3.46-1.11,6.2-3.31,8.22-2.21,2.02-5.1,3.02-8.67,3.02-1.56,0-3.23-.14-5.01-.42Z"/><path class="cls-11" d="M215.85,542.27c-.25-.42-.37-1.09-.37-2.01v-.9c0-.92.12-1.59.37-2.01.25-.42.65-.64,1.22-.64h7.05v-23.81l-7.21,1.06c-.6,0-1.03-.49-1.3-1.46-.26-.97-.4-1.97-.4-3,0-.81.46-1.31,1.38-1.48l13.2-2.44c.46,0,.94.13,1.43.4.49.27.74.56.74.88v29.85h5.67c.56,0,.97.21,1.22.64.25.42.37,1.1.37,2.01v.9c0,.92-.12,1.59-.37,2.01-.25.42-.66.64-1.22.64h-20.57c-.57,0-.97-.21-1.22-.64Z"/><path class="cls-11" d="M246.29,521.22c-1.52-1.31-2.28-3.62-2.28-6.95s.76-5.64,2.28-6.95c1.52-1.31,3.41-1.96,5.67-1.96s4.15.65,5.67,1.96c1.52,1.31,2.28,3.62,2.28,6.95s-.76,5.64-2.28,6.95c-1.52,1.31-3.41,1.96-5.67,1.96s-4.15-.65-5.67-1.96ZM254.45,514.27c0-2.9-.83-4.35-2.49-4.35-.95,0-1.62.42-1.99,1.25-.37.83-.56,1.86-.56,3.1s.19,2.35.58,3.23c.39.88,1.04,1.33,1.96,1.33,1.66,0,2.49-1.52,2.49-4.56ZM250.03,542.82c-.19-.12-.29-.29-.29-.5,0-.18.09-.44.26-.8l18.93-34.36c.57-.99,1.34-1.48,2.33-1.48h2.33c.35,0,.63.07.82.21.19.14.29.32.29.53,0,.14-.09.39-.27.74l-18.93,34.36c-.57.99-1.34,1.49-2.33,1.49h-2.33c-.35,0-.63-.06-.82-.19ZM266.81,541.37c-1.52-1.31-2.28-3.62-2.28-6.95s.76-5.64,2.28-6.95c1.52-1.31,3.41-1.96,5.67-1.96s4.15.65,5.67,1.96,2.28,3.62,2.28,6.95-.76,5.64-2.28,6.95c-1.52,1.31-3.41,1.96-5.67,1.96s-4.15-.65-5.67-1.96ZM274.97,534.42c0-2.9-.83-4.35-2.49-4.35-.95,0-1.62.42-1.99,1.25s-.56,1.86-.56,3.1.19,2.35.58,3.23c.39.88,1.04,1.33,1.96,1.33,1.66,0,2.49-1.52,2.49-4.56Z"/><ellipse class="cls-11" cx="159.88" cy="511.98" rx="11.42" ry="10.48"/><path class="cls-11" d="M170.58,526.97l-10.71-8.2-10.71,8.2c-1.1.84-1.73,2.09-1.73,3.4v15c0,.62.55,1.12,1.22,1.12h22.44c.67,0,1.22-.5,1.22-1.12v-15c0-1.31-.64-2.56-1.73-3.4Z"/><path class="cls-8" d="M632.09,250.5c-.57-.98-.86-2.53-.86-4.66v-2.08c0-2.13.29-3.68.86-4.66.57-.98,1.51-1.47,2.82-1.47h16.31v-55.07l-16.68,2.45c-1.39,0-2.39-1.12-3-3.37-.61-2.25-.92-4.56-.92-6.93,0-1.88,1.06-3.02,3.19-3.43l30.54-5.64c1.06,0,2.17.31,3.31.92,1.14.61,1.72,1.29,1.72,2.02v69.06h13.12c1.31,0,2.25.49,2.82,1.47.57.98.86,2.54.86,4.66v2.08c0,2.13-.29,3.68-.86,4.66-.57.98-1.51,1.47-2.82,1.47h-47.59c-1.31,0-2.25-.49-2.82-1.47Z"/><path class="cls-8" d="M708.87,247.74c-4.33-3.47-7.67-8.5-10-15.09-2.33-6.58-3.5-14.45-3.5-23.61s1.17-17.03,3.5-23.61c2.33-6.58,5.66-11.61,10-15.09,4.33-3.47,9.53-5.21,15.58-5.21s11.24,1.74,15.58,5.21c4.33,3.48,7.67,8.5,10,15.09,2.33,6.58,3.5,14.45,3.5,23.61s-1.17,17.03-3.5,23.61c-2.33,6.58-5.66,11.61-10,15.09-4.34,3.48-9.53,5.21-15.58,5.21s-11.24-1.74-15.58-5.21ZM732.36,231.12c1.84-4.99,2.76-12.35,2.76-22.08s-.92-17.09-2.76-22.08c-1.84-4.99-4.48-7.48-7.91-7.48s-6.07,2.5-7.91,7.48c-1.84,4.99-2.76,12.35-2.76,22.08s.92,17.09,2.76,22.08c1.84,4.99,4.48,7.48,7.91,7.48s6.07-2.49,7.91-7.48Z"/><path class="cls-8" d="M768.12,201.81c-3.52-3.02-5.27-8.38-5.27-16.07s1.76-13.04,5.27-16.07c3.51-3.02,7.89-4.54,13.12-4.54s9.61,1.51,13.12,4.54c3.52,3.03,5.27,8.38,5.27,16.07s-1.76,13.04-5.27,16.07c-3.52,3.03-7.89,4.54-13.12,4.54s-9.61-1.51-13.12-4.54ZM787,185.74c0-6.7-1.92-10.06-5.76-10.06-2.21,0-3.74.96-4.6,2.88-.86,1.92-1.29,4.31-1.29,7.18s.45,5.44,1.35,7.48c.9,2.04,2.41,3.07,4.54,3.07,3.84,0,5.76-3.51,5.76-10.55ZM776.76,251.79c-.45-.29-.67-.67-.67-1.17,0-.41.2-1.02.61-1.84l43.79-79.48c1.31-2.29,3.11-3.43,5.4-3.43h5.4c.82,0,1.45.17,1.9.49.45.33.67.74.67,1.23,0,.33-.21.9-.61,1.72l-43.79,79.48c-1.31,2.29-3.11,3.43-5.4,3.43h-5.4c-.82,0-1.45-.14-1.9-.43ZM815.58,248.42c-3.52-3.02-5.27-8.38-5.27-16.07s1.76-13.04,5.27-16.07c3.52-3.02,7.89-4.54,13.12-4.54s9.61,1.51,13.12,4.54c3.51,3.03,5.27,8.38,5.27,16.07s-1.76,13.04-5.27,16.07c-3.52,3.03-7.89,4.54-13.12,4.54s-9.61-1.51-13.12-4.54ZM834.47,232.35c0-6.7-1.92-10.06-5.76-10.06-2.21,0-3.74.96-4.6,2.88-.86,1.92-1.29,4.31-1.29,7.18s.45,5.44,1.35,7.48c.9,2.04,2.41,3.07,4.54,3.07,3.84,0,5.76-3.52,5.76-10.55Z"/><path class="cls-11" d="M573.63,241.56c-.98-.57-1.47-1.51-1.47-2.82v-18.64h-18.52c-1.31,0-2.25-.49-2.82-1.47-.57-.98-.86-2.53-.86-4.66v-.86c0-2.12.29-3.68.86-4.66.57-.98,1.51-1.47,2.82-1.47h18.52v-18.89c0-1.31.49-2.25,1.47-2.82.98-.57,2.53-.86,4.66-.86h1.72c2.12,0,3.68.29,4.66.86.98.57,1.47,1.51,1.47,2.82v18.89h18.77c1.31,0,2.25.49,2.82,1.47.57.98.86,2.54.86,4.66v.86c0,2.13-.29,3.68-.86,4.66-.57.98-1.51,1.47-2.82,1.47h-18.77v18.64c0,1.31-.49,2.25-1.47,2.82-.98.57-2.54.86-4.66.86h-1.72c-2.13,0-3.68-.29-4.66-.86Z"/><rect class="cls-10" x="618.41" y="67.56" width="172.39" height="72.22" rx="28.64" ry="28.64"/><path class="cls-11" d="M680.83,121.3c-1.85-.29-3.44-.78-4.76-1.46-1.32-.68-1.98-1.55-1.98-2.61,0-.37.15-.89.44-1.57.29-.68.64-1.28,1.04-1.81s.81-.8,1.21-.8c.22,0,.7.18,1.43.55,1.06.51,2.09.93,3.08,1.24.99.31,2.14.47,3.46.47,1.65,0,2.97-.47,3.96-1.4.99-.93,1.48-2.25,1.48-3.93,0-1.87-.51-3.27-1.54-4.21s-2.66-1.4-4.89-1.4h-1.54c-.59,0-1.01-.22-1.26-.66-.26-.44-.38-1.14-.38-2.09v-.99c0-.95.13-1.65.38-2.09.26-.44.68-.66,1.26-.66h1.04c1.76,0,3.14-.41,4.15-1.24,1.01-.83,1.51-1.93,1.51-3.33s-.38-2.48-1.13-3.27c-.75-.79-1.86-1.18-3.33-1.18-1.21,0-2.22.12-3.02.36-.81.24-1.58.54-2.31.91-.51.29-.9.44-1.15.44-.55,0-1.15-.5-1.79-1.51-.64-1.01-.96-1.9-.96-2.67,0-1.28,1.04-2.27,3.11-2.97,2.07-.7,4.59-1.04,7.56-1.04,3.45,0,6.19.87,8.22,2.61,2.03,1.74,3.05,4.08,3.05,7.01,0,1.87-.46,3.51-1.38,4.92-.92,1.41-2.16,2.45-3.74,3.11v.22c2.13.81,3.72,2.07,4.78,3.79,1.06,1.72,1.59,3.74,1.59,6.05,0,3.59-1.15,6.43-3.44,8.52-2.29,2.09-5.29,3.13-8.99,3.13-1.61,0-3.35-.15-5.2-.44Z"/><path class="cls-11" d="M710.03,120.28c-1.96-.97-3.57-2.53-4.81-4.67-1.25-2.14-1.87-4.88-1.87-8.22,0-6.27,1.4-11.24,4.21-14.93,2.8-3.68,5.78-6.25,8.94-7.7,3.15-1.45,5.26-2.17,6.32-2.17.59,0,1.08.28,1.48.85.4.57.71,1.22.93,1.95s.33,1.32.33,1.76c0,.4-.05.68-.14.83-.09.15-.28.26-.58.33-2.79.84-5.25,2.2-7.4,4.07s-3.66,4.12-4.54,6.76c1.69-.92,3.52-1.37,5.5-1.37,1.58,0,3.19.38,4.84,1.15,1.65.77,3.06,2.03,4.23,3.77,1.17,1.74,1.76,3.99,1.76,6.74s-.62,5.15-1.87,6.98c-1.25,1.83-2.84,3.18-4.78,4.04-1.94.86-4.03,1.29-6.27,1.29s-4.33-.49-6.3-1.46ZM719.7,113.71c.9-1.06,1.35-2.42,1.35-4.07s-.44-3.01-1.32-3.99c-.88-.97-2.11-1.46-3.68-1.46-1.32,0-2.77.44-4.34,1.32-.04.55-.05,1.39-.05,2.53,0,2.57.43,4.42,1.29,5.55.86,1.14,2.01,1.71,3.44,1.71,1.32,0,2.43-.53,3.33-1.59Z"/><path class="cls-11" d="M735.79,98.81c-1.58-1.36-2.36-3.76-2.36-7.2s.79-5.85,2.36-7.2c1.58-1.36,3.54-2.03,5.88-2.03s4.31.68,5.88,2.03c1.58,1.36,2.36,3.76,2.36,7.2s-.79,5.85-2.36,7.2c-1.58,1.36-3.54,2.03-5.88,2.03s-4.31-.68-5.88-2.03ZM744.25,91.61c0-3.01-.86-4.51-2.58-4.51-.99,0-1.68.43-2.06,1.29-.38.86-.58,1.93-.58,3.22s.2,2.44.6,3.35c.4.92,1.08,1.38,2.03,1.38,1.72,0,2.58-1.58,2.58-4.73ZM739.66,121.22c-.2-.13-.3-.3-.3-.52,0-.18.09-.46.27-.83l19.63-35.63c.59-1.03,1.39-1.54,2.42-1.54h2.42c.37,0,.65.07.85.22.2.15.3.33.3.55,0,.15-.09.4-.28.77l-19.63,35.63c-.59,1.03-1.39,1.54-2.42,1.54h-2.42c-.37,0-.65-.06-.85-.19ZM757.07,119.7c-1.58-1.36-2.36-3.76-2.36-7.2s.79-5.85,2.36-7.2,3.54-2.04,5.88-2.04,4.31.68,5.88,2.04,2.37,3.76,2.37,7.2-.79,5.85-2.37,7.2c-1.58,1.36-3.54,2.03-5.88,2.03s-4.31-.68-5.88-2.03ZM765.53,112.5c0-3-.86-4.51-2.58-4.51-.99,0-1.68.43-2.06,1.29-.39.86-.58,1.93-.58,3.22s.2,2.44.61,3.35c.4.92,1.08,1.38,2.03,1.38,1.72,0,2.58-1.58,2.58-4.73Z"/><ellipse class="cls-11" cx="646.19" cy="89.24" rx="11.84" ry="10.87"/><path class="cls-11" d="M657.29,104.77l-11.1-8.5-11.1,8.5c-1.14.87-1.8,2.16-1.8,3.52v15.55c0,.64.57,1.16,1.27,1.16h23.26c.7,0,1.27-.52,1.27-1.16v-15.55c0-1.36-.66-2.65-1.8-3.52Z"/><rect class="cls-10" x="1495.44" y="844.5" width="169.7" height="71.09" rx="28.64" ry="28.64"/><path class="cls-11" d="M1568.5,896.49c0-.25.11-.6.32-1.03l13.42-29.61h-14.13c-.58,0-.99-.22-1.25-.65-.25-.43-.38-1.12-.38-2.06v-.92c0-.94.13-1.62.38-2.06.25-.43.67-.65,1.25-.65h21.43c.29,0,.63.59,1.03,1.79.4,1.19.6,2.22.6,3.08,0,.25-.04.49-.11.7l-14.24,31.34c-.18.4-.53.68-1.05.84-.52.16-1.22.24-2.08.24h-2c-2.13,0-3.19-.34-3.19-1.03Z"/><path class="cls-11" d="M1598.16,875.27c-1.55-1.33-2.33-3.7-2.33-7.09s.78-5.76,2.33-7.09,3.48-2,5.79-2,4.24.67,5.79,2,2.33,3.7,2.33,7.09-.78,5.76-2.33,7.09c-1.55,1.34-3.48,2-5.79,2s-4.24-.67-5.79-2ZM1606.5,868.18c0-2.96-.85-4.44-2.54-4.44-.97,0-1.65.42-2.03,1.27-.38.85-.57,1.9-.57,3.17s.2,2.4.6,3.3c.4.9,1.06,1.35,2,1.35,1.7,0,2.54-1.55,2.54-4.65ZM1601.98,897.32c-.2-.13-.3-.3-.3-.51,0-.18.09-.45.27-.81l19.32-35.07c.58-1.01,1.37-1.52,2.38-1.52h2.38c.36,0,.64.07.84.22.2.14.3.33.3.54,0,.14-.09.4-.27.76l-19.32,35.07c-.58,1.01-1.37,1.52-2.38,1.52h-2.38c-.36,0-.64-.06-.84-.19ZM1619.11,895.84c-1.55-1.33-2.33-3.7-2.33-7.09s.78-5.75,2.33-7.09c1.55-1.33,3.48-2,5.79-2s4.24.67,5.79,2c1.55,1.34,2.33,3.7,2.33,7.09s-.78,5.76-2.33,7.09c-1.55,1.33-3.48,2-5.79,2s-4.24-.67-5.79-2ZM1627.44,888.75c0-2.96-.85-4.44-2.54-4.44-.97,0-1.65.42-2.03,1.27s-.57,1.9-.57,3.17.2,2.4.6,3.3c.4.9,1.06,1.35,2,1.35,1.7,0,2.54-1.55,2.54-4.66Z"/><ellipse class="cls-11" cx="1533.95" cy="865.85" rx="11.65" ry="10.7"/><path class="cls-11" d="M1544.88,881.14l-10.93-8.36-10.93,8.36c-1.12.86-1.77,2.13-1.77,3.47v15.31c0,.63.56,1.14,1.25,1.14h22.9c.69,0,1.25-.51,1.25-1.14v-15.31c0-1.34-.65-2.61-1.77-3.47Z"/><path class="cls-12" d="M337.57,920.98c-20.81,1.7-38.97,12.01-52.93,27.28s-20.87,33.11-32.58,48.98c-6.26,8.48-14.06,15.96-24.12,19.61-2.41.88-5.74,2.28-8.26,1.75-1.26-.26-2.58-1.07-3.75-1.56-11.92-4.95-23.85-9.9-35.77-14.85-8.84-3.67-17.86-8.49-27.05-11.22-.52-.15-.47.68-.07.63.55-.06,1.08-.29,1.63-.35,2.42-.23,5.01-1.37,7.28-2.2,7.6-2.77,14.77-6.79,20.9-12.08,8.56-7.39,14.17-17.43,19.88-27.03,6.12-10.27,12.1-20.78,20.11-29.73,14.05-15.7,33.63-22.93,54.52-20.7,2.79.3,5.2,1.42,7.82,2.41,6.68,2.51,13.36,5.03,20.04,7.54,10.74,4.04,21.54,7.95,32.28,11.99.33.13.48-.41.15-.53-9.51-3.58-18.96-7.28-28.47-10.86-6.62-2.49-13.24-4.98-19.86-7.47-3.11-1.17-6.31-2.78-9.54-3.59-3.98-.99-8.56-.78-12.62-.62-9.62.38-19.32,2.53-27.82,7.17-20.63,11.26-30.88,34.03-42.84,53.03-7.1,11.28-15.28,20.44-27.34,26.48-5.16,2.59-10.83,4.81-16.55,5.79-.44.08-.32.65,0,.78,20.33,8.42,40.66,16.84,60.99,25.25,1.9.79,4.45,2.46,6.53,2.68,3.17.33,7.68-1.79,10.48-3,4.29-1.86,8.22-4.45,11.74-7.52,14.4-12.54,21.43-31.07,31.92-46.58,14.79-21.87,36.28-38.76,63.28-41.04.29-.02.29-.48,0-.45Z"/><path class="cls-12" d="M326.33,924.32c2.56.92,5.11,1.87,7.68,2.79,1.4.5,2.96.85,4.29,1.51.97.48.89-.21-.76-.16-1.52.05-3.09.34-4.59.57-11.48,1.81-22.31,6.47-31.76,13.2-19,13.52-29.22,33.18-41.07,52.53-5.96,9.74-12.88,19.47-22.73,25.61-5.38,3.35-12.46,7.18-18.63,4.62-12.97-5.38-25.94-10.76-38.91-16.15-6.89-2.86-13.79-5.72-20.68-8.58-1.52-.63-3.04-1.28-4.56-1.89-.5-.2-.26.5.59.57,2.54.22,6-1.5,8.29-2.33.48-.18.28-.96-.21-.78-2.89,1.05-5.94,2.19-9.04,2.42-.47.03-.52.62-.11.79,20.33,8.42,40.66,16.84,60.99,25.25,1.9.79,4.45,2.46,6.53,2.68,3.17.33,7.68-1.79,10.48-3,4.29-1.86,8.22-4.45,11.74-7.52,14.4-12.54,21.43-31.07,31.92-46.58,14.79-21.87,36.27-38.75,63.28-41,.31-.03.37-.43.07-.54-4.22-1.55-8.41-3.17-12.62-4.75-.46-.17-.66.57-.2.74h0Z"/><path class="cls-12" d="M326.66,931.72c2.62.88,5.24,1.75,7.86,2.62,1.59.53,3.19,1.02,4.78,1.55,2.61.87-2.18.16-3.34.32-11.55,1.58-22.49,6.02-32.08,12.6-18.83,12.93-29.46,31.97-40.87,51.07-5.88,9.84-12.5,19.8-22.01,26.5-5.03,3.54-13.73,8.91-19.96,6.33-12.32-5.11-24.65-10.23-36.97-15.34-7.26-3.01-14.52-6.03-21.78-9.04-1.71-.71-3.81-2.05-5.65-2.34-1.54-.25.28.26-.64.43,2.55-.47,5.04-1.24,7.51-2.04.49-.16.28-.94-.21-.78-2.51.82-5.04,1.61-7.65,2.07-.44.08-.32.64,0,.78,20.33,8.42,40.66,16.84,60.99,25.25,1.9.79,4.45,2.46,6.53,2.68,3.17.33,7.68-1.79,10.48-3,4.29-1.86,8.22-4.45,11.74-7.52,14.4-12.54,21.43-31.07,31.91-46.58,14.72-21.77,36.31-38.93,63.28-40.98.33-.02.39-.45.08-.56-4.59-1.62-9.19-3.2-13.79-4.75-.48-.16-.68.59-.21.75h0Z"/><path class="cls-12" d="M238.27,932.89c-5.91,2.59-11.8,12.07-10.68,18.58.89,5.15,4.46,4.75,7.96,2,5.37-4.21,8.77-10.98,14.62-14.51,3.64-2.2,9.85-5.02,10.97,1.84.55,3.39-1.88,6.99-3.95,9.42-3.67,4.3-8.75,7.17-12.37,11.47-.21.25.07.72.38.5,6.18-4.52,16.04-11.28,16.87-19.63.93-9.37-8.27-7.47-13.49-3.66s-8.19,9.48-12.91,13.49c-1.07.91-3.17,2.82-4.78,2.59-2.96-.43-2.92-5.12-2.5-7.21,1.03-5.19,5.32-12.02,10.07-14.54.22-.12.03-.42-.19-.32h0Z"/><path class="cls-12" d="M258.87,957.15c-11.2-4.6-22.94-7.89-34.49-11.46-.57-.18-.81.72-.25.89,11.56,3.56,23.21,6.99,34.58,11.13.36.13.5-.43.16-.57h0Z"/><path class="cls-12" d="M267.69,948.47c-7.61-1.17-14.25-4.89-21.59-6.92-6.31-1.74-12.51-2.53-18.46-5.44-.33-.16-.73.27-.42.54,4.56,3.82,11.8,4.13,17.36,5.5,7.84,1.93,14.88,6.21,23.02,6.96.36.03.45-.59.09-.64h0Z"/><path class="cls-12" d="M223.77,932.03c-9.17,8.65-12.51,24.72-1.19,33.3,10.64,8.07,27.17,3.8,37.05-3.38,8.64-6.27,16.61-18.81,10.96-29.57-4.55-8.67-16.14-9.95-24.83-8.9-9.6,1.16-22.81,5.74-25.79,16.14-.13.44.52.6.68.19,5.61-14.82,32.28-20.42,44.65-11.8,9.82,6.85,6.03,20.68-.78,28.25-8.22,9.13-21.85,14.32-34,11.63-6.96-1.54-12.33-6.51-13.94-13.52-1.89-8.22,1.81-16.24,7.49-22.04.18-.19-.1-.47-.29-.29h0Z"/><path class="cls-12" d="M1350.04,500.78c-2.59-17.37-12.2-31.98-25.8-42.85-12.9-10.32-28.51-15.52-42.31-24.32-7.19-4.59-13.77-10.4-17.48-18.22-1.02-2.14-2.64-5.38-2.37-7.76.13-1.17.86-2.51,1.23-3.62,3.46-10.15,6.92-20.3,10.38-30.44,2.62-7.68,5.62-15.33,7.88-23.12.13-.45-.79-.4-.66.05s.34.95.4,1.41c.24,1.85,1.35,3.9,2.09,5.6,2.72,6.27,6.49,12.14,11.28,17.02,13.73,14,34.66,18.52,49.94,30.61,13.66,10.82,20.74,26.75,19.98,44.14-.1,2.32-.86,4.31-1.56,6.63-1.74,5.72-3.48,11.44-5.21,17.15-2.8,9.22-5.47,18.48-8.27,27.7-.1.34.43.49.53.15,2.46-8.11,5.06-16.18,7.53-24.29s6.12-16.79,7.68-25.26c1.85-10.07-1.63-22.85-6.49-31.51-9.8-17.45-29.64-25.21-46.4-34.15-14.49-7.73-26.81-19.1-30.78-35.65-.1-.41-.66-.36-.78,0-5.97,17.56-11.94,35.12-17.9,52.68-.55,1.63-1.67,3.66-1.77,5.4-.16,2.82,2.17,6.91,3.5,9.34,1.71,3.13,3.9,5.98,6.41,8.52,11.43,11.59,27.65,16.46,41.36,24.6,18.86,11.19,33.76,28.11,37.15,50.32.04.29.48.17.44-.12Z"/><path class="cls-12" d="M1346.55,491.58c-.66,2.28-1.34,4.55-1.98,6.84-.22.76-.4,3.04-1,3.6-.09.08.01-1.71-.08-2.59-.15-1.46-.62-2.96-.99-4.36-2.36-8.83-6.78-16.99-12.6-24.01-12.27-14.79-29.01-22.21-45.6-30.93-8.5-4.47-17.07-9.73-22.76-17.66-3.16-4.4-6.65-10.02-4.82-15.38,3.73-10.93,7.45-21.86,11.18-32.78,2.02-5.91,4.03-11.82,6.04-17.74.47-1.38,1.21-2.88,1.47-4.32.15-.79-.43.07-.45.78-.05,2.05,1.55,4.66,2.35,6.51.21.48.9.06.7-.41-1.02-2.34-2.12-4.85-2.49-7.42-.06-.43-.66-.34-.78,0-5.97,17.56-11.94,35.12-17.9,52.68-.55,1.63-1.67,3.66-1.77,5.4-.16,2.82,2.17,6.91,3.5,9.34,1.71,3.13,3.9,5.98,6.41,8.52,11.43,11.59,27.65,16.46,41.36,24.6,18.87,11.2,33.75,28.1,37.1,50.33.04.28.46.24.53,0,1.07-3.61,2.21-7.19,3.3-10.79.14-.47-.6-.68-.74-.2h0Z"/><path class="cls-12" d="M1340.38,492.26c-.56,2.12-1.12,4.25-1.67,6.37-.35,1.37-.68,2.74-1.04,4.1,0,.02-.26,1.26-.31,1.26.77-.08-.21-4.12-.27-4.38-1.93-8.98-5.96-17.39-11.53-24.68-11.72-15.33-28.28-23.4-45.03-31.94-8.27-4.22-16.65-8.95-22.83-16.02-3.77-4.32-8.98-11.54-7.36-17.43,2.95-10.71,7.23-21.21,10.82-31.72,2.1-6.15,4.19-12.3,6.29-18.45.58-1.69,1.18-3.37,1.73-5.07.4-1.22-.25.13-.5-.56.74,2.03,1.3,4.11,2.1,6.13.19.48.97.27.78-.21-.82-2.05-1.61-4.13-2.14-6.28-.1-.41-.65-.36-.78,0-5.97,17.56-11.94,35.12-17.9,52.68-.55,1.63-1.67,3.66-1.77,5.4-.16,2.81,2.17,6.91,3.5,9.34,1.71,3.13,3.9,5.98,6.41,8.52,11.43,11.6,27.65,16.46,41.36,24.6,18.78,11.15,33.91,28.13,37.09,50.34.04.3.48.25.55,0,1.12-3.92,2.19-7.84,3.24-11.78.13-.49-.62-.69-.75-.21h0Z"/><path class="cls-12" d="M1334.69,418.48c-2.44-4.64-10.04-8.82-15.31-8.14-4,.51-5.19,3.04-2.84,6.19,3.57,4.78,9.61,7.09,13.23,11.75,1.72,2.21,4.58,6.7,1.54,9.06-2.75,2.14-7.45-.28-9.75-1.93-3.99-2.85-6.71-7.08-10.64-9.96-.31-.23-.59.24-.38.5,4.05,4.94,10.48,13.01,17.57,13.06s5.98-5.71,3.26-10c-2.88-4.54-8.17-7.08-12.05-10.67-.97-.9-2.49-2.11-2.96-3.37-1.2-3.25,2.16-4.1,4.85-3.88,4.54.37,10.64,3.72,13.14,7.59.13.2.44.03.32-.19h0Z"/><path class="cls-12" d="M1315.54,437.04c3.28-9.59,5.38-19.59,7.73-29.43.14-.58-.75-.82-.89-.25-2.35,9.86-4.62,19.77-7.4,29.52-.1.37.44.51.57.16h0Z"/><path class="cls-12" d="M1323.29,443.86c.67-6.72,3.61-12.76,4.81-19.34.93-5.08,1.41-9.96,3.36-14.78.16-.38-.42-.56-.63-.26-3.03,4.25-2.8,10.5-3.77,15.45-1.25,6.42-4.24,12.32-4.43,18.94-.01.43.61.41.65,0h0Z"/><path class="cls-12" d="M1334.63,406.3c-7.53-6.99-20.46-9.18-27.42-.01s-2.59,23,3.77,31.06c5.69,7.2,16.78,13.59,25.78,8.26,6.85-4.06,7.55-13.33,6.43-20.39-1.3-8.26-5.91-19.73-15.11-21.72-.44-.1-.62.54-.19.68,15.02,4.82,23.2,41.3,2.16,42.23-13.9.61-24.45-14.5-25.22-27.12-.41-6.67,1.77-13.3,7.94-16.6,7.25-3.88,15.67-1.07,21.57,3.9.2.17.48-.11.29-.29h0Z"/><path class="cls-10" d="M1369.22,305.84c16.19-16.47,31.91-33.4,47.83-50.12,7.42-7.79,14.84-15.59,22.42-23.23,2.4-2.42,4.8-4.85,7.3-7.16.58-.53,1.34-1.53,2.06-1.83,1.91-.81,2.48.82,4.35,2.34,15.73,12.73,32.76,23.87,47.59,37.69.24.22.66.26.89,0,22.77-25.92,45.52-51.86,68.25-77.82.53-.61-.35-1.5-.89-.89-14.84,16.94-29.69,33.88-44.54,50.81-6.86,7.82-13.72,15.63-20.59,23.45-1.04,1.19-1.63,2.65-3.43,2.44-.82-.1-3.05-2.75-3.71-3.32-2.15-1.87-4.33-3.69-6.54-5.48-5.53-4.48-11.22-8.76-16.91-13.02s-11.15-8.31-16.61-12.63c-1.61-1.27-5.15-5.67-7.29-5.42s-5.44,4.65-6.83,6.02c-11.46,11.28-22.43,23.06-33.49,34.73-13.51,14.26-26.93,28.6-40.56,42.74-.44.46.25,1.15.7.7h0Z"/><path class="cls-10" d="M1365.45,291.75c18.94-19.24,37.96-38.39,57.12-57.41,7.33-7.27,14.62-14.59,22.13-21.67,1.02-.96,2.99-3.15,3.82-3.09,1.08.08,2.81,1.76,3.66,2.36,2.55,1.81,5.01,3.73,7.47,5.65,12.85,10.09,25.45,20.65,37.36,31.83.24.22.66.26.89,0,21.53-24.1,43.52-47.78,64.82-72.09.53-.61-.35-1.5-.89-.89-15.73,17.95-31.73,35.65-47.82,53.28-3.25,3.56-6.5,7.13-9.73,10.7-1.6,1.77-3.19,3.54-4.78,5.31-.49.54-1.48,2.2-2.34,2.11-.8-.08-2.56-2.36-3.15-2.9-8.03-7.3-16.32-14.32-24.72-21.19-6.06-4.96-12.2-10.59-18.98-14.57-2.56-1.5-3.06-.59-5.1,1.3-11.67,10.77-22.76,22.22-33.98,33.45-15.6,15.6-31.17,31.23-46.49,47.1-.44.46.25,1.15.7.7h0Z"/><path class="cls-10" d="M1569.72,185.62c4.64,4.18,9.39,8.23,14.1,12.32.4.34.95.1.99-.41,1.29-14.67,1.61-29.38,1.05-44.09-.02-.4-.37-.68-.77-.59-13.42,3.29-26.39,7.8-39.47,12.17-.4.13-.65.71-.27,1.03,5.09,4.29,10.35,8.42,15.43,12.7.37.31.9-.22.53-.53-4.07-3.43-8.02-7.07-12.11-10.52-.59-.5-2.23-1.43-2.56-2.16-.36-.82-.59.55.28-.1.31-.23,2.97-.56,3.82-.85,5.44-1.84,10.87-3.73,16.35-5.46,2.58-.82,5.17-1.6,7.77-2.34,1.96-.56,7.68-3.05,9.26-1.89s.79,7.88.81,9.97c.03,3.2.01,6.39-.05,9.59-.07,3.52-.19,7.05-.37,10.57-.07,1.32.29,9.95-.7,10.57-1.43.89-11.58-9.06-13.46-10.63-.44-.37-1.07.24-.64.64h0Z"/><path class="cls-11" d="M1361.9,339.31c24.62-27.81,49.71-55.19,74.3-83.02.3-.34-.18-.83-.5-.5-25.77,26.67-50.37,54.67-74.5,82.81-.42.49.28,1.19.71.71h0Z"/><path class="cls-11" d="M1407.18,230.64c23.91-23.48,47.99-46.8,71.55-70.63.32-.32-.17-.82-.5-.5-24.21,23.17-47.92,46.87-71.78,70.4-.47.47.26,1.2.73.73h0Z"/><path class="cls-11" d="M1490.88,293.44c28.03-29.44,55.61-59.96,79.92-92.57.24-.32-.3-.74-.56-.43-26.11,31.35-52.01,62.63-80.09,92.27-.46.48.27,1.21.73.73h0Z"/><path class="cls-11" d="M271.25,305.51c-5.24.75-10.39.37-15.19-2.08-1.47-.75-3.65-1.96-4.66-3.17-2.45-2.93-.8-5.01,2.14-6.44,4.57-2.22,10.82-2.16,14.14-6.46.11-.14.07-.35,0-.49-1.82-3.89-3.64-7.78-5.46-11.67-.27-.58-1.13-.07-.86.5,1.48,3.16,4.31,7.05,4.91,10.45.32,1.79,1.88.57-1.43,2.56-1.69,1.02-3.62,1.55-5.49,2.14-2.81.89-5.93,1.67-8.34,3.47-4.29,3.2-1.39,5.93,2.19,8.34,5.28,3.55,11.97,4.77,18.11,3.04.12-.03.06-.19-.05-.18h0Z"/><path class="cls-11" d="M257.92,276.92c3.03-1.59,8.99-3,10.47-6.38.87-1.98.84-6.25-1-7.72-.87-.69-1.96-.58-2.96-.75-3.75-.64-7.02-1.55-10.45-3.31-6.02-3.08-10.79-7.67-14.69-13.12-.32-.45-1.07-.03-.75.44,4.3,6.51,10.46,11.71,17.69,14.71,2.57,1.07,10.16,1.69,11.49,4.18,3.21,5.99-6.48,9.38-10.13,11.36-.39.21-.04.8.35.6h0Z"/><path class="cls-11" d="M240.32,246.81c-2.63-3.35-1.1-7.32-2.55-10.95-.78-1.96-2.26-3.35-3.91-4.61-6.46-4.92-14.13-8.95-21.17-12.98-.41-.24-.76.38-.37.63,6.86,4.47,14.46,8.14,20.99,13.06,3.91,2.95,3.91,6.28,4.59,10.61.31,1.98.71,3.15,2.08,4.58.22.23.53-.1.34-.34h0Z"/><path class="cls-11" d="M270.36,306.03c2.64,3.64-1.47,5.48-2.54,8.56-.75,2.16-.49,4.33.66,6.29.23.39.83.04.61-.36-1.11-2.06-1.23-4.54-.11-6.64.78-1.45,2.4-1.95,3.21-3.25,1.1-1.77-.15-3.62-1.33-5-.23-.27-.72.09-.5.39h0Z"/><path class="cls-11" d="M267.43,314.45c2.52,6.47,6.88,12.75,3.41,19.61-1.01,1.99-3.16,5.32-4.87,5.89-2.53.85-6.4.32-9.01.31-11.38-.03-24.56.28-35.07-4.54-.47-.21-.87.43-.41.7,5.8,3.36,12.9,3.64,19.43,4.13,7.76.58,16.3,1.48,24.03.41,1.81-.25,3.43-.6,4.57-2.14.74-1,.33-1.11.89-2.19.89-1.72,2.84-3.3,3.59-5.12s.18-2.94-.4-4.64c-1.46-4.28-3.78-8.53-5.81-12.56-.1-.19-.43-.06-.35.15h0Z"/><path class="cls-11" d="M212.24,218.31c4.16-12.86-6.83-27.95-20.24-28.7-.5-.03-.57.62-.23.86,1.83,1.33,2.94,2.82,3.88,4.83.19.4.87.12.71-.3-.39-1.07-.56-1.6-1.22-2.56-.5-.72-1.08-1.37-1.76-1.93-.34-.25-.09-.16.74.26,2.87-.69,9.19,4.43,11.12,6.12,6.65,5.85,7.04,13.22,6.79,21.39,0,.12.17.13.2.03h0Z"/><path class="cls-11" d="M195.81,197.05c-4.92-1.23-9.87-2.36-14.82-3.49-3.69-.85-7.72-2.33-11.54-2.28-4.04.05-10.38,1.89-12.68,5.49-.21.33.19.63.49.49,3.31-1.48,9.57,2.4,11.61,4.68.84.95,1.4.17-.39.3-1.23.09-2.49,0-3.72.06-7.97.38-15.8,2.35-22.77,6.29-.28.16-.22.6.09.68,2.79.74,5.2,2.4,6.93,4.72.27.36.88.01.61-.36-1.58-2.15-3.27-3.12-5.51-4.43-1.74-1.02-2.08-.27.43-1.16,2.74-.97,5.23-2.32,8.06-3.09,5.58-1.51,11.66-2.26,17.46-1.85.36.03.49-.44.28-.67-2.26-2.55-4.51-4.07-7.7-5.17-2.81-.97-7.48.06-2.68-2.5,10.8-5.76,24.6.3,35.8,2.49.12.02.17-.15.05-.18h0Z"/><path class="cls-11" d="M221.35,298.65c-1.53-.02-2.74.38-4.11.98-1.28.55-2.31,1.21-3.77.95-1.97-.01-2.84-1.48-2.62-4.4.97-.87,1.98-1.69,3.03-2.46,3.04-2.27,6.49-4.01,7.27-8.04.04-.2-.02-.46-.23-.56-3.14-1.54-5.44-.5-6.42-4.79-.14-.61-1.07-.35-.93.26.28,1.26.56,3.02,1.69,3.86.97.72,2.04.4,3.12.77,3.97,1.39-1.43,5.08-3.07,6.29-1.82,1.33-4.42,2.78-5.7,4.67-1.47,2.16-.51,3.83,1.8,4.72,3.94,1.53,6.24-1.3,9.97-2.07.1-.02.08-.18-.02-.18h0Z"/><path class="cls-11" d="M214,280.86c2.68-1.85,12.16-11.7,5.57-14.33-2.35-.94-5.22,1.08-7.59,1-6.45-.22-11.24-6.51-13.8-11.67-.25-.51-.98-.06-.75.44,2.41,5.4,6.67,10.19,12.58,11.76,2.33.62,3.77-.33,6.09-.44,9.76-.43.36,10.65-2.45,12.65-.36.26-.02.85.35.6h0Z"/><path class="cls-11" d="M198.14,255.4c-1.5-14.2-13.77-24.49-26.79-28.47-.46-.14-.62.54-.19.7,12.65,4.95,24.32,13.56,26.57,27.83.04.23.44.18.42-.06h0Z"/><path class="cls-11" d="M218.49,299.83c1.59-.66,3.31-.75,4.84.14,1.8,1.04,2.4,2.86.94,4.49-.31.35.15.79.5.5,1.89-1.52,1.57-3.76-.18-5.25s-4.41-1.74-6.38-.53c-.33.2-.11.81.27.65h0Z"/><path class="cls-11" d="M186.6,300.34c.12,0,.12-.19,0-.19s-.12.19,0,.19h0Z"/><path class="cls-11" d="M225.26,303.97c-2.76,1.15-4.22,4.07-3.46,7,.45,1.74,1.67,3.51,2.55,5.03,1.49,2.62,2.09,5.82.6,8.79-.83,1.67-3.35,2.9-4.98,3.73-5.11,2.61-11.99,4.61-17.72,5.55-6.16,1.01-12.21-1.18-18.09-2.71-.49-.13-.68.6-.21.76,5.23,1.77,10.93,3.69,16.54,3.26,5.57-.43,11.33-2.68,16.55-4.53,3.77-1.34,10.22-4.41,10.72-9.07.65-6.01-10.53-11.86-2.3-17.3.25-.16.09-.64-.22-.51h0Z"/><path class="cls-11" d="M176.12,229.76c-1.63-8.79-12.29-11.98-20.22-10.85-2.84.4-5.28,1.14-8.19,1.28s-6.04.38-9.02.95c-19.78,3.78-36.98,20.37-43.93,38.92-3.21,8.57-6,19.88-3.89,29.12,4.87,21.33,23.41,35.45,35.02,52.87,7.85,11.77,9.74,25.02,8.69,38.92-.75,9.86-2.54,19.98,4.24,28.19.28.34.74-.14.48-.48-6.42-8.07-4.52-18.2-3.74-27.71.81-10.04.29-20.13-3.53-29.57-7.39-18.28-24.55-30.89-34.19-47.92-3.32-5.87-6.51-12.65-6.73-19.53-.1-3.19.59-6.51,1.07-9.64,2.95-19.36,13.95-36.18,30.92-46.28,7.91-4.7,16.24-6.64,25.31-7.12,2.7-.14,4.99-.84,7.65-1.22,7.55-1.08,17.9,1.77,19.6,10.19.06.3.51.17.45-.12h0Z"/><path class="cls-11" d="M171.59,226.46c-8.28,8.16-4.87,21.58-5.84,31.94-.34,3.6-1.12,7.07-3.01,10.19-1.43,2.37-2.98,4.49-4.02,7.08-2.35,5.91-2.9,12.73.08,18.5.18.35.77.11.64-.27-2.51-7.34-1.9-14.9,2.07-21.66,2.5-4.26,4.45-7.46,5.07-12.52,1.34-10.93-2.37-23.73,5.39-32.89.22-.26-.13-.63-.38-.38h0Z"/><path class="cls-11" d="M158.12,305.97c-4.93,8.72-17.19-3.05-19.67-7.84-2.18-4.2-3.27-11,2.4-12.92,4.41-1.49,8.86,1.48,12.36,3.83.5.34.94-.46.47-.8-4.3-3.12-10.4-6.6-15.48-2.91-3.99,2.9-2.96,8.09-1.22,12.03,2.41,5.45,17.09,19.17,21.48,8.76.08-.2-.24-.33-.34-.14h0Z"/><path class="cls-11" d="M153.57,301.01c-2.47-.03-3.23-2.37-2.1-4.18.38-.61.96-1.11,1.22-1.8.36-.98.09-1.79-.54-2.58-1.7-2.14-4.89-3.53-7.11-1.35-.28.27.09.79.43.55,1.24-.87,2.77-.96,4.1-.23,1.26.69,2.5,2.02,2.13,3.62-.28,1.2-1.66,1.81-1.71,3.21-.07,1.97,1.76,3.47,3.64,3.16.22-.04.16-.38-.05-.39h0Z"/><path class="cls-11" d="M157.58,307.41c-1.72,8.06,4.78,15.85,6.88,23.31,2.85,10.12,2.67,20.6.11,30.75-.1.4.51.57.62.17,2.33-8.27,2.81-16.88,1.34-25.36-.77-4.45-2.08-8.8-3.88-12.95-2.27-5.23-5.4-9.94-4.78-15.89.02-.17-.27-.21-.3-.04h0Z"/><path class="cls-11" d="M213.82,279.67c-1.76,1.34-5.41,2.18-6-.78-.08-.41-.67-.28-.7.09-.11,1.43,1.26,2.45,2.57,2.63,1.59.22,3.32-.43,4.45-1.52.21-.2-.08-.6-.32-.42h0Z"/><path class="cls-11" d="M157.68,306.79c1.58,5.42,5.04,10.24,9.23,13.95.37.32.9-.2.54-.54-4.13-3.95-6.93-8.47-9.3-13.61-.12-.27-.55-.08-.47.2h0Z"/><path class="cls-11" d="M201.36,333.79c-8.75,5.48-6.42,16.86-3.78,25.08.18.57,1.07.34.91-.25-2.32-8.41-4.73-18.13,3.21-24.39.25-.2-.07-.6-.34-.44h0Z"/><path class="cls-11" d="M236.08,339.3c-4.95,6.72-5.5,15.43-2.26,22.98.16.36.8.1.65-.27-3.12-7.65-2.12-15.44,2.12-22.42.2-.33-.29-.59-.51-.3h0Z"/><path class="cls-11" d="M211.45,218.12c-4.61,1.29-9.16,2.77-13.73,4.2-1.81.56-3.83.97-5.49,1.93-3.54,2.05-4.23,6.03-4.23,9.82,0,.55.85.55.85,0-.02-4.47,1.12-8.17,5.48-9.84,5.63-2.17,11.55-3.65,17.24-5.68.27-.1.16-.51-.12-.43h0Z"/><path class="cls-10" d="M267.69,296.03c38.43.17,76.63-11.07,112.25-24.67,10.94-4.18,24.13-10.76,27.16-23.21,1.97-8.12-.87-16.94-2.68-24.82-2.18-9.54-4.63-19.01-7.34-28.42-3.9-13.51-6.43-28.58-20.28-35.21-6.84-3.27-13.52-1.55-20.61-.1-4.85.99-9.71,1.9-14.54,3-12.22,2.8-24.42,5.91-36.36,9.74-8.7,2.79-21.99,7.01-21.93,18.29.02,4.34,1.98,8.92,3.13,13.06,1.3,4.67,2.59,9.35,3.82,14.04,2.57,9.8,4.92,19.69,6.35,29.73s2.79,21.83-3.14,30.57-16.64,14.76-26.77,16.49c-.48.08-.27.81.2.73,11.82-1.85,25.63-9.96,29.93-21.69,4.87-13.29.58-30.01-2.42-43.29-1.79-7.94-3.9-15.8-6.07-23.65-1.01-3.66-2.12-7.3-3.04-10.98-1.72-6.83.15-12.03,5.84-16.15,8.11-5.87,19.9-7.96,29.39-10.53,10.25-2.78,20.59-5.4,31.03-7.42,7.49-1.45,15.9-4.49,23.29-1.5s12.41,8.37,15.11,15.69c6.13,16.63,10.37,34.28,14.2,51.57,2.01,9.07,4.41,18.58-.96,26.96-4,6.24-10.71,10.34-17.29,13.41-17.49,8.16-37.01,13.67-55.65,18.54-20.5,5.35-41.42,8.73-62.62,9.06-.49,0-.49.76,0,.76h0Z"/><path class="cls-10" d="M269.24,281.42c15.52-3.46,30.98-7.25,46.17-11.98,11.81-3.68,24.83-7.36,34.59-15.33,10.19-8.32,10.78-18.79,8.18-30.97-3.49-16.36-7.77-32.55-12.81-48.5-3.27-10.36-7.26-18.83-17.89-23.19-6.02-2.47-12.23-.88-18.33.39-4.26.89-8.54,1.64-12.79,2.59-10.27,2.29-20.48,4.88-30.59,7.79-7.6,2.19-16.67,4.1-23.19,8.86-4.86,3.55-7.9,8.6-6.75,14.7,1.27,6.81,3.59,13.54,5.27,20.27,3.78,15.14,7.38,30.5,8.93,46.05.06.63,1.05.63.99,0-1.08-10.94-3.24-21.76-5.65-32.47-2.5-11.14-6.03-22.1-8.36-33.26-2.79-13.33,11.9-17.83,21.72-20.92,9.03-2.85,18.2-5.26,27.39-7.51,7.73-1.9,15.51-3.45,23.31-5.05,7.66-1.58,14.2-2.71,21.35,1.45,5.49,3.2,9.13,7.91,11.33,13.83,4.75,12.8,8.14,26.34,11.4,39.58,3.36,13.65,9.9,30.6-.87,42.43-9.34,10.26-24.77,14.26-37.53,18.23-15.19,4.73-30.64,8.55-46.16,12.02-.65.15-.37,1.14.27,1h0Z"/><path class="cls-10" d="M221.87,292.48c11.56,1.8,29.78.23,38.12-9,.5-.56-.32-1.39-.83-.83-8.55,9.43-25.5,9.44-37.2,9.14-.39,0-.49.63-.09.69h0Z"/><path class="cls-10" d="M221.84,292.01c14.3-.54,30.84-16.23,28.65-31.02-.08-.56-.98-.41-.98.13.02,15.5-13.07,27.37-27.76,30.28-.34.07-.26.62.08.61h0Z"/></g></g></g></svg>