<?xml version="1.0" encoding="UTF-8"?><svg id="Camada_2" xmlns="http://www.w3.org/2000/svg" viewBox="0 0 1365.14 191.3"><defs><style>.cls-1{opacity:.3;}.cls-2{fill:#ff6511;stroke-width:0px;}</style></defs><g id="Camada_1-2"><g class="cls-1"><polygon class="cls-2" points="830.36 7.62 803.12 8 805.54 181.31 877.59 180.3 877.24 155.55 832.43 156.17 830.36 7.62"/><path class="cls-2" d="m116.85,143.31l-.32-22.95,9.41-.13c12.38-.17,17.91,5.69,18.13,21.79v.32s27.21-.98,27.21-.98c-.41-17.54-5.12-30.22-18.56-35.62,12.05-5.86,17.58-17.58,17.34-35.41l-.19-13.62c-.37-26.74-12.69-39.69-40.91-39.3l-41.1.57,1.76,126.3,27.23-.98Zm-1.41-100.94l13.12-.18c9.66-.13,13.94,5.25,14.11,17.63l.24,17.08c.19,13.86-5.93,18.41-16.08,18.55l-10.65.15-.74-53.23Z"/><polygon class="cls-2" points="89.75 153.16 90.28 191.3 117.51 190.92 116.98 152.84 89.75 153.16"/><path class="cls-2" d="m171.45,152.2l-27.24.32.23,16.73c.2,14.11,1.23,16.82,2.77,21.26l27.73-.39c-2.81-6.4-3.15-12.59-3.26-21l-.24-16.91Z"/><polygon class="cls-2" points="216.34 139.73 215.99 114.02 253.37 113.49 253.02 88.74 215.64 89.26 214.97 40.98 262.01 40.32 261.66 15.56 187.39 16.6 189.12 140.71 216.34 139.73"/><polygon class="cls-2" points="216.51 151.67 189.28 151.99 189.81 189.91 264.08 188.87 263.74 164.11 216.69 164.77 216.51 151.67"/><path class="cls-2" d="m305.2,136.54l-1.14-81.7c-.17-12.38,5.21-17.16,13.87-17.28s14.18,4.51,14.35,16.89l.26,18.57,25.75-.36-.24-16.84c-.39-27.73-14.47-43.38-41.21-43.01s-40.38,16.41-39.99,44.14l1.13,80.56,27.23-.98Z"/><polygon class="cls-2" points="333.25 123.28 333.42 135.52 359.16 134.6 358.99 122.92 333.25 123.28"/><path class="cls-2" d="m333.56,150.3c-.49,10.67-5.73,14.65-13.84,14.76-8.13.11-13.48-3.74-14.25-14.43l-27.19.32c1.61,25.3,15.59,39.49,41.05,39.13,25.4-.35,38.98-14.86,39.94-40.08l-25.7.3Z"/><path class="cls-2" d="m455.05,131.15l-20.57-118-39.86.56-17.53,119.28,77.97-1.83Zm-41.44-87l14.35,87.46-26.24.37,11.9-87.83Z"/><polygon class="cls-2" points="374.78 149.82 369.3 187.4 394.31 187.05 398.57 155.55 432 155.08 437.14 186.46 464.62 186.07 458.13 148.85 374.78 149.82"/><polygon class="cls-2" points="476.73 148.63 477.25 185.9 504.48 185.52 503.97 148.31 476.73 148.63"/><path class="cls-2" d="m503.7,129.4l-.13-9,12.87-.18c27.23-.38,40.39-15.67,40.01-43.4l-.31-22.53c-.39-27.73-13.97-42.64-41.2-42.26l-40.11.56,1.65,117.79,27.23-.98Zm-1.29-92.43l12.87-.18c8.67-.12,13.42,3.77,13.6,16.15l.36,26c.17,12.38-4.48,16.41-13.14,16.53l-12.87.18-.82-58.68Z"/><polygon class="cls-2" points="598.25 126 596.64 10.89 569.41 11.27 571.02 126.98 598.25 126"/><polygon class="cls-2" points="571.31 147.52 571.83 184.57 599.06 184.19 598.54 147.21 571.31 147.52"/><polygon class="cls-2" points="638.9 146.73 639.41 183.63 666.65 183.25 666.13 146.42 638.9 146.73"/><polygon class="cls-2" points="638.59 124.55 665.81 123.57 664.57 34.7 693.05 34.3 692.7 9.54 608.52 10.72 608.87 35.48 637.34 35.08 638.59 124.55"/><path class="cls-2" d="m760.58,145.31c-.7,10.11-5.86,13.93-13.79,14.04-7.94.11-13.21-3.58-14.18-13.71l-27.22.32c1.83,24.85,15.79,38.76,41.01,38.41,25.16-.35,38.72-14.58,39.91-39.35l-25.73.3Z"/><polygon class="cls-2" points="786.1 119.24 784.55 8.26 758.8 8.62 760.36 120.17 786.1 119.24"/><polygon class="cls-2" points="732.15 121.18 730.58 9.01 703.34 9.4 704.92 122.16 732.15 121.18"/><polygon class="cls-2" points="916.09 114.57 926.6 36.98 939.19 113.74 966.08 112.77 947.46 5.99 907.6 6.54 891.73 115.44 916.09 114.57"/><polygon class="cls-2" points="887.6 143.83 882.29 180.24 907.3 179.89 911.56 148.38 944.99 147.91 950.13 179.29 977.61 178.91 971.32 142.85 887.6 143.83"/><polygon class="cls-2" points="1013.56 111.06 1012.75 52.87 1029.19 110.5 1075.44 108.84 1073.98 4.22 1049.71 4.56 1051.16 108.29 1021.74 4.95 987.57 5.43 989.06 111.94 1013.56 111.06"/><polygon class="cls-2" points="989.49 142.64 989.99 178.73 1014.5 178.39 1014 142.35 989.49 142.64"/><polygon class="cls-2" points="1038.19 142.07 1048.42 177.92 1076.4 177.53 1075.9 141.62 1038.19 142.07"/><path class="cls-2" d="m1122.22,107.15l-1.1-78.83,15.35-.21c8.67-.12,13.93,4.26,14.1,16.64l.86,61.35,27.23-.98-.83-59.52c-.39-27.73-13.97-42.64-41.2-42.26l-43.08.6,1.46,104.19,27.23-.98Z"/><path class="cls-2" d="m1151.41,140.74c-1.36,7.97-6.1,11.06-13.22,11.16l-15.35.21-.15-11.04-27.24.32.5,35.86,43.08-.6c24.79-.35,37.91-13.05,39.78-36.23l-27.4.32Z"/><path class="cls-2" d="m1220.97,103.6l-.86-61.56c-.17-12.38,5.21-17.16,13.87-17.28,8.67-.12,14.18,4.51,14.35,16.89l.85,60.94,27.23-.98-.82-58.6c-.39-27.73-15.22-43.37-41.95-43-26.74.37-41.12,16.42-40.74,44.15l.84,60.42,27.23-.98Z"/><path class="cls-2" d="m1249.44,139.6c-1.05,9.16-6.11,12.82-13.67,12.92-7.58.11-12.75-3.42-14.04-12.6l-27.24.32c2.33,23.99,16.87,37.38,41.62,37.04,24.69-.34,38.84-14.07,40.56-38l-27.23.32Z"/><polygon class="cls-2" points="24.93 81.7 32.94 97.37 50.38 99.65 37.96 112.11 41.17 129.4 25.49 121.43 10.04 129.84 12.77 112.46 0 100.36 17.37 97.59 24.93 81.7"/><polygon class="cls-2" points="1339.69 63.34 1347.69 79 1365.14 81.29 1352.71 93.74 1355.93 111.04 1340.24 103.07 1324.79 111.47 1327.52 94.09 1314.75 81.99 1332.13 79.22 1339.69 63.34"/></g></g></svg>