<?xml version="1.0" encoding="UTF-8"?><svg id="Camada_2" xmlns="http://www.w3.org/2000/svg" viewBox="0 0 1257.03 36.5"><defs><style>.cls-1,.cls-2{fill:none;stroke:#004b8d;stroke-miterlimit:10;}.cls-2{stroke-width:2px;}</style></defs><g id="Camada_1-2"><path class="cls-1" d="M1233.94,19.7c-9.32-4.4-19.08-6.26-28.29-5.85,7.93-3.5,17.02-5.34,26.64-5,4.74.17,9.32.87,13.66,2.02,2.16,2.91,3.95,6.03,5.31,9.32-2.09,2.06-4.37,3.99-6.83,5.78-3.2-2.37-6.71-4.48-10.49-6.27"/><path class="cls-1" d="M1250.77,20.67c-.07.06-.13.13-.2.19M1244.43,25.97c3.7,2.75,7,5.83,9.85,9.17-.02-5.22-1.07-10.25-3.01-14.94,1.8-1.77,3.46-3.63,4.98-5.57-3.24-1.54-6.69-2.8-10.29-3.76,2.16,2.91,3.95,6.03,5.31,9.32l-.1.1-.1.1-.1.1-.1.1-.1.1h0c-.07.06-.13.13-.2.19-1.63,1.55-3.38,3.04-5.22,4.43h0s-.01.01-.01.01c-.3.22-.6.45-.9.67"/><path class="cls-1" d="M1230.27,1.57c1.67-.39,3.35-.77,5.08-1.02.06,0,.14-.01.2-.02,2.46,1.82,4.73,3.83,6.78,5.99-2.26-.33-4.57-.54-6.93-.63-8.23-.3-16.06,1.05-23.13,3.62,5.1-3.51,11.25-6.28,18-7.93"/><path class="cls-1" d="M1154.1,19.7c-9.32-4.4-19.08-6.26-28.29-5.85,7.93-3.5,17.02-5.34,26.64-5,4.74.17,9.32.87,13.66,2.02,2.16,2.91,3.95,6.03,5.31,9.32-2.09,2.06-4.37,3.99-6.83,5.78-3.2-2.37-6.71-4.48-10.49-6.27"/><path class="cls-1" d="M1170.93,20.67c-.07.06-.13.13-.2.19M1164.59,25.97c3.7,2.75,7,5.83,9.85,9.17-.02-5.22-1.07-10.25-3.01-14.94,1.8-1.77,3.46-3.63,4.98-5.57-3.24-1.54-6.69-2.8-10.29-3.76,2.16,2.91,3.95,6.03,5.31,9.32l-.1.1-.1.1-.1.1-.1.1-.1.1h0c-.07.06-.13.13-.2.19-1.63,1.55-3.38,3.04-5.22,4.43h0s-.01.01-.01.01c-.3.22-.6.45-.9.67"/><path class="cls-1" d="M1150.43,1.57c1.67-.39,3.35-.77,5.08-1.02.06,0,.14-.01.2-.02,2.46,1.82,4.73,3.83,6.78,5.99-2.26-.33-4.57-.54-6.93-.63-8.23-.3-16.06,1.05-23.13,3.62,5.1-3.51,11.25-6.28,18-7.93"/><path class="cls-1" d="M1074.27,19.7c-9.32-4.4-19.08-6.26-28.29-5.85,7.93-3.5,17.02-5.34,26.64-5,4.74.17,9.32.87,13.66,2.02,2.16,2.91,3.95,6.03,5.31,9.32-2.09,2.06-4.37,3.99-6.83,5.78-3.2-2.37-6.71-4.48-10.49-6.27"/><path class="cls-1" d="M1091.1,20.67c-.07.06-.13.13-.2.19M1084.76,25.97c3.7,2.75,7,5.83,9.85,9.17-.02-5.22-1.07-10.25-3.01-14.94,1.8-1.77,3.46-3.63,4.98-5.57-3.24-1.54-6.69-2.8-10.29-3.76,2.16,2.91,3.95,6.03,5.31,9.32l-.1.1-.1.1-.1.1-.1.1-.1.1h0c-.07.06-.13.13-.2.19-1.63,1.55-3.38,3.04-5.22,4.43h0s-.01.01-.01.01c-.3.22-.6.45-.9.67"/><path class="cls-1" d="M1070.6,1.57c1.67-.39,3.35-.77,5.08-1.02.06,0,.14-.01.2-.02,2.46,1.82,4.73,3.83,6.78,5.99-2.26-.33-4.57-.54-6.93-.63-8.23-.3-16.06,1.05-23.13,3.62,5.1-3.51,11.25-6.28,18-7.93"/><line class="cls-2" y1="13.2" x2="1019.91" y2="13.2"/></g></svg>