<?xml version="1.0" encoding="UTF-8"?><svg id="Camada_2" xmlns="http://www.w3.org/2000/svg" viewBox="0 0 134.67 134.67"><defs><style>.cls-1{fill:#e4262a;stroke-width:0px;}.cls-2{stroke:#e4262a;stroke-dasharray:0 0 .1 4.02;stroke-linecap:round;stroke-linejoin:round;}.cls-2,.cls-3{fill:none;}.cls-3{stroke:#4c0a01;stroke-miterlimit:10;stroke-width:2.5px;}</style></defs><g id="Camada_1-2"><path class="cls-1" d="M67.39,134.67c-4.67,0-9.38-.5-14-1.48-8.55-1.81-16.55-5.2-23.76-10.07-7.47-5.04-13.77-11.46-18.72-19.08-4.96-7.62-8.27-15.98-9.85-24.85-1.53-8.57-1.38-17.25.43-25.8,1.81-8.55,5.2-16.55,10.07-23.76,5.04-7.47,11.46-13.77,19.08-18.72,7.62-4.96,15.98-8.27,24.85-9.85,3.9-.7,7.87-1.05,11.8-1.05,4.67,0,9.38.5,14,1.48,8.55,1.81,16.55,5.2,23.76,10.07,7.47,5.04,13.77,11.46,18.72,19.08,4.96,7.62,8.27,15.98,9.85,24.85,1.53,8.57,1.38,17.25-.43,25.8-1.81,8.55-5.2,16.55-10.07,23.76-5.04,7.47-11.46,13.77-19.08,18.72-7.62,4.95-15.98,8.27-24.85,9.85-3.9.7-7.87,1.05-11.8,1.05ZM67.25,13.37c-10.43,0-20.58,3.01-29.35,8.71C12.95,38.31,5.85,71.81,22.08,96.77c9.99,15.36,26.94,24.53,45.34,24.54h0c10.43,0,20.58-3.01,29.34-8.71,12.07-7.85,20.36-19.95,23.35-34.07,2.99-14.12.32-28.55-7.53-40.62-9.99-15.36-26.94-24.54-45.34-24.54Z"/><path class="cls-2" d="M40.13,25.5c23.1-15.03,54.01-8.48,69.04,14.62,15.03,23.1,8.48,54.01-14.63,69.04s-54.01,8.48-69.04-14.62c-15.03-23.1-8.48-54.01,14.63-69.04Z"/><path class="cls-3" d="M67.94,82.09c6.35-2.38,10-11.11,10-17.5v-2.5c0-1.77,2.5-5.65,2.5-10s-1.72-6.3-3.45-8.04c-2.19-2.2-5.3-1.83-5.3.54v2.5c0,6.59-9.33,16.25-12.5,16.25h-7.5v26.25h5c4.29,0,3.86,2.5,9.9,2.5h20.1c2.11,0,5.47-1.14,6.25-5,0,0,2.25-13.27,2.5-17.5s-.85-6.25-5-6.25h-10"/><rect class="cls-3" x="39.19" y="59.59" width="12.5" height="32.5"/><line class="cls-3" x1="45.44" y1="64.59" x2="45.44" y2="68.34"/></g></svg>