{
  "accessors": [
    {
      "bufferView": 2,
      "componentType": 5126,
      "count": 16140,
      "max": [
        8.271592140197754,
        0.4647684693336487,
        1.6655676364898682
      ],
      "min": [
        -8.27159309387207,
        -0.4913918972015381,
        -1.5509328842163086
      ],
      "type": "VEC3"
    },
    {
      "bufferView": 2,
      "byteOffset": 193680,
      "componentType": 5126,
      "count": 16140,
      "max": [
        0.9999991655349731,
        1.0,
        0.9999734163284302
      ],
      "min": [
        -0.9999991655349731,
        -0.9999997615814209,
        -0.9999711513519287
      ],
      "type": "VEC3"
    },
    {
      "bufferView": 1,
      "componentType": 5126,
      "count": 16140,
      "max": [
        0.9075049757957458,
        1.0
      ],
      "min": [
        0.2911604344844818,
        0.31079763174057007
      ],
      "type": "VEC2"
    },
    {
      "bufferView": 0,
      "componentType": 5125,
      "count": 84960,
      "type": "SCALAR"
    },
    {
      "bufferView": 2,
      "byteOffset": 387360,
      "componentType": 5126,
      "count": 1482,
      "max": [
        6.981507778167725,
        0.253984272480011,
        1.3890079259872437
      ],
      "min": [
        -6.9805073738098145,
        0.1148047000169754,
        -1.1753919124603271
      ],
      "type": "VEC3"
    },
    {
      "bufferView": 2,
      "byteOffset": 405144,
      "componentType": 5126,
      "count": 1482,
      "max": [
        0.9036867618560791,
        1.0,
        0.8858715891838074
      ],
      "min": [
        -0.9036867618560791,
        -1.0,
        -0.8913870453834534
      ],
      "type": "VEC3"
    },
    {
      "bufferView": 1,
      "byteOffset": 129120,
      "componentType": 5126,
      "count": 1482,
      "max": [
        0.9911406636238098,
        1.0
      ],
      "min": [
        0.0,
        0.07617640495300293
      ],
      "type": "VEC2"
    },
    {
      "bufferView": 0,
      "byteOffset": 339840,
      "componentType": 5125,
      "count": 7812,
      "type": "SCALAR"
    },
    {
      "bufferView": 2,
      "byteOffset": 422928,
      "componentType": 5126,
      "count": 4650,
      "max": [
        8.017037391662598,
        0.3125349283218384,
        -0.3107233941555023
      ],
      "min": [
        -8.017038345336914,
        -0.7148036956787109,
        -0.9474822878837585
      ],
      "type": "VEC3"
    },
    {
      "bufferView": 2,
      "byteOffset": 478728,
      "componentType": 5126,
      "count": 4650,
      "max": [
        0.9999175071716309,
        0.9999994039535522,
        0.9999940395355225
      ],
      "min": [
        -0.9999175071716309,
        -0.999863862991333,
        -0.9999979734420776
      ],
      "type": "VEC3"
    },
    {
      "bufferView": 1,
      "byteOffset": 140976,
      "componentType": 5126,
      "count": 4650,
      "max": [
        0.4202233850955963,
        0.46786946058273315
      ],
      "min": [
        0.3747066855430603,
        0.3637050986289978
      ],
      "type": "VEC2"
    },
    {
      "bufferView": 0,
      "byteOffset": 371088,
      "componentType": 5125,
      "count": 26928,
      "type": "SCALAR"
    },
    {
      "bufferView": 2,
      "byteOffset": 534528,
      "componentType": 5126,
      "count": 966,
      "max": [
        -0.13923102617263794,
        0.17968909442424774,
        1.7268561124801636
      ],
      "min": [
        -0.3886895775794983,
        -10.731267929077148,
        -0.42323461174964905
      ],
      "type": "VEC3"
    },
    {
      "bufferView": 2,
      "byteOffset": 546120,
      "componentType": 5126,
      "count": 966,
      "max": [
        0.9999990463256836,
        0.9999305605888367,
        0.9999298453330994
      ],
      "min": [
        -1.0,
        -0.984205961227417,
        -0.9976845383644104
      ],
      "type": "VEC3"
    },
    {
      "bufferView": 1,
      "byteOffset": 178176,
      "componentType": 5126,
      "count": 966,
      "max": [
        0.5216912627220154,
        0.9998951554298401
      ],
      "min": [
        6.613460001858584e-09,
        0.21332776546478271
      ],
      "type": "VEC2"
    },
    {
      "bufferView": 0,
      "byteOffset": 478800,
      "componentType": 5125,
      "count": 4848,
      "type": "SCALAR"
    },
    {
      "bufferView": 2,
      "byteOffset": 557712,
      "componentType": 5126,
      "count": 732,
      "max": [
        0.05538523569703102,
        0.045668769627809525,
        0.1525297313928604
      ],
      "min": [
        -0.14593522250652313,
        -0.2784656286239624,
        -0.14704042673110962
      ],
      "type": "VEC3"
    },
    {
      "bufferView": 2,
      "byteOffset": 566496,
      "componentType": 5126,
      "count": 732,
      "max": [
        0.9999994039535522,
        0.999224841594696,
        0.9998417496681213
      ],
      "min": [
        -0.9901963472366333,
        -0.987937331199646,
        -0.9999972581863403
      ],
      "type": "VEC3"
    },
    {
      "bufferView": 1,
      "byteOffset": 185904,
      "componentType": 5126,
      "count": 732,
      "max": [
        0.09970816969871521,
        1.0
      ],
      "min": [
        0.0,
        0.9638500809669495
      ],
      "type": "VEC2"
    },
    {
      "bufferView": 0,
      "byteOffset": 498192,
      "componentType": 5125,
      "count": 4152,
      "type": "SCALAR"
    },
    {
      "bufferView": 2,
      "byteOffset": 575280,
      "componentType": 5126,
      "count": 966,
      "max": [
        -0.13923102617263794,
        0.17968909442424774,
        1.7268561124801636
      ],
      "min": [
        -0.3886895775794983,
        -10.731267929077148,
        -0.42323461174964905
      ],
      "type": "VEC3"
    },
    {
      "bufferView": 2,
      "byteOffset": 586872,
      "componentType": 5126,
      "count": 966,
      "max": [
        0.9999990463256836,
        0.9999305605888367,
        0.9999298453330994
      ],
      "min": [
        -1.0,
        -0.984205961227417,
        -0.9976845383644104
      ],
      "type": "VEC3"
    },
    {
      "bufferView": 1,
      "byteOffset": 191760,
      "componentType": 5126,
      "count": 966,
      "max": [
        0.5216912627220154,
        0.9998951554298401
      ],
      "min": [
        6.613460001858584e-09,
        0.21332776546478271
      ],
      "type": "VEC2"
    },
    {
      "bufferView": 0,
      "byteOffset": 514800,
      "componentType": 5125,
      "count": 4848,
      "type": "SCALAR"
    },
    {
      "bufferView": 2,
      "byteOffset": 598464,
      "componentType": 5126,
      "count": 732,
      "max": [
        0.05538523569703102,
        0.045668769627809525,
        0.1525297313928604
      ],
      "min": [
        -0.14593522250652313,
        -0.2784656286239624,
        -0.14704042673110962
      ],
      "type": "VEC3"
    },
    {
      "bufferView": 2,
      "byteOffset": 607248,
      "componentType": 5126,
      "count": 732,
      "max": [
        0.9999994039535522,
        0.999224841594696,
        0.9998417496681213
      ],
      "min": [
        -0.9901963472366333,
        -0.987937331199646,
        -0.9999972581863403
      ],
      "type": "VEC3"
    },
    {
      "bufferView": 1,
      "byteOffset": 199488,
      "componentType": 5126,
      "count": 732,
      "max": [
        0.09970816969871521,
        1.0
      ],
      "min": [
        0.0,
        0.9638500809669495
      ],
      "type": "VEC2"
    },
    {
      "bufferView": 0,
      "byteOffset": 534192,
      "componentType": 5125,
      "count": 4152,
      "type": "SCALAR"
    }
  ],
  "asset": {
    "extras": {
      "author": "Bazskooo_3d (https://sketchfab.com/Bazskooo_3d)",
      "license": "CC-BY-4.0 (http://creativecommons.org/licenses/by/4.0/)",
      "source": "https://sketchfab.com/3d-models/sunglass-by-bazskooo-3d-da3aa97db8464a4696da575a1d2f5a2a",
      "title": "Sunglass - By @Bazskooo_3d"
    },
    "generator": "Sketchfab-16.16.0",
    "version": "2.0"
  },
  "bufferViews": [
    {
      "buffer": 0,
      "byteLength": 550800,
      "name": "floatBufferViews",
      "target": 34963
    },
    {
      "buffer": 0,
      "byteLength": 205344,
      "byteOffset": 550800,
      "byteStride": 8,
      "name": "floatBufferViews",
      "target": 34962
    },
    {
      "buffer": 0,
      "byteLength": 616032,
      "byteOffset": 756144,
      "byteStride": 12,
      "name": "floatBufferViews",
      "target": 34962
    }
  ],
  "buffers": [
    {
      "byteLength": 1372176,
      "uri": "scene.bin"
    }
  ],
  "extensionsUsed": [
    "KHR_materials_clearcoat",
    "KHR_materials_specular"
  ],
  "materials": [
    {
      "doubleSided": true,
      "extensions": {
        "KHR_materials_clearcoat": {
          "clearcoatFactor": 1.0,
          "clearcoatRoughnessFactor": 0.378624
        },
        "KHR_materials_specular": {
          "specularColorFactor": [
            1.0,
            1.0,
            1.0
          ],
          "specularFactor": 0.15085760261364606
        }
      },
      "name": "muanyag",
      "pbrMetallicRoughness": {
        "baseColorFactor": [
          0.0,
          0.0,
          0.0,
          1.0
        ],
        "metallicFactor": 0.0,
        "roughnessFactor": 0.550474820494691
      }
    },
    {
      "alphaMode": "BLEND",
      "extensions": {
        "KHR_materials_clearcoat": {
          "clearcoatFactor": 0.802752,
          "clearcoatRoughnessFactor": 0.396972
        }
      },
      "name": "lencse",
      "pbrMetallicRoughness": {
        "baseColorFactor": [
          0.0,
          0.0,
          0.0,
          0.853211
        ],
        "metallicFactor": 0.0,
        "roughnessFactor": 0.169725
      }
    },
    {
      "doubleSided": true,
      "name": "csapgy",
      "pbrMetallicRoughness": {
        "baseColorFactor": [
          0.8,
          0.8,
          0.8,
          1.0
        ],
        "roughnessFactor": 0.155738
      }
    }
  ],
  "meshes": [
    {
      "name": "Object_0",
      "primitives": [
        {
          "attributes": {
            "NORMAL": 1,
            "POSITION": 0,
            "TEXCOORD_0": 2
          },
          "indices": 3,
          "material": 0,
          "mode": 4
        }
      ]
    },
    {
      "name": "Object_1",
      "primitives": [
        {
          "attributes": {
            "NORMAL": 5,
            "POSITION": 4,
            "TEXCOORD_0": 6
          },
          "indices": 7,
          "material": 1,
          "mode": 4
        }
      ]
    },
    {
      "name": "Object_2",
      "primitives": [
        {
          "attributes": {
            "NORMAL": 9,
            "POSITION": 8,
            "TEXCOORD_0": 10
          },
          "indices": 11,
          "material": 2,
          "mode": 4
        }
      ]
    },
    {
      "name": "Object_3",
      "primitives": [
        {
          "attributes": {
            "NORMAL": 13,
            "POSITION": 12,
            "TEXCOORD_0": 14
          },
          "indices": 15,
          "material": 0,
          "mode": 4
        }
      ]
    },
    {
      "name": "Object_4",
      "primitives": [
        {
          "attributes": {
            "NORMAL": 17,
            "POSITION": 16,
            "TEXCOORD_0": 18
          },
          "indices": 19,
          "material": 2,
          "mode": 4
        }
      ]
    },
    {
      "name": "Object_5",
      "primitives": [
        {
          "attributes": {
            "NORMAL": 21,
            "POSITION": 20,
            "TEXCOORD_0": 22
          },
          "indices": 23,
          "material": 0,
          "mode": 4
        }
      ]
    },
    {
      "name": "Object_6",
      "primitives": [
        {
          "attributes": {
            "NORMAL": 25,
            "POSITION": 24,
            "TEXCOORD_0": 26
          },
          "indices": 27,
          "material": 2,
          "mode": 4
        }
      ]
    }
  ],
  "nodes": [
    {
      "children": [
        1
      ],
      "matrix": [
        1.0,
        0.0,
        0.0,
        0.0,
        0.0,
        2.220446049250313e-16,
        -1.0,
        0.0,
        0.0,
        1.0,
        2.220446049250313e-16,
        0.0,
        0.0,
        0.0,
        0.0,
        1.0
      ],
      "name": "Sketchfab_model"
    },
    {
      "children": [
        2
      ],
      "name": "root"
    },
    {
      "children": [
        3,
        7,
        10
      ],
      "matrix": [
        1.0,
        0.0,
        0.0,
        0.0,
        0.0,
        2.220446049250313e-16,
        1.0,
        0.0,
        0.0,
        -1.0,
        2.220446049250313e-16,
        0.0,
        0.0,
        0.0,
        0.0,
        1.0
      ],
      "name": "GLTF_SceneRootNode"
    },
    {
      "children": [
        4,
        5,
        6
      ],
      "matrix": [
        0.30000001192092896,
        0.0,
        0.0,
        0.0,
        0.0,
        0.0,
        0.30000001192092896,
        0.0,
        0.0,
        -0.30000001192092896,
        0.0,
        0.0,
        -0.04327365383505821,
        0.6045358180999756,
        0.0,
        1.0
      ],
      "name": "Plane_0"
    },
    {
      "mesh": 0,
      "name": "Object_4"
    },
    {
      "mesh": 1,
      "name": "Object_5"
    },
    {
      "mesh": 2,
      "name": "Object_6"
    },
    {
      "children": [
        8,
        9
      ],
      "matrix": [
        0.30000001192092896,
        0.0,
        0.0,
        0.0,
        0.0,
        0.0,
        0.30000001192092896,
        0.0,
        0.0,
        -0.30000001192092896,
        0.0,
        0.0,
        -2.4057295322418213,
        0.7928309440612793,
        -0.19958952069282532,
        1.0
      ],
      "name": "Plane.001_1"
    },
    {
      "mesh": 3,
      "name": "Object_8"
    },
    {
      "mesh": 4,
      "name": "Object_9"
    },
    {
      "children": [
        11,
        12
      ],
      "matrix": [
        -0.30000001192092896,
        -0.0,
        0.0,
        -0.0,
        0.0,
        -0.0,
        0.30000001192092896,
        -0.0,
        -0.0,
        -0.30000001192092896,
        0.0,
        -0.0,
        2.319477081298828,
        0.7928309440612793,
        -0.19958952069282532,
        1.0
      ],
      "name": "Plane.005_2"
    },
    {
      "mesh": 5,
      "name": "Object_11"
    },
    {
      "mesh": 6,
      "name": "Object_12"
    }
  ],
  "scene": 0,
  "scenes": [
    {
      "name": "Sketchfab_Scene",
      "nodes": [
        0
      ]
    }
  ]
}
