<?xml version="1.0" encoding="UTF-8"?><svg xmlns="http://www.w3.org/2000/svg" viewBox="0 0 149.27 105.91"><defs><style>.d{fill:#0b5f55;}</style></defs><g id="a"/><g id="b"><g id="c"><g><path class="d" d="M84.68,43.77c4.77,13.23,14.29,20.75,28.21,22.59,1.22,.16,1.37,.62,1.38,1.63,.01,3.96-.91,7.72-2.29,11.39-1.49,3.99-3.59,7.66-5.93,11.21-.83,1.25-.92,2.44,.2,3.56,3.61,3.62,7.22,7.26,10.86,10.85,1.2,1.19,2.35,1.18,3.62,.07,1.03-.9,2.03-1.82,2.98-2.8,1.03-1.07,2.02-2.15,2.99-3.25h-6.42c-.14,.15-.28,.3-.42,.45-.72,.75-1.11,.74-1.81,0-2.08-2.19-4.19-4.36-6.37-6.44-.79-.76-.82-1.29-.25-2.2,3.71-5.87,6.33-12.17,7.26-19.09,.31-2.27,.38-4.57-.03-6.85-.44-2.44-1.03-2.99-3.46-3.07-6.14-.18-11.59-2.22-16.47-5.92-14.61-11.04-14.77-33.7-.31-44.92,16.19-12.56,38.92-5.16,44.73,14.51,1.39,4.7,1.61,9.49,1.72,14.31-.12,16.13-4.58,30.9-13.01,44.42h5.56c6.3-10.84,10.18-22.81,11.64-35.94,.09-.78,.24-15.51,.2-15.82-.31-2.96-.82-5.88-1.76-8.72-2.95-8.89-8.21-16.01-16.72-20.11-12.53-6.03-24.51-4.55-35.5,3.9-10.68,8.21-15.17,23.54-10.61,36.21Z"/><path class="d" d="M1.78,43.77c4.77,13.23,14.29,20.75,28.21,22.59,1.22,.16,1.37,.62,1.38,1.63,.01,3.96-.91,7.72-2.29,11.39-1.49,3.99-3.59,7.66-5.93,11.21-.83,1.25-.92,2.44,.2,3.56,3.61,3.62,7.22,7.26,10.86,10.85,1.2,1.19,2.35,1.18,3.62,.07,1.03-.9,2.03-1.82,2.98-2.8,1.03-1.07,2.02-2.15,2.99-3.25h-6.42c-.14,.15-.28,.3-.42,.45-.72,.75-1.11,.74-1.81,0-2.08-2.19-4.19-4.36-6.37-6.44-.79-.76-.82-1.29-.25-2.2,3.71-5.87,6.33-12.17,7.26-19.09,.31-2.27,.38-4.57-.03-6.85-.44-2.44-1.03-2.99-3.46-3.07-6.14-.18-11.59-2.22-16.47-5.92C1.22,44.88,1.06,22.22,15.52,11,31.71-1.55,54.44,5.85,60.26,25.51c1.39,4.7,1.61,9.49,1.72,14.31-.12,16.13-4.58,30.9-13.01,44.42h5.56c6.3-10.84,10.18-22.81,11.64-35.94,.09-.78,.24-15.51,.2-15.82-.31-2.96-.82-5.88-1.76-8.72-2.95-8.89-8.21-16.01-16.72-20.11C35.35-2.36,23.37-.88,12.38,7.56,1.7,15.77-2.79,31.11,1.78,43.77Z"/></g></g></g></svg>