<?xml version="1.0" encoding="UTF-8"?><svg id="Camada_2" xmlns="http://www.w3.org/2000/svg" viewBox="0 0 173.42 173.42"><defs><style>.cls-1{fill:#fff;}.cls-2{fill:#b1cd4e;}.cls-3{fill:#0b5f55;}</style></defs><g id="Camada_1-2"><g><g><path class="cls-2" d="M86.71,0c47.81,0,86.71,38.9,86.71,86.71s-38.9,86.71-86.71,86.71S0,134.53,0,86.71,38.9,0,86.71,0Zm0,163.15c42.15,0,76.43-34.29,76.43-76.44S128.86,10.27,86.71,10.27,10.28,44.56,10.28,86.71s34.29,76.44,76.44,76.44Z"/><circle class="cls-3" cx="86.71" cy="86.71" r="81.61" transform="translate(-17.6 151.18) rotate(-76.72)"/></g><g><path class="cls-1" d="M119.89,75.41c2.01-11.04,5.35-18.98,8.02-23.89,1.04-1.92-1.08-4.06-2.97-2.96-22.29,12.99-32.07,31.94-33.28,47.14-1.05,13.11,7.89,26.61,21.45,29.07,13.55,2.46,26.53-6.54,28.99-20.09,2.58-14.21-7.44-27.86-22.2-29.27Z"/><path class="cls-1" d="M59.25,75.41c2.01-11.04,5.35-18.98,8.02-23.89,1.04-1.92-1.08-4.06-2.97-2.96-22.29,12.99-32.07,31.94-33.28,47.14-1.05,13.11,7.89,26.61,21.45,29.07,13.55,2.46,26.53-6.54,28.99-20.09,2.58-14.21-7.44-27.86-22.2-29.27Z"/></g></g></g></svg>