<?xml version="1.0" encoding="UTF-8"?>
<svg id="Camada_2" data-name="Camada 2" xmlns="http://www.w3.org/2000/svg" xmlns:xlink="http://www.w3.org/1999/xlink" viewBox="0 0 268 268">
  <defs>
    <style>
      .cls-1 {
        fill: #950048;
      }

      .cls-2 {
        stroke: #950048;
        stroke-miterlimit: 10;
      }

      .cls-2, .cls-3, .cls-4 {
        fill: none;
      }

      .cls-4 {
        clip-path: url(#clippath);
      }
    </style>
    <clipPath id="clippath">
      <rect class="cls-3" y="0" width="268" height="268" rx="21.5" ry="21.5"/>
    </clipPath>
  </defs>
  <g id="Camada_1-2" data-name="Camada 1">
    <g class="cls-4">
      <g>
        <path class="cls-2" d="m-21.77,82.48c6.66.36,16.48.45,28.14-1.18,24.63-3.45,39.52-12.08,87.26-38.96,12.85-7.24,34.42-19.36,61.8-34.34,11.07-6.05,28.28-15.42,51.47-26.28,12.61-5.91,18.91-8.86,24.69-10.94,21.79-7.84,46.7-16.81,66.23-7.35,12.26,5.95,18.72,19.27,31.64,45.91,3.9,8.05,11.82,25.65,23.6,48.03,2.5,4.75,6.54,12.25,14.76,18.94,7.53,6.12,15.32,8.93,20.5,10.32"/>
        <path class="cls-2" d="m-22.62,89.31c6.66.36,16.48.45,28.14-1.18,24.63-3.45,39.52-12.08,87.26-38.96,12.85-7.24,34.42-19.36,61.8-34.34,11.07-6.05,28.28-15.42,51.47-26.28,12.61-5.91,18.91-8.86,24.69-10.94,21.79-7.84,46.7-16.81,66.23-7.35,12.26,5.95,18.72,19.27,31.64,45.91,3.9,8.05,11.82,25.65,23.6,48.03,2.5,4.75,6.54,12.25,14.76,18.94,7.53,6.12,15.32,8.93,20.5,10.32"/>
        <path class="cls-2" d="m-23.46,96.14c6.66.36,16.48.45,28.14-1.18,24.63-3.45,39.52-12.08,87.26-38.96,12.85-7.24,34.42-19.36,61.8-34.34,11.07-6.05,28.28-15.42,51.47-26.28,12.61-5.91,18.91-8.86,24.69-10.94,21.79-7.84,46.7-16.81,66.23-7.35,12.26,5.95,18.72,19.27,31.64,45.91,3.9,8.05,11.82,25.65,23.6,48.03,2.5,4.75,6.54,12.25,14.76,18.94,7.53,6.12,15.32,8.93,20.5,10.32"/>
        <path class="cls-2" d="m-24.31,102.98c6.66.36,16.48.45,28.14-1.18,24.63-3.45,39.52-12.08,87.26-38.96,12.85-7.24,34.42-19.36,61.8-34.34,11.07-6.05,28.28-15.42,51.47-26.28,12.61-5.91,18.91-8.86,24.69-10.94,21.79-7.84,46.7-16.81,66.23-7.35,12.26,5.95,18.72,19.27,31.64,45.91,3.9,8.05,11.82,25.65,23.6,48.03,2.5,4.75,6.54,12.25,14.76,18.94,7.53,6.12,15.32,8.93,20.5,10.32"/>
        <path class="cls-2" d="m-25.16,109.81c6.66.36,16.48.45,28.14-1.18,24.63-3.45,39.52-12.08,87.26-38.96,12.85-7.24,34.42-19.36,61.8-34.34,11.07-6.05,28.28-15.42,51.47-26.28,12.61-5.91,18.91-8.86,24.69-10.94,21.79-7.84,46.7-16.81,66.23-7.35,12.26,5.95,18.72,19.27,31.64,45.91,3.9,8.05,11.82,25.65,23.6,48.03,2.5,4.75,6.54,12.25,14.76,18.94,7.53,6.12,15.32,8.93,20.5,10.32"/>
        <path class="cls-2" d="m-26,116.65c6.66.36,16.48.45,28.14-1.18,24.63-3.45,39.52-12.08,87.26-38.96,12.85-7.24,34.42-19.36,61.8-34.34,11.07-6.05,28.28-15.42,51.47-26.28,12.61-5.91,18.91-8.86,24.69-10.94,21.79-7.84,46.7-16.81,66.23-7.35,12.26,5.95,18.72,19.27,31.64,45.91,3.9,8.05,11.82,25.65,23.6,48.03,2.5,4.75,6.54,12.25,14.76,18.94,7.53,6.12,15.32,8.93,20.5,10.32"/>
        <path class="cls-2" d="m-26.85,123.48c6.66.36,16.48.45,28.14-1.18,24.63-3.45,39.52-12.08,87.26-38.96,12.85-7.24,34.42-19.36,61.8-34.34,11.07-6.05,28.28-15.42,51.47-26.28,12.61-5.91,18.91-8.86,24.69-10.94,21.79-7.84,46.7-16.81,66.23-7.35,12.26,5.95,18.72,19.27,31.64,45.91,3.9,8.05,11.82,25.65,23.6,48.03,2.5,4.75,6.54,12.25,14.76,18.94,7.53,6.12,15.32,8.93,20.5,10.32"/>
        <path class="cls-2" d="m-27.7,130.31c6.66.36,16.48.45,28.14-1.18,24.63-3.45,39.52-12.08,87.26-38.96,12.85-7.24,34.42-19.36,61.8-34.34,11.07-6.05,28.28-15.42,51.47-26.28,12.61-5.91,18.91-8.86,24.69-10.94,21.79-7.84,46.7-16.81,66.23-7.35,12.26,5.95,18.72,19.27,31.64,45.91,3.9,8.05,11.82,25.65,23.6,48.03,2.5,4.75,6.54,12.25,14.76,18.94,7.53,6.12,15.32,8.93,20.5,10.32"/>
        <path class="cls-2" d="m-28.54,137.15c6.66.36,16.48.45,28.14-1.18,24.63-3.45,39.52-12.08,87.26-38.96,12.85-7.24,34.42-19.36,61.8-34.34,11.07-6.05,28.28-15.42,51.47-26.28,12.61-5.91,18.91-8.86,24.69-10.94,21.79-7.84,46.7-16.81,66.23-7.35,12.26,5.95,18.72,19.27,31.64,45.91,3.9,8.05,11.82,25.65,23.6,48.03,2.5,4.75,6.54,12.25,14.76,18.94,7.53,6.12,15.32,8.93,20.5,10.32"/>
        <path class="cls-2" d="m-29.39,143.98c6.66.36,16.48.45,28.14-1.18,24.63-3.45,39.52-12.08,87.26-38.96,12.85-7.24,34.42-19.36,61.8-34.34,11.07-6.05,28.28-15.42,51.47-26.28,12.61-5.91,18.91-8.86,24.69-10.94,21.79-7.84,46.7-16.81,66.23-7.35,12.26,5.95,18.72,19.27,31.64,45.91,3.9,8.05,11.82,25.65,23.6,48.03,2.5,4.75,6.54,12.25,14.76,18.94,7.53,6.12,15.32,8.93,20.5,10.32"/>
        <path class="cls-2" d="m-30.24,150.82c6.66.36,16.48.45,28.14-1.18,24.63-3.45,39.52-12.08,87.26-38.96,12.85-7.24,34.42-19.36,61.8-34.34,11.07-6.05,28.28-15.42,51.47-26.28,12.61-5.91,18.91-8.86,24.69-10.94,21.79-7.84,46.7-16.81,66.23-7.35,12.26,5.95,18.72,19.27,31.64,45.91,3.9,8.05,11.82,25.65,23.6,48.03,2.5,4.75,6.54,12.25,14.76,18.94,7.53,6.12,15.32,8.93,20.5,10.32"/>
        <path class="cls-2" d="m-31.08,157.65c6.66.36,16.48.45,28.14-1.18,24.63-3.45,39.52-12.08,87.26-38.96,12.85-7.24,34.42-19.36,61.8-34.34,11.07-6.05,28.28-15.42,51.47-26.28,12.61-5.91,18.91-8.86,24.69-10.94,21.79-7.84,46.7-16.81,66.23-7.35,12.26,5.95,18.72,19.27,31.64,45.91,3.9,8.05,11.82,25.65,23.6,48.03,2.5,4.75,6.54,12.25,14.76,18.94,7.53,6.12,15.32,8.93,20.5,10.32"/>
        <path class="cls-2" d="m-31.93,164.48c6.66.36,16.48.45,28.14-1.18,24.63-3.45,39.52-12.08,87.26-38.96,12.85-7.24,34.42-19.36,61.8-34.34,11.07-6.05,28.28-15.42,51.47-26.28,12.61-5.91,18.91-8.86,24.69-10.94,21.79-7.84,46.7-16.81,66.23-7.35,12.26,5.95,18.72,19.27,31.64,45.91,3.9,8.05,11.82,25.65,23.6,48.03,2.5,4.75,6.54,12.25,14.76,18.94,7.53,6.12,15.32,8.93,20.5,10.32"/>
        <path class="cls-2" d="m-32.78,171.32c6.66.36,16.48.45,28.14-1.18,24.63-3.45,39.52-12.08,87.26-38.96,12.85-7.24,34.42-19.36,61.8-34.34,11.07-6.05,28.28-15.42,51.47-26.28,12.61-5.91,18.91-8.86,24.69-10.94,21.79-7.84,46.7-16.81,66.23-7.35,12.26,5.95,18.72,19.27,31.64,45.91,3.9,8.05,11.82,25.65,23.6,48.03,2.5,4.75,6.54,12.25,14.76,18.94,7.53,6.12,15.32,8.93,20.5,10.32"/>
        <path class="cls-2" d="m-33.62,178.15c6.66.36,16.48.45,28.14-1.18,24.63-3.45,39.52-12.08,87.26-38.96,12.85-7.24,34.42-19.36,61.8-34.34,11.07-6.05,28.28-15.42,51.47-26.28,12.61-5.91,18.91-8.86,24.69-10.94,21.79-7.84,46.7-16.81,66.23-7.35,12.26,5.95,18.72,19.27,31.64,45.91,3.9,8.05,11.82,25.65,23.6,48.03,2.5,4.75,6.54,12.25,14.76,18.94,7.53,6.12,15.32,8.93,20.5,10.32"/>
        <path class="cls-2" d="m-34.47,184.99c6.66.36,16.48.45,28.14-1.18,24.63-3.45,39.52-12.08,87.26-38.96,12.85-7.24,34.42-19.36,61.8-34.34,11.07-6.05,28.28-15.42,51.47-26.28,12.61-5.91,18.91-8.86,24.69-10.94,21.79-7.84,46.7-16.81,66.23-7.35,12.26,5.95,18.72,19.27,31.64,45.91,3.9,8.05,11.82,25.65,23.6,48.03,2.5,4.75,6.54,12.25,14.76,18.94,7.53,6.12,15.32,8.93,20.5,10.32"/>
        <path class="cls-2" d="m-35.32,191.82c6.66.36,16.48.45,28.14-1.18,24.63-3.45,39.52-12.08,87.26-38.96,12.85-7.24,34.42-19.36,61.8-34.34,11.07-6.05,28.28-15.42,51.47-26.28,12.61-5.91,18.91-8.86,24.69-10.94,21.79-7.84,46.7-16.81,66.23-7.35,12.26,5.95,18.72,19.27,31.64,45.91,3.9,8.05,11.82,25.65,23.6,48.03,2.5,4.75,6.54,12.25,14.76,18.94,7.53,6.12,15.32,8.93,20.5,10.32"/>
        <path class="cls-2" d="m-36.16,198.66c6.66.36,16.48.45,28.14-1.18,24.63-3.45,39.52-12.08,87.26-38.96,12.85-7.24,34.42-19.36,61.8-34.34,11.07-6.05,28.28-15.42,51.47-26.28,12.61-5.91,18.91-8.86,24.69-10.94,21.79-7.84,46.7-16.81,66.23-7.35,12.26,5.95,18.72,19.27,31.64,45.91,3.9,8.05,11.82,25.65,23.6,48.03,2.5,4.75,6.54,12.25,14.76,18.94,7.53,6.12,15.32,8.93,20.5,10.32"/>
        <path class="cls-2" d="m-37.01,205.49c6.66.36,16.48.45,28.14-1.18,24.63-3.45,39.52-12.08,87.26-38.96,12.85-7.24,34.42-19.36,61.8-34.34,11.07-6.05,28.28-15.42,51.47-26.28,12.61-5.91,18.91-8.86,24.69-10.94,21.79-7.84,46.7-16.81,66.23-7.35,12.26,5.95,18.72,19.27,31.64,45.91,3.9,8.05,11.82,25.65,23.6,48.03,2.5,4.75,6.54,12.25,14.76,18.94,7.53,6.12,15.32,8.93,20.5,10.32"/>
        <path class="cls-2" d="m-37.86,212.32c6.66.36,16.48.45,28.14-1.18,24.63-3.45,39.52-12.08,87.26-38.96,12.85-7.24,34.42-19.36,61.8-34.34,11.07-6.05,28.28-15.42,51.47-26.28,12.61-5.91,18.91-8.86,24.69-10.94,21.79-7.84,46.7-16.81,66.23-7.35,12.26,5.95,18.72,19.27,31.64,45.91,3.9,8.05,11.82,25.65,23.6,48.03,2.5,4.75,6.54,12.25,14.76,18.94,7.53,6.12,15.32,8.93,20.5,10.32"/>
        <path class="cls-2" d="m-38.7,219.16c6.66.36,16.48.45,28.14-1.18,24.63-3.45,39.52-12.08,87.26-38.96,12.85-7.24,34.42-19.36,61.8-34.34,11.07-6.05,28.28-15.42,51.47-26.28,12.61-5.91,18.91-8.86,24.69-10.94,21.79-7.84,46.7-16.81,66.23-7.35,12.26,5.95,18.72,19.27,31.64,45.91,3.9,8.05,11.82,25.65,23.6,48.03,2.5,4.75,6.54,12.25,14.76,18.94,7.53,6.12,15.32,8.93,20.5,10.32"/>
        <path class="cls-2" d="m-39.55,225.99c6.66.36,16.48.45,28.14-1.18,24.63-3.45,39.52-12.08,87.26-38.96,12.85-7.24,34.42-19.36,61.8-34.34,11.07-6.05,28.28-15.42,51.47-26.28,12.61-5.91,18.91-8.86,24.69-10.94,21.79-7.84,46.7-16.81,66.23-7.35,12.26,5.95,18.72,19.27,31.64,45.91,3.9,8.05,11.82,25.65,23.6,48.03,2.5,4.75,6.54,12.25,14.76,18.94,7.53,6.12,15.32,8.93,20.5,10.32"/>
        <path class="cls-2" d="m-40.4,232.83c6.66.36,16.48.45,28.14-1.18,24.63-3.45,39.52-12.08,87.26-38.96,12.85-7.24,34.42-19.36,61.8-34.34,11.07-6.05,28.28-15.42,51.47-26.28,12.61-5.91,18.91-8.86,24.69-10.94,21.79-7.84,46.7-16.81,66.23-7.35,12.26,5.95,18.72,19.27,31.64,45.91,3.9,8.05,11.82,25.65,23.6,48.03,2.5,4.75,6.54,12.25,14.76,18.94,7.53,6.12,15.32,8.93,20.5,10.32"/>
        <path class="cls-2" d="m-41.24,239.66c6.66.36,16.48.45,28.14-1.18,24.63-3.45,39.52-12.08,87.26-38.96,12.85-7.24,34.42-19.36,61.8-34.34,11.07-6.05,28.28-15.42,51.47-26.28,12.61-5.91,18.91-8.86,24.69-10.94,21.79-7.84,46.7-16.81,66.23-7.35,12.26,5.95,18.72,19.27,31.64,45.91,3.9,8.05,11.82,25.65,23.6,48.03,2.5,4.75,6.54,12.25,14.76,18.94,7.53,6.12,15.32,8.93,20.5,10.32"/>
        <path class="cls-2" d="m-42.09,246.49c6.66.36,16.48.45,28.14-1.18,24.63-3.45,39.52-12.08,87.26-38.96,12.85-7.24,34.42-19.36,61.8-34.34,11.07-6.05,28.28-15.42,51.47-26.28,12.61-5.91,18.91-8.86,24.69-10.94,21.79-7.84,46.7-16.81,66.23-7.35,12.26,5.95,18.72,19.27,31.64,45.91,3.9,8.05,11.82,25.65,23.6,48.03,2.5,4.75,6.54,12.25,14.76,18.94,7.53,6.12,15.32,8.93,20.5,10.32"/>
        <path class="cls-2" d="m-42.94,253.33c6.66.36,16.48.45,28.14-1.18,24.63-3.45,39.52-12.08,87.26-38.96,12.85-7.24,34.42-19.36,61.8-34.34,11.07-6.05,28.28-15.42,51.47-26.28,12.61-5.91,18.91-8.86,24.69-10.94,21.79-7.84,46.7-16.81,66.23-7.35,12.26,5.95,18.72,19.27,31.64,45.91,3.9,8.05,11.82,25.65,23.6,48.03,2.5,4.75,6.54,12.25,14.76,18.94,7.53,6.12,15.32,8.93,20.5,10.32"/>
        <path class="cls-2" d="m-43.78,260.16c6.66.36,16.48.45,28.14-1.18,24.63-3.45,39.52-12.08,87.26-38.96,12.85-7.24,34.42-19.36,61.8-34.34,11.07-6.05,28.28-15.42,51.47-26.28,12.61-5.91,18.91-8.86,24.69-10.94,21.79-7.84,46.7-16.81,66.23-7.35,12.26,5.95,18.72,19.27,31.64,45.91,3.9,8.05,11.82,25.65,23.6,48.03,2.5,4.75,6.54,12.25,14.76,18.94,7.53,6.12,15.32,8.93,20.5,10.32"/>
        <path class="cls-2" d="m-44.63,267c6.66.36,16.48.45,28.14-1.18,24.63-3.45,39.52-12.08,87.26-38.96,12.85-7.24,34.42-19.36,61.8-34.34,11.07-6.05,28.28-15.42,51.47-26.28,12.61-5.91,18.91-8.86,24.69-10.94,21.79-7.84,46.7-16.81,66.23-7.35,12.26,5.95,18.72,19.27,31.64,45.91,3.9,8.05,11.82,25.65,23.6,48.03,2.5,4.75,6.54,12.25,14.76,18.94,7.53,6.12,15.32,8.93,20.5,10.32"/>
        <path class="cls-2" d="m-45.48,273.83c6.66.36,16.48.45,28.14-1.18,24.63-3.45,39.52-12.08,87.26-38.96,12.85-7.24,34.42-19.36,61.8-34.34,11.07-6.05,28.28-15.42,51.47-26.28,12.61-5.91,18.91-8.86,24.69-10.94,21.79-7.84,46.7-16.81,66.23-7.35,12.26,5.95,18.72,19.27,31.64,45.91,3.9,8.05,11.82,25.65,23.6,48.03,2.5,4.75,6.54,12.25,14.76,18.94,7.53,6.12,15.32,8.93,20.5,10.32"/>
        <path class="cls-2" d="m-46.32,280.66c6.66.36,16.48.45,28.14-1.18,24.63-3.45,39.52-12.08,87.26-38.96,12.85-7.24,34.42-19.36,61.8-34.34,11.07-6.05,28.28-15.42,51.47-26.28,12.61-5.91,18.91-8.86,24.69-10.94,21.79-7.84,46.7-16.81,66.23-7.35,12.26,5.95,18.72,19.27,31.64,45.91,3.9,8.05,11.82,25.65,23.6,48.03,2.5,4.75,6.54,12.25,14.76,18.94,7.53,6.12,15.32,8.93,20.5,10.32"/>
        <path class="cls-2" d="m-47.17,287.5c6.66.36,16.48.45,28.14-1.18,24.63-3.45,39.52-12.08,87.26-38.96,12.85-7.24,34.42-19.36,61.8-34.34,11.07-6.05,28.28-15.42,51.47-26.28,12.61-5.91,18.91-8.86,24.69-10.94,21.79-7.84,46.7-16.81,66.23-7.35,12.26,5.95,18.72,19.27,31.64,45.91,3.9,8.05,11.82,25.65,23.6,48.03,2.5,4.75,6.54,12.25,14.76,18.94,7.53,6.12,15.32,8.93,20.5,10.32"/>
        <path class="cls-2" d="m-48.02,294.33c6.66.36,16.48.45,28.14-1.18,24.63-3.45,39.52-12.08,87.26-38.96,12.85-7.24,34.42-19.36,61.8-34.34,11.07-6.05,28.28-15.42,51.47-26.28,12.61-5.91,18.91-8.86,24.69-10.94,21.79-7.84,46.7-16.81,66.23-7.35,12.26,5.95,18.72,19.27,31.64,45.91,3.9,8.05,11.82,25.65,23.6,48.03,2.5,4.75,6.54,12.25,14.76,18.94,7.53,6.12,15.32,8.93,20.5,10.32"/>
        <path class="cls-2" d="m-48.86,301.17c6.66.36,16.48.45,28.14-1.18,24.63-3.45,39.52-12.08,87.26-38.96,12.85-7.24,34.42-19.36,61.8-34.34,11.07-6.05,28.28-15.42,51.47-26.28,12.61-5.91,18.91-8.86,24.69-10.94,21.79-7.84,46.7-16.81,66.23-7.35,12.26,5.95,18.72,19.27,31.64,45.91,3.9,8.05,11.82,25.65,23.6,48.03,2.5,4.75,6.54,12.25,14.76,18.94,7.53,6.12,15.32,8.93,20.5,10.32"/>
        <path class="cls-2" d="m-49.71,308c6.66.36,16.48.45,28.14-1.18,24.63-3.45,39.52-12.08,87.26-38.96,12.85-7.24,34.42-19.36,61.8-34.34,11.07-6.05,28.28-15.42,51.47-26.28,12.61-5.91,18.91-8.86,24.69-10.94,21.79-7.84,46.7-16.81,66.23-7.35,12.26,5.95,18.72,19.27,31.64,45.91,3.9,8.05,11.82,25.65,23.6,48.03,2.5,4.75,6.54,12.25,14.76,18.94,7.53,6.12,15.32,8.93,20.5,10.32"/>
        <path class="cls-2" d="m-50.56,314.83c6.66.36,16.48.45,28.14-1.18,24.63-3.45,39.52-12.08,87.26-38.96,12.85-7.24,34.42-19.36,61.8-34.34,11.07-6.05,28.28-15.42,51.47-26.28,12.61-5.91,18.91-8.86,24.69-10.94,21.79-7.84,46.7-16.81,66.23-7.35,12.26,5.95,18.72,19.27,31.64,45.91,3.9,8.05,11.82,25.65,23.6,48.03,2.5,4.75,6.54,12.25,14.76,18.94,7.53,6.12,15.32,8.93,20.5,10.32"/>
        <path class="cls-2" d="m-51.41,321.67c6.66.36,16.48.45,28.14-1.18,24.63-3.45,39.52-12.08,87.26-38.96,12.85-7.24,34.42-19.36,61.8-34.34,11.07-6.05,28.28-15.42,51.47-26.28,12.61-5.91,18.91-8.86,24.69-10.94,21.79-7.84,46.7-16.81,66.23-7.35,12.26,5.95,18.72,19.27,31.64,45.91,3.9,8.05,11.82,25.65,23.6,48.03,2.5,4.75,6.54,12.25,14.76,18.94,7.53,6.12,15.32,8.93,20.5,10.32"/>
        <path class="cls-2" d="m-52.25,328.5c6.66.36,16.48.45,28.14-1.18,24.63-3.45,39.52-12.08,87.26-38.96,12.85-7.24,34.42-19.36,61.8-34.34,11.07-6.05,28.28-15.42,51.47-26.28,12.61-5.91,18.91-8.86,24.69-10.94,21.79-7.84,46.7-16.81,66.23-7.35,12.26,5.95,18.72,19.27,31.64,45.91,3.9,8.05,11.82,25.65,23.6,48.03,2.5,4.75,6.54,12.25,14.76,18.94,7.53,6.12,15.32,8.93,20.5,10.32"/>
        <path class="cls-2" d="m-53.1,335.34c6.66.36,16.48.45,28.14-1.18,24.63-3.45,39.52-12.08,87.26-38.96,12.85-7.24,34.42-19.36,61.8-34.34,11.07-6.05,28.28-15.42,51.47-26.28,12.61-5.91,18.91-8.86,24.69-10.94,21.79-7.84,46.7-16.81,66.23-7.35,12.26,5.95,18.72,19.27,31.64,45.91,3.9,8.05,11.82,25.65,23.6,48.03,2.5,4.75,6.54,12.25,14.76,18.94,7.53,6.12,15.32,8.93,20.5,10.32"/>
        <path class="cls-2" d="m-53.95,342.17c6.66.36,16.48.45,28.14-1.18,24.63-3.45,39.52-12.08,87.26-38.96,12.85-7.24,34.42-19.36,61.8-34.34,11.07-6.05,28.28-15.42,51.47-26.28,12.61-5.91,18.91-8.86,24.69-10.94,21.79-7.84,46.7-16.81,66.23-7.35,12.26,5.95,18.72,19.27,31.64,45.91,3.9,8.05,11.82,25.65,23.6,48.03,2.5,4.75,6.54,12.25,14.76,18.94,7.53,6.12,15.32,8.93,20.5,10.32"/>
      </g>
      <path class="cls-1" d="m284,212.26c-4.72-3.95-9.2-7.16-13.39-9.42-42.59-22.99-96.2-10.16-160.48,21.54-32.14,15.86-66.95,36.44-104.39,59.62h101.75c8.45-5.67,16.76-11.07,24.83-16.12,69.17-43.2,116.49-53.48,142.24-14.57,3.28,4.95,6.42,9.71,9.44,14.31v-55.36Z"/>
    </g>
  </g>
</svg>