<?xml version="1.0" encoding="UTF-8"?>
<svg id="Camada_2" data-name="Camada 2" xmlns="http://www.w3.org/2000/svg" viewBox="0 0 264.59 54">
  <defs>
    <style>
      .cls-1 {
        fill: #fff;
      }

      .cls-2 {
        fill: none;
        stroke: #fff;
        stroke-miterlimit: 10;
        stroke-width: 2px;
      }

      .cls-3 {
        fill: #d30058;
      }
    </style>
  </defs>
  <g id="Camada_1-2" data-name="Camada 1">
    <g>
      <g>
        <path class="cls-1" d="m51.08,16.34h5.26l-10.98,23.3h-5.56l-1.23-10.68c-.23-2.23-.37-4.59-.27-6.86h-.13c-.73,2.3-1.66,4.63-2.73,6.86l-4.89,10.68h-5.56l-2.76-23.3h5.42l1.13,11.12c.2,2.23.3,4.33.17,6.59h.13c.7-2.26,1.53-4.36,2.53-6.59l5.12-11.12h5.26l1.2,11.12c.23,2.23.27,4.33.17,6.59h.13c.67-2.26,1.56-4.36,2.53-6.59l5.06-11.12Z"/>
        <path class="cls-1" d="m59.53,16.34h17.67l-.77,4.36h-12.35l-.83,4.79h10.95l-.73,4.33h-10.98l-.97,5.46h12.61l-.73,4.36h-17.97l4.09-23.3Z"/>
        <path class="cls-1" d="m81.29,16.34h10.98c4.83,0,7.22,1.66,7.22,4.76,0,2.7-1.2,5.23-4.09,6.09v.13c1.76.33,3.13,1.6,3.13,4.09,0,5.82-3.93,8.22-9.82,8.22h-11.51l4.09-23.3Zm7.42,19.27c2.83,0,4.43-.87,4.43-3.99,0-1.56-.93-2-3.36-2h-5.59l-1.03,5.99h5.56Zm1.4-9.92c2.46,0,4.03-.77,4.03-3.56,0-1.33-.83-1.76-2.96-1.76h-5.32l-.96,5.32h5.22Z"/>
        <path class="cls-1" d="m112.13,16.34h10.98c4.83,0,7.22,1.66,7.22,4.76,0,2.7-1.2,5.23-4.09,6.09v.13c1.76.33,3.13,1.6,3.13,4.09,0,5.82-3.93,8.22-9.82,8.22h-11.51l4.09-23.3Zm7.42,19.27c2.83,0,4.43-.87,4.43-3.99,0-1.56-.93-2-3.36-2h-5.59l-1.03,5.99h5.56Zm1.4-9.92c2.46,0,4.03-.77,4.03-3.56,0-1.33-.83-1.76-2.96-1.76h-5.32l-.96,5.32h5.22Z"/>
        <path class="cls-1" d="m135.83,38.8c-2.4-1.33-3.36-3.89-2.66-7.75l2.6-14.71h5.49l-2.53,14.41c-.63,3.49.43,4.63,4.09,4.63s5.16-1.13,5.79-4.63l2.53-14.41h5.29l-2.6,14.71c-.67,3.86-2,6.42-4.86,7.75-1.8.83-3.99,1.17-6.79,1.17s-4.86-.33-6.36-1.17Z"/>
        <path class="cls-1" d="m164.38,29.65c-3.36-.73-5.39-2.2-5.39-5.39,0-6.29,4.13-8.25,10.38-8.25,3.39,0,6.52.5,8.39,1.13l-1.56,3.96c-1.63-.5-3.96-.8-6.79-.8s-5.02.27-5.02,2.96c0,1.33,1.06,1.63,3.26,2.13l3.16.67c3.53.77,5.32,2.1,5.32,5.09,0,6.76-4.06,8.82-10.75,8.82-3.83,0-7.15-.57-9.02-1.3l1.53-3.93c2.23.67,5.23.93,7.62.93,2.76,0,5.12-.37,5.12-3.19,0-1.26-.96-1.66-3.06-2.13l-3.19-.7Z"/>
        <path class="cls-1" d="m193.53,16c3,0,5.99.53,7.59,1.23l-1.66,3.99c-1.56-.47-3.43-.7-5.46-.7-5.36,0-7.59,1.9-8.59,7.45-.2,1.03-.27,1.93-.27,2.73,0,3.33,1.66,4.73,6.26,4.73,2.03,0,4.06-.27,5.79-.7l.23,3.99c-1.8.67-4.59,1.23-7.59,1.23-6.46,0-10.28-2.6-10.28-8.59,0-1.06.1-2.2.33-3.46,1.46-8.19,5.69-11.91,13.64-11.91Z"/>
        <path class="cls-1" d="m222.81,39.63h-5.49l-1.03-5.32h-9.12l-2.9,5.32h-5.36l13.41-23.3h5.32l5.16,23.3Zm-13.41-9.42h6.09l-.7-3.56c-.3-1.63-.57-3.46-.7-5.36h-.13c-.83,1.9-1.7,3.69-2.6,5.36l-1.96,3.56Z"/>
      </g>
      <rect class="cls-2" x="1" y="1" width="244" height="52" rx="26" ry="26"/>
      <g>
        <path class="cls-1" d="m264.12,45.42l-11.21-13.47c.89-1.2,1.56-2.59,1.94-4.13,1.51-6.17-2.26-12.39-8.43-13.91s-12.39,2.26-13.91,8.43,2.26,12.39,8.43,13.91c3.23.79,6.46.12,9.04-1.56l11.06,13.29c.28.34.66.56,1.06.66.6.15,1.25.02,1.76-.4.85-.71.96-1.97.26-2.82Z"/>
        <circle class="cls-3" cx="243.69" cy="25.09" r="8.5"/>
      </g>
    </g>
  </g>
</svg>