<?xml version="1.0" encoding="UTF-8"?>
<svg id="Camada_2" data-name="Camada 2" xmlns="http://www.w3.org/2000/svg" viewBox="0 0 165.01 60.01">
  <defs>
    <style>
      .cls-1 {
        fill: #d30058;
      }
    </style>
  </defs>
  <g id="Camada_1-2" data-name="Camada 1">
    <g>
      <g>
        <path class="cls-1" d="m23.89,40.62h-5.49l-1.03-5.32h-9.12l-2.9,5.32H0l13.41-23.3h5.32l5.16,23.3Zm-13.41-9.42h6.09l-.7-3.56c-.3-1.63-.57-3.46-.7-5.36h-.13c-.83,1.9-1.7,3.69-2.6,5.36l-1.96,3.56Z"/>
        <path class="cls-1" d="m38.14,21.68l-3.33,18.94h-5.39l3.33-18.94h-7.16l.8-4.36h19.63l-.77,4.36h-7.12Z"/>
        <path class="cls-1" d="m49.41,17.32h17.67l-.77,4.36h-12.35l-.83,4.79h10.95l-.73,4.33h-10.98l-.97,5.46h12.61l-.73,4.36h-17.97l4.09-23.3Z"/>
        <path class="cls-1" d="m87.95,40.62h-6.29l-4.56-10.92c-.87-2.06-1.5-3.79-2.03-6.06h-.1c-.2,2.5-.5,4.56-.93,7.02l-1.76,9.95h-5.19l4.09-23.3h6.29l4.49,10.92c.87,2.06,1.5,3.79,2.03,6.06h.1c.2-2.5.53-4.56.96-7.02l1.76-9.95h5.23l-4.09,23.3Z"/>
        <path class="cls-1" d="m100.43,40.62c-4.29-.83-6.72-3.46-6.72-8.25,0-1.06.1-2.2.33-3.46,1.46-8.19,5.69-11.91,13.64-11.91,3,0,5.99.53,7.59,1.23l-1.66,3.99c-1.56-.47-3.43-.7-5.46-.7-5.36,0-7.59,1.9-8.59,7.45-.2,1.03-.27,1.93-.27,2.73,0,3.33,1.66,4.73,6.26,4.73,2.03,0,4.06-.27,5.79-.7l.23,3.99c-1.8.67-4.59,1.23-7.59,1.23-.4,0-.77-.03-1.13-.03l-.27,1.13c1.93.1,2.96.73,2.96,2.16,0,2.5-1.96,3.53-4.49,3.53-1.33,0-2.66-.23-3.16-.47l.63-1.86c.47.1,1.03.17,1.7.17,1,0,2-.1,2-1.16,0-.7-.7-.9-2.7-.9l.9-2.9Z"/>
        <path class="cls-1" d="m136.96,40.62h-5.49l-1.03-5.32h-9.12l-2.9,5.32h-5.36l13.41-23.3h5.32l5.16,23.3Zm-7.26-25.76l-.6-.4c-.57-.33-1.06-.6-1.73-.6-.97,0-1.33.6-1.6,1.56h-3.23c.77-3.29,2.1-5.06,4.93-5.06,1.03,0,1.93.37,2.56.77l.63.37c.57.33,1.03.63,1.73.63.97,0,1.33-.57,1.6-1.6h3.19c-.77,3.33-2.06,5.09-4.89,5.09-1.06,0-1.93-.4-2.6-.77Zm-6.16,16.34h6.09l-.7-3.56c-.3-1.63-.57-3.46-.7-5.36h-.13c-.83,1.9-1.7,3.69-2.6,5.36l-1.96,3.56Z"/>
        <path class="cls-1" d="m164.08,25.61c0,1.03-.1,2.2-.33,3.43-1.43,8.15-5.86,11.91-13.54,11.91-6.52,0-10.15-2.86-10.15-8.65,0-1.03.1-2.16.33-3.39,1.43-8.15,5.89-11.91,13.58-11.91,6.52,0,10.12,2.83,10.12,8.62Zm-5.86,3.36c.2-1.1.3-2.06.3-2.96,0-3.06-1.33-4.73-5.09-4.73-4.86,0-6.66,2.76-7.52,7.69-.2,1.1-.3,2.06-.3,2.93,0,3.1,1.33,4.76,5.09,4.76,4.86,0,6.69-2.76,7.52-7.69Z"/>
      </g>
      <g>
        <polygon class="cls-1" points="80.39 0 71.01 0 69.2 5.46 78.58 5.46 80.39 0"/>
        <polygon class="cls-1" points="22.96 5.46 32.34 5.46 34.15 0 24.77 0 22.96 5.46"/>
        <polygon class="cls-1" points="95.81 0 86.43 0 84.62 5.46 94 5.46 95.81 0"/>
        <polygon class="cls-1" points="49.56 0 40.18 0 38.37 5.46 47.75 5.46 49.56 0"/>
        <polygon class="cls-1" points="64.98 0 55.6 0 53.79 5.46 63.17 5.46 64.98 0"/>
        <polygon class="cls-1" points="148.09 0 146.28 5.46 160.86 5.46 162.58 0 148.09 0"/>
        <polygon class="cls-1" points="18.73 0 4.15 0 2.43 5.46 16.92 5.46 18.73 0"/>
        <polygon class="cls-1" points="126.64 0 117.26 0 115.45 5.46 124.83 5.46 126.64 0"/>
        <polygon class="cls-1" points="142.05 0 132.67 0 130.87 5.46 140.24 5.46 142.05 0"/>
        <polygon class="cls-1" points="111.22 0 101.84 0 100.04 5.46 109.41 5.46 111.22 0"/>
      </g>
      <g>
        <polygon class="cls-1" points="80.39 54.55 71.01 54.55 69.2 60.01 78.58 60.01 80.39 54.55"/>
        <polygon class="cls-1" points="22.96 60.01 32.34 60.01 34.15 54.55 24.77 54.55 22.96 60.01"/>
        <polygon class="cls-1" points="95.81 54.55 86.43 54.55 84.62 60.01 94 60.01 95.81 54.55"/>
        <polygon class="cls-1" points="49.56 54.55 40.18 54.55 38.37 60.01 47.75 60.01 49.56 54.55"/>
        <polygon class="cls-1" points="64.98 54.55 55.6 54.55 53.79 60.01 63.17 60.01 64.98 54.55"/>
        <polygon class="cls-1" points="148.09 54.55 146.28 60.01 160.86 60.01 162.58 54.55 148.09 54.55"/>
        <polygon class="cls-1" points="18.73 54.55 4.15 54.55 2.43 60.01 16.92 60.01 18.73 54.55"/>
        <polygon class="cls-1" points="126.64 54.55 117.26 54.55 115.45 60.01 124.83 60.01 126.64 54.55"/>
        <polygon class="cls-1" points="142.05 54.55 132.67 54.55 130.87 60.01 140.24 60.01 142.05 54.55"/>
        <polygon class="cls-1" points="111.22 54.55 101.84 54.55 100.04 60.01 109.41 60.01 111.22 54.55"/>
      </g>
    </g>
  </g>
</svg>