<svg id="Camada_1" data-name="Camada 1" xmlns="http://www.w3.org/2000/svg" xmlns:xlink="http://www.w3.org/1999/xlink" viewBox="0 0 306 316"><defs><style>.cls-1,.cls-8{fill:none;}.cls-2,.cls-4{fill:#bbd034;}.cls-2{opacity:0.7;}.cls-3{clip-path:url(#clip-path);}.cls-5{fill:#fff;}.cls-6,.cls-7{fill:#0b5f55;}.cls-7,.cls-8{stroke:#0b5f55;stroke-linecap:round;stroke-linejoin:round;}.cls-7{stroke-width:1.37px;}.cls-8{stroke-width:8px;}</style><clipPath id="clip-path"><circle class="cls-1" cx="153" cy="157.4" r="137"/></clipPath></defs><circle class="cls-2" cx="153" cy="158" r="136.78"/><g class="cls-3"><path class="cls-4" d="M205.84,327.94a5.4,5.4,0,1,1-10.79,0,5.34,5.34,0,0,1,.82-2.85l-51.65-51.65H-78.54V271H145.23l52.36,52.36a5.34,5.34,0,0,1,2.85-.82A5.4,5.4,0,0,1,205.84,327.94Z"/><path class="cls-4" d="M233.56,383.67a5.26,5.26,0,0,1-10.51,0,5.15,5.15,0,0,1,.94-3L144.34,301H-78.54v-1.87H145.11l80.2,80.2a5.18,5.18,0,0,1,3-.94A5.26,5.26,0,0,1,233.56,383.67Zm-8.63,0a3.38,3.38,0,1,0,3.38-3.38A3.38,3.38,0,0,0,224.93,383.67Z"/><path class="cls-4" d="M205.7,160.78a5.24,5.24,0,0,1-4.32,5.17V245.3H-78.54v-1.87H199.51V166a5.25,5.25,0,1,1,6.19-5.17Zm-8.64,0a3.38,3.38,0,1,0,3.38-3.38A3.38,3.38,0,0,0,197.06,160.78Z"/><path class="cls-4" d="M398.45,328a3,3,0,0,1-5.88.65H255.89l-28.24-28.25V275.12a3,3,0,1,1,1.32,0v24.69l27.47,27.48H392.58a3,3,0,0,1,5.87.66Z"/><path class="cls-4" d="M398.45,229.88a3,3,0,0,1-5.88.66H255.88l-13-14.06V191.54a3,3,0,1,1,1.32,0V216l12.24,13.25H392.57a3,3,0,0,1,5.88.66Z"/><path class="cls-4" d="M484.45,216.23a5.4,5.4,0,0,1-8.08,4.68l-24.68,24.67h-196l-28.57-28.85V138.17a5.4,5.4,0,1,1,2.43,0v77.55l27.15,27.43h194l23.9-23.9a5.39,5.39,0,1,1,9.86-3Z"/><path class="cls-4" d="M623.75,328a5.39,5.39,0,0,1-10.65,1.21H478.55l-55.72-55.72H261.42a5.4,5.4,0,1,1,0-2.43H423.83l55.73,55.72H613.1A5.39,5.39,0,0,1,623.75,328Z"/><path class="cls-4" d="M440.24,411.53a3,3,0,1,1-3.64-2.9V356.09L395.2,316.4H286.92a3,3,0,1,1,0-1.32H395.73l42.19,40.45v53.1A3,3,0,0,1,440.24,411.53Z"/><path class="cls-4" d="M175.57,188.5a3,3,0,0,1-5.85.8H88.34V149.05a3,3,0,1,1,1.32,0V188h80a3,3,0,0,1,5.91.52Z"/><path class="cls-4" d="M64.12,160.78a3,3,0,0,1-2.32,2.9v39.13L50.31,216.89H-47.41a3,3,0,0,1-2.89,2.32,3,3,0,0,1-3-3,3,3,0,0,1,3-3,3,3,0,0,1,2.89,2.32H49.68l10.8-13.23V163.68a3,3,0,1,1,3.64-2.9Z"/><path class="cls-4" d="M177.84,202.57a5.26,5.26,0,0,1-10.43.94h-78l-27.87,27.3H-17.27a5.25,5.25,0,0,1-5.17,4.32,5.26,5.26,0,0,1-5.26-5.25,5.27,5.27,0,0,1,5.26-5.26,5.25,5.25,0,0,1,5.17,4.32h78l27.86-27.31h78.79a5.26,5.26,0,0,1,10.43.94Zm-8.64,0a3.38,3.38,0,1,0,3.38-3.38A3.38,3.38,0,0,0,169.2,202.57Zm-195,27.31a3.39,3.39,0,0,0,3.38,3.38,3.39,3.39,0,0,0,3.38-3.38,3.38,3.38,0,0,0-3.38-3.38A3.38,3.38,0,0,0-25.82,229.88Z"/></g><path class="cls-5" d="M191,135.87a11.61,11.61,0,0,0-6.68,4.75A11.9,11.9,0,0,0,171.12,135a11.63,11.63,0,0,0-6.69,4.75,11.89,11.89,0,0,0-13.19-5.59,11.64,11.64,0,0,0-6.45,4.42l-7.93-25.93a11.93,11.93,0,0,0-14.29-8.12,11.72,11.72,0,0,0-8.2,14.76l16.27,53.21a11.72,11.72,0,0,0-15.86,16.61s14.24,20.6,19.85,28.7c.84,1.2,1.67,2.46,2.47,3.67.31.47.61.94.92,1.4a42.55,42.55,0,0,0,20.66,16.26,41.82,41.82,0,0,0,26.82.72l4.56-1.39a42.26,42.26,0,0,0,28-52.7L205.29,144A11.94,11.94,0,0,0,191,135.87Z"/><path class="cls-6" d="M115.41,92.71a2.42,2.42,0,0,1-1.2-1.45l-3.94-12.88A2.46,2.46,0,1,1,115,76.94l3.94,12.88a2.46,2.46,0,0,1-1.64,3.07A2.41,2.41,0,0,1,115.41,92.71Z"/><path class="cls-6" d="M99.27,105.77,87.38,99.44a2.46,2.46,0,1,1,2.31-4.35l11.89,6.33a2.46,2.46,0,0,1-2.31,4.35Z"/><path class="cls-6" d="M84.21,130.35a2.47,2.47,0,0,1-1.2-1.46,2.45,2.45,0,0,1,1.64-3.07l12.88-3.94A2.46,2.46,0,0,1,99,126.59l-12.88,3.94A2.49,2.49,0,0,1,84.21,130.35Z"/><path class="cls-6" d="M149.1,111a2.42,2.42,0,0,1-1.2-1.45,2.47,2.47,0,0,1,1.64-3.08l12.88-3.94a2.46,2.46,0,0,1,1.44,4.71L151,111.21A2.44,2.44,0,0,1,149.1,111Z"/><path class="cls-6" d="M136.05,94.89a2.46,2.46,0,0,1-1-3.33l6.32-11.89A2.46,2.46,0,0,1,145.7,82l-6.32,11.9A2.46,2.46,0,0,1,136.05,94.89Z"/><path class="cls-7" d="M215.5,177.38l-4.43,1.53,2.52,8.26A37.55,37.55,0,0,1,188.69,234l-4.56,1.4a37.75,37.75,0,0,1-42.2-15.09l-.92-1.39c-.82-1.24-1.66-2.52-2.52-3.77-5.61-8.09-19.86-28.68-19.86-28.68a7,7,0,0,1,1.79-9.79,7,7,0,0,1,9.79,1.79l4.23,6.11a2.35,2.35,0,0,0,2.91.8l.09,0a2.36,2.36,0,0,0,1.18-2.78L118.86,118a7,7,0,0,1,4.92-8.86,7.22,7.22,0,0,1,8.6,5L143.05,149l6.6,21.59a2.35,2.35,0,0,0,4.49-1.37l-6.6-21.59a7,7,0,0,1,4.92-8.86,7.22,7.22,0,0,1,8.6,5l1.87,6.11,6,19.72a2.35,2.35,0,0,0,4.49-1.38l-6-19.71a7,7,0,0,1,4.92-8.86,7.22,7.22,0,0,1,8.6,5l1.87,6.11,5.08,16.61a2.35,2.35,0,1,0,4.49-1.37l-5.08-16.61a7,7,0,0,1,4.91-8.86,7.22,7.22,0,0,1,8.61,5l6.46,21.12L211.7,165l-6.41-21a11.94,11.94,0,0,0-14.3-8.12,11.61,11.61,0,0,0-6.68,4.75A11.9,11.9,0,0,0,171.12,135a11.63,11.63,0,0,0-6.69,4.75,11.89,11.89,0,0,0-13.19-5.59,11.64,11.64,0,0,0-6.45,4.42l-7.93-25.93a11.93,11.93,0,0,0-14.29-8.12,11.72,11.72,0,0,0-8.2,14.76l16.27,53.21a11.72,11.72,0,0,0-15.86,16.61s14.24,20.6,19.85,28.7c.84,1.2,1.67,2.46,2.47,3.67.31.47.61.94.92,1.4a42.55,42.55,0,0,0,20.66,16.26,41.82,41.82,0,0,0,26.82.72l4.56-1.39a42.26,42.26,0,0,0,28-52.7Z"/><path class="cls-8" d="M218.17,288.32a145.54,145.54,0,1,0-37.69,12.76"/><path class="cls-8" d="M269,117.73a123,123,0,1,0,6.67,32.69c-.17-2.6-.43-5.17-.75-7.71"/></svg>