<?xml version="1.0" encoding="UTF-8"?><svg xmlns="http://www.w3.org/2000/svg" viewBox="0 0 1089.71 574.22"><defs><style>.d{fill:#f6b90e;}.e{opacity:.3;}</style></defs><g id="a"/><g id="b"><g id="c"><g class="e"><path class="d" d="M661.54,304.55l-.55-.34c-1.2-.75-2.59-1.15-4.01-1.15-4.18,0-7.58,3.4-7.58,7.58s3.4,7.58,7.58,7.58,7.58-3.4,7.58-7.58c0-1.42-.4-2.8-1.15-4.01l-.34-.55,80.95-80.95h345.69v-2.16h-346.58l-81.59,81.59Z"/><path class="d" d="M743.3,266.69l-124.87,124.87-.56-.39c-1.23-.86-2.68-1.31-4.19-1.31-4.06,0-7.36,3.3-7.36,7.36s3.3,7.36,7.36,7.36,7.36-3.3,7.36-7.36c0-1.5-.45-2.95-1.31-4.18l-.39-.56,124.49-124.49h345.87v-1.3h-346.4Zm-129.61,136.59c-3.34,0-6.06-2.72-6.06-6.06s2.72-6.06,6.06-6.06,6.06,2.72,6.06,6.06-2.72,6.06-6.06,6.06Z"/><path class="d" d="M656.98,43.51c-4.06,0-7.36,3.3-7.36,7.36,0,3.56,2.54,6.61,6.05,7.24l.67,.12v123.17h433.37v-1.3h-432.07V58.23l.67-.12c3.5-.63,6.05-3.68,6.05-7.24,0-4.06-3.3-7.36-7.36-7.36Zm0,13.42c-3.34,0-6.06-2.72-6.06-6.06s2.72-6.06,6.06-6.06,6.06,2.72,6.06,6.06-2.72,6.06-6.06,6.06Z"/><path class="d" d="M829.89,309.98l-129.88,129.88h-252.14l-.12-.67c-.63-3.5-3.68-6.05-7.24-6.05-4.06,0-7.36,3.3-7.36,7.36s3.3,7.36,7.36,7.36c3.56,0,6.61-2.54,7.24-6.04l.12-.67h252.67l129.88-129.88h259.28v-1.3h-259.82Zm-389.38,136.59c-3.34,0-6.06-2.72-6.06-6.06s2.72-6.06,6.06-6.06,6.06,2.72,6.06,6.06-2.72,6.06-6.06,6.06Z"/><path class="d" d="M613.69,220.22c-2.11,0-3.83,1.72-3.83,3.83,0,1.79,1.22,3.31,2.98,3.71l.63,.14v39.35l-43.17,43.17h-212.53l-.14-.63c-.39-1.75-1.92-2.97-3.71-2.97-2.11,0-3.82,1.72-3.82,3.82s1.72,3.82,3.82,3.82c1.79,0,3.32-1.23,3.71-2.98l.14-.63h212.71l43.42-43.42v-39.53l.63-.14c1.75-.39,2.98-1.92,2.98-3.71,0-2.11-1.72-3.83-3.82-3.83Z"/><path class="d" d="M50.87,350.11c-2.11,0-3.82,1.72-3.82,3.82s1.72,3.82,3.82,3.82c1.79,0,3.32-1.22,3.71-2.98l.14-.63h125.94l43.29,43.3h39.53l.14,.63c.39,1.75,1.92,2.98,3.71,2.98,2.11,0,3.82-1.72,3.82-3.82s-1.72-3.82-3.82-3.82c-1.79,0-3.32,1.22-3.71,2.98l-.14,.63h-39.35l-43.29-43.29H54.72l-.14-.63c-.39-1.75-1.92-2.97-3.71-2.97Z"/><path class="d" d="M589.98,90.34c-2.11,0-3.82,1.72-3.82,3.82,0,1.79,1.22,3.31,2.98,3.71l.63,.14v38.92l-19.46,21.08h-212.52l-.14-.63c-.39-1.75-1.92-2.98-3.71-2.98-2.11,0-3.82,1.72-3.82,3.82s1.72,3.82,3.82,3.82c1.79,0,3.32-1.22,3.71-2.98l.14-.63h212.71l19.71-21.35v-39.09l.63-.14c1.75-.39,2.98-1.92,2.98-3.71,0-2.11-1.72-3.82-3.83-3.82Z"/><path class="d" d="M613.69,0c-4.18,0-7.58,3.4-7.58,7.58,0,3.55,2.41,6.58,5.87,7.37l.63,.14v121.49l-42.66,43.09H267.79l-37.85-37.85,.38-.55c.86-1.25,1.31-2.72,1.31-4.24,0-4.18-3.4-7.58-7.58-7.58s-7.58,3.4-7.58,7.58,3.4,7.58,7.58,7.58c1.32,0,2.62-.35,3.76-1.01l.54-.31,38.55,38.54h303.96l43.92-44.36V15.09l.63-.14c3.45-.79,5.87-3.82,5.87-7.37,0-4.18-3.4-7.58-7.58-7.58Z"/><path class="d" d="M440.52,238.63c-3.55,0-6.58,2.41-7.37,5.87l-.14,.63h-101.92l-102.49,102.72-.55-.34c-1.2-.75-2.58-1.15-4-1.15-4.18,0-7.58,3.4-7.58,7.58s3.4,7.58,7.58,7.58,7.58-3.4,7.58-7.58c0-1.42-.4-2.81-1.16-4.01l-.34-.55,101.86-102.08h101.02l.14,.63c.79,3.45,3.82,5.87,7.37,5.87,4.18,0,7.58-3.4,7.58-7.58s-3.4-7.58-7.58-7.58Z"/><path class="d" d="M570.4,216.47c-3.55,0-6.58,2.41-7.37,5.87l-.14,.63h-252.69l-86.59,86.59H15.09l-.14-.63c-.79-3.45-3.82-5.87-7.37-5.87-4.18,0-7.58,3.4-7.58,7.58s3.4,7.58,7.58,7.58c3.55,0,6.58-2.41,7.37-5.87l.14-.63H224.49l86.59-86.59h251.8l.14,.63c.79,3.45,3.82,5.87,7.37,5.87,4.18,0,7.58-3.4,7.58-7.58s-3.4-7.58-7.58-7.58Z"/><path class="d" d="M613.69,346.35c-3.55,0-6.58,2.41-7.37,5.87l-.14,.63h-166.11l-129.88,129.88h-78.62l-.14-.63c-.79-3.45-3.82-5.87-7.37-5.87-4.18,0-7.58,3.4-7.58,7.58s3.4,7.58,7.58,7.58c3.55,0,6.58-2.41,7.37-5.87l.14-.63h79.52l129.88-129.88h165.21l.14,.63c.79,3.45,3.82,5.87,7.37,5.87,4.18,0,7.58-3.4,7.58-7.58s-3.4-7.58-7.58-7.58Z"/><path class="d" d="M830.16,436.69c-2.11,0-3.82,1.72-3.82,3.82s1.72,3.82,3.82,3.82c1.79,0,3.32-1.22,3.71-2.98l.14-.63h82.65l43.29,43.29h82.83l.14,.63c.39,1.75,1.92,2.98,3.71,2.98,2.11,0,3.82-1.72,3.82-3.82s-1.72-3.82-3.82-3.82c-1.79,0-3.32,1.22-3.71,2.98l-.14,.63h-82.65l-43.29-43.29h-82.83l-.14-.63c-.39-1.75-1.92-2.98-3.71-2.98Z"/><path class="d" d="M958.31,350.11c-1.79,0-3.31,1.22-3.71,2.97l-.14,.63h-124.39l-86.71,86.72v39.53l-.63,.14c-1.75,.39-2.98,1.92-2.98,3.71,0,2.11,1.72,3.82,3.83,3.82s3.82-1.72,3.82-3.82c0-1.79-1.22-3.31-2.98-3.71l-.63-.14v-39.35l86.46-86.46h124.21l.14,.63c.39,1.75,1.92,2.98,3.71,2.98,2.11,0,3.82-1.72,3.82-3.82s-1.72-3.82-3.82-3.82Z"/><path class="d" d="M1003.34,371.75c-1.79,0-3.32,1.22-3.71,2.98l-.14,.63h-169.41l-65.07,65.07v82.83l-.63,.14c-1.75,.39-2.98,1.92-2.98,3.71,0,2.11,1.72,3.82,3.83,3.82s3.82-1.72,3.82-3.82c0-1.79-1.22-3.31-2.98-3.71l-.63-.14v-82.65l64.81-64.82h169.23l.14,.63c.39,1.75,1.92,2.98,3.71,2.98,2.11,0,3.82-1.72,3.82-3.82s-1.72-3.83-3.82-3.83Z"/><path class="d" d="M527.1,287.84c-1.79,0-3.32,1.22-3.71,2.98l-.14,.63h-169.41l-65.07,62.4v82.82l-.63,.14c-1.75,.39-2.98,1.92-2.98,3.71,0,2.11,1.72,3.82,3.82,3.82s3.83-1.72,3.83-3.82c0-1.79-1.22-3.32-2.98-3.71l-.63-.14v-82.64l64.81-62.14h169.24l.14,.63c.39,1.75,1.92,2.98,3.71,2.98,2.11,0,3.82-1.72,3.82-3.83s-1.72-3.82-3.82-3.82Z"/><path class="d" d="M700.28,479.99c-1.79,0-3.32,1.22-3.71,2.98l-.14,.63H440.43l-86.59,86.58H11.43l-.14-.63c-.39-1.75-1.92-2.98-3.71-2.98-2.11,0-3.82,1.72-3.82,3.82s1.72,3.82,3.82,3.82c1.79,0,3.32-1.22,3.71-2.98l.14-.63H354.02l86.59-86.58h255.82l.14,.63c.39,1.75,1.92,2.98,3.71,2.98,2.11,0,3.82-1.72,3.82-3.82s-1.72-3.82-3.82-3.82Z"/><path class="d" d="M830.16,24.32c-2.11,0-3.82,1.72-3.82,3.83,0,1.79,1.22,3.31,2.98,3.71l.63,.14v61.96h-125.8l-.12-.67c-.32-1.83-1.9-3.16-3.75-3.16-2.11,0-3.82,1.72-3.82,3.82s1.72,3.82,3.82,3.82c1.71,0,3.22-1.15,3.67-2.8l.16-.59h126.26V31.99l.63-.14c1.75-.39,2.98-1.92,2.98-3.71,0-2.11-1.72-3.83-3.83-3.83Z"/><path class="d" d="M873.45,47.05c-2.11,0-3.82,1.72-3.82,3.82,0,1.79,1.22,3.31,2.98,3.71l.63,.14v61.17l17.43,21.35h152.11l.14,.63c.39,1.75,1.92,2.98,3.71,2.98,2.11,0,3.82-1.72,3.82-3.82s-1.72-3.83-3.82-3.83c-1.79,0-3.32,1.22-3.71,2.98l-.14,.63h-151.9l-17.2-21.07V54.72l.63-.14c1.75-.39,2.98-1.92,2.98-3.71,0-2.11-1.72-3.82-3.82-3.82Z"/><path class="d" d="M50.87,176.93c-2.11,0-3.82,1.72-3.82,3.82s1.72,3.83,3.82,3.83c1.79,0,3.32-1.22,3.71-2.98l.14-.63h125.94l43.17,43.17v39.35l-.63,.14c-1.75,.39-2.98,1.92-2.98,3.71,0,2.11,1.72,3.82,3.82,3.82s3.82-1.72,3.82-3.82c0-1.79-1.22-3.32-2.98-3.71l-.63-.14v-39.53l-43.42-43.42H54.72l-.14-.63c-.39-1.75-1.92-2.98-3.71-2.98Z"/><path class="d" d="M570.4,389.86c-3.56,0-6.61,2.54-7.24,6.04l-.12,.67h-122.79l-129.88,129.88H144.82l-.12-.67c-.63-3.5-3.68-6.05-7.24-6.05-4.06,0-7.36,3.3-7.36,7.36s3.3,7.36,7.36,7.36c3.56,0,6.61-2.54,7.24-6.04l.12-.67h166.09l129.88-129.88h122.25l.12,.67c.63,3.5,3.68,6.05,7.24,6.05,4.06,0,7.36-3.3,7.36-7.36s-3.3-7.36-7.36-7.36Zm0,13.42c-3.34,0-6.06-2.72-6.06-6.06s2.72-6.06,6.06-6.06,6.06,2.72,6.06,6.06-2.72,6.06-6.06,6.06Zm-432.94,129.88c-3.34,0-6.06-2.72-6.06-6.06s2.72-6.06,6.06-6.06,6.06,2.72,6.06,6.06-2.72,6.06-6.06,6.06Z"/><path class="d" d="M700.28,108.45c-4.06,0-7.36,3.3-7.36,7.36s3.3,7.36,7.36,7.36c3.56,0,6.61-2.54,7.24-6.05l.12-.67h122.26l43.29,42.43h122.79l.12,.67c.63,3.5,3.68,6.05,7.24,6.05,4.06,0,7.36-3.3,7.36-7.36s-3.3-7.36-7.36-7.36c-3.56,0-6.61,2.54-7.24,6.05l-.12,.67h-122.26l-43.29-42.43h-122.79l-.12-.67c-.63-3.5-3.68-6.04-7.24-6.04Zm0,13.42c-3.34,0-6.06-2.72-6.06-6.06s2.72-6.06,6.06-6.06,6.06,2.72,6.06,6.06-2.72,6.06-6.06,6.06Zm303.06,42.43c-3.34,0-6.06-2.72-6.06-6.06s2.72-6.06,6.06-6.06,6.06,2.72,6.06,6.06-2.72,6.06-6.06,6.06Z"/><path class="d" d="M94.16,86.59c-4.06,0-7.36,3.3-7.36,7.36s3.3,7.36,7.36,7.36c3.46,0,6.48-2.46,7.19-5.85l.14-.64h165.58l43.29,43.29h79.47l.07,.73c.37,3.72,3.59,6.63,7.32,6.63,4.06,0,7.36-3.3,7.36-7.36s-3.3-7.36-7.36-7.36c-3.33,0-6.25,2.25-7.11,5.46l-.16,.6h-79.05l-43.29-43.29H101.54l-.1-.69c-.55-3.56-3.68-6.24-7.27-6.24Zm0,13.42c-3.34,0-6.06-2.72-6.06-6.06s2.72-6.06,6.06-6.06,6.06,2.72,6.06,6.06-2.72,6.06-6.06,6.06Zm303.06,44.16c-3.34,0-6.06-2.72-6.06-6.06s2.72-6.06,6.06-6.06,6.06,2.72,6.06,6.06-2.72,6.06-6.06,6.06Z"/></g></g></g></svg>