<svg xmlns="http://www.w3.org/2000/svg" viewBox="0 0 486 921.06"><defs><style>.cls-1{opacity:0.5;}.cls-2{fill:#015e53;}</style></defs><g id="Camada_2" data-name="Camada 2"><g id="Camada_1-2" data-name="Camada 1"><g class="cls-1"><path class="cls-2" d="M262.85,548.09a7.08,7.08,0,1,1-3.74,13.08L191.37,628.9V921.06h-3.19V627.58l68.67-68.67a7,7,0,0,1-1.08-3.75A7.08,7.08,0,0,1,262.85,548.09Z"/><path class="cls-2" d="M335.93,511.73a6.9,6.9,0,0,1,0,13.79,6.77,6.77,0,0,1-3.92-1.23L227.54,628.75V921.06h-2.46V627.73L330.27,522.55a6.8,6.8,0,0,1-1.23-3.92A6.9,6.9,0,0,1,335.93,511.73Zm0,11.33a4.44,4.44,0,1,0-4.43-4.43A4.44,4.44,0,0,0,335.93,523.06Z"/><path class="cls-2" d="M43.62,548.27a6.9,6.9,0,0,1,6.78,5.66H154.47V921.06H152V556.4H50.4a6.9,6.9,0,1,1-6.78-8.13Zm0,11.33a4.44,4.44,0,1,0-4.43-4.44A4.44,4.44,0,0,0,43.62,559.6Z"/><path class="cls-2" d="M372.47,365.57a6.9,6.9,0,0,1,1.23,13.68v213L264.08,701.83V921.06h-2.46V700.81L371.24,591.19V379.25a6.89,6.89,0,0,1,1.23-13.68Zm0,11.33a4.43,4.43,0,1,0-4.43-4.43A4.44,4.44,0,0,0,372.47,376.9Z"/><path class="cls-2" d="M262.85,295.48a3.9,3.9,0,0,1,.87,7.71V482.44l-37.05,37.05h-33.1a3.91,3.91,0,1,1,0-1.73H226l36-36V303.19a3.9,3.9,0,0,1,.86-7.71Z"/><path class="cls-2" d="M299.39,39.71a3.9,3.9,0,0,1,.87,7.7V152.88l36.54,36.53v33.11a3.92,3.92,0,1,1-1.73,0V190.13l-36.54-36.54V47.41a3.9,3.9,0,0,1,.87-7.7Z"/><path class="cls-2" d="M134.23,295.48a3.9,3.9,0,0,1,.87,7.71V482.47l-18.43,17H84a3.91,3.91,0,1,1,0-1.73h32l17.38-16V303.19a3.9,3.9,0,0,1,.86-7.71Z"/><path class="cls-2" d="M116.33,182.7a7.07,7.07,0,0,1,6.14,10.59l32.36,32.36v257.1L117,520.22H14A7.08,7.08,0,1,1,14,517H115.67l36-35.61V227l-31.35-31.34a7,7,0,0,1-4,1.22,7.08,7.08,0,1,1,0-14.15Z"/><path class="cls-2" d="M299.39,182.7a7.08,7.08,0,1,1,0,14.15,7,7,0,0,1-3.75-1.08l-85.57,85.38v84.43a7.08,7.08,0,1,1-3.19,0V279.83l86.5-86.32a7.07,7.07,0,0,1,6-10.81Z"/><path class="cls-2" d="M262.85,0a7.08,7.08,0,0,1,1.6,14V190.43l-73.08,73.08V475.2a7.08,7.08,0,1,1-3.19,0v-213l73.07-73.08V14a7.08,7.08,0,0,1,1.59-14Z"/><path class="cls-2" d="M409,182.7a7.07,7.07,0,0,1,1.6,14v66.85L301,373.13V511.74a7.08,7.08,0,1,1-3.19,0V371.81L407.41,262.19V196.66a7.07,7.07,0,0,1,1.6-14Z"/><path class="cls-2" d="M372.47,697.41a3.9,3.9,0,0,1,.87,7.71V774l36.54,36.54v69.64a3.91,3.91,0,1,1-1.74,0V811.3l-36.53-36.54V705.12a3.9,3.9,0,0,1,.86-7.71Z"/><path class="cls-2" d="M409,624.33a3.91,3.91,0,1,1-3.8,4.78H372.83l-72.57,72.57v104a3.91,3.91,0,1,1-1.74,0V701l73.58-73.58h33.1A3.9,3.9,0,0,1,409,624.33Z"/><path class="cls-2" d="M445.55,642.6a3.91,3.91,0,1,1-3.8,4.78H372.83l-54.3,54.3v142a3.91,3.91,0,1,1-1.74,0V701l55.32-55.31h69.64A3.9,3.9,0,0,1,445.55,642.6Z"/><path class="cls-2" d="M372.47,240.67a3.91,3.91,0,1,1-3.8,4.78H299.76L247.7,299.74v142a3.91,3.91,0,1,1-1.73,0V299l53-55.32h69.65A3.9,3.9,0,0,1,372.47,240.67Z"/><path class="cls-2" d="M482.09,3.17a3.9,3.9,0,0,1,.86,7.7V299.75l-73.07,73.08V587.91a3.91,3.91,0,1,1-1.74,0V372.11L481.22,299V10.87a3.9,3.9,0,0,1,.87-7.7Z"/><path class="cls-2" d="M80,587.79a3.91,3.91,0,0,1,1,7.67V702.19H28.23a3.92,3.92,0,1,1,0-1.73H79.29V595.54a3.9,3.9,0,0,1,.68-7.75Z"/><path class="cls-2" d="M43.62,734a3.88,3.88,0,0,1,3.79,3H98.74l18.46,15.07V880.22a3.91,3.91,0,1,1-1.74,0V752.89L98.12,738.73H47.41A3.9,3.9,0,1,1,43.62,734Z"/><path class="cls-2" d="M153.24,39.71a3.9,3.9,0,0,1,.86,7.7V152.88l36,36h32.39a3.91,3.91,0,1,1,0,1.73h-33.1l-37-37V47.41a3.9,3.9,0,0,1,.87-7.7Z"/><path class="cls-2" d="M445.55,109.8a6.9,6.9,0,0,1,1.23,13.68V263.36L337.16,373V475.31a6.89,6.89,0,1,1-2.46,0V372L444.32,262.34V123.48a6.89,6.89,0,0,1,1.23-13.68Zm0,11.33a4.44,4.44,0,1,0-4.43-4.44A4.44,4.44,0,0,0,445.55,121.13ZM335.93,486.52a4.44,4.44,0,1,0-4.43-4.43A4.43,4.43,0,0,0,335.93,486.52Z"/><path class="cls-2" d="M98.43,584.81a6.89,6.89,0,0,1,1.23,13.67V700.82l35.8,36.54V840.7a6.89,6.89,0,1,1-2.46,0V738.36L97.2,701.82V598.48a6.89,6.89,0,0,1,1.23-13.67Zm0,11.33A4.44,4.44,0,1,0,94,591.7,4.44,4.44,0,0,0,98.43,596.14Zm35.8,255.77a4.43,4.43,0,1,0-4.43-4.43A4.44,4.44,0,0,0,134.23,851.91Z"/><path class="cls-2" d="M80,73.26A6.89,6.89,0,0,1,81.39,86.9V225.8l36.54,36.54v66.74a6.86,6.86,0,1,1-2.47.19V263.36L78.93,226.82V87a6.89,6.89,0,0,1,1-13.71Zm0,11.33a4.44,4.44,0,1,0-4.43-4.43A4.44,4.44,0,0,0,80,84.59Zm37.27,255.77a4.43,4.43,0,1,0-4.43-4.43A4.44,4.44,0,0,0,117.24,340.36Z"/></g></g></g></svg>