<?xml version="1.0" encoding="UTF-8"?><svg id="Camada_2" xmlns="http://www.w3.org/2000/svg" viewBox="0 0 382.9 278.86"><defs><style>.cls-1{stroke-width:3px;}.cls-1,.cls-2{fill:none;stroke:#b1cd4e;stroke-miterlimit:10;}.cls-3{fill:#b1cd4e;}.cls-4{fill:#0b5f55;}.cls-2{stroke-width:2.83px;}</style></defs><g id="Camada_1-2"><g><g><path class="cls-3" d="M.11,205.33c-2.11-35.42,25-65.95,60.42-68.06l311.51-18.53,.19,3.14L60.72,140.41C27.03,142.41,1.25,171.45,3.25,205.15c2,33.69,31.04,59.47,64.74,57.47l.19,3.14C32.75,267.86,2.22,240.76,.11,205.33Z"/><circle class="cls-3" cx="71.3" cy="264.09" r="14.77"/><path class="cls-3" d="M372.77,130.97c-5.93,.35-11.03-4.17-11.38-10.1-.35-5.93,4.17-11.03,10.1-11.38,5.93-.35,11.03,4.17,11.38,10.1,.35,5.93-4.17,11.03-10.1,11.38Z"/></g><circle class="cls-4" cx="200.11" cy="136.78" r="136.78"/><circle class="cls-2" cx="200.11" cy="136.78" r="112.2"/><g><circle class="cls-1" cx="259.84" cy="88.27" r="13.8"/><circle class="cls-1" cx="263.87" cy="166.97" r="9.77"/><circle class="cls-1" cx="203.72" cy="139.55" r="25.73"/><circle class="cls-1" cx="138.71" cy="85.6" r="11.83"/><circle class="cls-1" cx="141.54" cy="170.96" r="14.96"/><circle class="cls-1" cx="198.23" cy="209.06" r="11.63"/><line class="cls-1" x1="154.86" y1="164.15" x2="180.37" y2="150.36"/><line class="cls-1" x1="198.85" y1="197.43" x2="200.58" y2="165.08"/><line class="cls-1" x1="147.73" y1="93.25" x2="183.52" y2="123.62"/><line class="cls-1" x1="249.84" y1="97.79" x2="222.14" y2="121.59"/><line class="cls-1" x1="255.08" y1="162.69" x2="227.55" y2="149.26"/></g></g></g></svg>