<?xml version="1.0" encoding="UTF-8"?><svg xmlns="http://www.w3.org/2000/svg" xmlns:xlink="http://www.w3.org/1999/xlink" viewBox="0 0 1920 1080"><defs><style>.r{fill:url(#l);}.s{fill:url(#m);}.t{fill:url(#f);}.u{fill:url(#p);}.v{fill:url(#g);}.w{fill:url(#i);}.x{clip-path:url(#d);}.y{fill:url(#h);}.a`{fill:url(#e);}.aa{fill:none;}.ab{fill:url(#n);}.ac{fill:#ee7203;}.ad{fill:url(#j);}.ae{fill:url(#o);}.af{fill:url(#q);}.ag{fill:url(#k);}</style><clipPath id="d"><rect class="aa" width="1920" height="1080"/></clipPath><linearGradient id="e" x1="1.81" y1="-52.55" x2="2.8" y2="-52.55" gradientTransform="translate(4143.83 58871.03) rotate(-180) scale(1113.75 -1113.75)" gradientUnits="userSpaceOnUse"><stop offset="0" stop-color="#bbd034"/><stop offset="1" stop-color="#035e53"/></linearGradient><linearGradient id="f" x1=".73" y1="-31.1" x2="1.73" y2="-31.1" gradientTransform="translate(1598.87 14197.24) rotate(-180) scale(450.74 -450.74)" xlink:href="#e"/><linearGradient id="g" x1="-14.02" y1="-67.96" x2="-13.03" y2="-67.96" gradientTransform="translate(-64765.3 -12773.75) rotate(-90) scale(980.61 -980.61)" xlink:href="#e"/><linearGradient id="h" x1=".88" y1="-33.9" x2="1.88" y2="-33.9" gradientTransform="translate(2559.22 17535.51) rotate(-180) scale(488.59 -488.59)" xlink:href="#e"/><linearGradient id="i" x1="1.36" y1="-43.65" x2="2.36" y2="-43.65" gradientTransform="translate(2734.55 31056.8) rotate(-180) scale(691.34 -691.34)" xlink:href="#e"/><linearGradient id="j" x1="-.45" y1="-7.2" x2=".55" y2="-7.2" gradientTransform="translate(2007.61 2089.53) rotate(-180) scale(270.96 -270.96)" xlink:href="#e"/><linearGradient id="k" x1=".05" y1="-17.38" x2="1.04" y2="-17.38" gradientTransform="translate(1283.67 6462.11) rotate(-180) scale(326.38 -326.38)" xlink:href="#e"/><linearGradient id="l" x1="1.18" y1="-40.05" x2="2.18" y2="-40.05" gradientTransform="translate(2225.82 24956.02) rotate(-180) scale(599.43 -599.43)" xlink:href="#e"/><linearGradient id="m" x1=".06" y1="-17.49" x2="1.06" y2="-17.49" gradientTransform="translate(2149.79 6362.46) rotate(-180) scale(327.06 -327.06)" xlink:href="#e"/><linearGradient id="n" x1="1.17" y1="-17.33" x2="2.16" y2="-17.33" gradientTransform="translate(2149.79 6362.46) rotate(-180) scale(327.06 -327.06)" xlink:href="#e"/><linearGradient id="o" x1="1.6" y1="-69.66" x2="2.6" y2="-69.66" gradientTransform="translate(-2.56 -31165.93) scale(450.74 -450.74)" xlink:href="#e"/><linearGradient id="p" x1="1.9" y1="-43.92" x2="2.89" y2="-43.92" gradientTransform="translate(2734.55 31056.8) rotate(-180) scale(691.34 -691.34)" xlink:href="#e"/><linearGradient id="q" x1="1522.93" y1="224.69" x2="1767.37" y2="224.69" gradientTransform="matrix(1, 0, 0, 1, 0, 0)" xlink:href="#e"/></defs><g id="a"/><g id="b"><g id="c"><g><g class="x"><g><path class="ac" d="M1030.83,352.89c0-3.35,2.71-6.06,6.06-6.06s6.06,2.71,6.06,6.06-2.71,6.06-6.06,6.06-6.06-2.71-6.06-6.06"/><path class="ac" d="M991.79,352.89c0-3.35,2.71-6.06,6.06-6.06s6.06,2.71,6.06,6.06-2.71,6.06-6.06,6.06-6.06-2.71-6.06-6.06"/><path class="a`" d="M1022.08,157v-1.49h380.53c18.64,0,36.18,7.3,49.31,20.53,13.01,13.11,20.18,30.49,20.17,48.94,0,.17,0,.35,0,.52h0l-1.7,233.28c0,.16,0,.33,0,.49,0,17.32,6.7,33.58,18.91,45.89,12.33,12.42,28.73,19.25,46.24,19.25h371.59c35.65,0,64.89-29.02,65.15-64.68l.37-50.82h-152.18c-38.32,0-69.48-31.17-69.48-69.48v-114.44c0-38.32,31.17-69.48,69.48-69.48h88.37c18.64,0,36.18,7.3,49.31,20.53,13.01,13.11,20.18,30.49,20.17,48.94,0,.17,0,.35,0,.52l-1.31,179.08h151.92v4.33h-151.95l-.37,50.85c-.28,38.04-31.44,68.97-69.48,68.98h-371.59c-18.64,0-36.18-7.3-49.31-20.53-13.01-13.11-20.17-30.49-20.17-48.94,0-.17,0-.35,0-.52l1.7-233.28c0-.17,0-.33,0-.49,0-17.32-6.7-33.58-18.91-45.88-12.33-12.42-28.73-19.25-46.24-19.25h-382.02v-4.33h1.49v1.49h1.49v1.35h-1.49v-1.49h380.53c18.28,0,35.48,7.16,48.36,20.13,12.76,12.85,19.78,29.9,19.78,47.99,0,.17,0,.34,0,.52l-1.7,233.28c0,.17,0,.33,0,.5,0,17.68,6.84,34.27,19.3,46.83,12.59,12.68,29.33,19.65,47.19,19.65h371.59c36.39,0,66.23-29.62,66.49-66.01l.39-53.81h153.42v1.49h-1.49v-1.35h1.49v1.49h-153.44l1.33-182.09c0-.17,0-.33,0-.5,0-17.68-6.84-34.27-19.31-46.83-12.59-12.68-29.33-19.65-47.19-19.65h-88.37c-36.66,.07-66.43,29.83-66.5,66.5v114.44c.07,36.66,29.83,66.43,66.5,66.5h155.19l-.39,53.83c-.28,37.31-30.83,67.64-68.14,67.64h-371.59c-18.28,0-35.48-7.16-48.36-20.13-12.76-12.85-19.78-29.9-19.78-47.99,0-.17,0-.34,0-.51l1.7-233.28h0c0-.17,0-.33,0-.5,0-17.68-6.84-34.27-19.31-46.83-12.59-12.68-29.33-19.65-47.19-19.65h-380.53v-1.49h0Zm952.08,249.08h-1.49l1.32-180.61c0-.16,0-.33,0-.49,0-17.32-6.7-33.58-18.91-45.88-12.33-12.42-28.73-19.25-46.24-19.25h-88.37c-35.92,.07-65.08,29.23-65.15,65.15v114.44c.07,35.92,29.23,65.08,65.15,65.15h153.69v1.49h0v1.49h-153.69c-37.58,0-68.14-30.56-68.14-68.14v-114.44c0-37.58,30.56-68.14,68.14-68.14h88.37c18.28,0,35.48,7.16,48.36,20.13,12.76,12.85,19.78,29.9,19.78,47.99,0,.17,0,.34,0,.52l-1.33,182.08h-1.48v-1.49Z"/><path class="t" d="M1265.1,1.49V0h2.84V285.58c0,38.32-31.17,69.48-69.48,69.48h-378.47v-4.33h378.47c35.92-.07,65.09-29.23,65.15-65.15V0h1.49V1.49h1.49V285.58c0,37.58-30.56,68.14-68.14,68.14h-376.98v-1.49h1.49v1.35h-1.49v-1.49h376.98c36.66-.07,66.43-29.83,66.5-66.5V1.49h1.49v1.49h-1.35V1.49h0Z"/><path class="v" d="M1619.19,1.49V0h2.84V694.87c.07,35.92,29.23,65.09,65.15,65.15h189.84c38.32,0,69.48,31.17,69.48,69.48v76.74c.07,35.92,29.23,65.08,65.15,65.15h117.28v4.33h-117.28c-38.32,0-69.48-31.17-69.48-69.48v-76.74c-.07-35.92-29.23-65.09-65.15-65.15h-189.84c-38.32,0-69.48-31.17-69.48-69.48V0h1.49V1.49h1.49V694.87c.07,36.66,29.83,66.43,66.5,66.5h189.84c37.58,0,68.14,30.56,68.14,68.14v76.74c.07,36.66,29.83,66.43,66.5,66.5h115.79v1.49h-1.49v-1.35h1.49v1.49h-115.79c-37.58,0-68.14-30.56-68.14-68.14v-76.74c-.07-36.66-29.83-66.43-66.5-66.5h-189.84c-37.58,0-68.14-30.56-68.14-68.14V1.49h1.49v1.49h-1.35V1.49h0Z"/><path class="y" d="M1712.76,865.18v-1.49h416.17v4.33h-416.17c-35.92,.07-65.08,29.23-65.15,65.15v146.9h-4.33v-146.9c0-38.32,31.17-69.48,69.48-69.48v2.99c-36.66,.07-66.43,29.83-66.5,66.5v145.41h-1.49v-1.49h1.35v1.49h-1.49v-145.41c0-37.58,30.56-68.14,68.14-68.14h414.68v1.49h-1.49v-1.35h1.49v1.49h-414.68v-1.49Z"/><path class="w" d="M1105.56,686.12v-1.49h245.04c38.32,0,69.48,31.17,69.48,69.48v130.6c.07,35.92,29.23,65.09,65.15,65.15h236.96c38.32,0,69.48,31.17,69.48,69.48v60.73h-4.33v-60.73c-.07-35.92-29.23-65.09-65.15-65.15h-236.96c-38.32,0-69.48-31.17-69.48-69.49v-130.6c-.07-35.92-29.23-65.09-65.15-65.15h-246.53v-4.33h1.49v1.49h1.49v1.35h-1.49v-1.49h245.04c37.58,0,68.14,30.56,68.14,68.14v130.6c.07,36.66,29.83,66.43,66.5,66.5h236.96c37.58,0,68.14,30.56,68.14,68.14v59.24h-1.49v-1.49h1.35v1.49h-1.49v-59.24c-.07-36.66-29.83-66.43-66.5-66.5h-236.96c-37.58,0-68.14-30.56-68.14-68.14v-130.6c-.07-36.66-29.83-66.43-66.5-66.5h-245.04v-1.49h0Z"/><path class="ad" d="M1861.54,1.49V0h2.84V207.49c.07,35.92,29.23,65.08,65.15,65.15h199.41v4.33h-199.41c-38.32,0-69.48-31.17-69.48-69.48V0h1.49V1.49h1.49V207.49c.07,36.66,29.83,66.43,66.5,66.5h197.91v1.49h-1.49v-1.35h1.49v1.49h-197.91c-37.58,0-68.14-30.56-68.14-68.14V1.49h1.49v1.49h-1.35V1.49h0Z"/><path class="ag" d="M945.34,497.63v-1.49h253.12c38.32,0,69.48,31.17,69.48,69.48v514.46h-4.33V565.62c-.07-35.92-29.23-65.09-65.15-65.15h-254.61v-4.33h1.49v1.49h1.49v1.35h-1.49v-1.49h253.12c37.58,0,68.14,30.56,68.14,68.14v512.96h-1.49v-1.49h1.35v1.49h-1.49V565.62c-.07-36.66-29.83-66.43-66.5-66.5h-253.12v-1.49h0Z"/><path class="r" d="M922.45,824.79v-1.49h525.08c38.32,0,69.48,31.17,69.48,69.48v187.29h-4.33v-187.29c-.07-35.92-29.23-65.09-65.15-65.15H920.96v-4.33h1.49v1.49h1.49v1.35h-1.49v-1.49h525.08c37.58,0,68.14,30.56,68.14,68.14v185.8h-1.49v-1.49h1.35v1.49h-1.49v-185.8c-.07-36.66-29.83-66.43-66.5-66.5H922.45v-1.49h0Z"/><polygon class="s" points="1805.66 643.03 1805.66 641.54 2128.93 641.54 2128.93 645.87 1804.17 645.87 1804.17 641.54 1805.66 641.54 1805.66 643.03 1807.15 643.03 1807.15 644.38 1805.66 644.38 1805.66 642.89 2127.44 642.89 2127.44 644.38 2125.95 644.38 2125.95 643.03 2127.44 643.03 2127.44 644.53 1805.66 644.53 1805.66 643.03 1807.15 643.03 1805.66 643.03"/><path class="ac" d="M1096.8,685.44c0-4.83,3.92-8.75,8.75-8.75s8.75,3.92,8.75,8.75-3.92,8.75-8.75,8.75-8.75-3.92-8.75-8.75"/><path class="ac" d="M1259.71,882.01c0-3.35,2.71-6.06,6.06-6.06s6.06,2.71,6.06,6.06-2.71,6.06-6.06,6.06-6.06-2.71-6.06-6.06"/><path class="ac" d="M1259.71,840.27c0-3.35,2.71-6.06,6.06-6.06s6.06,2.71,6.06,6.06-2.71,6.06-6.06,6.06-6.06-2.71-6.06-6.06"/><path class="ac" d="M1099.5,825.46c0-3.35,2.71-6.06,6.06-6.06s6.06,2.71,6.06,6.06-2.71,6.06-6.06,6.06-6.06-2.71-6.06-6.06"/><path class="ac" d="M1212.59,686.79c0-3.35,2.71-6.06,6.06-6.06s6.06,2.71,6.06,6.06-2.71,6.06-6.06,6.06-6.06-2.71-6.06-6.06"/><path class="ac" d="M1581.49,952.02c0-3.35,2.71-6.06,6.06-6.06s6.06,2.71,6.06,6.06-2.71,6.06-6.06,6.06-6.06-2.71-6.06-6.06"/><path class="ac" d="M1829.22,865.86c0-3.35,2.71-6.06,6.06-6.06s6.06,2.71,6.06,6.06-2.71,6.06-6.06,6.06-6.06-2.71-6.06-6.06"/><path class="ac" d="M1613.81,619.47c0-3.35,2.71-6.06,6.06-6.06s6.06,2.71,6.06,6.06-2.71,6.06-6.06,6.06-6.06-2.71-6.06-6.06"/><path class="ac" d="M1613.81,577.74c0-3.35,2.71-6.06,6.06-6.06s6.06,2.71,6.06,6.06-2.71,6.06-6.06,6.06-6.06-2.71-6.06-6.06"/><path class="ac" d="M1747.09,289.61c0-3.35,2.71-6.06,6.06-6.06s6.06,2.71,6.06,6.06-2.71,6.06-6.06,6.06-6.06-2.71-6.06-6.06"/><path class="ac" d="M1463.01,289.61c0-3.35,2.71-6.06,6.06-6.06s6.06,2.71,6.06,6.06-2.71,6.06-6.06,6.06-6.06-2.71-6.06-6.06"/><path class="ac" d="M1856.15,91.7c0-3.35,2.71-6.06,6.06-6.06s6.06,2.71,6.06,6.06-2.71,6.06-6.06,6.06-6.06-2.71-6.06-6.06"/><path class="ac" d="M1796.91,643.71c0-4.83,3.92-8.75,8.75-8.75s8.75,3.92,8.75,8.75-3.92,8.75-8.75,8.75-8.75-3.92-8.75-8.75"/><path class="ac" d="M913.7,825.46c0-4.83,3.92-8.75,8.75-8.75s8.75,3.92,8.75,8.75-3.92,8.75-8.75,8.75-8.75-3.92-8.75-8.75"/><path class="ac" d="M936.59,498.3c0-4.83,3.92-8.75,8.75-8.75s8.75,3.92,8.75,8.75-3.92,8.75-8.75,8.75-8.75-3.92-8.75-8.75"/><path class="ac" d="M812.72,352.89c0-4.83,3.92-8.75,8.75-8.75s8.75,3.92,8.75,8.75-3.92,8.75-8.75,8.75-8.75-3.92-8.75-8.75"/><path class="ac" d="M1013.33,157.67c0-4.83,3.92-8.75,8.75-8.75s8.75,3.92,8.75,8.75-3.92,8.75-8.75,8.75-8.75-3.92-8.75-8.75"/></g></g><g><polygon class="ab" points="1443.89 695.19 1443.89 693.69 1767.16 693.69 1767.16 698.03 1442.4 698.03 1442.4 693.69 1443.89 693.69 1443.89 695.19 1445.39 695.19 1445.39 696.54 1443.89 696.54 1443.89 695.04 1765.67 695.04 1765.67 696.54 1764.18 696.54 1764.18 695.19 1765.67 695.19 1765.67 696.68 1443.89 696.68 1443.89 695.19 1445.39 695.19 1443.89 695.19"/><path class="ac" d="M1618.24,695.86c0-3.35,2.71-6.06,6.06-6.06s6.06,2.71,6.06,6.06-2.71,6.06-6.06,6.06-6.06-2.71-6.06-6.06"/><path class="ac" d="M1435.14,695.86c0-4.83,3.92-8.75,8.75-8.75s8.75,3.92,8.75,8.75-3.92,8.75-8.75,8.75-8.75-3.92-8.75-8.75"/></g><g><path class="ae" d="M721.98,407.94v1.49h-2.84V123.86c0-38.32,31.17-69.48,69.48-69.48h378.47v4.33h-378.47c-35.92,.07-65.09,29.23-65.15,65.15V409.44h-1.49v-1.49h-1.49V123.86c0-37.58,30.56-68.14,68.14-68.14h376.98v1.49h-1.49v-1.35h1.49v1.49h-376.98c-36.66,.07-66.43,29.83-66.5,66.5V407.94h-1.49v-1.49h1.35v1.49h0Z"/><path class="ac" d="M956.25,56.54c0,3.35-2.71,6.06-6.06,6.06s-6.06-2.71-6.06-6.06,2.71-6.06,6.06-6.06,6.06,2.71,6.06,6.06"/><path class="ac" d="M995.29,56.54c0,3.35-2.71,6.06-6.06,6.06s-6.06-2.71-6.06-6.06,2.71-6.06,6.06-6.06,6.06,2.71,6.06,6.06"/><path class="ac" d="M1174.36,56.54c0,4.83-3.92,8.75-8.75,8.75s-8.75-3.92-8.75-8.75,3.92-8.75,8.75-8.75,8.75,3.92,8.75,8.75"/></g><g><path class="u" d="M1420.65,845.37c-.07-36.66-29.83-66.43-66.5-66.5h-236.96c-37.58,0-68.14-30.56-68.14-68.14v-130.6c-.07-36.66-29.83-66.43-66.5-66.5h-245.04v-1.49h0v-1.49h245.04c38.32,0,69.48,31.17,69.48,69.48v130.6c.07,35.92,29.23,65.09,65.15,65.15h236.96c38.32,0,69.48,31.17,69.48,69.48v28.73h-4.33v-28.73c-.07-35.92-29.23-65.09-65.15-65.15h-236.96c-38.32,0-69.48-31.17-69.48-69.49v-130.6c-.07-35.92-29.23-65.09-65.15-65.15h-246.53v-4.33h1.49v1.49h1.49v1.35h-1.49v-1.49h245.04c37.58,0,68.14,30.56,68.14,68.14v130.6c.07,36.66,29.83,66.43,66.5,66.5h236.96c37.58,0,68.14,30.56,68.14,68.14"/><path class="ac" d="M728.77,511.48c0-4.83,3.92-8.75,8.75-8.75s8.75,3.92,8.75,8.75-3.92,8.75-8.75,8.75-8.75-3.92-8.75-8.75"/><path class="ac" d="M844.56,512.82c0-3.35,2.71-6.06,6.06-6.06s6.06,2.71,6.06,6.06-2.71,6.06-6.06,6.06-6.06-2.71-6.06-6.06"/></g><g><path class="af" d="M1592.87,306.81c-35.92-.07-65.09-29.23-65.15-65.15v-103.43c-.67,.26-1.4,.41-2.17,.41s-1.49-.15-2.17-.41v103.43c0,38.32,31.17,69.48,69.48,69.48h174.05v-4.33h-174.05Z"/><path class="ac" d="M1519.49,132.7c0-3.35,2.71-6.06,6.06-6.06s6.06,2.71,6.06,6.06-2.71,6.06-6.06,6.06-6.06-2.71-6.06-6.06"/></g></g></g></g></svg>