<?xml version="1.0" encoding="UTF-8"?>
<svg id="Camada_2" data-name="Camada 2" xmlns="http://www.w3.org/2000/svg" viewBox="0 0 79 79">
  <defs>
    <style>
      .cls-1 {
        fill: #fff;
      }

      .cls-1, .cls-2 {
        stroke-width: 0px;
      }

      .cls-2 {
        fill: #ea438f;
      }
    </style>
  </defs>
  <g id="Camada_1-2" data-name="Camada 1">
    <g>
      <circle class="cls-2" cx="39.5" cy="39.5" r="39.5"/>
      <path class="cls-1" d="m22.6,59.26c-.47,0-.85-.38-.85-.85v-6.85l-1.83-1.87-.06.03c-.07.03-.14.05-.21.08l-3.11.89c-.67.19-1.13.81-1.13,1.5v6.23c0,.47-.38.85-.85.85s-.85-.38-.85-.85v-6.23c0-1.45.97-2.74,2.37-3.14l3.11-.89c.09-.03.16-.11.16-.21v-.99c-1.53-1.2-2.41-2.98-2.41-4.85v-1.23l-.38-.73c-.28-.56-.43-1.19-.43-1.82,0-2.71,2.19-4.92,4.88-4.92h7v-.09c.07-.74.13-1.52.19-2.34.25-3.36,1.46-6.19,3.5-8.2,2.03-2,4.73-3.05,7.82-3.05s5.79,1.05,7.82,3.05c2.04,2.01,3.25,4.85,3.5,8.2.15,2.03.32,3.99.5,5.8l.03.33.16-.29c.43-.79,1-1.47,1.71-2.03l.05-.04-.02-.06c-.07-.27-.11-.55-.11-.83,0-2.02,1.83-3.67,4.07-3.67s4.07,1.65,4.07,3.67c0,.28-.04.56-.11.83l-.02.06.05.04c1.58,1.24,2.49,3.1,2.49,5.1,0,1.13-.3,2.25-.87,3.24-.2,1.52-1.04,2.89-2.3,3.8l-.04,1.48,3.02,1.51c1.11.56,1.81,1.68,1.81,2.92v5.56c0,.47-.38.85-.85.85s-.85-.38-.85-.85v-5.56c0-.6-.33-1.13-.86-1.4l-2.45-1.23-.83.78c-.61.58-1.41.9-2.25.9s-1.64-.32-2.25-.9l-.82-.78-.99.49.07.1c.53.7.82,1.57.82,2.45v5.15c0,.47-.38.85-.85.85s-.85-.38-.85-.85v-5.15c0-.94-.55-1.79-1.41-2.16l-4.21-1.86-.04.08c-1.4,2.66-4.14,4.31-7.16,4.31s-5.75-1.65-7.16-4.31l-.04-.08-4.22,1.86c-.86.38-1.41,1.23-1.41,2.16v5.15c0,.47-.38.85-.85.85s-.85-.38-.85-.85v-5.15c0-1.18.51-2.3,1.41-3.08l.14-.12-.56-.16c-.16-.05-.37-.11-.59-.2l-.06-.03-1.81,1.81-.03,6.92c0,.47-.38.85-.85.85Zm13.73-13.41c0,.97-.58,1.86-1.47,2.25l-1,.44.05.1c1.12,2.02,3.26,3.28,5.58,3.28s4.46-1.26,5.58-3.28l.05-.1-1-.44c-.89-.39-1.47-1.28-1.47-2.25v-1.66l-.13.05c-.97.35-1.99.53-3.04.53s-2.06-.18-3.04-.53l-.13-.05v1.66Zm19.31,2.59c0,.22-.05.45-.13.65l-.03.06.64.61c.29.28.67.43,1.08.43s.78-.15,1.08-.43l.64-.61-.03-.06c-.09-.2-.13-.43-.13-.65v-.67l-.12.03c-.47.12-.95.18-1.44.18s-.97-.06-1.44-.18l-.12-.03v.67Zm-34.6-.5c0,.12-.01.24-.04.36l1.6,1.66,1.56-1.56c0-.2,0-.33,0-.45v-.13h-.12c-.47.12-.95.18-1.43.18h-.18c-.42-.02-.84-.08-1.26-.19l-.13-.03v.18Zm31.26-2.43c-.09.43-.34.8-.71,1.04-.58.37-1.56.93-2.97,1.48l-.23.09,3.21,1.42,2.33-1.12v-1.4c-.59-.48-1.07-.96-1.45-1.53l-.13-.2-.05.23Zm-25.5.61c-.08.09-.17.18-.25.26-.2.19-.42.37-.65.54l-.04,1.01c.03.14.15.2.55.32l2.31.66,1.88-.81-.23-.09c-1.42-.54-2.4-1.1-2.98-1.48-.17-.11-.32-.25-.44-.42l-.07-.1-.08.09Zm12.69-24.69c-2.63,0-4.92.88-6.62,2.56-1.74,1.71-2.77,4.17-2.99,7.11-.59,7.93-1.25,12.41-1.51,13.97v.07s.04.04.04.04c.69.44,2.2,1.26,4.51,1.89l1.24-.53c.27-.12.45-.39.45-.69v-2.48c-2.54-1.74-4.02-4.51-4.02-7.5v-.63c0-.86.47-1.66,1.23-2.1.7-.4,1.62-1.14,2.03-2.37.12-.35.44-.58.81-.58.09,0,.18.01.27.04.22.07.39.22.49.43s.12.44.05.65c-.58,1.74-1.84,2.76-2.8,3.31-.24.14-.38.37-.38.62v.63c0,3.97,3.23,7.19,7.19,7.19s7.19-3.23,7.19-7.19v-1.41c0-.45-.19-.88-.52-1.16-1.37-1.19-4.49-3.27-9.98-3.82-.23-.02-.43-.13-.58-.31s-.21-.4-.19-.63c.04-.44.41-.77.85-.77h.09c5.96.6,9.4,2.91,10.92,4.23.7.61,1.11,1.5,1.11,2.45v1.41c0,2.98-1.49,5.75-3.98,7.41l-.04,2.56c0,.3.18.57.45.69l1.18.52c2.38-.62,3.88-1.45,4.58-1.88l.06-.04v-.07c-.27-1.56-.94-6.03-1.53-13.97-.22-2.94-1.25-5.4-2.99-7.11-1.7-1.67-3.99-2.56-6.62-2.56Zm17.7,13.68c-2.64,0-4.78,2.14-4.78,4.78,0,.88.24,1.74.71,2.49.07.11.11.23.12.36.22,2.02,1.92,3.54,3.95,3.54,1.9,0,3.54-1.35,3.9-3.21-1.15-1.6-3.51-2.51-4.82-2.91l-.08-.03-.04.08c-.18.39-.44.75-.77,1.09-.16.16-.38.25-.6.25s-.44-.09-.6-.25c-.16-.16-.25-.38-.25-.6s.09-.44.25-.6c.47-.47.54-.92.55-1,0-.26.12-.51.32-.67.15-.12.34-.19.53-.19.06,0,.12,0,.18.02.15.03,3.71.84,5.89,2.86l.12.11.04-.16c.1-.38.15-.78.15-1.17,0-2.64-2.14-4.78-4.78-4.78Zm-36.21,0c-1.75,0-3.17,1.42-3.17,3.17,0,.4.08.77.25,1.1l.46.93c.06.12.09.25.09.38v1.41c0,2.24,1.73,4.11,3.85,4.18h.12c1.04,0,2.02-.4,2.77-1.12.78-.76,1.21-1.77,1.21-2.85v-1.61c0-.13.03-.26.09-.38l.38-.76c.22-.44.33-.93.33-1.42v-3.03h-6.39Zm36.21-3.22c-1.22,0-2.26.79-2.36,1.8l-.02.16.15-.05c.71-.26,1.46-.39,2.22-.39s1.51.13,2.22.39l.15.06-.02-.16c-.1-1.01-1.14-1.8-2.36-1.8Z"/>
    </g>
  </g>
</svg>