<?xml version="1.0" encoding="UTF-8"?>
<svg id="Camada_2" data-name="Camada 2" xmlns="http://www.w3.org/2000/svg" viewBox="0 0 461 756">
  <defs>
    <style>
      .cls-1 {
        fill: #ee99bc;
      }

      .cls-2 {
        fill: none;
        stroke: #950048;
        stroke-miterlimit: 10;
        stroke-width: 3px;
      }

      .cls-3 {
        fill: #950048;
      }
    </style>
  </defs>
  <g id="Camada_1-2" data-name="Camada 1">
    <g>
      <rect class="cls-1" y="10.5" width="461" height="202.53" rx="32.78" ry="32.78"/>
      <line class="cls-2" x1="80.25" y1="1.5" x2="380.75" y2="1.5"/>
      <line class="cls-2" x1="80.25" y1="222.5" x2="380.75" y2="222.5"/>
      <g>
        <path class="cls-3" d="m180.28,64.48h15.15v3.09h-11.49v5.55h10.35v3.09h-10.35v6.18h11.76v3.09h-15.42v-21Z"/>
        <path class="cls-3" d="m217.39,85.48h-4.35l-7.59-12.42c-.84-1.47-1.56-2.76-2.28-4.32h-.09c.15,1.77.21,3.39.21,5.13v11.61h-3.6v-21h4.35l7.59,12.42c.84,1.47,1.56,2.76,2.25,4.32h.09c-.15-1.77-.15-3.39-.15-5.13v-11.61h3.57v21Z"/>
        <path class="cls-3" d="m240.91,85.48h-3.78l-2.04-5.37h-8.91l-2.04,5.37h-3.6l8.34-21h3.72l8.31,21Zm-13.59-8.34h6.63l-1.86-4.95c-.54-1.38-.99-2.82-1.38-4.26h-.12c-.39,1.44-.84,2.85-1.35,4.23l-1.92,4.98Z"/>
        <path class="cls-3" d="m262.15,75.13c0,7.71-3.09,10.35-10.65,10.35h-7.44v-21h7.44c7.56,0,10.65,2.64,10.65,10.35v.3Zm-3.75-.42c0-5.52-1.65-7.14-7.05-7.14h-3.6v14.82h3.6c5.4,0,7.05-1.62,7.05-7.14v-.54Z"/>
        <path class="cls-3" d="m266.47,64.48h15.15v3.09h-11.49v5.55h10.35v3.09h-10.35v6.18h11.76v3.09h-15.42v-21Z"/>
        <path class="cls-3" d="m105.31,100.88h13.52v2.18h-11v6.22h9.94v2.18h-9.94v6.83h11.26v2.18h-13.78v-19.6Z"/>
        <path class="cls-3" d="m128.97,116.42c-.42-.56-.81-1.06-1.15-1.62h-.08c-.34.59-.64,1.06-1.06,1.62l-2.94,4.06h-2.63l5.29-7.14-5.18-7.2h2.72l2.77,3.92c.42.59.78,1.06,1.12,1.62h.08c.34-.59.64-1.06,1.06-1.62l2.83-3.92h2.63l-5.15,7.06,5.38,7.28h-2.72l-2.97-4.06Z"/>
        <path class="cls-3" d="m148.32,120.48h-2.1l-.17-1.85h-.08c-.73.95-2.07,2.07-4.96,2.07-3.22,0-4.84-1.34-4.84-4.26,0-2.74,1.46-4.09,4.96-4.09h4.84v-1.23c0-2.38-.81-3.25-3.7-3.25-1.65,0-3.58.28-4.68.56l-.34-1.79c1.06-.39,3.02-.78,5.24-.78,4.34,0,5.82,1.51,5.82,5.12v9.49Zm-2.32-6.22h-4.7c-2.18,0-2.8.59-2.8,2.21,0,1.76.78,2.32,2.83,2.32,2.58,0,4.68-1.26,4.68-3.47v-1.06Z"/>
        <path class="cls-3" d="m174.3,120.48h-2.41v-8.74c0-2.8-.78-3.75-3.42-3.75-2.86,0-3.64,1.51-3.64,4.03v8.46h-2.41v-8.74c0-2.8-.78-3.75-3.42-3.75-2.86,0-3.64,1.51-3.64,4.03v8.46h-2.41v-14.34h2.13l.22,1.96h.08c.56-1.18,1.82-2.24,4.31-2.24s4.03.78,4.7,2.32h.08c.56-1.18,1.82-2.32,4.48-2.32,4.26,0,5.32,1.93,5.32,5.71v8.9Z"/>
        <path class="cls-3" d="m180.58,113.79c.06,1.96.62,3.22,1.71,4,.92.64,2.18.95,3.92.95,1.62,0,3.19-.31,4.26-.7l.36,1.82c-1.04.48-2.91.9-4.84.9-5.01,0-7.81-1.9-7.81-7.56v-.22c0-4.56,2.27-7.11,6.86-7.11s6.36,2.38,6.36,6.33v1.6h-10.81Zm.03-1.93h8.43v-.25c0-1.51-.42-2.55-1.34-3.14-.67-.42-1.51-.64-2.66-.64-1.2,0-2.04.22-2.74.64-1.04.67-1.54,1.79-1.68,3.39Z"/>
        <path class="cls-3" d="m218.66,120.48h-3l-8.54-13.55c-.62-1.01-1.2-2.04-1.74-3.14h-.08c.08,1.26.08,2.6.08,3.86v12.82h-2.46v-19.6h3l8.54,13.55c.62,1.01,1.2,2.04,1.74,3.14h.08c-.08-1.26-.08-2.6-.08-3.86v-12.82h2.46v19.6Z"/>
        <path class="cls-3" d="m234.98,120.48h-2.1l-.17-1.85h-.08c-.73.95-2.07,2.07-4.96,2.07-3.22,0-4.84-1.34-4.84-4.26,0-2.74,1.46-4.09,4.96-4.09h4.84v-1.23c0-2.38-.81-3.25-3.7-3.25-1.65,0-3.58.28-4.68.56l-.34-1.79c1.06-.39,3.02-.78,5.24-.78,4.34,0,5.82,1.51,5.82,5.12v9.49Zm-2.32-6.22h-4.7c-2.18,0-2.8.59-2.8,2.21,0,1.76.78,2.32,2.83,2.32,2.58,0,4.68-1.26,4.68-3.47v-1.06Z"/>
        <path class="cls-3" d="m241.31,113.54c0,2.18.5,3.61,1.76,4.4.76.48,1.82.7,3.19.7,1.23,0,2.69-.22,3.7-.5l.36,1.9c-1.01.36-2.6.73-4.45.73-1.37,0-2.55-.22-3.5-.62-2.44-1.04-3.53-3.36-3.53-6.72v-.22c0-3.33,1.06-5.68,3.5-6.72.95-.42,2.13-.62,3.5-.62,1.82,0,3.42.34,4.42.7l-.36,1.9c-1.01-.28-2.46-.48-3.67-.48-1.4,0-2.44.22-3.19.7-1.26.78-1.74,2.21-1.74,4.4v.45Z"/>
        <path class="cls-3" d="m256.4,103.6h-2.46v-3.14h2.46v3.14Zm-.03,16.88h-2.41v-14.34h2.41v14.34Z"/>
        <path class="cls-3" d="m274.32,113.42c0,4.79-2.21,7.34-6.94,7.34s-6.94-2.55-6.94-7.34v-.22c0-4.79,2.21-7.34,6.94-7.34s6.94,2.55,6.94,7.34v.22Zm-2.46-.34c0-2.16-.45-3.67-1.6-4.48-.7-.48-1.62-.73-2.88-.73s-2.18.25-2.88.73c-1.15.81-1.6,2.32-1.6,4.48v.45c0,2.16.45,3.67,1.6,4.48.7.48,1.62.73,2.88.73s2.18-.25,2.88-.73c1.15-.81,1.6-2.32,1.6-4.48v-.45Z"/>
        <path class="cls-3" d="m290.62,120.48h-2.41v-8.68c0-2.86-.76-3.81-3.61-3.81-3.11,0-3.89,1.51-3.89,4.09v8.4h-2.41v-14.34h2.13l.22,1.96h.08c.56-1.18,1.82-2.24,4.56-2.24,4.17,0,5.32,1.93,5.32,5.77v8.85Z"/>
        <path class="cls-3" d="m306.49,120.48h-2.1l-.17-1.85h-.08c-.73.95-2.07,2.07-4.96,2.07-3.22,0-4.84-1.34-4.84-4.26,0-2.74,1.46-4.09,4.96-4.09h4.84v-1.23c0-2.38-.81-3.25-3.7-3.25-1.65,0-3.58.28-4.68.56l-.34-1.79c1.06-.39,3.02-.78,5.24-.78,4.34,0,5.82,1.51,5.82,5.12v9.49Zm-2.32-6.22h-4.7c-2.18,0-2.8.59-2.8,2.21,0,1.76.78,2.32,2.83,2.32,2.58,0,4.68-1.26,4.68-3.47v-1.06Z"/>
        <path class="cls-3" d="m313.63,116.9c0,1.34.36,1.62,1.6,1.62.39,0,.84-.03,1.04-.06v1.96c-.31.08-.92.17-1.62.17-2.55,0-3.42-.92-3.42-3.22v-17.33h2.41v16.86Z"/>
        <path class="cls-3" d="m325.81,113.42v-.22c0-4.79,2.24-7.34,6.55-7.34,2.21,0,3.81.67,4.84,1.96l.11-.06c-.06-.7-.08-1.46-.08-2.18v-5.54h2.41v20.44h-2.1l-.22-1.65-.11-.03c-1.04,1.29-2.63,1.96-4.84,1.96-4.31,0-6.55-2.55-6.55-7.34Zm9.83,4.59c1.15-.81,1.6-2.32,1.6-4.48v-.45c0-2.16-.45-3.67-1.6-4.48-.7-.48-1.62-.73-2.88-.73s-2.18.25-2.88.73c-1.15.81-1.6,2.32-1.6,4.48v.45c0,2.16.45,3.67,1.6,4.48.7.48,1.62.73,2.88.73s2.18-.25,2.88-.73Z"/>
        <path class="cls-3" d="m346.05,113.79c.06,1.96.62,3.22,1.71,4,.92.64,2.18.95,3.92.95,1.62,0,3.19-.31,4.26-.7l.36,1.82c-1.04.48-2.91.9-4.84.9-5.01,0-7.81-1.9-7.81-7.56v-.22c0-4.56,2.27-7.11,6.86-7.11s6.36,2.38,6.36,6.33v1.6h-10.81Zm.03-1.93h8.43v-.25c0-1.51-.42-2.55-1.34-3.14-.67-.42-1.51-.64-2.66-.64-1.2,0-2.04.22-2.74.64-1.04.67-1.54,1.79-1.68,3.39Z"/>
        <path class="cls-3" d="m60.47,145.79c0,7.25-2.83,9.69-9.88,9.69h-6.24v-19.6h6.24c7.06,0,9.88,2.44,9.88,9.69v.22Zm-2.58-.34c0-5.66-1.68-7.39-7.39-7.39h-3.64v15.23h3.64c5.71,0,7.39-1.74,7.39-7.39v-.45Z"/>
        <path class="cls-3" d="m66.32,148.79c.06,1.96.62,3.22,1.71,4,.92.64,2.18.95,3.92.95,1.62,0,3.19-.31,4.26-.7l.36,1.82c-1.04.48-2.91.9-4.84.9-5.01,0-7.81-1.9-7.81-7.56v-.22c0-4.56,2.27-7.11,6.86-7.11s6.36,2.38,6.36,6.33v1.6h-10.81Zm.03-1.93h8.43v-.25c0-1.51-.42-2.55-1.34-3.14-.67-.42-1.51-.64-2.66-.64-1.2,0-2.04.22-2.74.64-1.04.67-1.54,1.79-1.68,3.39Z"/>
        <path class="cls-3" d="m80.04,155.06l.36-1.85c1.34.42,3,.62,4.59.62,2.77,0,3.53-.48,3.53-2.16s-.78-1.85-2.3-2.18l-2.13-.48c-2.32-.53-4.09-1.18-4.09-4.12s1.57-4.03,5.46-4.03c1.99,0,3.81.31,4.76.62l-.36,1.85c-1.04-.31-2.44-.53-4.23-.53-2.52,0-3.28.42-3.28,2.02,0,1.68.9,1.88,2.52,2.24l2.13.48c2.49.56,3.86,1.29,3.86,4.06,0,3.05-1.57,4.17-5.68,4.17-2.18,0-4.03-.31-5.15-.7Z"/>
        <path class="cls-3" d="m96.14,148.79c.06,1.96.62,3.22,1.71,4,.92.64,2.18.95,3.92.95,1.62,0,3.19-.31,4.26-.7l.36,1.82c-1.04.48-2.91.9-4.84.9-5.01,0-7.81-1.9-7.81-7.56v-.22c0-4.56,2.27-7.11,6.86-7.11s6.36,2.38,6.36,6.33v1.6h-10.81Zm.03-1.93h8.43v-.25c0-1.51-.42-2.55-1.34-3.14-.67-.42-1.51-.64-2.66-.64-1.2,0-2.04.22-2.74.64-1.04.67-1.54,1.79-1.68,3.39Z"/>
        <path class="cls-3" d="m132.21,155.48h-2.41v-8.74c0-2.8-.78-3.75-3.42-3.75-2.86,0-3.64,1.51-3.64,4.03v8.46h-2.41v-8.74c0-2.8-.78-3.75-3.42-3.75-2.86,0-3.64,1.51-3.64,4.03v8.46h-2.41v-14.34h2.13l.22,1.96h.08c.56-1.18,1.82-2.24,4.31-2.24s4.03.78,4.7,2.32h.08c.56-1.18,1.82-2.32,4.48-2.32,4.26,0,5.32,1.93,5.32,5.71v8.9Z"/>
        <path class="cls-3" d="m139.29,153.83l-.11.03c.06.7.08,1.46.08,2.18v4.7h-2.41v-19.6h2.1l.22,1.65.08.03c1.04-1.29,2.63-1.96,4.87-1.96,4.31,0,6.55,2.55,6.55,7.34v.22c0,4.79-2.24,7.34-6.55,7.34-2.21,0-3.81-.64-4.84-1.93Zm7.34-.81c1.15-.81,1.6-2.32,1.6-4.48v-.45c0-2.16-.45-3.67-1.6-4.48-.7-.48-1.62-.73-2.88-.73s-2.18.25-2.88.73c-1.15.81-1.6,2.32-1.6,4.48v.45c0,2.16.45,3.67,1.6,4.48.7.48,1.62.73,2.88.73s2.18-.25,2.88-.73Z"/>
        <path class="cls-3" d="m156.29,148.79c.06,1.96.62,3.22,1.71,4,.92.64,2.18.95,3.92.95,1.62,0,3.19-.31,4.26-.7l.36,1.82c-1.04.48-2.91.9-4.84.9-5.01,0-7.81-1.9-7.81-7.56v-.22c0-4.56,2.27-7.11,6.86-7.11s6.36,2.38,6.36,6.33v1.6h-10.81Zm.03-1.93h8.43v-.25c0-1.51-.42-2.55-1.34-3.14-.67-.42-1.51-.64-2.66-.64-1.2,0-2.04.22-2.74.64-1.04.67-1.54,1.79-1.68,3.39Z"/>
        <path class="cls-3" d="m183.33,155.48h-2.41v-8.68c0-2.86-.76-3.81-3.61-3.81-3.11,0-3.89,1.51-3.89,4.09v8.4h-2.41v-14.34h2.13l.22,1.96h.08c.56-1.18,1.82-2.24,4.56-2.24,4.17,0,5.32,1.93,5.32,5.77v8.85Z"/>
        <path class="cls-3" d="m200.33,155.48h-2.41v-8.68c0-2.86-.76-3.81-3.61-3.81-3.11,0-3.89,1.51-3.89,4.09v8.4h-2.41v-20.44h2.41v5.68c0,.78-.03,1.62-.08,2.35l.08.03c.56-1.18,1.85-2.24,4.59-2.24,4.17,0,5.32,1.93,5.32,5.77v8.85Z"/>
        <path class="cls-3" d="m218.08,148.42c0,4.79-2.21,7.34-6.94,7.34s-6.94-2.55-6.94-7.34v-.22c0-4.79,2.21-7.34,6.94-7.34s6.94,2.55,6.94,7.34v.22Zm-2.46-.34c0-2.16-.45-3.67-1.6-4.48-.7-.48-1.62-.73-2.88-.73s-2.18.25-2.88.73c-1.15.81-1.6,2.32-1.6,4.48v.45c0,2.16.45,3.67,1.6,4.48.7.48,1.62.73,2.88.73s2.18-.25,2.88-.73c1.15-.81,1.6-2.32,1.6-4.48v-.45Z"/>
        <path class="cls-3" d="m228.55,148.42v-.22c0-4.79,2.24-7.34,6.55-7.34,2.21,0,3.81.67,4.84,1.96l.11-.06c-.06-.7-.08-1.46-.08-2.18v-5.54h2.41v20.44h-2.1l-.22-1.65-.11-.03c-1.04,1.29-2.63,1.96-4.84,1.96-4.31,0-6.55-2.55-6.55-7.34Zm9.83,4.59c1.15-.81,1.6-2.32,1.6-4.48v-.45c0-2.16-.45-3.67-1.6-4.48-.7-.48-1.62-.73-2.88-.73s-2.18.25-2.88.73c-1.15.81-1.6,2.32-1.6,4.48v.45c0,2.16.45,3.67,1.6,4.48.7.48,1.62.73,2.88.73s2.18-.25,2.88-.73Z"/>
        <path class="cls-3" d="m248.8,148.79c.06,1.96.62,3.22,1.71,4,.92.64,2.18.95,3.92.95,1.62,0,3.19-.31,4.26-.7l.36,1.82c-1.04.48-2.91.9-4.84.9-5.01,0-7.81-1.9-7.81-7.56v-.22c0-4.56,2.27-7.11,6.86-7.11s6.36,2.38,6.36,6.33v1.6h-10.81Zm.03-1.93h8.43v-.25c0-1.51-.42-2.55-1.34-3.14-.67-.42-1.51-.64-2.66-.64-1.2,0-2.04.22-2.74.64-1.04.67-1.54,1.79-1.68,3.39Z"/>
        <path class="cls-3" d="m271.14,135.88h13.52v2.18h-11v6.22h9.94v2.18h-9.94v6.83h11.26v2.18h-13.78v-19.6Z"/>
        <path class="cls-3" d="m287.86,155.06l.36-1.85c1.34.42,3,.62,4.59.62,2.77,0,3.53-.48,3.53-2.16s-.78-1.85-2.3-2.18l-2.13-.48c-2.32-.53-4.09-1.18-4.09-4.12s1.57-4.03,5.46-4.03c1.99,0,3.81.31,4.76.62l-.36,1.85c-1.04-.31-2.44-.53-4.23-.53-2.52,0-3.28.42-3.28,2.02,0,1.68.9,1.88,2.52,2.24l2.13.48c2.49.56,3.86,1.29,3.86,4.06,0,3.05-1.57,4.17-5.68,4.17-2.18,0-4.03-.31-5.15-.7Z"/>
        <path class="cls-3" d="m303,151.42v-8.4h-2.58v-1.88h2.66l.11-4.23h2.16v4.23h4.54v1.88h-4.51v8.06c0,2.04.56,2.6,2.69,2.6.62,0,1.43-.06,1.88-.14v1.82c-.48.14-1.37.28-2.18.28-3.47,0-4.76-1.15-4.76-4.23Z"/>
        <path class="cls-3" d="m313.31,141.14h2.41v8.57c0,2.94.78,3.92,3.53,3.92,3.11,0,3.81-1.76,3.81-4.2v-8.29h2.41v14.34h-2.16l-.2-1.85h-.08c-.59,1.06-1.79,2.13-4.06,2.13-4.12,0-5.66-1.65-5.66-5.88v-8.74Z"/>
        <path class="cls-3" d="m329.44,148.42v-.22c0-4.79,2.24-7.34,6.55-7.34,2.21,0,3.81.67,4.84,1.96l.11-.06c-.06-.7-.08-1.46-.08-2.18v-5.54h2.41v20.44h-2.1l-.22-1.65-.11-.03c-1.04,1.29-2.63,1.96-4.84,1.96-4.31,0-6.55-2.55-6.55-7.34Zm9.83,4.59c1.15-.81,1.6-2.32,1.6-4.48v-.45c0-2.16-.45-3.67-1.6-4.48-.7-.48-1.62-.73-2.88-.73s-2.18.25-2.88.73c-1.15.81-1.6,2.32-1.6,4.48v.45c0,2.16.45,3.67,1.6,4.48.7.48,1.62.73,2.88.73s2.18-.25,2.88-.73Z"/>
        <path class="cls-3" d="m359.28,155.48h-2.1l-.17-1.85h-.08c-.73.95-2.07,2.07-4.96,2.07-3.22,0-4.84-1.34-4.84-4.26,0-2.74,1.46-4.09,4.96-4.09h4.84v-1.23c0-2.38-.81-3.25-3.7-3.25-1.65,0-3.58.28-4.68.56l-.34-1.79c1.06-.39,3.02-.78,5.24-.78,4.34,0,5.82,1.51,5.82,5.12v9.49Zm-2.32-6.22h-4.7c-2.18,0-2.8.59-2.8,2.21,0,1.76.78,2.32,2.83,2.32,2.58,0,4.68-1.26,4.68-3.47v-1.06Z"/>
        <path class="cls-3" d="m376.25,155.48h-2.41v-8.68c0-2.86-.76-3.81-3.61-3.81-3.11,0-3.89,1.51-3.89,4.09v8.4h-2.41v-14.34h2.13l.22,1.96h.08c.56-1.18,1.82-2.24,4.56-2.24,4.17,0,5.32,1.93,5.32,5.77v8.85Z"/>
        <path class="cls-3" d="m381.68,151.42v-8.4h-2.58v-1.88h2.66l.11-4.23h2.16v4.23h4.54v1.88h-4.51v8.06c0,2.04.56,2.6,2.69,2.6.62,0,1.43-.06,1.88-.14v1.82c-.48.14-1.37.28-2.18.28-3.47,0-4.76-1.15-4.76-4.23Z"/>
        <path class="cls-3" d="m393.42,148.79c.06,1.96.62,3.22,1.71,4,.92.64,2.18.95,3.92.95,1.62,0,3.19-.31,4.26-.7l.36,1.82c-1.04.48-2.91.9-4.84.9-5.01,0-7.81-1.9-7.81-7.56v-.22c0-4.56,2.27-7.11,6.86-7.11s6.36,2.38,6.36,6.33v1.6h-10.81Zm.03-1.93h8.43v-.25c0-1.51-.42-2.55-1.34-3.14-.67-.42-1.51-.64-2.66-.64-1.2,0-2.04.22-2.74.64-1.04.67-1.54,1.79-1.68,3.39Z"/>
        <path class="cls-3" d="m407.14,155.06l.36-1.85c1.34.42,3,.62,4.59.62,2.77,0,3.53-.48,3.53-2.16s-.78-1.85-2.3-2.18l-2.13-.48c-2.32-.53-4.09-1.18-4.09-4.12s1.57-4.03,5.46-4.03c1.99,0,3.81.31,4.76.62l-.36,1.85c-1.04-.31-2.44-.53-4.23-.53-2.52,0-3.28.42-3.28,2.02,0,1.68.9,1.88,2.52,2.24l2.13.48c2.49.56,3.86,1.29,3.86,4.06,0,3.05-1.57,4.17-5.68,4.17-2.18,0-4.03-.31-5.15-.7Z"/>
      </g>
      <rect class="cls-1" y="276.5" width="461" height="202.53" rx="32.78" ry="32.78"/>
      <line class="cls-2" x1="80.25" y1="267.5" x2="380.75" y2="267.5"/>
      <line class="cls-2" x1="80.25" y1="488.5" x2="380.75" y2="488.5"/>
      <g>
        <path class="cls-3" d="m207.64,349.01h3.66v21h-3.66v-21Z"/>
        <path class="cls-3" d="m225.7,358.88h8.4v10.11c-2.16.81-4.8,1.32-8.01,1.32-2.61,0-4.71-.48-6.33-1.47-2.67-1.65-3.99-4.68-3.99-8.94v-.27c0-4.8,1.35-7.95,4.32-9.6,1.62-.9,3.75-1.32,6.39-1.32,2.88,0,5.37.51,7.02,1.14l-.66,2.79c-1.56-.45-3.72-.81-5.85-.81s-3.75.33-4.92,1.05c-1.8,1.14-2.58,3.24-2.58,6.63v.51c0,2.85.75,4.92,2.4,6.06,1.08.75,2.64,1.11,4.65,1.11,1.59,0,3-.21,4.11-.51v-4.92h-4.95v-2.88Z"/>
        <path class="cls-3" d="m238,359.36c0-4.26,1.23-7.44,3.99-9.18,1.56-.96,3.6-1.47,6.24-1.47s4.92.48,6.36,1.08l-.66,2.79c-1.53-.48-3.21-.72-5.13-.72s-3.51.33-4.59,1.05c-1.71,1.14-2.46,3.24-2.46,6.33v.54c0,3.06.75,5.16,2.46,6.3,1.11.75,2.61,1.08,4.68,1.08,1.92,0,3.63-.27,5.16-.75l.66,2.79c-1.47.63-3.81,1.11-6.39,1.11s-4.74-.51-6.33-1.5c-2.73-1.74-3.99-4.92-3.99-9.15v-.3Z"/>
        <path class="cls-3" d="m84.19,385.41h2.52v19.6h-2.52v-19.6Zm.34-1.62l1.88-4h3.16v.06l-3.11,3.95h-1.93Z"/>
        <path class="cls-3" d="m104.21,405.01h-2.41v-8.68c0-2.86-.76-3.81-3.61-3.81-3.11,0-3.89,1.51-3.89,4.09v8.4h-2.41v-14.34h2.13l.22,1.96h.08c.56-1.18,1.82-2.24,4.56-2.24,4.17,0,5.32,1.93,5.32,5.77v8.85Z"/>
        <path class="cls-3" d="m108.07,397.95v-.22c0-4.79,2.24-7.34,6.55-7.34,2.21,0,3.81.67,4.84,1.96l.11-.06c-.06-.7-.08-1.46-.08-2.18v-5.54h2.41v20.44h-2.1l-.22-1.65-.11-.03c-1.04,1.29-2.63,1.96-4.84,1.96-4.31,0-6.55-2.55-6.55-7.34Zm9.83,4.59c1.15-.81,1.6-2.32,1.6-4.48v-.45c0-2.16-.45-3.67-1.6-4.48-.7-.48-1.62-.73-2.88-.73s-2.18.25-2.88.73c-1.15.81-1.6,2.32-1.6,4.48v.45c0,2.16.45,3.67,1.6,4.48.7.48,1.62.73,2.88.73s2.18-.25,2.88-.73Z"/>
        <path class="cls-3" d="m129.21,388.12h-2.46v-3.14h2.46v3.14Zm-.03,16.88h-2.41v-14.34h2.41v14.34Z"/>
        <path class="cls-3" d="m135.71,398.06c0,2.18.5,3.61,1.76,4.4.76.48,1.82.7,3.19.7,1.23,0,2.69-.22,3.7-.5l.36,1.9c-1.01.36-2.6.73-4.45.73-1.37,0-2.55-.22-3.5-.62-2.44-1.04-3.53-3.36-3.53-6.72v-.22c0-3.33,1.06-5.68,3.5-6.72.95-.42,2.13-.62,3.5-.62,1.82,0,3.42.34,4.42.7l-.36,1.9c-1.01-.28-2.46-.48-3.67-.48-1.4,0-2.44.22-3.19.7-1.26.78-1.74,2.21-1.74,4.4v.45Z"/>
        <path class="cls-3" d="m149.51,398.32c.06,1.96.62,3.22,1.71,4,.92.64,2.18.95,3.92.95,1.62,0,3.19-.31,4.26-.7l.36,1.82c-1.04.48-2.91.9-4.84.9-5.01,0-7.81-1.9-7.81-7.56v-.22c0-4.56,2.27-7.11,6.86-7.11s6.36,2.38,6.36,6.33v1.6h-10.81Zm.03-1.93h8.43v-.25c0-1.51-.42-2.55-1.34-3.14-.67-.42-1.51-.64-2.66-.64-1.2,0-2.04.22-2.74.64-1.04.67-1.54,1.79-1.68,3.39Z"/>
        <path class="cls-3" d="m180.17,394.93h7.39v9.18c-2.1.76-4.17,1.18-7.22,1.18-2.55,0-4.56-.5-5.96-1.48-2.41-1.68-3.39-4.65-3.39-8.2v-.22c0-3.98.98-7.11,3.58-8.82,1.48-.98,3.5-1.43,6.1-1.43,2.77,0,4.79.48,6.33,1.09l-.48,1.99c-1.48-.5-3.47-.84-5.54-.84s-3.67.31-4.79,1.04c-1.9,1.23-2.6,3.53-2.6,6.86v.45c0,2.83.7,5.04,2.44,6.27,1.04.73,2.55,1.06,4.62,1.06,1.79,0,3.25-.25,4.51-.64v-5.35h-4.98v-2.13Z"/>
        <path class="cls-3" d="m193.7,398.32c.06,1.96.62,3.22,1.71,4,.92.64,2.18.95,3.92.95,1.62,0,3.19-.31,4.26-.7l.36,1.82c-1.04.48-2.91.9-4.84.9-5.01,0-7.81-1.9-7.81-7.56v-.22c0-4.56,2.27-7.11,6.86-7.11s6.36,2.38,6.36,6.33v1.6h-10.81Zm.03-1.93h8.43v-.25c0-1.51-.42-2.55-1.34-3.14-.67-.42-1.51-.64-2.66-.64-1.2,0-2.04.22-2.74.64-1.04.67-1.54,1.79-1.68,3.39Z"/>
        <path class="cls-3" d="m216.32,392.91c-.31-.03-.92-.06-1.32-.06-3.39,0-4.17,1.54-4.17,3.78v8.37h-2.41v-14.34h2.13l.22,2.24h.08c.67-1.34,1.74-2.35,4.12-2.35.53,0,1.04.06,1.34.11v2.24Z"/>
        <path class="cls-3" d="m230.21,405.01h-2.1l-.17-1.85h-.08c-.73.95-2.07,2.07-4.96,2.07-3.22,0-4.84-1.34-4.84-4.26,0-2.74,1.46-4.09,4.96-4.09h4.84v-1.23c0-2.38-.81-3.25-3.7-3.25-1.65,0-3.58.28-4.68.56l-.34-1.79c1.06-.39,3.02-.78,5.24-.78,4.34,0,5.82,1.51,5.82,5.12v9.49Zm-2.32-6.22h-4.7c-2.18,0-2.8.59-2.8,2.21,0,1.76.78,2.32,2.83,2.32,2.58,0,4.68-1.26,4.68-3.47v-1.06Z"/>
        <path class="cls-3" d="m237.35,401.42c0,1.34.36,1.62,1.6,1.62.39,0,.84-.03,1.04-.06v1.96c-.31.08-.92.17-1.62.17-2.55,0-3.42-.92-3.42-3.22v-17.33h2.41v16.86Z"/>
        <path class="cls-3" d="m249.53,397.95v-.22c0-4.79,2.24-7.34,6.55-7.34,2.21,0,3.81.67,4.84,1.96l.11-.06c-.06-.7-.08-1.46-.08-2.18v-5.54h2.41v20.44h-2.1l-.22-1.65-.11-.03c-1.04,1.29-2.63,1.96-4.84,1.96-4.31,0-6.55-2.55-6.55-7.34Zm9.83,4.59c1.15-.81,1.6-2.32,1.6-4.48v-.45c0-2.16-.45-3.67-1.6-4.48-.7-.48-1.62-.73-2.88-.73s-2.18.25-2.88.73c-1.15.81-1.6,2.32-1.6,4.48v.45c0,2.16.45,3.67,1.6,4.48.7.48,1.62.73,2.88.73s2.18-.25,2.88-.73Z"/>
        <path class="cls-3" d="m269.77,398.32c.06,1.96.62,3.22,1.71,4,.92.64,2.18.95,3.92.95,1.62,0,3.19-.31,4.26-.7l.36,1.82c-1.04.48-2.91.9-4.84.9-5.01,0-7.81-1.9-7.81-7.56v-.22c0-4.56,2.27-7.11,6.86-7.11s6.36,2.38,6.36,6.33v1.6h-10.81Zm.03-1.93h8.43v-.25c0-1.51-.42-2.55-1.34-3.14-.67-.42-1.51-.64-2.66-.64-1.2,0-2.04.22-2.74.64-1.04.67-1.54,1.79-1.68,3.39Z"/>
        <path class="cls-3" d="m291.25,395.1c0-3.81,1.04-6.75,3.42-8.43,1.4-.98,3.28-1.54,5.77-1.54s4.45.48,5.77,1.06l-.48,1.99c-1.43-.5-3.11-.81-4.98-.81-2.02,0-3.39.39-4.42,1.12-1.74,1.23-2.46,3.44-2.46,6.5v.45c0,3.05.76,5.26,2.49,6.5,1.04.73,2.44,1.12,4.51,1.12,1.9,0,3.56-.31,4.98-.81l.48,1.99c-1.37.62-3.3,1.06-5.77,1.06s-4.45-.56-5.85-1.54c-2.41-1.68-3.44-4.7-3.44-8.43v-.22Z"/>
        <path class="cls-3" d="m309.78,390.67h2.41v8.57c0,2.94.78,3.92,3.53,3.92,3.11,0,3.81-1.76,3.81-4.2v-8.29h2.41v14.34h-2.16l-.2-1.85h-.08c-.59,1.06-1.79,2.13-4.06,2.13-4.12,0-5.66-1.65-5.66-5.88v-8.74Z"/>
        <path class="cls-3" d="m334.59,392.91c-.31-.03-.92-.06-1.32-.06-3.39,0-4.17,1.54-4.17,3.78v8.37h-2.41v-14.34h2.13l.22,2.24h.08c.67-1.34,1.74-2.35,4.12-2.35.53,0,1.04.06,1.34.11v2.24Z"/>
        <path class="cls-3" d="m336.94,404.59l.36-1.85c1.34.42,3,.62,4.59.62,2.77,0,3.53-.48,3.53-2.16s-.78-1.85-2.3-2.18l-2.13-.48c-2.32-.53-4.09-1.18-4.09-4.12s1.57-4.03,5.46-4.03c1.99,0,3.81.31,4.76.62l-.36,1.85c-1.04-.31-2.44-.53-4.23-.53-2.52,0-3.28.42-3.28,2.02,0,1.68.9,1.88,2.52,2.24l2.13.48c2.49.56,3.86,1.29,3.86,4.06,0,3.05-1.57,4.17-5.68,4.17-2.18,0-4.03-.31-5.15-.7Z"/>
        <path class="cls-3" d="m364.52,397.95c0,4.79-2.21,7.34-6.94,7.34s-6.94-2.55-6.94-7.34v-.22c0-4.79,2.21-7.34,6.94-7.34s6.94,2.55,6.94,7.34v.22Zm-2.46-.34c0-2.16-.45-3.67-1.6-4.48-.7-.48-1.62-.73-2.88-.73s-2.18.25-2.88.73c-1.15.81-1.6,2.32-1.6,4.48v.45c0,2.16.45,3.67,1.6,4.48.7.48,1.62.73,2.88.73s2.18-.25,2.88-.73c1.15-.81,1.6-2.32,1.6-4.48v-.45Z"/>
        <path class="cls-3" d="m367.38,404.59l.36-1.85c1.34.42,3,.62,4.59.62,2.77,0,3.53-.48,3.53-2.16s-.78-1.85-2.3-2.18l-2.13-.48c-2.32-.53-4.09-1.18-4.09-4.12s1.57-4.03,5.46-4.03c1.99,0,3.81.31,4.76.62l-.36,1.85c-1.04-.31-2.44-.53-4.23-.53-2.52,0-3.28.42-3.28,2.02,0,1.68.9,1.88,2.52,2.24l2.13.48c2.49.56,3.86,1.29,3.86,4.06,0,3.05-1.57,4.17-5.68,4.17-2.18,0-4.03-.31-5.15-.7Z"/>
      </g>
      <g>
        <rect class="cls-1" y="542.5" width="461" height="202.53" rx="32.78" ry="32.78"/>
        <line class="cls-2" x1="80.25" y1="533.5" x2="380.75" y2="533.5"/>
        <line class="cls-2" x1="80.25" y1="754.5" x2="380.75" y2="754.5"/>
        <g>
          <path class="cls-3" d="m212.69,624.36c0-4.26,1.23-7.44,3.99-9.18,1.56-.96,3.6-1.47,6.24-1.47s4.92.48,6.36,1.08l-.66,2.79c-1.53-.48-3.21-.72-5.13-.72s-3.51.33-4.59,1.05c-1.71,1.14-2.46,3.24-2.46,6.33v.54c0,3.06.75,5.16,2.46,6.3,1.11.75,2.61,1.08,4.68,1.08,1.92,0,3.63-.27,5.16-.75l.66,2.79c-1.47.63-3.81,1.11-6.39,1.11s-4.74-.51-6.33-1.5c-2.73-1.74-3.99-4.92-3.99-9.15v-.3Z"/>
          <path class="cls-3" d="m232.01,624.36c0-4.26,1.23-7.44,3.99-9.18,1.56-.96,3.6-1.47,6.24-1.47s4.92.48,6.36,1.08l-.66,2.79c-1.53-.48-3.21-.72-5.13-.72s-3.51.33-4.59,1.05c-1.71,1.14-2.46,3.24-2.46,6.33v.54c0,3.06.75,5.16,2.46,6.3,1.11.75,2.61,1.08,4.68,1.08,1.92,0,3.63-.27,5.16-.75l.66,2.79c-1.47.63-3.81,1.11-6.39,1.11s-4.74-.51-6.33-1.5c-2.73-1.74-3.99-4.92-3.99-9.15v-.3Z"/>
          <path class="cls-3" d="m110.65,660.1c0-3.81,1.04-6.75,3.42-8.43,1.4-.98,3.28-1.54,5.77-1.54s4.45.48,5.77,1.06l-.48,1.99c-1.43-.5-3.11-.81-4.98-.81-2.02,0-3.39.39-4.42,1.12-1.74,1.23-2.46,3.44-2.46,6.5v.45c0,3.05.76,5.26,2.49,6.5,1.04.73,2.44,1.12,4.51,1.12,1.9,0,3.56-.31,4.98-.81l.48,1.99c-1.37.62-3.3,1.06-5.77,1.06s-4.45-.56-5.85-1.54c-2.41-1.68-3.44-4.7-3.44-8.43v-.22Z"/>
          <path class="cls-3" d="m142.51,662.95c0,4.79-2.21,7.34-6.94,7.34s-6.94-2.55-6.94-7.34v-.22c0-4.79,2.21-7.34,6.94-7.34s6.94,2.55,6.94,7.34v.22Zm-2.46-.34c0-2.16-.45-3.67-1.6-4.48-.7-.48-1.62-.73-2.88-.73s-2.18.25-2.88.73c-1.15.81-1.6,2.32-1.6,4.48v.45c0,2.16.45,3.67,1.6,4.48.7.48,1.62.73,2.88.73s2.18-.25,2.88-.73c1.15-.81,1.6-2.32,1.6-4.48v-.45Z"/>
          <path class="cls-3" d="m158.81,670.01h-2.41v-8.68c0-2.86-.76-3.81-3.61-3.81-3.11,0-3.89,1.51-3.89,4.09v8.4h-2.41v-14.34h2.13l.22,1.96h.08c.56-1.18,1.82-2.24,4.56-2.24,4.17,0,5.32,1.93,5.32,5.77v8.85Z"/>
          <path class="cls-3" d="m165.14,663.06c0,2.18.5,3.61,1.76,4.4.76.48,1.82.7,3.19.7,1.23,0,2.69-.22,3.7-.5l.36,1.9c-1.01.36-2.6.73-4.45.73-1.37,0-2.55-.22-3.5-.62-2.44-1.04-3.53-3.36-3.53-6.72v-.22c0-3.33,1.06-5.68,3.5-6.72.95-.42,2.13-.62,3.5-.62,1.82,0,3.42.34,4.42.7l-.36,1.9c-1.01-.28-2.46-.48-3.67-.48-1.4,0-2.44.22-3.19.7-1.26.78-1.74,2.21-1.74,4.4v.45Z"/>
          <path class="cls-3" d="m178.94,663.32c.06,1.96.62,3.22,1.71,4,.92.64,2.18.95,3.92.95,1.62,0,3.19-.31,4.26-.7l.36,1.82c-1.04.48-2.91.9-4.84.9-5.01,0-7.81-1.9-7.81-7.56v-.22c0-4.56,2.27-7.11,6.86-7.11s6.36,2.38,6.36,6.33v1.6h-10.81Zm.03-1.93h8.43v-.25c0-1.51-.42-2.55-1.34-3.14-.67-.42-1.51-.64-2.66-.64-1.2,0-2.04.22-2.74.64-1.04.67-1.54,1.79-1.68,3.39Z"/>
          <path class="cls-3" d="m196.19,653.12h-2.46v-3.14h2.46v3.14Zm-.03,16.88h-2.41v-14.34h2.41v14.34Z"/>
          <path class="cls-3" d="m201.93,665.95v-8.4h-2.58v-1.88h2.66l.11-4.23h2.16v4.23h4.54v1.88h-4.51v8.06c0,2.04.56,2.6,2.69,2.6.62,0,1.43-.06,1.88-.14v1.82c-.48.14-1.37.28-2.18.28-3.47,0-4.76-1.15-4.76-4.23Z"/>
          <path class="cls-3" d="m225.14,662.95c0,4.79-2.21,7.34-6.94,7.34s-6.94-2.55-6.94-7.34v-.22c0-4.79,2.21-7.34,6.94-7.34s6.94,2.55,6.94,7.34v.22Zm-2.46-.34c0-2.16-.45-3.67-1.6-4.48-.7-.48-1.62-.73-2.88-.73s-2.18.25-2.88.73c-1.15.81-1.6,2.32-1.6,4.48v.45c0,2.16.45,3.67,1.6,4.48.7.48,1.62.73,2.88.73s2.18-.25,2.88-.73c1.15-.81,1.6-2.32,1.6-4.48v-.45Z"/>
          <path class="cls-3" d="m235.61,662.95v-.22c0-4.79,2.24-7.34,6.55-7.34,2.21,0,3.81.67,4.84,1.96l.11-.06c-.06-.7-.08-1.46-.08-2.18v-5.54h2.41v20.44h-2.1l-.22-1.65-.11-.03c-1.04,1.29-2.63,1.96-4.84,1.96-4.31,0-6.55-2.55-6.55-7.34Zm9.83,4.59c1.15-.81,1.6-2.32,1.6-4.48v-.45c0-2.16-.45-3.67-1.6-4.48-.7-.48-1.62-.73-2.88-.73s-2.18.25-2.88.73c-1.15.81-1.6,2.32-1.6,4.48v.45c0,2.16.45,3.67,1.6,4.48.7.48,1.62.73,2.88.73s2.18-.25,2.88-.73Z"/>
          <path class="cls-3" d="m255.86,663.32c.06,1.96.62,3.22,1.71,4,.92.64,2.18.95,3.92.95,1.62,0,3.19-.31,4.26-.7l.36,1.82c-1.04.48-2.91.9-4.84.9-5.01,0-7.81-1.9-7.81-7.56v-.22c0-4.56,2.27-7.11,6.86-7.11s6.36,2.38,6.36,6.33v1.6h-10.81Zm.03-1.93h8.43v-.25c0-1.51-.42-2.55-1.34-3.14-.67-.42-1.51-.64-2.66-.64-1.2,0-2.04.22-2.74.64-1.04.67-1.54,1.79-1.68,3.39Z"/>
          <path class="cls-3" d="m277.33,660.1c0-3.81,1.04-6.75,3.42-8.43,1.4-.98,3.28-1.54,5.77-1.54s4.45.48,5.77,1.06l-.48,1.99c-1.43-.5-3.11-.81-4.98-.81-2.02,0-3.39.39-4.42,1.12-1.74,1.23-2.46,3.44-2.46,6.5v.45c0,3.05.76,5.26,2.49,6.5,1.04.73,2.44,1.12,4.51,1.12,1.9,0,3.56-.31,4.98-.81l.48,1.99c-1.37.62-3.3,1.06-5.77,1.06s-4.45-.56-5.85-1.54c-2.41-1.68-3.44-4.7-3.44-8.43v-.22Z"/>
          <path class="cls-3" d="m295.87,655.67h2.41v8.57c0,2.94.78,3.92,3.53,3.92,3.11,0,3.81-1.76,3.81-4.2v-8.29h2.41v14.34h-2.16l-.2-1.85h-.08c-.59,1.06-1.79,2.13-4.06,2.13-4.12,0-5.66-1.65-5.66-5.88v-8.74Z"/>
          <path class="cls-3" d="m320.68,657.91c-.31-.03-.92-.06-1.32-.06-3.39,0-4.17,1.54-4.17,3.78v8.37h-2.41v-14.34h2.13l.22,2.24h.08c.67-1.34,1.74-2.35,4.12-2.35.53,0,1.04.06,1.34.11v2.24Z"/>
          <path class="cls-3" d="m323.03,669.59l.36-1.85c1.34.42,3,.62,4.59.62,2.77,0,3.53-.48,3.53-2.16s-.78-1.85-2.3-2.18l-2.13-.48c-2.32-.53-4.09-1.18-4.09-4.12s1.57-4.03,5.46-4.03c1.99,0,3.81.31,4.76.62l-.36,1.85c-1.04-.31-2.44-.53-4.23-.53-2.52,0-3.28.42-3.28,2.02,0,1.68.9,1.88,2.52,2.24l2.13.48c2.49.56,3.86,1.29,3.86,4.06,0,3.05-1.57,4.17-5.68,4.17-2.18,0-4.03-.31-5.15-.7Z"/>
          <path class="cls-3" d="m350.61,662.95c0,4.79-2.21,7.34-6.94,7.34s-6.94-2.55-6.94-7.34v-.22c0-4.79,2.21-7.34,6.94-7.34s6.94,2.55,6.94,7.34v.22Zm-2.46-.34c0-2.16-.45-3.67-1.6-4.48-.7-.48-1.62-.73-2.88-.73s-2.18.25-2.88.73c-1.15.81-1.6,2.32-1.6,4.48v.45c0,2.16.45,3.67,1.6,4.48.7.48,1.62.73,2.88.73s2.18-.25,2.88-.73c1.15-.81,1.6-2.32,1.6-4.48v-.45Z"/>
        </g>
      </g>
    </g>
  </g>
</svg>