<?xml version="1.0" encoding="UTF-8"?>
<svg id="Camada_2" data-name="Camada 2" xmlns="http://www.w3.org/2000/svg" viewBox="0 0 1248.5 710.41">
  <defs>
    <style>
      .cls-1 {
        fill: #0055b8;
      }

      .cls-2 {
        fill: #fff;
      }

      .cls-3 {
        fill: #950048;
      }

      .cls-4 {
        stroke: #d30058;
      }

      .cls-4, .cls-5, .cls-6 {
        fill: none;
        stroke-miterlimit: 10;
        stroke-width: 5px;
      }

      .cls-7 {
        fill: #dc3379;
      }

      .cls-5 {
        stroke: #dc3379;
      }

      .cls-6 {
        stroke: #950048;
      }

      .cls-8 {
        fill: #73787c;
      }

      .cls-9 {
        fill: #d30058;
      }
    </style>
  </defs>
  <g id="Camada_1-2" data-name="Camada 1">
    <g>
      <circle class="cls-2" cx="627.63" cy="329.34" r="281"/>
      <g>
        <path class="cls-9" d="m20.94,126.88h-3.78l-2.04-5.37H6.21l-2.04,5.37H.57l8.34-21h3.72l8.31,21Zm-13.59-8.34h6.63l-1.86-4.95c-.54-1.38-.99-2.82-1.38-4.26h-.12c-.39,1.44-.84,2.85-1.35,4.23l-1.92,4.98Z"/>
        <path class="cls-9" d="m41.79,126.88h-4.35l-7.59-12.42c-.84-1.47-1.56-2.76-2.28-4.32h-.09c.15,1.77.21,3.39.21,5.13v11.61h-3.6v-21h4.35l7.59,12.42c.84,1.47,1.56,2.76,2.25,4.32h.09c-.15-1.77-.15-3.39-.15-5.13v-11.61h3.57v21Z"/>
        <path class="cls-9" d="m66.48,116.23v.3c0,7.14-3.51,10.65-10.17,10.65s-10.17-3.51-10.17-10.65v-.3c0-7.14,3.48-10.65,10.17-10.65s10.17,3.51,10.17,10.65Zm-6.33,7.02c1.86-1.2,2.58-3.48,2.58-6.6v-.54c0-3.12-.72-5.4-2.58-6.6-.96-.6-2.22-.93-3.84-.93s-2.88.33-3.84.93c-1.86,1.2-2.58,3.48-2.58,6.6v.54c0,3.12.72,5.4,2.58,6.6.96.6,2.22.93,3.84.93s2.88-.33,3.84-.93Z"/>
        <path class="cls-9" d="m78,105.88h3.66v21h-3.66v-21Z"/>
        <path class="cls-8" d="m1.85,148.97c0-3.81,1.04-6.75,3.42-8.43,1.4-.98,3.28-1.54,5.77-1.54s4.45.48,5.77,1.06l-.48,1.99c-1.43-.5-3.11-.81-4.98-.81-2.02,0-3.39.39-4.42,1.12-1.74,1.23-2.46,3.44-2.46,6.5v.45c0,3.05.76,5.26,2.49,6.5,1.04.73,2.44,1.12,4.51,1.12,1.9,0,3.56-.31,4.98-.81l.48,1.99c-1.37.62-3.3,1.06-5.77,1.06s-4.45-.56-5.85-1.54c-2.41-1.68-3.44-4.7-3.44-8.43v-.22Z"/>
        <path class="cls-8" d="m23.27,142h-2.46v-3.14h2.46v3.14Zm-.03,16.88h-2.41v-14.34h2.41v14.34Z"/>
        <path class="cls-8" d="m29.71,152.19c.06,1.96.62,3.22,1.71,4,.92.64,2.18.95,3.92.95,1.62,0,3.19-.31,4.26-.7l.36,1.82c-1.04.48-2.91.9-4.84.9-5.01,0-7.81-1.9-7.81-7.56v-.22c0-4.56,2.27-7.11,6.86-7.11s6.36,2.38,6.36,6.33v1.6h-10.81Zm9.07-9.63h-2.13l-2.6-2.18-2.6,2.18h-2.13l3.39-3.92h2.69l3.39,3.92Zm-9.04,7.7h8.43v-.25c0-1.51-.42-2.55-1.34-3.14-.67-.42-1.51-.64-2.66-.64-1.2,0-2.04.22-2.74.64-1.04.67-1.54,1.79-1.68,3.39Z"/>
        <path class="cls-8" d="m56.76,158.88h-2.41v-8.68c0-2.86-.76-3.81-3.61-3.81-3.11,0-3.89,1.51-3.89,4.09v8.4h-2.41v-14.34h2.13l.22,1.96h.08c.56-1.18,1.82-2.24,4.56-2.24,4.17,0,5.32,1.93,5.32,5.77v8.85Z"/>
        <path class="cls-8" d="m63.08,151.94c0,2.18.5,3.61,1.76,4.4.76.48,1.82.7,3.19.7,1.23,0,2.69-.22,3.7-.5l.36,1.9c-1.01.36-2.6.73-4.45.73-1.37,0-2.55-.22-3.5-.62-2.44-1.04-3.53-3.36-3.53-6.72v-.22c0-3.33,1.06-5.68,3.5-6.72.95-.42,2.13-.62,3.5-.62,1.82,0,3.42.34,4.42.7l-.36,1.9c-1.01-.28-2.46-.48-3.67-.48-1.4,0-2.44.22-3.19.7-1.26.78-1.74,2.21-1.74,4.4v.45Z"/>
        <path class="cls-8" d="m78.18,142h-2.46v-3.14h2.46v3.14Zm-.03,16.88h-2.41v-14.34h2.41v14.34Z"/>
        <path class="cls-8" d="m94.22,158.88h-2.1l-.17-1.85h-.08c-.73.95-2.07,2.07-4.96,2.07-3.22,0-4.84-1.34-4.84-4.26,0-2.74,1.46-4.09,4.96-4.09h4.84v-1.23c0-2.38-.81-3.25-3.7-3.25-1.65,0-3.58.28-4.68.56l-.34-1.79c1.06-.39,3.02-.78,5.24-.78,4.34,0,5.82,1.51,5.82,5.12v9.49Zm-2.32-6.22h-4.7c-2.18,0-2.8.59-2.8,2.21,0,1.76.78,2.32,2.83,2.32,2.58,0,4.68-1.26,4.68-3.47v-1.06Z"/>
        <path class="cls-8" d="m97.86,158.46l.36-1.85c1.34.42,3,.62,4.59.62,2.77,0,3.53-.48,3.53-2.16s-.78-1.85-2.3-2.18l-2.13-.48c-2.32-.53-4.09-1.18-4.09-4.12s1.57-4.03,5.46-4.03c1.99,0,3.81.31,4.76.62l-.36,1.85c-1.04-.31-2.44-.53-4.23-.53-2.52,0-3.28.42-3.28,2.02,0,1.68.9,1.88,2.52,2.24l2.13.48c2.49.56,3.86,1.29,3.86,4.06,0,3.05-1.57,4.17-5.68,4.17-2.18,0-4.03-.31-5.15-.7Z"/>
        <path class="cls-8" d="m118.97,151.83v-.22c0-4.79,2.24-7.34,6.55-7.34,2.21,0,3.81.67,4.84,1.96l.11-.06c-.06-.7-.08-1.46-.08-2.18v-5.54h2.41v20.44h-2.1l-.22-1.65-.11-.03c-1.04,1.29-2.63,1.96-4.84,1.96-4.31,0-6.55-2.55-6.55-7.34Zm9.83,4.59c1.15-.81,1.6-2.32,1.6-4.48v-.45c0-2.16-.45-3.67-1.6-4.48-.7-.48-1.62-.73-2.88-.73s-2.18.25-2.88.73c-1.15.81-1.6,2.32-1.6,4.48v.45c0,2.16.45,3.67,1.6,4.48.7.48,1.62.73,2.88.73s2.18-.25,2.88-.73Z"/>
        <path class="cls-8" d="m148.82,158.88h-2.1l-.17-1.85h-.08c-.73.95-2.07,2.07-4.96,2.07-3.22,0-4.84-1.34-4.84-4.26,0-2.74,1.46-4.09,4.96-4.09h4.84v-1.23c0-2.38-.81-3.25-3.7-3.25-1.65,0-3.58.28-4.68.56l-.34-1.79c1.06-.39,3.02-.78,5.24-.78,4.34,0,5.82,1.51,5.82,5.12v9.49Zm-2.32-6.22h-4.7c-2.18,0-2.8.59-2.8,2.21,0,1.76.78,2.32,2.83,2.32,2.58,0,4.68-1.26,4.68-3.47v-1.06Z"/>
        <path class="cls-8" d="m159.74,158.46l.36-1.85c1.34.42,3,.62,4.59.62,2.77,0,3.53-.48,3.53-2.16s-.78-1.85-2.3-2.18l-2.13-.48c-2.32-.53-4.09-1.18-4.09-4.12s1.57-4.03,5.46-4.03c1.99,0,3.81.31,4.76.62l-.36,1.85c-1.04-.31-2.44-.53-4.23-.53-2.52,0-3.28.42-3.28,2.02,0,1.68.9,1.88,2.52,2.24l2.13.48c2.49.56,3.86,1.29,3.86,4.06,0,3.05-1.57,4.17-5.68,4.17-2.18,0-4.03-.31-5.15-.7Z"/>
        <path class="cls-8" d="m185.58,158.88h-2.1l-.17-1.85h-.08c-.73.95-2.07,2.07-4.96,2.07-3.22,0-4.84-1.34-4.84-4.26,0-2.74,1.46-4.09,4.96-4.09h4.84v-1.23c0-2.38-.81-3.25-3.7-3.25-1.65,0-3.58.28-4.68.56l-.34-1.79c1.06-.39,3.02-.78,5.24-.78,4.34,0,5.82,1.51,5.82,5.12v9.49Zm-2.32-6.22h-4.7c-2.18,0-2.8.59-2.8,2.21,0,1.76.78,2.32,2.83,2.32,2.58,0,4.68-1.26,4.68-3.47v-1.06Z"/>
        <path class="cls-8" d="m190.09,144.55h2.41v8.57c0,2.94.78,3.92,3.53,3.92,3.11,0,3.81-1.76,3.81-4.2v-8.29h2.41v14.34h-2.16l-.2-1.85h-.08c-.59,1.06-1.79,2.13-4.06,2.13-4.12,0-5.66-1.65-5.66-5.88v-8.74Zm5.01-1.96l1.93-4.12h3.11v.06l-3.16,4.06h-1.88Z"/>
        <path class="cls-8" d="m206.22,151.83v-.22c0-4.79,2.24-7.34,6.55-7.34,2.21,0,3.81.67,4.84,1.96l.11-.06c-.06-.7-.08-1.46-.08-2.18v-5.54h2.41v20.44h-2.1l-.22-1.65-.11-.03c-1.04,1.29-2.63,1.96-4.84,1.96-4.31,0-6.55-2.55-6.55-7.34Zm9.83,4.59c1.15-.81,1.6-2.32,1.6-4.48v-.45c0-2.16-.45-3.67-1.6-4.48-.7-.48-1.62-.73-2.88-.73s-2.18.25-2.88.73c-1.15.81-1.6,2.32-1.6,4.48v.45c0,2.16.45,3.67,1.6,4.48.7.48,1.62.73,2.88.73s2.18-.25,2.88-.73Z"/>
        <path class="cls-8" d="m226.46,152.19c.06,1.96.62,3.22,1.71,4,.92.64,2.18.95,3.92.95,1.62,0,3.19-.31,4.26-.7l.36,1.82c-1.04.48-2.91.9-4.84.9-5.01,0-7.81-1.9-7.81-7.56v-.22c0-4.56,2.27-7.11,6.86-7.11s6.36,2.38,6.36,6.33v1.6h-10.81Zm.03-1.93h8.43v-.25c0-1.51-.42-2.55-1.34-3.14-.67-.42-1.51-.64-2.66-.64-1.2,0-2.04.22-2.74.64-1.04.67-1.54,1.79-1.68,3.39Z"/>
        <path class="cls-8" d="m241.27,161.35l.92-2.46h-1.04v-2.69h2.63v2.52l-1.32,2.63h-1.2Z"/>
        <path class="cls-8" d="m13.61,190.88h-2.1l-.17-1.85h-.08c-.73.95-2.07,2.07-4.96,2.07-3.22,0-4.84-1.34-4.84-4.26,0-2.74,1.46-4.09,4.96-4.09h4.84v-1.23c0-2.38-.81-3.25-3.7-3.25-1.65,0-3.58.28-4.68.56l-.34-1.79c1.06-.39,3.02-.78,5.24-.78,4.34,0,5.82,1.51,5.82,5.12v9.49Zm-2.32-6.22h-4.7c-2.18,0-2.8.59-2.8,2.21,0,1.76.78,2.32,2.83,2.32,2.58,0,4.68-1.26,4.68-3.47v-1.06Z"/>
        <path class="cls-8" d="m28.73,178.11l.08-.03.2-1.54h2.16v13.97c0,4-2.18,5.85-6.92,5.85-2.07,0-4.14-.31-5.49-.78l.36-1.93c1.18.34,3.05.7,4.9.7,3.64,0,4.76-1.26,4.76-3.89v-1.01l.06-.98h-.08c-1.04,1.23-2.63,1.85-4.79,1.85-4.17,0-6.5-2.41-6.5-6.94v-.17c0-4.54,2.32-6.94,6.5-6.94,2.13,0,3.72.64,4.76,1.85Zm.06,4.98c0-1.88-.39-3.28-1.48-4.06-.67-.5-1.65-.76-2.94-.76s-2.27.25-2.97.78c-1.04.76-1.46,2.1-1.46,4.03v.39c0,1.93.45,3.28,1.46,4.03.7.53,1.68.78,2.97.78s2.27-.28,2.94-.78c1.09-.78,1.48-2.16,1.48-4.03v-.39Z"/>
        <path class="cls-8" d="m43.82,178.79c-.31-.03-.92-.06-1.32-.06-3.39,0-4.17,1.54-4.17,3.78v8.37h-2.41v-14.34h2.13l.22,2.24h.08c.67-1.34,1.74-2.35,4.12-2.35.53,0,1.04.06,1.34.11v2.24Z"/>
        <path class="cls-8" d="m57.71,190.88h-2.1l-.17-1.85h-.08c-.73.95-2.07,2.07-4.96,2.07-3.22,0-4.84-1.34-4.84-4.26,0-2.74,1.46-4.09,4.96-4.09h4.84v-1.23c0-2.38-.81-3.25-3.7-3.25-1.65,0-3.58.28-4.68.56l-.34-1.79c1.06-.39,3.02-.78,5.24-.78,4.34,0,5.82,1.51,5.82,5.12v9.49Zm-2.32-6.22h-4.7c-2.18,0-2.8.59-2.8,2.21,0,1.76.78,2.32,2.83,2.32,2.58,0,4.68-1.26,4.68-3.47v-1.06Zm-4.48-10.08l1.93-4.12h3.11v.06l-3.16,4.06h-1.88Z"/>
        <path class="cls-8" d="m70.25,178.79c-.31-.03-.92-.06-1.32-.06-3.39,0-4.17,1.54-4.17,3.78v8.37h-2.41v-14.34h2.13l.22,2.24h.08c.67-1.34,1.74-2.35,4.12-2.35.53,0,1.04.06,1.34.11v2.24Z"/>
        <path class="cls-8" d="m76.13,174h-2.46v-3.14h2.46v3.14Zm-.03,16.88h-2.41v-14.34h2.41v14.34Z"/>
        <path class="cls-8" d="m92.18,190.88h-2.1l-.17-1.85h-.08c-.73.95-2.07,2.07-4.96,2.07-3.22,0-4.84-1.34-4.84-4.26,0-2.74,1.46-4.09,4.96-4.09h4.84v-1.23c0-2.38-.81-3.25-3.7-3.25-1.65,0-3.58.28-4.68.56l-.34-1.79c1.06-.39,3.02-.78,5.24-.78,4.34,0,5.82,1.51,5.82,5.12v9.49Zm-2.32-6.22h-4.7c-2.18,0-2.8.59-2.8,2.21,0,1.76.78,2.32,2.83,2.32,2.58,0,4.68-1.26,4.68-3.47v-1.06Z"/>
        <path class="cls-8" d="m95.82,190.46l.36-1.85c1.34.42,3,.62,4.59.62,2.77,0,3.53-.48,3.53-2.16s-.78-1.85-2.3-2.18l-2.13-.48c-2.32-.53-4.09-1.18-4.09-4.12s1.57-4.03,5.46-4.03c1.99,0,3.81.31,4.76.62l-.36,1.85c-1.04-.31-2.44-.53-4.23-.53-2.52,0-3.28.42-3.28,2.02,0,1.68.9,1.88,2.52,2.24l2.13.48c2.49.56,3.86,1.29,3.86,4.06,0,3.05-1.57,4.17-5.68,4.17-2.18,0-4.03-.31-5.15-.7Z"/>
        <path class="cls-8" d="m110.51,193.35l.92-2.46h-1.04v-2.69h2.63v2.52l-1.32,2.63h-1.2Z"/>
        <path class="cls-8" d="m126.67,184.19c.06,1.96.62,3.22,1.71,4,.92.64,2.18.95,3.92.95,1.62,0,3.19-.31,4.26-.7l.36,1.82c-1.04.48-2.91.9-4.84.9-5.01,0-7.81-1.9-7.81-7.56v-.22c0-4.56,2.27-7.11,6.86-7.11s6.36,2.38,6.36,6.33v1.6h-10.81Zm.03-1.93h8.43v-.25c0-1.51-.42-2.55-1.34-3.14-.67-.42-1.51-.64-2.66-.64-1.2,0-2.04.22-2.74.64-1.04.67-1.54,1.79-1.68,3.39Z"/>
        <path class="cls-8" d="m153.72,190.88h-2.41v-8.68c0-2.86-.76-3.81-3.61-3.81-3.11,0-3.89,1.51-3.89,4.09v8.4h-2.41v-14.34h2.13l.22,1.96h.08c.56-1.18,1.82-2.24,4.56-2.24,4.17,0,5.32,1.93,5.32,5.77v8.85Z"/>
        <path class="cls-8" d="m168.84,178.11l.08-.03.2-1.54h2.16v13.97c0,4-2.18,5.85-6.92,5.85-2.07,0-4.14-.31-5.49-.78l.36-1.93c1.18.34,3.05.7,4.9.7,3.64,0,4.76-1.26,4.76-3.89v-1.01l.06-.98h-.08c-1.04,1.23-2.63,1.85-4.79,1.85-4.17,0-6.5-2.41-6.5-6.94v-.17c0-4.54,2.32-6.94,6.5-6.94,2.13,0,3.72.64,4.76,1.85Zm.06,4.98c0-1.88-.39-3.28-1.48-4.06-.67-.5-1.65-.76-2.94-.76s-2.27.25-2.97.78c-1.04.76-1.46,2.1-1.46,4.03v.39c0,1.93.45,3.28,1.46,4.03.7.53,1.68.78,2.97.78s2.27-.28,2.94-.78c1.09-.78,1.48-2.16,1.48-4.03v-.39Z"/>
        <path class="cls-8" d="m177.66,184.19c.06,1.96.62,3.22,1.71,4,.92.64,2.18.95,3.92.95,1.62,0,3.19-.31,4.26-.7l.36,1.82c-1.04.48-2.91.9-4.84.9-5.01,0-7.81-1.9-7.81-7.56v-.22c0-4.56,2.27-7.11,6.86-7.11s6.36,2.38,6.36,6.33v1.6h-10.81Zm.03-1.93h8.43v-.25c0-1.51-.42-2.55-1.34-3.14-.67-.42-1.51-.64-2.66-.64-1.2,0-2.04.22-2.74.64-1.04.67-1.54,1.79-1.68,3.39Z"/>
        <path class="cls-8" d="m204.71,190.88h-2.41v-8.68c0-2.86-.76-3.81-3.61-3.81-3.11,0-3.89,1.51-3.89,4.09v8.4h-2.41v-14.34h2.13l.22,1.96h.08c.56-1.18,1.82-2.24,4.56-2.24,4.17,0,5.32,1.93,5.32,5.77v8.85Z"/>
        <path class="cls-8" d="m221.7,190.88h-2.41v-8.68c0-2.86-.76-3.81-3.61-3.81-3.11,0-3.89,1.51-3.89,4.09v8.4h-2.41v-20.44h2.41v5.68c0,.78-.03,1.62-.08,2.35l.08.03c.56-1.18,1.85-2.24,4.59-2.24,4.17,0,5.32,1.93,5.32,5.77v8.85Z"/>
        <path class="cls-8" d="m237.58,190.88h-2.1l-.17-1.85h-.08c-.73.95-2.07,2.07-4.96,2.07-3.22,0-4.84-1.34-4.84-4.26,0-2.74,1.46-4.09,4.96-4.09h4.84v-1.23c0-2.38-.81-3.25-3.7-3.25-1.65,0-3.58.28-4.68.56l-.34-1.79c1.06-.39,3.02-.78,5.24-.78,4.34,0,5.82,1.51,5.82,5.12v9.49Zm-2.32-6.22h-4.7c-2.18,0-2.8.59-2.8,2.21,0,1.76.78,2.32,2.83,2.32,2.58,0,4.68-1.26,4.68-3.47v-1.06Z"/>
        <path class="cls-8" d="m250.12,178.79c-.31-.03-.92-.06-1.32-.06-3.39,0-4.17,1.54-4.17,3.78v8.37h-2.41v-14.34h2.13l.22,2.24h.08c.67-1.34,1.74-2.35,4.12-2.35.53,0,1.04.06,1.34.11v2.24Z"/>
        <path class="cls-8" d="m256,174h-2.46v-3.14h2.46v3.14Zm-.03,16.88h-2.41v-14.34h2.41v14.34Z"/>
        <path class="cls-8" d="m272.05,190.88h-2.1l-.17-1.85h-.08c-.73.95-2.07,2.07-4.96,2.07-3.22,0-4.84-1.34-4.84-4.26,0-2.74,1.46-4.09,4.96-4.09h4.84v-1.23c0-2.38-.81-3.25-3.7-3.25-1.65,0-3.58.28-4.68.56l-.34-1.79c1.06-.39,3.02-.78,5.24-.78,4.34,0,5.82,1.51,5.82,5.12v9.49Zm-2.32-6.22h-4.7c-2.18,0-2.8.59-2.8,2.21,0,1.76.78,2.32,2.83,2.32,2.58,0,4.68-1.26,4.68-3.47v-1.06Z"/>
        <path class="cls-8" d="m275.69,190.46l.36-1.85c1.34.42,3,.62,4.59.62,2.77,0,3.53-.48,3.53-2.16s-.78-1.85-2.3-2.18l-2.13-.48c-2.32-.53-4.09-1.18-4.09-4.12s1.57-4.03,5.46-4.03c1.99,0,3.81.31,4.76.62l-.36,1.85c-1.04-.31-2.44-.53-4.23-.53-2.52,0-3.28.42-3.28,2.02,0,1.68.9,1.88,2.52,2.24l2.13.48c2.49.56,3.86,1.29,3.86,4.06,0,3.05-1.57,4.17-5.68,4.17-2.18,0-4.03-.31-5.15-.7Z"/>
        <path class="cls-8" d="m290.38,193.35l.92-2.46h-1.04v-2.69h2.63v2.52l-1.32,2.63h-1.2Z"/>
        <path class="cls-8" d="m13.61,222.88h-2.1l-.17-1.85h-.08c-.73.95-2.07,2.07-4.96,2.07-3.22,0-4.84-1.34-4.84-4.26,0-2.74,1.46-4.09,4.96-4.09h4.84v-1.23c0-2.38-.81-3.25-3.7-3.25-1.65,0-3.58.28-4.68.56l-.34-1.79c1.06-.39,3.02-.78,5.24-.78,4.34,0,5.82,1.51,5.82,5.12v9.49Zm-2.32-6.22h-4.7c-2.18,0-2.8.59-2.8,2.21,0,1.76.78,2.32,2.83,2.32,2.58,0,4.68-1.26,4.68-3.47v-1.06Z"/>
        <path class="cls-8" d="m26.15,210.79c-.31-.03-.92-.06-1.32-.06-3.39,0-4.17,1.54-4.17,3.78v8.37h-2.41v-14.34h2.13l.22,2.24h.08c.67-1.34,1.74-2.35,4.12-2.35.53,0,1.04.06,1.34.11v2.24Z"/>
        <path class="cls-8" d="m28.45,215.83v-.22c0-4.79,2.24-7.34,6.55-7.34,2.21,0,3.81.67,4.84,1.96l.11-.03.22-1.65h2.1v19.6h-2.41v-4.7c0-.73.03-1.48.08-2.18l-.11-.03c-1.04,1.29-2.63,1.93-4.84,1.93-4.31,0-6.55-2.55-6.55-7.34Zm9.83,4.59c1.15-.81,1.6-2.32,1.6-4.48v-.45c0-2.16-.45-3.67-1.6-4.48-.7-.48-1.62-.73-2.88-.73s-2.18.25-2.88.73c-1.15.81-1.6,2.32-1.6,4.48v.45c0,2.16.45,3.67,1.6,4.48.7.48,1.62.73,2.88.73s2.18-.25,2.88-.73Z"/>
        <path class="cls-8" d="m46.9,208.55h2.41v8.57c0,2.94.78,3.92,3.53,3.92,3.11,0,3.81-1.76,3.81-4.2v-8.29h2.41v14.34h-2.16l-.2-1.85h-.08c-.59,1.06-1.79,2.13-4.06,2.13-4.12,0-5.66-1.65-5.66-5.88v-8.74Z"/>
        <path class="cls-8" d="m66.33,206h-2.46v-3.14h2.46v3.14Zm-.03,16.88h-2.41v-14.34h2.41v14.34Z"/>
        <path class="cls-8" d="m72.07,218.82v-8.4h-2.58v-1.88h2.66l.11-4.23h2.16v4.23h4.54v1.88h-4.51v8.06c0,2.04.56,2.6,2.69,2.6.62,0,1.43-.06,1.88-.14v1.82c-.48.14-1.37.28-2.18.28-3.47,0-4.76-1.15-4.76-4.23Z"/>
        <path class="cls-8" d="m83.8,216.19c.06,1.96.62,3.22,1.71,4,.92.64,2.18.95,3.92.95,1.62,0,3.19-.31,4.26-.7l.36,1.82c-1.04.48-2.91.9-4.84.9-5.01,0-7.81-1.9-7.81-7.56v-.22c0-4.56,2.27-7.11,6.86-7.11s6.36,2.38,6.36,6.33v1.6h-10.81Zm.03-1.93h8.43v-.25c0-1.51-.42-2.55-1.34-3.14-.67-.42-1.51-.64-2.66-.64-1.2,0-2.04.22-2.74.64-1.04.67-1.54,1.79-1.68,3.39Z"/>
        <path class="cls-8" d="m99.32,218.82v-8.4h-2.58v-1.88h2.66l.11-4.23h2.16v4.23h4.54v1.88h-4.51v8.06c0,2.04.56,2.6,2.69,2.6.62,0,1.43-.06,1.88-.14v1.82c-.48.14-1.37.28-2.18.28-3.47,0-4.76-1.15-4.76-4.23Z"/>
        <path class="cls-8" d="m109.62,208.55h2.41v8.57c0,2.94.78,3.92,3.53,3.92,3.11,0,3.81-1.76,3.81-4.2v-8.29h2.41v14.34h-2.16l-.2-1.85h-.08c-.59,1.06-1.79,2.13-4.06,2.13-4.12,0-5.66-1.65-5.66-5.88v-8.74Z"/>
        <path class="cls-8" d="m134.43,210.79c-.31-.03-.92-.06-1.32-.06-3.39,0-4.17,1.54-4.17,3.78v8.37h-2.41v-14.34h2.13l.22,2.24h.08c.67-1.34,1.74-2.35,4.12-2.35.53,0,1.04.06,1.34.11v2.24Z"/>
        <path class="cls-8" d="m148.32,222.88h-2.1l-.17-1.85h-.08c-.73.95-2.07,2.07-4.96,2.07-3.22,0-4.84-1.34-4.84-4.26,0-2.74,1.46-4.09,4.96-4.09h4.84v-1.23c0-2.38-.81-3.25-3.7-3.25-1.65,0-3.58.28-4.68.56l-.34-1.79c1.06-.39,3.02-.78,5.24-.78,4.34,0,5.82,1.51,5.82,5.12v9.49Zm-2.32-6.22h-4.7c-2.18,0-2.8.59-2.8,2.21,0,1.76.78,2.32,2.83,2.32,2.58,0,4.68-1.26,4.68-3.47v-1.06Z"/>
        <path class="cls-8" d="m161.87,216.19c.06,1.96.62,3.22,1.71,4,.92.64,2.18.95,3.92.95,1.62,0,3.19-.31,4.26-.7l.36,1.82c-1.04.48-2.91.9-4.84.9-5.01,0-7.81-1.9-7.81-7.56v-.22c0-4.56,2.27-7.11,6.86-7.11s6.36,2.38,6.36,6.33v1.6h-10.81Zm.03-1.93h8.43v-.25c0-1.51-.42-2.55-1.34-3.14-.67-.42-1.51-.64-2.66-.64-1.2,0-2.04.22-2.74.64-1.04.67-1.54,1.79-1.68,3.39Z"/>
        <path class="cls-8" d="m195.1,222.88h-2.1l-.17-1.85h-.08c-.73.95-2.07,2.07-4.96,2.07-3.22,0-4.84-1.34-4.84-4.26,0-2.74,1.46-4.09,4.96-4.09h4.84v-1.23c0-2.38-.81-3.25-3.7-3.25-1.65,0-3.58.28-4.68.56l-.34-1.79c1.06-.39,3.02-.78,5.24-.78,4.34,0,5.82,1.51,5.82,5.12v9.49Zm-2.32-6.22h-4.7c-2.18,0-2.8.59-2.8,2.21,0,1.76.78,2.32,2.83,2.32,2.58,0,4.68-1.26,4.68-3.47v-1.06Zm-4.12-10.08l-3.16-4.06v-.06h3.11l1.93,4.12h-1.88Z"/>
        <path class="cls-8" d="m207.65,210.79c-.31-.03-.92-.06-1.32-.06-3.39,0-4.17,1.54-4.17,3.78v8.37h-2.41v-14.34h2.13l.22,2.24h.08c.67-1.34,1.74-2.35,4.12-2.35.53,0,1.04.06,1.34.11v2.24Z"/>
        <path class="cls-8" d="m212.35,216.19c.06,1.96.62,3.22,1.71,4,.92.64,2.18.95,3.92.95,1.62,0,3.19-.31,4.26-.7l.36,1.82c-1.04.48-2.91.9-4.84.9-5.01,0-7.81-1.9-7.81-7.56v-.22c0-4.56,2.27-7.11,6.86-7.11s6.36,2.38,6.36,6.33v1.6h-10.81Zm.03-1.93h8.43v-.25c0-1.51-.42-2.55-1.34-3.14-.67-.42-1.51-.64-2.66-.64-1.2,0-2.04.22-2.74.64-1.04.67-1.54,1.79-1.68,3.39Z"/>
        <path class="cls-8" d="m238.03,222.88h-2.1l-.17-1.85h-.08c-.73.95-2.07,2.07-4.96,2.07-3.22,0-4.84-1.34-4.84-4.26,0-2.74,1.46-4.09,4.96-4.09h4.84v-1.23c0-2.38-.81-3.25-3.7-3.25-1.65,0-3.58.28-4.68.56l-.34-1.79c1.06-.39,3.02-.78,5.24-.78,4.34,0,5.82,1.51,5.82,5.12v9.49Zm-2.32-6.22h-4.7c-2.18,0-2.8.59-2.8,2.21,0,1.76.78,2.32,2.83,2.32,2.58,0,4.68-1.26,4.68-3.47v-1.06Z"/>
        <path class="cls-8" d="m241.67,222.46l.36-1.85c1.34.42,3,.62,4.59.62,2.77,0,3.53-.48,3.53-2.16s-.78-1.85-2.3-2.18l-2.13-.48c-2.32-.53-4.09-1.18-4.09-4.12s1.57-4.03,5.46-4.03c1.99,0,3.81.31,4.76.62l-.36,1.85c-1.04-.31-2.44-.53-4.23-.53-2.52,0-3.28.42-3.28,2.02,0,1.68.9,1.88,2.52,2.24l2.13.48c2.49.56,3.86,1.29,3.86,4.06,0,3.05-1.57,4.17-5.68,4.17-2.18,0-4.03-.31-5.15-.7Z"/>
        <path class="cls-8" d="m13.61,254.88h-2.1l-.17-1.85h-.08c-.73.95-2.07,2.07-4.96,2.07-3.22,0-4.84-1.34-4.84-4.26,0-2.74,1.46-4.09,4.96-4.09h4.84v-1.23c0-2.38-.81-3.25-3.7-3.25-1.65,0-3.58.28-4.68.56l-.34-1.79c1.06-.39,3.02-.78,5.24-.78,4.34,0,5.82,1.51,5.82,5.12v9.49Zm-2.32-6.22h-4.7c-2.18,0-2.8.59-2.8,2.21,0,1.76.78,2.32,2.83,2.32,2.58,0,4.68-1.26,4.68-3.47v-1.06Z"/>
        <path class="cls-8" d="m31.11,254.88h-2.41v-12.46h-7.2v12.46h-2.38v-12.46h-2.63v-1.88h2.63v-1.76c0-3.33,1.4-4.51,4.51-4.51.73,0,1.43.08,1.85.17v1.79c-.42-.03-.95-.06-1.43-.06-2.02,0-2.6.64-2.6,2.63v1.74h9.66v14.34Zm.03-16.88h-2.46v-3.14h2.46v3.14Z"/>
        <path class="cls-8" d="m48.27,254.88h-2.41v-8.68c0-2.86-.76-3.81-3.61-3.81-3.11,0-3.89,1.51-3.89,4.09v8.4h-2.41v-14.34h2.13l.22,1.96h.08c.56-1.18,1.82-2.24,4.56-2.24,4.17,0,5.32,1.93,5.32,5.77v8.85Z"/>
        <path class="cls-8" d="m51.91,254.46l.36-1.85c1.34.42,3,.62,4.59.62,2.77,0,3.53-.48,3.53-2.16s-.78-1.85-2.3-2.18l-2.13-.48c-2.32-.53-4.09-1.18-4.09-4.12s1.57-4.03,5.46-4.03c1.99,0,3.81.31,4.76.62l-.36,1.85c-1.04-.31-2.44-.53-4.23-.53-2.52,0-3.28.42-3.28,2.02,0,1.68.9,1.88,2.52,2.24l2.13.48c2.49.56,3.86,1.29,3.86,4.06,0,3.05-1.57,4.17-5.68,4.17-2.18,0-4.03-.31-5.15-.7Z"/>
      </g>
      <g>
        <path class="cls-3" d="m973.94,70.88h-3.78l-2.04-5.37h-8.91l-2.04,5.37h-3.6l8.34-21h3.72l8.31,21Zm-13.59-8.34h6.63l-1.86-4.95c-.54-1.38-.99-2.82-1.38-4.26h-.12c-.39,1.44-.84,2.85-1.35,4.23l-1.92,4.98Z"/>
        <path class="cls-3" d="m994.79,70.88h-4.35l-7.59-12.42c-.84-1.47-1.56-2.76-2.28-4.32h-.09c.15,1.77.21,3.39.21,5.13v11.61h-3.6v-21h4.35l7.59,12.42c.84,1.47,1.56,2.76,2.25,4.32h.09c-.15-1.77-.15-3.39-.15-5.13v-11.61h3.57v21Z"/>
        <path class="cls-3" d="m1019.48,60.23v.3c0,7.14-3.51,10.65-10.17,10.65s-10.17-3.51-10.17-10.65v-.3c0-7.14,3.48-10.65,10.17-10.65s10.17,3.51,10.17,10.65Zm-6.33,7.02c1.86-1.2,2.58-3.48,2.58-6.6v-.54c0-3.12-.72-5.4-2.58-6.6-.96-.6-2.22-.93-3.84-.93s-2.88.33-3.84.93c-1.86,1.2-2.58,3.48-2.58,6.6v.54c0,3.12.72,5.4,2.58,6.6.96.6,2.22.93,3.84.93s2.88-.33,3.84-.93Z"/>
        <path class="cls-3" d="m1031,49.88h3.66v21h-3.66v-21Z"/>
        <path class="cls-3" d="m1040.06,49.88h3.66v21h-3.66v-21Z"/>
        <path class="cls-8" d="m954.85,92.97c0-3.81,1.04-6.75,3.42-8.43,1.4-.98,3.28-1.54,5.77-1.54s4.45.48,5.77,1.06l-.48,1.99c-1.43-.5-3.11-.81-4.98-.81-2.02,0-3.39.39-4.42,1.12-1.74,1.23-2.46,3.44-2.46,6.5v.45c0,3.05.76,5.26,2.49,6.5,1.04.73,2.44,1.12,4.51,1.12,1.9,0,3.56-.31,4.98-.81l.48,1.99c-1.37.62-3.3,1.06-5.77,1.06s-4.45-.56-5.85-1.54c-2.41-1.68-3.44-4.7-3.44-8.43v-.22Z"/>
        <path class="cls-8" d="m976.27,86h-2.46v-3.14h2.46v3.14Zm-.03,16.88h-2.41v-14.34h2.41v14.34Z"/>
        <path class="cls-8" d="m982.71,96.19c.06,1.96.62,3.22,1.71,4,.92.64,2.18.95,3.92.95,1.62,0,3.19-.31,4.26-.7l.36,1.82c-1.04.48-2.91.9-4.84.9-5.01,0-7.81-1.9-7.81-7.56v-.22c0-4.56,2.27-7.11,6.86-7.11s6.36,2.38,6.36,6.33v1.6h-10.81Zm9.07-9.63h-2.13l-2.6-2.18-2.6,2.18h-2.13l3.39-3.92h2.69l3.39,3.92Zm-9.04,7.7h8.43v-.25c0-1.51-.42-2.55-1.34-3.14-.67-.42-1.51-.64-2.66-.64-1.2,0-2.04.22-2.74.64-1.04.67-1.54,1.79-1.68,3.39Z"/>
        <path class="cls-8" d="m1009.76,102.88h-2.41v-8.68c0-2.86-.76-3.81-3.61-3.81-3.11,0-3.89,1.51-3.89,4.09v8.4h-2.41v-14.34h2.13l.22,1.96h.08c.56-1.18,1.82-2.24,4.56-2.24,4.17,0,5.32,1.93,5.32,5.77v8.85Z"/>
        <path class="cls-8" d="m1016.08,95.94c0,2.18.5,3.61,1.76,4.4.76.48,1.82.7,3.19.7,1.23,0,2.69-.22,3.7-.5l.36,1.9c-1.01.36-2.6.73-4.45.73-1.37,0-2.55-.22-3.5-.62-2.44-1.04-3.53-3.36-3.53-6.72v-.22c0-3.33,1.06-5.68,3.5-6.72.95-.42,2.13-.62,3.5-.62,1.82,0,3.42.34,4.42.7l-.36,1.9c-1.01-.28-2.46-.48-3.67-.48-1.4,0-2.44.22-3.19.7-1.26.78-1.74,2.21-1.74,4.4v.45Z"/>
        <path class="cls-8" d="m1031.18,86h-2.46v-3.14h2.46v3.14Zm-.03,16.88h-2.41v-14.34h2.41v14.34Z"/>
        <path class="cls-8" d="m1047.22,102.88h-2.1l-.17-1.85h-.08c-.73.95-2.07,2.07-4.96,2.07-3.22,0-4.84-1.34-4.84-4.26,0-2.74,1.46-4.09,4.96-4.09h4.84v-1.23c0-2.38-.81-3.25-3.7-3.25-1.65,0-3.58.28-4.68.56l-.34-1.79c1.06-.39,3.02-.78,5.24-.78,4.34,0,5.82,1.51,5.82,5.12v9.49Zm-2.32-6.22h-4.7c-2.18,0-2.8.59-2.8,2.21,0,1.76.78,2.32,2.83,2.32,2.58,0,4.68-1.26,4.68-3.47v-1.06Z"/>
        <path class="cls-8" d="m1050.86,102.46l.36-1.85c1.34.42,3,.62,4.59.62,2.77,0,3.53-.48,3.53-2.16s-.78-1.85-2.3-2.18l-2.13-.48c-2.32-.53-4.09-1.18-4.09-4.12s1.57-4.03,5.46-4.03c1.99,0,3.81.31,4.76.62l-.36,1.85c-1.04-.31-2.44-.53-4.23-.53-2.52,0-3.28.42-3.28,2.02,0,1.68.9,1.88,2.52,2.24l2.13.48c2.49.56,3.86,1.29,3.86,4.06,0,3.05-1.57,4.17-5.68,4.17-2.18,0-4.03-.31-5.15-.7Z"/>
        <path class="cls-8" d="m1075.19,101.2l-.08.03-.22,1.65h-2.1v-20.44h2.41v5.54c0,.73-.03,1.48-.08,2.18l.11.06c1.04-1.29,2.63-1.96,4.84-1.96,4.31,0,6.55,2.55,6.55,7.34v.22c0,4.79-2.24,7.34-6.55,7.34-2.24,0-3.84-.67-4.87-1.96Zm7.36-.78c1.15-.81,1.6-2.32,1.6-4.48v-.45c0-2.16-.45-3.67-1.6-4.48-.7-.48-1.62-.73-2.88-.73s-2.18.25-2.88.73c-1.15.81-1.6,2.32-1.6,4.48v.45c0,2.16.45,3.67,1.6,4.48.7.48,1.62.73,2.88.73s2.18-.25,2.88-.73Z"/>
        <path class="cls-8" d="m1093.11,86h-2.46v-3.14h2.46v3.14Zm-.03,16.88h-2.41v-14.34h2.41v14.34Z"/>
        <path class="cls-8" d="m1111.03,95.83c0,4.79-2.21,7.34-6.94,7.34s-6.94-2.55-6.94-7.34v-.22c0-4.79,2.21-7.34,6.94-7.34s6.94,2.55,6.94,7.34v.22Zm-2.46-.34c0-2.16-.45-3.67-1.6-4.48-.7-.48-1.62-.73-2.88-.73s-2.18.25-2.88.73c-1.15.81-1.6,2.32-1.6,4.48v.45c0,2.16.45,3.67,1.6,4.48.7.48,1.62.73,2.88.73s2.18-.25,2.88-.73c1.15-.81,1.6-2.32,1.6-4.48v-.45Z"/>
        <path class="cls-8" d="m1117.5,99.3c0,1.34.36,1.62,1.6,1.62.39,0,.84-.03,1.04-.06v1.96c-.31.08-.92.17-1.62.17-2.55,0-3.42-.92-3.42-3.22v-17.33h2.41v16.86Z"/>
        <path class="cls-8" d="m1136.15,95.83c0,4.79-2.21,7.34-6.94,7.34s-6.94-2.55-6.94-7.34v-.22c0-4.79,2.21-7.34,6.94-7.34s6.94,2.55,6.94,7.34v.22Zm-2.46-.34c0-2.16-.45-3.67-1.6-4.48-.7-.48-1.62-.73-2.88-.73s-2.18.25-2.88.73c-1.15.81-1.6,2.32-1.6,4.48v.45c0,2.16.45,3.67,1.6,4.48.7.48,1.62.73,2.88.73s2.18-.25,2.88-.73c1.15-.81,1.6-2.32,1.6-4.48v-.45Zm-5.32-8.9l1.93-4.12h3.11v.06l-3.16,4.06h-1.88Z"/>
        <path class="cls-8" d="m1150.59,90.11l.08-.03.2-1.54h2.16v13.97c0,4-2.18,5.85-6.92,5.85-2.07,0-4.14-.31-5.49-.78l.36-1.93c1.18.34,3.05.7,4.9.7,3.64,0,4.76-1.26,4.76-3.89v-1.01l.06-.98h-.08c-1.04,1.23-2.63,1.85-4.79,1.85-4.17,0-6.5-2.41-6.5-6.94v-.17c0-4.54,2.32-6.94,6.5-6.94,2.13,0,3.72.64,4.76,1.85Zm.06,4.98c0-1.88-.39-3.28-1.48-4.06-.67-.5-1.65-.76-2.94-.76s-2.27.25-2.97.78c-1.04.76-1.46,2.1-1.46,4.03v.39c0,1.93.45,3.28,1.46,4.03.7.53,1.68.78,2.97.78s2.27-.28,2.94-.78c1.09-.78,1.48-2.16,1.48-4.03v-.39Z"/>
        <path class="cls-8" d="m1160.31,86h-2.46v-3.14h2.46v3.14Zm-.03,16.88h-2.41v-14.34h2.41v14.34Z"/>
        <path class="cls-8" d="m1166.81,95.94c0,2.18.5,3.61,1.76,4.4.76.48,1.82.7,3.19.7,1.23,0,2.69-.22,3.7-.5l.36,1.9c-1.01.36-2.6.73-4.45.73-1.37,0-2.55-.22-3.5-.62-2.44-1.04-3.53-3.36-3.53-6.72v-.22c0-3.33,1.06-5.68,3.5-6.72.95-.42,2.13-.62,3.5-.62,1.82,0,3.42.34,4.42.7l-.36,1.9c-1.01-.28-2.46-.48-3.67-.48-1.4,0-2.44.22-3.19.7-1.26.78-1.74,2.21-1.74,4.4v.45Z"/>
        <path class="cls-8" d="m1190.44,102.88h-2.1l-.17-1.85h-.08c-.73.95-2.07,2.07-4.96,2.07-3.22,0-4.84-1.34-4.84-4.26,0-2.74,1.46-4.09,4.96-4.09h4.84v-1.23c0-2.38-.81-3.25-3.7-3.25-1.65,0-3.58.28-4.68.56l-.34-1.79c1.06-.39,3.02-.78,5.24-.78,4.34,0,5.82,1.51,5.82,5.12v9.49Zm-2.32-6.22h-4.7c-2.18,0-2.8.59-2.8,2.21,0,1.76.78,2.32,2.83,2.32,2.58,0,4.68-1.26,4.68-3.47v-1.06Z"/>
        <path class="cls-8" d="m1194.08,102.46l.36-1.85c1.34.42,3,.62,4.59.62,2.77,0,3.53-.48,3.53-2.16s-.78-1.85-2.3-2.18l-2.13-.48c-2.32-.53-4.09-1.18-4.09-4.12s1.57-4.03,5.46-4.03c1.99,0,3.81.31,4.76.62l-.36,1.85c-1.04-.31-2.44-.53-4.23-.53-2.52,0-3.28.42-3.28,2.02,0,1.68.9,1.88,2.52,2.24l2.13.48c2.49.56,3.86,1.29,3.86,4.06,0,3.05-1.57,4.17-5.68,4.17-2.18,0-4.03-.31-5.15-.7Z"/>
        <path class="cls-8" d="m1208.78,105.35l.92-2.46h-1.04v-2.69h2.63v2.52l-1.32,2.63h-1.2Z"/>
        <path class="cls-8" d="m957,128.19c.06,1.96.62,3.22,1.71,4,.92.64,2.18.95,3.92.95,1.62,0,3.19-.31,4.26-.7l.36,1.82c-1.04.48-2.91.9-4.84.9-5.01,0-7.81-1.9-7.81-7.56v-.22c0-4.56,2.27-7.11,6.86-7.11s6.36,2.38,6.36,6.33v1.6h-10.81Zm.03-1.93h8.43v-.25c0-1.51-.42-2.55-1.34-3.14-.67-.42-1.51-.64-2.66-.64-1.2,0-2.04.22-2.74.64-1.04.67-1.54,1.79-1.68,3.39Z"/>
        <path class="cls-8" d="m977.44,130.82c-.42-.56-.81-1.06-1.15-1.62h-.08c-.34.59-.64,1.06-1.06,1.62l-2.94,4.06h-2.63l5.29-7.14-5.18-7.2h2.72l2.77,3.92c.42.59.78,1.06,1.12,1.62h.08c.34-.59.64-1.06,1.06-1.62l2.83-3.92h2.63l-5.15,7.06,5.38,7.28h-2.72l-2.97-4.06Z"/>
        <path class="cls-8" d="m996.79,134.88h-2.1l-.17-1.85h-.08c-.73.95-2.07,2.07-4.96,2.07-3.22,0-4.84-1.34-4.84-4.26,0-2.74,1.46-4.09,4.96-4.09h4.84v-1.23c0-2.38-.81-3.25-3.7-3.25-1.65,0-3.58.28-4.68.56l-.34-1.79c1.06-.39,3.02-.78,5.24-.78,4.34,0,5.82,1.51,5.82,5.12v9.49Zm-2.32-6.22h-4.7c-2.18,0-2.8.59-2.8,2.21,0,1.76.78,2.32,2.83,2.32,2.58,0,4.68-1.26,4.68-3.47v-1.06Z"/>
        <path class="cls-8" d="m1002.25,130.82v-8.4h-2.58v-1.88h2.66l.11-4.23h2.16v4.23h4.54v1.88h-4.51v8.06c0,2.04.56,2.6,2.69,2.6.62,0,1.43-.06,1.88-.14v1.82c-.48.14-1.37.28-2.18.28-3.47,0-4.76-1.15-4.76-4.23Z"/>
        <path class="cls-8" d="m1023.81,134.88h-2.1l-.17-1.85h-.08c-.73.95-2.07,2.07-4.96,2.07-3.22,0-4.84-1.34-4.84-4.26,0-2.74,1.46-4.09,4.96-4.09h4.84v-1.23c0-2.38-.81-3.25-3.7-3.25-1.65,0-3.58.28-4.68.56l-.34-1.79c1.06-.39,3.02-.78,5.24-.78,4.34,0,5.82,1.51,5.82,5.12v9.49Zm-2.32-6.22h-4.7c-2.18,0-2.8.59-2.8,2.21,0,1.76.78,2.32,2.83,2.32,2.58,0,4.68-1.26,4.68-3.47v-1.06Z"/>
        <path class="cls-8" d="m1027.45,134.46l.36-1.85c1.34.42,3,.62,4.59.62,2.77,0,3.53-.48,3.53-2.16s-.78-1.85-2.3-2.18l-2.13-.48c-2.32-.53-4.09-1.18-4.09-4.12s1.57-4.03,5.46-4.03c1.99,0,3.81.31,4.76.62l-.36,1.85c-1.04-.31-2.44-.53-4.23-.53-2.52,0-3.28.42-3.28,2.02,0,1.68.9,1.88,2.52,2.24l2.13.48c2.49.56,3.86,1.29,3.86,4.06,0,3.05-1.57,4.17-5.68,4.17-2.18,0-4.03-.31-5.15-.7Z"/>
        <path class="cls-8" d="m1050.97,128.19c.06,1.96.62,3.22,1.71,4,.92.64,2.18.95,3.92.95,1.62,0,3.19-.31,4.26-.7l.36,1.82c-1.04.48-2.91.9-4.84.9-5.01,0-7.81-1.9-7.81-7.56v-.22c0-4.56,2.27-7.11,6.86-7.11s6.36,2.38,6.36,6.33v1.6h-10.81Zm.03-1.93h8.43v-.25c0-1.51-.42-2.55-1.34-3.14-.67-.42-1.51-.64-2.66-.64-1.2,0-2.04.22-2.74.64-1.04.67-1.54,1.79-1.68,3.39Z"/>
        <path class="cls-8" d="m1072.2,127.83v-.22c0-4.79,2.24-7.34,6.55-7.34,2.21,0,3.81.67,4.84,1.96l.11-.06c-.06-.7-.08-1.46-.08-2.18v-5.54h2.41v20.44h-2.1l-.22-1.65-.11-.03c-1.04,1.29-2.63,1.96-4.84,1.96-4.31,0-6.55-2.55-6.55-7.34Zm9.83,4.59c1.15-.81,1.6-2.32,1.6-4.48v-.45c0-2.16-.45-3.67-1.6-4.48-.7-.48-1.62-.73-2.88-.73s-2.18.25-2.88.73c-1.15.81-1.6,2.32-1.6,4.48v.45c0,2.16.45,3.67,1.6,4.48.7.48,1.62.73,2.88.73s2.18-.25,2.88-.73Z"/>
        <path class="cls-8" d="m1102.04,134.88h-2.1l-.17-1.85h-.08c-.73.95-2.07,2.07-4.96,2.07-3.22,0-4.84-1.34-4.84-4.26,0-2.74,1.46-4.09,4.96-4.09h4.84v-1.23c0-2.38-.81-3.25-3.7-3.25-1.65,0-3.58.28-4.68.56l-.34-1.79c1.06-.39,3.02-.78,5.24-.78,4.34,0,5.82,1.51,5.82,5.12v9.49Zm-2.32-6.22h-4.7c-2.18,0-2.8.59-2.8,2.21,0,1.76.78,2.32,2.83,2.32,2.58,0,4.68-1.26,4.68-3.47v-1.06Z"/>
        <path class="cls-8" d="m1114.9,130.82v-8.4h-2.58v-1.88h2.66l.11-4.23h2.16v4.23h4.54v1.88h-4.51v8.06c0,2.04.56,2.6,2.69,2.6.62,0,1.43-.06,1.88-.14v1.82c-.48.14-1.37.28-2.18.28-3.47,0-4.76-1.15-4.76-4.23Z"/>
        <path class="cls-8" d="m1126.63,128.19c.06,1.96.62,3.22,1.71,4,.92.64,2.18.95,3.92.95,1.62,0,3.19-.31,4.26-.7l.36,1.82c-1.04.48-2.91.9-4.84.9-5.01,0-7.81-1.9-7.81-7.56v-.22c0-4.56,2.27-7.11,6.86-7.11s6.36,2.38,6.36,6.33v1.6h-10.81Zm.03-1.93h8.43v-.25c0-1.51-.42-2.55-1.34-3.14-.67-.42-1.51-.64-2.66-.64-1.2,0-2.04.22-2.74.64-1.04.67-1.54,1.79-1.68,3.39Z"/>
        <path class="cls-8" d="m1149.25,122.79c-.31-.03-.92-.06-1.32-.06-3.39,0-4.17,1.54-4.17,3.78v8.37h-2.41v-14.34h2.13l.22,2.24h.08c.67-1.34,1.74-2.35,4.12-2.35.53,0,1.04.06,1.34.11v2.24Z"/>
        <path class="cls-8" d="m1160.51,122.79c-.31-.03-.92-.06-1.32-.06-3.39,0-4.17,1.54-4.17,3.78v8.37h-2.41v-14.34h2.13l.22,2.24h.08c.67-1.34,1.74-2.35,4.12-2.35.53,0,1.04.06,1.34.11v2.24Z"/>
        <path class="cls-8" d="m1174.4,134.88h-2.1l-.17-1.85h-.08c-.73.95-2.07,2.07-4.96,2.07-3.22,0-4.84-1.34-4.84-4.26,0-2.74,1.46-4.09,4.96-4.09h4.84v-1.23c0-2.38-.81-3.25-3.7-3.25-1.65,0-3.58.28-4.68.56l-.34-1.79c1.06-.39,3.02-.78,5.24-.78,4.34,0,5.82,1.51,5.82,5.12v9.49Zm-2.32-6.22h-4.7c-2.18,0-2.8.59-2.8,2.21,0,1.76.78,2.32,2.83,2.32,2.58,0,4.68-1.26,4.68-3.47v-1.06Z"/>
        <path class="cls-8" d="m957,160.19c.06,1.96.62,3.22,1.71,4,.92.64,2.18.95,3.92.95,1.62,0,3.19-.31,4.26-.7l.36,1.82c-1.04.48-2.91.9-4.84.9-5.01,0-7.81-1.9-7.81-7.56v-.22c0-4.56,2.27-7.11,6.86-7.11s6.36,2.38,6.36,6.33v1.6h-10.81Zm.03-1.93h8.43v-.25c0-1.51-.42-2.55-1.34-3.14-.67-.42-1.51-.64-2.66-.64-1.2,0-2.04.22-2.74.64-1.04.67-1.54,1.79-1.68,3.39Z"/>
        <path class="cls-8" d="m990.24,166.88h-2.1l-.17-1.85h-.08c-.73.95-2.07,2.07-4.96,2.07-3.22,0-4.84-1.34-4.84-4.26,0-2.74,1.46-4.09,4.96-4.09h4.84v-1.23c0-2.38-.81-3.25-3.7-3.25-1.65,0-3.58.28-4.68.56l-.34-1.79c1.06-.39,3.02-.78,5.24-.78,4.34,0,5.82,1.51,5.82,5.12v9.49Zm-2.32-6.22h-4.7c-2.18,0-2.8.59-2.8,2.21,0,1.76.78,2.32,2.83,2.32,2.58,0,4.68-1.26,4.68-3.47v-1.06Zm-4.12-10.08l-3.16-4.06v-.06h3.11l1.93,4.12h-1.88Z"/>
        <path class="cls-8" d="m1002.78,154.79c-.31-.03-.92-.06-1.32-.06-3.39,0-4.17,1.54-4.17,3.78v8.37h-2.41v-14.34h2.13l.22,2.24h.08c.67-1.34,1.74-2.35,4.12-2.35.53,0,1.04.06,1.34.11v2.24Z"/>
        <path class="cls-8" d="m1007.49,160.19c.06,1.96.62,3.22,1.71,4,.92.64,2.18.95,3.92.95,1.62,0,3.19-.31,4.26-.7l.36,1.82c-1.04.48-2.91.9-4.84.9-5.01,0-7.81-1.9-7.81-7.56v-.22c0-4.56,2.27-7.11,6.86-7.11s6.36,2.38,6.36,6.33v1.6h-10.81Zm.03-1.93h8.43v-.25c0-1.51-.42-2.55-1.34-3.14-.67-.42-1.51-.64-2.66-.64-1.2,0-2.04.22-2.74.64-1.04.67-1.54,1.79-1.68,3.39Z"/>
        <path class="cls-8" d="m1033.16,166.88h-2.1l-.17-1.85h-.08c-.73.95-2.07,2.07-4.96,2.07-3.22,0-4.84-1.34-4.84-4.26,0-2.74,1.46-4.09,4.96-4.09h4.84v-1.23c0-2.38-.81-3.25-3.7-3.25-1.65,0-3.58.28-4.68.56l-.34-1.79c1.06-.39,3.02-.78,5.24-.78,4.34,0,5.82,1.51,5.82,5.12v9.49Zm-2.32-6.22h-4.7c-2.18,0-2.8.59-2.8,2.21,0,1.76.78,2.32,2.83,2.32,2.58,0,4.68-1.26,4.68-3.47v-1.06Z"/>
        <path class="cls-8" d="m1036.8,166.46l.36-1.85c1.34.42,3,.62,4.59.62,2.77,0,3.53-.48,3.53-2.16s-.78-1.85-2.3-2.18l-2.13-.48c-2.32-.53-4.09-1.18-4.09-4.12s1.57-4.03,5.46-4.03c1.99,0,3.81.31,4.76.62l-.36,1.85c-1.04-.31-2.44-.53-4.23-.53-2.52,0-3.28.42-3.28,2.02,0,1.68.9,1.88,2.52,2.24l2.13.48c2.49.56,3.86,1.29,3.86,4.06,0,3.05-1.57,4.17-5.68,4.17-2.18,0-4.03-.31-5.15-.7Z"/>
        <path class="cls-8" d="m1069.93,166.88h-2.1l-.17-1.85h-.08c-.73.95-2.07,2.07-4.96,2.07-3.22,0-4.84-1.34-4.84-4.26,0-2.74,1.46-4.09,4.96-4.09h4.84v-1.23c0-2.38-.81-3.25-3.7-3.25-1.65,0-3.58.28-4.68.56l-.34-1.79c1.06-.39,3.02-.78,5.24-.78,4.34,0,5.82,1.51,5.82,5.12v9.49Zm-2.32-6.22h-4.7c-2.18,0-2.8.59-2.8,2.21,0,1.76.78,2.32,2.83,2.32,2.58,0,4.68-1.26,4.68-3.47v-1.06Z"/>
        <path class="cls-8" d="m1087.43,166.88h-2.41v-12.46h-7.2v12.46h-2.38v-12.46h-2.63v-1.88h2.63v-1.76c0-3.33,1.4-4.51,4.51-4.51.73,0,1.43.08,1.85.17v1.79c-.42-.03-.95-.06-1.43-.06-2.02,0-2.6.64-2.6,2.63v1.74h9.66v14.34Zm.03-16.88h-2.46v-3.14h2.46v3.14Z"/>
        <path class="cls-8" d="m1104.59,166.88h-2.41v-8.68c0-2.86-.76-3.81-3.61-3.81-3.11,0-3.89,1.51-3.89,4.09v8.4h-2.41v-14.34h2.13l.22,1.96h.08c.56-1.18,1.82-2.24,4.56-2.24,4.17,0,5.32,1.93,5.32,5.77v8.85Z"/>
        <path class="cls-8" d="m1108.23,166.46l.36-1.85c1.34.42,3,.62,4.59.62,2.77,0,3.53-.48,3.53-2.16s-.78-1.85-2.3-2.18l-2.13-.48c-2.32-.53-4.09-1.18-4.09-4.12s1.57-4.03,5.46-4.03c1.99,0,3.81.31,4.76.62l-.36,1.85c-1.04-.31-2.44-.53-4.23-.53-2.52,0-3.28.42-3.28,2.02,0,1.68.9,1.88,2.52,2.24l2.13.48c2.49.56,3.86,1.29,3.86,4.06,0,3.05-1.57,4.17-5.68,4.17-2.18,0-4.03-.31-5.15-.7Z"/>
      </g>
      <g>
        <path class="cls-7" d="m949.94,575.88h-3.78l-2.04-5.37h-8.91l-2.04,5.37h-3.6l8.34-21h3.72l8.31,21Zm-13.59-8.34h6.63l-1.86-4.95c-.54-1.38-.99-2.82-1.38-4.26h-.12c-.39,1.44-.84,2.85-1.35,4.23l-1.92,4.98Z"/>
        <path class="cls-7" d="m970.79,575.88h-4.35l-7.59-12.42c-.84-1.47-1.56-2.76-2.28-4.32h-.09c.15,1.77.21,3.39.21,5.13v11.61h-3.6v-21h4.35l7.59,12.42c.84,1.47,1.56,2.76,2.25,4.32h.09c-.15-1.77-.15-3.39-.15-5.13v-11.61h3.57v21Z"/>
        <path class="cls-7" d="m995.48,565.23v.3c0,7.14-3.51,10.65-10.17,10.65s-10.17-3.51-10.17-10.65v-.3c0-7.14,3.48-10.65,10.17-10.65s10.17,3.51,10.17,10.65Zm-6.33,7.02c1.86-1.2,2.58-3.48,2.58-6.6v-.54c0-3.12-.72-5.4-2.58-6.6-.96-.6-2.22-.93-3.84-.93s-2.88.33-3.84.93c-1.86,1.2-2.58,3.48-2.58,6.6v.54c0,3.12.72,5.4,2.58,6.6.96.6,2.22.93,3.84.93s2.88-.33,3.84-.93Z"/>
        <path class="cls-7" d="m1007,554.88h3.66v21h-3.66v-21Z"/>
        <path class="cls-7" d="m1016.06,554.88h3.66v21h-3.66v-21Z"/>
        <path class="cls-7" d="m1025.12,554.88h3.66v21h-3.66v-21Z"/>
        <path class="cls-8" d="m930.85,597.97c0-3.81,1.04-6.75,3.42-8.43,1.4-.98,3.28-1.54,5.77-1.54s4.45.48,5.77,1.06l-.48,1.99c-1.43-.5-3.11-.81-4.98-.81-2.02,0-3.39.39-4.42,1.12-1.74,1.23-2.46,3.44-2.46,6.5v.45c0,3.05.76,5.26,2.49,6.5,1.04.73,2.44,1.12,4.51,1.12,1.9,0,3.56-.31,4.98-.81l.48,1.99c-1.37.62-3.3,1.06-5.77,1.06s-4.45-.56-5.85-1.54c-2.41-1.68-3.44-4.7-3.44-8.43v-.22Z"/>
        <path class="cls-8" d="m952.27,591h-2.46v-3.14h2.46v3.14Zm-.03,16.88h-2.41v-14.34h2.41v14.34Z"/>
        <path class="cls-8" d="m958.71,601.19c.06,1.96.62,3.22,1.71,4,.92.64,2.18.95,3.92.95,1.62,0,3.19-.31,4.26-.7l.36,1.82c-1.04.48-2.91.9-4.84.9-5.01,0-7.81-1.9-7.81-7.56v-.22c0-4.56,2.27-7.11,6.86-7.11s6.36,2.38,6.36,6.33v1.6h-10.81Zm9.07-9.63h-2.13l-2.6-2.18-2.6,2.18h-2.13l3.39-3.92h2.69l3.39,3.92Zm-9.04,7.7h8.43v-.25c0-1.51-.42-2.55-1.34-3.14-.67-.42-1.51-.64-2.66-.64-1.2,0-2.04.22-2.74.64-1.04.67-1.54,1.79-1.68,3.39Z"/>
        <path class="cls-8" d="m985.76,607.88h-2.41v-8.68c0-2.86-.76-3.81-3.61-3.81-3.11,0-3.89,1.51-3.89,4.09v8.4h-2.41v-14.34h2.13l.22,1.96h.08c.56-1.18,1.82-2.24,4.56-2.24,4.17,0,5.32,1.93,5.32,5.77v8.85Z"/>
        <path class="cls-8" d="m992.08,600.94c0,2.18.5,3.61,1.76,4.4.76.48,1.82.7,3.19.7,1.23,0,2.69-.22,3.7-.5l.36,1.9c-1.01.36-2.6.73-4.45.73-1.37,0-2.55-.22-3.5-.62-2.44-1.04-3.53-3.36-3.53-6.72v-.22c0-3.33,1.06-5.68,3.5-6.72.95-.42,2.13-.62,3.5-.62,1.82,0,3.42.34,4.42.7l-.36,1.9c-1.01-.28-2.46-.48-3.67-.48-1.4,0-2.44.22-3.19.7-1.26.78-1.74,2.21-1.74,4.4v.45Z"/>
        <path class="cls-8" d="m1007.18,591h-2.46v-3.14h2.46v3.14Zm-.03,16.88h-2.41v-14.34h2.41v14.34Z"/>
        <path class="cls-8" d="m1023.22,607.88h-2.1l-.17-1.85h-.08c-.73.95-2.07,2.07-4.96,2.07-3.22,0-4.84-1.34-4.84-4.26,0-2.74,1.46-4.09,4.96-4.09h4.84v-1.23c0-2.38-.81-3.25-3.7-3.25-1.65,0-3.58.28-4.68.56l-.34-1.79c1.06-.39,3.02-.78,5.24-.78,4.34,0,5.82,1.51,5.82,5.12v9.49Zm-2.32-6.22h-4.7c-2.18,0-2.8.59-2.8,2.21,0,1.76.78,2.32,2.83,2.32,2.58,0,4.68-1.26,4.68-3.47v-1.06Z"/>
        <path class="cls-8" d="m1026.86,607.46l.36-1.85c1.34.42,3,.62,4.59.62,2.77,0,3.53-.48,3.53-2.16s-.78-1.85-2.3-2.18l-2.13-.48c-2.32-.53-4.09-1.18-4.09-4.12s1.57-4.03,5.46-4.03c1.99,0,3.81.31,4.76.62l-.36,1.85c-1.04-.31-2.44-.53-4.23-.53-2.52,0-3.28.42-3.28,2.02,0,1.68.9,1.88,2.52,2.24l2.13.48c2.49.56,3.86,1.29,3.86,4.06,0,3.05-1.57,4.17-5.68,4.17-2.18,0-4.03-.31-5.15-.7Z"/>
        <path class="cls-8" d="m1047.75,607.46l.36-1.85c1.34.42,3,.62,4.59.62,2.77,0,3.53-.48,3.53-2.16s-.78-1.85-2.3-2.18l-2.13-.48c-2.32-.53-4.09-1.18-4.09-4.12s1.57-4.03,5.46-4.03c1.99,0,3.81.31,4.76.62l-.36,1.85c-1.04-.31-2.44-.53-4.23-.53-2.52,0-3.28.42-3.28,2.02,0,1.68.9,1.88,2.52,2.24l2.13.48c2.49.56,3.86,1.29,3.86,4.06,0,3.05-1.57,4.17-5.68,4.17-2.18,0-4.03-.31-5.15-.7Z"/>
        <path class="cls-8" d="m1075.33,600.83c0,4.79-2.21,7.34-6.94,7.34s-6.94-2.55-6.94-7.34v-.22c0-4.79,2.21-7.34,6.94-7.34s6.94,2.55,6.94,7.34v.22Zm-2.46-.34c0-2.16-.45-3.67-1.6-4.48-.7-.48-1.62-.73-2.88-.73s-2.18.25-2.88.73c-1.15.81-1.6,2.32-1.6,4.48v.45c0,2.16.45,3.67,1.6,4.48.7.48,1.62.73,2.88.73s2.18-.25,2.88-.73c1.15-.81,1.6-2.32,1.6-4.48v-.45Z"/>
        <path class="cls-8" d="m1080.98,600.94c0,2.18.5,3.61,1.76,4.4.76.48,1.82.7,3.19.7,1.23,0,2.69-.22,3.7-.5l.36,1.9c-1.01.36-2.6.73-4.45.73-1.37,0-2.55-.22-3.5-.62-2.44-1.04-3.53-3.36-3.53-6.72v-.22c0-3.33,1.06-5.68,3.5-6.72.95-.42,2.13-.62,3.5-.62,1.82,0,3.42.34,4.42.7l-.36,1.9c-1.01-.28-2.46-.48-3.67-.48-1.4,0-2.44.22-3.19.7-1.26.78-1.74,2.21-1.74,4.4v.45Z"/>
        <path class="cls-8" d="m1096.08,591h-2.46v-3.14h2.46v3.14Zm-.03,16.88h-2.41v-14.34h2.41v14.34Z"/>
        <path class="cls-8" d="m1112.12,607.88h-2.1l-.17-1.85h-.08c-.73.95-2.07,2.07-4.96,2.07-3.22,0-4.84-1.34-4.84-4.26,0-2.74,1.46-4.09,4.96-4.09h4.84v-1.23c0-2.38-.81-3.25-3.7-3.25-1.65,0-3.58.28-4.68.56l-.34-1.79c1.06-.39,3.02-.78,5.24-.78,4.34,0,5.82,1.51,5.82,5.12v9.49Zm-2.32-6.22h-4.7c-2.18,0-2.8.59-2.8,2.21,0,1.76.78,2.32,2.83,2.32,2.58,0,4.68-1.26,4.68-3.47v-1.06Z"/>
        <path class="cls-8" d="m1119.29,591h-2.46v-3.14h2.46v3.14Zm-.03,16.88h-2.41v-14.34h2.41v14.34Z"/>
        <path class="cls-8" d="m1123.09,607.46l.36-1.85c1.34.42,3,.62,4.59.62,2.77,0,3.53-.48,3.53-2.16s-.78-1.85-2.3-2.18l-2.13-.48c-2.32-.53-4.09-1.18-4.09-4.12s1.57-4.03,5.46-4.03c1.99,0,3.81.31,4.76.62l-.36,1.85c-1.04-.31-2.44-.53-4.23-.53-2.52,0-3.28.42-3.28,2.02,0,1.68.9,1.88,2.52,2.24l2.13.48c2.49.56,3.86,1.29,3.86,4.06,0,3.05-1.57,4.17-5.68,4.17-2.18,0-4.03-.31-5.15-.7Z"/>
        <path class="cls-8" d="m942.61,639.88h-2.1l-.17-1.85h-.08c-.73.95-2.07,2.07-4.96,2.07-3.22,0-4.84-1.34-4.84-4.26,0-2.74,1.46-4.09,4.96-4.09h4.84v-1.23c0-2.38-.81-3.25-3.7-3.25-1.65,0-3.58.28-4.68.56l-.34-1.79c1.06-.39,3.02-.78,5.24-.78,4.34,0,5.82,1.51,5.82,5.12v9.49Zm-2.32-6.22h-4.7c-2.18,0-2.8.59-2.8,2.21,0,1.76.78,2.32,2.83,2.32,2.58,0,4.68-1.26,4.68-3.47v-1.06Z"/>
        <path class="cls-8" d="m949.69,638.23l-.11.03c.06.7.08,1.46.08,2.18v4.7h-2.41v-19.6h2.1l.22,1.65.08.03c1.04-1.29,2.63-1.96,4.87-1.96,4.31,0,6.55,2.55,6.55,7.34v.22c0,4.79-2.24,7.34-6.55,7.34-2.21,0-3.81-.64-4.84-1.93Zm7.34-.81c1.15-.81,1.6-2.32,1.6-4.48v-.45c0-2.16-.45-3.67-1.6-4.48-.7-.48-1.62-.73-2.88-.73s-2.18.25-2.88.73c-1.15.81-1.6,2.32-1.6,4.48v.45c0,2.16.45,3.67,1.6,4.48.7.48,1.62.73,2.88.73s2.18-.25,2.88-.73Z"/>
        <path class="cls-8" d="m967.56,636.3c0,1.34.36,1.62,1.6,1.62.39,0,.84-.03,1.04-.06v1.96c-.31.08-.92.17-1.62.17-2.55,0-3.42-.92-3.42-3.22v-17.33h2.41v16.86Z"/>
        <path class="cls-8" d="m975.76,623h-2.46v-3.14h2.46v3.14Zm-.03,16.88h-2.41v-14.34h2.41v14.34Z"/>
        <path class="cls-8" d="m982.25,632.94c0,2.18.5,3.61,1.76,4.4.76.48,1.82.7,3.19.7,1.23,0,2.69-.22,3.7-.5l.36,1.9c-1.01.36-2.6.73-4.45.73-1.37,0-2.55-.22-3.5-.62-2.44-1.04-3.53-3.36-3.53-6.72v-.22c0-3.33,1.06-5.68,3.5-6.72.95-.42,2.13-.62,3.5-.62,1.82,0,3.42.34,4.42.7l-.36,1.9c-1.01-.28-2.46-.48-3.67-.48-1.4,0-2.44.22-3.19.7-1.26.78-1.74,2.21-1.74,4.4v.45Z"/>
        <path class="cls-8" d="m1005.89,639.88h-2.1l-.17-1.85h-.08c-.73.95-2.07,2.07-4.96,2.07-3.22,0-4.84-1.34-4.84-4.26,0-2.74,1.46-4.09,4.96-4.09h4.84v-1.23c0-2.38-.81-3.25-3.7-3.25-1.65,0-3.58.28-4.68.56l-.34-1.79c1.06-.39,3.02-.78,5.24-.78,4.34,0,5.82,1.51,5.82,5.12v9.49Zm-2.32-6.22h-4.7c-2.18,0-2.8.59-2.8,2.21,0,1.76.78,2.32,2.83,2.32,2.58,0,4.68-1.26,4.68-3.47v-1.06Z"/>
        <path class="cls-8" d="m1009.75,632.83v-.22c0-4.79,2.24-7.34,6.55-7.34,2.21,0,3.81.67,4.84,1.96l.11-.06c-.06-.7-.08-1.46-.08-2.18v-5.54h2.41v20.44h-2.1l-.22-1.65-.11-.03c-1.04,1.29-2.63,1.96-4.84,1.96-4.31,0-6.55-2.55-6.55-7.34Zm9.83,4.59c1.15-.81,1.6-2.32,1.6-4.48v-.45c0-2.16-.45-3.67-1.6-4.48-.7-.48-1.62-.73-2.88-.73s-2.18.25-2.88.73c-1.15.81-1.6,2.32-1.6,4.48v.45c0,2.16.45,3.67,1.6,4.48.7.48,1.62.73,2.88.73s2.18-.25,2.88-.73Z"/>
        <path class="cls-8" d="m1039.6,639.88h-2.1l-.17-1.85h-.08c-.73.95-2.07,2.07-4.96,2.07-3.22,0-4.84-1.34-4.84-4.26,0-2.74,1.46-4.09,4.96-4.09h4.84v-1.23c0-2.38-.81-3.25-3.7-3.25-1.65,0-3.58.28-4.68.56l-.34-1.79c1.06-.39,3.02-.78,5.24-.78,4.34,0,5.82,1.51,5.82,5.12v9.49Zm-2.32-6.22h-4.7c-2.18,0-2.8.59-2.8,2.21,0,1.76.78,2.32,2.83,2.32,2.58,0,4.68-1.26,4.68-3.47v-1.06Z"/>
        <path class="cls-8" d="m1043.24,639.46l.36-1.85c1.34.42,3,.62,4.59.62,2.77,0,3.53-.48,3.53-2.16s-.78-1.85-2.3-2.18l-2.13-.48c-2.32-.53-4.09-1.18-4.09-4.12s1.57-4.03,5.46-4.03c1.99,0,3.81.31,4.76.62l-.36,1.85c-1.04-.31-2.44-.53-4.23-.53-2.52,0-3.28.42-3.28,2.02,0,1.68.9,1.88,2.52,2.24l2.13.48c2.49.56,3.86,1.29,3.86,4.06,0,3.05-1.57,4.17-5.68,4.17-2.18,0-4.03-.31-5.15-.7Z"/>
        <path class="cls-8" d="m1057.94,642.35l.92-2.46h-1.04v-2.69h2.63v2.52l-1.32,2.63h-1.2Z"/>
        <path class="cls-8" d="m1084.82,639.88h-2.41v-8.68c0-2.86-.76-3.81-3.61-3.81-3.11,0-3.89,1.51-3.89,4.09v8.4h-2.41v-20.44h2.41v5.68c0,.78-.03,1.62-.08,2.35l.08.03c.56-1.18,1.85-2.24,4.59-2.24,4.17,0,5.32,1.93,5.32,5.77v8.85Z"/>
        <path class="cls-8" d="m1089.33,625.55h2.41v8.57c0,2.94.78,3.92,3.53,3.92,3.11,0,3.81-1.76,3.81-4.2v-8.29h2.41v14.34h-2.16l-.2-1.85h-.08c-.59,1.06-1.79,2.13-4.06,2.13-4.12,0-5.66-1.65-5.66-5.88v-8.74Z"/>
        <path class="cls-8" d="m1127.58,639.88h-2.41v-8.74c0-2.8-.78-3.75-3.42-3.75-2.86,0-3.64,1.51-3.64,4.03v8.46h-2.41v-8.74c0-2.8-.78-3.75-3.42-3.75-2.86,0-3.64,1.51-3.64,4.03v8.46h-2.41v-14.34h2.13l.22,1.96h.08c.56-1.18,1.82-2.24,4.31-2.24s4.03.78,4.7,2.32h.08c.56-1.18,1.82-2.32,4.48-2.32,4.26,0,5.32,1.93,5.32,5.71v8.9Z"/>
        <path class="cls-8" d="m1143.45,639.88h-2.1l-.17-1.85h-.08c-.73.95-2.07,2.07-4.96,2.07-3.22,0-4.84-1.34-4.84-4.26,0-2.74,1.46-4.09,4.96-4.09h4.84v-1.23c0-2.38-.81-3.25-3.7-3.25-1.65,0-3.58.28-4.68.56l-.34-1.79c1.06-.39,3.02-.78,5.24-.78,4.34,0,5.82,1.51,5.82,5.12v9.49Zm-2.32-6.22h-4.7c-2.18,0-2.8.59-2.8,2.21,0,1.76.78,2.32,2.83,2.32,2.58,0,4.68-1.26,4.68-3.47v-1.06Z"/>
        <path class="cls-8" d="m1160.42,639.88h-2.41v-8.68c0-2.86-.76-3.81-3.61-3.81-3.11,0-3.89,1.51-3.89,4.09v8.4h-2.41v-14.34h2.13l.22,1.96h.08c.56-1.18,1.82-2.24,4.56-2.24,4.17,0,5.32,1.93,5.32,5.77v8.85Z"/>
        <path class="cls-8" d="m1176.29,639.88h-2.1l-.17-1.85h-.08c-.73.95-2.07,2.07-4.96,2.07-3.22,0-4.84-1.34-4.84-4.26,0-2.74,1.46-4.09,4.96-4.09h4.84v-1.23c0-2.38-.81-3.25-3.7-3.25-1.65,0-3.58.28-4.68.56l-.34-1.79c1.06-.39,3.02-.78,5.24-.78,4.34,0,5.82,1.51,5.82,5.12v9.49Zm-2.32-6.22h-4.7c-2.18,0-2.8.59-2.8,2.21,0,1.76.78,2.32,2.83,2.32,2.58,0,4.68-1.26,4.68-3.47v-1.06Z"/>
        <path class="cls-8" d="m1179.93,639.46l.36-1.85c1.34.42,3,.62,4.59.62,2.77,0,3.53-.48,3.53-2.16s-.78-1.85-2.3-2.18l-2.13-.48c-2.32-.53-4.09-1.18-4.09-4.12s1.57-4.03,5.46-4.03c1.99,0,3.81.31,4.76.62l-.36,1.85c-1.04-.31-2.44-.53-4.23-.53-2.52,0-3.28.42-3.28,2.02,0,1.68.9,1.88,2.52,2.24l2.13.48c2.49.56,3.86,1.29,3.86,4.06,0,3.05-1.57,4.17-5.68,4.17-2.18,0-4.03-.31-5.15-.7Z"/>
        <path class="cls-8" d="m1194.63,642.35l.92-2.46h-1.04v-2.69h2.63v2.52l-1.32,2.63h-1.2Z"/>
        <path class="cls-8" d="m933.82,670.23l-.11.03c.06.7.08,1.46.08,2.18v4.7h-2.41v-19.6h2.1l.22,1.65.08.03c1.04-1.29,2.63-1.96,4.87-1.96,4.31,0,6.55,2.55,6.55,7.34v.22c0,4.79-2.24,7.34-6.55,7.34-2.21,0-3.81-.64-4.84-1.93Zm7.34-.81c1.15-.81,1.6-2.32,1.6-4.48v-.45c0-2.16-.45-3.67-1.6-4.48-.7-.48-1.62-.73-2.88-.73s-2.18.25-2.88.73c-1.15.81-1.6,2.32-1.6,4.48v.45c0,2.16.45,3.67,1.6,4.48.7.48,1.62.73,2.88.73s2.18-.25,2.88-.73Z"/>
        <path class="cls-8" d="m948.07,671.46l.36-1.85c1.34.42,3,.62,4.59.62,2.77,0,3.53-.48,3.53-2.16s-.78-1.85-2.3-2.18l-2.13-.48c-2.32-.53-4.09-1.18-4.09-4.12s1.57-4.03,5.46-4.03c1.99,0,3.81.31,4.76.62l-.36,1.85c-1.04-.31-2.44-.53-4.23-.53-2.52,0-3.28.42-3.28,2.02,0,1.68.9,1.88,2.52,2.24l2.13.48c2.49.56,3.86,1.29,3.86,4.06,0,3.05-1.57,4.17-5.68,4.17-2.18,0-4.03-.31-5.15-.7Z"/>
        <path class="cls-8" d="m965.2,655h-2.46v-3.14h2.46v3.14Zm-.03,16.88h-2.41v-14.34h2.41v14.34Z"/>
        <path class="cls-8" d="m971.7,664.94c0,2.18.5,3.61,1.76,4.4.76.48,1.82.7,3.19.7,1.23,0,2.69-.22,3.7-.5l.36,1.9c-1.01.36-2.6.73-4.45.73-1.37,0-2.55-.22-3.5-.62-2.44-1.04-3.53-3.36-3.53-6.72v-.22c0-3.33,1.06-5.68,3.5-6.72.95-.42,2.13-.62,3.5-.62,1.82,0,3.42.34,4.42.7l-.36,1.9c-1.01-.28-2.46-.48-3.67-.48-1.4,0-2.44.22-3.19.7-1.26.78-1.74,2.21-1.74,4.4v.45Z"/>
        <path class="cls-8" d="m996.98,664.83c0,4.79-2.21,7.34-6.94,7.34s-6.94-2.55-6.94-7.34v-.22c0-4.79,2.21-7.34,6.94-7.34s6.94,2.55,6.94,7.34v.22Zm-2.46-.34c0-2.16-.45-3.67-1.6-4.48-.7-.48-1.62-.73-2.88-.73s-2.18.25-2.88.73c-1.15.81-1.6,2.32-1.6,4.48v.45c0,2.16.45,3.67,1.6,4.48.7.48,1.62.73,2.88.73s2.18-.25,2.88-.73c1.15-.81,1.6-2.32,1.6-4.48v-.45Z"/>
        <path class="cls-8" d="m1003.45,668.3c0,1.34.36,1.62,1.6,1.62.39,0,.84-.03,1.04-.06v1.96c-.31.08-.92.17-1.62.17-2.55,0-3.42-.92-3.42-3.22v-17.33h2.41v16.86Z"/>
        <path class="cls-8" d="m1022.1,664.83c0,4.79-2.21,7.34-6.94,7.34s-6.94-2.55-6.94-7.34v-.22c0-4.79,2.21-7.34,6.94-7.34s6.94,2.55,6.94,7.34v.22Zm-2.46-.34c0-2.16-.45-3.67-1.6-4.48-.7-.48-1.62-.73-2.88-.73s-2.18.25-2.88.73c-1.15.81-1.6,2.32-1.6,4.48v.45c0,2.16.45,3.67,1.6,4.48.7.48,1.62.73,2.88.73s2.18-.25,2.88-.73c1.15-.81,1.6-2.32,1.6-4.48v-.45Z"/>
        <path class="cls-8" d="m1036.55,659.11l.08-.03.2-1.54h2.16v13.97c0,4-2.18,5.85-6.92,5.85-2.07,0-4.14-.31-5.49-.78l.36-1.93c1.18.34,3.05.7,4.9.7,3.64,0,4.76-1.26,4.76-3.89v-1.01l.06-.98h-.08c-1.04,1.23-2.63,1.85-4.79,1.85-4.17,0-6.5-2.41-6.5-6.94v-.17c0-4.54,2.32-6.94,6.5-6.94,2.13,0,3.72.64,4.76,1.85Zm.06,4.98c0-1.88-.39-3.28-1.48-4.06-.67-.5-1.65-.76-2.94-.76s-2.27.25-2.97.78c-1.04.76-1.46,2.1-1.46,4.03v.39c0,1.93.45,3.28,1.46,4.03.7.53,1.68.78,2.97.78s2.27-.28,2.94-.78c1.09-.78,1.48-2.16,1.48-4.03v-.39Z"/>
        <path class="cls-8" d="m1046.26,655h-2.46v-3.14h2.46v3.14Zm-.03,16.88h-2.41v-14.34h2.41v14.34Z"/>
        <path class="cls-8" d="m1062.31,671.88h-2.1l-.17-1.85h-.08c-.73.95-2.07,2.07-4.96,2.07-3.22,0-4.84-1.34-4.84-4.26,0-2.74,1.46-4.09,4.96-4.09h4.84v-1.23c0-2.38-.81-3.25-3.7-3.25-1.65,0-3.58.28-4.68.56l-.34-1.79c1.06-.39,3.02-.78,5.24-.78,4.34,0,5.82,1.51,5.82,5.12v9.49Zm-2.32-6.22h-4.7c-2.18,0-2.8.59-2.8,2.21,0,1.76.78,2.32,2.83,2.32,2.58,0,4.68-1.26,4.68-3.47v-1.06Z"/>
        <path class="cls-8" d="m1075.86,665.19c.06,1.96.62,3.22,1.71,4,.92.64,2.18.95,3.92.95,1.62,0,3.19-.31,4.26-.7l.36,1.82c-1.04.48-2.91.9-4.84.9-5.01,0-7.81-1.9-7.81-7.56v-.22c0-4.56,2.27-7.11,6.86-7.11s6.36,2.38,6.36,6.33v1.6h-10.81Zm.03-1.93h8.43v-.25c0-1.51-.42-2.55-1.34-3.14-.67-.42-1.51-.64-2.66-.64-1.2,0-2.04.22-2.74.64-1.04.67-1.54,1.79-1.68,3.39Z"/>
        <path class="cls-8" d="m1109.09,671.88h-2.1l-.17-1.85h-.08c-.73.95-2.07,2.07-4.96,2.07-3.22,0-4.84-1.34-4.84-4.26,0-2.74,1.46-4.09,4.96-4.09h4.84v-1.23c0-2.38-.81-3.25-3.7-3.25-1.65,0-3.58.28-4.68.56l-.34-1.79c1.06-.39,3.02-.78,5.24-.78,4.34,0,5.82,1.51,5.82,5.12v9.49Zm-2.32-6.22h-4.7c-2.18,0-2.8.59-2.8,2.21,0,1.76.78,2.32,2.83,2.32,2.58,0,4.68-1.26,4.68-3.47v-1.06Zm-4.12-10.08l-3.16-4.06v-.06h3.11l1.93,4.12h-1.88Z"/>
        <path class="cls-8" d="m1121.64,659.79c-.31-.03-.92-.06-1.32-.06-3.39,0-4.17,1.54-4.17,3.78v8.37h-2.41v-14.34h2.13l.22,2.24h.08c.67-1.34,1.74-2.35,4.12-2.35.53,0,1.04.06,1.34.11v2.24Z"/>
        <path class="cls-8" d="m1126.34,665.19c.06,1.96.62,3.22,1.71,4,.92.64,2.18.95,3.92.95,1.62,0,3.19-.31,4.26-.7l.36,1.82c-1.04.48-2.91.9-4.84.9-5.01,0-7.81-1.9-7.81-7.56v-.22c0-4.56,2.27-7.11,6.86-7.11s6.36,2.38,6.36,6.33v1.6h-10.81Zm.03-1.93h8.43v-.25c0-1.51-.42-2.55-1.34-3.14-.67-.42-1.51-.64-2.66-.64-1.2,0-2.04.22-2.74.64-1.04.67-1.54,1.79-1.68,3.39Z"/>
        <path class="cls-8" d="m1152.02,671.88h-2.1l-.17-1.85h-.08c-.73.95-2.07,2.07-4.96,2.07-3.22,0-4.84-1.34-4.84-4.26,0-2.74,1.46-4.09,4.96-4.09h4.84v-1.23c0-2.38-.81-3.25-3.7-3.25-1.65,0-3.58.28-4.68.56l-.34-1.79c1.06-.39,3.02-.78,5.24-.78,4.34,0,5.82,1.51,5.82,5.12v9.49Zm-2.32-6.22h-4.7c-2.18,0-2.8.59-2.8,2.21,0,1.76.78,2.32,2.83,2.32,2.58,0,4.68-1.26,4.68-3.47v-1.06Z"/>
        <path class="cls-8" d="m1155.66,671.46l.36-1.85c1.34.42,3,.62,4.59.62,2.77,0,3.53-.48,3.53-2.16s-.78-1.85-2.3-2.18l-2.13-.48c-2.32-.53-4.09-1.18-4.09-4.12s1.57-4.03,5.46-4.03c1.99,0,3.81.31,4.76.62l-.36,1.85c-1.04-.31-2.44-.53-4.23-.53-2.52,0-3.28.42-3.28,2.02,0,1.68.9,1.88,2.52,2.24l2.13.48c2.49.56,3.86,1.29,3.86,4.06,0,3.05-1.57,4.17-5.68,4.17-2.18,0-4.03-.31-5.15-.7Z"/>
        <path class="cls-8" d="m942.61,703.88h-2.1l-.17-1.85h-.08c-.73.95-2.07,2.07-4.96,2.07-3.22,0-4.84-1.34-4.84-4.26,0-2.74,1.46-4.09,4.96-4.09h4.84v-1.23c0-2.38-.81-3.25-3.7-3.25-1.65,0-3.58.28-4.68.56l-.34-1.79c1.06-.39,3.02-.78,5.24-.78,4.34,0,5.82,1.51,5.82,5.12v9.49Zm-2.32-6.22h-4.7c-2.18,0-2.8.59-2.8,2.21,0,1.76.78,2.32,2.83,2.32,2.58,0,4.68-1.26,4.68-3.47v-1.06Z"/>
        <path class="cls-8" d="m960.11,703.88h-2.41v-12.46h-7.2v12.46h-2.38v-12.46h-2.63v-1.88h2.63v-1.76c0-3.33,1.4-4.51,4.51-4.51.73,0,1.43.08,1.85.17v1.79c-.42-.03-.95-.06-1.43-.06-2.02,0-2.6.64-2.6,2.63v1.74h9.66v14.34Zm.03-16.88h-2.46v-3.14h2.46v3.14Z"/>
        <path class="cls-8" d="m977.27,703.88h-2.41v-8.68c0-2.86-.76-3.81-3.61-3.81-3.11,0-3.89,1.51-3.89,4.09v8.4h-2.41v-14.34h2.13l.22,1.96h.08c.56-1.18,1.82-2.24,4.56-2.24,4.17,0,5.32,1.93,5.32,5.77v8.85Z"/>
        <path class="cls-8" d="m980.91,703.46l.36-1.85c1.34.42,3,.62,4.59.62,2.77,0,3.53-.48,3.53-2.16s-.78-1.85-2.3-2.18l-2.13-.48c-2.32-.53-4.09-1.18-4.09-4.12s1.57-4.03,5.46-4.03c1.99,0,3.81.31,4.76.62l-.36,1.85c-1.04-.31-2.44-.53-4.23-.53-2.52,0-3.28.42-3.28,2.02,0,1.68.9,1.88,2.52,2.24l2.13.48c2.49.56,3.86,1.29,3.86,4.06,0,3.05-1.57,4.17-5.68,4.17-2.18,0-4.03-.31-5.15-.7Z"/>
      </g>
      <g>
        <g>
          <path class="cls-6" d="m477.74,41.77c99.69-54.22,220.89-52.25,318.26,5.63,152.27,90.52,156.92,264.66,157,274"/>
          <polygon class="cls-3" points="501.98 52.25 503.3 47.42 479.5 40.99 487.66 17.72 482.93 16.07 473 44.41 501.98 52.25"/>
        </g>
        <g>
          <path class="cls-4" d="m456.49,603.4c-96.79-59.24-155.66-165.2-154.2-278.47,2.29-177.13,150.8-268.19,158.85-272.93"/>
          <polygon class="cls-9" points="453.45 577.17 448.61 578.45 454.93 602.27 430.7 606.84 431.63 611.75 461.14 606.19 453.45 577.17"/>
        </g>
        <g>
          <path class="cls-5" d="m952.62,346.93c-3.9,113.41-67.13,216.83-166.44,271.33-155.29,85.23-307.68.82-315.77-3.85"/>
          <polygon class="cls-7" points="931.28 362.5 934.78 366.08 952.4 348.85 968.31 367.69 972.13 364.46 952.76 341.51 931.28 362.5"/>
        </g>
      </g>
      <g>
        <path class="cls-1" d="m525.12,504.57c-.9-.11-1.7-.68-2.09-1.5-1.04-2.2-2.02-4.4-2.91-6.53-.9-2.18-1.77-4.43-2.57-6.66-1.15-3.18-2.22-6.54-3.17-10l-.45-1.63-1.67-.26c-5.85-.9-11.77-2.45-17.58-4.6-2.13-.77-4.36-1.7-6.85-2.87l-1.52-.72-1.28,1.1c-2.64,2.26-5.4,4.47-8.21,6.56-3.91,2.86-7.91,5.53-11.89,7.91-.5.3-1.09.42-1.68.35-.41-.05-.81-.19-1.15-.42-10.68-7.09-19.91-15.6-27.45-25.28-.62-.79-.73-1.89-.29-2.79,1.13-2.31,2.21-4.39,3.29-6.36,1.15-2.07,2.36-4.14,3.61-6.15,1.76-2.87,3.73-5.79,5.85-8.7l.99-1.36-.84-1.46c-2.9-5.07-5.37-10.64-7.34-16.55-.45-1.25-.78-2.44-1.1-3.59l-.09-.33c-.12-.43-.24-.87-.37-1.3l-.04-.13-.45-1.85-.39-1.64-1.66-.31c-8.09-1.52-16.12-3.77-23.84-6.69-.97-.37-1.61-1.2-1.7-2.23-1.16-12.24-.28-24.77,2.61-37.24.23-.99,1.02-1.77,2.02-1.99,5.04-1.1,9.65-1.88,14.09-2.4,2.34-.27,4.7-.5,7.01-.66,1.18-.08,2.35-.15,3.47-.2l1.7-.13.6-1.51c2.24-5.61,5.06-11.02,8.35-16.1l.08-.12c.29-.41.59-.85.92-1.32l.11-.16c.65-.96,1.33-1.95,2.06-2.91l.05-.06c.24-.31.51-.65.77-1l1.38-1.82-.78-1.47c-1.68-3.15-3.22-6.34-4.58-9.46-.93-2.13-1.84-4.35-2.7-6.58-.82-2.16-1.59-4.38-2.37-6.77-.31-.96-.04-2.03.68-2.72,4.86-4.69,10.24-9,16.01-12.83.52-.35,1.16-.5,1.78-.42.32.04.63.13.92.28.39.2.73.51.98.88.81,1.22.47,2.87-.74,3.67-4.53,3-8.83,6.34-12.79,9.92l-1.28,1.16.57,1.63c.39,1.13.79,2.21,1.2,3.31.81,2.12,1.69,4.25,2.6,6.35,1.73,3.98,3.76,8.04,6.03,12.06.56.99.42,2.22-.33,3.07-.76.85-1.49,1.81-2.2,2.74l-.07.1c-.3.39-.6.78-.9,1.18-.66.88-1.26,1.75-1.89,2.68l-.1.14c-.33.49-.64.93-.96,1.39l-.05.08c-3.69,5.69-6.71,11.82-8.99,18.19-.37,1.03-1.36,1.74-2.45,1.76-1.11.02-2.25.05-3.37.09-1.06.05-2.19.11-3.32.19-2.23.16-4.51.37-6.76.63-3.29.39-6.64.92-10.24,1.62l-1.71.34-.34,1.7c-1.95,9.64-2.63,19.34-2.04,28.83l.11,1.73,1.63.57c7.52,2.62,15.29,4.6,23.1,5.87,1.09.18,1.96,1.02,2.17,2.1.31,1.56.69,3.13,1.07,4.65l.1.39.02.06c.15.51.3,1.05.46,1.6.3,1.06.6,2.16.97,3.19l.03.08c2.23,6.71,5.13,12.93,8.62,18.46.59.93.53,2.15-.14,3.03-2.84,3.71-5.42,7.43-7.66,11.08-1.19,1.92-2.36,3.93-3.48,5.94-.56,1.01-1.1,2.02-1.65,3.1l-.79,1.53,1.1,1.33c6.07,7.3,13.23,13.88,21.26,19.56l1.42,1.01,1.47-.93c2.87-1.82,5.75-3.78,8.56-5.84,3.64-2.71,7.15-5.57,10.43-8.54.57-.51,1.33-.76,2.07-.67.3.04.6.13.88.26,2.73,1.36,5.99,2.91,9.44,4.15,6.36,2.35,12.84,3.94,19.24,4.7l.7.08c1.04.12,1.92.92,2.19,1.98,1.12,4.5,2.44,8.84,3.91,12.89.77,2.14,1.6,4.3,2.48,6.43.44,1.05.91,2.13,1.39,3.2l.71,1.58,1.73-.04c4.96-.11,9.81-.54,14.41-1.26,4.74-.75,9.48-1.8,14.11-3.14l1.67-.48.2-1.73c.41-3.6.66-6.98.78-10.33.08-2.28.11-4.56.09-6.78-.02-2.08-.11-4.33-.26-6.72-.07-1.11.57-2.15,1.59-2.6,3.24-1.4,6.3-3.11,9.12-4.74,5.85-3.56,11.24-7.77,16.08-12.56.57-.56,1.39-.84,2.19-.74.27.03.53.11.78.22,3.9,1.79,8,3.42,12.54,4.99.34.12.7.24,1.06.36,1.44.48,2.21,1.97,1.74,3.38-.22.67-.7,1.21-1.33,1.53-.47.23-.98.32-1.49.26h0c-.18-.02-.36-.06-.53-.12l-1.17-.39c-3.5-1.21-6.72-2.45-9.82-3.77l-1.54-.66-1.24,1.13c-4.47,4.1-9.36,7.77-14.52,10.9l-.05.03c-1.73,1.01-4.05,2.32-6.49,3.54l-1.51.75.07,1.68c.05,1.2.08,2.37.09,3.46.02,2.32,0,4.69-.09,7.03-.15,4.51-.56,9.16-1.24,14.23-.13,1.01-.85,1.86-1.81,2.17-5.92,1.91-12.03,3.36-18.17,4.33-5.92.93-12.2,1.39-18.65,1.36-.1,0-.2,0-.29-.02Z"/>
        <path class="cls-1" d="m519.58,443.33c-2.11-.25-4.19-.62-6.21-1.11l-.12-.03c-.34-.09-.71-.19-1.08-.28l-.09-.02c-.58-.15-1.22-.31-1.75-.49l-1.74-.54-.13-.04-1.48-.55c-6.71-2.49-13.08-6.39-18.41-11.28-5.32-4.88-9.57-10.67-12.63-17.23l-.04-.09c-.12-.28-.26-.59-.41-.91-.28-.63-.58-1.3-.81-1.91l-.71-1.84-.48-1.45c-2.26-6.85-3.19-14.25-2.68-21.42.5-7.22,2.4-14.16,5.63-20.64l.13-.27c.22-.49.54-1.05.79-1.5.24-.42.47-.83.68-1.24l.06-.12c.23-.41.53-.89.85-1.39.27-.44.54-.87.8-1.31l.06-.09c4-6.06,9.05-11.22,14.95-15.27,5.88-4.05,12.71-6.99,19.74-8.5,1.14-.24,2.23-.43,3.15-.59l.16-.02c.42-.05.85-.11,1.29-.17.6-.09,1.21-.17,1.72-.2l.25-.02c3.93-.37,7.89-.32,11.83.15,3.26.39,6.47,1.06,9.54,2,1.17.35,2.35.76,3.51,1.2.11.04.2.08.29.13,1.18.62,1.72,2.03,1.24,3.29-.43,1.14-1.58,1.83-2.79,1.69-.21-.03-.43-.08-.63-.16-1.06-.4-2.12-.77-3.17-1.08-2.78-.85-5.68-1.46-8.62-1.81-3.58-.43-7.18-.47-10.72-.13l-.47.03c-.17,0-.59.06-1.13.14-.54.08-.98.14-1.45.2l-.13.02c-.81.14-1.8.32-2.79.52-6.35,1.37-12.51,4.03-17.83,7.69-5.31,3.64-9.84,8.26-13.48,13.74l-.07.11c-.24.4-.51.83-.77,1.26l-.07.12c-.26.41-.46.74-.65,1.06l-.05.09c-.22.41-.46.85-.7,1.28l-.07.12c-.19.34-.41.75-.49.91l-.24.51c-2.91,5.82-4.63,12.11-5.08,18.65-.46,6.48.38,13.18,2.42,19.38l.48,1.45.67,1.72c.12.34.36.89.64,1.5.15.33.29.64.43.97,2.78,5.95,6.61,11.16,11.4,15.55,3.27,3,6.94,5.58,10.91,7.65,1.87.98,3.81,1.84,5.76,2.56l1.44.53,1.79.56c.32.11.73.21,1.24.34.49.12.9.23,1.33.34,1.87.45,3.72.77,5.58.99,4.58.55,9.2.47,13.72-.23,6.41-.99,12.72-3.26,18.25-6.57,1.77-1.13,3.43-2.2,4.85-3.33l.47-.37c.56-.44,1.25-.64,1.96-.55.72.09,1.33.43,1.77.99.9,1.15.71,2.82-.44,3.72l-.46.36c-1.62,1.3-3.45,2.48-5.34,3.68l-.05.03c-6.1,3.67-13.09,6.19-20.2,7.28-4.99.77-10.1.86-15.17.25Z"/>
        <path class="cls-1" d="m540.99,254.83c-.35-.04-.69-.09-1.04-.14l-.79-.14c-.4-.06-.77-.12-1.15-.22l-1.06-.24-.15-.04-.89-.25c-2.33-.65-4.61-1.55-6.79-2.69-1.84-.96-3.59-2.08-5.21-3.33-3.55-2.74-6.48-6.11-8.72-10.01l-.34-.61c-.21-.37-.42-.75-.6-1.14l-.52-1.06-.38-.89c-1.76-4.12-2.72-8.67-2.78-13.13-.06-4.49.74-8.89,2.4-13.07l.06-.15c.12-.35.28-.69.43-1.03l.09-.19c.09-.19.17-.38.25-.57l.05-.11c.11-.25.27-.54.46-.92.14-.28.28-.53.4-.79l.06-.12c2.16-3.96,5.01-7.41,8.46-10.23,3.43-2.81,7.5-4.99,11.78-6.3.68-.2,1.33-.38,1.91-.52l.15-.03c.25-.05.5-.11.76-.17.37-.09.72-.17,1.1-.22l.11-.02c3.36-.6,6.88-.7,10.25-.3,1.04.12,2.09.3,3.1.52,3.02.65,5.98,1.72,8.8,3.2,1.19.62,2.36,1.32,3.47,2.08l.09.06c1,.71,2.12,1.53,3.16,2.46,3.36,2.93,6.17,6.59,8.15,10.58,1.99,3.99,3.21,8.47,3.54,12.96.12,1.31.1,2.6.07,4.03v.08c-.21,4.47-1.29,8.82-3.2,12.9-1.95,4.15-4.61,7.8-7.9,10.84-.97.92-2.07,1.78-3.12,2.57l-.07.05c-3.58,2.58-7.78,4.51-12.12,5.55-3.96.96-8.2,1.21-12.24.73Zm7.63-63.35c-2.9-.35-5.82-.26-8.67.26l-.46.07s-.49.11-.49.11c-.31.07-.54.13-.81.18l-.12.03c-.45.12-1,.27-1.55.43-3.61,1.11-7.04,2.94-9.95,5.32-2.89,2.36-5.28,5.25-7.12,8.59l-.06.12c-.11.23-.25.5-.41.81l-.05.1c-.09.17-.17.34-.26.52l-.05.1c-.1.25-.23.52-.35.79l-.04.08c-.07.15-.13.28-.18.39l-.17.46c-1.39,3.49-2.08,7.23-2.03,11.04.05,3.78.86,7.62,2.35,11.11l.84,1.81c.05.11.23.46.39.74l.35.63c1.91,3.31,4.37,6.13,7.35,8.43,3.01,2.33,6.53,4.1,10.16,5.11l.88.24,1.17.26c.11.03.29.06.49.09l.15.02c.26.04.51.08.78.13h.09c.26.05.51.09.77.12,3.42.41,7.01.19,10.36-.62,3.66-.88,7.2-2.5,10.24-4.69.58-.44,1.14-.87,1.67-1.3l.06.04.75-.73,1.51-1.28-.1-.11c2.26-2.33,4.11-5.03,5.52-8.04,1.61-3.43,2.52-7.08,2.7-10.85.03-1.37.04-2.44-.05-3.43v-.13c-.28-3.77-1.32-7.56-3.01-10.95-1.68-3.38-4.06-6.48-6.88-8.94l-.09-.08c-.79-.72-1.75-1.41-2.65-2.06-.99-.67-1.96-1.25-2.96-1.77-2.39-1.25-4.9-2.16-7.45-2.7-.85-.18-1.74-.33-2.63-.44Z"/>
        <path class="cls-1" d="m551.31,307.69c-.83-.1-1.57-.58-1.99-1.3-.92-1.59-1.79-3.17-2.59-4.69-.82-1.6-1.61-3.23-2.34-4.82-.95-2.06-1.86-4.23-2.71-6.48l-.58-1.54-1.64-.13c-.8-.06-1.6-.14-2.41-.24-3.38-.4-6.82-1.09-10.23-2.03-1.4-.37-2.87-.84-4.53-1.43l-1.55-.56-1.17,1.17c-1.63,1.63-3.35,3.25-5.13,4.82-2.74,2.39-5.56,4.63-8.38,6.66-.54.39-1.2.55-1.87.47-.34-.04-.66-.14-.95-.3-8.43-4.63-15.88-10.41-22.13-17.18-.68-.74-.89-1.82-.52-2.76.71-1.81,1.38-3.43,2.06-4.96.73-1.62,1.51-3.25,2.31-4.83,1.01-2.01,2.15-4.07,3.39-6.15l.85-1.42-.92-1.37c-2.3-3.43-4.34-7.22-6.08-11.25-.04-.08-.07-.16-.11-.23l.34-.14-2.13-4.78-.05.02-.3-.91-2.54-.29c-5.58-.66-11.13-1.78-16.51-3.3-.97-.27-1.71-1.09-1.89-2.08-1.64-9.09-1.77-18.52-.4-28.03.15-1.01.87-1.85,1.85-2.15,3.69-1.13,7.08-2.01,10.37-2.68,1.74-.35,3.48-.67,5.19-.93.59-.09,1.17-.18,1.76-.26l1.63-.22.5-1.56c1.3-4.06,2.98-8.04,5-11.81l.06-.11c.19-.33.4-.69.6-1.05l.05-.09c.43-.76.87-1.54,1.37-2.33l1.22-1.9-.89-1.4c-1.28-2.02-2.48-4.06-3.56-6.08-.83-1.54-1.65-3.13-2.43-4.74-.74-1.54-1.46-3.15-2.2-4.91-.39-.93-.21-2.01.45-2.77,6.1-6.97,13.4-12.95,21.7-17.79.49-.28,1.08-.4,1.65-.34.42.05.83.2,1.17.44,4.95,3.37,9.6,7.12,13.8,11.13l1.19,1.14,1.54-.59c4.09-1.57,8.25-2.73,12.36-3.45l2.06-.35,1.94-.25c.26-.04.48-.07.7-.09l1.63-.19.54-1.55c.73-2.12,1.56-4.26,2.52-6.56,1.4-3.28,2.97-6.53,4.67-9.65.48-.89,1.45-1.43,2.46-1.38,1.89.09,3.83.26,5.78.49,1.85.22,3.74.51,5.62.85l-.08.39,5.23.73v-.03c.31.07.61.15.92.24l3.44.96c2.16.69,4.39,1.41,6.55,2.29.93.38,1.56,1.24,1.65,2.24.27,3.38.37,6.98.29,10.71-.04,2.21-.17,4.57-.39,7l-.15,1.65,1.43.84c3.68,2.15,7.18,4.68,10.4,7.51l1.59,1.42,1.38,1.34c.19.18.36.34.52.5l1.16,1.15,1.54-.54c2.15-.75,4.34-1.44,6.71-2.11,3.48-.96,7.01-1.75,10.46-2.35.25-.04.5-.05.75-.02.75.09,1.42.48,1.86,1.08,2.63,3.65,5.07,7.71,7.23,12.05,2.15,4.34,3.91,8.73,5.23,13.05.29.94,0,2.03-.72,2.71-2.43,2.28-5.18,4.61-8.17,6.9-1.84,1.4-3.77,2.78-5.72,4.07l-1.34.89.2,1.6c.06.52.13,1.11.19,1.88.13,1.46-.95,2.75-2.41,2.87-.18.02-.37.01-.55,0h0c-1.24-.15-2.22-1.16-2.33-2.4-.17-1.92-.25-2.36-.57-4.02l-.13-.69c-.21-1.07.28-2.18,1.21-2.75,2.82-1.75,5.59-3.65,8.23-5.66,1.85-1.43,3.6-2.86,5.22-4.27l1.34-1.17-.6-1.67c-1.07-2.99-2.36-6.01-3.83-8.98-1.49-2.98-3.12-5.83-4.85-8.48l-.97-1.49-1.74.36c-2.2.46-4.41.99-6.57,1.59-3.38.95-6.47,1.98-9.46,3.15-.41.16-.85.22-1.28.17-.61-.07-1.17-.36-1.6-.81-.25-.26-.5-.53-.75-.8l-.15-.16c-.55-.6-1.14-1.24-1.73-1.78l-1.49-1.44-1.37-1.21c-3.85-3.38-8.02-6.22-12.41-8.47-.95-.5-1.52-1.57-1.39-2.66.42-3.52.67-6.86.72-9.94.05-2.3.03-4.58-.06-6.76l-.07-1.78-1.69-.58c-.94-.32-1.91-.63-2.9-.95l-3.34-.92c-.7-.2-1.44-.36-2.16-.52-.36-.08-.69-.15-1.03-.23-2.6-.55-5.16-.98-7.67-1.28-.67-.08-1.34-.15-2-.21l-1.77-.17-.8,1.59c-1.01,2-1.97,4.06-2.85,6.13-1.37,3.28-2.49,6.34-3.42,9.36-.32,1.04-1.23,1.78-2.32,1.86l-1.05.08c-.95.07-1.85.13-2.73.26l-2.04.26-1.8.31c-4.79.84-9.62,2.32-14.36,4.41-.43.19-.9.26-1.38.2-.61-.07-1.17-.35-1.59-.77-3.82-3.91-8.08-7.58-12.66-10.92l-1.43-1.05-1.5.95c-5.59,3.56-10.68,7.72-15.13,12.38l-1.22,1.28.73,1.61c.24.52.48,1.03.72,1.54.74,1.53,1.52,3.04,2.31,4.51,1.51,2.81,3.26,5.68,5.19,8.52.64.94.61,2.18-.07,3.09-.51.68-1,1.45-1.43,2.14l-.07.11c-.18.29-.37.59-.57.88-.4.63-.76,1.28-1.15,1.95,0,0-.55.97-.75,1.32l-.05.08c-2.35,4.4-4.18,9.07-5.46,13.89-.28,1.06-1.2,1.85-2.3,1.96-.82.08-1.65.18-2.48.28-.8.11-1.62.22-2.44.35-1.63.25-3.3.55-4.95.89-2.14.44-4.29.95-6.56,1.59l-1.71.47-.18,1.76c-.69,6.59-.6,13.16.26,19.52l.24,1.75,1.72.42c4.06,1.01,8.23,1.76,12.37,2.26,1.38.16,2.77.3,4.14.41h.14c1.05.14,1.91.88,2.21,1.91.33,1.14.7,2.24,1.09,3.39l.1.29c.11.29.23.61.36.94l.08.2c.28.75.57,1.53.9,2.25l.04.08c2.06,4.79,4.57,9.18,7.47,13.02.67.88.71,2.1.12,3.03-1.87,2.92-3.54,5.83-4.96,8.65-.76,1.49-1.5,3.04-2.2,4.6-.23.51-.45,1.02-.67,1.54l-.69,1.62,1.25,1.24c4.55,4.51,9.74,8.53,15.43,11.95l1.52.92,1.41-1.09c1.77-1.37,3.53-2.81,5.22-4.28,2.52-2.22,4.92-4.55,7.16-6.94.58-.62,1.39-.92,2.23-.82.23.03.46.09.68.17,2.09.83,4.58,1.77,7.19,2.47,3.16.87,6.36,1.51,9.5,1.88,1.8.21,3.61.35,5.37.39.07,0,.15,0,.23.02,1.02.12,1.89.82,2.22,1.78,1.11,3.25,2.35,6.36,3.68,9.26.7,1.52,1.45,3.07,2.23,4.59.25.49.51.97.78,1.47l.84,1.56,1.76-.21c3.33-.39,6.57-.97,9.62-1.72.37-.09.75-.19,1.13-.28.33-.08.66-.11.98-.07.36.04.71.16,1.03.35.62.36,1.04.92,1.22,1.62.18.69.09,1.39-.28,2.01-.36.61-.93,1.05-1.62,1.23-.4.11-.81.21-1.21.31-4.37,1.07-9.04,1.81-13.87,2.19-.17.01-.34,0-.51-.01Z"/>
        <path class="cls-1" d="m702.36,422.35c-7.88-.94-15.82-3.22-22.98-6.59-.93-.44-1.85-.89-2.75-1.37-7.5-3.92-14.22-9.11-19.97-15.42l-.07-.08c-.24-.28-.51-.59-.79-.9l-.08-.09c-.62-.69-1.26-1.41-1.78-2.1l-1.61-2.03-1.19-1.66c-5.54-7.75-9.63-16.74-11.81-25.98-2.21-9.31-2.55-18.83-1.02-28.29l.06-.41c.08-.65.24-1.42.4-2.17.14-.65.27-1.27.38-1.88l.03-.12c.14-.66.33-1.36.52-2.09.18-.68.35-1.35.51-2.01l.03-.11c2.68-9.26,7.01-17.72,12.87-25.16,5.84-7.42,13.3-13.82,21.57-18.51,1.36-.76,2.73-1.46,3.76-1.99l.13-.06c.55-.24,1.09-.5,1.63-.76.7-.34,1.43-.69,2.05-.92l.33-.13c8.8-3.68,18.4-5.65,27.83-5.7,2.97-.02,6,.15,9.02.51,6.48.77,12.84,2.39,18.91,4.8l.07.03c1.98.84,4.29,1.84,6.44,2.96.45.23.89.48,1.34.73l.12.06c8.27,4.51,15.78,10.8,21.74,18.2,5.98,7.4,10.58,16.13,13.3,25.24l.04.13c.82,2.56,1.39,5.3,1.99,8.36l.02.09c1.63,9.37,1.39,18.89-.71,28.25-2.13,9.52-5.97,18.31-11.41,26.13l-.08.11c-1.52,2.26-3.37,4.48-5.29,6.75l-.05.06c-6.26,7.04-14.09,12.97-22.63,17.14-8.5,4.17-17.95,6.7-27.32,7.34h-.11c-.52.02-1.06.05-1.6.08-.85.05-1.69.1-2.42.08h-2.45s-.13,0-.13,0l-2.11-.11c-1.56-.08-3.14-.22-4.71-.41Zm16.44-140.74c-2.8-.33-5.62-.49-8.37-.47-8.75.05-17.7,1.88-25.85,5.3l-.52.2c-.3.11-.79.34-1.5.68-.63.3-1.18.56-1.75.82l-.12.06c-.93.48-2.21,1.14-3.42,1.81-7.68,4.35-14.58,10.28-20,17.16-5.41,6.87-9.42,14.7-11.91,23.26l-.03.12c-.15.63-.32,1.29-.5,1.95-.18.68-.34,1.31-.47,1.85l-.02.1c-.12.65-.26,1.31-.39,1.93l-.02.08c-.18.83-.27,1.28-.3,1.58l-.09.65c-1.42,8.73-1.1,17.57.95,26.22,2.02,8.58,5.81,16.92,10.96,24.11l1.21,1.67,1.55,1.94c.33.44.88,1.06,1.47,1.72.33.37.63.71.94,1.07,6,6.58,13.07,11.79,21.05,15.54,6.64,3.13,14.02,5.25,21.33,6.12,1.45.17,2.93.3,4.37.38l2.06.11h2.51c.43.01,1.03-.02,1.88-.07.6-.03,1.17-.07,1.76-.09,8.74-.6,17.46-2.95,25.32-6.81,7.91-3.87,15.16-9.36,20.98-15.88,1.83-2.16,3.55-4.22,4.93-6.28l.1-.15c5.05-7.25,8.62-15.43,10.6-24.27,1.94-8.65,2.17-17.45.67-26.14-.6-3.04-1.12-5.5-1.85-7.81l-.05-.17c-2.53-8.47-6.81-16.59-12.36-23.45-5.53-6.86-12.51-12.7-20.18-16.89l-.15-.09c-.39-.22-.79-.44-1.19-.65-1.99-1.04-4.07-1.94-6.02-2.77-5.67-2.25-11.55-3.74-17.55-4.45Z"/>
        <path class="cls-1" d="m668.29,498.33c-.14-.02-.28-.05-.42-.09-16.37-4.78-31.47-11.93-44.89-21.24-.83-.57-1.26-1.59-1.11-2.58.53-3.4,1.07-6.48,1.67-9.39.65-3.11,1.37-6.23,2.15-9.26,1.19-4.68,2.65-9.55,4.36-14.47l.56-1.62-1.27-1.16c-6-5.47-11.61-11.82-16.69-18.87-1.01-1.33-1.89-2.69-2.74-4-.46-.71-.88-1.36-1.31-2l-.08-.12-.41-.69c-.49-.81-.98-1.63-1.47-2.46l-.87-1.47-1.69.21c-11.27,1.38-22.74,1.75-34.1,1.08-.06,0-.11,0-.17-.01-.93-.11-1.76-.74-2.12-1.61-6.33-15.1-10.17-31.37-11.43-48.35-.08-1.02.45-2,1.33-2.5,5.97-3.39,11.52-6.22,16.97-8.64,2.87-1.28,5.79-2.5,8.66-3.61,1.49-.58,2.95-1.13,4.33-1.63l2.68-.94.12-1.71c.59-8.39,2.04-16.75,4.31-24.86l.04-.13c.24-.75.48-1.53.72-2.31.21-.68.42-1.36.63-2.04l.35.13,1.44-4.98-.07-.03c.13-.36.99-2.68.99-2.68l-1.21-1.18c-3.7-3.61-7.19-7.31-10.37-11.01-2.04-2.36-4.08-4.82-6.05-7.3-1.89-2.42-3.76-4.94-5.69-7.67-.58-.82-.64-1.92-.16-2.8,7.88-14.39,18.22-27.55,30.73-39.09.56-.52,1.36-.77,2.12-.68.23.03.45.08.66.17,10.75,4.29,21,9.47,30.47,15.39l1.45.91,1.41-.97c7.12-4.92,14.57-9,22.15-12.13l3.46-1.41,3.27-1.17c1.31-.5,2.59-.9,3.56-1.2l1.65-.51.17-1.72c.49-4.82,1.19-9.73,2.14-15.01,1.16-6.21,2.64-12.44,4.39-18.5.28-.97,1.1-1.71,2.1-1.88,7.94-1.36,16.3-2.08,24.86-2.15h.08c.59,0,1.21,0,1.89,0,1.32,0,2.82-.01,4.35.08l6.23.32h.1c2.32.23,4.72.45,7.1.74,1.89.23,3.58.47,5.15.73.99.17,1.79.87,2.09,1.83,1.77,5.76,3.33,11.97,4.62,18.47.94,4.66,1.73,9.68,2.33,14.92l.2,1.71,1.65.49c8.04,2.39,15.87,5.67,23.29,9.75l3.22,1.79,3,1.85c1.18.69,2.25,1.42,3.16,2.04l1.43.98,1.46-.93c4.1-2.63,8.37-5.13,13.06-7.66,5.68-3,11.49-5.72,17.24-8.09.41-.17.87-.23,1.32-.18.55.07,1.05.29,1.45.65,5.96,5.32,11.73,11.41,17.14,18.08,5.39,6.68,10.12,13.6,14.05,20.56.5.89.45,1.96-.12,2.8-3.35,4.9-7.22,9.99-11.52,15.12-3.24,3.83-6.68,7.59-10.23,11.17l-1.2,1.21.63,1.58c3.12,7.84,5.45,16.01,6.93,24.28v.06c.51,3.15,1.06,6.91,1.38,10.87l.14,1.71,1.62.55c1.81.61,3.63,1.26,5.42,1.92,2.9,1.09,5.82,2.28,8.68,3.52,5.67,2.44,11.25,5.19,17.07,8.43.89.49,1.42,1.47,1.36,2.48-.54,8.72-1.69,17.02-3.43,24.67-1.84,8.13-4.29,16.11-7.27,23.72-.37.95-1.27,1.61-2.29,1.68-6.49.45-12.88.59-19.02.44-5.35-.16-10.3-.5-15.12-1.02l-1.7-.18-.85,1.48c-4.17,7.32-9.1,14.24-14.67,20.55l-.05.06c-2.15,2.34-4.77,5.13-7.64,7.82l-1.25,1.17.58,1.61c.67,1.84,1.3,3.67,1.87,5.44.94,2.92,1.84,5.94,2.66,8.97,1.59,5.79,2.92,11.87,4.07,18.59.17,1-.26,2.03-1.09,2.61-6.76,4.76-13.95,9.04-21.37,12.7-7.15,3.53-14.94,6.6-23.16,9.11-.35.11-.71.14-1.08.09h0c-.64-.08-1.22-.37-1.64-.83-2.2-2.39-4.32-4.8-6.3-7.15-2.04-2.46-4.03-4.97-5.91-7.45-2.94-3.86-5.83-8.04-8.61-12.42l-.92-1.45-1.7.27c-8.11,1.31-16.6,1.74-25.23,1.29-2.35-.1-4.77-.3-7.43-.62-1.12-.13-2.29-.29-3.51-.46l-1.69-.24-.9,1.45c-2.63,4.25-5.47,8.48-8.45,12.57-3.83,5.19-7.86,10.16-11.98,14.77-.57.64-1.45.97-2.3.86Zm-60.78-94.93c.86.1,1.62.61,2.03,1.37,1.02,1.88,2.16,3.77,3.27,5.6l.28.46c.41.61.83,1.25,1.25,1.9.86,1.34,1.67,2.58,2.55,3.74l.05.07c5.57,7.76,11.81,14.6,18.52,20.31.84.72,1.15,1.89.77,2.93-2.17,5.91-3.98,11.73-5.4,17.3-.76,2.94-1.46,5.98-2.09,9.02-.39,1.89-.74,3.79-1.08,5.82l-.28,1.67,1.42.93c11.32,7.47,23.88,13.4,37.33,17.64l1.64.52,1.12-1.3c3.23-3.76,6.41-7.74,9.43-11.83,3.59-4.93,6.95-10.02,9.98-15.14.54-.92,1.51-1.41,2.52-1.29l.14.02c1.83.29,4.22.66,6.78.97s4.87.5,7.08.59c9.47.49,18.72-.12,27.47-1.83.27-.05.54-.06.81-.03.81.1,1.54.56,1.96,1.25,3.25,5.33,6.67,10.38,10.18,15,1.84,2.44,3.78,4.88,5.75,7.26,1.22,1.45,2.52,2.95,3.86,4.45l1.14,1.27,1.62-.53c6.76-2.22,13.2-4.84,19.15-7.78,6.16-3.04,12.18-6.53,17.88-10.36l1.42-.95-.31-1.68c-.98-5.25-2.08-10.08-3.36-14.75-.79-2.91-1.66-5.85-2.59-8.74-.87-2.68-1.89-5.54-3.03-8.53-.4-1.04-.1-2.23.75-2.95,3.62-3.12,6.87-6.55,9.85-9.78,6.09-6.92,11.35-14.51,15.66-22.62.51-.96,1.58-1.52,2.65-1.39.56.07,1.1.14,1.64.2,5.21.62,10.61,1.01,16.49,1.19,4.88.12,9.96.05,15.11-.22l1.72-.09.59-1.61c2.34-6.38,4.3-13.04,5.83-19.78,1.44-6.38,2.48-13.26,3.06-20.46l.14-1.7-1.51-.81c-4.62-2.47-9.08-4.62-13.63-6.58-2.81-1.22-5.65-2.37-8.44-3.42-2.81-1.04-5.68-2.03-8.56-2.94-1.06-.34-1.8-1.31-1.84-2.42-.19-4.86-.88-9.7-1.52-13.79-1.62-9.06-4.29-17.91-7.93-26.36-.43-1-.2-2.19.59-2.95,4.34-4.22,8.5-8.69,12.38-13.27,3.37-4.02,6.49-8.04,9.28-11.95l.99-1.39-.88-1.46c-3.42-5.72-7.41-11.41-11.87-16.93-4.46-5.5-9.19-10.61-14.06-15.19l-1.25-1.17-1.57.68c-4.57,1.98-9.16,4.18-13.66,6.56-5.65,3.04-10.73,6.08-15.56,9.32-.53.36-1.16.51-1.79.44-.42-.05-.81-.2-1.17-.44-.62-.42-1.22-.84-1.83-1.26-1.35-.94-2.62-1.83-3.96-2.61l-3.05-1.88-3.03-1.68c-8.14-4.46-16.71-7.9-25.51-10.22-1.07-.28-1.85-1.21-1.96-2.3-.63-6.38-1.51-12.42-2.63-17.94-1.02-5.12-2.21-10.08-3.54-14.75l-.47-1.64-1.69-.23c-.54-.07-1.08-.14-1.62-.2-2.4-.29-4.83-.51-6.98-.71l-6.09-.31c-1.32-.08-2.64-.08-4.03-.07h-.29c-.55,0-1.11,0-1.68,0-7.07.06-14.01.58-20.66,1.55l-1.69.25-.45,1.65c-1.3,4.84-2.43,9.8-3.36,14.75-1.15,6.38-1.93,12.26-2.4,18-.09,1.09-.82,2-1.86,2.32l-1.79.54c-1.68.5-3.26.97-4.82,1.56l-3.43,1.23-3.15,1.29c-8.22,3.39-16.27,7.96-23.92,13.56-.54.4-1.21.57-1.89.49-.4-.05-.79-.19-1.13-.41-9.09-5.94-18.98-11.17-29.4-15.54l-1.58-.66-1.23,1.19c-10.14,9.77-18.75,20.71-25.57,32.5l-.85,1.47,1,1.37c1.23,1.68,2.4,3.23,3.58,4.73,1.9,2.4,3.87,4.78,5.86,7.08l.02.03c3.8,4.41,8.03,8.81,12.57,13.08.83.78,1.07,1.99.6,3.02-.64,1.41-1.17,2.86-1.72,4.38-.26.73-.51,1.39-.76,2.07-.5,1.4-.93,2.81-1.35,4.17l-.09.29c-.22.71-.44,1.42-.67,2.15l-.03.09c-2.47,8.83-3.91,17.93-4.28,27.07-.04,1.1-.78,2.07-1.82,2.41-1.39.46-2.84.95-4.29,1.47-1.35.49-2.76,1.02-4.2,1.58-2.85,1.11-5.68,2.3-8.43,3.52-4.4,1.96-8.83,4.17-13.55,6.76l-1.5.82.16,1.71c1.34,14.02,4.53,27.54,9.49,40.2l.62,1.58,1.7.07c11.1.44,22.27-.12,33.2-1.67.22-.03.45-.03.67,0Z"/>
      </g>
    </g>
  </g>
</svg>