<?xml version="1.0" encoding="UTF-8"?>
<svg id="Camada_2" data-name="Camada 2" xmlns="http://www.w3.org/2000/svg" viewBox="0 0 461 490">
  <defs>
    <style>
      .cls-1 {
        fill: none;
        stroke: #950048;
        stroke-miterlimit: 10;
        stroke-width: 3px;
      }

      .cls-2 {
        fill: #fff;
      }

      .cls-3 {
        fill: #dc3379;
      }
    </style>
  </defs>
  <g id="Camada_1-2" data-name="Camada 1">
    <g>
      <rect class="cls-3" y="10.5" width="461" height="202.53" rx="32.78" ry="32.78"/>
      <line class="cls-1" x1="80.25" y1="1.5" x2="380.75" y2="1.5"/>
      <line class="cls-1" x1="80.25" y1="222.5" x2="380.75" y2="222.5"/>
      <g>
        <path class="cls-2" d="m182.38,76.03c-3.39-.72-5.61-1.98-5.61-6.06s2.22-5.79,7.86-5.79c3,0,5.34.48,6.93.99l-.63,2.73c-1.5-.45-3.45-.75-5.97-.75-3.54,0-4.62.69-4.62,2.79,0,2.22,1.17,2.58,3.72,3.12l3.06.63c3.6.75,5.37,2.01,5.37,5.94,0,4.44-2.4,6.15-8.22,6.15-3.15,0-5.82-.48-7.65-1.2l.6-2.7c1.98.66,4.62.93,6.96.93,3.48,0,4.71-.84,4.71-2.94s-.96-2.67-3.45-3.21l-3.06-.63Z"/>
        <path class="cls-2" d="m196.78,64.48h3.66v21h-3.66v-21Z"/>
        <path class="cls-2" d="m223.42,85.48h-4.35l-7.59-12.42c-.84-1.47-1.56-2.76-2.28-4.32h-.09c.15,1.77.21,3.39.21,5.13v11.61h-3.6v-21h4.35l7.59,12.42c.84,1.47,1.56,2.76,2.25,4.32h.09c-.15-1.77-.15-3.39-.15-5.13v-11.61h3.57v21Z"/>
        <path class="cls-2" d="m246.94,85.48h-3.78l-2.04-5.37h-8.91l-2.04,5.37h-3.6l8.34-21h3.72l8.31,21Zm-13.59-8.34h6.63l-1.86-4.95c-.54-1.38-.99-2.82-1.38-4.26h-.12c-.39,1.44-.84,2.85-1.35,4.23l-1.92,4.98Z"/>
        <path class="cls-2" d="m250.09,64.48h15.15v3.09h-11.49v5.55h10.35v3.09h-10.35v6.18h11.76v3.09h-15.42v-21Z"/>
        <path class="cls-2" d="m274.24,76.03c-3.39-.72-5.61-1.98-5.61-6.06s2.22-5.79,7.86-5.79c3,0,5.34.48,6.93.99l-.63,2.73c-1.5-.45-3.45-.75-5.97-.75-3.54,0-4.62.69-4.62,2.79,0,2.22,1.17,2.58,3.72,3.12l3.06.63c3.6.75,5.37,2.01,5.37,5.94,0,4.44-2.4,6.15-8.22,6.15-3.15,0-5.82-.48-7.65-1.2l.6-2.7c1.98.66,4.62.93,6.96.93,3.48,0,4.71-.84,4.71-2.94s-.96-2.67-3.45-3.21l-3.06-.63Z"/>
        <path class="cls-2" d="m33.64,111.32c-2.91-.62-5.1-1.74-5.1-5.52,0-3.56,1.93-5.21,7.03-5.21,2.72,0,4.7.48,5.94.95l-.42,1.93c-1.32-.45-3.02-.78-5.32-.78-3.67,0-4.76.84-4.76,3.11,0,2.41,1.26,2.86,3.78,3.39l2.94.62c3.11.64,4.76,1.88,4.76,5.4,0,3.78-1.96,5.54-7.36,5.54-2.72,0-5.1-.45-6.8-1.15l.42-1.93c1.76.67,4.17.98,6.36.98,3.81,0,4.9-1.01,4.9-3.22s-.92-2.97-3.42-3.5l-2.94-.62Z"/>
        <path class="cls-2" d="m49.06,103.6h-2.46v-3.14h2.46v3.14Zm-.03,16.88h-2.41v-14.34h2.41v14.34Z"/>
        <path class="cls-2" d="m52.87,120.06l.36-1.85c1.34.42,3,.62,4.59.62,2.77,0,3.53-.48,3.53-2.16s-.78-1.85-2.3-2.18l-2.13-.48c-2.32-.53-4.09-1.18-4.09-4.12s1.57-4.03,5.46-4.03c1.99,0,3.81.31,4.76.62l-.36,1.85c-1.04-.31-2.44-.53-4.23-.53-2.52,0-3.28.42-3.28,2.02,0,1.68.9,1.88,2.52,2.24l2.13.48c2.49.56,3.86,1.29,3.86,4.06,0,3.05-1.57,4.17-5.68,4.17-2.18,0-4.03-.31-5.15-.7Z"/>
        <path class="cls-2" d="m68.02,116.42v-8.4h-2.58v-1.88h2.66l.11-4.23h2.16v4.23h4.54v1.88h-4.51v8.06c0,2.04.56,2.6,2.69,2.6.62,0,1.43-.06,1.88-.14v1.82c-.48.14-1.37.28-2.18.28-3.47,0-4.76-1.15-4.76-4.23Z"/>
        <path class="cls-2" d="m79.75,113.79c.06,1.96.62,3.22,1.71,4,.92.64,2.18.95,3.92.95,1.62,0,3.19-.31,4.26-.7l.36,1.82c-1.04.48-2.91.9-4.84.9-5.01,0-7.81-1.9-7.81-7.56v-.22c0-4.56,2.27-7.11,6.86-7.11s6.36,2.38,6.36,6.33v1.6h-10.81Zm.03-1.93h8.43v-.25c0-1.51-.42-2.55-1.34-3.14-.67-.42-1.51-.64-2.66-.64-1.2,0-2.04.22-2.74.64-1.04.67-1.54,1.79-1.68,3.39Z"/>
        <path class="cls-2" d="m115.81,120.48h-2.41v-8.74c0-2.8-.78-3.75-3.42-3.75-2.86,0-3.64,1.51-3.64,4.03v8.46h-2.41v-8.74c0-2.8-.78-3.75-3.42-3.75-2.86,0-3.64,1.51-3.64,4.03v8.46h-2.41v-14.34h2.13l.22,1.96h.08c.56-1.18,1.82-2.24,4.31-2.24s4.03.78,4.7,2.32h.08c.56-1.18,1.82-2.32,4.48-2.32,4.26,0,5.32,1.93,5.32,5.71v8.9Z"/>
        <path class="cls-2" d="m131.69,120.48h-2.1l-.17-1.85h-.08c-.73.95-2.07,2.07-4.96,2.07-3.22,0-4.84-1.34-4.84-4.26,0-2.74,1.46-4.09,4.96-4.09h4.84v-1.23c0-2.38-.81-3.25-3.7-3.25-1.65,0-3.58.28-4.68.56l-.34-1.79c1.06-.39,3.02-.78,5.24-.78,4.34,0,5.82,1.51,5.82,5.12v9.49Zm-2.32-6.22h-4.7c-2.18,0-2.8.59-2.8,2.21,0,1.76.78,2.32,2.83,2.32,2.58,0,4.68-1.26,4.68-3.47v-1.06Z"/>
        <path class="cls-2" d="m159.69,120.48h-3l-8.54-13.55c-.62-1.01-1.2-2.04-1.74-3.14h-.08c.08,1.26.08,2.6.08,3.86v12.82h-2.46v-19.6h3l8.54,13.55c.62,1.01,1.2,2.04,1.74,3.14h.08c-.08-1.26-.08-2.6-.08-3.86v-12.82h2.46v19.6Z"/>
        <path class="cls-2" d="m176.01,120.48h-2.1l-.17-1.85h-.08c-.73.95-2.07,2.07-4.96,2.07-3.22,0-4.84-1.34-4.84-4.26,0-2.74,1.46-4.09,4.96-4.09h4.84v-1.23c0-2.38-.81-3.25-3.7-3.25-1.65,0-3.58.28-4.68.56l-.34-1.79c1.06-.39,3.02-.78,5.24-.78,4.34,0,5.82,1.51,5.82,5.12v9.49Zm-2.32-6.22h-4.7c-2.18,0-2.8.59-2.8,2.21,0,1.76.78,2.32,2.83,2.32,2.58,0,4.68-1.26,4.68-3.47v-1.06Z"/>
        <path class="cls-2" d="m182.34,113.54c0,2.18.5,3.61,1.76,4.4.76.48,1.82.7,3.19.7,1.23,0,2.69-.22,3.7-.5l.36,1.9c-1.01.36-2.6.73-4.45.73-1.37,0-2.55-.22-3.5-.62-2.44-1.04-3.53-3.36-3.53-6.72v-.22c0-3.33,1.06-5.68,3.5-6.72.95-.42,2.13-.62,3.5-.62,1.82,0,3.42.34,4.42.7l-.36,1.9c-1.01-.28-2.46-.48-3.67-.48-1.4,0-2.44.22-3.19.7-1.26.78-1.74,2.21-1.74,4.4v.45Z"/>
        <path class="cls-2" d="m197.43,103.6h-2.46v-3.14h2.46v3.14Zm-.03,16.88h-2.41v-14.34h2.41v14.34Z"/>
        <path class="cls-2" d="m215.35,113.42c0,4.79-2.21,7.34-6.94,7.34s-6.94-2.55-6.94-7.34v-.22c0-4.79,2.21-7.34,6.94-7.34s6.94,2.55,6.94,7.34v.22Zm-2.46-.34c0-2.16-.45-3.67-1.6-4.48-.7-.48-1.62-.73-2.88-.73s-2.18.25-2.88.73c-1.15.81-1.6,2.32-1.6,4.48v.45c0,2.16.45,3.67,1.6,4.48.7.48,1.62.73,2.88.73s2.18-.25,2.88-.73c1.15-.81,1.6-2.32,1.6-4.48v-.45Z"/>
        <path class="cls-2" d="m231.65,120.48h-2.41v-8.68c0-2.86-.76-3.81-3.61-3.81-3.11,0-3.89,1.51-3.89,4.09v8.4h-2.41v-14.34h2.13l.22,1.96h.08c.56-1.18,1.82-2.24,4.56-2.24,4.17,0,5.32,1.93,5.32,5.77v8.85Z"/>
        <path class="cls-2" d="m247.53,120.48h-2.1l-.17-1.85h-.08c-.73.95-2.07,2.07-4.96,2.07-3.22,0-4.84-1.34-4.84-4.26,0-2.74,1.46-4.09,4.96-4.09h4.84v-1.23c0-2.38-.81-3.25-3.7-3.25-1.65,0-3.58.28-4.68.56l-.34-1.79c1.06-.39,3.02-.78,5.24-.78,4.34,0,5.82,1.51,5.82,5.12v9.49Zm-2.32-6.22h-4.7c-2.18,0-2.8.59-2.8,2.21,0,1.76.78,2.32,2.83,2.32,2.58,0,4.68-1.26,4.68-3.47v-1.06Z"/>
        <path class="cls-2" d="m254.67,116.9c0,1.34.36,1.62,1.6,1.62.39,0,.84-.03,1.04-.06v1.96c-.31.08-.92.17-1.62.17-2.55,0-3.42-.92-3.42-3.22v-17.33h2.41v16.86Z"/>
        <path class="cls-2" d="m266.85,113.42v-.22c0-4.79,2.24-7.34,6.55-7.34,2.21,0,3.81.67,4.84,1.96l.11-.06c-.06-.7-.08-1.46-.08-2.18v-5.54h2.41v20.44h-2.1l-.22-1.65-.11-.03c-1.04,1.29-2.63,1.96-4.84,1.96-4.31,0-6.55-2.55-6.55-7.34Zm9.83,4.59c1.15-.81,1.6-2.32,1.6-4.48v-.45c0-2.16-.45-3.67-1.6-4.48-.7-.48-1.62-.73-2.88-.73s-2.18.25-2.88.73c-1.15.81-1.6,2.32-1.6,4.48v.45c0,2.16.45,3.67,1.6,4.48.7.48,1.62.73,2.88.73s2.18-.25,2.88-.73Z"/>
        <path class="cls-2" d="m287.09,113.79c.06,1.96.62,3.22,1.71,4,.92.64,2.18.95,3.92.95,1.62,0,3.19-.31,4.26-.7l.36,1.82c-1.04.48-2.91.9-4.84.9-5.01,0-7.81-1.9-7.81-7.56v-.22c0-4.56,2.27-7.11,6.86-7.11s6.36,2.38,6.36,6.33v1.6h-10.81Zm.03-1.93h8.43v-.25c0-1.51-.42-2.55-1.34-3.14-.67-.42-1.51-.64-2.66-.64-1.2,0-2.04.22-2.74.64-1.04.67-1.54,1.79-1.68,3.39Z"/>
        <path class="cls-2" d="m325.51,120.48h-2.58l-2.16-5.54h-8.76l-2.16,5.54h-2.46l7.73-19.6h2.66l7.73,19.6Zm-12.68-7.67h7.11l-2.35-6.08c-.42-1.09-.81-2.27-1.15-3.39h-.11c-.34,1.09-.73,2.27-1.12,3.36l-2.38,6.1Z"/>
        <path class="cls-2" d="m334.02,120.48h-2.6l-5.6-14.34h2.52l3.39,8.96c.48,1.26.73,2.07,1.01,3.16h.08c.28-1.09.53-1.93,1.01-3.16l3.53-8.96h2.44l-5.77,14.34Z"/>
        <path class="cls-2" d="m353.62,120.48h-2.1l-.17-1.85h-.08c-.73.95-2.07,2.07-4.96,2.07-3.22,0-4.84-1.34-4.84-4.26,0-2.74,1.46-4.09,4.96-4.09h4.84v-1.23c0-2.38-.81-3.25-3.7-3.25-1.65,0-3.58.28-4.68.56l-.34-1.79c1.06-.39,3.02-.78,5.24-.78,4.34,0,5.82,1.51,5.82,5.12v9.49Zm-2.32-6.22h-4.7c-2.18,0-2.8.59-2.8,2.21,0,1.76.78,2.32,2.83,2.32,2.58,0,4.68-1.26,4.68-3.47v-1.06Z"/>
        <path class="cls-2" d="m360.76,116.9c0,1.34.36,1.62,1.6,1.62.39,0,.84-.03,1.04-.06v1.96c-.31.08-.92.17-1.62.17-2.55,0-3.42-.92-3.42-3.22v-17.33h2.41v16.86Z"/>
        <path class="cls-2" d="m368.96,103.6h-2.46v-3.14h2.46v3.14Zm-.03,16.88h-2.41v-14.34h2.41v14.34Z"/>
        <path class="cls-2" d="m385.01,120.48h-2.1l-.17-1.85h-.08c-.73.95-2.07,2.07-4.96,2.07-3.22,0-4.84-1.34-4.84-4.26,0-2.74,1.46-4.09,4.96-4.09h4.84v-1.23c0-2.38-.81-3.25-3.7-3.25-1.65,0-3.58.28-4.68.56l-.34-1.79c1.06-.39,3.02-.78,5.24-.78,4.34,0,5.82,1.51,5.82,5.12v9.49Zm-2.32-6.22h-4.7c-2.18,0-2.8.59-2.8,2.21,0,1.76.78,2.32,2.83,2.32,2.58,0,4.68-1.26,4.68-3.47v-1.06Z"/>
        <path class="cls-2" d="m393.46,120.48c-.39-.08-.73-.2-1.06-.34-2.44-1.04-3.53-3.36-3.53-6.72v-.22c0-3.33,1.06-5.68,3.5-6.72.95-.42,2.13-.62,3.5-.62,1.82,0,3.42.34,4.42.7l-.36,1.9c-1.01-.28-2.46-.48-3.67-.48-1.4,0-2.44.22-3.19.7-1.26.78-1.74,2.21-1.74,4.4v.45c0,2.18.5,3.61,1.76,4.4.76.48,1.82.7,3.19.7,1.23,0,2.69-.22,3.7-.5l.36,1.9c-1.01.36-2.6.73-4.45.73-.34,0-.67-.03-.98-.06l-.06,1.04c1.76.03,2.69.48,2.69,1.88,0,1.62-.95,2.27-3.11,2.27-.95,0-1.71-.2-2.04-.31l.22-1.29c.39.11,1.09.22,1.85.22.98,0,1.29-.25,1.29-.84,0-.78-.56-.95-2.66-.95l.36-2.24Z"/>
        <path class="cls-2" d="m414.97,120.48h-2.1l-.17-1.85h-.08c-.73.95-2.07,2.07-4.96,2.07-3.22,0-4.84-1.34-4.84-4.26,0-2.74,1.46-4.09,4.96-4.09h4.84v-1.23c0-2.38-.81-3.25-3.7-3.25-1.65,0-3.58.28-4.68.56l-.34-1.79c1.06-.39,3.02-.78,5.24-.78,4.34,0,5.82,1.51,5.82,5.12v9.49Zm-5.66-16.86l-.56-.28c-.62-.31-1.15-.59-1.68-.59-.9,0-.9.5-1.01,1.37h-1.9c.11-2.07.7-3.33,2.77-3.33.9,0,1.62.34,2.32.67l.56.28c.62.31,1.15.59,1.68.59.9,0,.9-.5,1.01-1.37h1.9c-.11,2.07-.7,3.33-2.77,3.33-.9,0-1.62-.34-2.32-.67Zm3.33,10.64h-4.7c-2.18,0-2.8.59-2.8,2.21,0,1.76.78,2.32,2.83,2.32,2.58,0,4.68-1.26,4.68-3.47v-1.06Z"/>
        <path class="cls-2" d="m432.72,113.42c0,4.79-2.21,7.34-6.94,7.34s-6.94-2.55-6.94-7.34v-.22c0-4.79,2.21-7.34,6.94-7.34s6.94,2.55,6.94,7.34v.22Zm-2.46-.34c0-2.16-.45-3.67-1.6-4.48-.7-.48-1.62-.73-2.88-.73s-2.18.25-2.88.73c-1.15.81-1.6,2.32-1.6,4.48v.45c0,2.16.45,3.67,1.6,4.48.7.48,1.62.73,2.88.73s2.18-.25,2.88-.73c1.15-.81,1.6-2.32,1.6-4.48v-.45Z"/>
        <path class="cls-2" d="m85.52,148.42v-.22c0-4.79,2.24-7.34,6.55-7.34,2.21,0,3.81.67,4.84,1.96l.11-.06c-.06-.7-.08-1.46-.08-2.18v-5.54h2.41v20.44h-2.1l-.22-1.65-.11-.03c-1.04,1.29-2.63,1.96-4.84,1.96-4.31,0-6.55-2.55-6.55-7.34Zm9.83,4.59c1.15-.81,1.6-2.32,1.6-4.48v-.45c0-2.16-.45-3.67-1.6-4.48-.7-.48-1.62-.73-2.88-.73s-2.18.25-2.88.73c-1.15.81-1.6,2.32-1.6,4.48v.45c0,2.16.45,3.67,1.6,4.48.7.48,1.62.73,2.88.73s2.18-.25,2.88-.73Z"/>
        <path class="cls-2" d="m115.37,155.48h-2.1l-.17-1.85h-.08c-.73.95-2.07,2.07-4.96,2.07-3.22,0-4.84-1.34-4.84-4.26,0-2.74,1.46-4.09,4.96-4.09h4.84v-1.23c0-2.38-.81-3.25-3.7-3.25-1.65,0-3.58.28-4.68.56l-.34-1.79c1.06-.39,3.02-.78,5.24-.78,4.34,0,5.82,1.51,5.82,5.12v9.49Zm-2.32-6.22h-4.7c-2.18,0-2.8.59-2.8,2.21,0,1.76.78,2.32,2.83,2.32,2.58,0,4.68-1.26,4.68-3.47v-1.06Z"/>
        <path class="cls-2" d="m127.63,135.88h13.52v2.18h-11v6.22h9.94v2.18h-9.94v6.83h11.26v2.18h-13.78v-19.6Z"/>
        <path class="cls-2" d="m144.46,148.42v-.22c0-4.79,2.24-7.34,6.55-7.34,2.21,0,3.81.67,4.84,1.96l.11-.06c-.06-.7-.08-1.46-.08-2.18v-5.54h2.41v20.44h-2.1l-.22-1.65-.11-.03c-1.04,1.29-2.63,1.96-4.84,1.96-4.31,0-6.55-2.55-6.55-7.34Zm9.83,4.59c1.15-.81,1.6-2.32,1.6-4.48v-.45c0-2.16-.45-3.67-1.6-4.48-.7-.48-1.62-.73-2.88-.73s-2.18.25-2.88.73c-1.15.81-1.6,2.32-1.6,4.48v.45c0,2.16.45,3.67,1.6,4.48.7.48,1.62.73,2.88.73s2.18-.25,2.88-.73Z"/>
        <path class="cls-2" d="m162.94,141.14h2.41v8.57c0,2.94.78,3.92,3.53,3.92,3.11,0,3.81-1.76,3.81-4.2v-8.29h2.41v14.34h-2.16l-.2-1.85h-.08c-.59,1.06-1.79,2.13-4.06,2.13-4.12,0-5.66-1.65-5.66-5.88v-8.74Z"/>
        <path class="cls-2" d="m181.53,148.54c0,2.18.5,3.61,1.76,4.4.76.48,1.82.7,3.19.7,1.23,0,2.69-.22,3.7-.5l.36,1.9c-1.01.36-2.6.73-4.45.73-1.37,0-2.55-.22-3.5-.62-2.44-1.04-3.53-3.36-3.53-6.72v-.22c0-3.33,1.06-5.68,3.5-6.72.95-.42,2.13-.62,3.5-.62,1.82,0,3.42.34,4.42.7l-.36,1.9c-1.01-.28-2.46-.48-3.67-.48-1.4,0-2.44.22-3.19.7-1.26.78-1.74,2.21-1.74,4.4v.45Z"/>
        <path class="cls-2" d="m205.16,155.48h-2.1l-.17-1.85h-.08c-.73.95-2.07,2.07-4.96,2.07-3.22,0-4.84-1.34-4.84-4.26,0-2.74,1.46-4.09,4.96-4.09h4.84v-1.23c0-2.38-.81-3.25-3.7-3.25-1.65,0-3.58.28-4.68.56l-.34-1.79c1.06-.39,3.02-.78,5.24-.78,4.34,0,5.82,1.51,5.82,5.12v9.49Zm-2.32-6.22h-4.7c-2.18,0-2.8.59-2.8,2.21,0,1.76.78,2.32,2.83,2.32,2.58,0,4.68-1.26,4.68-3.47v-1.06Z"/>
        <path class="cls-2" d="m213.62,155.48c-.39-.08-.73-.2-1.06-.34-2.44-1.04-3.53-3.36-3.53-6.72v-.22c0-3.33,1.06-5.68,3.5-6.72.95-.42,2.13-.62,3.5-.62,1.82,0,3.42.34,4.42.7l-.36,1.9c-1.01-.28-2.46-.48-3.67-.48-1.4,0-2.44.22-3.19.7-1.26.78-1.74,2.21-1.74,4.4v.45c0,2.18.5,3.61,1.76,4.4.76.48,1.82.7,3.19.7,1.23,0,2.69-.22,3.7-.5l.36,1.9c-1.01.36-2.6.73-4.45.73-.34,0-.67-.03-.98-.06l-.06,1.04c1.76.03,2.69.48,2.69,1.88,0,1.62-.95,2.27-3.11,2.27-.95,0-1.71-.2-2.04-.31l.22-1.29c.39.11,1.09.22,1.85.22.98,0,1.29-.25,1.29-.84,0-.78-.56-.95-2.66-.95l.36-2.24Z"/>
        <path class="cls-2" d="m235.12,155.48h-2.1l-.17-1.85h-.08c-.73.95-2.07,2.07-4.96,2.07-3.22,0-4.84-1.34-4.84-4.26,0-2.74,1.46-4.09,4.96-4.09h4.84v-1.23c0-2.38-.81-3.25-3.7-3.25-1.65,0-3.58.28-4.68.56l-.34-1.79c1.06-.39,3.02-.78,5.24-.78,4.34,0,5.82,1.51,5.82,5.12v9.49Zm-5.66-16.86l-.56-.28c-.62-.31-1.15-.59-1.68-.59-.9,0-.9.5-1.01,1.37h-1.9c.11-2.07.7-3.33,2.77-3.33.9,0,1.62.34,2.32.67l.56.28c.62.31,1.15.59,1.68.59.9,0,.9-.5,1.01-1.37h1.9c-.11,2.07-.7,3.33-2.77,3.33-.9,0-1.62-.34-2.32-.67Zm3.33,10.64h-4.7c-2.18,0-2.8.59-2.8,2.21,0,1.76.78,2.32,2.83,2.32,2.58,0,4.68-1.26,4.68-3.47v-1.06Z"/>
        <path class="cls-2" d="m252.88,148.42c0,4.79-2.21,7.34-6.94,7.34s-6.94-2.55-6.94-7.34v-.22c0-4.79,2.21-7.34,6.94-7.34s6.94,2.55,6.94,7.34v.22Zm-2.46-.34c0-2.16-.45-3.67-1.6-4.48-.7-.48-1.62-.73-2.88-.73s-2.18.25-2.88.73c-1.15.81-1.6,2.32-1.6,4.48v.45c0,2.16.45,3.67,1.6,4.48.7.48,1.62.73,2.88.73s2.18-.25,2.88-.73c1.15-.81,1.6-2.32,1.6-4.48v-.45Z"/>
        <path class="cls-2" d="m268.69,146.32c-2.91-.62-5.1-1.74-5.1-5.52,0-3.56,1.93-5.21,7.03-5.21,2.72,0,4.7.48,5.94.95l-.42,1.93c-1.32-.45-3.02-.78-5.32-.78-3.67,0-4.76.84-4.76,3.11,0,2.41,1.26,2.86,3.78,3.39l2.94.62c3.11.64,4.76,1.88,4.76,5.4,0,3.78-1.96,5.54-7.36,5.54-2.72,0-5.1-.45-6.8-1.15l.42-1.93c1.76.67,4.17.98,6.36.98,3.81,0,4.9-1.01,4.9-3.22s-.92-2.97-3.42-3.5l-2.94-.62Z"/>
        <path class="cls-2" d="m281.46,141.14h2.41v8.57c0,2.94.78,3.92,3.53,3.92,3.11,0,3.81-1.76,3.81-4.2v-8.29h2.41v14.34h-2.16l-.2-1.85h-.08c-.59,1.06-1.79,2.13-4.06,2.13-4.12,0-5.66-1.65-5.66-5.88v-8.74Z"/>
        <path class="cls-2" d="m300.81,153.83l-.11.03c.06.7.08,1.46.08,2.18v4.7h-2.41v-19.6h2.1l.22,1.65.08.03c1.04-1.29,2.63-1.96,4.87-1.96,4.31,0,6.55,2.55,6.55,7.34v.22c0,4.79-2.24,7.34-6.55,7.34-2.21,0-3.81-.64-4.84-1.93Zm7.34-.81c1.15-.81,1.6-2.32,1.6-4.48v-.45c0-2.16-.45-3.67-1.6-4.48-.7-.48-1.62-.73-2.88-.73s-2.18.25-2.88.73c-1.15.81-1.6,2.32-1.6,4.48v.45c0,2.16.45,3.67,1.6,4.48.7.48,1.62.73,2.88.73s2.18-.25,2.88-.73Z"/>
        <path class="cls-2" d="m317.8,148.79c.06,1.96.62,3.22,1.71,4,.92.64,2.18.95,3.92.95,1.62,0,3.19-.31,4.26-.7l.36,1.82c-1.04.48-2.91.9-4.84.9-5.01,0-7.81-1.9-7.81-7.56v-.22c0-4.56,2.27-7.11,6.86-7.11s6.36,2.38,6.36,6.33v1.6h-10.81Zm.03-1.93h8.43v-.25c0-1.51-.42-2.55-1.34-3.14-.67-.42-1.51-.64-2.66-.64-1.2,0-2.04.22-2.74.64-1.04.67-1.54,1.79-1.68,3.39Z"/>
        <path class="cls-2" d="m340.43,143.38c-.31-.03-.92-.06-1.32-.06-3.39,0-4.17,1.54-4.17,3.78v8.37h-2.41v-14.34h2.13l.22,2.24h.08c.67-1.34,1.74-2.35,4.12-2.35.53,0,1.04.06,1.34.11v2.24Z"/>
        <path class="cls-2" d="m346.31,138.6h-2.46v-3.14h2.46v3.14Zm-.03,16.88h-2.41v-14.34h2.41v14.34Z"/>
        <path class="cls-2" d="m364.23,148.42c0,4.79-2.21,7.34-6.94,7.34s-6.94-2.55-6.94-7.34v-.22c0-4.79,2.21-7.34,6.94-7.34s6.94,2.55,6.94,7.34v.22Zm-2.46-.34c0-2.16-.45-3.67-1.6-4.48-.7-.48-1.62-.73-2.88-.73s-2.18.25-2.88.73c-1.15.81-1.6,2.32-1.6,4.48v.45c0,2.16.45,3.67,1.6,4.48.7.48,1.62.73,2.88.73s2.18-.25,2.88-.73c1.15-.81,1.6-2.32,1.6-4.48v-.45Z"/>
        <path class="cls-2" d="m376.1,143.38c-.31-.03-.92-.06-1.32-.06-3.39,0-4.17,1.54-4.17,3.78v8.37h-2.41v-14.34h2.13l.22,2.24h.08c.67-1.34,1.74-2.35,4.12-2.35.53,0,1.04.06,1.34.11v2.24Z"/>
      </g>
      <rect class="cls-3" y="276.5" width="461" height="202.53" rx="32.78" ry="32.78"/>
      <line class="cls-1" x1="80.25" y1="267.5" x2="380.75" y2="267.5"/>
      <line class="cls-1" x1="80.25" y1="488.5" x2="380.75" y2="488.5"/>
      <g>
        <path class="cls-2" d="m201.97,359.36c0-4.26,1.23-7.44,3.99-9.18,1.56-.96,3.6-1.47,6.24-1.47s4.92.48,6.36,1.08l-.66,2.79c-1.53-.48-3.21-.72-5.13-.72s-3.51.33-4.59,1.05c-1.71,1.14-2.46,3.24-2.46,6.33v.54c0,3.06.75,5.16,2.46,6.3,1.11.75,2.61,1.08,4.68,1.08,1.92,0,3.63-.27,5.16-.75l.66,2.79c-1.47.63-3.81,1.11-6.39,1.11s-4.74-.51-6.33-1.5c-2.73-1.74-3.99-4.92-3.99-9.15v-.3Z"/>
        <path class="cls-2" d="m222.61,349.01h9.27c5.76,0,7.77,2.31,7.77,6.69s-2.01,6.87-7.77,6.87h-5.61v7.44h-3.66v-21Zm3.66,3v7.62h5.31c3.3,0,4.35-1.05,4.35-3.81s-1.02-3.81-4.35-3.81h-5.31Z"/>
        <path class="cls-2" d="m242.74,359.36c0-4.26,1.23-7.44,3.99-9.18,1.56-.96,3.6-1.47,6.24-1.47s4.92.48,6.36,1.08l-.66,2.79c-1.53-.48-3.21-.72-5.13-.72s-3.51.33-4.59,1.05c-1.71,1.14-2.46,3.24-2.46,6.33v.54c0,3.06.75,5.16,2.46,6.3,1.11.75,2.61,1.08,4.68,1.08,1.92,0,3.63-.27,5.16-.75l.66,2.79c-1.47.63-3.81,1.11-6.39,1.11s-4.74-.51-6.33-1.5c-2.73-1.74-3.99-4.92-3.99-9.15v-.3Z"/>
        <path class="cls-2" d="m37.26,395.1c0-3.81,1.04-6.75,3.42-8.43,1.4-.98,3.28-1.54,5.77-1.54s4.45.48,5.77,1.06l-.48,1.99c-1.43-.5-3.11-.81-4.98-.81-2.02,0-3.39.39-4.42,1.12-1.74,1.23-2.46,3.44-2.46,6.5v.45c0,3.05.76,5.26,2.49,6.5,1.04.73,2.44,1.12,4.51,1.12,1.9,0,3.56-.31,4.98-.81l.48,1.99c-1.37.62-3.3,1.06-5.77,1.06s-4.45-.56-5.85-1.54c-2.41-1.68-3.44-4.7-3.44-8.43v-.22Z"/>
        <path class="cls-2" d="m69.12,397.95c0,4.79-2.21,7.34-6.94,7.34s-6.94-2.55-6.94-7.34v-.22c0-4.79,2.21-7.34,6.94-7.34s6.94,2.55,6.94,7.34v.22Zm-2.46-.34c0-2.16-.45-3.67-1.6-4.48-.7-.48-1.62-.73-2.88-.73s-2.18.25-2.88.73c-1.15.81-1.6,2.32-1.6,4.48v.45c0,2.16.45,3.67,1.6,4.48.7.48,1.62.73,2.88.73s2.18-.25,2.88-.73c1.15-.81,1.6-2.32,1.6-4.48v-.45Z"/>
        <path class="cls-2" d="m85.42,405.01h-2.41v-8.68c0-2.86-.76-3.81-3.61-3.81-3.11,0-3.89,1.51-3.89,4.09v8.4h-2.41v-14.34h2.13l.22,1.96h.08c.56-1.18,1.82-2.24,4.56-2.24,4.17,0,5.32,1.93,5.32,5.77v8.85Z"/>
        <path class="cls-2" d="m91.75,398.06c0,2.18.5,3.61,1.76,4.4.76.48,1.82.7,3.19.7,1.23,0,2.69-.22,3.7-.5l.36,1.9c-1.01.36-2.6.73-4.45.73-1.37,0-2.55-.22-3.5-.62-2.44-1.04-3.53-3.36-3.53-6.72v-.22c0-3.33,1.06-5.68,3.5-6.72.95-.42,2.13-.62,3.5-.62,1.82,0,3.42.34,4.42.7l-.36,1.9c-1.01-.28-2.46-.48-3.67-.48-1.4,0-2.44.22-3.19.7-1.26.78-1.74,2.21-1.74,4.4v.45Z"/>
        <path class="cls-2" d="m105.55,398.32c.06,1.96.62,3.22,1.71,4,.92.64,2.18.95,3.92.95,1.62,0,3.19-.31,4.26-.7l.36,1.82c-1.04.48-2.91.9-4.84.9-5.01,0-7.81-1.9-7.81-7.56v-.22c0-4.56,2.27-7.11,6.86-7.11s6.36,2.38,6.36,6.33v1.6h-10.81Zm.03-1.93h8.43v-.25c0-1.51-.42-2.55-1.34-3.14-.67-.42-1.51-.64-2.66-.64-1.2,0-2.04.22-2.74.64-1.04.67-1.54,1.79-1.68,3.39Z"/>
        <path class="cls-2" d="m122.8,388.12h-2.46v-3.14h2.46v3.14Zm-.03,16.88h-2.41v-14.34h2.41v14.34Z"/>
        <path class="cls-2" d="m128.54,400.95v-8.4h-2.58v-1.88h2.66l.11-4.23h2.16v4.23h4.54v1.88h-4.51v8.06c0,2.04.56,2.6,2.69,2.6.62,0,1.43-.06,1.88-.14v1.82c-.48.14-1.37.28-2.18.28-3.47,0-4.76-1.15-4.76-4.23Z"/>
        <path class="cls-2" d="m151.75,397.95c0,4.79-2.21,7.34-6.94,7.34s-6.94-2.55-6.94-7.34v-.22c0-4.79,2.21-7.34,6.94-7.34s6.94,2.55,6.94,7.34v.22Zm-2.46-.34c0-2.16-.45-3.67-1.6-4.48-.7-.48-1.62-.73-2.88-.73s-2.18.25-2.88.73c-1.15.81-1.6,2.32-1.6,4.48v.45c0,2.16.45,3.67,1.6,4.48.7.48,1.62.73,2.88.73s2.18-.25,2.88-.73c1.15-.81,1.6-2.32,1.6-4.48v-.45Z"/>
        <path class="cls-2" d="m163.34,385.41h8.23c5.18,0,6.89,2.18,6.89,6.02s-1.71,6.22-6.89,6.22h-5.71v7.36h-2.52v-19.6Zm2.52,2.18v7.92h5.57c3.36,0,4.45-1.2,4.45-3.98s-1.06-3.95-4.45-3.95h-5.57Z"/>
        <path class="cls-2" d="m190.14,392.91c-.31-.03-.92-.06-1.32-.06-3.39,0-4.17,1.54-4.17,3.78v8.37h-2.41v-14.34h2.13l.22,2.24h.08c.67-1.34,1.74-2.35,4.12-2.35.53,0,1.04.06,1.34.11v2.24Z"/>
        <path class="cls-2" d="m194.84,398.32c.06,1.96.62,3.22,1.71,4,.92.64,2.18.95,3.92.95,1.62,0,3.19-.31,4.26-.7l.36,1.82c-1.04.48-2.91.9-4.84.9-5.01,0-7.81-1.9-7.81-7.56v-.22c0-4.56,2.27-7.11,6.86-7.11s6.36,2.38,6.36,6.33v1.6h-10.81Zm.03-1.93h8.43v-.25c0-1.51-.42-2.55-1.34-3.14-.67-.42-1.51-.64-2.66-.64-1.2,0-2.04.22-2.74.64-1.04.67-1.54,1.79-1.68,3.39Z"/>
        <path class="cls-2" d="m212.06,401.42c0,1.34.36,1.62,1.6,1.62.39,0,.84-.03,1.04-.06v1.96c-.31.08-.92.17-1.62.17-2.55,0-3.42-.92-3.42-3.22v-17.33h2.41v16.86Z"/>
        <path class="cls-2" d="m220.27,388.12h-2.46v-3.14h2.46v3.14Zm-.03,16.88h-2.41v-14.34h2.41v14.34Z"/>
        <path class="cls-2" d="m246.42,405.01h-2.41v-8.74c0-2.8-.78-3.75-3.42-3.75-2.86,0-3.64,1.51-3.64,4.03v8.46h-2.41v-8.74c0-2.8-.78-3.75-3.42-3.75-2.86,0-3.64,1.51-3.64,4.03v8.46h-2.41v-14.34h2.13l.22,1.96h.08c.56-1.18,1.82-2.24,4.31-2.24s4.03.78,4.7,2.32h.08c.56-1.18,1.82-2.32,4.48-2.32,4.26,0,5.32,1.93,5.32,5.71v8.9Z"/>
        <path class="cls-2" d="m253.59,388.12h-2.46v-3.14h2.46v3.14Zm-.03,16.88h-2.41v-14.34h2.41v14.34Z"/>
        <path class="cls-2" d="m270.72,405.01h-2.41v-8.68c0-2.86-.76-3.81-3.61-3.81-3.11,0-3.89,1.51-3.89,4.09v8.4h-2.41v-14.34h2.13l.22,1.96h.08c.56-1.18,1.82-2.24,4.56-2.24,4.17,0,5.32,1.93,5.32,5.77v8.85Z"/>
        <path class="cls-2" d="m286.6,405.01h-2.1l-.17-1.85h-.08c-.73.95-2.07,2.07-4.96,2.07-3.22,0-4.84-1.34-4.84-4.26,0-2.74,1.46-4.09,4.96-4.09h4.84v-1.23c0-2.38-.81-3.25-3.7-3.25-1.65,0-3.58.28-4.68.56l-.34-1.79c1.06-.39,3.02-.78,5.24-.78,4.34,0,5.82,1.51,5.82,5.12v9.49Zm-2.32-6.22h-4.7c-2.18,0-2.8.59-2.8,2.21,0,1.76.78,2.32,2.83,2.32,2.58,0,4.68-1.26,4.68-3.47v-1.06Z"/>
        <path class="cls-2" d="m299.14,392.91c-.31-.03-.92-.06-1.32-.06-3.39,0-4.17,1.54-4.17,3.78v8.37h-2.41v-14.34h2.13l.22,2.24h.08c.67-1.34,1.74-2.35,4.12-2.35.53,0,1.04.06,1.34.11v2.24Z"/>
        <path class="cls-2" d="m309,397.95v-.22c0-4.79,2.24-7.34,6.55-7.34,2.21,0,3.81.67,4.84,1.96l.11-.06c-.06-.7-.08-1.46-.08-2.18v-5.54h2.41v20.44h-2.1l-.22-1.65-.11-.03c-1.04,1.29-2.63,1.96-4.84,1.96-4.31,0-6.55-2.55-6.55-7.34Zm9.83,4.59c1.15-.81,1.6-2.32,1.6-4.48v-.45c0-2.16-.45-3.67-1.6-4.48-.7-.48-1.62-.73-2.88-.73s-2.18.25-2.88.73c-1.15.81-1.6,2.32-1.6,4.48v.45c0,2.16.45,3.67,1.6,4.48.7.48,1.62.73,2.88.73s2.18-.25,2.88-.73Z"/>
        <path class="cls-2" d="m329.24,398.32c.06,1.96.62,3.22,1.71,4,.92.64,2.18.95,3.92.95,1.62,0,3.19-.31,4.26-.7l.36,1.82c-1.04.48-2.91.9-4.84.9-5.01,0-7.81-1.9-7.81-7.56v-.22c0-4.56,2.27-7.11,6.86-7.11s6.36,2.38,6.36,6.33v1.6h-10.81Zm.03-1.93h8.43v-.25c0-1.51-.42-2.55-1.34-3.14-.67-.42-1.51-.64-2.66-.64-1.2,0-2.04.22-2.74.64-1.04.67-1.54,1.79-1.68,3.39Z"/>
        <path class="cls-2" d="m350.72,395.1c0-3.81,1.04-6.75,3.42-8.43,1.4-.98,3.28-1.54,5.77-1.54s4.45.48,5.77,1.06l-.48,1.99c-1.43-.5-3.11-.81-4.98-.81-2.02,0-3.39.39-4.42,1.12-1.74,1.23-2.46,3.44-2.46,6.5v.45c0,3.05.76,5.26,2.49,6.5,1.04.73,2.44,1.12,4.51,1.12,1.9,0,3.56-.31,4.98-.81l.48,1.99c-1.37.62-3.3,1.06-5.77,1.06s-4.45-.56-5.85-1.54c-2.41-1.68-3.44-4.7-3.44-8.43v-.22Z"/>
        <path class="cls-2" d="m369.25,390.67h2.41v8.57c0,2.94.78,3.92,3.53,3.92,3.11,0,3.81-1.76,3.81-4.2v-8.29h2.41v14.34h-2.16l-.2-1.85h-.08c-.59,1.06-1.79,2.13-4.06,2.13-4.12,0-5.66-1.65-5.66-5.88v-8.74Z"/>
        <path class="cls-2" d="m394.06,392.91c-.31-.03-.92-.06-1.32-.06-3.39,0-4.17,1.54-4.17,3.78v8.37h-2.41v-14.34h2.13l.22,2.24h.08c.67-1.34,1.74-2.35,4.12-2.35.53,0,1.04.06,1.34.11v2.24Z"/>
        <path class="cls-2" d="m396.42,404.59l.36-1.85c1.34.42,3,.62,4.59.62,2.77,0,3.53-.48,3.53-2.16s-.78-1.85-2.3-2.18l-2.13-.48c-2.32-.53-4.09-1.18-4.09-4.12s1.57-4.03,5.46-4.03c1.99,0,3.81.31,4.76.62l-.36,1.85c-1.04-.31-2.44-.53-4.23-.53-2.52,0-3.28.42-3.28,2.02,0,1.68.9,1.88,2.52,2.24l2.13.48c2.49.56,3.86,1.29,3.86,4.06,0,3.05-1.57,4.17-5.68,4.17-2.18,0-4.03-.31-5.15-.7Z"/>
        <path class="cls-2" d="m424,397.95c0,4.79-2.21,7.34-6.94,7.34s-6.94-2.55-6.94-7.34v-.22c0-4.79,2.21-7.34,6.94-7.34s6.94,2.55,6.94,7.34v.22Zm-2.46-.34c0-2.16-.45-3.67-1.6-4.48-.7-.48-1.62-.73-2.88-.73s-2.18.25-2.88.73c-1.15.81-1.6,2.32-1.6,4.48v.45c0,2.16.45,3.67,1.6,4.48.7.48,1.62.73,2.88.73s2.18-.25,2.88-.73c1.15-.81,1.6-2.32,1.6-4.48v-.45Z"/>
      </g>
    </g>
  </g>
</svg>