<?xml version="1.0" encoding="UTF-8"?>
<svg id="Layer_2" data-name="Layer 2" xmlns="http://www.w3.org/2000/svg" viewBox="0 0 980 372.5">
  <defs>
    <style>
      .cls-1 {
        fill: #e5669b;
      }

      .cls-2 {
        fill: #fff;
      }

      .cls-3 {
        fill: #950048;
      }

      .cls-4 {
        fill: #d30058;
      }
    </style>
  </defs>
  <g id="Camada_1" data-name="Camada 1">
    <g>
      <path class="cls-3" d="m950.44,22.5H266.13v3h684.31c14.64,0,26.56,11.91,26.56,26.56v290.89c0,14.64-11.91,26.56-26.56,26.56H29.56c-14.64,0-26.56-11.91-26.56-26.56V52.06c0-14.64,11.91-26.56,26.56-26.56h18.8v-3h-18.8C13.26,22.5,0,35.76,0,52.06v290.89c0,16.3,13.26,29.56,29.56,29.56h920.89c16.3,0,29.56-13.26,29.56-29.56V52.06c0-16.3-13.26-29.56-29.56-29.56Z"/>
      <rect class="cls-3" x="34" y="69" width="218" height="271" rx="43.11" ry="43.11"/>
      <g>
        <path class="cls-2" d="m69.78,181h2.51v2.81h-2.51v3.47h-3.66v-3.47h-8.35v-2.55l8.14-10.07h3.86v9.82Zm-8.46.02h4.87v-5.96h-.07l-4.81,5.96Z"/>
        <path class="cls-2" d="m88.34,179v.46c0,5.31-2.28,8.05-7.13,8.05s-7.11-2.74-7.11-8.05v-.46c0-5.31,2.28-8.05,7.11-8.05s7.13,2.74,7.13,8.05Zm-3.79.67v-.87c0-3.31-.83-4.97-3.33-4.97s-3.31,1.66-3.31,4.97v.87c0,3.31.8,4.97,3.31,4.97s3.33-1.66,3.33-4.97Z"/>
        <path class="cls-2" d="m111.68,179.02v.16c0,2.25-.8,4.12-2.05,5.47h2.39v2.62h-8.42c-5.31,0-8.07-2.6-8.07-8.05v-.14c0-5.52,2.76-8.14,8.07-8.14s8.07,2.62,8.07,8.07Zm-5.47,4.69c1.22-.8,1.66-2.25,1.66-4.39v-.32c0-2.14-.44-3.66-1.66-4.44-.64-.41-1.5-.64-2.6-.64s-1.96.23-2.6.64c-1.22.78-1.66,2.3-1.66,4.44v.32c0,2.14.44,3.59,1.66,4.39.64.41,1.49.62,2.6.62s1.95-.21,2.6-.62Z"/>
        <path class="cls-2" d="m117.07,186.7c-1.82-.92-2.62-2.64-2.62-5.31v-10.21h3.79v9.96c0,2.41.87,3.2,3.4,3.2s3.43-.78,3.43-3.2v-9.96h3.66v10.21c0,2.67-.76,4.39-2.58,5.31-1.15.58-2.62.8-4.55.8s-3.38-.23-4.53-.8Z"/>
        <path class="cls-2" d="m132.04,171.18h12.21v3.01h-8.51v3.31h7.56v2.99h-7.56v3.77h8.71v3.01h-12.42v-16.1Z"/>
        <path class="cls-2" d="m150.9,180.4c-2.83-.6-4.46-1.66-4.46-4.83s1.82-4.62,6.39-4.62c2.35,0,4.42.35,5.79.78l-.64,2.74c-1.15-.34-2.81-.55-4.76-.55-2.44,0-3.15.34-3.15,1.61s.74,1.52,2.55,1.89l2.28.48c3.01.62,4.37,1.56,4.37,4.67,0,3.77-2.07,4.94-6.65,4.94-2.64,0-4.81-.39-6.19-.9l.6-2.71c1.61.46,3.7.64,5.38.64,2.23,0,3.2-.39,3.2-1.75,0-1.24-.71-1.56-2.44-1.93l-2.28-.46Z"/>
        <path class="cls-2" d="m169.32,174.19v13.08h-3.73v-13.08h-4.92v-3.01h13.57v3.01h-4.92Z"/>
        <path class="cls-2" d="m191.81,179.11v.23c0,5.52-2.76,8.16-8.07,8.16s-8.07-2.64-8.07-8.16v-.23c0-5.52,2.76-8.16,8.07-8.16s8.07,2.64,8.07,8.16Zm-7.96-9.63l-.46-.28c-.44-.23-.81-.41-1.27-.41-.67,0-.85.41-.92,1.08h-2.23c.14-2.28.87-3.5,2.83-3.5.71,0,1.33.25,1.82.53l.48.25c.44.23.8.44,1.26.44.67,0,.85-.39.92-1.1h2.23c-.16,2.3-.87,3.52-2.83,3.52-.71,0-1.33-.28-1.84-.53Zm2.48,14.42c1.22-.78,1.66-2.32,1.66-4.46v-.41c0-2.14-.44-3.68-1.66-4.46-.64-.41-1.5-.64-2.6-.64s-1.96.23-2.6.64c-1.22.78-1.66,2.32-1.66,4.46v.41c0,2.14.44,3.68,1.66,4.46.64.41,1.49.64,2.6.64s1.95-.23,2.6-.64Z"/>
        <path class="cls-2" d="m194.65,171.18h12.21v3.01h-8.51v3.31h7.56v2.99h-7.56v3.77h8.71v3.01h-12.42v-16.1Z"/>
        <path class="cls-2" d="m213.5,180.4c-2.83-.6-4.46-1.66-4.46-4.83s1.82-4.62,6.39-4.62c2.35,0,4.42.35,5.79.78l-.64,2.74c-1.15-.34-2.81-.55-4.76-.55-2.44,0-3.15.34-3.15,1.61s.74,1.52,2.55,1.89l2.28.48c3.01.62,4.37,1.56,4.37,4.67,0,3.77-2.07,4.94-6.65,4.94-2.64,0-4.81-.39-6.19-.9l.6-2.71c1.61.46,3.7.64,5.38.64,2.23,0,3.2-.39,3.2-1.75,0-1.24-.71-1.56-2.44-1.93l-2.28-.46Z"/>
        <path class="cls-2" d="m62.38,205.88c1.81,0,2.77-.46,2.77-2.44s-.99-2.52-3.4-2.52c-1.41,0-2.69.19-3.53.44l-.31-1.39c.84-.34,2.35-.61,4.01-.61,3.44,0,5.06,1.15,5.06,3.91,0,2.02-.86,2.94-2.02,3.21v.04c1.3.29,2.29,1.2,2.29,3.44,0,3.32-2.18,4.51-5.4,4.51-1.81,0-3.55-.38-4.18-.63l.32-1.39c.69.23,2.29.46,3.67.46,2.44,0,3.72-.69,3.72-2.98,0-2.02-.95-2.56-3.04-2.56h-1.89v-1.51h1.93Z"/>
        <path class="cls-2" d="m72.86,206.51v-.06c-1.87-1.01-2.67-2.06-2.67-3.57,0-1.99,1.41-3.51,4.89-3.51s5.1,1.34,5.1,3.7c0,1.53-.9,2.86-2.73,3.7v.06c2.1,1.01,3.23,1.91,3.23,3.74,0,2.56-2.02,3.93-5.4,3.93s-5.61-1.3-5.61-3.91c0-1.93,1.2-3.3,3.17-4.07Zm1.64.71c-2.44.78-2.94,2.31-2.94,3.25,0,1.62,1.32,2.5,3.76,2.5,2.16,0,3.42-.8,3.42-2.39s-1.18-1.95-3.51-3.02l-.74-.34Zm.71-1.45l.69.34c1.89-.82,2.46-1.78,2.46-3,0-1.43-.82-2.27-3.21-2.27-2.08,0-3.04.78-3.04,1.97s.69,1.85,3.11,2.96Z"/>
        <path class="cls-2" d="m98.94,208.98c0,3.59-1.66,5.5-5.21,5.5s-5.21-1.91-5.21-5.5v-.17c0-3.59,1.66-5.5,5.21-5.5s5.21,1.91,5.21,5.5v.17Zm-1.85-.25c0-1.62-.34-2.75-1.2-3.36-.53-.36-1.22-.55-2.16-.55s-1.64.19-2.16.55c-.86.61-1.2,1.74-1.2,3.36v.34c0,1.62.34,2.75,1.2,3.36.52.36,1.22.55,2.16.55s1.64-.19,2.16-.55c.86-.61,1.2-1.74,1.2-3.36v-.34Z"/>
        <path class="cls-2" d="m103.75,213.01l-.06.02-.17,1.24h-1.57v-15.33h1.81v4.16c0,.55-.02,1.11-.06,1.64l.08.04c.78-.97,1.97-1.47,3.63-1.47,3.23,0,4.91,1.91,4.91,5.5v.17c0,3.59-1.68,5.5-4.91,5.5-1.68,0-2.88-.5-3.65-1.47Zm5.52-.59c.86-.61,1.2-1.74,1.2-3.36v-.34c0-1.62-.34-2.75-1.2-3.36-.53-.36-1.22-.55-2.16-.55s-1.64.19-2.16.55c-.86.61-1.2,1.74-1.2,3.36v.34c0,1.62.34,2.75,1.2,3.36.53.36,1.22.55,2.16.55s1.64-.19,2.16-.55Z"/>
        <path class="cls-2" d="m117.16,215.43c0,2.21-.73,2.92-2.98,2.92-.46,0-.99-.08-1.3-.17v-1.45c.25.04.67.06.95.06,1.32,0,1.53-.48,1.53-1.64v-11.63h1.81v11.9Zm.02-13.82h-1.85v-2.35h1.85v2.35Z"/>
        <path class="cls-2" d="m122.02,209.26c.04,1.47.46,2.42,1.28,3,.69.48,1.64.71,2.94.71,1.22,0,2.39-.23,3.19-.53l.27,1.37c-.78.36-2.18.67-3.63.67-3.76,0-5.86-1.43-5.86-5.67v-.17c0-3.42,1.7-5.33,5.14-5.33s4.77,1.78,4.77,4.75v1.2h-8.1Zm.02-1.45h6.32v-.19c0-1.13-.31-1.91-1.01-2.35-.5-.31-1.13-.48-1.99-.48s-1.53.17-2.06.48c-.78.5-1.16,1.34-1.26,2.54Z"/>
        <path class="cls-2" d="m133.65,211.23v-6.3h-1.93v-1.41h2l.08-3.17h1.62v3.17h3.4v1.41h-3.38v6.05c0,1.53.42,1.95,2.02,1.95.46,0,1.07-.04,1.41-.11v1.37c-.36.1-1.03.21-1.64.21-2.6,0-3.57-.86-3.57-3.17Z"/>
        <path class="cls-2" d="m143.37,201.61h-1.85v-2.35h1.85v2.35Zm-.02,12.66h-1.81v-10.75h1.81v10.75Z"/>
        <path class="cls-2" d="m151.81,214.27h-1.95l-4.2-10.75h1.89l2.54,6.72c.36.94.54,1.55.76,2.37h.06c.21-.82.4-1.45.76-2.37l2.65-6.72h1.83l-4.33,10.75Z"/>
        <path class="cls-2" d="m166.51,214.27h-1.58l-.12-1.39h-.06c-.55.71-1.55,1.55-3.72,1.55-2.42,0-3.63-1.01-3.63-3.19,0-2.06,1.09-3.07,3.72-3.07h3.63v-.92c0-1.79-.61-2.44-2.77-2.44-1.24,0-2.69.21-3.51.42l-.25-1.34c.8-.29,2.27-.59,3.93-.59,3.25,0,4.37,1.13,4.37,3.84v7.12Zm-1.74-4.66h-3.53c-1.64,0-2.1.44-2.1,1.66,0,1.32.59,1.74,2.12,1.74,1.93,0,3.51-.95,3.51-2.6v-.8Z"/>
        <path class="cls-2" d="m169.24,213.96l.27-1.39c1.01.32,2.25.46,3.44.46,2.08,0,2.65-.36,2.65-1.62s-.59-1.39-1.72-1.64l-1.6-.36c-1.74-.4-3.07-.88-3.07-3.09s1.18-3.02,4.09-3.02c1.49,0,2.86.23,3.57.46l-.27,1.39c-.78-.23-1.83-.4-3.17-.4-1.89,0-2.46.32-2.46,1.51,0,1.26.67,1.41,1.89,1.68l1.6.36c1.87.42,2.9.97,2.9,3.04,0,2.29-1.18,3.13-4.26,3.13-1.64,0-3.02-.23-3.86-.53Z"/>
        <path class="cls-2" d="m70.27,233.78v.29c0,4.93-2.04,7.41-6.03,7.41s-6.03-2.48-6.03-7.41v-.29c0-4.93,2.04-7.41,6.03-7.41s6.03,2.48,6.03,7.41Zm-1.91.48v-.67c0-3.7-1.15-5.67-4.12-5.67s-4.12,1.97-4.12,5.67v.67c0,3.7,1.16,5.67,4.12,5.67s4.12-1.97,4.12-5.67Z"/>
        <path class="cls-2" d="m72.81,231.34c-.15-.31-.23-.92-.23-1.45,0-2.56,2.08-3.53,4.83-3.53,3.65,0,4.98,1.55,4.98,3.86,0,3.82-4.22,7.16-7.18,9.41l.02.04h7.35v1.6h-10.04v-1.47c3.82-3.09,7.92-6.34,7.92-9.53,0-1.2-.61-1.83-1.49-2.14-.42-.15-.92-.21-1.58-.21s-1.13.06-1.55.21c-.76.27-1.37.73-1.37,2.06,0,.4.02.76.13,1.15h-1.78Z"/>
        <path class="cls-2" d="m90.37,235.98v-.17c0-3.59,1.68-5.5,4.91-5.5,1.66,0,2.86.5,3.63,1.47l.08-.04c-.04-.53-.06-1.09-.06-1.64v-4.16h1.81v15.33h-1.58l-.17-1.24-.08-.02c-.78.97-1.97,1.47-3.63,1.47-3.23,0-4.91-1.91-4.91-5.5Zm7.37,3.44c.86-.61,1.2-1.74,1.2-3.36v-.34c0-1.62-.34-2.75-1.2-3.36-.52-.36-1.22-.55-2.16-.55s-1.64.19-2.16.55c-.86.61-1.2,1.74-1.2,3.36v.34c0,1.62.34,2.75,1.2,3.36.53.36,1.22.55,2.16.55s1.64-.19,2.16-.55Z"/>
        <path class="cls-2" d="m106.22,228.61h-1.85v-2.35h1.85v2.35Zm-.02,12.66h-1.81v-10.75h1.81v10.75Z"/>
        <path class="cls-2" d="m109.08,240.96l.27-1.39c1.01.32,2.25.46,3.44.46,2.08,0,2.65-.36,2.65-1.62s-.59-1.39-1.72-1.64l-1.6-.36c-1.74-.4-3.07-.88-3.07-3.09s1.18-3.02,4.09-3.02c1.49,0,2.86.23,3.57.46l-.27,1.39c-.78-.23-1.83-.4-3.17-.4-1.89,0-2.46.32-2.46,1.51,0,1.26.67,1.41,1.89,1.68l1.6.36c1.87.42,2.9.97,2.9,3.04,0,2.29-1.18,3.13-4.26,3.13-1.64,0-3.02-.23-3.86-.53Z"/>
        <path class="cls-2" d="m121.2,236.07c0,1.64.38,2.71,1.32,3.3.57.36,1.36.53,2.39.53.92,0,2.02-.17,2.77-.38l.27,1.43c-.76.27-1.95.55-3.34.55-1.03,0-1.91-.17-2.62-.46-1.83-.78-2.65-2.52-2.65-5.04v-.17c0-2.5.8-4.26,2.62-5.04.71-.32,1.6-.46,2.62-.46,1.36,0,2.56.25,3.32.52l-.27,1.43c-.76-.21-1.85-.36-2.75-.36-1.05,0-1.83.17-2.39.52-.95.59-1.3,1.66-1.3,3.3v.34Z"/>
        <path class="cls-2" d="m130.52,230.52h1.81v6.42c0,2.2.59,2.94,2.65,2.94,2.33,0,2.86-1.32,2.86-3.15v-6.21h1.81v10.75h-1.62l-.15-1.39h-.06c-.44.8-1.34,1.6-3.04,1.6-3.09,0-4.24-1.24-4.24-4.41v-6.55Z"/>
        <path class="cls-2" d="m149.13,232.2c-.23-.02-.69-.04-.99-.04-2.54,0-3.13,1.15-3.13,2.83v6.28h-1.81v-10.75h1.6l.17,1.68h.06c.5-1.01,1.3-1.76,3.09-1.76.4,0,.78.04,1.01.08v1.68Z"/>
        <path class="cls-2" d="m150.89,240.96l.27-1.39c1.01.32,2.25.46,3.44.46,2.08,0,2.65-.36,2.65-1.62s-.59-1.39-1.72-1.64l-1.6-.36c-1.74-.4-3.07-.88-3.07-3.09s1.18-3.02,4.09-3.02c1.49,0,2.86.23,3.57.46l-.27,1.39c-.78-.23-1.83-.4-3.17-.4-1.89,0-2.46.32-2.46,1.51,0,1.26.67,1.41,1.89,1.68l1.6.36c1.87.42,2.9.97,2.9,3.04,0,2.29-1.18,3.13-4.26,3.13-1.64,0-3.02-.23-3.86-.53Z"/>
        <path class="cls-2" d="m163.74,228.61h-1.85v-2.35h1.85v2.35Zm-.02,12.66h-1.81v-10.75h1.81v10.75Z"/>
        <path class="cls-2" d="m172.18,241.27h-1.95l-4.2-10.75h1.89l2.54,6.72c.36.94.54,1.55.76,2.37h.06c.21-.82.4-1.45.76-2.37l2.65-6.72h1.83l-4.33,10.75Z"/>
        <path class="cls-2" d="m186.88,241.27h-1.58l-.12-1.39h-.06c-.55.71-1.55,1.55-3.72,1.55-2.42,0-3.63-1.01-3.63-3.19,0-2.06,1.09-3.07,3.72-3.07h3.63v-.92c0-1.79-.61-2.44-2.77-2.44-1.24,0-2.69.21-3.51.42l-.25-1.34c.8-.29,2.27-.59,3.93-.59,3.25,0,4.37,1.13,4.37,3.84v7.12Zm-1.74-4.66h-3.53c-1.64,0-2.1.44-2.1,1.66,0,1.32.59,1.74,2.12,1.74,1.93,0,3.51-.95,3.51-2.6v-.8Z"/>
        <path class="cls-2" d="m189.62,240.96l.27-1.39c1.01.32,2.25.46,3.44.46,2.08,0,2.65-.36,2.65-1.62s-.59-1.39-1.72-1.64l-1.6-.36c-1.74-.4-3.07-.88-3.07-3.09s1.18-3.02,4.09-3.02c1.49,0,2.86.23,3.57.46l-.27,1.39c-.78-.23-1.83-.4-3.17-.4-1.89,0-2.46.32-2.46,1.51,0,1.26.67,1.41,1.89,1.68l1.6.36c1.87.42,2.9.97,2.9,3.04,0,2.29-1.18,3.13-4.26,3.13-1.64,0-3.02-.23-3.86-.53Z"/>
      </g>
      <g>
        <path class="cls-3" d="m63.8,12.85h8.58c5.17,0,7.07,1.98,7.07,6.06s-1.9,6.16-7.07,6.16h-4.42v5.98h-4.16V12.85Zm4.16,3.3v5.72h4c2.55,0,3.28-.73,3.28-2.86s-.7-2.86-3.28-2.86h-4Z"/>
        <path class="cls-3" d="m90.09,24.89h-3.59v6.16h-4.16V12.85h8.61c5.25,0,7.05,2.03,7.05,5.98,0,2.96-1.17,4.86-3.77,5.64l4.47,6.58h-4.45l-4.16-6.16Zm-3.59-8.76v5.51h4.08c2.52,0,3.25-.68,3.25-2.76s-.73-2.76-3.25-2.76h-4.08Z"/>
        <path class="cls-3" d="m118.74,21.82v.26c0,6.24-3.12,9.23-9.13,9.23s-9.13-2.99-9.13-9.23v-.26c0-6.24,3.12-9.23,9.13-9.23s9.13,2.99,9.13,9.23Zm-6.19,5.41c1.38-.88,1.87-2.63,1.87-5.04v-.47c0-2.42-.49-4.16-1.87-5.04-.73-.47-1.69-.73-2.94-.73s-2.21.26-2.94.73c-1.38.88-1.87,2.63-1.87,5.04v.47c0,2.42.49,4.16,1.87,5.04.73.47,1.69.73,2.94.73s2.21-.26,2.94-.73Z"/>
        <path class="cls-3" d="m119.91,12.85h4.39l3.46,9.78c.49,1.46.91,2.94,1.22,4.39h.1c.34-1.46.75-2.94,1.25-4.37l3.43-9.8h4.26l-6.97,18.2h-4.21l-6.94-18.2Z"/>
        <path class="cls-3" d="m155.45,31.05h-4.34l-1.53-4.16h-7.12l-1.53,4.16h-4.13l7.28-18.2h4.16l7.23,18.2Zm-11.8-7.36h4.73l-1.01-2.78c-.47-1.27-.91-2.7-1.3-4.19h-.1c-.36,1.48-.81,2.89-1.27,4.19l-1.04,2.78Z"/>
        <path class="cls-3" d="m163.27,12.85h13.81v3.41h-9.62v3.74h8.55v3.38h-8.55v4.26h9.85v3.41h-14.04V12.85Z"/>
        <path class="cls-3" d="m196.58,31.05h-4.97l-5.04-8.53c-.91-1.64-1.64-2.96-2.37-4.73h-.1c.18,1.95.23,3.56.23,5.49v7.77h-4.06V12.85h4.94l5.04,8.53c.91,1.64,1.64,2.96,2.37,4.73h.08c-.18-1.95-.21-3.56-.21-5.49v-7.77h4.08v18.2Z"/>
        <path class="cls-3" d="m217.51,31.05h-4.34l-1.53-4.16h-7.12l-1.53,4.16h-4.13l7.28-18.2h4.16l7.23,18.2Zm-11.8-7.36h4.73l-1.01-2.78c-.47-1.27-.91-2.7-1.3-4.19h-.1c-.36,1.48-.81,2.89-1.27,4.19l-1.04,2.78Z"/>
        <path class="cls-3" d="m236.31,22.08c0,6.68-2.73,8.97-9.28,8.97h-7.23V12.85h7.23c6.55,0,9.28,2.29,9.28,8.97v.26Zm-4.32-.36c0-4.21-1.25-5.43-5.15-5.43h-2.83v11.34h2.83c3.9,0,5.15-1.22,5.15-5.43v-.47Z"/>
        <path class="cls-3" d="m239.5,12.85h13.81v3.41h-9.62v3.74h8.55v3.38h-8.55v4.26h9.85v3.41h-14.04V12.85Z"/>
      </g>
      <g>
        <rect class="cls-4" x="271" y="70" width="388" height="128" rx="18.94" ry="18.94"/>
        <g>
          <path class="cls-2" d="m308.89,122.04v.37c0,5.36-2.25,8.09-6.85,8.09s-6.83-2.74-6.83-8.09v-.37c0-5.36,2.25-8.09,6.83-8.09s6.85,2.74,6.85,8.09Zm-2.87.58v-.78c0-3.73-1.06-5.66-3.98-5.66s-3.98,1.93-3.98,5.66v.78c0,3.72,1.08,5.66,3.98,5.66s3.98-1.93,3.98-5.66Z"/>
          <path class="cls-2" d="m311.24,119.54c0-3.7,2.16-5.59,5.98-5.59,4.28,0,6.58,2.39,6.58,7.52v.48c0,6.07-2.09,8.55-7.38,8.55-1.7,0-3.15-.32-4.02-.64l.48-1.96c.83.25,2.07.44,3.27.44,3.54,0,4.71-1.38,4.87-5.01-.71.85-2.05,1.49-4.12,1.49-3.63,0-5.66-1.93-5.66-5.29Zm8.25-3.01c-.53-.37-1.26-.53-2.21-.53s-1.59.16-2.09.51c-.83.58-1.2,1.59-1.2,2.94s.46,2.3,1.29,2.81c.53.34,1.24.51,2.09.51.9,0,1.68-.16,2.18-.51.83-.51,1.26-1.45,1.29-2.85,0-1.31-.51-2.3-1.36-2.87Z"/>
          <path class="cls-2" d="m347.46,122.09v.14c0,2.53-.8,4.55-2.21,5.93h2.55v2.12h-8.14c-5.13,0-7.8-2.67-7.8-8.05v-.14c0-5.45,2.67-8.14,7.8-8.14s7.79,2.69,7.79,8.14Zm-4.85,5.2c1.43-.92,1.98-2.62,1.98-4.97v-.32c0-2.37-.55-4.12-1.98-5.04-.74-.46-1.7-.71-2.94-.71s-2.21.25-2.94.71c-1.43.92-1.98,2.67-1.98,5.04v.32c0,2.34.55,4.05,1.98,4.97.74.46,1.7.71,2.94.71s2.21-.25,2.94-.71Z"/>
          <path class="cls-2" d="m353.28,129.7c-1.77-.92-2.53-2.64-2.53-5.17v-10.35h2.87v10.14c0,2.76,1.01,3.73,3.96,3.73s3.98-.97,3.98-3.73v-10.14h2.78v10.35c0,2.53-.71,4.25-2.48,5.17-1.06.55-2.46.8-4.32.8s-3.17-.25-4.25-.8Z"/>
          <path class="cls-2" d="m368.21,114.18h11.61v2.37h-8.81v4.25h7.93v2.37h-7.93v4.74h9.01v2.37h-11.82v-16.1Z"/>
          <path class="cls-2" d="m386.72,123.03c-2.6-.55-4.3-1.52-4.3-4.65s1.7-4.44,6.02-4.44c2.3,0,4.09.37,5.31.76l-.48,2.09c-1.15-.34-2.64-.57-4.58-.57-2.71,0-3.54.53-3.54,2.14,0,1.7.9,1.98,2.85,2.39l2.35.48c2.76.58,4.12,1.54,4.12,4.55,0,3.4-1.84,4.71-6.3,4.71-2.42,0-4.46-.37-5.86-.92l.46-2.07c1.52.51,3.54.71,5.33.71,2.67,0,3.61-.64,3.61-2.25s-.74-2.05-2.64-2.46l-2.35-.48Z"/>
          <path class="cls-2" d="m403.93,116.52v13.75h-2.81v-13.75h-5.06v-2.35h12.95v2.35h-5.08Z"/>
          <path class="cls-2" d="m426.21,122.11v.23c0,5.47-2.69,8.16-7.79,8.16s-7.8-2.69-7.8-8.16v-.23c0-5.47,2.67-8.16,7.8-8.16s7.79,2.69,7.79,8.16Zm-4.85,5.38c1.43-.92,1.98-2.67,1.98-5.06v-.41c0-2.39-.55-4.14-1.98-5.06-.74-.46-1.7-.71-2.94-.71s-2.21.25-2.94.71c-1.43.92-1.98,2.67-1.98,5.06v.41c0,2.39.55,4.14,1.98,5.06.74.46,1.7.71,2.94.71s2.21-.25,2.94-.71Zm-2.88-15.04l-.46-.25c-.48-.23-.94-.46-1.38-.46-.71,0-.85.41-.92,1.13h-1.86c.09-1.98.76-3.1,2.58-3.1.71,0,1.38.28,1.91.55l.48.25c.48.23.92.46,1.38.46.69,0,.83-.41.92-1.13h1.86c-.14,1.98-.76,3.1-2.58,3.1-.74,0-1.38-.28-1.93-.55Z"/>
          <path class="cls-2" d="m429.55,114.18h11.61v2.37h-8.81v4.25h7.93v2.37h-7.93v4.74h9.01v2.37h-11.82v-16.1Z"/>
          <path class="cls-2" d="m448.06,123.03c-2.6-.55-4.3-1.52-4.3-4.65s1.7-4.44,6.02-4.44c2.3,0,4.09.37,5.31.76l-.48,2.09c-1.15-.34-2.64-.57-4.58-.57-2.71,0-3.54.53-3.54,2.14,0,1.7.9,1.98,2.85,2.39l2.35.48c2.76.58,4.12,1.54,4.12,4.55,0,3.4-1.84,4.71-6.3,4.71-2.42,0-4.46-.37-5.86-.92l.46-2.07c1.52.51,3.54.71,5.33.71,2.67,0,3.61-.64,3.61-2.25s-.74-2.05-2.64-2.46l-2.35-.48Z"/>
          <path class="cls-2" d="m479.39,122.11v.23c0,5.47-2.69,8.16-7.79,8.16s-7.8-2.69-7.8-8.16v-.23c0-5.47,2.67-8.16,7.8-8.16s7.79,2.69,7.79,8.16Zm-4.85,5.38c1.43-.92,1.98-2.67,1.98-5.06v-.41c0-2.39-.55-4.14-1.98-5.06-.74-.46-1.7-.71-2.94-.71s-2.21.25-2.94.71c-1.43.92-1.98,2.67-1.98,5.06v.41c0,2.39.55,4.14,1.98,5.06.74.46,1.7.71,2.94.71s2.21-.25,2.94-.71Z"/>
          <path class="cls-2" d="m482.72,114.18h7.24c3.66,0,5.36,1.29,5.36,4.14,0,2.23-1.04,3.08-2.12,3.38v.09c1.36.23,2.74,1.2,2.74,3.77,0,3.33-1.86,4.71-5.93,4.71h-7.29v-16.1Zm6.9,6.71c2.35,0,2.94-.6,2.94-2.25s-.62-2.23-2.85-2.23h-4.21v4.48h4.12Zm.14,7.15c2.48,0,3.36-.44,3.36-2.51,0-1.86-.83-2.44-3.24-2.44h-4.37v4.94h4.25Z"/>
          <path class="cls-2" d="m504.09,114.18h2.83v11.15c0,3.79-1.93,5.15-5.84,5.15-1.36,0-2.78-.21-3.54-.46v-2.25c.85.18,2.09.3,3.13.3,2.6,0,3.43-.76,3.43-3.06v-10.83Z"/>
          <path class="cls-2" d="m510.83,114.18h11.61v2.37h-8.81v4.25h7.93v2.37h-7.93v4.74h9.01v2.37h-11.82v-16.1Z"/>
          <path class="cls-2" d="m532.33,116.52v13.75h-2.81v-13.75h-5.06v-2.35h12.95v2.35h-5.08Z"/>
          <path class="cls-2" d="m540.2,114.18h2.81v16.1h-2.81v-16.1Z"/>
          <path class="cls-2" d="m545.51,114.18h2.94l3.66,10.05c.39,1.08.71,2.25.97,3.33h.09c.25-1.08.6-2.25.99-3.33l3.63-10.05h2.85l-6.12,16.1h-2.9l-6.12-16.1Z"/>
          <path class="cls-2" d="m575.69,130.27h-2.9l-1.56-4.12h-6.83l-1.56,4.12h-2.76l6.39-16.1h2.85l6.37,16.1Zm-10.42-6.39h5.08l-1.43-3.79c-.41-1.06-.76-2.16-1.06-3.27h-.09c-.3,1.1-.64,2.18-1.04,3.24l-1.47,3.82Z"/>
          <path class="cls-2" d="m581.69,123.03c-2.6-.55-4.3-1.52-4.3-4.65s1.7-4.44,6.02-4.44c2.3,0,4.09.37,5.31.76l-.48,2.09c-1.15-.34-2.64-.57-4.58-.57-2.71,0-3.54.53-3.54,2.14,0,1.7.9,1.98,2.85,2.39l2.35.48c2.76.58,4.12,1.54,4.12,4.55,0,3.4-1.84,4.71-6.3,4.71-2.42,0-4.46-.37-5.86-.92l.46-2.07c1.52.51,3.54.71,5.33.71,2.67,0,3.61-.64,3.61-2.25s-.74-2.05-2.64-2.46l-2.35-.48Z"/>
          <path class="cls-2" d="m308.89,149.04v.37c0,5.36-2.25,8.09-6.85,8.09s-6.83-2.74-6.83-8.09v-.37c0-5.36,2.25-8.09,6.83-8.09s6.85,2.74,6.85,8.09Zm-2.87.58v-.78c0-3.73-1.06-5.66-3.98-5.66s-3.98,1.93-3.98,5.66v.78c0,3.72,1.08,5.66,3.98,5.66s3.98-1.93,3.98-5.66Z"/>
          <path class="cls-2" d="m313.65,143.55h-2.83v-2.18l3.31-.18h2.3v16.1h-2.78v-13.73Z"/>
          <path class="cls-2" d="m341.3,149.09v.14c0,2.53-.8,4.55-2.21,5.93h2.55v2.12h-8.14c-5.13,0-7.8-2.67-7.8-8.05v-.14c0-5.45,2.67-8.14,7.8-8.14s7.79,2.69,7.79,8.14Zm-4.85,5.2c1.43-.92,1.98-2.62,1.98-4.97v-.32c0-2.37-.55-4.12-1.98-5.04-.74-.46-1.7-.71-2.94-.71s-2.21.25-2.94.71c-1.43.92-1.98,2.67-1.98,5.04v.32c0,2.34.55,4.05,1.98,4.97.74.46,1.7.71,2.94.71s2.21-.25,2.94-.71Z"/>
          <path class="cls-2" d="m347.12,156.7c-1.77-.92-2.53-2.64-2.53-5.17v-10.35h2.87v10.14c0,2.76,1.01,3.73,3.96,3.73s3.98-.97,3.98-3.73v-10.14h2.78v10.35c0,2.53-.71,4.25-2.48,5.17-1.06.55-2.46.8-4.32.8s-3.17-.25-4.25-.8Z"/>
          <path class="cls-2" d="m362.05,141.18h11.61v2.37h-8.81v4.25h7.93v2.37h-7.93v4.74h9.01v2.37h-11.82v-16.1Z"/>
          <path class="cls-2" d="m380.56,150.03c-2.6-.55-4.3-1.52-4.3-4.65s1.7-4.44,6.02-4.44c2.3,0,4.09.37,5.31.76l-.48,2.09c-1.15-.34-2.64-.57-4.58-.57-2.71,0-3.54.53-3.54,2.14,0,1.7.9,1.98,2.85,2.39l2.35.48c2.76.58,4.12,1.54,4.12,4.55,0,3.4-1.84,4.71-6.3,4.71-2.42,0-4.46-.37-5.86-.92l.46-2.07c1.52.51,3.54.71,5.33.71,2.67,0,3.61-.64,3.61-2.25s-.74-2.05-2.64-2.46l-2.35-.48Z"/>
          <path class="cls-2" d="m397.76,143.52v13.75h-2.81v-13.75h-5.06v-2.35h12.95v2.35h-5.08Z"/>
          <path class="cls-2" d="m417.7,157.27h-2.9l-1.56-4.12h-6.83l-1.56,4.12h-2.76l6.39-16.1h2.85l6.37,16.1Zm-7.75-17.82l-.46-.25c-.48-.23-.94-.46-1.38-.46-.71,0-.85.41-.92,1.13h-1.86c.09-1.98.76-3.1,2.58-3.1.71,0,1.38.28,1.91.55l.48.25c.48.23.92.46,1.38.46.69,0,.83-.41.92-1.13h1.86c-.14,1.98-.76,3.1-2.58,3.1-.74,0-1.38-.28-1.93-.55Zm-2.67,11.43h5.08l-1.43-3.79c-.41-1.06-.76-2.16-1.06-3.27h-.09c-.3,1.1-.64,2.18-1.04,3.24l-1.47,3.82Z"/>
          <path class="cls-2" d="m434.68,149.11v.23c0,5.47-2.69,8.16-7.79,8.16s-7.8-2.69-7.8-8.16v-.23c0-5.47,2.67-8.16,7.8-8.16s7.79,2.69,7.79,8.16Zm-4.85,5.38c1.43-.92,1.98-2.67,1.98-5.06v-.41c0-2.39-.55-4.14-1.98-5.06-.74-.46-1.7-.71-2.94-.71s-2.21.25-2.94.71c-1.43.92-1.98,2.67-1.98,5.06v.41c0,2.39.55,4.14,1.98,5.06.74.46,1.7.71,2.94.71s2.21-.25,2.94-.71Z"/>
          <path class="cls-2" d="m457.29,149.34c0,5.91-2.37,7.93-8.16,7.93h-5.7v-16.1h5.7c5.79,0,8.16,2.02,8.16,7.93v.23Zm-2.88-.32c0-4.23-1.26-5.47-5.4-5.47h-2.76v11.36h2.76c4.14,0,5.4-1.24,5.4-5.47v-.41Z"/>
          <path class="cls-2" d="m460.69,141.18h2.81v16.1h-2.81v-16.1Z"/>
          <path class="cls-2" d="m471.18,150.03c-2.6-.55-4.3-1.52-4.3-4.65s1.7-4.44,6.02-4.44c2.3,0,4.09.37,5.31.76l-.48,2.09c-1.15-.34-2.64-.57-4.58-.57-2.71,0-3.54.53-3.54,2.14,0,1.7.9,1.98,2.85,2.39l2.35.48c2.76.58,4.12,1.54,4.12,4.55,0,3.4-1.84,4.71-6.3,4.71-2.42,0-4.46-.37-5.86-.92l.46-2.07c1.52.51,3.54.71,5.33.71,2.67,0,3.61-.64,3.61-2.25s-.74-2.05-2.64-2.46l-2.35-.48Z"/>
          <path class="cls-2" d="m481.46,149.11c0-3.27.94-5.7,3.06-7.04,1.2-.74,2.76-1.13,4.78-1.13s3.77.37,4.88.83l-.51,2.14c-1.17-.37-2.46-.55-3.93-.55s-2.69.25-3.52.8c-1.31.87-1.88,2.48-1.88,4.85v.41c0,2.35.57,3.96,1.88,4.83.85.58,2,.83,3.59.83,1.47,0,2.78-.21,3.96-.58l.51,2.14c-1.13.48-2.92.85-4.9.85s-3.63-.39-4.85-1.15c-2.09-1.33-3.06-3.77-3.06-7.01v-.23Z"/>
          <path class="cls-2" d="m499.72,156.7c-1.77-.92-2.53-2.64-2.53-5.17v-10.35h2.87v10.14c0,2.76,1.01,3.73,3.96,3.73s3.98-.97,3.98-3.73v-10.14h2.78v10.35c0,2.53-.71,4.25-2.48,5.17-1.06.55-2.46.8-4.32.8s-3.17-.25-4.25-.8Z"/>
          <path class="cls-2" d="m521.41,151.46h-3.96v5.82h-2.81v-16.1h7.15c4.39,0,5.96,1.79,5.96,5.1,0,2.58-1.04,4.28-3.52,4.92l4.07,6.07h-3.04l-3.86-5.82Zm-3.96-7.98v5.68h4.16c2.53,0,3.31-.8,3.31-2.85s-.78-2.83-3.31-2.83h-4.16Z"/>
          <path class="cls-2" d="m534.57,150.03c-2.6-.55-4.3-1.52-4.3-4.65s1.7-4.44,6.02-4.44c2.3,0,4.09.37,5.31.76l-.48,2.09c-1.15-.34-2.64-.57-4.58-.57-2.71,0-3.54.53-3.54,2.14,0,1.7.9,1.98,2.85,2.39l2.35.48c2.76.58,4.12,1.54,4.12,4.55,0,3.4-1.84,4.71-6.3,4.71-2.42,0-4.46-.37-5.86-.92l.46-2.07c1.52.51,3.54.71,5.33.71,2.67,0,3.61-.64,3.61-2.25s-.74-2.05-2.64-2.46l-2.35-.48Z"/>
          <path class="cls-2" d="m545.61,141.18h2.81v16.1h-2.81v-16.1Z"/>
          <path class="cls-2" d="m550.92,141.18h2.94l3.66,10.05c.39,1.08.71,2.25.97,3.33h.09c.25-1.08.6-2.25.99-3.33l3.63-10.05h2.85l-6.12,16.1h-2.9l-6.12-16.1Z"/>
          <path class="cls-2" d="m581.09,157.27h-2.9l-1.56-4.12h-6.83l-1.56,4.12h-2.76l6.39-16.1h2.85l6.37,16.1Zm-10.42-6.39h5.08l-1.43-3.79c-.41-1.06-.76-2.16-1.06-3.27h-.09c-.3,1.1-.64,2.18-1.04,3.24l-1.47,3.82Z"/>
        </g>
      </g>
      <g>
        <rect class="cls-1" x="671" y="70" width="262" height="128" rx="18.94" ry="18.94"/>
        <g>
          <path class="cls-3" d="m695.85,114.18h11.27v2.37h-8.44v4.85h7.73v2.34h-7.73v6.53h-2.83v-16.1Z"/>
          <path class="cls-3" d="m724.88,122.11v.23c0,5.47-2.69,8.16-7.79,8.16s-7.8-2.69-7.8-8.16v-.23c0-5.47,2.67-8.16,7.8-8.16s7.79,2.69,7.79,8.16Zm-4.85,5.38c1.43-.92,1.98-2.67,1.98-5.06v-.41c0-2.39-.55-4.14-1.98-5.06-.74-.46-1.7-.71-2.94-.71s-2.21.25-2.94.71c-1.43.92-1.98,2.67-1.98,5.06v.41c0,2.39.55,4.14,1.98,5.06.74.46,1.7.71,2.94.71s2.21-.25,2.94-.71Z"/>
          <path class="cls-3" d="m734.97,124.46h-3.96v5.82h-2.81v-16.1h7.15c4.39,0,5.96,1.79,5.96,5.1,0,2.58-1.04,4.28-3.52,4.92l4.07,6.07h-3.04l-3.86-5.82Zm-3.96-7.98v5.68h4.16c2.53,0,3.31-.8,3.31-2.85s-.78-2.83-3.31-2.83h-4.16Z"/>
          <path class="cls-3" d="m754.43,127.26h-2.64l-3.29-7.11c-.39-.97-.78-2-1.13-3.04h-.09c.07,1.13.12,2.25.12,3.33v9.82h-2.74v-16.1h3.93l3.4,7.45c.44,1.01.85,2.02,1.2,3.08h.07c.32-1.06.74-2.09,1.17-3.08l3.4-7.45h3.84v16.1h-2.83v-9.82c0-1.1.02-2.23.09-3.36h-.09c-.32,1.04-.71,2.05-1.15,3.01l-3.27,7.15Z"/>
          <path class="cls-3" d="m779.71,130.27h-2.9l-1.56-4.12h-6.83l-1.56,4.12h-2.76l6.39-16.1h2.85l6.37,16.1Zm-10.42-6.39h5.08l-1.43-3.79c-.41-1.06-.76-2.16-1.06-3.27h-.09c-.3,1.1-.64,2.18-1.04,3.24l-1.47,3.82Z"/>
          <path class="cls-3" d="m786.86,130.34c-1.06-.18-1.96-.51-2.71-.99-2.09-1.33-3.06-3.77-3.06-7.01v-.23c0-3.27.94-5.7,3.06-7.04,1.2-.74,2.76-1.13,4.78-1.13s3.77.37,4.88.83l-.51,2.14c-1.17-.37-2.46-.55-3.93-.55s-2.69.25-3.52.8c-1.31.87-1.88,2.48-1.88,4.85v.41c0,2.35.57,3.96,1.88,4.83.85.58,2,.83,3.59.83,1.47,0,2.78-.21,3.96-.58l.51,2.14c-1.13.48-2.92.85-4.9.85-.25,0-.48,0-.71-.02l-.05.83c1.5.05,2.32.46,2.32,1.68,0,1.43-.94,2.02-2.74,2.02-.85,0-1.59-.16-1.91-.28l.21-1.2c.32.09.83.16,1.4.16.87,0,1.17-.21,1.17-.71,0-.62-.51-.76-2.12-.76l.28-1.89Z"/>
          <path class="cls-3" d="m810.99,130.27h-2.9l-1.56-4.12h-6.83l-1.56,4.12h-2.76l6.39-16.1h2.85l6.37,16.1Zm-7.75-17.82l-.46-.25c-.48-.23-.94-.46-1.38-.46-.71,0-.85.41-.92,1.13h-1.86c.09-1.98.76-3.1,2.58-3.1.71,0,1.38.28,1.91.55l.48.25c.48.23.92.46,1.38.46.69,0,.83-.41.92-1.13h1.86c-.14,1.98-.76,3.1-2.58,3.1-.74,0-1.38-.28-1.93-.55Zm-2.67,11.43h5.08l-1.43-3.79c-.41-1.06-.76-2.16-1.06-3.27h-.09c-.3,1.1-.64,2.18-1.04,3.24l-1.47,3.82Z"/>
          <path class="cls-3" d="m827.96,122.11v.23c0,5.47-2.69,8.16-7.79,8.16s-7.8-2.69-7.8-8.16v-.23c0-5.47,2.67-8.16,7.8-8.16s7.79,2.69,7.79,8.16Zm-4.85,5.38c1.43-.92,1.98-2.67,1.98-5.06v-.41c0-2.39-.55-4.14-1.98-5.06-.74-.46-1.7-.71-2.94-.71s-2.21.25-2.94.71c-1.43.92-1.98,2.67-1.98,5.06v.41c0,2.39.55,4.14,1.98,5.06.74.46,1.7.71,2.94.71s2.21-.25,2.94-.71Z"/>
          <path class="cls-3" d="m702.84,148.74h6.44v7.75c-1.66.62-3.68,1.01-6.14,1.01-2,0-3.61-.37-4.85-1.13-2.05-1.26-3.06-3.59-3.06-6.85v-.21c0-3.68,1.04-6.09,3.31-7.36,1.24-.69,2.87-1.01,4.9-1.01,2.21,0,4.12.39,5.38.87l-.51,2.14c-1.2-.34-2.85-.62-4.48-.62s-2.88.25-3.77.81c-1.38.87-1.98,2.48-1.98,5.08v.39c0,2.18.58,3.77,1.84,4.64.83.58,2.02.85,3.56.85,1.22,0,2.3-.16,3.15-.39v-3.77h-3.79v-2.21Z"/>
          <path class="cls-3" d="m712.94,141.18h11.61v2.37h-8.81v4.25h7.93v2.37h-7.93v4.74h9.01v2.37h-11.82v-16.1Z"/>
          <path class="cls-3" d="m734.58,151.46h-3.96v5.82h-2.81v-16.1h7.15c4.39,0,5.96,1.79,5.96,5.1,0,2.58-1.04,4.28-3.52,4.92l4.07,6.07h-3.04l-3.86-5.82Zm-3.96-7.98v5.68h4.16c2.53,0,3.31-.8,3.31-2.85s-.78-2.83-3.31-2.83h-4.16Z"/>
          <path class="cls-3" d="m757.93,157.27h-2.9l-1.56-4.12h-6.83l-1.56,4.12h-2.76l6.39-16.1h2.85l6.37,16.1Zm-10.42-6.39h5.08l-1.43-3.79c-.41-1.06-.76-2.16-1.06-3.27h-.09c-.3,1.1-.64,2.18-1.04,3.24l-1.47,3.82Z"/>
          <path class="cls-3" d="m760.34,141.18h2.83v13.73h8.12v2.37h-10.95v-16.1Z"/>
        </g>
      </g>
      <g>
        <rect class="cls-1" x="671" y="212" width="262" height="128" rx="18.94" ry="18.94"/>
        <g>
          <path class="cls-3" d="m695.23,264.11c0-3.27.94-5.7,3.06-7.04,1.2-.74,2.76-1.13,4.78-1.13s3.77.37,4.88.83l-.51,2.14c-1.17-.37-2.46-.55-3.93-.55s-2.69.25-3.52.8c-1.31.87-1.88,2.48-1.88,4.85v.41c0,2.35.57,3.96,1.88,4.83.85.58,2,.83,3.59.83,1.47,0,2.78-.21,3.96-.58l.51,2.14c-1.13.48-2.92.85-4.9.85s-3.63-.39-4.85-1.15c-2.09-1.33-3.06-3.77-3.06-7.01v-.23Z"/>
          <path class="cls-3" d="m725.63,264.11v.23c0,5.47-2.69,8.16-7.79,8.16s-7.8-2.69-7.8-8.16v-.23c0-5.47,2.67-8.16,7.8-8.16s7.79,2.69,7.79,8.16Zm-4.85,5.38c1.43-.92,1.98-2.67,1.98-5.06v-.41c0-2.39-.55-4.14-1.98-5.06-.74-.46-1.7-.71-2.94-.71s-2.21.25-2.94.71c-1.43.92-1.98,2.67-1.98,5.06v.41c0,2.39.55,4.14,1.98,5.06.74.46,1.7.71,2.94.71s2.21-.25,2.94-.71Z"/>
          <path class="cls-3" d="m742.54,272.27h-3.33l-5.82-9.52c-.64-1.13-1.2-2.12-1.75-3.31h-.07c.12,1.36.16,2.6.16,3.93v8.9h-2.76v-16.1h3.33l5.82,9.52c.64,1.13,1.2,2.12,1.72,3.31h.07c-.11-1.36-.11-2.6-.11-3.93v-8.9h2.74v16.1Z"/>
          <path class="cls-3" d="m757.08,265.19h-7.75v7.08h-2.83v-16.1h2.83v6.62h7.75v-6.62h2.83v16.1h-2.83v-7.08Z"/>
          <path class="cls-3" d="m763.89,256.18h11.61v2.37h-8.81v4.25h7.93v2.37h-7.93v4.74h9.01v2.37h-11.82v-16.1Z"/>
          <path class="cls-3" d="m777.94,264.11c0-3.27.94-5.7,3.06-7.04,1.2-.74,2.76-1.13,4.78-1.13s3.77.37,4.88.83l-.51,2.14c-1.17-.37-2.46-.55-3.93-.55s-2.69.25-3.52.8c-1.31.87-1.88,2.48-1.88,4.85v.41c0,2.35.57,3.96,1.88,4.83.85.58,2,.83,3.59.83,1.47,0,2.78-.21,3.96-.58l.51,2.14c-1.13.48-2.92.85-4.9.85s-3.63-.39-4.85-1.15c-2.09-1.33-3.06-3.77-3.06-7.01v-.23Z"/>
          <path class="cls-3" d="m793.85,256.18h2.81v16.1h-2.81v-16.1Z"/>
          <path class="cls-3" d="m810.48,269.26h-2.64l-3.29-7.11c-.39-.97-.78-2-1.13-3.04h-.09c.07,1.13.12,2.25.12,3.33v9.82h-2.74v-16.1h3.93l3.4,7.45c.44,1.01.85,2.02,1.2,3.08h.07c.32-1.06.74-2.09,1.17-3.08l3.4-7.45h3.84v16.1h-2.83v-9.82c0-1.1.02-2.23.09-3.36h-.09c-.32,1.04-.71,2.05-1.15,3.01l-3.27,7.15Z"/>
          <path class="cls-3" d="m821.68,256.18h11.61v2.37h-8.81v4.25h7.93v2.37h-7.93v4.74h9.01v2.37h-11.82v-16.1Z"/>
          <path class="cls-3" d="m850.13,272.27h-3.33l-5.82-9.52c-.64-1.13-1.2-2.12-1.75-3.31h-.07c.12,1.36.16,2.6.16,3.93v8.9h-2.76v-16.1h3.33l5.82,9.52c.64,1.13,1.2,2.12,1.72,3.31h.07c-.11-1.36-.11-2.6-.11-3.93v-8.9h2.74v16.1Z"/>
          <path class="cls-3" d="m860.71,258.52v13.75h-2.81v-13.75h-5.06v-2.35h12.95v2.35h-5.08Z"/>
          <path class="cls-3" d="m883,264.11v.23c0,5.47-2.69,8.16-7.79,8.16s-7.8-2.69-7.8-8.16v-.23c0-5.47,2.67-8.16,7.8-8.16s7.79,2.69,7.79,8.16Zm-4.85,5.38c1.43-.92,1.98-2.67,1.98-5.06v-.41c0-2.39-.55-4.14-1.98-5.06-.74-.46-1.7-.71-2.94-.71s-2.21.25-2.94.71c-1.43.92-1.98,2.67-1.98,5.06v.41c0,2.39.55,4.14,1.98,5.06.74.46,1.7.71,2.94.71s2.21-.25,2.94-.71Z"/>
          <path class="cls-3" d="m889.92,265.03c-2.6-.55-4.3-1.52-4.3-4.65s1.7-4.44,6.02-4.44c2.3,0,4.09.37,5.31.76l-.48,2.09c-1.15-.34-2.64-.57-4.58-.57-2.71,0-3.54.53-3.54,2.14,0,1.7.9,1.98,2.85,2.39l2.35.48c2.76.58,4.12,1.54,4.12,4.55,0,3.4-1.84,4.71-6.3,4.71-2.42,0-4.46-.37-5.86-.92l.46-2.07c1.52.51,3.54.71,5.33.71,2.67,0,3.61-.64,3.61-2.25s-.74-2.05-2.64-2.46l-2.35-.48Z"/>
          <path class="cls-3" d="m695.85,283.18h11.61v2.37h-8.81v4.25h7.93v2.37h-7.93v4.74h9.01v2.37h-11.82v-16.1Z"/>
          <path class="cls-3" d="m714.37,292.03c-2.6-.55-4.3-1.52-4.3-4.65s1.7-4.44,6.02-4.44c2.3,0,4.09.37,5.31.76l-.48,2.09c-1.15-.34-2.64-.57-4.58-.57-2.71,0-3.54.53-3.54,2.14,0,1.7.9,1.98,2.85,2.39l2.35.48c2.76.58,4.12,1.54,4.12,4.55,0,3.4-1.84,4.71-6.3,4.71-2.42,0-4.46-.37-5.86-.92l.46-2.07c1.52.51,3.54.71,5.33.71,2.67,0,3.61-.64,3.61-2.25s-.74-2.05-2.64-2.46l-2.35-.48Z"/>
          <path class="cls-3" d="m725.32,283.18h7.11c4.42,0,5.96,1.77,5.96,5.13s-1.54,5.27-5.96,5.27h-4.3v5.7h-2.81v-16.1Zm2.81,2.3v5.84h4.07c2.53,0,3.33-.81,3.33-2.92s-.78-2.92-3.33-2.92h-4.07Z"/>
          <path class="cls-3" d="m741.37,283.18h11.61v2.37h-8.81v4.25h7.93v2.37h-7.93v4.74h9.01v2.37h-11.82v-16.1Z"/>
          <path class="cls-3" d="m755.42,291.11c0-3.27.94-5.7,3.06-7.04,1.2-.74,2.76-1.13,4.78-1.13s3.77.37,4.88.83l-.51,2.14c-1.17-.37-2.46-.55-3.93-.55s-2.69.25-3.52.8c-1.31.87-1.88,2.48-1.88,4.85v.41c0,2.35.57,3.96,1.88,4.83.85.58,2,.83,3.59.83,1.47,0,2.78-.21,3.96-.58l.51,2.14c-1.13.48-2.92.85-4.9.85s-3.63-.39-4.85-1.15c-2.09-1.33-3.06-3.77-3.06-7.01v-.23Z"/>
          <path class="cls-3" d="m771.34,283.18h2.81v16.1h-2.81v-16.1Zm.39-1.31l1.36-3.4h3.26v.05l-2.53,3.36h-2.09Z"/>
          <path class="cls-3" d="m778.19,283.18h11.27v2.37h-8.44v4.85h7.73v2.34h-7.73v6.53h-2.83v-16.1Z"/>
          <path class="cls-3" d="m792.57,283.18h2.81v16.1h-2.81v-16.1Z"/>
          <path class="cls-3" d="m798.8,291.11c0-3.27.94-5.7,3.06-7.04,1.2-.74,2.76-1.13,4.78-1.13s3.77.37,4.88.83l-.51,2.14c-1.17-.37-2.46-.55-3.93-.55s-2.69.25-3.52.8c-1.31.87-1.88,2.48-1.88,4.85v.41c0,2.35.57,3.96,1.88,4.83.85.58,2,.83,3.59.83,1.47,0,2.78-.21,3.96-.58l.51,2.14c-1.13.48-2.92.85-4.9.85s-3.63-.39-4.85-1.15c-2.09-1.33-3.06-3.77-3.06-7.01v-.23Z"/>
          <path class="cls-3" d="m829.2,291.11v.23c0,5.47-2.69,8.16-7.79,8.16s-7.8-2.69-7.8-8.16v-.23c0-5.47,2.67-8.16,7.8-8.16s7.79,2.69,7.79,8.16Zm-4.85,5.38c1.43-.92,1.98-2.67,1.98-5.06v-.41c0-2.39-.55-4.14-1.98-5.06-.74-.46-1.7-.71-2.94-.71s-2.21.25-2.94.71c-1.43.92-1.98,2.67-1.98,5.06v.41c0,2.39.55,4.14,1.98,5.06.74.46,1.7.71,2.94.71s2.21-.25,2.94-.71Z"/>
          <path class="cls-3" d="m836.13,292.03c-2.6-.55-4.3-1.52-4.3-4.65s1.7-4.44,6.02-4.44c2.3,0,4.09.37,5.31.76l-.48,2.09c-1.15-.34-2.64-.57-4.58-.57-2.71,0-3.54.53-3.54,2.14,0,1.7.9,1.98,2.85,2.39l2.35.48c2.76.58,4.12,1.54,4.12,4.55,0,3.4-1.84,4.71-6.3,4.71-2.42,0-4.46-.37-5.86-.92l.46-2.07c1.52.51,3.54.71,5.33.71,2.67,0,3.61-.64,3.61-2.25s-.74-2.05-2.64-2.46l-2.35-.48Z"/>
        </g>
      </g>
      <g>
        <rect class="cls-4" x="271" y="212" width="388" height="128" rx="18.94" ry="18.94"/>
        <g>
          <path class="cls-2" d="m295.32,261.72c-.18-.44-.3-1.08-.3-1.75,0-2.92,2.32-4.02,5.59-4.02,4.28,0,5.82,1.66,5.82,4.35,0,4.12-4.46,7.45-7.45,9.63l.05.05h7.61v2.3h-11.66v-2.12c4.07-3.04,8.62-6.48,8.62-9.75,0-1.1-.53-1.68-1.33-2-.41-.16-.97-.25-1.63-.25s-1.29.07-1.68.25c-.69.28-1.22.76-1.22,1.96,0,.48.05.92.14,1.36h-2.55Z"/>
          <path class="cls-2" d="m308.8,261.54c0-3.7,2.16-5.59,5.98-5.59,4.28,0,6.58,2.39,6.58,7.52v.48c0,6.07-2.09,8.55-7.38,8.55-1.7,0-3.15-.32-4.02-.64l.48-1.96c.83.25,2.07.44,3.27.44,3.54,0,4.71-1.38,4.87-5.01-.71.85-2.05,1.49-4.12,1.49-3.63,0-5.66-1.93-5.66-5.29Zm8.25-3.01c-.53-.37-1.26-.53-2.21-.53s-1.59.16-2.09.51c-.83.58-1.2,1.59-1.2,2.94s.46,2.3,1.29,2.81c.53.34,1.24.51,2.09.51.9,0,1.68-.16,2.18-.51.83-.51,1.26-1.45,1.29-2.85,0-1.31-.51-2.3-1.36-2.87Z"/>
          <path class="cls-2" d="m345.02,264.09v.14c0,2.53-.8,4.55-2.21,5.93h2.55v2.12h-8.14c-5.13,0-7.8-2.67-7.8-8.05v-.14c0-5.45,2.67-8.14,7.8-8.14s7.79,2.69,7.79,8.14Zm-4.85,5.2c1.43-.92,1.98-2.62,1.98-4.97v-.32c0-2.37-.55-4.12-1.98-5.04-.74-.46-1.7-.71-2.94-.71s-2.21.25-2.94.71c-1.43.92-1.98,2.67-1.98,5.04v.32c0,2.34.55,4.05,1.98,4.97.74.46,1.7.71,2.94.71s2.21-.25,2.94-.71Z"/>
          <path class="cls-2" d="m350.84,271.7c-1.77-.92-2.53-2.64-2.53-5.17v-10.35h2.87v10.14c0,2.76,1.01,3.73,3.96,3.73s3.98-.97,3.98-3.73v-10.14h2.78v10.35c0,2.53-.71,4.25-2.48,5.17-1.06.55-2.46.8-4.32.8s-3.17-.25-4.25-.8Z"/>
          <path class="cls-2" d="m365.77,256.18h11.61v2.37h-8.81v4.25h7.93v2.37h-7.93v4.74h9.01v2.37h-11.82v-16.1Z"/>
          <path class="cls-2" d="m384.29,265.03c-2.6-.55-4.3-1.52-4.3-4.65s1.7-4.44,6.02-4.44c2.3,0,4.09.37,5.31.76l-.48,2.09c-1.15-.34-2.64-.57-4.58-.57-2.71,0-3.54.53-3.54,2.14,0,1.7.9,1.98,2.85,2.39l2.35.48c2.76.58,4.12,1.54,4.12,4.55,0,3.4-1.84,4.71-6.3,4.71-2.42,0-4.46-.37-5.86-.92l.46-2.07c1.52.51,3.54.71,5.33.71,2.67,0,3.61-.64,3.61-2.25s-.74-2.05-2.64-2.46l-2.35-.48Z"/>
          <path class="cls-2" d="m401.49,258.52v13.75h-2.81v-13.75h-5.06v-2.35h12.95v2.35h-5.08Z"/>
          <path class="cls-2" d="m423.77,264.11v.23c0,5.47-2.69,8.16-7.79,8.16s-7.8-2.69-7.8-8.16v-.23c0-5.47,2.67-8.16,7.8-8.16s7.79,2.69,7.79,8.16Zm-4.85,5.38c1.43-.92,1.98-2.67,1.98-5.06v-.41c0-2.39-.55-4.14-1.98-5.06-.74-.46-1.7-.71-2.94-.71s-2.21.25-2.94.71c-1.43.92-1.98,2.67-1.98,5.06v.41c0,2.39.55,4.14,1.98,5.06.74.46,1.7.71,2.94.71s2.21-.25,2.94-.71Zm-2.88-15.04l-.46-.25c-.48-.23-.94-.46-1.38-.46-.71,0-.85.41-.92,1.13h-1.86c.09-1.98.76-3.1,2.58-3.1.71,0,1.38.28,1.91.55l.48.25c.48.23.92.46,1.38.46.69,0,.83-.41.92-1.13h1.86c-.14,1.98-.76,3.1-2.58,3.1-.74,0-1.38-.28-1.93-.55Z"/>
          <path class="cls-2" d="m427.11,256.18h11.61v2.37h-8.81v4.25h7.93v2.37h-7.93v4.74h9.01v2.37h-11.82v-16.1Z"/>
          <path class="cls-2" d="m445.63,265.03c-2.6-.55-4.3-1.52-4.3-4.65s1.7-4.44,6.02-4.44c2.3,0,4.09.37,5.31.76l-.48,2.09c-1.15-.34-2.64-.57-4.58-.57-2.71,0-3.54.53-3.54,2.14,0,1.7.9,1.98,2.85,2.39l2.35.48c2.76.58,4.12,1.54,4.12,4.55,0,3.4-1.84,4.71-6.3,4.71-2.42,0-4.46-.37-5.86-.92l.46-2.07c1.52.51,3.54.71,5.33.71,2.67,0,3.61-.64,3.61-2.25s-.74-2.05-2.64-2.46l-2.35-.48Z"/>
          <path class="cls-2" d="m476.95,264.11v.23c0,5.47-2.69,8.16-7.79,8.16s-7.8-2.69-7.8-8.16v-.23c0-5.47,2.67-8.16,7.8-8.16s7.79,2.69,7.79,8.16Zm-4.85,5.38c1.43-.92,1.98-2.67,1.98-5.06v-.41c0-2.39-.55-4.14-1.98-5.06-.74-.46-1.7-.71-2.94-.71s-2.21.25-2.94.71c-1.43.92-1.98,2.67-1.98,5.06v.41c0,2.39.55,4.14,1.98,5.06.74.46,1.7.71,2.94.71s2.21-.25,2.94-.71Z"/>
          <path class="cls-2" d="m480.29,256.18h7.24c3.66,0,5.36,1.29,5.36,4.14,0,2.23-1.04,3.08-2.12,3.38v.09c1.36.23,2.74,1.2,2.74,3.77,0,3.33-1.86,4.71-5.93,4.71h-7.29v-16.1Zm6.9,6.71c2.35,0,2.94-.6,2.94-2.25s-.62-2.23-2.85-2.23h-4.21v4.48h4.12Zm.14,7.15c2.48,0,3.36-.44,3.36-2.51,0-1.86-.83-2.44-3.24-2.44h-4.37v4.94h4.25Z"/>
          <path class="cls-2" d="m501.65,256.18h2.83v11.15c0,3.79-1.93,5.15-5.84,5.15-1.36,0-2.78-.21-3.54-.46v-2.25c.85.18,2.09.3,3.13.3,2.6,0,3.43-.76,3.43-3.06v-10.83Z"/>
          <path class="cls-2" d="m508.39,256.18h11.61v2.37h-8.81v4.25h7.93v2.37h-7.93v4.74h9.01v2.37h-11.82v-16.1Z"/>
          <path class="cls-2" d="m529.9,258.52v13.75h-2.81v-13.75h-5.06v-2.35h12.95v2.35h-5.08Z"/>
          <path class="cls-2" d="m537.76,256.18h2.81v16.1h-2.81v-16.1Z"/>
          <path class="cls-2" d="m543.08,256.18h2.94l3.66,10.05c.39,1.08.71,2.25.97,3.33h.09c.25-1.08.6-2.25.99-3.33l3.63-10.05h2.85l-6.12,16.1h-2.9l-6.12-16.1Z"/>
          <path class="cls-2" d="m573.25,272.27h-2.9l-1.56-4.12h-6.83l-1.56,4.12h-2.76l6.39-16.1h2.85l6.37,16.1Zm-10.42-6.39h5.08l-1.43-3.79c-.41-1.06-.76-2.16-1.06-3.27h-.09c-.3,1.1-.64,2.18-1.04,3.24l-1.47,3.82Z"/>
          <path class="cls-2" d="m579.25,265.03c-2.6-.55-4.3-1.52-4.3-4.65s1.7-4.44,6.02-4.44c2.3,0,4.09.37,5.31.76l-.48,2.09c-1.15-.34-2.64-.57-4.58-.57-2.71,0-3.54.53-3.54,2.14,0,1.7.9,1.98,2.85,2.39l2.35.48c2.76.58,4.12,1.54,4.12,4.55,0,3.4-1.84,4.71-6.3,4.71-2.42,0-4.46-.37-5.86-.92l.46-2.07c1.52.51,3.54.71,5.33.71,2.67,0,3.61-.64,3.61-2.25s-.74-2.05-2.64-2.46l-2.35-.48Z"/>
          <path class="cls-2" d="m308.89,291.04v.37c0,5.36-2.25,8.09-6.85,8.09s-6.83-2.74-6.83-8.09v-.37c0-5.36,2.25-8.09,6.83-8.09s6.85,2.74,6.85,8.09Zm-2.87.58v-.78c0-3.73-1.06-5.66-3.98-5.66s-3.98,1.93-3.98,5.66v.78c0,3.72,1.08,5.66,3.98,5.66s3.98-1.93,3.98-5.66Z"/>
          <path class="cls-2" d="m313.65,285.55h-2.83v-2.18l3.31-.18h2.3v16.1h-2.78v-13.73Z"/>
          <path class="cls-2" d="m341.3,291.09v.14c0,2.53-.8,4.55-2.21,5.93h2.55v2.12h-8.14c-5.13,0-7.8-2.67-7.8-8.05v-.14c0-5.45,2.67-8.14,7.8-8.14s7.79,2.69,7.79,8.14Zm-4.85,5.2c1.43-.92,1.98-2.62,1.98-4.97v-.32c0-2.37-.55-4.12-1.98-5.04-.74-.46-1.7-.71-2.94-.71s-2.21.25-2.94.71c-1.43.92-1.98,2.67-1.98,5.04v.32c0,2.34.55,4.05,1.98,4.97.74.46,1.7.71,2.94.71s2.21-.25,2.94-.71Z"/>
          <path class="cls-2" d="m347.12,298.7c-1.77-.92-2.53-2.64-2.53-5.17v-10.35h2.87v10.14c0,2.76,1.01,3.73,3.96,3.73s3.98-.97,3.98-3.73v-10.14h2.78v10.35c0,2.53-.71,4.25-2.48,5.17-1.06.55-2.46.8-4.32.8s-3.17-.25-4.25-.8Z"/>
          <path class="cls-2" d="m362.05,283.18h11.61v2.37h-8.81v4.25h7.93v2.37h-7.93v4.74h9.01v2.37h-11.82v-16.1Z"/>
          <path class="cls-2" d="m380.56,292.03c-2.6-.55-4.3-1.52-4.3-4.65s1.7-4.44,6.02-4.44c2.3,0,4.09.37,5.31.76l-.48,2.09c-1.15-.34-2.64-.57-4.58-.57-2.71,0-3.54.53-3.54,2.14,0,1.7.9,1.98,2.85,2.39l2.35.48c2.76.58,4.12,1.54,4.12,4.55,0,3.4-1.84,4.71-6.3,4.71-2.42,0-4.46-.37-5.86-.92l.46-2.07c1.52.51,3.54.71,5.33.71,2.67,0,3.61-.64,3.61-2.25s-.74-2.05-2.64-2.46l-2.35-.48Z"/>
          <path class="cls-2" d="m397.76,285.52v13.75h-2.81v-13.75h-5.06v-2.35h12.95v2.35h-5.08Z"/>
          <path class="cls-2" d="m417.7,299.27h-2.9l-1.56-4.12h-6.83l-1.56,4.12h-2.76l6.39-16.1h2.85l6.37,16.1Zm-7.75-17.82l-.46-.25c-.48-.23-.94-.46-1.38-.46-.71,0-.85.41-.92,1.13h-1.86c.09-1.98.76-3.1,2.58-3.1.71,0,1.38.28,1.91.55l.48.25c.48.23.92.46,1.38.46.69,0,.83-.41.92-1.13h1.86c-.14,1.98-.76,3.1-2.58,3.1-.74,0-1.38-.28-1.93-.55Zm-2.67,11.43h5.08l-1.43-3.79c-.41-1.06-.76-2.16-1.06-3.27h-.09c-.3,1.1-.64,2.18-1.04,3.24l-1.47,3.82Z"/>
          <path class="cls-2" d="m434.68,291.11v.23c0,5.47-2.69,8.16-7.79,8.16s-7.8-2.69-7.8-8.16v-.23c0-5.47,2.67-8.16,7.8-8.16s7.79,2.69,7.79,8.16Zm-4.85,5.38c1.43-.92,1.98-2.67,1.98-5.06v-.41c0-2.39-.55-4.14-1.98-5.06-.74-.46-1.7-.71-2.94-.71s-2.21.25-2.94.71c-1.43.92-1.98,2.67-1.98,5.06v.41c0,2.39.55,4.14,1.98,5.06.74.46,1.7.71,2.94.71s2.21-.25,2.94-.71Z"/>
          <path class="cls-2" d="m457.29,291.34c0,5.91-2.37,7.93-8.16,7.93h-5.7v-16.1h5.7c5.79,0,8.16,2.02,8.16,7.93v.23Zm-2.88-.32c0-4.23-1.26-5.47-5.4-5.47h-2.76v11.36h2.76c4.14,0,5.4-1.24,5.4-5.47v-.41Z"/>
          <path class="cls-2" d="m460.69,283.18h2.81v16.1h-2.81v-16.1Z"/>
          <path class="cls-2" d="m471.18,292.03c-2.6-.55-4.3-1.52-4.3-4.65s1.7-4.44,6.02-4.44c2.3,0,4.09.37,5.31.76l-.48,2.09c-1.15-.34-2.64-.57-4.58-.57-2.71,0-3.54.53-3.54,2.14,0,1.7.9,1.98,2.85,2.39l2.35.48c2.76.58,4.12,1.54,4.12,4.55,0,3.4-1.84,4.71-6.3,4.71-2.42,0-4.46-.37-5.86-.92l.46-2.07c1.52.51,3.54.71,5.33.71,2.67,0,3.61-.64,3.61-2.25s-.74-2.05-2.64-2.46l-2.35-.48Z"/>
          <path class="cls-2" d="m481.46,291.11c0-3.27.94-5.7,3.06-7.04,1.2-.74,2.76-1.13,4.78-1.13s3.77.37,4.88.83l-.51,2.14c-1.17-.37-2.46-.55-3.93-.55s-2.69.25-3.52.8c-1.31.87-1.88,2.48-1.88,4.85v.41c0,2.35.57,3.96,1.88,4.83.85.58,2,.83,3.59.83,1.47,0,2.78-.21,3.96-.58l.51,2.14c-1.13.48-2.92.85-4.9.85s-3.63-.39-4.85-1.15c-2.09-1.33-3.06-3.77-3.06-7.01v-.23Z"/>
          <path class="cls-2" d="m499.72,298.7c-1.77-.92-2.53-2.64-2.53-5.17v-10.35h2.87v10.14c0,2.76,1.01,3.73,3.96,3.73s3.98-.97,3.98-3.73v-10.14h2.78v10.35c0,2.53-.71,4.25-2.48,5.17-1.06.55-2.46.8-4.32.8s-3.17-.25-4.25-.8Z"/>
          <path class="cls-2" d="m521.41,293.46h-3.96v5.82h-2.81v-16.1h7.15c4.39,0,5.96,1.79,5.96,5.1,0,2.58-1.04,4.28-3.52,4.92l4.07,6.07h-3.04l-3.86-5.82Zm-3.96-7.98v5.68h4.16c2.53,0,3.31-.8,3.31-2.85s-.78-2.83-3.31-2.83h-4.16Z"/>
          <path class="cls-2" d="m534.57,292.03c-2.6-.55-4.3-1.52-4.3-4.65s1.7-4.44,6.02-4.44c2.3,0,4.09.37,5.31.76l-.48,2.09c-1.15-.34-2.64-.57-4.58-.57-2.71,0-3.54.53-3.54,2.14,0,1.7.9,1.98,2.85,2.39l2.35.48c2.76.58,4.12,1.54,4.12,4.55,0,3.4-1.84,4.71-6.3,4.71-2.42,0-4.46-.37-5.86-.92l.46-2.07c1.52.51,3.54.71,5.33.71,2.67,0,3.61-.64,3.61-2.25s-.74-2.05-2.64-2.46l-2.35-.48Z"/>
          <path class="cls-2" d="m545.61,283.18h2.81v16.1h-2.81v-16.1Z"/>
          <path class="cls-2" d="m550.92,283.18h2.94l3.66,10.05c.39,1.08.71,2.25.97,3.33h.09c.25-1.08.6-2.25.99-3.33l3.63-10.05h2.85l-6.12,16.1h-2.9l-6.12-16.1Z"/>
          <path class="cls-2" d="m581.09,299.27h-2.9l-1.56-4.12h-6.83l-1.56,4.12h-2.76l6.39-16.1h2.85l6.37,16.1Zm-10.42-6.39h5.08l-1.43-3.79c-.41-1.06-.76-2.16-1.06-3.27h-.09c-.3,1.1-.64,2.18-1.04,3.24l-1.47,3.82Z"/>
        </g>
      </g>
    </g>
  </g>
</svg>