<?xml version="1.0" encoding="UTF-8"?>
<svg id="Camada_2" data-name="Camada 2" xmlns="http://www.w3.org/2000/svg" viewBox="0 0 1280 546">
  <defs>
    <style>
      .cls-1 {
        stroke: #950048;
        stroke-width: 3px;
      }

      .cls-1, .cls-2 {
        fill: none;
        stroke-miterlimit: 10;
      }

      .cls-3 {
        opacity: .2;
      }

      .cls-3, .cls-4 {
        fill: #950048;
      }

      .cls-5 {
        fill: #73787c;
      }

      .cls-2 {
        stroke: #73787c;
      }
    </style>
  </defs>
  <g id="Camada_1-2" data-name="Camada 1">
    <g>
      <rect class="cls-3" x="553" width="332" height="546" rx="32.5" ry="32.5"/>
      <g>
        <path class="cls-4" d="m2.75,117.23h3.05v17.5h-3.05v-17.5Z"/>
        <path class="cls-4" d="m10.2,117.23h12.62v2.57h-9.57v4.62h8.62v2.57h-8.62v5.15h9.8v2.57h-12.85v-17.5Z"/>
        <path class="cls-4" d="m30.32,126.86c-2.82-.6-4.67-1.65-4.67-5.05s1.85-4.82,6.55-4.82c2.5,0,4.45.4,5.77.82l-.53,2.27c-1.25-.37-2.87-.62-4.97-.62-2.95,0-3.85.57-3.85,2.32,0,1.85.98,2.15,3.1,2.6l2.55.52c3,.62,4.47,1.67,4.47,4.95,0,3.7-2,5.12-6.85,5.12-2.62,0-4.85-.4-6.37-1l.5-2.25c1.65.55,3.85.77,5.8.77,2.9,0,3.92-.7,3.92-2.45s-.8-2.22-2.88-2.67l-2.55-.52Z"/>
      </g>
      <g>
        <path class="cls-5" d="m222.97,125.86c0-3.55,1.02-6.2,3.32-7.65,1.3-.8,3-1.22,5.2-1.22s4.1.4,5.3.9l-.55,2.32c-1.27-.4-2.67-.6-4.27-.6s-2.92.27-3.82.87c-1.42.95-2.05,2.7-2.05,5.27v.45c0,2.55.62,4.3,2.05,5.25.92.62,2.17.9,3.9.9,1.6,0,3.02-.22,4.3-.62l.55,2.32c-1.22.52-3.17.92-5.32.92s-3.95-.42-5.27-1.25c-2.27-1.45-3.32-4.1-3.32-7.62v-.25Z"/>
        <path class="cls-5" d="m240.27,117.23h3.05v17.5h-3.05v-17.5Z"/>
        <path class="cls-5" d="m223.15,155.88c0-3.4.92-6.02,3.05-7.52,1.25-.87,2.92-1.37,5.15-1.37s3.97.42,5.15.95l-.42,1.77c-1.27-.45-2.77-.72-4.45-.72-1.8,0-3.02.35-3.95,1-1.55,1.1-2.2,3.07-2.2,5.8v.4c0,2.72.67,4.7,2.22,5.8.92.65,2.17,1,4.02,1,1.7,0,3.17-.27,4.45-.72l.42,1.77c-1.22.55-2.95.95-5.15.95s-3.97-.5-5.22-1.37c-2.15-1.5-3.07-4.2-3.07-7.52v-.2Z"/>
        <path class="cls-5" d="m251.6,158.43c0,4.27-1.97,6.55-6.2,6.55s-6.2-2.27-6.2-6.55v-.2c0-4.27,1.97-6.55,6.2-6.55s6.2,2.27,6.2,6.55v.2Zm-2.2-.3c0-1.92-.4-3.27-1.42-4-.62-.42-1.45-.65-2.57-.65s-1.95.22-2.57.65c-1.02.72-1.42,2.07-1.42,4v.4c0,1.92.4,3.27,1.42,4,.62.42,1.45.65,2.57.65s1.95-.22,2.57-.65c1.03-.72,1.42-2.07,1.42-4v-.4Z"/>
        <path class="cls-5" d="m266.15,164.73h-2.15v-7.75c0-2.55-.67-3.4-3.22-3.4-2.77,0-3.47,1.35-3.47,3.65v7.5h-2.15v-12.8h1.9l.2,1.75h.08c.5-1.05,1.62-2,4.07-2,3.72,0,4.75,1.72,4.75,5.15v7.9Z"/>
        <path class="cls-5" d="m271.8,158.53c0,1.95.45,3.22,1.58,3.92.67.42,1.62.62,2.85.62,1.1,0,2.4-.2,3.3-.45l.32,1.7c-.9.32-2.32.65-3.97.65-1.22,0-2.27-.2-3.12-.55-2.17-.92-3.15-3-3.15-6v-.2c0-2.97.95-5.07,3.12-6,.85-.37,1.9-.55,3.12-.55,1.62,0,3.05.3,3.95.62l-.33,1.7c-.9-.25-2.2-.42-3.27-.42-1.25,0-2.17.2-2.85.62-1.12.7-1.55,1.97-1.55,3.92v.4Z"/>
        <path class="cls-5" d="m284.12,158.76c.05,1.75.55,2.87,1.52,3.57.83.57,1.95.85,3.5.85,1.45,0,2.85-.27,3.8-.62l.33,1.62c-.92.42-2.6.8-4.32.8-4.47,0-6.97-1.7-6.97-6.75v-.2c0-4.07,2.02-6.35,6.12-6.35s5.67,2.12,5.67,5.65v1.42h-9.65Zm.03-1.72h7.52v-.22c0-1.35-.38-2.27-1.2-2.8-.6-.37-1.35-.57-2.38-.57s-1.82.2-2.45.57c-.92.6-1.38,1.6-1.5,3.02Z"/>
        <path class="cls-5" d="m299.52,149.66h-2.2v-2.8h2.2v2.8Zm-.03,15.07h-2.15v-12.8h2.15v12.8Z"/>
        <path class="cls-5" d="m304.65,161.11v-7.5h-2.3v-1.67h2.38l.1-3.77h1.92v3.77h4.05v1.67h-4.02v7.2c0,1.82.5,2.32,2.4,2.32.55,0,1.27-.05,1.67-.12v1.62c-.42.12-1.22.25-1.95.25-3.1,0-4.25-1.02-4.25-3.77Z"/>
        <path class="cls-5" d="m325.37,158.43c0,4.27-1.97,6.55-6.2,6.55s-6.2-2.27-6.2-6.55v-.2c0-4.27,1.97-6.55,6.2-6.55s6.2,2.27,6.2,6.55v.2Zm-2.2-.3c0-1.92-.4-3.27-1.42-4-.62-.42-1.45-.65-2.57-.65s-1.95.22-2.57.65c-1.02.72-1.42,2.07-1.42,4v.4c0,1.92.4,3.27,1.42,4,.62.42,1.45.65,2.57.65s1.95-.22,2.57-.65c1.03-.72,1.42-2.07,1.42-4v-.4Z"/>
        <path class="cls-5" d="m224,177.23h2.25v17.5h-2.25v-17.5Z"/>
        <path class="cls-5" d="m241.87,194.73h-2.15v-7.75c0-2.55-.67-3.4-3.22-3.4-2.77,0-3.47,1.35-3.47,3.65v7.5h-2.15v-12.8h1.9l.2,1.75h.08c.5-1.05,1.62-2,4.07-2,3.72,0,4.75,1.72,4.75,5.15v7.9Z"/>
        <path class="cls-5" d="m245.12,194.36l.33-1.65c1.2.37,2.67.55,4.1.55,2.47,0,3.15-.42,3.15-1.92s-.7-1.65-2.05-1.95l-1.9-.42c-2.07-.47-3.65-1.05-3.65-3.67s1.4-3.6,4.87-3.6c1.77,0,3.4.27,4.25.55l-.33,1.65c-.92-.27-2.17-.47-3.77-.47-2.25,0-2.92.37-2.92,1.8,0,1.5.8,1.67,2.25,2l1.9.42c2.22.5,3.45,1.15,3.45,3.62,0,2.72-1.4,3.72-5.07,3.72-1.95,0-3.6-.27-4.6-.62Z"/>
        <path class="cls-5" d="m258.65,191.11v-7.5h-2.3v-1.67h2.38l.1-3.77h1.92v3.77h4.05v1.67h-4.02v7.2c0,1.82.5,2.32,2.4,2.32.55,0,1.27-.05,1.67-.12v1.62c-.42.12-1.22.25-1.95.25-3.1,0-4.25-1.02-4.25-3.77Z"/>
        <path class="cls-5" d="m270.22,179.66h-2.2v-2.8h2.2v2.8Zm-.03,15.07h-2.15v-12.8h2.15v12.8Z"/>
        <path class="cls-5" d="m275.35,191.11v-7.5h-2.3v-1.67h2.38l.1-3.77h1.92v3.77h4.05v1.67h-4.02v7.2c0,1.82.5,2.32,2.4,2.32.55,0,1.27-.05,1.67-.12v1.62c-.42.12-1.22.25-1.95.25-3.1,0-4.25-1.02-4.25-3.77Z"/>
        <path class="cls-5" d="m284.55,181.93h2.15v7.65c0,2.62.7,3.5,3.15,3.5,2.77,0,3.4-1.57,3.4-3.75v-7.4h2.15v12.8h-1.92l-.17-1.65h-.07c-.53.95-1.6,1.9-3.62,1.9-3.67,0-5.05-1.47-5.05-5.25v-7.8Z"/>
        <path class="cls-5" d="m301.15,188.53c0,1.95.45,3.22,1.57,3.92.68.42,1.62.62,2.85.62,1.1,0,2.4-.2,3.3-.45l.32,1.7c-.9.32-2.32.65-3.97.65-1.22,0-2.27-.2-3.12-.55-2.17-.92-3.15-3-3.15-6v-.2c0-2.97.95-5.07,3.12-6,.85-.37,1.9-.55,3.12-.55,1.62,0,3.05.3,3.95.62l-.33,1.7c-.9-.25-2.2-.42-3.27-.42-1.25,0-2.17.2-2.85.62-1.12.7-1.55,1.97-1.55,3.92v.4Z"/>
        <path class="cls-5" d="m314.62,179.66h-2.2v-2.8h2.2v2.8Zm-.03,15.07h-2.15v-12.8h2.15v12.8Z"/>
        <path class="cls-5" d="m330.62,188.43c0,4.27-1.97,6.55-6.2,6.55s-6.2-2.27-6.2-6.55v-.2c0-4.27,1.97-6.55,6.2-6.55s6.2,2.27,6.2,6.55v.2Zm-2.2-.3c0-1.92-.4-3.27-1.42-4-.62-.42-1.45-.65-2.57-.65s-1.95.22-2.57.65c-1.02.72-1.42,2.07-1.42,4v.4c0,1.92.4,3.27,1.42,4,.62.42,1.45.65,2.57.65s1.95-.22,2.57-.65c1.03-.72,1.42-2.07,1.42-4v-.4Z"/>
        <path class="cls-5" d="m345.17,194.73h-2.15v-7.75c0-2.55-.67-3.4-3.22-3.4-2.77,0-3.47,1.35-3.47,3.65v7.5h-2.15v-12.8h1.9l.2,1.75h.08c.5-1.05,1.62-2,4.07-2,3.72,0,4.75,1.72,4.75,5.15v7.9Z"/>
        <path class="cls-5" d="m359.34,194.73h-1.88l-.15-1.65h-.07c-.65.85-1.85,1.85-4.42,1.85-2.88,0-4.32-1.2-4.32-3.8,0-2.45,1.3-3.65,4.42-3.65h4.32v-1.1c0-2.12-.73-2.9-3.3-2.9-1.47,0-3.2.25-4.17.5l-.3-1.6c.95-.35,2.7-.7,4.67-.7,3.87,0,5.2,1.35,5.2,4.57v8.47Zm-2.08-5.55h-4.2c-1.95,0-2.5.52-2.5,1.97,0,1.57.7,2.07,2.52,2.07,2.3,0,4.17-1.12,4.17-3.1v-.95Z"/>
        <path class="cls-5" d="m365.72,191.53c0,1.2.33,1.45,1.42,1.45.35,0,.75-.02.92-.05v1.75c-.27.08-.82.15-1.45.15-2.27,0-3.05-.82-3.05-2.87v-15.47h2.15v15.05Z"/>
      </g>
      <g>
        <path class="cls-4" d="m624.75,117.23h3.05v17.5h-3.05v-17.5Z"/>
        <path class="cls-4" d="m639.8,125.46h7v8.42c-1.8.67-4,1.1-6.67,1.1-2.17,0-3.92-.4-5.27-1.22-2.22-1.37-3.32-3.9-3.32-7.45v-.22c0-4,1.12-6.62,3.6-8,1.35-.75,3.12-1.1,5.32-1.1,2.4,0,4.47.42,5.85.95l-.55,2.32c-1.3-.37-3.1-.67-4.87-.67s-3.12.27-4.1.87c-1.5.95-2.15,2.7-2.15,5.52v.42c0,2.37.62,4.1,2,5.05.9.62,2.2.92,3.87.92,1.33,0,2.5-.17,3.42-.42v-4.1h-4.12v-2.4Z"/>
        <path class="cls-4" d="m650.05,125.86c0-3.55,1.02-6.2,3.32-7.65,1.3-.8,3-1.22,5.2-1.22s4.1.4,5.3.9l-.55,2.32c-1.27-.4-2.67-.6-4.27-.6s-2.92.27-3.82.87c-1.42.95-2.05,2.7-2.05,5.27v.45c0,2.55.62,4.3,2.05,5.25.92.62,2.17.9,3.9.9,1.6,0,3.02-.22,4.3-.62l.55,2.32c-1.22.52-3.17.92-5.32.92s-3.95-.42-5.27-1.25c-2.27-1.45-3.32-4.1-3.32-7.62v-.25Z"/>
        <path class="cls-4" d="m625,147.23h2.25v17.5h-2.25v-17.5Zm.3-1.45l1.67-3.57h2.82v.05l-2.77,3.52h-1.72Z"/>
        <path class="cls-4" d="m642.87,164.73h-2.15v-7.75c0-2.55-.67-3.4-3.22-3.4-2.77,0-3.47,1.35-3.47,3.65v7.5h-2.15v-12.8h1.9l.2,1.75h.08c.5-1.05,1.62-2,4.07-2,3.72,0,4.75,1.72,4.75,5.15v7.9Z"/>
        <path class="cls-4" d="m646.32,158.43v-.2c0-4.27,2-6.55,5.85-6.55,1.97,0,3.4.6,4.32,1.75l.1-.05c-.05-.62-.08-1.3-.08-1.95v-4.95h2.15v18.25h-1.87l-.2-1.47-.1-.03c-.92,1.15-2.35,1.75-4.32,1.75-3.85,0-5.85-2.27-5.85-6.55Zm8.77,4.1c1.03-.72,1.42-2.07,1.42-4v-.4c0-1.92-.4-3.27-1.42-4-.62-.42-1.45-.65-2.57-.65s-1.95.22-2.57.65c-1.02.72-1.42,2.07-1.42,4v.4c0,1.92.4,3.27,1.42,4,.62.42,1.45.65,2.57.65s1.95-.22,2.57-.65Z"/>
        <path class="cls-4" d="m665.2,149.66h-2.2v-2.8h2.2v2.8Zm-.03,15.07h-2.15v-12.8h2.15v12.8Z"/>
        <path class="cls-4" d="m671,158.53c0,1.95.45,3.22,1.57,3.92.68.42,1.62.62,2.85.62,1.1,0,2.4-.2,3.3-.45l.32,1.7c-.9.32-2.32.65-3.97.65-1.22,0-2.27-.2-3.12-.55-2.17-.92-3.15-3-3.15-6v-.2c0-2.97.95-5.07,3.12-6,.85-.37,1.9-.55,3.12-.55,1.62,0,3.05.3,3.95.62l-.33,1.7c-.9-.25-2.2-.42-3.27-.42-1.25,0-2.17.2-2.85.62-1.12.7-1.55,1.97-1.55,3.92v.4Z"/>
        <path class="cls-4" d="m683.32,158.76c.05,1.75.55,2.87,1.52,3.57.83.57,1.95.85,3.5.85,1.45,0,2.85-.27,3.8-.62l.32,1.62c-.92.42-2.6.8-4.32.8-4.47,0-6.97-1.7-6.97-6.75v-.2c0-4.07,2.02-6.35,6.12-6.35s5.67,2.12,5.67,5.65v1.42h-9.65Zm.02-1.72h7.52v-.22c0-1.35-.38-2.27-1.2-2.8-.6-.37-1.35-.57-2.38-.57s-1.82.2-2.45.57c-.92.6-1.38,1.6-1.5,3.02Z"/>
        <path class="cls-4" d="m710.7,155.73h6.6v8.2c-1.88.67-3.72,1.05-6.45,1.05-2.27,0-4.07-.45-5.32-1.32-2.15-1.5-3.02-4.15-3.02-7.32v-.2c0-3.55.88-6.35,3.2-7.87,1.33-.87,3.12-1.27,5.45-1.27,2.47,0,4.27.42,5.65.97l-.42,1.77c-1.33-.45-3.1-.75-4.95-.75s-3.27.27-4.27.92c-1.7,1.1-2.33,3.15-2.33,6.12v.4c0,2.52.62,4.5,2.17,5.6.92.65,2.27.95,4.12.95,1.6,0,2.9-.22,4.02-.57v-4.77h-4.45v-1.9Z"/>
        <path class="cls-4" d="m722.77,158.76c.05,1.75.55,2.87,1.52,3.57.83.57,1.95.85,3.5.85,1.45,0,2.85-.27,3.8-.62l.32,1.62c-.92.42-2.6.8-4.32.8-4.47,0-6.97-1.7-6.97-6.75v-.2c0-4.07,2.02-6.35,6.12-6.35s5.67,2.12,5.67,5.65v1.42h-9.65Zm.02-1.72h7.52v-.22c0-1.35-.38-2.27-1.2-2.8-.6-.37-1.35-.57-2.38-.57s-1.82.2-2.45.57c-.92.6-1.38,1.6-1.5,3.02Z"/>
        <path class="cls-4" d="m742.97,153.93c-.28-.03-.83-.05-1.17-.05-3.02,0-3.72,1.37-3.72,3.37v7.47h-2.15v-12.8h1.9l.2,2h.08c.6-1.2,1.55-2.1,3.67-2.1.48,0,.92.05,1.2.1v2Z"/>
        <path class="cls-4" d="m755.37,164.73h-1.88l-.15-1.65h-.07c-.65.85-1.85,1.85-4.42,1.85-2.88,0-4.32-1.2-4.32-3.8,0-2.45,1.3-3.65,4.42-3.65h4.32v-1.1c0-2.12-.73-2.9-3.3-2.9-1.47,0-3.2.25-4.17.5l-.3-1.6c.95-.35,2.7-.7,4.67-.7,3.87,0,5.2,1.35,5.2,4.57v8.47Zm-2.08-5.55h-4.2c-1.95,0-2.5.52-2.5,1.97,0,1.57.7,2.07,2.52,2.07,2.3,0,4.17-1.12,4.17-3.1v-.95Z"/>
        <path class="cls-4" d="m761.75,161.53c0,1.2.33,1.45,1.42,1.45.35,0,.75-.02.92-.05v1.75c-.27.08-.82.15-1.45.15-2.27,0-3.05-.82-3.05-2.87v-15.47h2.15v15.05Z"/>
        <path class="cls-4" d="m623.92,188.43v-.2c0-4.27,2-6.55,5.85-6.55,1.97,0,3.4.6,4.32,1.75l.1-.05c-.05-.62-.08-1.3-.08-1.95v-4.95h2.15v18.25h-1.87l-.2-1.47-.1-.03c-.92,1.15-2.35,1.75-4.32,1.75-3.85,0-5.85-2.27-5.85-6.55Zm8.77,4.1c1.03-.72,1.42-2.07,1.42-4v-.4c0-1.92-.4-3.27-1.42-4-.62-.42-1.45-.65-2.57-.65s-1.95.22-2.57.65c-1.02.72-1.42,2.07-1.42,4v.4c0,1.92.4,3.27,1.42,4,.62.42,1.45.65,2.57.65s1.95-.22,2.57-.65Z"/>
        <path class="cls-4" d="m642,188.76c.05,1.75.55,2.87,1.52,3.57.83.57,1.95.85,3.5.85,1.45,0,2.85-.27,3.8-.62l.32,1.62c-.92.42-2.6.8-4.32.8-4.47,0-6.97-1.7-6.97-6.75v-.2c0-4.07,2.02-6.35,6.12-6.35s5.67,2.12,5.67,5.65v1.42h-9.65Zm.02-1.72h7.52v-.22c0-1.35-.38-2.27-1.2-2.8-.6-.37-1.35-.57-2.38-.57s-1.82.2-2.45.57c-.92.6-1.38,1.6-1.5,3.02Z"/>
        <path class="cls-4" d="m661.17,185.88c0-3.4.92-6.02,3.05-7.52,1.25-.87,2.92-1.37,5.15-1.37s3.97.42,5.15.95l-.42,1.77c-1.27-.45-2.77-.72-4.45-.72-1.8,0-3.02.35-3.95,1-1.55,1.1-2.2,3.07-2.2,5.8v.4c0,2.72.67,4.7,2.22,5.8.92.65,2.17,1,4.02,1,1.7,0,3.17-.27,4.45-.72l.42,1.77c-1.22.55-2.95.95-5.15.95s-3.97-.5-5.22-1.37c-2.15-1.5-3.07-4.2-3.07-7.52v-.2Z"/>
        <path class="cls-4" d="m677.72,181.93h2.15v7.65c0,2.62.7,3.5,3.15,3.5,2.77,0,3.4-1.57,3.4-3.75v-7.4h2.15v12.8h-1.92l-.17-1.65h-.07c-.53.95-1.6,1.9-3.62,1.9-3.67,0-5.05-1.47-5.05-5.25v-7.8Z"/>
        <path class="cls-4" d="m699.87,183.93c-.28-.03-.83-.05-1.17-.05-3.02,0-3.72,1.37-3.72,3.37v7.47h-2.15v-12.8h1.9l.2,2h.08c.6-1.2,1.55-2.1,3.67-2.1.48,0,.92.05,1.2.1v2Z"/>
        <path class="cls-4" d="m701.97,194.36l.33-1.65c1.2.37,2.67.55,4.1.55,2.47,0,3.15-.42,3.15-1.92s-.7-1.65-2.05-1.95l-1.9-.42c-2.07-.47-3.65-1.05-3.65-3.67s1.4-3.6,4.87-3.6c1.77,0,3.4.27,4.25.55l-.32,1.65c-.92-.27-2.17-.47-3.77-.47-2.25,0-2.92.37-2.92,1.8,0,1.5.8,1.67,2.25,2l1.9.42c2.22.5,3.45,1.15,3.45,3.62,0,2.72-1.4,3.72-5.07,3.72-1.95,0-3.6-.27-4.6-.62Z"/>
        <path class="cls-4" d="m726.59,188.43c0,4.27-1.97,6.55-6.2,6.55s-6.2-2.27-6.2-6.55v-.2c0-4.27,1.97-6.55,6.2-6.55s6.2,2.27,6.2,6.55v.2Zm-2.2-.3c0-1.92-.4-3.27-1.42-4-.62-.42-1.45-.65-2.57-.65s-1.95.22-2.57.65c-1.02.72-1.42,2.07-1.42,4v.4c0,1.92.4,3.27,1.42,4,.62.42,1.45.65,2.57.65s1.95-.22,2.57-.65c1.03-.72,1.42-2.07,1.42-4v-.4Z"/>
        <path class="cls-4" d="m729.15,194.36l.33-1.65c1.2.37,2.67.55,4.1.55,2.47,0,3.15-.42,3.15-1.92s-.7-1.65-2.05-1.95l-1.9-.42c-2.07-.47-3.65-1.05-3.65-3.67s1.4-3.6,4.87-3.6c1.77,0,3.4.27,4.25.55l-.33,1.65c-.92-.27-2.17-.47-3.77-.47-2.25,0-2.92.37-2.92,1.8,0,1.5.8,1.67,2.25,2l1.9.42c2.22.5,3.45,1.15,3.45,3.62,0,2.72-1.4,3.72-5.07,3.72-1.95,0-3.6-.27-4.6-.62Z"/>
      </g>
      <g>
        <path class="cls-4" d="m623.97,343.86c0-3.55,1.02-6.2,3.32-7.65,1.3-.8,3-1.22,5.2-1.22s4.1.4,5.3.9l-.55,2.32c-1.27-.4-2.67-.6-4.27-.6s-2.92.28-3.82.87c-1.42.95-2.05,2.7-2.05,5.27v.45c0,2.55.62,4.3,2.05,5.25.92.62,2.17.9,3.9.9,1.6,0,3.02-.23,4.3-.62l.55,2.32c-1.22.52-3.17.92-5.32.92s-3.95-.42-5.27-1.25c-2.27-1.45-3.32-4.1-3.32-7.62v-.25Z"/>
        <path class="cls-4" d="m653.07,346.36c0,4.32-2.12,6.62-6.52,6.62s-6.5-2.3-6.5-6.62v-.2c0-4.32,2.12-6.62,6.5-6.62s6.52,2.3,6.52,6.62v.2Zm-2.97-.3c0-1.7-.33-2.95-1.25-3.65-.55-.4-1.27-.62-2.3-.62s-1.75.22-2.27.62c-.92.7-1.27,1.95-1.27,3.65v.4c0,1.7.35,2.95,1.27,3.65.53.4,1.28.6,2.27.6s1.75-.2,2.3-.6c.92-.7,1.25-1.95,1.25-3.65v-.4Z"/>
        <path class="cls-4" d="m667.85,352.73h-2.9v-7.72c0-2.35-.65-3.02-2.85-3.02-2.4,0-3.02,1.1-3.02,3.22v7.52h-2.9v-12.95h2.57l.25,1.72h.07c.5-.97,1.55-1.97,4.07-1.97,3.65,0,4.7,1.7,4.7,5.15v8.05Z"/>
        <path class="cls-4" d="m673.8,346.48c0,1.77.42,2.9,1.45,3.5.65.4,1.55.55,2.77.55,1.12,0,2.33-.17,3.17-.37l.42,2.15c-.88.32-2.47.67-4.2.67-1.47,0-2.67-.25-3.62-.72-2-.97-2.95-2.97-2.95-5.9v-.2c0-2.92.92-4.95,2.92-5.92.95-.47,2.15-.7,3.6-.7,1.7,0,3.3.32,4.17.62l-.45,2.17c-.83-.2-2.03-.35-3.12-.35-1.2,0-2.1.15-2.75.52-1.02.62-1.42,1.72-1.42,3.52v.45Z"/>
        <path class="cls-4" d="m686.25,346.96c.1,1.4.5,2.35,1.25,2.92.72.6,1.82.82,3.35.82s2.88-.25,3.85-.57l.4,2c-.95.43-2.67.85-4.65.85-4.75,0-7.1-2.02-7.1-6.8v-.2c0-4.12,2.17-6.45,6.37-6.45s5.95,2.2,5.95,5.75v1.67h-9.42Zm.03-2.02h6.65v-.22c0-1.15-.32-1.97-1.02-2.45-.52-.35-1.22-.52-2.17-.52-1,0-1.7.18-2.22.52-.8.52-1.12,1.4-1.22,2.67Z"/>
        <path class="cls-4" d="m701.75,337.76h-3v-3h3v3Zm-.05,14.97h-2.9v-12.95h2.9v12.95Z"/>
        <path class="cls-4" d="m706.5,348.96v-7h-2.25v-2.17h2.38l.15-3.77h2.57v3.77h3.95v2.17h-3.92v6.57c0,1.7.52,2.1,2.3,2.1.55,0,1.25-.05,1.65-.1v2.1c-.47.15-1.4.27-2.27.27-3.35,0-4.55-1-4.55-3.95Z"/>
        <path class="cls-4" d="m728.32,346.36c0,4.32-2.12,6.62-6.52,6.62s-6.5-2.3-6.5-6.62v-.2c0-4.32,2.12-6.62,6.5-6.62s6.52,2.3,6.52,6.62v.2Zm-2.97-.3c0-1.7-.33-2.95-1.25-3.65-.55-.4-1.27-.62-2.3-.62s-1.75.22-2.27.62c-.92.7-1.27,1.95-1.27,3.65v.4c0,1.7.35,2.95,1.27,3.65.53.4,1.28.6,2.27.6s1.75-.2,2.3-.6c.92-.7,1.25-1.95,1.25-3.65v-.4Z"/>
        <path class="cls-4" d="m624.65,365.23h12.62v2.57h-9.57v4.62h8.62v2.57h-8.62v5.15h9.8v2.57h-12.85v-17.5Z"/>
        <path class="cls-4" d="m655.57,382.73h-3.62l-6.32-10.35c-.7-1.22-1.3-2.3-1.9-3.6h-.08c.12,1.47.17,2.82.17,4.27v9.67h-3v-17.5h3.62l6.32,10.35c.7,1.22,1.3,2.3,1.88,3.6h.08c-.12-1.47-.12-2.82-.12-4.27v-9.67h2.97v17.5Z"/>
        <path class="cls-4" d="m675.17,382.73h-3.15l-1.7-4.47h-7.42l-1.7,4.47h-3l6.95-17.5h3.1l6.92,17.5Zm-11.32-6.95h5.52l-1.55-4.12c-.45-1.15-.83-2.35-1.15-3.55h-.1c-.33,1.2-.7,2.37-1.12,3.52l-1.6,4.15Z"/>
        <path class="cls-4" d="m692.87,374.11c0,6.42-2.57,8.62-8.87,8.62h-6.2v-17.5h6.2c6.3,0,8.87,2.2,8.87,8.62v.25Zm-3.12-.35c0-4.6-1.38-5.95-5.87-5.95h-3v12.35h3c4.5,0,5.87-1.35,5.87-5.95v-.45Z"/>
        <path class="cls-4" d="m696.47,365.23h12.62v2.57h-9.57v4.62h8.62v2.57h-8.62v5.15h9.8v2.57h-12.85v-17.5Z"/>
        <path class="cls-4" d="m718.2,372.78h4.17v-4.12h2.75v4.12h4.15v2.4h-4.15v4.12h-2.75v-4.12h-4.17v-2.4Z"/>
        <path class="cls-4" d="m738.45,373.86c0-3.55,1.02-6.2,3.32-7.65,1.3-.8,3-1.22,5.2-1.22s4.1.4,5.3.9l-.55,2.32c-1.27-.4-2.67-.6-4.27-.6s-2.92.28-3.82.87c-1.42.95-2.05,2.7-2.05,5.27v.45c0,2.55.62,4.3,2.05,5.25.92.62,2.17.9,3.9.9,1.6,0,3.02-.23,4.3-.62l.55,2.32c-1.22.52-3.17.92-5.32.92s-3.95-.42-5.27-1.25c-2.27-1.45-3.32-4.1-3.32-7.62v-.25Z"/>
        <path class="cls-4" d="m755.65,365.23h7.72c4.8,0,6.47,1.92,6.47,5.57s-1.67,5.72-6.47,5.72h-4.67v6.2h-3.05v-17.5Zm3.05,2.5v6.35h4.42c2.75,0,3.62-.87,3.62-3.17s-.85-3.17-3.62-3.17h-4.42Z"/>
        <path class="cls-4" d="m772.42,373.86c0-3.55,1.02-6.2,3.32-7.65,1.3-.8,3-1.22,5.2-1.22s4.1.4,5.3.9l-.55,2.32c-1.27-.4-2.67-.6-4.27-.6s-2.92.28-3.82.87c-1.42.95-2.05,2.7-2.05,5.27v.45c0,2.55.62,4.3,2.05,5.25.92.62,2.17.9,3.9.9,1.6,0,3.02-.23,4.3-.62l.55,2.32c-1.22.52-3.17.92-5.32.92s-3.95-.42-5.27-1.25c-2.27-1.45-3.32-4.1-3.32-7.62v-.25Z"/>
        <path class="cls-4" d="m624.15,403.88c0-3.4.92-6.02,3.05-7.52,1.25-.87,2.92-1.37,5.15-1.37s3.97.42,5.15.95l-.42,1.77c-1.27-.45-2.77-.72-4.45-.72-1.8,0-3.02.35-3.95,1-1.55,1.1-2.2,3.07-2.2,5.8v.4c0,2.72.67,4.7,2.22,5.8.92.65,2.17,1,4.02,1,1.7,0,3.17-.27,4.45-.72l.42,1.77c-1.22.55-2.95.95-5.15.95s-3.97-.5-5.22-1.37c-2.15-1.5-3.07-4.2-3.07-7.52v-.2Z"/>
        <path class="cls-4" d="m652.6,406.43c0,4.27-1.97,6.55-6.2,6.55s-6.2-2.27-6.2-6.55v-.2c0-4.27,1.97-6.55,6.2-6.55s6.2,2.27,6.2,6.55v.2Zm-2.2-.3c0-1.92-.4-3.27-1.42-4-.62-.42-1.45-.65-2.57-.65s-1.95.22-2.57.65c-1.02.72-1.42,2.07-1.42,4v.4c0,1.92.4,3.27,1.42,4,.62.43,1.45.65,2.57.65s1.95-.22,2.57-.65c1.03-.72,1.42-2.07,1.42-4v-.4Z"/>
        <path class="cls-4" d="m667.15,412.73h-2.15v-7.75c0-2.55-.67-3.4-3.22-3.4-2.77,0-3.47,1.35-3.47,3.65v7.5h-2.15v-12.8h1.9l.2,1.75h.08c.5-1.05,1.62-2,4.07-2,3.72,0,4.75,1.72,4.75,5.15v7.9Z"/>
        <path class="cls-4" d="m672.8,406.53c0,1.95.45,3.22,1.58,3.92.67.42,1.62.62,2.85.62,1.1,0,2.4-.2,3.3-.45l.32,1.7c-.9.32-2.32.65-3.97.65-1.22,0-2.27-.2-3.12-.55-2.17-.92-3.15-3-3.15-6v-.2c0-2.97.95-5.07,3.12-6,.85-.38,1.9-.55,3.12-.55,1.62,0,3.05.3,3.95.62l-.33,1.7c-.9-.25-2.2-.42-3.27-.42-1.25,0-2.17.2-2.85.62-1.12.7-1.55,1.97-1.55,3.92v.4Z"/>
        <path class="cls-4" d="m685.12,406.76c.05,1.75.55,2.87,1.52,3.57.83.57,1.95.85,3.5.85,1.45,0,2.85-.27,3.8-.62l.33,1.62c-.92.42-2.6.8-4.32.8-4.47,0-6.97-1.7-6.97-6.75v-.2c0-4.07,2.02-6.35,6.12-6.35s5.67,2.12,5.67,5.65v1.42h-9.65Zm.03-1.72h7.52v-.23c0-1.35-.38-2.27-1.2-2.8-.6-.37-1.35-.57-2.38-.57s-1.82.2-2.45.57c-.92.6-1.38,1.6-1.5,3.02Z"/>
        <path class="cls-4" d="m700.52,397.66h-2.2v-2.8h2.2v2.8Zm-.03,15.07h-2.15v-12.8h2.15v12.8Z"/>
        <path class="cls-4" d="m705.65,409.11v-7.5h-2.3v-1.67h2.38l.1-3.77h1.92v3.77h4.05v1.67h-4.02v7.2c0,1.82.5,2.32,2.4,2.32.55,0,1.27-.05,1.67-.12v1.62c-.42.12-1.22.25-1.95.25-3.1,0-4.25-1.02-4.25-3.77Z"/>
        <path class="cls-4" d="m726.37,406.43c0,4.27-1.97,6.55-6.2,6.55s-6.2-2.27-6.2-6.55v-.2c0-4.27,1.97-6.55,6.2-6.55s6.2,2.27,6.2,6.55v.2Zm-2.2-.3c0-1.92-.4-3.27-1.42-4-.62-.42-1.45-.65-2.57-.65s-1.95.22-2.57.65c-1.02.72-1.42,2.07-1.42,4v.4c0,1.92.4,3.27,1.42,4,.62.43,1.45.65,2.57.65s1.95-.22,2.57-.65c1.03-.72,1.42-2.07,1.42-4v-.4Z"/>
        <path class="cls-4" d="m624.92,425.23h7.35c4.62,0,6.15,1.95,6.15,5.37s-1.52,5.55-6.15,5.55h-5.1v6.57h-2.25v-17.5Zm2.25,1.95v7.07h4.97c3,0,3.97-1.07,3.97-3.55s-.95-3.52-3.97-3.52h-4.97Z"/>
        <path class="cls-4" d="m648.85,431.93c-.28-.02-.83-.05-1.17-.05-3.02,0-3.72,1.37-3.72,3.37v7.47h-2.15v-12.8h1.9l.2,2h.08c.6-1.2,1.55-2.1,3.67-2.1.48,0,.92.05,1.2.1v2Z"/>
        <path class="cls-4" d="m653.05,436.76c.05,1.75.55,2.87,1.52,3.57.83.57,1.95.85,3.5.85,1.45,0,2.85-.27,3.8-.62l.33,1.62c-.92.42-2.6.8-4.32.8-4.47,0-6.97-1.7-6.97-6.75v-.2c0-4.07,2.02-6.35,6.12-6.35s5.67,2.12,5.67,5.65v1.42h-9.65Zm.03-1.72h7.52v-.23c0-1.35-.38-2.27-1.2-2.8-.6-.37-1.35-.57-2.38-.57s-1.82.2-2.45.57c-.92.6-1.38,1.6-1.5,3.02Z"/>
        <path class="cls-4" d="m668.42,439.53c0,1.2.33,1.45,1.42,1.45.35,0,.75-.02.92-.05v1.75c-.27.07-.82.15-1.45.15-2.27,0-3.05-.82-3.05-2.87v-15.47h2.15v15.05Z"/>
        <path class="cls-4" d="m675.75,427.66h-2.2v-2.8h2.2v2.8Zm-.03,15.07h-2.15v-12.8h2.15v12.8Z"/>
        <path class="cls-4" d="m699.09,442.73h-2.15v-7.8c0-2.5-.7-3.35-3.05-3.35-2.55,0-3.25,1.35-3.25,3.6v7.55h-2.15v-7.8c0-2.5-.7-3.35-3.05-3.35-2.55,0-3.25,1.35-3.25,3.6v7.55h-2.15v-12.8h1.9l.2,1.75h.08c.5-1.05,1.62-2,3.85-2s3.6.7,4.2,2.07h.08c.5-1.05,1.62-2.07,4-2.07,3.8,0,4.75,1.72,4.75,5.1v7.95Z"/>
        <path class="cls-4" d="m705.5,427.66h-2.2v-2.8h2.2v2.8Zm-.03,15.07h-2.15v-12.8h2.15v12.8Z"/>
        <path class="cls-4" d="m720.8,442.73h-2.15v-7.75c0-2.55-.67-3.4-3.22-3.4-2.77,0-3.47,1.35-3.47,3.65v7.5h-2.15v-12.8h1.9l.2,1.75h.08c.5-1.05,1.62-2,4.07-2,3.72,0,4.75,1.72,4.75,5.15v7.9Z"/>
        <path class="cls-4" d="m734.97,442.73h-1.88l-.15-1.65h-.07c-.65.85-1.85,1.85-4.42,1.85-2.88,0-4.32-1.2-4.32-3.8,0-2.45,1.3-3.65,4.42-3.65h4.32v-1.1c0-2.12-.73-2.9-3.3-2.9-1.47,0-3.2.25-4.17.5l-.3-1.6c.95-.35,2.7-.7,4.67-.7,3.87,0,5.2,1.35,5.2,4.57v8.47Zm-2.08-5.55h-4.2c-1.95,0-2.5.52-2.5,1.97,0,1.57.7,2.07,2.52,2.07,2.3,0,4.17-1.12,4.17-3.1v-.95Z"/>
        <path class="cls-4" d="m746.17,431.93c-.28-.02-.83-.05-1.17-.05-3.02,0-3.72,1.37-3.72,3.37v7.47h-2.15v-12.8h1.9l.2,2h.08c.6-1.2,1.55-2.1,3.67-2.1.48,0,.92.05,1.2.1v2Z"/>
        <path class="cls-4" d="m754.97,436.43v-.2c0-4.27,2-6.55,5.85-6.55,1.97,0,3.4.6,4.32,1.75l.1-.05c-.05-.62-.08-1.3-.08-1.95v-4.95h2.15v18.25h-1.87l-.2-1.47-.1-.02c-.92,1.15-2.35,1.75-4.32,1.75-3.85,0-5.85-2.27-5.85-6.55Zm8.77,4.1c1.03-.72,1.42-2.07,1.42-4v-.4c0-1.92-.4-3.27-1.42-4-.62-.42-1.45-.65-2.57-.65s-1.95.22-2.57.65c-1.02.72-1.42,2.07-1.42,4v.4c0,1.92.4,3.27,1.42,4,.62.43,1.45.65,2.57.65s1.95-.22,2.57-.65Z"/>
        <path class="cls-4" d="m773.05,436.76c.05,1.75.55,2.87,1.52,3.57.83.57,1.95.85,3.5.85,1.45,0,2.85-.27,3.8-.62l.33,1.62c-.92.42-2.6.8-4.32.8-4.47,0-6.97-1.7-6.97-6.75v-.2c0-4.07,2.02-6.35,6.12-6.35s5.67,2.12,5.67,5.65v1.42h-9.65Zm.03-1.72h7.52v-.23c0-1.35-.38-2.27-1.2-2.8-.6-.37-1.35-.57-2.38-.57s-1.82.2-2.45.57c-.92.6-1.38,1.6-1.5,3.02Z"/>
        <path class="cls-4" d="m624.15,463.88c0-3.4.92-6.02,3.05-7.52,1.25-.87,2.92-1.37,5.15-1.37s3.97.42,5.15.95l-.42,1.77c-1.27-.45-2.77-.72-4.45-.72-1.8,0-3.02.35-3.95,1-1.55,1.1-2.2,3.07-2.2,5.8v.4c0,2.72.67,4.7,2.22,5.8.92.65,2.17,1,4.02,1,1.7,0,3.17-.27,4.45-.72l.42,1.77c-1.22.55-2.95.95-5.15.95s-3.97-.5-5.22-1.37c-2.15-1.5-3.07-4.2-3.07-7.52v-.2Z"/>
        <path class="cls-4" d="m640.7,459.93h2.15v7.65c0,2.62.7,3.5,3.15,3.5,2.77,0,3.4-1.57,3.4-3.75v-7.4h2.15v12.8h-1.92l-.17-1.65h-.07c-.53.95-1.6,1.9-3.62,1.9-3.67,0-5.05-1.47-5.05-5.25v-7.8Z"/>
        <path class="cls-4" d="m662.85,461.93c-.28-.02-.83-.05-1.17-.05-3.02,0-3.72,1.37-3.72,3.37v7.47h-2.15v-12.8h1.9l.2,2h.08c.6-1.2,1.55-2.1,3.67-2.1.48,0,.92.05,1.2.1v2Z"/>
        <path class="cls-4" d="m664.95,472.36l.33-1.65c1.2.38,2.67.55,4.1.55,2.47,0,3.15-.42,3.15-1.92s-.7-1.65-2.05-1.95l-1.9-.42c-2.07-.47-3.65-1.05-3.65-3.67s1.4-3.6,4.87-3.6c1.77,0,3.4.27,4.25.55l-.33,1.65c-.92-.28-2.17-.48-3.77-.48-2.25,0-2.92.38-2.92,1.8,0,1.5.8,1.67,2.25,2l1.9.43c2.22.5,3.45,1.15,3.45,3.62,0,2.72-1.4,3.72-5.07,3.72-1.95,0-3.6-.27-4.6-.62Z"/>
        <path class="cls-4" d="m689.57,466.43c0,4.27-1.97,6.55-6.2,6.55s-6.2-2.27-6.2-6.55v-.2c0-4.27,1.97-6.55,6.2-6.55s6.2,2.27,6.2,6.55v.2Zm-2.2-.3c0-1.92-.4-3.27-1.42-4-.62-.42-1.45-.65-2.57-.65s-1.95.22-2.57.65c-1.02.72-1.42,2.07-1.42,4v.4c0,1.92.4,3.27,1.42,4,.62.43,1.45.65,2.57.65s1.95-.22,2.57-.65c1.03-.72,1.42-2.07,1.42-4v-.4Z"/>
      </g>
      <g>
        <path class="cls-5" d="m222.97,343.86c0-3.55,1.02-6.2,3.32-7.65,1.3-.8,3-1.22,5.2-1.22s4.1.4,5.3.9l-.55,2.32c-1.27-.4-2.67-.6-4.27-.6s-2.92.28-3.82.87c-1.42.95-2.05,2.7-2.05,5.27v.45c0,2.55.62,4.3,2.05,5.25.92.62,2.17.9,3.9.9,1.6,0,3.02-.23,4.3-.62l.55,2.32c-1.22.52-3.17.92-5.32.92s-3.95-.42-5.27-1.25c-2.27-1.45-3.32-4.1-3.32-7.62v-.25Z"/>
        <path class="cls-5" d="m239.07,343.86c0-3.55,1.02-6.2,3.32-7.65,1.3-.8,3-1.22,5.2-1.22s4.1.4,5.3.9l-.55,2.32c-1.27-.4-2.67-.6-4.27-.6s-2.92.28-3.82.87c-1.42.95-2.05,2.7-2.05,5.27v.45c0,2.55.62,4.3,2.05,5.25.92.62,2.17.9,3.9.9,1.6,0,3.02-.23,4.3-.62l.55,2.32c-1.22.52-3.17.92-5.32.92s-3.95-.42-5.27-1.25c-2.27-1.45-3.32-4.1-3.32-7.62v-.25Z"/>
        <path class="cls-5" d="m223.15,373.88c0-3.4.92-6.02,3.05-7.52,1.25-.87,2.92-1.37,5.15-1.37s3.97.42,5.15.95l-.42,1.77c-1.27-.45-2.77-.72-4.45-.72-1.8,0-3.02.35-3.95,1-1.55,1.1-2.2,3.07-2.2,5.8v.4c0,2.72.67,4.7,2.22,5.8.92.65,2.17,1,4.02,1,1.7,0,3.17-.27,4.45-.72l.42,1.77c-1.22.55-2.95.95-5.15.95s-3.97-.5-5.22-1.37c-2.15-1.5-3.07-4.2-3.07-7.52v-.2Z"/>
        <path class="cls-5" d="m251.6,376.43c0,4.27-1.97,6.55-6.2,6.55s-6.2-2.27-6.2-6.55v-.2c0-4.27,1.97-6.55,6.2-6.55s6.2,2.27,6.2,6.55v.2Zm-2.2-.3c0-1.92-.4-3.27-1.42-4-.62-.42-1.45-.65-2.57-.65s-1.95.22-2.57.65c-1.02.72-1.42,2.07-1.42,4v.4c0,1.92.4,3.27,1.42,4,.62.43,1.45.65,2.57.65s1.95-.22,2.57-.65c1.03-.72,1.42-2.07,1.42-4v-.4Z"/>
        <path class="cls-5" d="m266.15,382.73h-2.15v-7.75c0-2.55-.67-3.4-3.22-3.4-2.77,0-3.47,1.35-3.47,3.65v7.5h-2.15v-12.8h1.9l.2,1.75h.08c.5-1.05,1.62-2,4.07-2,3.72,0,4.75,1.72,4.75,5.15v7.9Z"/>
        <path class="cls-5" d="m271.8,376.53c0,1.95.45,3.22,1.58,3.92.67.42,1.62.62,2.85.62,1.1,0,2.4-.2,3.3-.45l.32,1.7c-.9.32-2.32.65-3.97.65-1.22,0-2.27-.2-3.12-.55-2.17-.92-3.15-3-3.15-6v-.2c0-2.97.95-5.07,3.12-6,.85-.38,1.9-.55,3.12-.55,1.62,0,3.05.3,3.95.62l-.33,1.7c-.9-.25-2.2-.42-3.27-.42-1.25,0-2.17.2-2.85.62-1.12.7-1.55,1.97-1.55,3.92v.4Z"/>
        <path class="cls-5" d="m284.12,376.76c.05,1.75.55,2.87,1.52,3.57.83.57,1.95.85,3.5.85,1.45,0,2.85-.27,3.8-.62l.33,1.62c-.92.42-2.6.8-4.32.8-4.47,0-6.97-1.7-6.97-6.75v-.2c0-4.07,2.02-6.35,6.12-6.35s5.67,2.12,5.67,5.65v1.42h-9.65Zm.03-1.72h7.52v-.23c0-1.35-.38-2.27-1.2-2.8-.6-.37-1.35-.57-2.38-.57s-1.82.2-2.45.57c-.92.6-1.38,1.6-1.5,3.02Z"/>
        <path class="cls-5" d="m299.52,367.66h-2.2v-2.8h2.2v2.8Zm-.03,15.07h-2.15v-12.8h2.15v12.8Z"/>
        <path class="cls-5" d="m304.65,379.11v-7.5h-2.3v-1.67h2.38l.1-3.77h1.92v3.77h4.05v1.67h-4.02v7.2c0,1.82.5,2.32,2.4,2.32.55,0,1.27-.05,1.67-.12v1.62c-.42.12-1.22.25-1.95.25-3.1,0-4.25-1.02-4.25-3.77Z"/>
        <path class="cls-5" d="m325.37,376.43c0,4.27-1.97,6.55-6.2,6.55s-6.2-2.27-6.2-6.55v-.2c0-4.27,1.97-6.55,6.2-6.55s6.2,2.27,6.2,6.55v.2Zm-2.2-.3c0-1.92-.4-3.27-1.42-4-.62-.42-1.45-.65-2.57-.65s-1.95.22-2.57.65c-1.02.72-1.42,2.07-1.42,4v.4c0,1.92.4,3.27,1.42,4,.62.43,1.45.65,2.57.65s1.95-.22,2.57-.65c1.03-.72,1.42-2.07,1.42-4v-.4Z"/>
        <path class="cls-5" d="m222.92,406.43v-.2c0-4.27,2-6.55,5.85-6.55,1.97,0,3.4.6,4.32,1.75l.1-.05c-.05-.62-.08-1.3-.08-1.95v-4.95h2.15v18.25h-1.87l-.2-1.47-.1-.02c-.92,1.15-2.35,1.75-4.32,1.75-3.85,0-5.85-2.27-5.85-6.55Zm8.77,4.1c1.03-.72,1.42-2.07,1.42-4v-.4c0-1.92-.4-3.27-1.42-4-.62-.42-1.45-.65-2.57-.65s-1.95.22-2.57.65c-1.02.72-1.42,2.07-1.42,4v.4c0,1.92.4,3.27,1.42,4,.62.43,1.45.65,2.57.65s1.95-.22,2.57-.65Z"/>
        <path class="cls-5" d="m241,406.76c.05,1.75.55,2.87,1.52,3.57.83.57,1.95.85,3.5.85,1.45,0,2.85-.27,3.8-.62l.32,1.62c-.92.42-2.6.8-4.32.8-4.47,0-6.97-1.7-6.97-6.75v-.2c0-4.07,2.02-6.35,6.12-6.35s5.67,2.12,5.67,5.65v1.42h-9.65Zm.02-1.72h7.52v-.23c0-1.35-.38-2.27-1.2-2.8-.6-.37-1.35-.57-2.38-.57s-1.82.2-2.45.57c-.92.6-1.38,1.6-1.5,3.02Z"/>
        <path class="cls-5" d="m260.17,403.88c0-3.4.92-6.02,3.05-7.52,1.25-.87,2.92-1.37,5.15-1.37s3.97.42,5.15.95l-.42,1.77c-1.27-.45-2.77-.72-4.45-.72-1.8,0-3.02.35-3.95,1-1.55,1.1-2.2,3.07-2.2,5.8v.4c0,2.72.67,4.7,2.22,5.8.92.65,2.17,1,4.02,1,1.7,0,3.17-.27,4.45-.72l.42,1.77c-1.22.55-2.95.95-5.15.95s-3.97-.5-5.22-1.37c-2.15-1.5-3.07-4.2-3.07-7.52v-.2Z"/>
        <path class="cls-5" d="m276.72,399.93h2.15v7.65c0,2.62.7,3.5,3.15,3.5,2.77,0,3.4-1.57,3.4-3.75v-7.4h2.15v12.8h-1.92l-.17-1.65h-.07c-.53.95-1.6,1.9-3.62,1.9-3.67,0-5.05-1.47-5.05-5.25v-7.8Z"/>
        <path class="cls-5" d="m298.87,401.93c-.28-.02-.83-.05-1.17-.05-3.02,0-3.72,1.37-3.72,3.37v7.47h-2.15v-12.8h1.9l.2,2h.08c.6-1.2,1.55-2.1,3.67-2.1.48,0,.92.05,1.2.1v2Z"/>
        <path class="cls-5" d="m300.97,412.36l.33-1.65c1.2.37,2.67.55,4.1.55,2.47,0,3.15-.42,3.15-1.92s-.7-1.65-2.05-1.95l-1.9-.42c-2.07-.47-3.65-1.05-3.65-3.67s1.4-3.6,4.87-3.6c1.77,0,3.4.28,4.25.55l-.32,1.65c-.92-.28-2.17-.47-3.77-.47-2.25,0-2.92.38-2.92,1.8,0,1.5.8,1.67,2.25,2l1.9.43c2.22.5,3.45,1.15,3.45,3.62,0,2.72-1.4,3.72-5.07,3.72-1.95,0-3.6-.27-4.6-.62Z"/>
        <path class="cls-5" d="m325.59,406.43c0,4.27-1.97,6.55-6.2,6.55s-6.2-2.27-6.2-6.55v-.2c0-4.27,1.97-6.55,6.2-6.55s6.2,2.27,6.2,6.55v.2Zm-2.2-.3c0-1.92-.4-3.27-1.42-4-.62-.42-1.45-.65-2.57-.65s-1.95.22-2.57.65c-1.02.72-1.42,2.07-1.42,4v.4c0,1.92.4,3.27,1.42,4,.62.43,1.45.65,2.57.65s1.95-.22,2.57-.65c1.03-.72,1.42-2.07,1.42-4v-.4Z"/>
      </g>
      <g>
        <path class="cls-5" d="m979.85,337.78v14.95h-3.05v-14.95h-5.5v-2.55h14.07v2.55h-5.52Z"/>
        <path class="cls-5" d="m991.05,337.76h-3v-3h3v3Zm-.05,14.97h-2.9v-12.95h2.9v12.95Z"/>
        <path class="cls-5" d="m995.8,348.96v-7h-2.25v-2.17h2.38l.15-3.77h2.57v3.77h3.95v2.17h-3.92v6.57c0,1.7.52,2.1,2.3,2.1.55,0,1.25-.05,1.65-.1v2.1c-.48.15-1.4.27-2.27.27-3.35,0-4.55-1-4.55-3.95Z"/>
        <path class="cls-5" d="m1005.27,339.78h2.9v7.67c0,2.37.65,3.07,2.77,3.07,2.42,0,2.97-1.25,2.97-3.3v-7.45h2.9v12.95h-2.6l-.23-1.67h-.07c-.5.9-1.45,1.92-3.6,1.92-3.65,0-5.05-1.5-5.05-5.22v-7.97Z"/>
        <path class="cls-5" d="m1023.52,349.13c0,1.15.27,1.37,1.32,1.37.35,0,.72-.03.92-.05v2.17c-.38.12-1.02.22-1.72.22-2.5,0-3.42-.82-3.42-3.25v-15.12h2.9v14.65Z"/>
        <path class="cls-5" d="m1038.82,352.73h-2.52l-.2-1.6h-.08c-.6.82-1.72,1.8-4.2,1.8-2.85,0-4.32-1.2-4.32-3.82s1.32-3.77,4.6-3.77h3.9v-.9c0-1.87-.65-2.52-3.05-2.52-1.45,0-3.12.25-4.1.5l-.42-2.15c1.05-.37,2.92-.72,4.97-.72,4.07,0,5.42,1.47,5.42,4.75v8.45Zm-2.8-5.37h-3.62c-1.7,0-2.15.45-2.15,1.72s.6,1.72,2.17,1.72c2,0,3.6-.97,3.6-2.72v-.72Z"/>
        <path class="cls-5" d="m1046.3,352.78c-.58-.12-1.05-.3-1.5-.52-2-.97-2.95-2.97-2.95-5.9v-.2c0-2.92.92-4.95,2.92-5.92.95-.47,2.15-.7,3.6-.7,1.7,0,3.3.32,4.17.62l-.45,2.17c-.83-.2-2.03-.35-3.12-.35-1.2,0-2.1.15-2.75.52-1.02.62-1.42,1.72-1.42,3.52v.45c0,1.77.42,2.9,1.45,3.5.65.4,1.55.55,2.77.55,1.12,0,2.32-.17,3.17-.37l.42,2.15c-.88.32-2.47.67-4.2.67-.2,0-.4,0-.6-.02l-.05.85c1.55.03,2.4.45,2.4,1.75,0,1.52-.92,2.12-2.85,2.12-.88,0-1.62-.15-1.97-.3l.2-1.25c.35.1.88.18,1.47.18.92,0,1.2-.22,1.2-.75,0-.65-.5-.8-2.22-.8l.3-1.97Z"/>
        <path class="cls-5" d="m1065.9,352.73h-2.52l-.2-1.6h-.08c-.6.82-1.72,1.8-4.2,1.8-2.85,0-4.32-1.2-4.32-3.82s1.32-3.77,4.6-3.77h3.9v-.9c0-1.87-.65-2.52-3.05-2.52-1.45,0-3.12.25-4.1.5l-.42-2.15c1.05-.37,2.92-.72,4.97-.72,4.07,0,5.42,1.47,5.42,4.75v8.45Zm-5.27-15.15l-.5-.27c-.48-.25-.9-.5-1.38-.5-.75,0-.83.47-.9,1.22h-2.05c.12-2.15.75-3.35,2.65-3.35.85,0,1.5.28,2.07.6l.5.25c.5.27.92.5,1.4.5.75,0,.8-.47.9-1.2h2.02c-.1,2.15-.73,3.35-2.65,3.35-.85,0-1.5-.3-2.08-.6Zm2.47,9.77h-3.62c-1.7,0-2.15.45-2.15,1.72s.6,1.72,2.17,1.72c2,0,3.6-.97,3.6-2.72v-.72Z"/>
        <path class="cls-5" d="m1081.95,346.36c0,4.32-2.12,6.62-6.52,6.62s-6.5-2.3-6.5-6.62v-.2c0-4.32,2.12-6.62,6.5-6.62s6.52,2.3,6.52,6.62v.2Zm-2.97-.3c0-1.7-.33-2.95-1.25-3.65-.55-.4-1.27-.62-2.3-.62s-1.75.22-2.27.62c-.92.7-1.27,1.95-1.27,3.65v.4c0,1.7.35,2.95,1.27,3.65.53.4,1.28.6,2.27.6s1.75-.2,2.3-.6c.92-.7,1.25-1.95,1.25-3.65v-.4Z"/>
        <path class="cls-5" d="m980,376.41h-4.3v6.32h-3.05v-17.5h7.77c4.77,0,6.47,1.95,6.47,5.55,0,2.8-1.12,4.65-3.82,5.35l4.42,6.6h-3.3l-4.2-6.32Zm-4.3-8.67v6.17h4.52c2.75,0,3.6-.87,3.6-3.1s-.85-3.07-3.6-3.07h-4.52Z"/>
        <path class="cls-5" d="m992.22,376.96c.1,1.4.5,2.35,1.25,2.92.72.6,1.82.82,3.35.82s2.87-.25,3.85-.57l.4,2c-.95.43-2.67.85-4.65.85-4.75,0-7.1-2.02-7.1-6.8v-.2c0-4.12,2.17-6.45,6.37-6.45s5.95,2.2,5.95,5.75v1.67h-9.42Zm.03-2.02h6.65v-.22c0-1.15-.33-1.97-1.03-2.45-.52-.35-1.22-.52-2.17-.52-1,0-1.7.18-2.22.52-.8.52-1.12,1.4-1.22,2.67Z"/>
        <path class="cls-5" d="m1014.02,371.16l.08-.03.17-1.35h2.55v12.45c0,3.65-2.08,5.42-6.65,5.42-2.03,0-4-.35-5.07-.77l.42-2.1c1.02.32,2.7.62,4.4.62,3.07,0,4.05-1.05,4.05-3.35v-.57l.02-.87-.07-.02c-.92.97-2.25,1.52-4,1.52-3.82,0-5.85-2.25-5.85-6.2v-.18c0-3.95,2.02-6.2,5.85-6.2,1.8,0,3.17.57,4.1,1.62Zm-.05,4.47c0-1.47-.33-2.62-1.25-3.3-.52-.35-1.27-.55-2.22-.55s-1.72.2-2.25.57c-.9.62-1.25,1.75-1.25,3.27v.37c0,1.5.38,2.65,1.25,3.27.52.37,1.27.57,2.25.57s1.7-.2,2.22-.57c.92-.65,1.25-1.82,1.25-3.27v-.37Z"/>
        <path class="cls-5" d="m1023.6,367.76h-3v-3h3v3Zm-.05,14.97h-2.9v-12.95h2.9v12.95Z"/>
        <path class="cls-5" d="m1047.17,382.73h-2.9v-7.77c0-2.3-.65-2.97-2.7-2.97-2.22,0-2.85,1.1-2.85,3.2v7.55h-2.9v-7.77c0-2.3-.65-2.97-2.7-2.97-2.22,0-2.85,1.1-2.85,3.2v7.55h-2.9v-12.95h2.57l.25,1.72h.07c.5-.97,1.55-1.97,3.92-1.97,2.22,0,3.52.67,4.15,2.05h.1c.47-.97,1.55-2.05,4.02-2.05,3.72,0,4.7,1.7,4.7,5.12v8.07Z"/>
        <path class="cls-5" d="m1053.1,376.96c.1,1.4.5,2.35,1.25,2.92.72.6,1.82.82,3.35.82s2.88-.25,3.85-.57l.4,2c-.95.43-2.67.85-4.65.85-4.75,0-7.1-2.02-7.1-6.8v-.2c0-4.12,2.17-6.45,6.37-6.45s5.95,2.2,5.95,5.75v1.67h-9.42Zm.03-2.02h6.65v-.22c0-1.15-.32-1.97-1.02-2.45-.52-.35-1.22-.52-2.17-.52-1,0-1.7.18-2.22.52-.8.52-1.12,1.4-1.22,2.67Z"/>
        <path class="cls-5" d="m1070.8,376.36v-.2c0-4.32,2.02-6.62,5.95-6.62,1.8,0,3.17.52,4.1,1.57l.1-.05c-.05-.57-.1-1.2-.1-1.85v-4.72h2.9v18.25h-2.5l-.2-1.42-.1-.03c-.92,1.12-2.32,1.7-4.2,1.7-3.92,0-5.95-2.3-5.95-6.62Zm8.8,3.75c.92-.7,1.25-1.95,1.25-3.65v-.4c0-1.7-.33-2.95-1.25-3.65-.55-.4-1.27-.62-2.3-.62s-1.75.22-2.27.62c-.92.7-1.27,1.95-1.27,3.65v.4c0,1.7.35,2.95,1.27,3.65.53.4,1.28.6,2.27.6s1.75-.2,2.3-.6Z"/>
        <path class="cls-5" d="m1089.77,376.96c.1,1.4.5,2.35,1.25,2.92.72.6,1.82.82,3.35.82s2.87-.25,3.85-.57l.4,2c-.95.43-2.67.85-4.65.85-4.75,0-7.1-2.02-7.1-6.8v-.2c0-4.12,2.17-6.45,6.37-6.45s5.95,2.2,5.95,5.75v1.67h-9.42Zm.03-2.02h6.65v-.22c0-1.15-.33-1.97-1.03-2.45-.52-.35-1.22-.52-2.17-.52-1,0-1.7.18-2.22.52-.8.52-1.12,1.4-1.22,2.67Z"/>
        <path class="cls-5" d="m979.85,397.78v14.95h-3.05v-14.95h-5.5v-2.55h14.07v2.55h-5.52Z"/>
        <path class="cls-5" d="m994.02,402.46c-.35-.02-.9-.05-1.27-.05-2.92,0-3.65,1.15-3.65,3.22v7.1h-2.9v-12.95h2.57l.25,2.05h.07c.6-1.25,1.55-2.17,3.72-2.15.42,0,.92.05,1.2.1v2.67Z"/>
        <path class="cls-5" d="m1006.67,412.73h-2.52l-.2-1.6h-.08c-.6.82-1.72,1.8-4.2,1.8-2.85,0-4.32-1.2-4.32-3.82s1.32-3.77,4.6-3.77h3.9v-.9c0-1.87-.65-2.52-3.05-2.52-1.45,0-3.12.25-4.1.5l-.42-2.15c1.05-.37,2.92-.72,4.97-.72,4.07,0,5.42,1.47,5.42,4.75v8.45Zm-2.8-5.37h-3.62c-1.7,0-2.15.45-2.15,1.72s.6,1.72,2.17,1.72c2,0,3.6-.97,3.6-2.72v-.72Z"/>
        <path class="cls-5" d="m1013.12,411.28l-.07.03-.2,1.42h-2.5v-18.25h2.9v4.72c0,.65-.02,1.27-.07,1.85l.07.05c.95-1.02,2.3-1.57,4.12-1.57,3.9,0,5.95,2.3,5.95,6.62v.2c0,4.32-2.05,6.62-5.95,6.62-1.9,0-3.3-.57-4.25-1.7Zm5.97-1.17c.92-.7,1.25-1.95,1.25-3.65v-.4c0-1.7-.33-2.95-1.25-3.65-.55-.4-1.27-.62-2.3-.62s-1.75.22-2.3.62c-.9.7-1.25,1.95-1.25,3.65v.4c0,1.7.35,2.95,1.25,3.65.55.4,1.3.6,2.3.6s1.75-.2,2.3-.6Z"/>
        <path class="cls-5" d="m1037,412.73h-2.52l-.2-1.6h-.08c-.6.82-1.72,1.8-4.2,1.8-2.85,0-4.32-1.2-4.32-3.82s1.32-3.77,4.6-3.77h3.9v-.9c0-1.87-.65-2.52-3.05-2.52-1.45,0-3.12.25-4.1.5l-.42-2.15c1.05-.37,2.92-.72,4.97-.72,4.07,0,5.42,1.47,5.42,4.75v8.45Zm-2.8-5.37h-3.62c-1.7,0-2.15.45-2.15,1.72s.6,1.72,2.17,1.72c2,0,3.6-.97,3.6-2.72v-.72Z"/>
        <path class="cls-5" d="m1043.62,409.13c0,1.15.27,1.37,1.32,1.37.35,0,.72-.03.92-.05v2.17c-.38.12-1.02.22-1.72.22-2.5,0-3.42-.82-3.42-3.25v-15.12h2.9v14.65Z"/>
        <path class="cls-5" d="m1060,412.73h-2.9v-7.72c0-2.35-.62-3.02-2.82-3.02-2.42,0-3.02,1.1-3.02,3.22v7.52h-2.9v-18.25h2.9v4.82c0,.72-.02,1.52-.1,2.2h.1c.48-.97,1.55-1.97,4.05-1.97,3.65,0,4.7,1.7,4.7,5.15v8.05Z"/>
        <path class="cls-5" d="m1076.05,406.36c0,4.32-2.12,6.62-6.52,6.62s-6.5-2.3-6.5-6.62v-.2c0-4.32,2.12-6.62,6.5-6.62s6.52,2.3,6.52,6.62v.2Zm-2.97-.3c0-1.7-.33-2.95-1.25-3.65-.55-.4-1.27-.62-2.3-.62s-1.75.22-2.27.62c-.92.7-1.27,1.95-1.27,3.65v.4c0,1.7.35,2.95,1.27,3.65.53.4,1.28.6,2.27.6s1.75-.2,2.3-.6c.92-.7,1.25-1.95,1.25-3.65v-.4Z"/>
      </g>
      <g>
        <path class="cls-4" d="m1.97,340.86c0-3.55,1.02-6.2,3.32-7.65,1.3-.8,3-1.22,5.2-1.22s4.1.4,5.3.9l-.55,2.32c-1.27-.4-2.67-.6-4.27-.6s-2.92.28-3.82.87c-1.42.95-2.05,2.7-2.05,5.27v.45c0,2.55.62,4.3,2.05,5.25.92.62,2.17.9,3.9.9,1.6,0,3.02-.23,4.3-.62l.55,2.32c-1.22.52-3.17.92-5.32.92s-3.95-.42-5.27-1.25c-2.27-1.45-3.32-4.1-3.32-7.62v-.25Z"/>
        <path class="cls-4" d="m21.82,349.11c-1.92-1-2.75-2.87-2.75-5.62v-11.25h3.12v11.02c0,3,1.1,4.05,4.3,4.05s4.32-1.05,4.32-4.05v-11.02h3.02v11.25c0,2.75-.78,4.62-2.7,5.62-1.15.6-2.67.87-4.7.87s-3.45-.27-4.62-.87Z"/>
        <path class="cls-4" d="m45.4,343.41h-4.3v6.32h-3.05v-17.5h7.77c4.77,0,6.47,1.95,6.47,5.55,0,2.8-1.12,4.65-3.82,5.35l4.42,6.6h-3.3l-4.2-6.32Zm-4.3-8.67v6.17h4.52c2.75,0,3.6-.87,3.6-3.1s-.85-3.07-3.6-3.07h-4.52Z"/>
        <path class="cls-4" d="m59.7,341.86c-2.82-.6-4.67-1.65-4.67-5.05s1.85-4.82,6.55-4.82c2.5,0,4.45.4,5.77.82l-.53,2.27c-1.25-.37-2.87-.62-4.97-.62-2.95,0-3.85.57-3.85,2.32,0,1.85.98,2.15,3.1,2.6l2.55.52c3,.62,4.47,1.67,4.47,4.95,0,3.7-2,5.12-6.85,5.12-2.62,0-4.85-.4-6.37-1l.5-2.25c1.65.55,3.85.77,5.8.77,2.9,0,3.92-.7,3.92-2.45s-.8-2.22-2.88-2.67l-2.55-.52Z"/>
        <path class="cls-4" d="m87.82,340.86v.25c0,5.95-2.92,8.87-8.47,8.87s-8.47-2.92-8.47-8.87v-.25c0-5.95,2.9-8.87,8.47-8.87s8.47,2.92,8.47,8.87Zm-5.27,5.85c1.55-1,2.15-2.9,2.15-5.5v-.45c0-2.6-.6-4.5-2.15-5.5-.8-.5-1.85-.77-3.2-.77s-2.4.28-3.2.77c-1.55,1-2.15,2.9-2.15,5.5v.45c0,2.6.6,4.5,2.15,5.5.8.5,1.85.77,3.2.77s2.4-.28,3.2-.77Z"/>
      </g>
      <g>
        <path class="cls-4" d="m222.07,25.98h3.84l4.77,13.11c.51,1.41.93,2.94,1.26,4.35h.12c.33-1.41.78-2.94,1.29-4.35l4.74-13.11h3.72l-7.98,21h-3.78l-7.98-21Z"/>
        <path class="cls-4" d="m248.17,29.01h-3.6v-3.6h3.6v3.6Zm-.06,17.97h-3.48v-15.54h3.48v15.54Z"/>
        <path class="cls-4" d="m251.8,46.5l.51-2.43c1.41.39,3.24.6,4.98.6,2.64,0,3.36-.45,3.36-1.98s-.75-1.68-2.31-2.01l-2.04-.45c-2.79-.57-4.53-1.38-4.53-4.56s1.71-4.53,6.24-4.53c2.19,0,4.29.33,5.4.69l-.51,2.4c-1.14-.27-2.7-.48-4.56-.48-2.46,0-3.21.36-3.21,1.83s.87,1.71,2.55,2.07l2.04.45c2.91.6,4.29,1.47,4.29,4.5,0,3.45-1.77,4.68-6.33,4.68-2.37,0-4.56-.3-5.88-.78Z"/>
        <path class="cls-4" d="m271.24,29.01h-3.6v-3.6h3.6v3.6Zm-.06,17.97h-3.48v-15.54h3.48v15.54Z"/>
        <path class="cls-4" d="m276.94,42.45v-8.4h-2.7v-2.61h2.85l.18-4.53h3.09v4.53h4.74v2.61h-4.71v7.89c0,2.04.63,2.52,2.76,2.52.66,0,1.5-.06,1.98-.12v2.52c-.57.18-1.68.33-2.73.33-4.02,0-5.46-1.2-5.46-4.74Z"/>
        <path class="cls-4" d="m301.06,46.98h-3.03l-.24-1.92h-.09c-.72.99-2.07,2.16-5.04,2.16-3.42,0-5.19-1.44-5.19-4.59s1.59-4.53,5.52-4.53h4.68v-1.08c0-2.25-.78-3.03-3.66-3.03-1.74,0-3.75.3-4.92.6l-.51-2.58c1.26-.45,3.51-.87,5.97-.87,4.89,0,6.51,1.77,6.51,5.7v10.14Zm-3.36-6.45h-4.35c-2.04,0-2.58.54-2.58,2.07s.72,2.07,2.61,2.07c2.4,0,4.32-1.17,4.32-3.27v-.87Z"/>
        <path class="cls-4" d="m304.57,46.5l.51-2.43c1.41.39,3.24.6,4.98.6,2.64,0,3.36-.45,3.36-1.98s-.75-1.68-2.31-2.01l-2.04-.45c-2.79-.57-4.53-1.38-4.53-4.56s1.71-4.53,6.24-4.53c2.19,0,4.29.33,5.4.69l-.51,2.4c-1.14-.27-2.7-.48-4.56-.48-2.46,0-3.21.36-3.21,1.83s.87,1.71,2.55,2.07l2.04.45c2.91.6,4.29,1.47,4.29,4.5,0,3.45-1.77,4.68-6.33,4.68-2.37,0-4.56-.3-5.88-.78Z"/>
        <path class="cls-4" d="m329.5,46.98h-3.48l2.73-15.54h3.48l-2.73,15.54Zm3.21-17.97h-3.57l.63-3.6h3.57l-.63,3.6Z"/>
        <path class="cls-4" d="m348.1,46.98h-3.48l1.62-9.27c.51-2.82-.12-3.63-2.76-3.63-2.91,0-3.87,1.32-4.32,3.87l-1.59,9.03h-3.48l2.73-15.54h3.12l-.12,2.07h.12c.78-1.17,2.07-2.37,5.1-2.37,4.38,0,5.43,2.16,4.71,6.33l-1.65,9.51Z"/>
        <path class="cls-4" d="m363.79,42.66c-.21,1.38.06,1.65,1.32,1.65.42,0,.87-.03,1.11-.06l-.45,2.61c-.48.15-1.05.27-1.89.27-3,0-4.14-1.11-3.63-4.05l3.18-18h3.48l-3.12,17.58Z"/>
        <path class="cls-4" d="m385.09,36.99c0,.72-.06,1.47-.21,2.28-.93,5.31-3.75,8.01-9.03,8.01-4.41,0-6.81-2.04-6.81-5.82,0-.69.09-1.47.24-2.31.9-5.31,3.72-8.01,9-8.01,4.47,0,6.81,2.04,6.81,5.85Zm-3.75,2.22c.12-.75.18-1.44.18-2.07,0-2.16-.93-3.3-3.51-3.3-3.3,0-4.59,1.86-5.19,5.37-.12.78-.21,1.47-.21,2.07,0,2.13.96,3.27,3.51,3.27,3.3,0,4.59-1.86,5.22-5.34Z"/>
        <path class="cls-4" d="m391.21,41.1c0,2.37,1.23,3.24,4.29,3.24,1.38,0,2.88-.21,3.9-.45l.06,2.58c-1.11.39-2.88.81-4.95.81-4.35,0-6.9-1.86-6.9-5.79,0-.69.09-1.5.24-2.34.93-5.37,3.63-8.01,9.03-8.01,2.04,0,4.08.39,5.07.75l-.99,2.61c-.96-.24-2.37-.42-3.66-.42-3.54,0-5.22,1.11-5.91,5.13-.12.72-.18,1.35-.18,1.89Z"/>
        <path class="cls-4" d="m418.66,36.99c0,.72-.06,1.47-.21,2.28-.93,5.31-3.75,8.01-9.03,8.01-4.41,0-6.81-2.04-6.81-5.82,0-.69.09-1.47.24-2.31.9-5.31,3.72-8.01,9-8.01,4.47,0,6.81,2.04,6.81,5.85Zm-3.75,2.22c.12-.75.18-1.44.18-2.07,0-2.16-.93-3.3-3.51-3.3-3.3,0-4.59,1.86-5.19,5.37-.12.78-.21,1.47-.21,2.07,0,2.13.96,3.27,3.51,3.27,3.3,0,4.59-1.86,5.22-5.34Z"/>
      </g>
      <g>
        <path class="cls-4" d="m628.53,25.98h15.15v3.09h-11.49v5.55h10.35v3.09h-10.35v6.18h11.76v3.09h-15.42v-21Z"/>
        <path class="cls-4" d="m665.64,46.98h-4.35l-7.59-12.42c-.84-1.47-1.56-2.76-2.28-4.32h-.09c.15,1.77.21,3.39.21,5.13v11.61h-3.6v-21h4.35l7.59,12.42c.84,1.47,1.56,2.76,2.25,4.32h.09c-.15-1.77-.15-3.39-.15-5.13v-11.61h3.57v21Z"/>
        <path class="cls-4" d="m689.16,46.98h-3.78l-2.04-5.37h-8.91l-2.04,5.37h-3.6l8.34-21h3.72l8.31,21Zm-13.59-8.34h6.63l-1.86-4.95c-.54-1.38-.99-2.82-1.38-4.26h-.12c-.39,1.44-.84,2.85-1.35,4.23l-1.92,4.98Z"/>
        <path class="cls-4" d="m710.4,36.63c0,7.71-3.09,10.35-10.65,10.35h-7.44v-21h7.44c7.56,0,10.65,2.64,10.65,10.35v.3Zm-3.75-.42c0-5.52-1.65-7.14-7.05-7.14h-3.6v14.82h3.6c5.4,0,7.05-1.62,7.05-7.14v-.54Z"/>
        <path class="cls-4" d="m714.72,25.98h15.15v3.09h-11.49v5.55h10.35v3.09h-10.35v6.18h11.76v3.09h-15.42v-21Z"/>
      </g>
      <g>
        <path class="cls-4" d="m970.27,36.33c0-4.26,1.23-7.44,3.99-9.18,1.56-.96,3.6-1.47,6.24-1.47s4.92.48,6.36,1.08l-.66,2.79c-1.53-.48-3.21-.72-5.13-.72s-3.51.33-4.59,1.05c-1.71,1.14-2.46,3.24-2.46,6.33v.54c0,3.06.75,5.16,2.46,6.3,1.11.75,2.61,1.08,4.68,1.08,1.92,0,3.63-.27,5.16-.75l.66,2.79c-1.47.63-3.81,1.11-6.39,1.11s-4.74-.51-6.33-1.5c-2.73-1.74-3.99-4.92-3.99-9.15v-.3Z"/>
        <path class="cls-4" d="m990.91,25.98h15.15v3.09h-11.49v5.55h10.35v3.09h-10.35v6.18h11.76v3.09h-15.42v-21Z"/>
        <path class="cls-4" d="m1028.02,46.98h-4.35l-7.59-12.42c-.84-1.47-1.56-2.76-2.28-4.32h-.09c.15,1.77.21,3.39.21,5.13v11.61h-3.6v-21h4.35l7.59,12.42c.84,1.47,1.56,2.76,2.25,4.32h.09c-.15-1.77-.15-3.39-.15-5.13v-11.61h3.57v21Z"/>
        <path class="cls-4" d="m1037.92,37.53c-3.39-.72-5.61-1.98-5.61-6.06s2.22-5.79,7.86-5.79c3,0,5.34.48,6.93.99l-.63,2.73c-1.5-.45-3.45-.75-5.97-.75-3.54,0-4.62.69-4.62,2.79,0,2.22,1.17,2.58,3.72,3.12l3.06.63c3.6.75,5.37,2.01,5.37,5.94,0,4.44-2.4,6.15-8.22,6.15-3.15,0-5.82-.48-7.65-1.2l.6-2.7c1.98.66,4.62.93,6.96.93,3.48,0,4.71-.84,4.71-2.94s-.96-2.67-3.45-3.21l-3.06-.63Z"/>
        <path class="cls-4" d="m1071.67,36.33v.3c0,7.14-3.51,10.65-10.17,10.65s-10.17-3.51-10.17-10.65v-.3c0-7.14,3.48-10.65,10.17-10.65s10.17,3.51,10.17,10.65Zm-6.33,7.02c1.86-1.2,2.58-3.48,2.58-6.6v-.54c0-3.12-.72-5.4-2.58-6.6-.96-.6-2.22-.93-3.84-.93s-2.88.33-3.84.93c-1.86,1.2-2.58,3.48-2.58,6.6v.54c0,3.12.72,5.4,2.58,6.6.96.6,2.22.93,3.84.93s2.88-.33,3.84-.93Z"/>
      </g>
      <line class="cls-2" y1="65.5" x2="1280" y2="65.5"/>
      <line class="cls-2" y1="292.5" x2="1280" y2="292.5"/>
      <line class="cls-2" x1="159.25" y1="519.5" x2="159.25" y2="21.48"/>
      <g>
        <path class="cls-1" d="m1131.04,392.18c.29,8.15.6,18.68.82,30.99.4,22.77.03,26.45-2.21,30.07-7.07,11.44-25.93,11.27-45.72,11.21-19.02-.06-47.6-.05-86.77.34"/>
        <polygon class="cls-4" points="1007.05 452.5 1009.1 454.69 998.31 464.8 1009.19 474.83 1007.15 477.04 993.91 464.82 1007.05 452.5"/>
      </g>
    </g>
  </g>
</svg>