<?xml version="1.0" encoding="UTF-8"?>
<svg id="Layer_2" data-name="Layer 2" xmlns="http://www.w3.org/2000/svg" viewBox="0 0 509 793">
  <defs>
    <style>
      .cls-1 {
        fill: #e5669b;
      }

      .cls-2 {
        fill: none;
        stroke: #950048;
        stroke-miterlimit: 10;
        stroke-width: 3px;
      }

      .cls-3 {
        fill: #fff;
      }

      .cls-4 {
        fill: #950048;
      }

      .cls-5 {
        fill: #dc3379;
      }

      .cls-6 {
        fill: #3fa9f5;
      }

      .cls-7 {
        fill: #c5e9f2;
      }

      .cls-8 {
        fill: #001e43;
      }

      .cls-9 {
        fill: #d30058;
      }
    </style>
  </defs>
  <g id="Camada_1" data-name="Camada 1">
    <g>
      <rect class="cls-2" x="1.5" y="1.5" width="506" height="790" rx="37.67" ry="37.67"/>
      <g>
        <rect class="cls-4" x="144.5" y="24.5" width="218" height="218" rx="43.11" ry="43.11"/>
        <g>
          <path class="cls-3" d="m210.53,111.24h13.27v3.27h-9.25v3.6h8.22v3.25h-8.22v4.1h9.47v3.27h-13.5v-17.5Z"/>
          <path class="cls-3" d="m242.55,128.74h-4.77l-4.85-8.2c-.88-1.57-1.58-2.85-2.27-4.55h-.1c.17,1.88.23,3.42.23,5.27v7.47h-3.9v-17.5h4.75l4.85,8.2c.88,1.58,1.57,2.85,2.27,4.55h.08c-.17-1.87-.2-3.42-.2-5.27v-7.47h3.92v17.5Z"/>
          <path class="cls-3" d="m262.67,128.74h-4.17l-1.47-4h-6.85l-1.47,4h-3.97l7-17.5h4l6.95,17.5Zm-11.35-7.07h4.55l-.97-2.67c-.45-1.23-.88-2.6-1.25-4.02h-.1c-.35,1.42-.77,2.77-1.22,4.02l-1,2.67Z"/>
          <path class="cls-3" d="m280.74,120.12c0,6.42-2.62,8.62-8.92,8.62h-6.95v-17.5h6.95c6.3,0,8.92,2.2,8.92,8.62v.25Zm-4.15-.35c0-4.05-1.2-5.22-4.95-5.22h-2.72v10.9h2.72c3.75,0,4.95-1.17,4.95-5.22v-.45Z"/>
          <path class="cls-3" d="m283.82,111.24h13.27v3.27h-9.25v3.6h8.22v3.25h-8.22v4.1h9.47v3.27h-13.5v-17.5Z"/>
          <path class="cls-3" d="m230.33,155.74c1.7-5.45,4.77-12,6.87-15.55l-.03-.05h-9.32v-1.9h11.6v1.8c-2.45,4.47-5.35,10.65-6.82,15.7h-2.3Z"/>
          <path class="cls-3" d="m255.95,146.82v.35c0,5.87-2.42,8.82-7.17,8.82s-7.17-2.95-7.17-8.82v-.35c0-5.87,2.42-8.82,7.17-8.82s7.17,2.95,7.17,8.82Zm-2.27.58v-.8c0-4.4-1.38-6.75-4.9-6.75s-4.9,2.35-4.9,6.75v.8c0,4.4,1.38,6.75,4.9,6.75s4.9-2.35,4.9-6.75Z"/>
          <path class="cls-3" d="m259.05,142.54c0-2.97,1.42-4.5,4-4.5s4,1.52,4,4.5v.12c0,2.97-1.42,4.5-4,4.5s-4-1.53-4-4.5v-.12Zm6.07-.08c0-1.25-.2-2.2-.88-2.67-.3-.2-.67-.3-1.2-.3s-.9.1-1.2.3c-.67.48-.88,1.42-.88,2.67v.27c0,1.25.2,2.2.88,2.67.3.2.67.3,1.2.3s.9-.1,1.2-.3c.67-.47.88-1.42.88-2.67v-.27Zm7.25-4.22h1.9l-8.95,17.5h-1.9l8.95-17.5Zm-1.97,13.07c0-2.97,1.42-4.5,4-4.5s4,1.52,4,4.5v.12c0,2.97-1.42,4.5-4,4.5s-4-1.52-4-4.5v-.12Zm6.07-.08c0-1.25-.2-2.2-.87-2.67-.3-.2-.67-.3-1.2-.3s-.9.1-1.2.3c-.67.47-.88,1.42-.88,2.67v.28c0,1.25.2,2.2.88,2.67.3.2.67.3,1.2.3s.9-.1,1.2-.3c.67-.47.87-1.42.87-2.67v-.28Z"/>
        </g>
      </g>
      <g>
        <rect class="cls-5" x="128.5" y="297.5" width="233" height="74" rx="18.83" ry="18.83"/>
        <rect class="cls-9" x="374.5" y="297.5" width="90" height="74" rx="18.83" ry="18.83"/>
        <g>
          <path class="cls-3" d="m173.95,343.86h-3.19l-5.57-9.11c-.62-1.08-1.14-2.02-1.67-3.17h-.07c.11,1.3.15,2.49.15,3.76v8.52h-2.64v-15.4h3.19l5.57,9.11c.62,1.08,1.14,2.02,1.65,3.17h.07c-.11-1.3-.11-2.49-.11-3.76v-8.51h2.62v15.4Z"/>
          <path class="cls-3" d="m188.39,338.24c0,3.81-1.87,5.83-5.74,5.83s-5.72-2.02-5.72-5.83v-.18c0-3.81,1.87-5.83,5.72-5.83s5.74,2.02,5.74,5.83v.18Zm-2.62-.26c0-1.5-.29-2.6-1.1-3.21-.48-.35-1.12-.55-2.02-.55s-1.54.2-2,.55c-.81.62-1.12,1.72-1.12,3.21v.35c0,1.5.31,2.6,1.12,3.21.46.35,1.12.53,2,.53s1.54-.18,2.02-.53c.81-.62,1.1-1.72,1.1-3.21v-.35Z"/>
          <path class="cls-3" d="m191.93,340.53v-6.16h-1.98v-1.92h2.09l.13-3.32h2.27v3.32h3.48v1.92h-3.45v5.79c0,1.5.46,1.85,2.02,1.85.48,0,1.1-.04,1.45-.09v1.85c-.42.13-1.23.24-2,.24-2.95,0-4-.88-4-3.48Z"/>
          <path class="cls-3" d="m209.62,343.86h-2.22l-.18-1.41h-.07c-.53.73-1.52,1.58-3.7,1.58-2.51,0-3.81-1.06-3.81-3.37s1.17-3.32,4.05-3.32h3.43v-.79c0-1.65-.57-2.22-2.68-2.22-1.28,0-2.75.22-3.61.44l-.37-1.89c.92-.33,2.57-.64,4.38-.64,3.59,0,4.78,1.3,4.78,4.18v7.44Zm-2.46-4.73h-3.19c-1.5,0-1.89.4-1.89,1.52s.53,1.52,1.92,1.52c1.76,0,3.17-.86,3.17-2.4v-.64Z"/>
          <path class="cls-3" d="m217.67,336.04c0-3.12.9-5.46,2.93-6.73,1.14-.7,2.64-1.08,4.58-1.08s3.61.35,4.66.79l-.48,2.05c-1.12-.35-2.35-.53-3.76-.53s-2.58.24-3.37.77c-1.25.84-1.8,2.38-1.8,4.64v.4c0,2.25.55,3.79,1.8,4.62.81.55,1.92.79,3.43.79,1.41,0,2.66-.2,3.79-.55l.48,2.05c-1.08.46-2.79.81-4.69.81s-3.48-.37-4.64-1.1c-2-1.28-2.93-3.61-2.93-6.71v-.22Z"/>
          <path class="cls-3" d="m243.28,338.24c0,3.81-1.87,5.83-5.74,5.83s-5.72-2.02-5.72-5.83v-.18c0-3.81,1.87-5.83,5.72-5.83s5.74,2.02,5.74,5.83v.18Zm-2.62-.26c0-1.5-.29-2.6-1.1-3.21-.48-.35-1.12-.55-2.02-.55s-1.54.2-2,.55c-.81.62-1.12,1.72-1.12,3.21v.35c0,1.5.31,2.6,1.12,3.21.46.35,1.12.53,2,.53s1.54-.18,2.02-.53c.81-.62,1.1-1.72,1.1-3.21v-.35Z"/>
          <path class="cls-3" d="m256.28,343.86h-2.55v-6.8c0-2.07-.57-2.66-2.51-2.66-2.11,0-2.66.97-2.66,2.84v6.62h-2.55v-11.4h2.27l.22,1.52h.07c.44-.86,1.36-1.74,3.59-1.74,3.21,0,4.14,1.5,4.14,4.53v7.09Z"/>
          <path class="cls-3" d="m261.51,338.35c0,1.56.37,2.55,1.28,3.08.57.35,1.36.48,2.44.48.99,0,2.05-.15,2.79-.33l.37,1.89c-.77.29-2.18.59-3.7.59-1.3,0-2.35-.22-3.19-.64-1.76-.86-2.6-2.62-2.6-5.19v-.18c0-2.57.81-4.36,2.57-5.21.84-.42,1.89-.62,3.17-.62,1.5,0,2.9.29,3.67.55l-.4,1.92c-.73-.18-1.78-.31-2.75-.31-1.06,0-1.85.13-2.42.46-.9.55-1.25,1.52-1.25,3.1v.4Z"/>
          <path class="cls-3" d="m273.48,340.69c0,1.01.24,1.21,1.17,1.21.31,0,.64-.02.81-.04v1.91c-.33.11-.9.2-1.52.2-2.2,0-3.01-.73-3.01-2.86v-13.31h2.55v12.89Z"/>
          <path class="cls-3" d="m277.55,332.46h2.55v6.76c0,2.09.57,2.71,2.44,2.71,2.13,0,2.62-1.1,2.62-2.9v-6.56h2.55v11.4h-2.29l-.2-1.47h-.07c-.44.79-1.28,1.69-3.17,1.69-3.21,0-4.44-1.32-4.44-4.6v-7.02Z"/>
          <path class="cls-3" d="m293.67,330.67h-2.64v-2.64h2.64v2.64Zm-.04,13.18h-2.55v-11.4h2.55v11.4Z"/>
          <path class="cls-3" d="m307.27,343.86h-2.55v-6.8c0-2.07-.57-2.66-2.51-2.66-2.11,0-2.66.97-2.66,2.84v6.62h-2.55v-11.4h2.27l.22,1.52h.07c.44-.86,1.36-1.74,3.59-1.74,3.21,0,4.14,1.5,4.14,4.53v7.09Z"/>
          <path class="cls-3" d="m311.3,340.53v-6.16h-1.98v-1.92h2.09l.13-3.32h2.27v3.32h3.48v1.92h-3.45v5.79c0,1.5.46,1.85,2.02,1.85.48,0,1.1-.04,1.45-.09v1.85c-.42.13-1.23.24-2,.24-2.95,0-4-.88-4-3.48Z"/>
          <path class="cls-3" d="m321.59,338.77c.09,1.23.44,2.07,1.1,2.57.64.53,1.61.73,2.95.73s2.53-.22,3.39-.51l.35,1.76c-.84.37-2.35.75-4.09.75-4.18,0-6.25-1.78-6.25-5.99v-.18c0-3.63,1.91-5.68,5.61-5.68s5.24,1.94,5.24,5.06v1.47h-8.29Zm.02-1.78h5.85v-.2c0-1.01-.29-1.74-.9-2.16-.46-.31-1.08-.46-1.91-.46-.88,0-1.5.15-1.96.46-.7.46-.99,1.23-1.08,2.35Z"/>
        </g>
        <rect class="cls-1" x="-4.5" y="344.5" width="168" height="74" rx="18.83" ry="18.83" transform="translate(-302 461) rotate(-90)"/>
        <g>
          <path class="cls-3" d="m85.71,407.67l.02.09c.48-.04,1.06-.09,1.61-.09h3.67v2.55h-15.56v-2.2l1.23-.18.02-.09c-.97-.81-1.47-2.05-1.47-3.72,0-3.43,2.02-5.21,5.83-5.21h.18c3.81,0,5.83,1.78,5.83,5.21,0,1.61-.46,2.82-1.36,3.63Zm-1.17-5.15c-.62-.79-1.72-1.1-3.21-1.1h-.35c-1.5,0-2.6.31-3.21,1.1-.35.48-.55,1.12-.55,2.02s.2,1.54.55,2.02c.62.81,1.72,1.1,3.21,1.1h.35c1.5,0,2.6-.29,3.21-1.1.35-.48.53-1.12.53-2.02s-.18-1.54-.53-2.02Z"/>
          <path class="cls-3" d="m77.81,389.21c-.02.31-.04.79-.04,1.12,0,2.57,1.01,3.21,2.84,3.21h6.25v2.55h-11.4v-2.27l1.8-.22v-.07c-1.1-.53-1.91-1.36-1.89-3.28,0-.37.04-.81.09-1.06h2.35Z"/>
          <path class="cls-3" d="m81.24,376.36c3.81,0,5.83,1.87,5.83,5.74s-2.02,5.72-5.83,5.72h-.18c-3.81,0-5.83-1.87-5.83-5.72s2.02-5.74,5.83-5.74h.18Zm-.26,2.62c-1.5,0-2.6.29-3.21,1.1-.35.48-.55,1.12-.55,2.02s.2,1.54.55,2c.62.81,1.72,1.12,3.21,1.12h.35c1.5,0,2.6-.31,3.21-1.12.35-.46.53-1.12.53-2s-.18-1.54-.53-2.02c-.62-.81-1.72-1.1-3.21-1.1h-.35Z"/>
          <path class="cls-3" d="m86.85,368.09v2.73l-11.4,4.36v-2.66l6.14-2.25c1.06-.37,1.98-.62,2.93-.81v-.09c-.95-.18-1.89-.42-2.93-.79l-6.14-2.35v-2.57l11.4,4.44Z"/>
          <path class="cls-3" d="m86.85,352.71v2.22l-1.41.18v.07c.73.53,1.58,1.52,1.58,3.7,0,2.51-1.06,3.81-3.37,3.81s-3.32-1.17-3.32-4.05v-3.43h-.79c-1.65,0-2.22.57-2.22,2.68,0,1.28.22,2.75.44,3.61l-1.89.37c-.33-.92-.64-2.57-.64-4.38,0-3.59,1.3-4.78,4.18-4.78h7.44Zm-4.73,2.46v3.19c0,1.5.4,1.89,1.52,1.89s1.52-.53,1.52-1.92c0-1.76-.86-3.17-2.4-3.17h-.64Z"/>
        </g>
        <g>
          <path class="cls-3" d="m396.32,333.76c-.18-.42-.29-1.03-.29-1.67,0-2.79,2.22-3.85,5.35-3.85,4.09,0,5.57,1.58,5.57,4.16,0,3.94-4.27,7.13-7.13,9.22l.04.04h7.28v2.2h-11.16v-2.02c3.89-2.9,8.25-6.21,8.25-9.33,0-1.06-.51-1.61-1.28-1.91-.4-.15-.92-.24-1.56-.24s-1.23.07-1.61.24c-.66.26-1.17.73-1.17,1.87,0,.46.04.88.13,1.3h-2.44Z"/>
          <path class="cls-3" d="m422.53,335.98v.35c0,5.13-2.16,7.75-6.56,7.75s-6.54-2.62-6.54-7.75v-.35c0-5.13,2.16-7.75,6.54-7.75s6.56,2.62,6.56,7.75Zm-2.75.55v-.75c0-3.57-1.01-5.41-3.81-5.41s-3.81,1.85-3.81,5.41v.75c0,3.56,1.03,5.41,3.81,5.41s3.81-1.85,3.81-5.41Z"/>
          <path class="cls-3" d="m424.97,332.28c0-2.64,1.36-4.03,3.65-4.03s3.67,1.39,3.67,4.03v.18c0,2.66-1.36,4.03-3.67,4.03s-3.65-1.36-3.65-4.03v-.18Zm5.24-.07c0-.99-.13-1.69-.64-2.09-.24-.15-.53-.24-.95-.24-.4,0-.68.09-.92.24-.51.4-.64,1.1-.64,2.09v.31c0,.99.13,1.72.64,2.09.24.18.53.26.92.26.42,0,.7-.09.95-.26.51-.37.64-1.1.64-2.09v-.31Zm6.56-3.76h2.24l-7.75,15.4h-2.24l7.75-15.4Zm-1.19,11.4c0-2.66,1.36-4.03,3.67-4.03s3.67,1.36,3.67,4.03v.18c0,2.64-1.36,4.03-3.67,4.03s-3.67-1.39-3.67-4.03v-.18Zm5.26-.07c0-.99-.13-1.72-.66-2.09-.22-.18-.51-.26-.92-.26-.4,0-.7.09-.92.26-.53.37-.66,1.1-.66,2.09v.31c0,.99.13,1.69.66,2.09.22.15.53.24.92.24.42,0,.7-.09.92-.24.53-.4.66-1.1.66-2.09v-.31Z"/>
        </g>
        <rect class="cls-5" x="128.5" y="391.5" width="233" height="74" rx="18.83" ry="18.83"/>
        <rect class="cls-9" x="374.5" y="391.5" width="90" height="74" rx="18.83" ry="18.83"/>
        <g>
          <path class="cls-3" d="m211.47,437.86h-3.19l-5.57-9.11c-.62-1.08-1.14-2.02-1.67-3.17h-.07c.11,1.3.15,2.49.15,3.76v8.52h-2.64v-15.4h3.19l5.57,9.11c.62,1.08,1.14,2.02,1.65,3.17h.07c-.11-1.3-.11-2.49-.11-3.76v-8.51h2.62v15.4Z"/>
          <path class="cls-3" d="m225.91,432.24c0,3.81-1.87,5.83-5.74,5.83s-5.72-2.02-5.72-5.83v-.18c0-3.81,1.87-5.83,5.72-5.83s5.74,2.02,5.74,5.83v.18Zm-2.62-.26c0-1.5-.29-2.6-1.1-3.21-.48-.35-1.12-.55-2.02-.55s-1.54.2-2,.55c-.81.62-1.12,1.72-1.12,3.21v.35c0,1.5.31,2.6,1.12,3.21.46.35,1.12.53,2,.53s1.54-.18,2.02-.53c.81-.62,1.1-1.72,1.1-3.21v-.35Z"/>
          <path class="cls-3" d="m229.45,434.53v-6.16h-1.98v-1.92h2.09l.13-3.32h2.27v3.32h3.48v1.92h-3.45v5.79c0,1.5.46,1.85,2.02,1.85.48,0,1.1-.04,1.45-.09v1.85c-.42.13-1.23.24-2,.24-2.95,0-4-.88-4-3.48Z"/>
          <path class="cls-3" d="m247.14,437.86h-2.22l-.18-1.41h-.07c-.53.73-1.52,1.58-3.7,1.58-2.51,0-3.81-1.06-3.81-3.37s1.17-3.32,4.05-3.32h3.43v-.79c0-1.65-.57-2.22-2.68-2.22-1.28,0-2.75.22-3.61.44l-.37-1.89c.92-.33,2.57-.64,4.38-.64,3.59,0,4.78,1.3,4.78,4.18v7.44Zm-2.46-4.73h-3.19c-1.5,0-1.89.4-1.89,1.52s.53,1.52,1.92,1.52c1.76,0,3.17-.86,3.17-2.4v-.64Z"/>
          <path class="cls-3" d="m255.87,422.45h2.68v15.4h-2.68v-15.4Z"/>
          <path class="cls-3" d="m275.69,430.26c0,5.66-2.27,7.59-7.81,7.59h-5.46v-15.4h5.46c5.54,0,7.81,1.94,7.81,7.59v.22Zm-2.75-.31c0-4.05-1.21-5.24-5.17-5.24h-2.64v10.87h2.64c3.96,0,5.17-1.19,5.17-5.24v-.4Z"/>
          <path class="cls-3" d="m292.13,430.26c0,5.66-2.27,7.59-7.81,7.59h-5.46v-15.4h5.46c5.54,0,7.81,1.94,7.81,7.59v.22Zm-2.75-.31c0-4.05-1.21-5.24-5.17-5.24h-2.64v10.87h2.64c3.96,0,5.17-1.19,5.17-5.24v-.4Z"/>
        </g>
        <g>
          <path class="cls-3" d="m402.62,428.86c1.69,0,2.53-.44,2.53-2.2s-1.01-2.27-3.3-2.27c-1.5,0-2.79.2-3.78.46l-.44-1.94c.95-.37,2.64-.68,4.55-.68,3.72,0,5.57,1.17,5.57,4.09,0,2.09-.9,3.04-2.13,3.34v.07c1.45.33,2.49,1.21,2.49,3.56,0,3.56-2.46,4.77-5.99,4.77-2.05,0-3.92-.4-4.66-.7l.46-1.94c.88.26,2.49.48,3.94.48,2.38,0,3.59-.62,3.59-2.68,0-1.83-.84-2.33-2.73-2.33h-2.4v-2.05h2.31Z"/>
          <path class="cls-3" d="m409.94,437.3l.48-1.98c.97.33,2.66.59,4.27.59,2.57,0,3.72-.59,3.72-2.82s-.84-2.73-3.76-2.73h-4.12l.31-7.92h9.55v2.18h-7.19l-.15,3.81c.55-.07,1.52-.11,2.33-.11,3.85,0,5.72,1.03,5.72,4.69,0,3.87-2.33,5.06-6.16,5.06-2.07,0-3.92-.31-5-.77Z"/>
          <path class="cls-3" d="m423.27,426.28c0-2.64,1.36-4.03,3.65-4.03s3.67,1.39,3.67,4.03v.18c0,2.66-1.36,4.03-3.67,4.03s-3.65-1.36-3.65-4.03v-.18Zm5.24-.07c0-.99-.13-1.69-.64-2.09-.24-.15-.53-.24-.95-.24-.4,0-.68.09-.92.24-.51.4-.64,1.1-.64,2.09v.31c0,.99.13,1.72.64,2.09.24.18.53.26.92.26.42,0,.7-.09.95-.26.51-.37.64-1.1.64-2.09v-.31Zm6.56-3.76h2.24l-7.75,15.4h-2.24l7.75-15.4Zm-1.19,11.4c0-2.66,1.36-4.03,3.67-4.03s3.67,1.36,3.67,4.03v.18c0,2.64-1.36,4.03-3.67,4.03s-3.67-1.39-3.67-4.03v-.18Zm5.26-.07c0-.99-.13-1.72-.66-2.09-.22-.18-.51-.26-.92-.26-.4,0-.7.09-.92.26-.53.37-.66,1.1-.66,2.09v.31c0,.99.13,1.69.66,2.09.22.15.53.24.92.24.42,0,.7-.09.92-.24.53-.4.66-1.1.66-2.09v-.31Z"/>
        </g>
      </g>
      <g>
        <rect class="cls-6" x="128.5" y="501.5" width="233" height="74" rx="18.83" ry="18.83"/>
        <rect class="cls-9" x="374.5" y="501.5" width="90" height="74" rx="18.83" ry="18.83"/>
        <g>
          <path class="cls-3" d="m211.48,531h-2.9l-5.06-8.28c-.56-.98-1.04-1.84-1.52-2.88h-.06c.1,1.18.14,2.26.14,3.42v7.74h-2.4v-14h2.9l5.06,8.28c.56.98,1.04,1.84,1.5,2.88h.06c-.1-1.18-.1-2.26-.1-3.42v-7.74h2.38v14Z"/>
          <path class="cls-3" d="m224.6,525.9c0,3.46-1.7,5.3-5.22,5.3s-5.2-1.84-5.2-5.3v-.16c0-3.46,1.7-5.3,5.2-5.3s5.22,1.84,5.22,5.3v.16Zm-2.38-.24c0-1.36-.26-2.36-1-2.92-.44-.32-1.02-.5-1.84-.5s-1.4.18-1.82.5c-.74.56-1.02,1.56-1.02,2.92v.32c0,1.36.28,2.36,1.02,2.92.42.32,1.02.48,1.82.48s1.4-.16,1.84-.48c.74-.56,1-1.56,1-2.92v-.32Z"/>
          <path class="cls-3" d="m227.82,527.98v-5.6h-1.8v-1.74h1.9l.12-3.02h2.06v3.02h3.16v1.74h-3.14v5.26c0,1.36.42,1.68,1.84,1.68.44,0,1-.04,1.32-.08v1.68c-.38.12-1.12.22-1.82.22-2.68,0-3.64-.8-3.64-3.16Z"/>
          <path class="cls-3" d="m243.9,531h-2.02l-.16-1.28h-.06c-.48.66-1.38,1.44-3.36,1.44-2.28,0-3.46-.96-3.46-3.06s1.06-3.02,3.68-3.02h3.12v-.72c0-1.5-.52-2.02-2.44-2.02-1.16,0-2.5.2-3.28.4l-.34-1.72c.84-.3,2.34-.58,3.98-.58,3.26,0,4.34,1.18,4.34,3.8v6.76Zm-2.24-4.3h-2.9c-1.36,0-1.72.36-1.72,1.38s.48,1.38,1.74,1.38c1.6,0,2.88-.78,2.88-2.18v-.58Z"/>
          <path class="cls-3" d="m264.78,523.9v.2c0,4.76-2.34,7.1-6.78,7.1s-6.78-2.34-6.78-7.1v-.2c0-4.76,2.32-7.1,6.78-7.1s6.78,2.34,6.78,7.1Zm-4.22,4.68c1.24-.8,1.72-2.32,1.72-4.4v-.36c0-2.08-.48-3.6-1.72-4.4-.64-.4-1.48-.62-2.56-.62s-1.92.22-2.56.62c-1.24.8-1.72,2.32-1.72,4.4v.36c0,2.08.48,3.6,1.72,4.4.64.4,1.48.62,2.56.62s1.92-.22,2.56-.62Z"/>
          <path class="cls-3" d="m273.72,522.78c-.28-.02-.72-.04-1.02-.04-2.34,0-2.92.92-2.92,2.58v5.68h-2.32v-10.36h2.06l.2,1.64h.06c.48-1,1.24-1.74,2.98-1.72.34,0,.74.04.96.08v2.14Z"/>
          <path class="cls-3" d="m282.96,521.74l.06-.02.14-1.08h2.04v9.96c0,2.92-1.66,4.34-5.32,4.34-1.62,0-3.2-.28-4.06-.62l.34-1.68c.82.26,2.16.5,3.52.5,2.46,0,3.24-.84,3.24-2.68v-.46l.02-.7-.06-.02c-.74.78-1.8,1.22-3.2,1.22-3.06,0-4.68-1.8-4.68-4.96v-.14c0-3.16,1.62-4.96,4.68-4.96,1.44,0,2.54.46,3.28,1.3Zm-.04,3.58c0-1.18-.26-2.1-1-2.64-.42-.28-1.02-.44-1.78-.44s-1.38.16-1.8.46c-.72.5-1,1.4-1,2.62v.3c0,1.2.3,2.12,1,2.62.42.3,1.02.46,1.8.46s1.36-.16,1.78-.46c.74-.52,1-1.46,1-2.62v-.3Z"/>
          <path class="cls-3" d="m288.16,528.6h2.42v2.4h-2.42v-2.4Z"/>
          <path class="cls-3" d="m157.02,551.1c0,5.14-2.06,6.9-7.1,6.9h-4.96v-14h4.96c5.04,0,7.1,1.76,7.1,6.9v.2Zm-2.5-.28c0-3.68-1.1-4.76-4.7-4.76h-2.4v9.88h2.4c3.6,0,4.7-1.08,4.7-4.76v-.36Z"/>
          <path class="cls-3" d="m162.1,546.02h-2.4v-2.4h2.4v2.4Zm-.04,11.98h-2.32v-10.36h2.32v10.36Z"/>
          <path class="cls-3" d="m164.6,552.9v-.16c0-3.46,1.62-5.3,4.76-5.3,1.44,0,2.54.42,3.28,1.26l.08-.04c-.04-.46-.08-.96-.08-1.48v-3.78h2.32v14.6h-2l-.16-1.14-.08-.02c-.74.9-1.86,1.36-3.36,1.36-3.14,0-4.76-1.84-4.76-5.3Zm7.04,3c.74-.56,1-1.56,1-2.92v-.32c0-1.36-.26-2.36-1-2.92-.44-.32-1.02-.5-1.84-.5s-1.4.18-1.82.5c-.74.56-1.02,1.56-1.02,2.92v.32c0,1.36.28,2.36,1.02,2.92.42.32,1.02.48,1.82.48s1.4-.16,1.84-.48Z"/>
          <path class="cls-3" d="m186.44,558h-2.02l-.16-1.28h-.06c-.48.66-1.38,1.44-3.36,1.44-2.28,0-3.46-.96-3.46-3.06s1.06-3.02,3.68-3.02h3.12v-.72c0-1.5-.52-2.02-2.44-2.02-1.16,0-2.5.2-3.28.4l-.34-1.72c.84-.3,2.34-.58,3.98-.58,3.26,0,4.34,1.18,4.34,3.8v6.76Zm-2.24-4.3h-2.9c-1.36,0-1.72.36-1.72,1.38s.48,1.38,1.74,1.38c1.6,0,2.88-.78,2.88-2.18v-.58Zm-2.96-7.42l1.24-3.06h2.78v.06l-2.28,3h-1.74Z"/>
          <path class="cls-3" d="m190.12,554.98v-5.6h-1.8v-1.74h1.9l.12-3.02h2.06v3.02h3.16v1.74h-3.14v5.26c0,1.36.42,1.68,1.84,1.68.44,0,1-.04,1.32-.08v1.68c-.38.12-1.12.22-1.82.22-2.68,0-3.64-.8-3.64-3.16Z"/>
          <path class="cls-3" d="m200.26,546.02h-2.4v-2.4h2.4v2.4Zm-.04,11.98h-2.32v-10.36h2.32v10.36Z"/>
          <path class="cls-3" d="m205.12,553c0,1.42.34,2.32,1.16,2.8.52.32,1.24.44,2.22.44.9,0,1.86-.14,2.54-.3l.34,1.72c-.7.26-1.98.54-3.36.54-1.18,0-2.14-.2-2.9-.58-1.6-.78-2.36-2.38-2.36-4.72v-.16c0-2.34.74-3.96,2.34-4.74.76-.38,1.72-.56,2.88-.56,1.36,0,2.64.26,3.34.5l-.36,1.74c-.66-.16-1.62-.28-2.5-.28-.96,0-1.68.12-2.2.42-.82.5-1.14,1.38-1.14,2.82v.36Z"/>
          <path class="cls-3" d="m223.18,552.9c0,3.46-1.7,5.3-5.22,5.3s-5.2-1.84-5.2-5.3v-.16c0-3.46,1.7-5.3,5.2-5.3s5.22,1.84,5.22,5.3v.16Zm-2.38-.24c0-1.36-.26-2.36-1-2.92-.44-.32-1.02-.5-1.84-.5s-1.4.18-1.82.5c-.74.56-1.02,1.56-1.02,2.92v.32c0,1.36.28,2.36,1.02,2.92.42.32,1.02.48,1.82.48s1.4-.16,1.84-.48c.74-.56,1-1.56,1-2.92v-.32Z"/>
          <path class="cls-3" d="m230.94,553.36h-5.64v-1.94h5.64v1.94Z"/>
          <path class="cls-3" d="m233.78,544h6.18c3.84,0,5.18,1.54,5.18,4.46s-1.34,4.58-5.18,4.58h-3.74v4.96h-2.44v-14Zm2.44,2v5.08h3.54c2.2,0,2.9-.7,2.9-2.54s-.68-2.54-2.9-2.54h-3.54Z"/>
          <path class="cls-3" d="m249.14,553.38c.08,1.12.4,1.88,1,2.34.58.48,1.46.66,2.68.66s2.3-.2,3.08-.46l.32,1.6c-.76.34-2.14.68-3.72.68-3.8,0-5.68-1.62-5.68-5.44v-.16c0-3.3,1.74-5.16,5.1-5.16s4.76,1.76,4.76,4.6v1.34h-7.54Zm.02-1.62h5.32v-.18c0-.92-.26-1.58-.82-1.96-.42-.28-.98-.42-1.74-.42-.8,0-1.36.14-1.78.42-.64.42-.9,1.12-.98,2.14Z"/>
          <path class="cls-3" d="m258.6,552.9v-.16c0-3.46,1.62-5.3,4.76-5.3,1.44,0,2.54.42,3.28,1.26l.08-.04c-.04-.46-.08-.96-.08-1.48v-3.78h2.32v14.6h-2l-.16-1.14-.08-.02c-.74.9-1.86,1.36-3.36,1.36-3.14,0-4.76-1.84-4.76-5.3Zm7.04,3c.74-.56,1-1.56,1-2.92v-.32c0-1.36-.26-2.36-1-2.92-.44-.32-1.02-.5-1.84-.5s-1.4.18-1.82.5c-.74.56-1.02,1.56-1.02,2.92v.32c0,1.36.28,2.36,1.02,2.92.42.32,1.02.48,1.82.48s1.4-.16,1.84-.48Z"/>
          <path class="cls-3" d="m280.44,558h-2.02l-.16-1.28h-.06c-.48.66-1.38,1.44-3.36,1.44-2.28,0-3.46-.96-3.46-3.06s1.06-3.02,3.68-3.02h3.12v-.72c0-1.5-.52-2.02-2.44-2.02-1.16,0-2.5.2-3.28.4l-.34-1.72c.84-.3,2.34-.58,3.98-.58,3.26,0,4.34,1.18,4.34,3.8v6.76Zm-2.24-4.3h-2.9c-1.36,0-1.72.36-1.72,1.38s.48,1.38,1.74,1.38c1.6,0,2.88-.78,2.88-2.18v-.58Z"/>
          <path class="cls-3" d="m290.84,548.74l.06-.02.14-1.08h2.04v9.96c0,2.92-1.66,4.34-5.32,4.34-1.62,0-3.2-.28-4.06-.62l.34-1.68c.82.26,2.16.5,3.52.5,2.46,0,3.24-.84,3.24-2.68v-.46l.02-.7-.06-.02c-.74.78-1.8,1.22-3.2,1.22-3.06,0-4.68-1.8-4.68-4.96v-.14c0-3.16,1.62-4.96,4.68-4.96,1.44,0,2.54.46,3.28,1.3Zm-.04,3.58c0-1.18-.26-2.1-1-2.64-.42-.28-1.02-.44-1.78-.44s-1.38.16-1.8.46c-.72.5-1,1.4-1,2.62v.3c0,1.2.3,2.12,1,2.62.42.3,1.02.46,1.8.46s1.36-.16,1.78-.46c.74-.52,1-1.46,1-2.62v-.3Z"/>
          <path class="cls-3" d="m305.98,552.9c0,3.46-1.7,5.3-5.22,5.3s-5.2-1.84-5.2-5.3v-.16c0-3.46,1.7-5.3,5.2-5.3s5.22,1.84,5.22,5.3v.16Zm-2.38-.24c0-1.36-.26-2.36-1-2.92-.44-.32-1.02-.5-1.84-.5s-1.4.18-1.82.5c-.74.56-1.02,1.56-1.02,2.92v.32c0,1.36.28,2.36,1.02,2.92.42.32,1.02.48,1.82.48s1.4-.16,1.84-.48c.74-.56,1-1.56,1-2.92v-.32Zm-3.64-6.38l1.24-3.06h2.78v.06l-2.28,3h-1.74Z"/>
          <path class="cls-3" d="m315.92,548.74l.06-.02.14-1.08h2.04v9.96c0,2.92-1.66,4.34-5.32,4.34-1.62,0-3.2-.28-4.06-.62l.34-1.68c.82.26,2.16.5,3.52.5,2.46,0,3.24-.84,3.24-2.68v-.46l.02-.7-.06-.02c-.74.78-1.8,1.22-3.2,1.22-3.06,0-4.68-1.8-4.68-4.96v-.14c0-3.16,1.62-4.96,4.68-4.96,1.44,0,2.54.46,3.28,1.3Zm-.04,3.58c0-1.18-.26-2.1-1-2.64-.42-.28-1.02-.44-1.78-.44s-1.38.16-1.8.46c-.72.5-1,1.4-1,2.62v.3c0,1.2.3,2.12,1,2.62.42.3,1.02.46,1.8.46s1.36-.16,1.78-.46c.74-.52,1-1.46,1-2.62v-.3Z"/>
          <path class="cls-3" d="m323.58,546.02h-2.4v-2.4h2.4v2.4Zm-.04,11.98h-2.32v-10.36h2.32v10.36Z"/>
          <path class="cls-3" d="m328.44,553c0,1.42.34,2.32,1.16,2.8.52.32,1.24.44,2.22.44.9,0,1.86-.14,2.54-.3l.34,1.72c-.7.26-1.98.54-3.36.54-1.18,0-2.14-.2-2.9-.58-1.6-.78-2.36-2.38-2.36-4.72v-.16c0-2.34.74-3.96,2.34-4.74.76-.38,1.72-.56,2.88-.56,1.36,0,2.64.26,3.34.5l-.36,1.74c-.66-.16-1.62-.28-2.5-.28-.96,0-1.68.12-2.2.42-.82.5-1.14,1.38-1.14,2.82v.36Z"/>
          <path class="cls-3" d="m345.32,558h-2.02l-.16-1.28h-.06c-.48.66-1.38,1.44-3.36,1.44-2.28,0-3.46-.96-3.46-3.06s1.06-3.02,3.68-3.02h3.12v-.72c0-1.5-.52-2.02-2.44-2.02-1.16,0-2.5.2-3.28.4l-.34-1.72c.84-.3,2.34-.58,3.98-.58,3.26,0,4.34,1.18,4.34,3.8v6.76Zm-2.24-4.3h-2.9c-1.36,0-1.72.36-1.72,1.38s.48,1.38,1.74,1.38c1.6,0,2.88-.78,2.88-2.18v-.58Z"/>
        </g>
        <rect class="cls-7" x="-51.5" y="595.5" width="262" height="74" rx="18.83" ry="18.83" transform="translate(-553 712) rotate(-90)"/>
        <g>
          <path class="cls-8" d="m79.04,685.34h.15c4.8,0,7.33,2.18,7.7,6.29h.09c.62-.62.9-2.68.88-4.64h2.35c0,3.85-1.17,6.42-3.34,7.22-.44,3.98-2.97,6.05-7.68,6.05h-.15c-5.24,0-7.81-2.55-7.81-7.46s2.57-7.46,7.81-7.46Zm5.04,4.64c-.88-1.36-2.51-1.89-4.8-1.89h-.33c-2.29,0-3.96.53-4.84,1.89-.44.7-.68,1.63-.68,2.82s.24,2.11.68,2.82c.88,1.36,2.55,1.89,4.84,1.89h.33c2.29,0,3.92-.53,4.8-1.89.44-.7.68-1.63.68-2.82s-.24-2.11-.68-2.82Z"/>
          <path class="cls-8" d="m75.45,682.48v-2.55h6.76c2.09,0,2.71-.57,2.71-2.44,0-2.13-1.1-2.62-2.9-2.62h-6.56v-2.55h11.4v2.29l-1.47.2v.07c.79.44,1.69,1.28,1.69,3.17,0,3.21-1.32,4.44-4.6,4.44h-7.02Z"/>
          <path class="cls-8" d="m81.77,667.04c1.23-.09,2.07-.44,2.57-1.1.53-.64.73-1.61.73-2.95s-.22-2.53-.51-3.39l1.76-.35c.37.84.75,2.35.75,4.09,0,4.18-1.78,6.25-5.98,6.25h-.18c-3.63,0-5.68-1.91-5.68-5.61s1.94-5.24,5.06-5.24h1.47v8.29Zm-1.78-.02v-5.85h-.2c-1.01,0-1.74.29-2.16.9-.31.46-.46,1.08-.46,1.92,0,.88.15,1.5.46,1.96.46.7,1.23.99,2.35,1.08Z"/>
          <path class="cls-8" d="m86.5,656.72l-1.78-.37c.29-1.03.44-2.38.44-3.65,0-1.94-.33-2.46-1.45-2.46s-1.23.55-1.47,1.69l-.33,1.5c-.42,2.05-1.01,3.32-3.34,3.32s-3.32-1.25-3.32-4.58c0-1.61.24-3.15.51-3.96l1.76.38c-.2.84-.35,1.98-.35,3.34,0,1.8.26,2.35,1.34,2.35s1.25-.64,1.52-1.87l.33-1.5c.44-2.13,1.08-3.15,3.3-3.15,2.53,0,3.43,1.3,3.43,4.64,0,1.74-.22,3.34-.57,4.31Z"/>
          <path class="cls-8" d="m83.53,644.6h-6.16v1.98h-1.91v-2.09l-3.32-.13v-2.27h3.32v-3.48h1.91v3.45h5.79c1.5,0,1.85-.46,1.85-2.02,0-.48-.04-1.1-.09-1.45h1.85c.13.42.24,1.23.24,2,0,2.95-.88,4-3.48,4Z"/>
          <path class="cls-8" d="m73.67,633.45v2.64h-2.64v-2.64h2.64Zm13.18.04v2.55h-11.4v-2.55h11.4Z"/>
          <path class="cls-8" d="m81.24,619.23c3.81,0,5.83,1.87,5.83,5.74s-2.02,5.72-5.83,5.72h-.18c-3.81,0-5.83-1.87-5.83-5.72s2.02-5.74,5.83-5.74h.18Zm-.26,2.62c-1.5,0-2.6.29-3.21,1.1-.35.48-.55,1.12-.55,2.02s.2,1.54.55,2c.62.81,1.72,1.12,3.21,1.12h.35c1.5,0,2.6-.31,3.21-1.12.35-.46.53-1.12.53-2s-.18-1.54-.53-2.02c-.62-.81-1.72-1.1-3.21-1.1h-.35Z"/>
          <path class="cls-8" d="m86.85,606.23v2.55h-6.8c-2.07,0-2.66.57-2.66,2.51,0,2.11.97,2.66,2.84,2.66h6.62v2.55h-11.4v-2.27l1.52-.22v-.07c-.86-.44-1.74-1.36-1.74-3.59,0-3.21,1.5-4.14,4.53-4.14h7.08Z"/>
          <path class="cls-8" d="m73.95,599.44l-3.37-1.36v-3.06h.07l3.3,2.51v1.92Zm12.89-5.72v2.22l-1.41.18v.07c.73.53,1.58,1.52,1.58,3.7,0,2.51-1.06,3.81-3.37,3.81s-3.32-1.17-3.32-4.05v-3.43h-.79c-1.65,0-2.22.57-2.22,2.68,0,1.28.22,2.75.44,3.61l-1.89.37c-.33-.92-.64-2.57-.64-4.38,0-3.59,1.3-4.78,4.18-4.78h7.44Zm-4.73,2.46v3.19c0,1.5.4,1.89,1.52,1.89s1.52-.53,1.52-1.92c0-1.76-.86-3.17-2.4-3.17h-.64Z"/>
          <path class="cls-8" d="m77.81,583.6c-.02.31-.04.79-.04,1.12,0,2.57,1.01,3.21,2.84,3.21h6.25v2.55h-11.4v-2.27l1.8-.22v-.07c-1.1-.53-1.91-1.36-1.89-3.28,0-.37.04-.81.09-1.06h2.35Z"/>
          <path class="cls-8" d="m73.67,578.73v2.64h-2.64v-2.64h2.64Zm13.18.04v2.55h-11.4v-2.55h11.4Z"/>
          <path class="cls-8" d="m81.24,564.52c3.81,0,5.83,1.87,5.83,5.74s-2.02,5.72-5.83,5.72h-.18c-3.81,0-5.83-1.87-5.83-5.72s2.02-5.74,5.83-5.74h.18Zm-.26,2.62c-1.5,0-2.6.29-3.21,1.1-.35.48-.55,1.12-.55,2.02s.2,1.54.55,2c.62.81,1.72,1.12,3.21,1.12h.35c1.5,0,2.6-.31,3.21-1.12.35-.46.53-1.12.53-2s-.18-1.54-.53-2.02c-.62-.81-1.72-1.1-3.21-1.1h-.35Z"/>
        </g>
        <g>
          <path class="cls-3" d="m397.42,547.86c1.43-4.64,4.07-10.08,5.96-13.16l-.02-.07h-7.9v-2.18h10.65v2.05c-2.18,3.78-4.62,9.02-5.94,13.36h-2.75Z"/>
          <path class="cls-3" d="m406.86,549.99l.81-2.13h-.99v-2.64h2.71v2.4l-1.28,2.38h-1.25Z"/>
          <path class="cls-3" d="m411.77,547.3l.48-1.98c.97.33,2.66.59,4.27.59,2.57,0,3.72-.59,3.72-2.82s-.84-2.73-3.76-2.73h-4.12l.31-7.92h9.55v2.18h-7.19l-.15,3.81c.55-.07,1.52-.11,2.33-.11,3.85,0,5.72,1.03,5.72,4.69,0,3.87-2.33,5.06-6.16,5.06-2.07,0-3.92-.31-5-.77Z"/>
          <path class="cls-3" d="m425.1,536.28c0-2.64,1.36-4.03,3.65-4.03s3.67,1.39,3.67,4.03v.18c0,2.66-1.36,4.03-3.67,4.03s-3.65-1.36-3.65-4.03v-.18Zm5.24-.07c0-.99-.13-1.69-.64-2.09-.24-.15-.53-.24-.95-.24-.4,0-.68.09-.92.24-.51.4-.64,1.1-.64,2.09v.31c0,.99.13,1.72.64,2.09.24.18.53.26.92.26.42,0,.7-.09.95-.26.51-.37.64-1.1.64-2.09v-.31Zm6.56-3.76h2.24l-7.75,15.4h-2.24l7.75-15.4Zm-1.19,11.4c0-2.66,1.36-4.03,3.67-4.03s3.67,1.36,3.67,4.03v.18c0,2.64-1.36,4.03-3.67,4.03s-3.67-1.39-3.67-4.03v-.18Zm5.26-.07c0-.99-.13-1.72-.66-2.09-.22-.18-.51-.26-.92-.26-.4,0-.7.09-.92.26-.53.37-.66,1.1-.66,2.09v.31c0,.99.13,1.69.66,2.09.22.15.53.24.92.24.42,0,.7-.09.92-.24.53-.4.66-1.1.66-2.09v-.31Z"/>
        </g>
        <rect class="cls-6" x="128.5" y="595.5" width="233" height="74" rx="18.83" ry="18.83"/>
        <rect class="cls-9" x="374.5" y="595.5" width="90" height="74" rx="18.83" ry="18.83"/>
        <g>
          <path class="cls-3" d="m156.54,641.86h-3.19l-5.57-9.11c-.62-1.08-1.14-2.02-1.67-3.17h-.07c.11,1.3.15,2.49.15,3.76v8.52h-2.64v-15.4h3.19l5.57,9.11c.62,1.08,1.14,2.02,1.65,3.17h.07c-.11-1.3-.11-2.49-.11-3.76v-8.51h2.62v15.4Z"/>
          <path class="cls-3" d="m170.97,636.24c0,3.81-1.87,5.83-5.74,5.83s-5.72-2.02-5.72-5.83v-.18c0-3.81,1.87-5.83,5.72-5.83s5.74,2.02,5.74,5.83v.18Zm-2.62-.26c0-1.5-.29-2.6-1.1-3.21-.48-.35-1.12-.55-2.02-.55s-1.54.2-2,.55c-.81.62-1.12,1.72-1.12,3.21v.35c0,1.5.31,2.6,1.12,3.21.46.35,1.12.53,2,.53s1.54-.18,2.02-.53c.81-.62,1.1-1.72,1.1-3.21v-.35Z"/>
          <path class="cls-3" d="m174.51,638.53v-6.16h-1.98v-1.92h2.09l.13-3.32h2.27v3.32h3.48v1.92h-3.45v5.79c0,1.5.46,1.85,2.02,1.85.48,0,1.1-.04,1.45-.09v1.85c-.42.13-1.23.24-2,.24-2.95,0-4-.88-4-3.48Z"/>
          <path class="cls-3" d="m192.2,641.86h-2.22l-.18-1.41h-.07c-.53.73-1.52,1.58-3.7,1.58-2.51,0-3.81-1.06-3.81-3.37s1.17-3.32,4.05-3.32h3.43v-.79c0-1.65-.57-2.22-2.68-2.22-1.28,0-2.75.22-3.61.44l-.37-1.89c.92-.33,2.57-.64,4.38-.64,3.59,0,4.78,1.3,4.78,4.18v7.44Zm-2.46-4.73h-3.19c-1.5,0-1.89.4-1.89,1.52s.53,1.52,1.92,1.52c1.76,0,3.17-.86,3.17-2.4v-.64Z"/>
          <path class="cls-3" d="m200.94,626.45h2.68v15.4h-2.68v-15.4Z"/>
          <path class="cls-3" d="m217.53,641.86h-2.55v-6.8c0-2.07-.57-2.66-2.51-2.66-2.11,0-2.66.97-2.66,2.84v6.62h-2.55v-11.4h2.27l.22,1.52h.07c.44-.86,1.36-1.74,3.59-1.74,3.21,0,4.14,1.5,4.14,4.53v7.09Z"/>
          <path class="cls-3" d="m221.59,632.37h-2.02v-1.92h2.02v-1.17c0-2.6,1.01-3.63,3.87-3.63.77,0,1.67.11,2.09.22v1.83c-.33-.07-1.01-.11-1.5-.11-1.61,0-2,.46-2,1.78v1.08h3.19v1.92h-3.12v9.48h-2.53v-9.48Z"/>
          <path class="cls-3" d="m236.33,632.81c-.31-.02-.79-.04-1.12-.04-2.57,0-3.21,1.01-3.21,2.84v6.25h-2.55v-11.4h2.27l.22,1.8h.07c.53-1.1,1.36-1.91,3.28-1.89.37,0,.81.04,1.06.09v2.35Z"/>
          <path class="cls-3" d="m247.47,641.86h-2.22l-.18-1.41h-.07c-.53.73-1.52,1.58-3.7,1.58-2.51,0-3.81-1.06-3.81-3.37s1.17-3.32,4.05-3.32h3.43v-.79c0-1.65-.57-2.22-2.68-2.22-1.28,0-2.75.22-3.61.44l-.37-1.89c.92-.33,2.57-.64,4.38-.64,3.59,0,4.78,1.3,4.78,4.18v7.44Zm-2.46-4.73h-3.19c-1.5,0-1.89.4-1.89,1.52s.53,1.52,1.92,1.52c1.76,0,3.17-.86,3.17-2.4v-.64Z"/>
          <path class="cls-3" d="m252.68,636.77c.09,1.23.44,2.07,1.1,2.57.64.53,1.61.73,2.95.73s2.53-.22,3.39-.51l.35,1.76c-.84.37-2.35.75-4.09.75-4.18,0-6.25-1.78-6.25-5.99v-.18c0-3.63,1.91-5.68,5.61-5.68s5.24,1.94,5.24,5.06v1.47h-8.29Zm.02-1.78h5.85v-.2c0-1.01-.29-1.74-.9-2.16-.46-.31-1.08-.46-1.91-.46-.88,0-1.5.15-1.96.46-.7.46-.99,1.23-1.08,2.35Z"/>
          <path class="cls-3" d="m263,641.5l.37-1.78c1.03.29,2.38.44,3.65.44,1.94,0,2.46-.33,2.46-1.45s-.55-1.23-1.69-1.47l-1.5-.33c-2.05-.42-3.32-1.01-3.32-3.34s1.25-3.32,4.58-3.32c1.61,0,3.15.24,3.96.51l-.37,1.76c-.84-.2-1.98-.35-3.34-.35-1.8,0-2.35.26-2.35,1.34s.64,1.25,1.87,1.52l1.5.33c2.13.44,3.15,1.08,3.15,3.3,0,2.53-1.3,3.43-4.64,3.43-1.74,0-3.34-.22-4.31-.57Z"/>
          <path class="cls-3" d="m275.12,638.53v-6.16h-1.98v-1.92h2.09l.13-3.32h2.27v3.32h3.48v1.92h-3.45v5.79c0,1.5.46,1.85,2.02,1.85.48,0,1.1-.04,1.45-.09v1.85c-.42.13-1.23.24-2,.24-2.95,0-4-.88-4-3.48Z"/>
          <path class="cls-3" d="m290.5,632.81c-.31-.02-.79-.04-1.12-.04-2.57,0-3.21,1.01-3.21,2.84v6.25h-2.55v-11.4h2.27l.22,1.8h.07c.53-1.1,1.36-1.91,3.28-1.89.37,0,.81.04,1.06.09v2.35Z"/>
          <path class="cls-3" d="m292.61,630.46h2.55v6.76c0,2.09.57,2.71,2.44,2.71,2.13,0,2.62-1.1,2.62-2.9v-6.56h2.55v11.4h-2.29l-.2-1.47h-.07c-.44.79-1.28,1.69-3.17,1.69-3.21,0-4.44-1.32-4.44-4.6v-7.02Z"/>
          <path class="cls-3" d="m306.93,638.53v-6.16h-1.98v-1.92h2.09l.13-3.32h2.27v3.32h3.48v1.92h-3.45v5.79c0,1.5.46,1.85,2.02,1.85.48,0,1.1-.04,1.45-.09v1.85c-.42.13-1.23.24-2,.24-2.95,0-4-.88-4-3.48Z"/>
          <path class="cls-3" d="m315.27,630.46h2.55v6.76c0,2.09.57,2.71,2.44,2.71,2.13,0,2.62-1.1,2.62-2.9v-6.56h2.55v11.4h-2.29l-.2-1.47h-.07c-.44.79-1.28,1.69-3.17,1.69-3.21,0-4.44-1.32-4.44-4.6v-7.02Z"/>
          <path class="cls-3" d="m335.62,632.81c-.31-.02-.79-.04-1.12-.04-2.57,0-3.21,1.01-3.21,2.84v6.25h-2.55v-11.4h2.27l.22,1.8h.07c.53-1.1,1.36-1.91,3.28-1.89.37,0,.81.04,1.06.09v2.35Z"/>
          <path class="cls-3" d="m346.75,641.86h-2.22l-.18-1.41h-.07c-.53.73-1.52,1.58-3.7,1.58-2.51,0-3.81-1.06-3.81-3.37s1.17-3.32,4.05-3.32h3.43v-.79c0-1.65-.57-2.22-2.68-2.22-1.28,0-2.75.22-3.61.44l-.37-1.89c.92-.33,2.57-.64,4.38-.64,3.59,0,4.78,1.3,4.78,4.18v7.44Zm-2.46-4.73h-3.19c-1.5,0-1.89.4-1.89,1.52s.53,1.52,1.92,1.52c1.76,0,3.17-.86,3.17-2.4v-.64Z"/>
        </g>
        <g>
          <path class="cls-3" d="m403.68,641.3l.48-1.98c.97.33,2.66.59,4.27.59,2.57,0,3.72-.59,3.72-2.82s-.84-2.73-3.76-2.73h-4.12l.31-7.92h9.55v2.18h-7.19l-.15,3.81c.55-.07,1.52-.11,2.33-.11,3.85,0,5.72,1.03,5.72,4.69,0,3.87-2.33,5.06-6.16,5.06-2.07,0-3.92-.31-5-.77Z"/>
          <path class="cls-3" d="m417.01,630.28c0-2.64,1.36-4.03,3.65-4.03s3.67,1.39,3.67,4.03v.18c0,2.66-1.36,4.03-3.67,4.03s-3.65-1.36-3.65-4.03v-.18Zm5.24-.07c0-.99-.13-1.69-.64-2.09-.24-.15-.53-.24-.95-.24-.4,0-.68.09-.92.24-.51.4-.64,1.1-.64,2.09v.31c0,.99.13,1.72.64,2.09.24.18.53.26.92.26.42,0,.7-.09.95-.26.51-.37.64-1.1.64-2.09v-.31Zm6.56-3.76h2.24l-7.75,15.4h-2.24l7.75-15.4Zm-1.19,11.4c0-2.66,1.36-4.03,3.67-4.03s3.67,1.36,3.67,4.03v.18c0,2.64-1.36,4.03-3.67,4.03s-3.67-1.39-3.67-4.03v-.18Zm5.26-.07c0-.99-.13-1.72-.66-2.09-.22-.18-.51-.26-.92-.26-.4,0-.7.09-.92.26-.53.37-.66,1.1-.66,2.09v.31c0,.99.13,1.69.66,2.09.22.15.53.24.92.24.42,0,.7-.09.92-.24.53-.4.66-1.1.66-2.09v-.31Z"/>
        </g>
        <rect class="cls-6" x="128.5" y="689.5" width="233" height="74" rx="18.83" ry="18.83"/>
        <rect class="cls-9" x="374.5" y="689.5" width="90" height="74" rx="18.83" ry="18.83"/>
        <g>
          <path class="cls-3" d="m158.05,722.2h-3.19l-5.57-9.11c-.62-1.08-1.14-2.02-1.67-3.17h-.07c.11,1.3.15,2.49.15,3.76v8.52h-2.64v-15.4h3.19l5.57,9.11c.62,1.08,1.14,2.02,1.65,3.17h.07c-.11-1.3-.11-2.49-.11-3.76v-8.52h2.62v15.4Z"/>
          <path class="cls-3" d="m172.48,716.59c0,3.81-1.87,5.83-5.74,5.83s-5.72-2.02-5.72-5.83v-.18c0-3.81,1.87-5.83,5.72-5.83s5.74,2.02,5.74,5.83v.18Zm-2.62-.26c0-1.5-.29-2.6-1.1-3.21-.48-.35-1.12-.55-2.02-.55s-1.54.2-2,.55c-.81.62-1.12,1.72-1.12,3.21v.35c0,1.5.31,2.6,1.12,3.21.46.35,1.12.53,2,.53s1.54-.18,2.02-.53c.81-.62,1.1-1.72,1.1-3.21v-.35Z"/>
          <path class="cls-3" d="m176.02,718.88v-6.16h-1.98v-1.91h2.09l.13-3.32h2.27v3.32h3.48v1.91h-3.45v5.79c0,1.5.46,1.85,2.02,1.85.48,0,1.1-.04,1.45-.09v1.85c-.42.13-1.23.24-2,.24-2.95,0-4-.88-4-3.48Z"/>
          <path class="cls-3" d="m193.71,722.2h-2.22l-.18-1.41h-.07c-.53.73-1.52,1.58-3.7,1.58-2.51,0-3.81-1.06-3.81-3.37s1.17-3.32,4.05-3.32h3.43v-.79c0-1.65-.57-2.22-2.68-2.22-1.28,0-2.75.22-3.61.44l-.37-1.89c.92-.33,2.57-.64,4.38-.64,3.59,0,4.78,1.3,4.78,4.18v7.44Zm-2.46-4.73h-3.19c-1.5,0-1.89.4-1.89,1.52s.53,1.52,1.92,1.52c1.76,0,3.17-.86,3.17-2.4v-.64Z"/>
          <path class="cls-3" d="m213,716.59c0,3.81-1.87,5.83-5.74,5.83s-5.72-2.02-5.72-5.83v-.18c0-3.81,1.87-5.83,5.72-5.83s5.74,2.02,5.74,5.83v.18Zm-2.62-.26c0-1.5-.29-2.6-1.1-3.21-.48-.35-1.12-.55-2.02-.55s-1.54.2-2,.55c-.81.62-1.12,1.72-1.12,3.21v.35c0,1.5.31,2.6,1.12,3.21.46.35,1.12.53,2,.53s1.54-.18,2.02-.53c.81-.62,1.1-1.72,1.1-3.21v-.35Z"/>
          <path class="cls-3" d="m218.28,721.06l-.09.02c.04.48.09,1.06.09,1.61v3.67h-2.55v-15.56h2.2l.18,1.23.09.02c.81-.97,2.05-1.47,3.72-1.47,3.43,0,5.21,2.02,5.21,5.83v.18c0,3.81-1.78,5.83-5.21,5.83-1.61,0-2.82-.46-3.63-1.36Zm5.15-1.17c.79-.62,1.1-1.72,1.1-3.21v-.35c0-1.5-.31-2.6-1.1-3.21-.48-.35-1.12-.55-2.02-.55s-1.54.2-2.02.55c-.81.62-1.1,1.72-1.1,3.21v.35c0,1.5.29,2.6,1.1,3.21.48.35,1.12.53,2.02.53s1.54-.18,2.02-.53Z"/>
          <path class="cls-3" d="m240.75,716.59c0,3.81-1.87,5.83-5.74,5.83s-5.72-2.02-5.72-5.83v-.18c0-3.81,1.87-5.83,5.72-5.83s5.74,2.02,5.74,5.83v.18Zm-2.62-.26c0-1.5-.29-2.6-1.1-3.21-.48-.35-1.12-.55-2.02-.55s-1.54.2-2,.55c-.81.62-1.12,1.72-1.12,3.21v.35c0,1.5.31,2.6,1.12,3.21.46.35,1.12.53,2,.53s1.54-.18,2.02-.53c.81-.62,1.1-1.72,1.1-3.21v-.35Z"/>
          <path class="cls-3" d="m250.36,713.16c-.31-.02-.79-.04-1.12-.04-2.57,0-3.21,1.01-3.21,2.84v6.25h-2.55v-11.4h2.27l.22,1.8h.07c.53-1.1,1.36-1.91,3.28-1.89.37,0,.81.04,1.06.09v2.35Z"/>
          <path class="cls-3" d="m253.42,718.88v-6.16h-1.98v-1.91h2.09l.13-3.32h2.27v3.32h3.48v1.91h-3.45v5.79c0,1.5.46,1.85,2.02,1.85.48,0,1.1-.04,1.45-.09v1.85c-.42.13-1.23.24-2,.24-2.95,0-4-.88-4-3.48Z"/>
          <path class="cls-3" d="m261.75,710.8h2.55v6.75c0,2.09.57,2.71,2.44,2.71,2.13,0,2.62-1.1,2.62-2.9v-6.56h2.55v11.4h-2.29l-.2-1.47h-.07c-.44.79-1.28,1.69-3.17,1.69-3.21,0-4.44-1.32-4.44-4.6v-7.02Z"/>
          <path class="cls-3" d="m285.49,722.2h-2.55v-6.8c0-2.07-.57-2.66-2.51-2.66-2.11,0-2.66.97-2.66,2.84v6.62h-2.55v-11.4h2.27l.22,1.52h.07c.44-.86,1.36-1.74,3.59-1.74,3.21,0,4.14,1.5,4.14,4.53v7.08Z"/>
          <path class="cls-3" d="m291.37,709.02h-2.64v-2.64h2.64v2.64Zm-.04,13.18h-2.55v-11.4h2.55v11.4Z"/>
          <path class="cls-3" d="m294.12,716.59v-.18c0-3.81,1.78-5.83,5.24-5.83,1.58,0,2.79.46,3.61,1.39l.09-.04c-.04-.51-.09-1.06-.09-1.63v-4.16h2.55v16.06h-2.2l-.18-1.25-.09-.02c-.81.99-2.05,1.5-3.7,1.5-3.45,0-5.24-2.02-5.24-5.83Zm7.75,3.3c.81-.62,1.1-1.72,1.1-3.21v-.35c0-1.5-.29-2.6-1.1-3.21-.48-.35-1.12-.55-2.02-.55s-1.54.2-2,.55c-.81.62-1.12,1.72-1.12,3.21v.35c0,1.5.31,2.6,1.12,3.21.46.35,1.12.53,2,.53s1.54-.18,2.02-.53Z"/>
          <path class="cls-3" d="m318.14,722.2h-2.22l-.18-1.41h-.07c-.53.73-1.52,1.58-3.7,1.58-2.51,0-3.81-1.06-3.81-3.37s1.17-3.32,4.05-3.32h3.43v-.79c0-1.65-.57-2.22-2.68-2.22-1.28,0-2.75.22-3.61.44l-.37-1.89c.92-.33,2.57-.64,4.38-.64,3.59,0,4.78,1.3,4.78,4.18v7.44Zm-2.46-4.73h-3.19c-1.5,0-1.89.4-1.89,1.52s.53,1.52,1.92,1.52c1.76,0,3.17-.86,3.17-2.4v-.64Z"/>
          <path class="cls-3" d="m320.8,716.59v-.18c0-3.81,1.78-5.83,5.24-5.83,1.58,0,2.79.46,3.61,1.39l.09-.04c-.04-.51-.09-1.06-.09-1.63v-4.16h2.55v16.06h-2.2l-.18-1.25-.09-.02c-.81.99-2.05,1.5-3.7,1.5-3.45,0-5.24-2.02-5.24-5.83Zm7.75,3.3c.81-.62,1.1-1.72,1.1-3.21v-.35c0-1.5-.29-2.6-1.1-3.21-.48-.35-1.12-.55-2.02-.55s-1.54.2-2,.55c-.81.62-1.12,1.72-1.12,3.21v.35c0,1.5.31,2.6,1.12,3.21.46.35,1.12.53,2,.53s1.54-.18,2.02-.53Z"/>
          <path class="cls-3" d="m337.5,717.12c.09,1.23.44,2.07,1.1,2.57.64.53,1.61.73,2.95.73s2.53-.22,3.39-.51l.35,1.76c-.84.37-2.35.75-4.09.75-4.18,0-6.25-1.78-6.25-5.98v-.18c0-3.63,1.91-5.68,5.61-5.68s5.24,1.94,5.24,5.06v1.47h-8.29Zm.02-1.78h5.85v-.2c0-1.01-.29-1.74-.9-2.16-.46-.31-1.08-.46-1.92-.46-.88,0-1.5.15-1.96.46-.7.46-.99,1.23-1.08,2.35Z"/>
          <path class="cls-3" d="m173.3,743.59v-.18c0-3.81,1.78-5.83,5.24-5.83,1.58,0,2.79.46,3.61,1.39l.09-.04c-.04-.51-.09-1.06-.09-1.63v-4.16h2.55v16.06h-2.2l-.18-1.25-.09-.02c-.81.99-2.05,1.5-3.7,1.5-3.45,0-5.24-2.02-5.24-5.83Zm7.75,3.3c.81-.62,1.1-1.72,1.1-3.21v-.35c0-1.5-.29-2.6-1.1-3.21-.48-.35-1.12-.55-2.02-.55s-1.54.2-2,.55c-.81.62-1.12,1.72-1.12,3.21v.35c0,1.5.31,2.6,1.12,3.21.46.35,1.12.53,2,.53s1.54-.18,2.02-.53Z"/>
          <path class="cls-3" d="m190,744.12c.09,1.23.44,2.07,1.1,2.57.64.53,1.61.73,2.95.73s2.53-.22,3.39-.51l.35,1.76c-.84.37-2.35.75-4.09.75-4.18,0-6.25-1.78-6.25-5.98v-.18c0-3.63,1.91-5.68,5.61-5.68s5.24,1.94,5.24,5.06v1.47h-8.29Zm.02-1.78h5.85v-.2c0-1.01-.29-1.74-.9-2.16-.46-.31-1.08-.46-1.92-.46-.88,0-1.5.15-1.96.46-.7.46-.99,1.23-1.08,2.35Z"/>
          <path class="cls-3" d="m219.86,749.2h-2.77l-1.5-3.94h-6.54l-1.5,3.94h-2.64l6.12-15.4h2.73l6.09,15.4Zm-9.97-6.12h4.86l-1.36-3.63c-.4-1.01-.73-2.07-1.01-3.12h-.09c-.29,1.06-.62,2.09-.99,3.1l-1.41,3.65Z"/>
          <path class="cls-3" d="m239.35,749.2h-2.55v-6.84c0-2.02-.57-2.62-2.38-2.62-1.96,0-2.51.97-2.51,2.82v6.65h-2.55v-6.84c0-2.02-.57-2.62-2.38-2.62-1.96,0-2.51.97-2.51,2.82v6.65h-2.55v-11.4h2.27l.22,1.52h.07c.44-.86,1.36-1.74,3.46-1.74,1.96,0,3.1.59,3.65,1.8h.09c.42-.86,1.36-1.8,3.54-1.8,3.28,0,4.14,1.5,4.14,4.51v7.11Z"/>
          <path class="cls-3" d="m245.13,748.06l-.09.02c.04.48.09,1.06.09,1.61v3.67h-2.55v-15.56h2.2l.18,1.23.09.02c.81-.97,2.05-1.47,3.72-1.47,3.43,0,5.21,2.02,5.21,5.83v.18c0,3.81-1.78,5.83-5.21,5.83-1.61,0-2.82-.46-3.63-1.36Zm5.15-1.17c.79-.62,1.1-1.72,1.1-3.21v-.35c0-1.5-.31-2.6-1.1-3.21-.48-.35-1.12-.55-2.02-.55s-1.54.2-2.02.55c-.81.62-1.1,1.72-1.1,3.21v.35c0,1.5.29,2.6,1.1,3.21.48.35,1.12.53,2.02.53s1.54-.18,2.02-.53Z"/>
          <path class="cls-3" d="m259.3,746.03c0,1.01.24,1.21,1.17,1.21.31,0,.64-.02.81-.04v1.92c-.33.11-.9.2-1.52.2-2.2,0-3.01-.73-3.01-2.86v-13.31h2.55v12.89Z"/>
          <path class="cls-3" d="m266.12,736.02h-2.64v-2.64h2.64v2.64Zm-.04,13.18h-2.55v-11.4h2.55v11.4Z"/>
          <path class="cls-3" d="m278.75,749.2h-2.22l-.18-1.41h-.07c-.53.73-1.52,1.58-3.7,1.58-2.51,0-3.81-1.06-3.81-3.37s1.17-3.32,4.05-3.32h3.43v-.79c0-1.65-.57-2.22-2.68-2.22-1.28,0-2.75.22-3.61.44l-.37-1.89c.92-.33,2.57-.64,4.38-.64,3.59,0,4.78,1.3,4.78,4.18v7.44Zm-2.46-4.73h-3.19c-1.5,0-1.89.4-1.89,1.52s.53,1.52,1.92,1.52c1.76,0,3.17-.86,3.17-2.4v-.64Z"/>
          <path class="cls-3" d="m285.33,749.24c-.51-.11-.92-.26-1.32-.46-1.76-.86-2.6-2.62-2.6-5.19v-.18c0-2.57.81-4.36,2.57-5.21.84-.42,1.89-.62,3.17-.62,1.5,0,2.9.29,3.67.55l-.4,1.91c-.73-.18-1.78-.31-2.75-.31-1.06,0-1.85.13-2.42.46-.9.55-1.25,1.52-1.25,3.1v.4c0,1.56.37,2.55,1.28,3.08.57.35,1.36.48,2.44.48.99,0,2.05-.15,2.79-.33l.37,1.89c-.77.29-2.18.59-3.7.59-.18,0-.35,0-.53-.02l-.04.75c1.36.02,2.11.4,2.11,1.54,0,1.34-.81,1.87-2.51,1.87-.77,0-1.43-.13-1.74-.26l.18-1.1c.31.09.77.15,1.3.15.81,0,1.06-.2,1.06-.66,0-.57-.44-.7-1.96-.7l.26-1.74Z"/>
          <path class="cls-3" d="m302.58,749.2h-2.22l-.18-1.41h-.07c-.53.73-1.52,1.58-3.7,1.58-2.51,0-3.81-1.06-3.81-3.37s1.17-3.32,4.05-3.32h3.43v-.79c0-1.65-.57-2.22-2.68-2.22-1.28,0-2.75.22-3.61.44l-.37-1.89c.92-.33,2.57-.64,4.38-.64,3.59,0,4.78,1.3,4.78,4.18v7.44Zm-4.64-13.33l-.44-.24c-.42-.22-.79-.44-1.21-.44-.66,0-.73.42-.79,1.08h-1.8c.11-1.89.66-2.95,2.33-2.95.75,0,1.32.24,1.83.53l.44.22c.44.24.81.44,1.23.44.66,0,.7-.42.79-1.06h1.78c-.09,1.89-.64,2.95-2.33,2.95-.75,0-1.32-.26-1.83-.53Zm2.18,8.6h-3.19c-1.5,0-1.89.4-1.89,1.52s.53,1.52,1.92,1.52c1.76,0,3.17-.86,3.17-2.4v-.64Z"/>
          <path class="cls-3" d="m316.7,743.59c0,3.81-1.87,5.83-5.74,5.83s-5.72-2.02-5.72-5.83v-.18c0-3.81,1.87-5.83,5.72-5.83s5.74,2.02,5.74,5.83v.18Zm-2.62-.26c0-1.5-.29-2.6-1.1-3.21-.48-.35-1.12-.55-2.02-.55s-1.54.2-2,.55c-.81.62-1.12,1.72-1.12,3.21v.35c0,1.5.31,2.6,1.12,3.21.46.35,1.12.53,2,.53s1.54-.18,2.02-.53c.81-.62,1.1-1.72,1.1-3.21v-.35Z"/>
        </g>
        <g>
          <path class="cls-3" d="m394.68,725.76c-.18-.42-.29-1.03-.29-1.67,0-2.79,2.22-3.85,5.35-3.85,4.09,0,5.57,1.58,5.57,4.16,0,3.94-4.27,7.13-7.13,9.22l.04.04h7.28v2.2h-11.16v-2.02c3.9-2.9,8.25-6.21,8.25-9.33,0-1.06-.51-1.61-1.28-1.91-.4-.15-.92-.24-1.56-.24s-1.23.07-1.61.24c-.66.26-1.17.73-1.17,1.87,0,.46.04.88.13,1.3h-2.44Z"/>
          <path class="cls-3" d="m408.37,737.99l.81-2.13h-.99v-2.64h2.71v2.4l-1.28,2.38h-1.25Z"/>
          <path class="cls-3" d="m413.27,735.3l.48-1.98c.97.33,2.66.59,4.27.59,2.57,0,3.72-.59,3.72-2.82s-.84-2.73-3.76-2.73h-4.12l.31-7.92h9.55v2.18h-7.19l-.15,3.81c.55-.07,1.52-.11,2.33-.11,3.85,0,5.72,1.03,5.72,4.69,0,3.87-2.33,5.06-6.16,5.06-2.07,0-3.92-.31-5-.77Z"/>
          <path class="cls-3" d="m426.61,724.28c0-2.64,1.36-4.03,3.65-4.03s3.67,1.39,3.67,4.03v.18c0,2.66-1.36,4.03-3.67,4.03s-3.65-1.36-3.65-4.03v-.18Zm5.24-.07c0-.99-.13-1.69-.64-2.09-.24-.15-.53-.24-.95-.24-.4,0-.68.09-.92.24-.51.4-.64,1.1-.64,2.09v.31c0,.99.13,1.72.64,2.09.24.18.53.26.92.26.42,0,.7-.09.95-.26.51-.37.64-1.1.64-2.09v-.31Zm6.56-3.76h2.24l-7.75,15.4h-2.24l7.75-15.4Zm-1.19,11.4c0-2.66,1.36-4.03,3.67-4.03s3.67,1.36,3.67,4.03v.18c0,2.64-1.36,4.03-3.67,4.03s-3.67-1.39-3.67-4.03v-.18Zm5.26-.07c0-.99-.13-1.72-.66-2.09-.22-.18-.51-.26-.92-.26-.4,0-.7.09-.92.26-.53.37-.66,1.1-.66,2.09v.31c0,.99.13,1.69.66,2.09.22.15.53.24.92.24.42,0,.7-.09.92-.24.53-.4.66-1.1.66-2.09v-.31Z"/>
        </g>
      </g>
    </g>
  </g>
</svg>