<?xml version="1.0" encoding="UTF-8"?>
<svg id="Camada_2" data-name="Camada 2" xmlns="http://www.w3.org/2000/svg" viewBox="0 0 509 599">
  <defs>
    <style>
      .cls-1 {
        fill: none;
        stroke: #950048;
        stroke-miterlimit: 10;
        stroke-width: 3px;
      }

      .cls-2 {
        fill: #fff;
      }

      .cls-3 {
        fill: #3fa9f5;
      }

      .cls-4 {
        fill: #d30058;
      }
    </style>
  </defs>
  <g id="Camada_1-2" data-name="Camada 1">
    <g>
      <rect class="cls-1" x="1.5" y="1.5" width="506" height="596" rx="37.67" ry="37.67"/>
      <rect class="cls-4" x="145.5" y="24" width="218" height="218" rx="43.11" ry="43.11"/>
      <g>
        <path class="cls-2" d="m211.43,119.37c0-3.9,1.22-6.5,3.7-7.82,1.32-.73,3.05-1.05,5.12-1.05,2.25,0,4.4.4,5.7.92l-.72,3c-1.22-.35-2.67-.53-4.2-.53s-2.75.2-3.62.73c-1.25.77-1.82,2.25-1.82,4.65v.45c0,2.37.57,3.85,1.82,4.65.88.53,2.07.72,3.65.72s3.02-.2,4.27-.52l.7,3c-1.27.5-3.47.92-5.72.92-2.1,0-3.82-.33-5.17-1.07-2.45-1.33-3.7-3.92-3.7-7.8v-.25Z"/>
        <path class="cls-2" d="m228.75,110.74h13.27v3.27h-9.25v3.6h8.22v3.25h-8.22v4.1h9.47v3.27h-13.5v-17.5Z"/>
        <path class="cls-2" d="m260.77,128.24h-4.77l-4.85-8.2c-.88-1.57-1.58-2.85-2.27-4.55h-.1c.17,1.88.23,3.42.23,5.27v7.47h-3.9v-17.5h4.75l4.85,8.2c.88,1.58,1.57,2.85,2.27,4.55h.08c-.17-1.87-.2-3.42-.2-5.27v-7.47h3.92v17.5Z"/>
        <path class="cls-2" d="m268.6,120.77c-3.07-.65-4.85-1.8-4.85-5.25s1.97-5.02,6.95-5.02c2.55,0,4.8.37,6.3.85l-.7,2.97c-1.25-.38-3.05-.6-5.17-.6-2.65,0-3.42.38-3.42,1.75s.8,1.65,2.77,2.05l2.47.53c3.27.67,4.75,1.7,4.75,5.07,0,4.1-2.25,5.37-7.22,5.37-2.87,0-5.22-.42-6.72-.97l.65-2.95c1.75.5,4.02.7,5.85.7,2.42,0,3.47-.42,3.47-1.9,0-1.35-.77-1.7-2.65-2.1l-2.47-.5Z"/>
        <path class="cls-2" d="m297.57,119.37v.25c0,6-3,8.87-8.77,8.87s-8.77-2.87-8.77-8.87v-.25c0-6,3-8.87,8.77-8.87s8.77,2.87,8.77,8.87Zm-5.95,5.2c1.32-.85,1.8-2.52,1.8-4.85v-.45c0-2.32-.47-4-1.8-4.85-.7-.45-1.62-.7-2.83-.7s-2.12.25-2.82.7c-1.32.85-1.8,2.52-1.8,4.85v.45c0,2.32.47,4,1.8,4.85.7.45,1.62.7,2.82.7s2.12-.25,2.83-.7Z"/>
        <path class="cls-2" d="m234.17,145.24c2.15,0,3.3-.55,3.3-2.9s-1.17-3-4.05-3c-1.67,0-3.2.23-4.2.53l-.38-1.65c1-.4,2.8-.72,4.77-.72,4.1,0,6.02,1.37,6.02,4.65,0,2.4-1.03,3.5-2.4,3.82v.05c1.55.35,2.72,1.42,2.72,4.1,0,3.95-2.6,5.37-6.42,5.37-2.15,0-4.22-.45-4.97-.75l.37-1.65c.83.28,2.72.55,4.37.55,2.9,0,4.42-.82,4.42-3.55,0-2.4-1.12-3.05-3.62-3.05h-2.25v-1.8h2.3Z"/>
        <path class="cls-2" d="m257.42,146.32v.35c0,5.87-2.42,8.82-7.17,8.82s-7.17-2.95-7.17-8.82v-.35c0-5.87,2.42-8.82,7.17-8.82s7.17,2.95,7.17,8.82Zm-2.27.58v-.8c0-4.4-1.38-6.75-4.9-6.75s-4.9,2.35-4.9,6.75v.8c0,4.4,1.38,6.75,4.9,6.75s4.9-2.35,4.9-6.75Z"/>
        <path class="cls-2" d="m260.52,142.04c0-2.97,1.42-4.5,4-4.5s4,1.52,4,4.5v.12c0,2.97-1.42,4.5-4,4.5s-4-1.53-4-4.5v-.12Zm6.07-.08c0-1.25-.2-2.2-.88-2.67-.3-.2-.67-.3-1.2-.3s-.9.1-1.2.3c-.67.48-.88,1.42-.88,2.67v.27c0,1.25.2,2.2.88,2.67.3.2.67.3,1.2.3s.9-.1,1.2-.3c.67-.47.88-1.42.88-2.67v-.27Zm7.25-4.22h1.9l-8.95,17.5h-1.9l8.95-17.5Zm-1.97,13.07c0-2.97,1.42-4.5,4-4.5s4,1.52,4,4.5v.12c0,2.97-1.42,4.5-4,4.5s-4-1.52-4-4.5v-.12Zm6.07-.08c0-1.25-.2-2.2-.87-2.67-.3-.2-.67-.3-1.2-.3s-.9.1-1.2.3c-.67.47-.88,1.42-.88,2.67v.28c0,1.25.2,2.2.88,2.67.3.2.67.3,1.2.3s.9-.1,1.2-.3c.67-.47.87-1.42.87-2.67v-.28Z"/>
      </g>
      <rect class="cls-3" x="43.5" y="265" width="319" height="74" rx="18.83" ry="18.83"/>
      <rect class="cls-4" x="375.5" y="265" width="90" height="74" rx="18.83" ry="18.83"/>
      <g>
        <path class="cls-2" d="m73.57,308.86h-3.19l-5.57-9.11c-.62-1.08-1.14-2.02-1.67-3.17h-.07c.11,1.3.15,2.49.15,3.76v8.52h-2.64v-15.4h3.19l5.57,9.11c.62,1.08,1.14,2.02,1.65,3.17h.07c-.11-1.3-.11-2.49-.11-3.76v-8.51h2.62v15.4Z"/>
        <path class="cls-2" d="m88,303.24c0,3.81-1.87,5.83-5.74,5.83s-5.72-2.02-5.72-5.83v-.18c0-3.81,1.87-5.83,5.72-5.83s5.74,2.02,5.74,5.83v.18Zm-2.62-.26c0-1.5-.29-2.6-1.1-3.21-.48-.35-1.12-.55-2.02-.55s-1.54.2-2,.55c-.81.62-1.12,1.72-1.12,3.21v.35c0,1.5.31,2.6,1.12,3.21.46.35,1.12.53,2,.53s1.54-.18,2.02-.53c.81-.62,1.1-1.72,1.1-3.21v-.35Z"/>
        <path class="cls-2" d="m91.54,305.53v-6.16h-1.98v-1.92h2.09l.13-3.32h2.27v3.32h3.48v1.92h-3.45v5.79c0,1.5.46,1.85,2.02,1.85.48,0,1.1-.04,1.45-.09v1.85c-.42.13-1.23.24-2,.24-2.95,0-4-.88-4-3.48Z"/>
        <path class="cls-2" d="m109.23,308.86h-2.22l-.18-1.41h-.07c-.53.73-1.52,1.58-3.7,1.58-2.51,0-3.81-1.06-3.81-3.37s1.17-3.32,4.05-3.32h3.43v-.79c0-1.65-.57-2.22-2.68-2.22-1.28,0-2.75.22-3.61.44l-.37-1.89c.92-.33,2.57-.64,4.38-.64,3.59,0,4.78,1.3,4.78,4.18v7.44Zm-2.46-4.73h-3.19c-1.5,0-1.89.4-1.89,1.52s.53,1.52,1.92,1.52c1.76,0,3.17-.86,3.17-2.4v-.64Z"/>
        <path class="cls-2" d="m117.87,293.45h6.8c4.22,0,5.7,1.69,5.7,4.91s-1.47,5.04-5.7,5.04h-4.12v5.46h-2.68v-15.4Zm2.68,2.2v5.59h3.9c2.42,0,3.19-.77,3.19-2.79s-.75-2.79-3.19-2.79h-3.9Z"/>
        <path class="cls-2" d="m139.87,299.81c-.31-.02-.79-.04-1.12-.04-2.57,0-3.21,1.01-3.21,2.84v6.25h-2.55v-11.4h2.27l.22,1.8h.07c.53-1.1,1.36-1.91,3.28-1.89.37,0,.81.04,1.06.09v2.35Z"/>
        <path class="cls-2" d="m152.72,303.24c0,3.81-1.87,5.83-5.74,5.83s-5.72-2.02-5.72-5.83v-.18c0-3.81,1.87-5.83,5.72-5.83s5.74,2.02,5.74,5.83v.18Zm-2.62-.26c0-1.5-.29-2.6-1.1-3.21-.48-.35-1.12-.55-2.02-.55s-1.54.2-2,.55c-.81.62-1.12,1.72-1.12,3.21v.35c0,1.5.31,2.6,1.12,3.21.46.35,1.12.53,2,.53s1.54-.18,2.02-.53c.81-.62,1.1-1.72,1.1-3.21v-.35Z"/>
        <path class="cls-2" d="m156.31,299.37h-2.02v-1.92h2.02v-1.17c0-2.6,1.01-3.63,3.87-3.63.77,0,1.67.11,2.09.22v1.83c-.33-.07-1.01-.11-1.5-.11-1.61,0-2,.46-2,1.78v1.08h3.19v1.92h-3.12v9.48h-2.53v-9.48Z"/>
        <path class="cls-2" d="m165.81,303.77c.09,1.23.44,2.07,1.1,2.57.64.53,1.61.73,2.95.73s2.53-.22,3.39-.51l.35,1.76c-.84.37-2.35.75-4.09.75-4.18,0-6.25-1.78-6.25-5.99v-.18c0-3.63,1.91-5.68,5.61-5.68s5.24,1.94,5.24,5.06v1.47h-8.29Zm.02-1.78h5.85v-.2c0-1.01-.29-1.74-.9-2.16-.46-.31-1.08-.46-1.92-.46-.88,0-1.5.15-1.96.46-.7.46-.99,1.23-1.08,2.35Z"/>
        <path class="cls-2" d="m176.13,308.5l.37-1.78c1.03.29,2.38.44,3.65.44,1.94,0,2.46-.33,2.46-1.45s-.55-1.23-1.69-1.47l-1.5-.33c-2.05-.42-3.32-1.01-3.32-3.34s1.25-3.32,4.58-3.32c1.61,0,3.15.24,3.96.51l-.38,1.76c-.84-.2-1.98-.35-3.34-.35-1.8,0-2.35.26-2.35,1.34s.64,1.25,1.87,1.52l1.5.33c2.13.44,3.15,1.08,3.15,3.3,0,2.53-1.3,3.43-4.64,3.43-1.74,0-3.34-.22-4.31-.57Z"/>
        <path class="cls-2" d="m186.93,308.5l.37-1.78c1.03.29,2.38.44,3.65.44,1.94,0,2.46-.33,2.46-1.45s-.55-1.23-1.69-1.47l-1.5-.33c-2.05-.42-3.32-1.01-3.32-3.34s1.25-3.32,4.58-3.32c1.61,0,3.15.24,3.96.51l-.37,1.76c-.84-.2-1.98-.35-3.34-.35-1.8,0-2.35.26-2.35,1.34s.64,1.25,1.87,1.52l1.5.33c2.13.44,3.15,1.08,3.15,3.3,0,2.53-1.3,3.43-4.64,3.43-1.74,0-3.34-.22-4.31-.57Z"/>
        <path class="cls-2" d="m209.37,303.24c0,3.81-1.87,5.83-5.74,5.83s-5.72-2.02-5.72-5.83v-.18c0-3.81,1.87-5.83,5.72-5.83s5.74,2.02,5.74,5.83v.18Zm-2.62-.26c0-1.5-.29-2.6-1.1-3.21-.48-.35-1.12-.55-2.02-.55s-1.54.2-2,.55c-.81.62-1.12,1.72-1.12,3.21v.35c0,1.5.31,2.6,1.12,3.21.46.35,1.12.53,2,.53s1.54-.18,2.02-.53c.81-.62,1.1-1.72,1.1-3.21v-.35Z"/>
        <path class="cls-2" d="m218.99,299.81c-.31-.02-.79-.04-1.12-.04-2.57,0-3.21,1.01-3.21,2.84v6.25h-2.55v-11.4h2.27l.22,1.8h.07c.53-1.1,1.36-1.91,3.28-1.89.37,0,.81.04,1.06.09v2.35Z"/>
        <path class="cls-2" d="m222.92,303.77c.09,1.23.44,2.07,1.1,2.57.64.53,1.61.73,2.95.73s2.53-.22,3.39-.51l.35,1.76c-.84.37-2.35.75-4.09.75-4.18,0-6.25-1.78-6.25-5.99v-.18c0-3.63,1.91-5.68,5.61-5.68s5.24,1.94,5.24,5.06v1.47h-8.29Zm.02-1.78h5.85v-.2c0-1.01-.29-1.74-.9-2.16-.46-.31-1.08-.46-1.91-.46-.88,0-1.5.15-1.96.46-.7.46-.99,1.23-1.08,2.35Z"/>
        <path class="cls-2" d="m233.24,308.5l.37-1.78c1.03.29,2.38.44,3.65.44,1.94,0,2.46-.33,2.46-1.45s-.55-1.23-1.69-1.47l-1.5-.33c-2.05-.42-3.32-1.01-3.32-3.34s1.25-3.32,4.58-3.32c1.61,0,3.15.24,3.96.51l-.38,1.76c-.84-.2-1.98-.35-3.34-.35-1.8,0-2.35.26-2.35,1.34s.64,1.25,1.87,1.52l1.5.33c2.13.44,3.15,1.08,3.15,3.3,0,2.53-1.3,3.43-4.64,3.43-1.74,0-3.34-.22-4.31-.57Z"/>
        <path class="cls-2" d="m263.51,301.26c0,5.66-2.27,7.59-7.81,7.59h-5.46v-15.4h5.46c5.54,0,7.81,1.94,7.81,7.59v.22Zm-2.75-.31c0-4.05-1.21-5.24-5.17-5.24h-2.64v10.87h2.64c3.96,0,5.17-1.19,5.17-5.24v-.4Z"/>
        <path class="cls-2" d="m277.33,303.24c0,3.81-1.87,5.83-5.74,5.83s-5.72-2.02-5.72-5.83v-.18c0-3.81,1.87-5.83,5.72-5.83s5.74,2.02,5.74,5.83v.18Zm-2.62-.26c0-1.5-.29-2.6-1.1-3.21-.48-.35-1.12-.55-2.02-.55s-1.54.2-2,.55c-.81.62-1.12,1.72-1.12,3.21v.35c0,1.5.31,2.6,1.12,3.21.46.35,1.12.53,2,.53s1.54-.18,2.02-.53c.81-.62,1.1-1.72,1.1-3.21v-.35Z"/>
        <path class="cls-2" d="m279.97,297.46h2.55v6.76c0,2.09.57,2.71,2.44,2.71,2.13,0,2.62-1.1,2.62-2.9v-6.56h2.55v11.4h-2.29l-.2-1.47h-.07c-.44.79-1.28,1.69-3.17,1.69-3.21,0-4.44-1.32-4.44-4.6v-7.02Z"/>
        <path class="cls-2" d="m294.29,305.53v-6.16h-1.98v-1.92h2.09l.13-3.32h2.27v3.32h3.48v1.92h-3.45v5.79c0,1.5.46,1.85,2.02,1.85.48,0,1.1-.04,1.45-.09v1.85c-.42.13-1.23.24-2,.24-2.95,0-4-.88-4-3.48Z"/>
        <path class="cls-2" d="m313.5,303.24c0,3.81-1.87,5.83-5.74,5.83s-5.72-2.02-5.72-5.83v-.18c0-3.81,1.87-5.83,5.72-5.83s5.74,2.02,5.74,5.83v.18Zm-2.62-.26c0-1.5-.29-2.6-1.1-3.21-.48-.35-1.12-.55-2.02-.55s-1.54.2-2,.55c-.81.62-1.12,1.72-1.12,3.21v.35c0,1.5.31,2.6,1.12,3.21.46.35,1.12.53,2,.53s1.54-.18,2.02-.53c.81-.62,1.1-1.72,1.1-3.21v-.35Z"/>
        <path class="cls-2" d="m323.11,299.81c-.31-.02-.79-.04-1.12-.04-2.57,0-3.21,1.01-3.21,2.84v6.25h-2.55v-11.4h2.27l.22,1.8h.07c.53-1.1,1.36-1.91,3.28-1.89.37,0,.81.04,1.06.09v2.35Z"/>
        <path class="cls-2" d="m327.05,303.77c.09,1.23.44,2.07,1.1,2.57.64.53,1.61.73,2.95.73s2.53-.22,3.39-.51l.35,1.76c-.84.37-2.35.75-4.09.75-4.18,0-6.25-1.78-6.25-5.99v-.18c0-3.63,1.91-5.68,5.61-5.68s5.24,1.94,5.24,5.06v1.47h-8.29Zm.02-1.78h5.85v-.2c0-1.01-.29-1.74-.9-2.16-.46-.31-1.08-.46-1.91-.46-.88,0-1.5.15-1.96.46-.7.46-.99,1.23-1.08,2.35Z"/>
        <path class="cls-2" d="m337.37,308.5l.37-1.78c1.03.29,2.38.44,3.65.44,1.94,0,2.46-.33,2.46-1.45s-.55-1.23-1.69-1.47l-1.5-.33c-2.05-.42-3.32-1.01-3.32-3.34s1.25-3.32,4.58-3.32c1.61,0,3.15.24,3.96.51l-.37,1.76c-.84-.2-1.98-.35-3.34-.35-1.8,0-2.35.26-2.35,1.34s.64,1.25,1.87,1.52l1.5.33c2.13.44,3.15,1.08,3.15,3.3,0,2.53-1.3,3.43-4.64,3.43-1.74,0-3.34-.22-4.31-.57Z"/>
      </g>
      <g>
        <path class="cls-2" d="m403.21,298.22h-2.71v-2.09l3.17-.18h2.2v15.4h-2.66v-13.14Z"/>
        <path class="cls-2" d="m409.06,310.8l.48-1.98c.97.33,2.66.59,4.27.59,2.57,0,3.72-.59,3.72-2.82s-.84-2.73-3.76-2.73h-4.12l.31-7.92h9.55v2.18h-7.19l-.15,3.81c.55-.07,1.52-.11,2.33-.11,3.85,0,5.72,1.03,5.72,4.69,0,3.87-2.33,5.06-6.16,5.06-2.07,0-3.92-.31-5-.77Z"/>
        <path class="cls-2" d="m422.39,299.78c0-2.64,1.36-4.03,3.65-4.03s3.67,1.39,3.67,4.03v.18c0,2.66-1.36,4.03-3.67,4.03s-3.65-1.36-3.65-4.03v-.18Zm5.24-.07c0-.99-.13-1.69-.64-2.09-.24-.15-.53-.24-.95-.24-.4,0-.68.09-.92.24-.51.4-.64,1.1-.64,2.09v.31c0,.99.13,1.72.64,2.09.24.18.53.26.92.26.42,0,.7-.09.95-.26.51-.37.64-1.1.64-2.09v-.31Zm6.56-3.76h2.24l-7.75,15.4h-2.24l7.75-15.4Zm-1.19,11.4c0-2.66,1.36-4.03,3.67-4.03s3.67,1.36,3.67,4.03v.18c0,2.64-1.36,4.03-3.67,4.03s-3.67-1.39-3.67-4.03v-.18Zm5.26-.07c0-.99-.13-1.72-.66-2.09-.22-.18-.51-.26-.92-.26-.4,0-.7.09-.92.26-.53.37-.66,1.1-.66,2.09v.31c0,.99.13,1.69.66,2.09.22.15.53.24.92.24.42,0,.7-.09.92-.24.53-.4.66-1.1.66-2.09v-.31Z"/>
      </g>
      <rect class="cls-3" x="43.5" y="359" width="319" height="74" rx="18.83" ry="18.83"/>
      <rect class="cls-4" x="375.5" y="359" width="90" height="74" rx="18.83" ry="18.83"/>
      <g>
        <path class="cls-2" d="m80.19,405.36h-3.19l-5.57-9.11c-.62-1.08-1.14-2.02-1.67-3.17h-.07c.11,1.3.15,2.49.15,3.76v8.52h-2.64v-15.4h3.19l5.57,9.11c.62,1.08,1.14,2.02,1.65,3.17h.07c-.11-1.3-.11-2.49-.11-3.76v-8.51h2.62v15.4Z"/>
        <path class="cls-2" d="m94.62,399.74c0,3.81-1.87,5.83-5.74,5.83s-5.72-2.02-5.72-5.83v-.18c0-3.81,1.87-5.83,5.72-5.83s5.74,2.02,5.74,5.83v.18Zm-2.62-.26c0-1.5-.29-2.6-1.1-3.21-.48-.35-1.12-.55-2.02-.55s-1.54.2-2,.55c-.81.62-1.12,1.72-1.12,3.21v.35c0,1.5.31,2.6,1.12,3.21.46.35,1.12.53,2,.53s1.54-.18,2.02-.53c.81-.62,1.1-1.72,1.1-3.21v-.35Z"/>
        <path class="cls-2" d="m98.16,402.03v-6.16h-1.98v-1.92h2.09l.13-3.32h2.27v3.32h3.48v1.92h-3.45v5.79c0,1.5.46,1.85,2.02,1.85.48,0,1.1-.04,1.45-.09v1.85c-.42.13-1.23.24-2,.24-2.95,0-4-.88-4-3.48Z"/>
        <path class="cls-2" d="m115.85,405.36h-2.22l-.18-1.41h-.07c-.53.73-1.52,1.58-3.7,1.58-2.51,0-3.81-1.06-3.81-3.37s1.17-3.32,4.05-3.32h3.43v-.79c0-1.65-.57-2.22-2.68-2.22-1.28,0-2.75.22-3.61.44l-.37-1.89c.92-.33,2.57-.64,4.38-.64,3.59,0,4.78,1.3,4.78,4.18v7.44Zm-2.46-4.73h-3.19c-1.5,0-1.89.4-1.89,1.52s.53,1.52,1.92,1.52c1.76,0,3.17-.86,3.17-2.4v-.64Z"/>
        <path class="cls-2" d="m124.49,389.95h6.8c4.22,0,5.7,1.69,5.7,4.91s-1.47,5.04-5.7,5.04h-4.11v5.46h-2.68v-15.4Zm2.68,2.2v5.59h3.89c2.42,0,3.19-.77,3.19-2.79s-.75-2.79-3.19-2.79h-3.89Z"/>
        <path class="cls-2" d="m146.49,396.31c-.31-.02-.79-.04-1.12-.04-2.57,0-3.21,1.01-3.21,2.84v6.25h-2.55v-11.4h2.27l.22,1.8h.07c.53-1.1,1.36-1.91,3.28-1.89.37,0,.81.04,1.06.09v2.35Z"/>
        <path class="cls-2" d="m159.34,399.74c0,3.81-1.87,5.83-5.74,5.83s-5.72-2.02-5.72-5.83v-.18c0-3.81,1.87-5.83,5.72-5.83s5.74,2.02,5.74,5.83v.18Zm-2.62-.26c0-1.5-.29-2.6-1.1-3.21-.48-.35-1.12-.55-2.02-.55s-1.54.2-2,.55c-.81.62-1.12,1.72-1.12,3.21v.35c0,1.5.31,2.6,1.12,3.21.46.35,1.12.53,2,.53s1.54-.18,2.02-.53c.81-.62,1.1-1.72,1.1-3.21v-.35Z"/>
        <path class="cls-2" d="m162.93,395.87h-2.02v-1.92h2.02v-1.17c0-2.6,1.01-3.63,3.87-3.63.77,0,1.67.11,2.09.22v1.83c-.33-.07-1.01-.11-1.5-.11-1.61,0-2,.46-2,1.78v1.08h3.19v1.92h-3.12v9.48h-2.53v-9.48Z"/>
        <path class="cls-2" d="m172.43,400.27c.09,1.23.44,2.07,1.1,2.57.64.53,1.61.73,2.95.73s2.53-.22,3.39-.51l.35,1.76c-.84.37-2.35.75-4.09.75-4.18,0-6.25-1.78-6.25-5.99v-.18c0-3.63,1.91-5.68,5.61-5.68s5.24,1.94,5.24,5.06v1.47h-8.29Zm.02-1.78h5.85v-.2c0-1.01-.29-1.74-.9-2.16-.46-.31-1.08-.46-1.92-.46-.88,0-1.5.15-1.96.46-.7.46-.99,1.23-1.08,2.35Z"/>
        <path class="cls-2" d="m182.75,405l.37-1.78c1.03.29,2.38.44,3.65.44,1.94,0,2.46-.33,2.46-1.45s-.55-1.23-1.69-1.47l-1.5-.33c-2.05-.42-3.32-1.01-3.32-3.34s1.25-3.32,4.58-3.32c1.61,0,3.15.24,3.96.51l-.38,1.76c-.84-.2-1.98-.35-3.34-.35-1.8,0-2.35.26-2.35,1.34s.64,1.25,1.87,1.52l1.5.33c2.13.44,3.15,1.08,3.15,3.3,0,2.53-1.3,3.43-4.64,3.43-1.74,0-3.34-.22-4.31-.57Z"/>
        <path class="cls-2" d="m193.55,405l.37-1.78c1.03.29,2.38.44,3.65.44,1.94,0,2.46-.33,2.46-1.45s-.55-1.23-1.69-1.47l-1.5-.33c-2.05-.42-3.32-1.01-3.32-3.34s1.25-3.32,4.58-3.32c1.61,0,3.15.24,3.96.51l-.37,1.76c-.84-.2-1.98-.35-3.34-.35-1.8,0-2.35.26-2.35,1.34s.64,1.25,1.87,1.52l1.5.33c2.13.44,3.15,1.08,3.15,3.3,0,2.53-1.3,3.43-4.64,3.43-1.74,0-3.34-.22-4.31-.57Z"/>
        <path class="cls-2" d="m215.99,399.74c0,3.81-1.87,5.83-5.74,5.83s-5.72-2.02-5.72-5.83v-.18c0-3.81,1.87-5.83,5.72-5.83s5.74,2.02,5.74,5.83v.18Zm-2.62-.26c0-1.5-.29-2.6-1.1-3.21-.48-.35-1.12-.55-2.02-.55s-1.54.2-2,.55c-.81.62-1.12,1.72-1.12,3.21v.35c0,1.5.31,2.6,1.12,3.21.46.35,1.12.53,2,.53s1.54-.18,2.02-.53c.81-.62,1.1-1.72,1.1-3.21v-.35Z"/>
        <path class="cls-2" d="m225.61,396.31c-.31-.02-.79-.04-1.12-.04-2.57,0-3.21,1.01-3.21,2.84v6.25h-2.55v-11.4h2.27l.22,1.8h.07c.53-1.1,1.36-1.91,3.28-1.89.37,0,.81.04,1.06.09v2.35Z"/>
        <path class="cls-2" d="m229.55,400.27c.09,1.23.44,2.07,1.1,2.57.64.53,1.61.73,2.95.73s2.53-.22,3.39-.51l.35,1.76c-.84.37-2.35.75-4.09.75-4.18,0-6.25-1.78-6.25-5.99v-.18c0-3.63,1.91-5.68,5.61-5.68s5.24,1.94,5.24,5.06v1.47h-8.29Zm.02-1.78h5.85v-.2c0-1.01-.29-1.74-.9-2.16-.46-.31-1.08-.46-1.91-.46-.88,0-1.5.15-1.96.46-.7.46-.99,1.23-1.08,2.35Z"/>
        <path class="cls-2" d="m239.86,405l.37-1.78c1.03.29,2.38.44,3.65.44,1.94,0,2.46-.33,2.46-1.45s-.55-1.23-1.69-1.47l-1.5-.33c-2.05-.42-3.32-1.01-3.32-3.34s1.25-3.32,4.58-3.32c1.61,0,3.15.24,3.96.51l-.38,1.76c-.84-.2-1.98-.35-3.34-.35-1.8,0-2.35.26-2.35,1.34s.64,1.25,1.87,1.52l1.5.33c2.13.44,3.15,1.08,3.15,3.3,0,2.53-1.3,3.43-4.64,3.43-1.74,0-3.34-.22-4.31-.57Z"/>
        <path class="cls-2" d="m266.22,402.47h-2.53l-3.15-6.8c-.37-.92-.75-1.91-1.08-2.9h-.09c.07,1.08.11,2.16.11,3.19v9.4h-2.62v-15.4h3.76l3.26,7.13c.42.97.81,1.94,1.14,2.95h.07c.31-1.01.7-2,1.12-2.95l3.26-7.13h3.67v15.4h-2.71v-9.4c0-1.06.02-2.13.09-3.21h-.09c-.31.99-.68,1.96-1.1,2.88l-3.12,6.84Z"/>
        <path class="cls-2" d="m278.67,400.27c.09,1.23.44,2.07,1.1,2.57.64.53,1.61.73,2.95.73s2.53-.22,3.39-.51l.35,1.76c-.84.37-2.35.75-4.09.75-4.18,0-6.25-1.78-6.25-5.99v-.18c0-3.63,1.91-5.68,5.61-5.68s5.24,1.94,5.24,5.06v1.47h-8.29Zm.02-1.78h5.85v-.2c0-1.01-.29-1.74-.9-2.16-.46-.31-1.08-.46-1.91-.46-.88,0-1.5.15-1.96.46-.7.46-.99,1.23-1.08,2.35Z"/>
        <path class="cls-2" d="m288.99,405l.37-1.78c1.03.29,2.38.44,3.65.44,1.94,0,2.46-.33,2.46-1.45s-.55-1.23-1.69-1.47l-1.5-.33c-2.05-.42-3.32-1.01-3.32-3.34s1.25-3.32,4.58-3.32c1.61,0,3.15.24,3.96.51l-.38,1.76c-.84-.2-1.98-.35-3.34-.35-1.8,0-2.35.26-2.35,1.34s.64,1.25,1.87,1.52l1.5.33c2.13.44,3.15,1.08,3.15,3.3,0,2.53-1.3,3.43-4.64,3.43-1.74,0-3.34-.22-4.31-.57Z"/>
        <path class="cls-2" d="m301.11,402.03v-6.16h-1.98v-1.92h2.09l.13-3.32h2.27v3.32h3.48v1.92h-3.45v5.79c0,1.5.46,1.85,2.02,1.85.48,0,1.1-.04,1.45-.09v1.85c-.42.13-1.23.24-2,.24-2.95,0-4-.88-4-3.48Z"/>
        <path class="cls-2" d="m316.49,396.31c-.31-.02-.79-.04-1.12-.04-2.57,0-3.21,1.01-3.21,2.84v6.25h-2.55v-11.4h2.27l.22,1.8h.07c.53-1.1,1.36-1.91,3.28-1.89.37,0,.81.04,1.06.09v2.35Z"/>
        <path class="cls-2" d="m320.43,400.27c.09,1.23.44,2.07,1.1,2.57.64.53,1.61.73,2.95.73s2.53-.22,3.39-.51l.35,1.76c-.84.37-2.35.75-4.09.75-4.18,0-6.25-1.78-6.25-5.99v-.18c0-3.63,1.91-5.68,5.61-5.68s5.24,1.94,5.24,5.06v1.47h-8.29Zm.02-1.78h5.85v-.2c0-1.01-.29-1.74-.9-2.16-.46-.31-1.08-.46-1.92-.46-.88,0-1.5.15-1.96.46-.7.46-.99,1.23-1.08,2.35Z"/>
        <path class="cls-2" d="m330.74,405l.37-1.78c1.03.29,2.38.44,3.65.44,1.94,0,2.46-.33,2.46-1.45s-.55-1.23-1.69-1.47l-1.5-.33c-2.05-.42-3.32-1.01-3.32-3.34s1.25-3.32,4.58-3.32c1.61,0,3.15.24,3.96.51l-.38,1.76c-.84-.2-1.98-.35-3.34-.35-1.8,0-2.35.26-2.35,1.34s.64,1.25,1.87,1.52l1.5.33c2.13.44,3.15,1.08,3.15,3.3,0,2.53-1.3,3.43-4.64,3.43-1.74,0-3.34-.22-4.31-.57Z"/>
      </g>
      <g>
        <path class="cls-2" d="m398.42,405.36c1.43-4.64,4.07-10.08,5.96-13.16l-.02-.07h-7.9v-2.18h10.65v2.05c-2.18,3.78-4.62,9.02-5.94,13.36h-2.75Z"/>
        <path class="cls-2" d="m407.86,407.49l.81-2.13h-.99v-2.64h2.71v2.4l-1.28,2.38h-1.25Z"/>
        <path class="cls-2" d="m412.77,404.8l.48-1.98c.97.33,2.66.59,4.27.59,2.57,0,3.72-.59,3.72-2.82s-.84-2.73-3.76-2.73h-4.12l.31-7.92h9.55v2.18h-7.19l-.15,3.81c.55-.07,1.52-.11,2.33-.11,3.85,0,5.72,1.03,5.72,4.69,0,3.87-2.33,5.06-6.16,5.06-2.07,0-3.92-.31-5-.77Z"/>
        <path class="cls-2" d="m426.1,393.78c0-2.64,1.36-4.03,3.65-4.03s3.67,1.39,3.67,4.03v.18c0,2.66-1.36,4.03-3.67,4.03s-3.65-1.36-3.65-4.03v-.18Zm5.24-.07c0-.99-.13-1.69-.64-2.09-.24-.15-.53-.24-.95-.24-.4,0-.68.09-.92.24-.51.4-.64,1.1-.64,2.09v.31c0,.99.13,1.72.64,2.09.24.18.53.26.92.26.42,0,.7-.09.95-.26.51-.37.64-1.1.64-2.09v-.31Zm6.56-3.76h2.24l-7.75,15.4h-2.24l7.75-15.4Zm-1.19,11.4c0-2.66,1.36-4.03,3.67-4.03s3.67,1.36,3.67,4.03v.18c0,2.64-1.36,4.03-3.67,4.03s-3.67-1.39-3.67-4.03v-.18Zm5.26-.07c0-.99-.13-1.72-.66-2.09-.22-.18-.51-.26-.92-.26-.4,0-.7.09-.92.26-.53.37-.66,1.1-.66,2.09v.31c0,.99.13,1.69.66,2.09.22.15.53.24.92.24.42,0,.7-.09.92-.24.53-.4.66-1.1.66-2.09v-.31Z"/>
      </g>
      <rect class="cls-3" x="43.5" y="453" width="319" height="74" rx="18.83" ry="18.83"/>
      <rect class="cls-4" x="375.5" y="453" width="90" height="74" rx="18.83" ry="18.83"/>
      <g>
        <path class="cls-2" d="m86.62,499.36h-3.19l-5.57-9.11c-.62-1.08-1.14-2.02-1.67-3.17h-.07c.11,1.3.15,2.49.15,3.76v8.52h-2.64v-15.4h3.19l5.57,9.11c.62,1.08,1.14,2.02,1.65,3.17h.07c-.11-1.3-.11-2.49-.11-3.76v-8.51h2.62v15.4Z"/>
        <path class="cls-2" d="m101.06,493.74c0,3.81-1.87,5.83-5.74,5.83s-5.72-2.02-5.72-5.83v-.18c0-3.81,1.87-5.83,5.72-5.83s5.74,2.02,5.74,5.83v.18Zm-2.62-.26c0-1.5-.29-2.6-1.1-3.21-.48-.35-1.12-.55-2.02-.55s-1.54.2-2,.55c-.81.62-1.12,1.72-1.12,3.21v.35c0,1.5.31,2.6,1.12,3.21.46.35,1.12.53,2,.53s1.54-.18,2.02-.53c.81-.62,1.1-1.72,1.1-3.21v-.35Z"/>
        <path class="cls-2" d="m104.6,496.03v-6.16h-1.98v-1.92h2.09l.13-3.32h2.27v3.32h3.48v1.92h-3.45v5.79c0,1.5.46,1.85,2.02,1.85.48,0,1.1-.04,1.45-.09v1.85c-.42.13-1.23.24-2,.24-2.95,0-4-.88-4-3.48Z"/>
        <path class="cls-2" d="m122.29,499.36h-2.22l-.18-1.41h-.07c-.53.73-1.52,1.58-3.7,1.58-2.51,0-3.81-1.06-3.81-3.37s1.17-3.32,4.05-3.32h3.43v-.79c0-1.65-.57-2.22-2.68-2.22-1.28,0-2.75.22-3.61.44l-.37-1.89c.92-.33,2.57-.64,4.38-.64,3.59,0,4.78,1.3,4.78,4.18v7.44Zm-2.46-4.73h-3.19c-1.5,0-1.89.4-1.89,1.52s.53,1.52,1.92,1.52c1.76,0,3.17-.86,3.17-2.4v-.64Z"/>
        <path class="cls-2" d="m130.93,483.95h6.8c4.22,0,5.7,1.69,5.7,4.91s-1.47,5.04-5.7,5.04h-4.11v5.46h-2.68v-15.4Zm2.68,2.2v5.59h3.89c2.42,0,3.19-.77,3.19-2.79s-.75-2.79-3.19-2.79h-3.89Z"/>
        <path class="cls-2" d="m152.93,490.31c-.31-.02-.79-.04-1.12-.04-2.57,0-3.21,1.01-3.21,2.84v6.25h-2.55v-11.4h2.27l.22,1.8h.07c.53-1.1,1.36-1.91,3.28-1.89.37,0,.81.04,1.06.09v2.35Z"/>
        <path class="cls-2" d="m165.78,493.74c0,3.81-1.87,5.83-5.74,5.83s-5.72-2.02-5.72-5.83v-.18c0-3.81,1.87-5.83,5.72-5.83s5.74,2.02,5.74,5.83v.18Zm-2.62-.26c0-1.5-.29-2.6-1.1-3.21-.48-.35-1.12-.55-2.02-.55s-1.54.2-2,.55c-.81.62-1.12,1.72-1.12,3.21v.35c0,1.5.31,2.6,1.12,3.21.46.35,1.12.53,2,.53s1.54-.18,2.02-.53c.81-.62,1.1-1.72,1.1-3.21v-.35Z"/>
        <path class="cls-2" d="m169.36,489.87h-2.02v-1.92h2.02v-1.17c0-2.6,1.01-3.63,3.87-3.63.77,0,1.67.11,2.09.22v1.83c-.33-.07-1.01-.11-1.5-.11-1.61,0-2,.46-2,1.78v1.08h3.19v1.92h-3.12v9.48h-2.53v-9.48Z"/>
        <path class="cls-2" d="m178.87,494.27c.09,1.23.44,2.07,1.1,2.57.64.53,1.61.73,2.95.73s2.53-.22,3.39-.51l.35,1.76c-.84.37-2.35.75-4.09.75-4.18,0-6.25-1.78-6.25-5.99v-.18c0-3.63,1.91-5.68,5.61-5.68s5.24,1.94,5.24,5.06v1.47h-8.29Zm.02-1.78h5.85v-.2c0-1.01-.29-1.74-.9-2.16-.46-.31-1.08-.46-1.92-.46-.88,0-1.5.15-1.96.46-.7.46-.99,1.23-1.08,2.35Z"/>
        <path class="cls-2" d="m189.19,499l.37-1.78c1.03.29,2.38.44,3.65.44,1.94,0,2.46-.33,2.46-1.45s-.55-1.23-1.69-1.47l-1.5-.33c-2.05-.42-3.32-1.01-3.32-3.34s1.25-3.32,4.58-3.32c1.61,0,3.15.24,3.96.51l-.38,1.76c-.84-.2-1.98-.35-3.34-.35-1.8,0-2.35.26-2.35,1.34s.64,1.25,1.87,1.52l1.5.33c2.13.44,3.15,1.08,3.15,3.3,0,2.53-1.3,3.43-4.64,3.43-1.74,0-3.34-.22-4.31-.57Z"/>
        <path class="cls-2" d="m199.99,499l.37-1.78c1.03.29,2.38.44,3.65.44,1.94,0,2.46-.33,2.46-1.45s-.55-1.23-1.69-1.47l-1.5-.33c-2.05-.42-3.32-1.01-3.32-3.34s1.25-3.32,4.58-3.32c1.61,0,3.15.24,3.96.51l-.37,1.76c-.84-.2-1.98-.35-3.34-.35-1.8,0-2.35.26-2.35,1.34s.64,1.25,1.87,1.52l1.5.33c2.14.44,3.15,1.08,3.15,3.3,0,2.53-1.3,3.43-4.64,3.43-1.74,0-3.34-.22-4.31-.57Z"/>
        <path class="cls-2" d="m222.43,493.74c0,3.81-1.87,5.83-5.74,5.83s-5.72-2.02-5.72-5.83v-.18c0-3.81,1.87-5.83,5.72-5.83s5.74,2.02,5.74,5.83v.18Zm-2.62-.26c0-1.5-.29-2.6-1.1-3.21-.48-.35-1.12-.55-2.02-.55s-1.54.2-2,.55c-.81.62-1.12,1.72-1.12,3.21v.35c0,1.5.31,2.6,1.12,3.21.46.35,1.12.53,2,.53s1.54-.18,2.02-.53c.81-.62,1.1-1.72,1.1-3.21v-.35Z"/>
        <path class="cls-2" d="m232.04,490.31c-.31-.02-.79-.04-1.12-.04-2.57,0-3.21,1.01-3.21,2.84v6.25h-2.55v-11.4h2.27l.22,1.8h.07c.53-1.1,1.36-1.91,3.28-1.89.37,0,.81.04,1.06.09v2.35Z"/>
        <path class="cls-2" d="m235.98,494.27c.09,1.23.44,2.07,1.1,2.57.64.53,1.61.73,2.95.73s2.53-.22,3.39-.51l.35,1.76c-.84.37-2.35.75-4.09.75-4.18,0-6.25-1.78-6.25-5.99v-.18c0-3.63,1.91-5.68,5.61-5.68s5.24,1.94,5.24,5.06v1.47h-8.29Zm.02-1.78h5.85v-.2c0-1.01-.29-1.74-.9-2.16-.46-.31-1.08-.46-1.91-.46-.88,0-1.5.15-1.96.46-.7.46-.99,1.23-1.08,2.35Z"/>
        <path class="cls-2" d="m246.3,499l.37-1.78c1.03.29,2.38.44,3.65.44,1.94,0,2.46-.33,2.46-1.45s-.55-1.23-1.69-1.47l-1.5-.33c-2.05-.42-3.32-1.01-3.32-3.34s1.25-3.32,4.58-3.32c1.61,0,3.15.24,3.96.51l-.38,1.76c-.84-.2-1.98-.35-3.34-.35-1.8,0-2.35.26-2.35,1.34s.64,1.25,1.87,1.52l1.5.33c2.13.44,3.15,1.08,3.15,3.3,0,2.53-1.3,3.43-4.64,3.43-1.74,0-3.34-.22-4.31-.57Z"/>
        <path class="cls-2" d="m269.64,486.2v13.16h-2.68v-13.16h-4.84v-2.24h12.39v2.24h-4.86Z"/>
        <path class="cls-2" d="m277.16,483.95h2.68v15.4h-2.68v-15.4Z"/>
        <path class="cls-2" d="m290.63,494.27c.09,1.23.44,2.07,1.1,2.57.64.53,1.61.73,2.95.73s2.53-.22,3.39-.51l.35,1.76c-.84.37-2.35.75-4.09.75-4.18,0-6.25-1.78-6.25-5.99v-.18c0-3.63,1.91-5.68,5.61-5.68s5.24,1.94,5.24,5.06v1.47h-8.29Zm.02-1.78h5.85v-.2c0-1.01-.29-1.74-.9-2.16-.46-.31-1.08-.46-1.91-.46-.88,0-1.5.15-1.96.46-.7.46-.99,1.23-1.08,2.35Z"/>
        <path class="cls-2" d="m313.35,486.2v13.16h-2.68v-13.16h-4.84v-2.24h12.39v2.24h-4.86Z"/>
        <path class="cls-2" d="m320.79,483.95h6.8c4.22,0,5.7,1.69,5.7,4.91s-1.47,5.04-5.7,5.04h-4.12v5.46h-2.68v-15.4Zm2.68,2.2v5.59h3.9c2.42,0,3.19-.77,3.19-2.79s-.75-2.79-3.19-2.79h-3.9Z"/>
      </g>
      <g>
        <path class="cls-2" d="m398.42,499.36c1.43-4.64,4.07-10.08,5.96-13.16l-.02-.07h-7.9v-2.18h10.65v2.05c-2.18,3.78-4.62,9.02-5.94,13.36h-2.75Z"/>
        <path class="cls-2" d="m407.86,501.49l.81-2.13h-.99v-2.64h2.71v2.4l-1.28,2.38h-1.25Z"/>
        <path class="cls-2" d="m412.77,498.8l.48-1.98c.97.33,2.66.59,4.27.59,2.57,0,3.72-.59,3.72-2.82s-.84-2.73-3.76-2.73h-4.12l.31-7.92h9.55v2.18h-7.19l-.15,3.81c.55-.07,1.52-.11,2.33-.11,3.85,0,5.72,1.03,5.72,4.69,0,3.87-2.33,5.06-6.16,5.06-2.07,0-3.92-.31-5-.77Z"/>
        <path class="cls-2" d="m426.1,487.78c0-2.64,1.36-4.03,3.65-4.03s3.67,1.39,3.67,4.03v.18c0,2.66-1.36,4.03-3.67,4.03s-3.65-1.36-3.65-4.03v-.18Zm5.24-.07c0-.99-.13-1.69-.64-2.09-.24-.15-.53-.24-.95-.24-.4,0-.68.09-.92.24-.51.4-.64,1.1-.64,2.09v.31c0,.99.13,1.72.64,2.09.24.18.53.26.92.26.42,0,.7-.09.95-.26.51-.37.64-1.1.64-2.09v-.31Zm6.56-3.76h2.24l-7.75,15.4h-2.24l7.75-15.4Zm-1.19,11.4c0-2.66,1.36-4.03,3.67-4.03s3.67,1.36,3.67,4.03v.18c0,2.64-1.36,4.03-3.67,4.03s-3.67-1.39-3.67-4.03v-.18Zm5.26-.07c0-.99-.13-1.72-.66-2.09-.22-.18-.51-.26-.92-.26-.4,0-.7.09-.92.26-.53.37-.66,1.1-.66,2.09v.31c0,.99.13,1.69.66,2.09.22.15.53.24.92.24.42,0,.7-.09.92-.24.53-.4.66-1.1.66-2.09v-.31Z"/>
      </g>
    </g>
  </g>
</svg>