<?xml version="1.0" encoding="UTF-8"?>
<svg id="Camada_2" data-name="Camada 2" xmlns="http://www.w3.org/2000/svg" xmlns:xlink="http://www.w3.org/1999/xlink" viewBox="0 0 561.33 677.18">
  <defs>
    <style>
      .cls-1 {
        fill: url(#Gradiente_sem_nome_45-22);
      }

      .cls-2 {
        fill: url(#Gradiente_sem_nome_45-20);
      }

      .cls-3 {
        fill: url(#Gradiente_sem_nome_45-24);
      }

      .cls-4 {
        fill: url(#Gradiente_sem_nome_45-27);
      }

      .cls-5 {
        fill: url(#Gradiente_sem_nome_45-10);
      }

      .cls-6 {
        fill: url(#Gradiente_sem_nome_45-4);
      }

      .cls-7 {
        fill: url(#Gradiente_sem_nome_45-26);
      }

      .cls-8 {
        fill: url(#Gradiente_sem_nome_45-36);
      }

      .cls-9 {
        fill: url(#Gradiente_sem_nome_45-34);
      }

      .cls-10 {
        fill: url(#Gradiente_sem_nome_45-37);
      }

      .cls-11 {
        fill: url(#Gradiente_sem_nome_45-5);
      }

      .cls-12 {
        fill: url(#Gradiente_sem_nome_45-19);
      }

      .cls-13 {
        fill: url(#Gradiente_sem_nome_45-35);
      }

      .cls-14 {
        fill: url(#Gradiente_sem_nome_45-9);
      }

      .cls-15 {
        fill: url(#Gradiente_sem_nome_45-23);
      }

      .cls-16 {
        fill: url(#Gradiente_sem_nome_45-18);
      }

      .cls-17 {
        fill: url(#Gradiente_sem_nome_45);
      }

      .cls-18 {
        fill: url(#Gradiente_sem_nome_45-7);
      }

      .cls-19 {
        fill: url(#Gradiente_sem_nome_45-21);
      }

      .cls-20 {
        fill: url(#Gradiente_sem_nome_45-13);
      }

      .cls-21 {
        fill: url(#Gradiente_sem_nome_45-39);
      }

      .cls-22 {
        fill: url(#Gradiente_sem_nome_45-3);
      }

      .cls-23 {
        fill: url(#Gradiente_sem_nome_45-11);
      }

      .cls-24 {
        fill: url(#Gradiente_sem_nome_45-15);
      }

      .cls-25 {
        fill: url(#Gradiente_sem_nome_45-14);
      }

      .cls-26 {
        fill: url(#Gradiente_sem_nome_45-28);
      }

      .cls-27 {
        fill: url(#Gradiente_sem_nome_45-8);
      }

      .cls-28 {
        fill: url(#Gradiente_sem_nome_45-17);
      }

      .cls-29 {
        fill: url(#Gradiente_sem_nome_45-30);
      }

      .cls-30 {
        fill: url(#Gradiente_sem_nome_45-16);
      }

      .cls-31 {
        fill: url(#Gradiente_sem_nome_45-38);
      }

      .cls-32 {
        fill: url(#Gradiente_sem_nome_45-12);
      }

      .cls-33 {
        fill: url(#Gradiente_sem_nome_45-31);
      }

      .cls-34 {
        fill: url(#Gradiente_sem_nome_45-2);
      }

      .cls-35 {
        fill: url(#Gradiente_sem_nome_45-29);
      }

      .cls-36 {
        fill: url(#Gradiente_sem_nome_45-32);
      }

      .cls-37 {
        fill: url(#Gradiente_sem_nome_45-33);
      }

      .cls-38 {
        fill: none;
        opacity: .1;
      }

      .cls-39 {
        fill: url(#Gradiente_sem_nome_45-25);
      }

      .cls-40 {
        fill: url(#Gradiente_sem_nome_45-6);
      }
    </style>
    <linearGradient id="Gradiente_sem_nome_45" data-name="Gradiente sem nome 45" x1="-496" y1="-682.18" x2="65.33" y2="-682.18" gradientTransform="translate(65.33 -118.82) rotate(-180)" gradientUnits="userSpaceOnUse">
      <stop offset="0" stop-color="#fff" stop-opacity="0"/>
      <stop offset="1" stop-color="gray"/>
    </linearGradient>
    <linearGradient id="Gradiente_sem_nome_45-2" data-name="Gradiente sem nome 45" y1="-670.36" y2="-670.36" xlink:href="#Gradiente_sem_nome_45"/>
    <linearGradient id="Gradiente_sem_nome_45-3" data-name="Gradiente sem nome 45" y1="-658.55" y2="-658.55" xlink:href="#Gradiente_sem_nome_45"/>
    <linearGradient id="Gradiente_sem_nome_45-4" data-name="Gradiente sem nome 45" y1="-646.74" y2="-646.74" xlink:href="#Gradiente_sem_nome_45"/>
    <linearGradient id="Gradiente_sem_nome_45-5" data-name="Gradiente sem nome 45" y1="-634.92" y2="-634.92" xlink:href="#Gradiente_sem_nome_45"/>
    <linearGradient id="Gradiente_sem_nome_45-6" data-name="Gradiente sem nome 45" y1="-623.11" y2="-623.11" xlink:href="#Gradiente_sem_nome_45"/>
    <linearGradient id="Gradiente_sem_nome_45-7" data-name="Gradiente sem nome 45" y1="-611.3" y2="-611.3" xlink:href="#Gradiente_sem_nome_45"/>
    <linearGradient id="Gradiente_sem_nome_45-8" data-name="Gradiente sem nome 45" y1="-599.48" y2="-599.48" xlink:href="#Gradiente_sem_nome_45"/>
    <linearGradient id="Gradiente_sem_nome_45-9" data-name="Gradiente sem nome 45" y1="-587.67" y2="-587.67" xlink:href="#Gradiente_sem_nome_45"/>
    <linearGradient id="Gradiente_sem_nome_45-10" data-name="Gradiente sem nome 45" y1="-575.86" y2="-575.86" xlink:href="#Gradiente_sem_nome_45"/>
    <linearGradient id="Gradiente_sem_nome_45-11" data-name="Gradiente sem nome 45" y1="-564.05" y2="-564.05" xlink:href="#Gradiente_sem_nome_45"/>
    <linearGradient id="Gradiente_sem_nome_45-12" data-name="Gradiente sem nome 45" y1="-552.23" y2="-552.23" xlink:href="#Gradiente_sem_nome_45"/>
    <linearGradient id="Gradiente_sem_nome_45-13" data-name="Gradiente sem nome 45" y1="-540.42" y2="-540.42" xlink:href="#Gradiente_sem_nome_45"/>
    <linearGradient id="Gradiente_sem_nome_45-14" data-name="Gradiente sem nome 45" y1="-528.61" y2="-528.61" xlink:href="#Gradiente_sem_nome_45"/>
    <linearGradient id="Gradiente_sem_nome_45-15" data-name="Gradiente sem nome 45" y1="-516.79" y2="-516.79" xlink:href="#Gradiente_sem_nome_45"/>
    <linearGradient id="Gradiente_sem_nome_45-16" data-name="Gradiente sem nome 45" y1="-504.98" y2="-504.98" xlink:href="#Gradiente_sem_nome_45"/>
    <linearGradient id="Gradiente_sem_nome_45-17" data-name="Gradiente sem nome 45" y1="-493.17" y2="-493.17" xlink:href="#Gradiente_sem_nome_45"/>
    <linearGradient id="Gradiente_sem_nome_45-18" data-name="Gradiente sem nome 45" y1="-481.35" y2="-481.35" xlink:href="#Gradiente_sem_nome_45"/>
    <linearGradient id="Gradiente_sem_nome_45-19" data-name="Gradiente sem nome 45" y1="-469.54" y2="-469.54" xlink:href="#Gradiente_sem_nome_45"/>
    <linearGradient id="Gradiente_sem_nome_45-20" data-name="Gradiente sem nome 45" y1="-457.73" y2="-457.73" xlink:href="#Gradiente_sem_nome_45"/>
    <linearGradient id="Gradiente_sem_nome_45-21" data-name="Gradiente sem nome 45" y1="-445.91" y2="-445.91" xlink:href="#Gradiente_sem_nome_45"/>
    <linearGradient id="Gradiente_sem_nome_45-22" data-name="Gradiente sem nome 45" y1="-434.1" y2="-434.1" xlink:href="#Gradiente_sem_nome_45"/>
    <linearGradient id="Gradiente_sem_nome_45-23" data-name="Gradiente sem nome 45" y1="-422.29" y2="-422.29" xlink:href="#Gradiente_sem_nome_45"/>
    <linearGradient id="Gradiente_sem_nome_45-24" data-name="Gradiente sem nome 45" y1="-410.48" y2="-410.48" xlink:href="#Gradiente_sem_nome_45"/>
    <linearGradient id="Gradiente_sem_nome_45-25" data-name="Gradiente sem nome 45" y1="-398.66" y2="-398.66" xlink:href="#Gradiente_sem_nome_45"/>
    <linearGradient id="Gradiente_sem_nome_45-26" data-name="Gradiente sem nome 45" y1="-386.85" y2="-386.85" xlink:href="#Gradiente_sem_nome_45"/>
    <linearGradient id="Gradiente_sem_nome_45-27" data-name="Gradiente sem nome 45" y1="-375.04" y2="-375.04" xlink:href="#Gradiente_sem_nome_45"/>
    <linearGradient id="Gradiente_sem_nome_45-28" data-name="Gradiente sem nome 45" y1="-363.22" y2="-363.22" xlink:href="#Gradiente_sem_nome_45"/>
    <linearGradient id="Gradiente_sem_nome_45-29" data-name="Gradiente sem nome 45" y1="-351.41" y2="-351.41" xlink:href="#Gradiente_sem_nome_45"/>
    <linearGradient id="Gradiente_sem_nome_45-30" data-name="Gradiente sem nome 45" y1="-339.6" y2="-339.6" xlink:href="#Gradiente_sem_nome_45"/>
    <linearGradient id="Gradiente_sem_nome_45-31" data-name="Gradiente sem nome 45" y1="-327.78" y2="-327.78" xlink:href="#Gradiente_sem_nome_45"/>
    <linearGradient id="Gradiente_sem_nome_45-32" data-name="Gradiente sem nome 45" y1="-315.97" y2="-315.97" xlink:href="#Gradiente_sem_nome_45"/>
    <linearGradient id="Gradiente_sem_nome_45-33" data-name="Gradiente sem nome 45" y1="-304.16" y2="-304.16" xlink:href="#Gradiente_sem_nome_45"/>
    <linearGradient id="Gradiente_sem_nome_45-34" data-name="Gradiente sem nome 45" y1="-292.35" y2="-292.35" xlink:href="#Gradiente_sem_nome_45"/>
    <linearGradient id="Gradiente_sem_nome_45-35" data-name="Gradiente sem nome 45" y1="-280.53" y2="-280.53" xlink:href="#Gradiente_sem_nome_45"/>
    <linearGradient id="Gradiente_sem_nome_45-36" data-name="Gradiente sem nome 45" y1="-268.72" y2="-268.72" xlink:href="#Gradiente_sem_nome_45"/>
    <linearGradient id="Gradiente_sem_nome_45-37" data-name="Gradiente sem nome 45" y1="-256.91" y2="-256.91" xlink:href="#Gradiente_sem_nome_45"/>
    <linearGradient id="Gradiente_sem_nome_45-38" data-name="Gradiente sem nome 45" y1="-245.09" y2="-245.09" xlink:href="#Gradiente_sem_nome_45"/>
    <linearGradient id="Gradiente_sem_nome_45-39" data-name="Gradiente sem nome 45" y1="-233.28" y2="-233.28" xlink:href="#Gradiente_sem_nome_45"/>
  </defs>
  <g id="Camada_1-2" data-name="Camada 1">
    <g class="cls-38">
      <path class="cls-17" d="m0,485.16c10.76,2.21,20.74,6.13,29.73,11.71,15.47,9.61,23.79,21.47,28.76,28.56,19.14,27.28,33.69,50.11,43.32,65.23,2.82,4.43,5.26,8.25,7.19,11.21,27.89,42.7,41.89,64.14,64.52,71.74,35.84,12.04,76.36-8.68,112.11-26.97,9.42-4.82,19.53-11.24,39.69-24.02,38.15-24.21,66.56-44.83,81.82-55.91,45.02-32.67,80.51-59.09,97.56-71.79l5.25-3.91c20.6-15.34,37.2-27.7,51.38-37.79v-3.68c-14.59,10.34-31.73,23.09-53.17,39.06l-5.25,3.91c-17.05,12.69-52.53,39.11-97.53,71.77-15.24,11.06-43.59,31.64-81.67,55.8-20.07,12.74-30.15,19.13-39.44,23.89-35.22,18.02-75.14,38.44-109.79,26.8-21.64-7.27-35.45-28.41-62.96-70.53-1.92-2.95-4.36-6.76-7.17-11.18-9.64-15.13-24.22-38-43.4-65.34-4.77-6.8-13.65-19.45-29.64-29.38-9.46-5.88-19.97-9.97-31.31-12.22v3.06Z"/>
      <path class="cls-34" d="m0,473.37c10.74,2.21,20.7,6.13,29.68,11.7,15.47,9.61,23.79,21.47,28.76,28.56,19.14,27.28,33.69,50.12,43.32,65.23,2.82,4.43,5.26,8.25,7.19,11.21,27.89,42.7,41.9,64.14,64.52,71.74,35.84,12.04,76.36-8.68,112.11-26.97,9.42-4.82,19.54-11.24,39.69-24.02,38.15-24.21,66.56-44.83,81.82-55.91,45.08-32.72,80.53-59.11,97.56-71.79l5.25-3.91c20.62-15.35,37.23-27.72,51.42-37.82v-3.68c-14.6,10.34-31.75,23.11-53.22,39.09l-5.25,3.91c-17.03,12.68-52.47,39.06-97.53,71.77-15.24,11.06-43.59,31.64-81.67,55.8-20.07,12.74-30.15,19.13-39.45,23.89-35.22,18.02-75.14,38.44-109.78,26.8-21.64-7.27-35.45-28.41-62.96-70.54-1.92-2.94-4.36-6.76-7.17-11.18-9.65-15.13-24.22-38-43.4-65.34-4.77-6.8-13.65-19.45-29.64-29.38-9.45-5.87-19.94-9.96-31.26-12.21v3.06Z"/>
      <path class="cls-22" d="m0,461.58c10.73,2.21,20.67,6.13,29.63,11.69,15.47,9.61,23.79,21.47,28.76,28.56,19.15,27.29,33.7,50.13,43.33,65.24,2.82,4.42,5.25,8.24,7.18,11.19,27.89,42.7,41.89,64.14,64.52,71.74,35.84,12.04,76.36-8.68,112.11-26.97,9.42-4.82,19.52-11.23,39.69-24.02,38.17-24.22,66.56-44.83,81.82-55.91,45.08-32.72,80.53-59.11,97.56-71.79l5.25-3.91c20.64-15.37,37.27-27.75,51.47-37.85v-3.68c-14.61,10.35-31.77,23.12-53.26,39.13l-5.25,3.91c-17.03,12.68-52.47,39.06-97.53,71.77-15.23,11.05-43.58,31.63-81.69,55.82-20.06,12.73-30.13,19.12-39.42,23.87-35.22,18.02-75.14,38.44-109.78,26.8-21.64-7.27-35.45-28.41-62.96-70.54-1.92-2.94-4.35-6.75-7.16-11.16-9.65-15.14-24.22-38.01-43.41-65.36-4.77-6.8-13.65-19.45-29.64-29.38-9.43-5.86-19.91-9.95-31.22-12.2v3.06Z"/>
      <path class="cls-6" d="m0,449.79c10.71,2.21,20.64,6.12,29.59,11.68,15.47,9.61,23.79,21.47,28.76,28.56,19.14,27.28,33.69,50.11,43.32,65.22,2.82,4.43,5.26,8.25,7.19,11.21,27.89,42.7,41.9,64.14,64.52,71.74,35.84,12.04,76.36-8.68,112.11-26.97,9.42-4.82,19.53-11.24,39.69-24.02,38.17-24.22,66.57-44.83,81.82-55.91,45.1-32.73,80.53-59.11,97.56-71.79l5.25-3.91c20.67-15.39,37.31-27.78,51.52-37.89v-3.68c-14.63,10.36-31.8,23.14-53.32,39.17l-5.25,3.91c-17.02,12.67-52.45,39.05-97.53,71.77-15.23,11.05-43.58,31.63-81.67,55.8-20.08,12.74-30.15,19.13-39.45,23.89-35.22,18.02-75.14,38.44-109.79,26.8-21.64-7.27-35.45-28.41-62.96-70.54-1.92-2.95-4.36-6.76-7.18-11.19-9.64-15.13-24.22-38-43.4-65.33-4.77-6.8-13.65-19.45-29.64-29.38-9.42-5.85-19.88-9.93-31.17-12.19v3.06Z"/>
      <path class="cls-11" d="m0,438.01c10.69,2.21,20.6,6.12,29.54,11.67,15.47,9.61,23.79,21.47,28.76,28.56,19.14,27.28,33.69,50.12,43.32,65.23,2.82,4.43,5.26,8.25,7.19,11.21,27.89,42.7,41.89,64.13,64.52,71.74,35.84,12.04,76.36-8.68,112.11-26.97,9.42-4.82,19.54-11.24,39.69-24.02,38.17-24.22,66.57-44.83,81.82-55.91,45.1-32.73,80.53-59.11,97.56-71.79l5.24-3.9c20.69-15.41,37.35-27.81,51.57-37.93v-3.68c-14.64,10.36-31.83,23.16-53.37,39.2l-5.24,3.9c-17.02,12.67-52.45,39.05-97.53,71.77-15.23,11.05-43.58,31.63-81.67,55.8-20.07,12.74-30.15,19.13-39.44,23.89-35.22,18.02-75.14,38.44-109.79,26.8-21.64-7.27-35.45-28.41-62.96-70.54-1.92-2.94-4.36-6.76-7.17-11.18-9.65-15.13-24.22-38-43.4-65.34-4.77-6.8-13.65-19.45-29.64-29.38-9.41-5.84-19.85-9.92-31.12-12.18v3.06Z"/>
      <path class="cls-40" d="m0,426.22c10.67,2.21,20.57,6.12,29.49,11.66,15.47,9.61,23.79,21.47,28.76,28.56,19.14,27.28,33.69,50.12,43.32,65.23,2.82,4.43,5.26,8.25,7.19,11.21,27.89,42.7,41.89,64.13,64.52,71.74,35.84,12.04,76.36-8.68,112.11-26.97,9.42-4.82,19.54-11.24,39.69-24.02,38.15-24.21,66.56-44.83,81.82-55.91,45.11-32.74,80.54-59.12,97.56-71.79l5.25-3.91c20.71-15.42,37.38-27.83,51.61-37.95v-3.68c-14.64,10.37-31.84,23.17-53.4,39.23l-5.25,3.91c-17.02,12.67-52.43,39.04-97.53,71.77-15.24,11.06-43.59,31.64-81.67,55.8-20.07,12.74-30.15,19.13-39.45,23.89-35.22,18.02-75.14,38.44-109.78,26.8-21.64-7.27-35.45-28.41-62.96-70.54-1.92-2.94-4.36-6.76-7.17-11.18-9.65-15.13-24.22-38-43.4-65.34-4.77-6.8-13.65-19.45-29.64-29.38-9.39-5.83-19.82-9.91-31.07-12.17v3.06Z"/>
      <path class="cls-18" d="m0,414.43c10.65,2.22,20.53,6.12,29.45,11.65,15.47,9.61,23.79,21.47,28.76,28.56,19.15,27.29,33.7,50.13,43.33,65.24,2.82,4.42,5.25,8.24,7.18,11.2,27.89,42.7,41.89,64.13,64.52,71.73,35.84,12.04,76.36-8.68,112.11-26.97,9.41-4.82,19.52-11.23,39.69-24.02,38.16-24.22,66.56-44.83,81.82-55.91,45.11-32.74,80.54-59.12,97.56-71.79l5.25-3.91c20.73-15.44,37.42-27.86,51.66-37.99v-3.68c-14.66,10.37-31.87,23.19-53.45,39.26l-5.25,3.91c-17.02,12.67-52.43,39.04-97.53,71.77-15.23,11.06-43.58,31.63-81.7,55.82-20.06,12.73-30.12,19.11-39.41,23.87-35.22,18.02-75.14,38.44-109.78,26.8-21.64-7.27-35.45-28.41-62.96-70.54-1.92-2.94-4.35-6.75-7.16-11.16-9.65-15.14-24.22-38.01-43.41-65.36-4.77-6.8-13.65-19.45-29.64-29.38-9.38-5.83-19.8-9.9-31.03-12.16v3.06Z"/>
      <path class="cls-27" d="m0,402.65c10.64,2.22,20.5,6.12,29.4,11.65,15.47,9.61,23.79,21.47,28.76,28.56,19.15,27.29,33.7,50.13,43.33,65.24,2.82,4.42,5.25,8.24,7.18,11.19,27.89,42.7,41.89,64.13,64.52,71.74,35.84,12.04,76.36-8.68,112.11-26.97,9.41-4.81,19.52-11.23,39.69-24.02,38.16-24.22,66.56-44.83,81.82-55.91,45.08-32.72,80.53-59.11,97.56-71.79l5.25-3.91c20.75-15.45,37.45-27.89,51.71-38.02v-3.68c-14.67,10.38-31.89,23.21-53.5,39.29l-5.25,3.91c-17.03,12.68-52.47,39.06-97.53,71.77-15.23,11.06-43.58,31.63-81.7,55.82-20.06,12.73-30.12,19.11-39.41,23.87-35.22,18.02-75.14,38.44-109.79,26.8-21.64-7.27-35.45-28.41-62.96-70.53-1.92-2.94-4.35-6.75-7.16-11.16-9.65-15.14-24.22-38.01-43.41-65.36-4.77-6.8-13.65-19.45-29.64-29.38-9.37-5.82-19.77-9.89-30.98-12.16v3.06Z"/>
      <path class="cls-14" d="m0,390.86c10.62,2.22,20.47,6.12,29.35,11.64,15.47,9.61,23.79,21.47,28.76,28.56,19.14,27.28,33.69,50.11,43.32,65.23,2.82,4.43,5.26,8.25,7.19,11.21,27.89,42.7,41.89,64.14,64.52,71.74,35.84,12.04,76.36-8.68,112.11-26.97,9.42-4.82,19.53-11.24,39.69-24.02,38.17-24.22,66.57-44.83,81.82-55.91,45.08-32.72,80.53-59.11,97.56-71.79l5.24-3.9c20.78-15.48,37.5-27.92,51.76-38.06v-3.68c-14.68,10.39-31.92,23.23-53.55,39.33l-5.24,3.9c-17.03,12.68-52.47,39.06-97.53,71.77-15.23,11.05-43.58,31.63-81.67,55.8-20.07,12.74-30.15,19.13-39.44,23.89-35.22,18.02-75.14,38.44-109.79,26.8-21.64-7.27-35.45-28.41-62.96-70.53-1.92-2.95-4.36-6.76-7.17-11.18-9.64-15.13-24.22-38-43.4-65.34-4.77-6.8-13.64-19.45-29.64-29.38-9.36-5.81-19.74-9.88-30.93-12.15v3.06Z"/>
      <path class="cls-5" d="m0,379.07c10.6,2.22,20.43,6.12,29.3,11.63,15.47,9.61,23.79,21.47,28.76,28.56,19.14,27.28,33.69,50.12,43.32,65.23,2.82,4.43,5.26,8.25,7.19,11.21,27.89,42.7,41.9,64.14,64.52,71.74,35.84,12.04,76.36-8.68,112.11-26.97,9.42-4.82,19.53-11.24,39.69-24.02,38.15-24.21,66.56-44.83,81.82-55.91,45.02-32.67,80.51-59.09,97.56-71.79l5.25-3.91c20.8-15.49,37.53-27.94,51.8-38.09v-3.68c-14.69,10.39-31.94,23.24-53.59,39.36l-5.25,3.91c-17.05,12.69-52.53,39.11-97.53,71.77-15.24,11.06-43.59,31.64-81.67,55.8-20.07,12.74-30.15,19.13-39.44,23.89-35.22,18.02-75.14,38.44-109.79,26.8-21.64-7.27-35.45-28.41-62.96-70.54-1.92-2.94-4.36-6.76-7.17-11.18-9.65-15.13-24.22-38-43.4-65.34-4.77-6.8-13.65-19.45-29.64-29.38-9.34-5.8-19.71-9.87-30.89-12.14v3.06Z"/>
      <path class="cls-23" d="m0,367.29c10.58,2.22,20.4,6.12,29.26,11.62,15.47,9.61,23.79,21.47,28.76,28.56,19.14,27.28,33.69,50.12,43.32,65.23,2.82,4.43,5.26,8.25,7.19,11.21,27.89,42.7,41.9,64.14,64.52,71.74,35.84,12.04,76.36-8.68,112.11-26.97,9.42-4.82,19.54-11.24,39.69-24.02,38.15-24.21,66.56-44.83,81.82-55.91,45.08-32.72,80.53-59.11,97.56-71.79l5.25-3.91c20.82-15.51,37.56-27.97,51.85-38.12v-3.68c-14.7,10.4-31.96,23.25-53.64,39.39l-5.25,3.91c-17.03,12.68-52.47,39.06-97.53,71.77-15.24,11.06-43.59,31.64-81.67,55.8-20.07,12.74-30.15,19.13-39.45,23.89-35.22,18.02-75.14,38.44-109.78,26.8-21.64-7.27-35.45-28.41-62.96-70.54-1.92-2.94-4.36-6.76-7.17-11.18-9.65-15.13-24.22-38-43.4-65.34-4.77-6.8-13.65-19.45-29.64-29.38-9.33-5.79-19.68-9.86-30.84-12.13v3.06Z"/>
      <path class="cls-32" d="m0,355.5c10.57,2.23,20.36,6.11,29.21,11.61,15.47,9.61,23.79,21.47,28.76,28.56,19.15,27.29,33.7,50.13,43.33,65.24,2.82,4.42,5.25,8.24,7.18,11.19,27.89,42.7,41.89,64.14,64.52,71.74,35.84,12.04,76.36-8.68,112.11-26.97,9.42-4.82,19.52-11.23,39.69-24.02,38.16-24.22,66.56-44.83,81.82-55.91,45.08-32.72,80.53-59.11,97.56-71.79l5.25-3.91c20.85-15.52,37.6-28,51.89-38.15v-3.68c-14.71,10.4-31.99,23.27-53.69,39.43l-5.25,3.91c-17.03,12.68-52.47,39.06-97.53,71.77-15.23,11.06-43.58,31.63-81.69,55.82-20.06,12.73-30.13,19.12-39.42,23.87-35.22,18.02-75.14,38.44-109.78,26.8-21.64-7.27-35.45-28.41-62.96-70.54-1.92-2.94-4.35-6.75-7.16-11.16-9.65-15.14-24.22-38.01-43.41-65.36-4.77-6.8-13.65-19.45-29.64-29.38-9.32-5.79-19.65-9.84-30.79-12.12v3.06Z"/>
      <path class="cls-20" d="m0,343.71c10.55,2.23,20.33,6.11,29.16,11.6,15.47,9.61,23.79,21.47,28.76,28.56,19.14,27.28,33.69,50.11,43.32,65.22,2.82,4.43,5.26,8.25,7.2,11.22,27.89,42.7,41.89,64.13,64.52,71.74,35.84,12.04,76.36-8.68,112.11-26.97,9.42-4.82,19.53-11.23,39.69-24.02,38.17-24.22,66.57-44.83,81.82-55.91,45.09-32.73,80.53-59.11,97.56-71.79l5.24-3.9c20.87-15.54,37.64-28.03,51.95-38.2v-3.68c-14.72,10.41-32.02,23.29-53.74,39.47l-5.24,3.9c-17.03,12.68-52.46,39.05-97.53,71.77-15.23,11.05-43.58,31.63-81.68,55.81-20.07,12.73-30.14,19.12-39.43,23.88-35.22,18.02-75.14,38.44-109.79,26.8-21.64-7.27-35.45-28.41-62.96-70.54-1.92-2.95-4.36-6.76-7.18-11.19-9.64-15.13-24.22-38-43.4-65.33-4.77-6.8-13.65-19.45-29.64-29.38-9.3-5.78-19.62-9.83-30.75-12.11v3.06Z"/>
      <path class="cls-25" d="m0,331.92c10.53,2.23,20.3,6.11,29.12,11.59,15.47,9.61,23.79,21.47,28.76,28.56,19.14,27.28,33.69,50.12,43.32,65.23,2.82,4.43,5.26,8.25,7.19,11.21,27.89,42.7,41.89,64.13,64.52,71.74,35.84,12.04,76.36-8.68,112.11-26.97,9.42-4.82,19.53-11.24,39.69-24.02,38.17-24.22,66.57-44.83,81.82-55.91,45.09-32.73,80.53-59.11,97.56-71.79l5.24-3.9c20.9-15.56,37.68-28.06,52-38.23v-3.68c-14.73,10.42-32.04,23.31-53.79,39.5l-5.24,3.9c-17.03,12.68-52.46,39.05-97.53,71.77-15.23,11.05-43.58,31.63-81.67,55.8-20.07,12.74-30.15,19.13-39.44,23.89-35.22,18.02-75.14,38.44-109.79,26.8-21.64-7.27-35.45-28.41-62.96-70.54-1.92-2.94-4.36-6.76-7.17-11.18-9.65-15.13-24.22-38-43.4-65.34-4.77-6.8-13.65-19.45-29.64-29.38-9.29-5.77-19.59-9.82-30.7-12.1v3.06Z"/>
      <path class="cls-24" d="m0,320.14c10.51,2.23,20.26,6.11,29.07,11.58,15.47,9.61,23.79,21.47,28.76,28.56,19.14,27.28,33.69,50.12,43.32,65.23,2.82,4.43,5.26,8.25,7.19,11.21,27.89,42.7,41.89,64.13,64.52,71.74,35.83,12.04,76.36-8.68,112.11-26.97,9.42-4.82,19.54-11.24,39.69-24.02,38.15-24.21,66.56-44.83,81.82-55.91,45.09-32.73,80.53-59.11,97.56-71.79l5.25-3.91c20.91-15.57,37.71-28.08,52.04-38.26v-3.68c-14.74,10.42-32.06,23.32-53.83,39.53l-5.25,3.91c-17.03,12.68-52.45,39.05-97.53,71.77-15.24,11.06-43.59,31.64-81.67,55.8-20.07,12.74-30.15,19.13-39.45,23.89-35.22,18.02-75.14,38.44-109.78,26.8-21.64-7.27-35.45-28.41-62.96-70.54-1.92-2.94-4.36-6.76-7.17-11.18-9.65-15.13-24.22-38-43.4-65.34-4.77-6.8-13.65-19.45-29.64-29.38-9.28-5.76-19.56-9.81-30.65-12.09v3.06Z"/>
      <path class="cls-30" d="m0,308.35c10.49,2.23,20.23,6.11,29.02,11.57,15.47,9.61,23.79,21.47,28.76,28.56,19.15,27.29,33.7,50.13,43.33,65.24,2.82,4.42,5.25,8.24,7.18,11.2,27.89,42.7,41.89,64.13,64.52,71.73,35.84,12.04,76.36-8.68,112.11-26.97,9.42-4.82,19.54-11.24,39.69-24.02,38.16-24.22,66.56-44.83,81.82-55.91,45.13-32.76,80.54-59.12,97.56-71.79l5.26-3.91c20.94-15.59,37.75-28.11,52.08-38.29v-3.68c-14.75,10.42-32.08,23.33-53.87,39.56l-5.25,3.91c-17.01,12.67-52.41,39.02-97.53,71.77-15.23,11.06-43.58,31.63-81.67,55.8-20.07,12.74-30.15,19.13-39.45,23.89-35.22,18.02-75.14,38.44-109.78,26.8-21.64-7.27-35.45-28.41-62.96-70.53-1.92-2.94-4.35-6.75-7.16-11.16-9.65-15.14-24.22-38.01-43.41-65.35-4.77-6.8-13.65-19.45-29.64-29.38-9.26-5.75-19.53-9.8-30.6-12.08v3.06Z"/>
      <path class="cls-28" d="m0,296.57c10.48,2.23,20.2,6.11,28.97,11.56,15.47,9.61,23.79,21.47,28.76,28.56,19.15,27.29,33.7,50.13,43.34,65.25,2.82,4.42,5.25,8.23,7.18,11.19,27.89,42.7,41.89,64.14,64.52,71.74,35.84,12.04,76.36-8.68,112.11-26.97,9.41-4.81,19.52-11.23,39.69-24.02,38.16-24.21,66.56-44.83,81.82-55.91,45.13-32.76,80.54-59.12,97.56-71.79l5.26-3.91c20.96-15.61,37.78-28.13,52.13-38.32v-3.68c-14.76,10.43-32.11,23.35-53.92,39.59l-5.25,3.91c-17.01,12.67-52.41,39.02-97.53,71.77-15.23,11.06-43.59,31.64-81.7,55.82-20.06,12.73-30.12,19.11-39.41,23.87-35.22,18.02-75.14,38.44-109.79,26.8-21.64-7.27-35.45-28.41-62.96-70.53-1.92-2.94-4.35-6.75-7.16-11.16-9.65-15.14-24.23-38.01-43.41-65.36-4.77-6.8-13.65-19.45-29.64-29.38-9.25-5.74-19.5-9.79-30.56-12.07v3.06Z"/>
      <path class="cls-16" d="m0,284.78c10.46,2.23,20.16,6.1,28.93,11.55,15.47,9.61,23.79,21.47,28.76,28.56,19.14,27.28,33.69,50.12,43.32,65.23,2.82,4.43,5.26,8.25,7.19,11.21,27.89,42.7,41.9,64.14,64.52,71.74,35.84,12.04,76.36-8.68,112.11-26.97,9.42-4.82,19.54-11.24,39.69-24.02,38.17-24.22,66.57-44.83,81.82-55.91,45.13-32.76,80.54-59.12,97.56-71.79l5.25-3.91c20.99-15.63,37.83-28.17,52.18-38.36v-3.68c-14.77,10.44-32.14,23.37-53.98,39.63l-5.25,3.91c-17.01,12.67-52.41,39.02-97.53,71.77-15.23,11.05-43.58,31.63-81.67,55.8-20.07,12.74-30.15,19.13-39.44,23.89-35.22,18.02-75.14,38.44-109.79,26.8-21.64-7.27-35.45-28.41-62.96-70.54-1.92-2.94-4.36-6.76-7.17-11.18-9.65-15.13-24.22-38-43.4-65.34-4.77-6.8-13.64-19.45-29.64-29.38-9.24-5.74-19.47-9.78-30.51-12.06v3.06Z"/>
      <path class="cls-12" d="m0,272.99c10.44,2.24,20.13,6.1,28.88,11.54,15.47,9.61,23.79,21.47,28.76,28.56,19.14,27.28,33.69,50.12,43.33,65.23,2.82,4.43,5.26,8.25,7.19,11.21,27.89,42.7,41.89,64.14,64.52,71.74,35.84,12.04,76.36-8.68,112.11-26.97,9.42-4.82,19.54-11.24,39.69-24.02,38.15-24.2,66.56-44.83,81.82-55.91,45-32.67,80.5-59.09,97.56-71.79l5.25-3.91c21.01-15.64,37.86-28.19,52.23-38.39v-3.68c-14.78,10.44-32.16,23.39-54.02,39.67l-5.25,3.91c-17.05,12.7-52.54,39.12-97.53,71.77-15.24,11.06-43.6,31.65-81.67,55.8-20.07,12.74-30.15,19.13-39.44,23.89-35.22,18.02-75.14,38.44-109.79,26.8-21.64-7.27-35.45-28.41-62.96-70.53-1.92-2.94-4.36-6.76-7.17-11.18-9.65-15.13-24.22-38-43.4-65.34-4.77-6.8-13.65-19.45-29.64-29.38-9.22-5.73-19.45-9.77-30.46-12.05v3.06Z"/>
      <path class="cls-2" d="m0,261.21c10.42,2.24,20.09,6.1,28.83,11.53,15.47,9.61,23.79,21.47,28.76,28.56,19.14,27.28,33.69,50.12,43.33,65.23,2.82,4.43,5.26,8.25,7.19,11.21,27.89,42.7,41.89,64.13,64.52,71.74,35.84,12.04,76.36-8.68,112.11-26.97,9.42-4.82,19.54-11.24,39.69-24.02,38.15-24.2,66.56-44.83,81.82-55.91,45.07-32.71,80.52-59.11,97.56-71.79l5.25-3.91c21.03-15.66,37.9-28.22,52.27-38.42v-3.68c-14.79,10.45-32.18,23.4-54.06,39.69l-5.25,3.91c-17.03,12.68-52.48,39.07-97.53,71.77-15.24,11.06-43.6,31.65-81.67,55.8-20.07,12.74-30.15,19.13-39.45,23.89-35.22,18.02-75.14,38.44-109.78,26.8-21.64-7.27-35.45-28.41-62.96-70.53-1.92-2.94-4.36-6.76-7.17-11.18-9.65-15.13-24.22-38-43.4-65.34-4.77-6.8-13.65-19.45-29.64-29.38-9.21-5.72-19.42-9.76-30.42-12.04v3.07Z"/>
      <path class="cls-19" d="m0,249.42c10.4,2.24,20.06,6.1,28.79,11.52,15.47,9.61,23.79,21.47,28.76,28.56,19.15,27.29,33.7,50.13,43.34,65.25,2.82,4.42,5.25,8.24,7.18,11.19,27.89,42.7,41.9,64.14,64.52,71.74,35.84,12.04,76.36-8.68,112.11-26.97,9.41-4.81,19.51-11.22,39.69-24.02,38.16-24.21,66.56-44.83,81.82-55.91,45.07-32.71,80.52-59.11,97.56-71.79l5.25-3.91c21.05-15.68,37.93-28.24,52.32-38.46v-3.68c-14.8,10.45-32.2,23.42-54.11,39.73l-5.25,3.91c-17.04,12.68-52.48,39.07-97.53,71.77-15.23,11.06-43.59,31.64-81.71,55.83-20.05,12.72-30.11,19.11-39.4,23.86-35.22,18.02-75.14,38.44-109.78,26.8-21.64-7.27-35.45-28.41-62.96-70.53-1.92-2.94-4.35-6.75-7.16-11.16-9.65-15.14-24.23-38.01-43.41-65.36-4.77-6.8-13.65-19.45-29.64-29.38-9.2-5.71-19.39-9.74-30.37-12.03v3.07Z"/>
      <path class="cls-1" d="m0,237.64c10.38,2.24,20.02,6.09,28.74,11.5,15.47,9.61,23.79,21.47,28.76,28.56,19.13,27.28,33.69,50.11,43.32,65.22,2.82,4.43,5.26,8.26,7.2,11.22,27.89,42.7,41.89,64.13,64.52,71.74,35.84,12.04,76.36-8.68,112.11-26.97,9.42-4.82,19.53-11.24,39.69-24.02,38.17-24.22,66.57-44.83,81.82-55.91,45.07-32.71,80.52-59.11,97.56-71.79l5.24-3.9c21.08-15.7,37.98-28.28,52.37-38.5v-3.68c-14.81,10.46-32.23,23.44-54.17,39.77l-5.24,3.9c-17.04,12.68-52.48,39.07-97.53,71.77-15.23,11.05-43.58,31.63-81.67,55.8-20.08,12.74-30.15,19.13-39.45,23.89-35.22,18.02-75.14,38.44-109.79,26.8-21.64-7.27-35.45-28.41-62.96-70.54-1.92-2.95-4.36-6.77-7.18-11.19-9.64-15.13-24.22-38-43.39-65.33-4.77-6.8-13.65-19.45-29.64-29.38-9.19-5.7-19.36-9.73-30.32-12.02v3.07Z"/>
      <path class="cls-15" d="m0,225.85c10.37,2.24,19.99,6.09,28.69,11.49,15.47,9.61,23.79,21.47,28.76,28.56,19.14,27.28,33.69,50.11,43.32,65.22,2.82,4.43,5.26,8.25,7.19,11.21,27.89,42.7,41.9,64.14,64.52,71.74,35.84,12.04,76.36-8.68,112.11-26.97,9.42-4.82,19.53-11.24,39.69-24.02,38.18-24.23,66.57-44.83,81.82-55.91,45.06-32.71,80.52-59.1,97.56-71.79l5.24-3.9c21.1-15.71,38.01-28.31,52.42-38.53v-3.68c-14.82,10.47-32.26,23.45-54.21,39.8l-5.24,3.9c-17.04,12.68-52.48,39.07-97.53,71.77-15.23,11.05-43.57,31.63-81.67,55.8-20.07,12.74-30.15,19.13-39.45,23.89-35.22,18.02-75.14,38.44-109.79,26.8-21.64-7.27-35.45-28.41-62.96-70.54-1.92-2.95-4.36-6.76-7.18-11.19-9.64-15.13-24.22-38-43.4-65.33-4.77-6.8-13.65-19.45-29.64-29.38-9.17-5.7-19.33-9.72-30.27-12.01v3.07Z"/>
      <path class="cls-3" d="m0,214.07c10.35,2.24,19.96,6.09,28.64,11.48,15.47,9.61,23.79,21.47,28.76,28.56,19.14,27.28,33.69,50.11,43.32,65.22,2.82,4.43,5.26,8.25,7.2,11.22,27.89,42.7,41.89,64.13,64.52,71.74,35.84,12.04,76.36-8.68,112.11-26.97,9.42-4.82,19.54-11.24,39.69-24.02,38.16-24.21,66.56-44.83,81.82-55.91,45.06-32.71,80.52-59.11,97.56-71.79l5.25-3.91c21.12-15.73,38.04-28.33,52.46-38.56v-3.68c-14.83,10.47-32.28,23.46-54.25,39.83l-5.25,3.91c-17.04,12.68-52.48,39.07-97.53,71.77-15.23,11.06-43.59,31.64-81.67,55.8-20.07,12.74-30.15,19.13-39.45,23.89-35.22,18.02-75.14,38.44-109.78,26.8-21.64-7.27-35.45-28.41-62.96-70.54-1.92-2.95-4.36-6.76-7.18-11.19-9.64-15.13-24.22-38-43.4-65.33-4.77-6.8-13.65-19.45-29.64-29.38-9.16-5.69-19.3-9.71-30.23-12.01v3.07Z"/>
      <path class="cls-39" d="m0,202.28c10.33,2.24,19.92,6.09,28.6,11.47,15.47,9.61,23.79,21.47,28.76,28.56,19.14,27.29,33.7,50.13,43.33,65.24,2.82,4.42,5.25,8.24,7.19,11.2,27.89,42.7,41.89,64.13,64.52,71.73,35.84,12.04,76.36-8.68,112.11-26.97,9.42-4.82,19.54-11.24,39.69-24.02,38.17-24.22,66.57-44.83,81.82-55.91,45.09-32.73,80.53-59.11,97.56-71.79l5.25-3.91c21.15-15.75,38.08-28.35,52.51-38.59v-3.68c-14.84,10.48-32.3,23.48-54.3,39.86l-5.25,3.91c-17.03,12.68-52.46,39.05-97.53,71.77-15.23,11.05-43.58,31.63-81.67,55.8-20.07,12.74-30.15,19.13-39.45,23.89-35.22,18.02-75.14,38.44-109.78,26.8-21.64-7.27-35.45-28.41-62.96-70.54-1.92-2.94-4.35-6.75-7.16-11.17-9.65-15.13-24.22-38.01-43.41-65.35-4.77-6.8-13.65-19.45-29.64-29.38-9.15-5.68-19.27-9.7-30.18-12v3.07Z"/>
      <path class="cls-7" d="m0,190.49c10.31,2.25,19.89,6.08,28.55,11.46,15.47,9.61,23.79,21.47,28.76,28.56,19.14,27.29,33.7,50.13,43.33,65.24,2.82,4.42,5.25,8.24,7.18,11.2,27.89,42.7,41.89,64.13,64.52,71.74,35.84,12.04,76.36-8.68,112.11-26.97,9.41-4.82,19.52-11.23,39.69-24.02,38.17-24.22,66.57-44.83,81.82-55.91,45.09-32.73,80.53-59.11,97.56-71.79l5.25-3.91c21.17-15.76,38.12-28.38,52.55-38.62v-3.68c-14.85,10.48-32.32,23.5-54.34,39.89l-5.25,3.91c-17.03,12.68-52.46,39.05-97.53,71.77-15.23,11.05-43.58,31.63-81.7,55.82-20.06,12.73-30.12,19.11-39.41,23.87-35.22,18.02-75.14,38.44-109.79,26.8-21.64-7.27-35.45-28.41-62.96-70.54-1.92-2.94-4.35-6.75-7.16-11.17-9.65-15.13-24.22-38.01-43.41-65.35-4.77-6.8-13.65-19.45-29.64-29.38-9.13-5.67-19.24-9.69-30.13-11.99v3.07Z"/>
      <path class="cls-4" d="m0,178.71c10.3,2.25,19.86,6.08,28.5,11.45,15.47,9.61,23.79,21.47,28.76,28.56,19.14,27.28,33.69,50.11,43.32,65.22,2.82,4.43,5.26,8.25,7.2,11.22,27.89,42.7,41.89,64.13,64.52,71.74,35.84,12.04,76.36-8.68,112.11-26.97,9.42-4.82,19.54-11.24,39.69-24.02,38.18-24.23,66.57-44.83,81.82-55.91,45.09-32.73,80.53-59.11,97.56-71.79l5.24-3.9c21.2-15.78,38.16-28.41,52.61-38.66v-3.68c-14.86,10.49-32.35,23.52-54.4,39.93l-5.24,3.9c-17.03,12.68-52.46,39.05-97.53,71.77-15.23,11.05-43.57,31.63-81.67,55.8-20.07,12.74-30.15,19.13-39.45,23.89-35.22,18.02-75.14,38.44-109.78,26.8-21.64-7.27-35.45-28.41-62.96-70.54-1.92-2.95-4.36-6.76-7.18-11.19-9.64-15.13-24.22-38-43.39-65.33-4.77-6.8-13.64-19.45-29.64-29.38-9.12-5.66-19.21-9.68-30.09-11.98v3.07Z"/>
      <path class="cls-26" d="m0,166.92c10.28,2.25,19.82,6.08,28.46,11.44,15.47,9.61,23.79,21.47,28.76,28.56,19.14,27.28,33.69,50.11,43.32,65.22,2.82,4.43,5.26,8.25,7.2,11.22,27.89,42.7,41.89,64.13,64.52,71.74,35.84,12.04,76.36-8.68,112.11-26.97,9.42-4.82,19.54-11.24,39.69-24.02,38.16-24.21,66.56-44.83,81.82-55.91,45.03-32.68,80.51-59.1,97.56-71.79l5.25-3.91c21.22-15.8,38.19-28.44,52.65-38.69v-3.68c-14.87,10.49-32.37,23.53-54.44,39.96l-5.25,3.91c-17.05,12.69-52.52,39.1-97.53,71.77-15.23,11.06-43.59,31.64-81.67,55.8-20.07,12.74-30.15,19.13-39.45,23.89-35.22,18.02-75.14,38.44-109.79,26.8-21.64-7.27-35.45-28.41-62.96-70.54-1.92-2.95-4.36-6.76-7.18-11.19-9.64-15.13-24.22-38-43.4-65.33-4.77-6.8-13.65-19.45-29.64-29.38-9.11-5.66-19.18-9.67-30.04-11.97v3.08Z"/>
      <path class="cls-35" d="m0,155.14c10.26,2.25,19.79,6.08,28.41,11.43,15.47,9.61,23.79,21.47,28.76,28.56,19.14,27.28,33.69,50.12,43.33,65.23,2.82,4.43,5.26,8.25,7.19,11.21,27.89,42.7,41.89,64.13,64.52,71.74,35.84,12.04,76.36-8.68,112.11-26.97,9.42-4.82,19.54-11.24,39.69-24.02,38.16-24.21,66.56-44.83,81.82-55.91,45.09-32.73,80.53-59.11,97.56-71.79l5.25-3.91c21.24-15.81,38.23-28.46,52.69-38.72v-3.68c-14.88,10.5-32.4,23.54-54.49,39.99l-5.25,3.91c-17.03,12.68-52.45,39.05-97.53,71.77-15.23,11.06-43.59,31.64-81.67,55.8-20.07,12.74-30.15,19.13-39.45,23.89-35.22,18.02-75.14,38.44-109.78,26.8-21.64-7.27-35.45-28.41-62.96-70.54-1.92-2.94-4.36-6.76-7.17-11.18-9.65-15.13-24.22-38-43.4-65.34-4.77-6.8-13.65-19.45-29.64-29.38-9.09-5.65-19.15-9.65-29.99-11.96v3.08Z"/>
      <path class="cls-29" d="m0,143.35c10.24,2.25,19.75,6.07,28.36,11.42,15.47,9.61,23.79,21.47,28.76,28.56,19.15,27.29,33.7,50.13,43.34,65.25,2.82,4.42,5.25,8.23,7.18,11.19,27.89,42.7,41.9,64.14,64.52,71.74,35.84,12.04,76.36-8.68,112.11-26.97,9.42-4.82,19.53-11.23,39.69-24.02,38.17-24.22,66.57-44.83,81.82-55.91,45.09-32.73,80.53-59.11,97.56-71.79l5.25-3.91c21.26-15.83,38.26-28.49,52.74-38.76v-3.68c-14.89,10.51-32.42,23.56-54.53,40.03l-5.25,3.91c-17.03,12.68-52.46,39.05-97.53,71.77-15.23,11.05-43.58,31.63-81.69,55.81-20.06,12.73-30.13,19.12-39.43,23.87-35.22,18.02-75.14,38.44-109.78,26.8-21.64-7.27-35.45-28.41-62.96-70.54-1.92-2.94-4.35-6.75-7.16-11.16-9.65-15.14-24.23-38.01-43.41-65.36-4.77-6.8-13.65-19.45-29.64-29.38-9.08-5.64-19.12-9.64-29.94-11.95v3.08Z"/>
      <path class="cls-33" d="m0,131.56c10.22,2.25,19.72,6.07,28.32,11.41,15.47,9.61,23.79,21.47,28.76,28.56,19.14,27.28,33.69,50.12,43.32,65.23,2.82,4.43,5.26,8.25,7.19,11.21,27.89,42.7,41.89,64.13,64.52,71.74,35.84,12.04,76.36-8.68,112.11-26.97,9.42-4.82,19.54-11.24,39.69-24.02,38.16-24.22,66.56-44.83,81.82-55.91,45.13-32.76,80.54-59.12,97.56-71.79l5.25-3.91c21.29-15.85,38.31-28.52,52.8-38.79v-3.68c-14.9,10.51-32.45,23.58-54.59,40.07l-5.25,3.91c-17.01,12.67-52.41,39.02-97.53,71.77-15.23,11.06-43.58,31.63-81.67,55.8-20.07,12.74-30.15,19.13-39.45,23.89-35.22,18.02-75.14,38.44-109.79,26.8-21.64-7.27-35.45-28.41-62.96-70.54-1.92-2.94-4.36-6.76-7.17-11.18-9.65-15.13-24.22-38-43.4-65.34-4.77-6.8-13.65-19.45-29.64-29.38-9.07-5.63-19.09-9.63-29.9-11.94v3.08Z"/>
      <path class="cls-36" d="m0,119.78c10.21,2.25,19.69,6.07,28.27,11.4,15.47,9.61,23.79,21.47,28.76,28.56,19.14,27.28,33.69,50.12,43.33,65.23,2.82,4.43,5.26,8.25,7.19,11.21,27.89,42.7,41.89,64.13,64.52,71.74,35.84,12.04,76.36-8.68,112.11-26.97,9.42-4.82,19.54-11.24,39.69-24.02,38.17-24.22,66.56-44.83,81.82-55.91,45.13-32.76,80.54-59.12,97.56-71.79l5.25-3.91c21.31-15.87,38.34-28.55,52.84-38.83v-3.68c-14.91,10.52-32.47,23.59-54.64,40.1l-5.25,3.91c-17.01,12.67-52.41,39.02-97.53,71.77-15.23,11.06-43.58,31.63-81.67,55.8-20.07,12.74-30.15,19.13-39.44,23.89-35.22,18.02-75.14,38.44-109.79,26.8-21.64-7.27-35.45-28.41-62.96-70.54-1.92-2.94-4.36-6.76-7.17-11.18-9.65-15.13-24.22-38-43.4-65.34-4.77-6.8-13.65-19.45-29.64-29.38-9.05-5.62-19.07-9.62-29.85-11.93v3.08Z"/>
      <path class="cls-37" d="m0,107.99c10.19,2.26,19.65,6.07,28.22,11.39,15.47,9.61,23.79,21.47,28.76,28.56,19.14,27.28,33.69,50.12,43.33,65.23,2.82,4.43,5.26,8.25,7.19,11.21,27.89,42.7,41.89,64.13,64.52,71.74,35.84,12.04,76.36-8.68,112.11-26.97,9.42-4.82,19.53-11.23,39.69-24.02,38.15-24.2,66.56-44.83,81.82-55.91,45.13-32.76,80.54-59.12,97.56-71.79l5.26-3.91c21.33-15.88,38.37-28.57,52.88-38.85v-3.68c-14.92,10.52-32.49,23.61-54.67,40.12l-5.25,3.91c-17.01,12.67-52.41,39.02-97.53,71.77-15.24,11.06-43.6,31.65-81.68,55.81-20.07,12.73-30.14,19.13-39.44,23.88-35.22,18.02-75.14,38.44-109.78,26.8-21.64-7.27-35.45-28.41-62.96-70.54-1.92-2.94-4.36-6.76-7.17-11.18-9.65-15.13-24.22-38-43.4-65.34-4.77-6.8-13.65-19.45-29.64-29.38-9.04-5.61-19.04-9.61-29.8-11.92v3.08Z"/>
      <path class="cls-9" d="m0,96.21c10.17,2.26,19.62,6.07,28.17,11.38,15.47,9.61,23.79,21.47,28.76,28.56,19.15,27.29,33.7,50.13,43.34,65.25,2.82,4.42,5.25,8.23,7.18,11.19,27.89,42.7,41.89,64.13,64.52,71.73,35.84,12.04,76.36-8.68,112.11-26.97,9.42-4.82,19.54-11.24,39.69-24.02,38.16-24.21,66.56-44.83,81.82-55.91,45.13-32.76,80.54-59.12,97.56-71.79l5.26-3.91c21.35-15.9,38.41-28.6,52.93-38.89v-3.68c-14.93,10.53-32.51,23.62-54.72,40.16l-5.25,3.91c-17.01,12.67-52.41,39.02-97.53,71.77-15.23,11.06-43.59,31.64-81.67,55.8-20.07,12.74-30.15,19.13-39.45,23.89-35.22,18.02-75.14,38.44-109.78,26.8-21.64-7.27-35.45-28.41-62.96-70.54-1.92-2.94-4.35-6.75-7.16-11.16-9.65-15.14-24.23-38.01-43.41-65.36-4.77-6.8-13.65-19.45-29.64-29.38-9.03-5.61-19.01-9.59-29.76-11.9v3.08Z"/>
      <path class="cls-13" d="m0,84.42c10.15,2.26,19.58,6.06,28.13,11.37,15.47,9.61,23.79,21.47,28.76,28.56,19.15,27.29,33.7,50.13,43.34,65.25,2.82,4.42,5.25,8.23,7.18,11.19,27.89,42.7,41.89,64.13,64.52,71.74,35.84,12.04,76.36-8.68,112.11-26.97,9.41-4.82,19.52-11.23,39.69-24.02,38.16-24.21,66.56-44.83,81.82-55.91,45.07-32.71,80.52-59.11,97.56-71.79l5.25-3.91c21.38-15.92,38.45-28.63,52.98-38.92v-3.68c-14.94,10.53-32.54,23.64-54.77,40.19l-5.25,3.91c-17.04,12.68-52.48,39.07-97.53,71.77-15.23,11.06-43.59,31.64-81.7,55.82-20.06,12.73-30.12,19.11-39.41,23.87-35.22,18.02-75.14,38.44-109.79,26.8-21.64-7.27-35.45-28.41-62.96-70.53-1.92-2.94-4.35-6.75-7.16-11.16-9.65-15.14-24.23-38.01-43.41-65.36-4.77-6.8-13.65-19.45-29.64-29.38-9.01-5.6-18.98-9.58-29.71-11.89v3.08Z"/>
      <path class="cls-8" d="m0,72.64c10.13,2.26,19.55,6.06,28.08,11.36,15.47,9.61,23.79,21.47,28.76,28.56,19.14,27.28,33.69,50.12,43.33,65.23,2.82,4.43,5.26,8.25,7.19,11.21,27.89,42.7,41.9,64.14,64.52,71.74,35.84,12.04,76.36-8.68,112.11-26.97,9.42-4.82,19.53-11.24,39.69-24.02,38.16-24.22,66.56-44.83,81.82-55.91,45.07-32.71,80.52-59.11,97.56-71.79l5.24-3.9c21.4-15.94,38.49-28.66,53.03-38.96v-3.68c-14.95,10.54-32.57,23.66-54.83,40.23l-5.24,3.9c-17.04,12.68-52.48,39.07-97.53,71.77-15.23,11.06-43.58,31.63-81.67,55.8-20.08,12.74-30.15,19.13-39.45,23.89-35.22,18.02-75.14,38.44-109.79,26.8-21.64-7.27-35.45-28.41-62.96-70.53-1.92-2.94-4.36-6.76-7.17-11.18-9.65-15.13-24.22-38-43.4-65.34-4.77-6.8-13.64-19.45-29.64-29.38-9-5.59-18.95-9.57-29.66-11.88v3.08Z"/>
      <path class="cls-10" d="m0,60.85c10.11,2.26,19.52,6.06,28.03,11.35,15.47,9.6,23.79,21.47,28.76,28.56,19.14,27.28,33.69,50.11,43.32,65.22,2.82,4.43,5.26,8.25,7.19,11.21,27.89,42.7,41.89,64.14,64.52,71.74,35.84,12.04,76.36-8.68,112.11-26.97,9.42-4.82,19.53-11.24,39.69-24.02,38.15-24.21,66.56-44.83,81.82-55.91,45-32.67,80.5-59.09,97.56-71.79l5.25-3.91c21.42-15.95,38.52-28.68,53.07-38.99v-3.68c-14.96,10.55-32.59,23.67-54.86,40.26l-5.25,3.91c-17.05,12.7-52.54,39.12-97.53,71.77-15.24,11.06-43.6,31.64-81.67,55.8-20.07,12.74-30.15,19.13-39.44,23.89-35.22,18.02-75.14,38.44-109.79,26.8-21.64-7.27-35.45-28.41-62.96-70.54-1.92-2.95-4.36-6.76-7.18-11.19-9.64-15.13-24.22-38-43.4-65.33-4.77-6.8-13.65-19.45-29.64-29.38-8.99-5.58-18.92-9.56-29.62-11.87v3.08Z"/>
      <path class="cls-31" d="m0,49.06c10.1,2.26,19.48,6.06,27.99,11.34,15.47,9.61,23.79,21.47,28.76,28.56,19.14,27.28,33.69,50.11,43.32,65.22,2.82,4.43,5.26,8.25,7.19,11.21,27.89,42.7,41.89,64.14,64.52,71.74,35.84,12.04,76.36-8.68,112.11-26.97,9.42-4.82,19.54-11.24,39.69-24.02,38.15-24.21,66.56-44.83,81.82-55.91,45.07-32.71,80.52-59.11,97.56-71.79l5.25-3.91c21.45-15.97,38.56-28.71,53.12-39.02v-3.68c-14.97,10.55-32.61,23.69-54.91,40.29l-5.25,3.91c-17.03,12.68-52.48,39.07-97.53,71.77-15.24,11.06-43.6,31.64-81.67,55.8-20.07,12.74-30.15,19.13-39.45,23.89-35.22,18.02-75.14,38.44-109.78,26.8-21.64-7.27-35.45-28.41-62.96-70.54-1.92-2.95-4.36-6.76-7.18-11.19-9.64-15.13-24.22-38-43.4-65.33-4.77-6.8-13.65-19.45-29.64-29.38-8.98-5.57-18.89-9.55-29.57-11.86v3.08Z"/>
      <path class="cls-21" d="m0,37.28c10.08,2.26,19.45,6.05,27.94,11.32,15.47,9.61,23.79,21.47,28.76,28.56,19.14,27.29,33.7,50.13,43.33,65.24,2.82,4.42,5.25,8.24,7.18,11.19,27.89,42.7,41.89,64.14,64.52,71.74,35.84,12.04,76.36-8.68,112.11-26.97,9.41-4.82,19.52-11.23,39.69-24.02,38.17-24.22,66.57-44.83,81.82-55.91,45.06-32.71,80.52-59.1,97.56-71.79l5.25-3.91c21.47-15.99,38.59-28.74,53.17-39.06V0c-14.98,10.56-32.63,23.7-54.96,40.32l-5.25,3.91c-17.04,12.68-52.48,39.07-97.53,71.77-15.23,11.05-43.58,31.63-81.7,55.82-20.06,12.73-30.12,19.11-39.41,23.87-35.22,18.02-75.14,38.44-109.78,26.8-21.64-7.27-35.45-28.41-62.96-70.54-1.92-2.94-4.35-6.75-7.16-11.17-9.65-15.13-24.22-38.01-43.41-65.35-4.77-6.8-13.65-19.45-29.64-29.38-8.96-5.56-18.86-9.53-29.52-11.85v3.08Z"/>
    </g>
  </g>
</svg>