<?xml version="1.0" encoding="UTF-8"?><svg id="Camada_2" xmlns="http://www.w3.org/2000/svg" viewBox="0 0 184.62 184.62"><defs><style>.cls-1{fill:#fff;}.cls-2{fill:#ea438f;}</style></defs><g id="Camada_1-2"><g><circle class="cls-2" cx="92.31" cy="92.31" r="92.31"/><path class="cls-1" d="M150.54,59.24c.78-1.36,.63-3.05-.36-4.26-1-1.2-2.64-1.67-4.11-1.15-33.31,11.53-50.6-26.2-89.97,4.79l-2.61-9.72c-.54-2-2.6-3.19-4.59-2.65-2,.54-3.18,2.6-2.65,4.59l26.23,97.43c.54,2.02,2.62,3.18,4.59,2.65,2-.54,3.19-2.59,2.65-4.59l-8.61-31.98c23.74-42.35,59.91-21.18,79.44-55.11Zm-82.11,45.19l-10.19-37.86c34.14-28.94,48.31,.41,79.94-3.26-17.49,17.74-47.08,7.65-69.75,41.11Z"/></g></g></svg>