<svg xmlns="http://www.w3.org/2000/svg" xmlns:xlink="http://www.w3.org/1999/xlink" viewBox="0 0 248.32 268.44"><defs><style>.cls-1{fill:#fff;}.cls-2{fill:#ee7203;}.cls-3{fill:url(#Gradiente_sem_nome_4);}.cls-4{fill:url(#Gradiente_sem_nome_9);}.cls-5{fill:none;stroke:#fff;stroke-linecap:round;stroke-linejoin:round;stroke-width:3px;}</style><linearGradient id="Gradiente_sem_nome_4" x1="40.91" y1="121.89" x2="594.79" y2="121.89" gradientUnits="userSpaceOnUse"><stop offset="0" stop-color="#035e53"/><stop offset="1" stop-color="#cddb70"/></linearGradient><linearGradient id="Gradiente_sem_nome_9" x1="-228.2" y1="-1820.94" x2="-227.31" y2="-1820.94" gradientTransform="matrix(-270.96, 0, 0, 270.96, -61588.46, 493553.02)" gradientUnits="userSpaceOnUse"><stop offset="0" stop-color="#bbd034"/><stop offset="1" stop-color="#035e53"/></linearGradient></defs><g id="Camada_2" data-name="Camada 2"><g id="Camada_1-2" data-name="Camada 1"><path class="cls-1" d="M177.51,0H1.49V4.18H26.42L25.16,177v.5a67.05,67.05,0,0,0,67.06,67h85.29a67.13,67.13,0,0,0,67.06-67.06V67.06A67.13,67.13,0,0,0,177.51,0Zm62.87,177.51a63,63,0,0,1-62.87,62.88H92.22a62.89,62.89,0,0,1-62.88-62.86c0-.16,0-.32,0-.48L30.61,4.18h146.9a63,63,0,0,1,62.87,62.88Z"/><path class="cls-2" d="M248.32,115.14a5.85,5.85,0,1,1-5.84-5.85,5.84,5.84,0,0,1,5.84,5.85"/><path class="cls-3" d="M40.91,16.39H167.45a62.33,62.33,0,0,1,62.33,62.33v93.54a55.13,55.13,0,0,1-55.13,55.13h-81a52.72,52.72,0,0,1-52.72-52.72V16.39A0,0,0,0,1,40.91,16.39Z"/><path class="cls-4" d="M66.21,264.57A58.43,58.43,0,0,1,7.93,206.28V28.62H4.05V206.28a62.22,62.22,0,0,0,62.16,62.16H187.63v-3.87Z"/><path class="cls-2" d="M0,115.14a5.42,5.42,0,1,1,5.42,5.42A5.42,5.42,0,0,1,0,115.14"/><path class="cls-1" d="M69.67,179.68l-.59,4.26h6.1l-.57,4.1H68.5l-.8,5.71H62.89l2.55-18.18h12l-.57,4.11Z"/><path class="cls-1" d="M84.71,175.57l-2.54,18.18H77.36l2.55-18.18Z"/><path class="cls-1" d="M101.13,175.86l-1,3.92a11.54,11.54,0,0,0-3.07-.39,5.75,5.75,0,0,0-6.1,6c0,2.91,1.77,4.6,4.91,4.6a11.05,11.05,0,0,0,2.83-.39l.6,3.79a15.1,15.1,0,0,1-4.86.78A8.18,8.18,0,0,1,86,185.6c0-6,4.31-10.39,10.62-10.39A15.2,15.2,0,0,1,101.13,175.86Z"/><path class="cls-1" d="M117.23,193.39l0,.36h-4.73l-.39-2.78h-5.61l-1.19,2.78h-5l.06-.36,8.1-17.82h5.71ZM111.51,187l-.83-6-2.54,6Z"/><path class="cls-1" d="M140.27,193.39l-.06.36h-4.72L135.1,191h-5.61l-1.2,2.78h-5l0-.36,8.11-17.82h5.71ZM134.55,187l-.83-6-2.54,6Z"/><path class="cls-1" d="M164.89,183.42c0,6.41-3.9,10.33-10,10.33h-7.2l2.55-18.18h6C161.43,175.57,164.89,178.74,164.89,183.42Zm-4.94.23c0-2.39-1.56-4-4.26-4h-1.22l-1.4,10h1.69C157.9,189.65,160,187.52,160,183.65Z"/><path class="cls-1" d="M173.54,175.57,171,193.75h-4.8l2.54-18.18Z"/><path class="cls-1" d="M190,175.86l-1,3.92a11.42,11.42,0,0,0-3.06-.39,5.75,5.75,0,0,0-6.1,6c0,2.91,1.76,4.6,4.9,4.6a11.18,11.18,0,0,0,2.84-.39l.59,3.79a15,15,0,0,1-4.85.78,8.18,8.18,0,0,1-8.42-8.52c0-6,4.31-10.39,10.62-10.39A15.16,15.16,0,0,1,190,175.86Z"/><path class="cls-1" d="M206.05,193.39l-.05.36h-4.72l-.39-2.78h-5.61l-1.2,2.78h-5l.05-.36,8.1-17.82h5.72ZM200.34,187l-.83-6L197,187Z"/><line class="cls-5" x1="135.35" y1="40.09" x2="135.35" y2="59.99"/><line class="cls-5" x1="96.65" y1="56.12" x2="110.72" y2="70.19"/><line class="cls-5" x1="80.62" y1="94.82" x2="100.52" y2="94.82"/><line class="cls-5" x1="96.65" y1="133.52" x2="110.72" y2="119.44"/><line class="cls-5" x1="174.05" y1="133.52" x2="159.97" y2="119.44"/><line class="cls-5" x1="190.08" y1="94.82" x2="170.18" y2="94.82"/><line class="cls-5" x1="174.05" y1="56.12" x2="159.97" y2="70.19"/><polyline class="cls-5" points="145.3 149.55 142.81 149.55 140.32 152.04 135.35 152.04 130.37 152.04 127.88 149.55 125.4 149.55"/><line class="cls-5" x1="120.42" y1="134.62" x2="150.27" y2="134.62"/><line class="cls-5" x1="122.91" y1="142.09" x2="147.79" y2="142.09"/><path class="cls-5" d="M147.79,129.65v-5a16.56,16.56,0,0,1,4.68-11.82c4.7-4.79,7.76-10.72,7.76-18a24.88,24.88,0,0,0-49.76,0c0,7.31,3.06,13.24,7.76,18a16.56,16.56,0,0,1,4.68,11.82v5"/><line class="cls-5" x1="135.35" y1="129.65" x2="135.35" y2="109.74"/><polyline class="cls-5" points="130.37 104.77 135.35 109.74 140.32 104.77"/><line class="cls-5" x1="118.21" y1="53.45" x2="122.02" y2="62.64"/><line class="cls-5" x1="93.98" y1="77.68" x2="103.17" y2="81.49"/><line class="cls-5" x1="93.98" y1="111.95" x2="103.17" y2="108.15"/><line class="cls-5" x1="176.72" y1="111.95" x2="167.52" y2="108.15"/><line class="cls-5" x1="176.72" y1="77.68" x2="167.52" y2="81.49"/><line class="cls-5" x1="152.48" y1="53.45" x2="148.68" y2="62.64"/></g></g></svg>