<svg xmlns="http://www.w3.org/2000/svg" viewBox="0 0 273.56 273.56"><defs><style>.cls-1{fill:#0b5f55;}.cls-2{fill:#b1cd4e;}</style></defs><g id="Camada_2" data-name="Camada 2"><g id="Camada_1-2" data-name="Camada 1"><circle class="cls-1" cx="136.78" cy="136.78" r="136.78"/><path class="cls-2" d="M146,32.67a101.61,101.61,0,0,1,64.56,27.78C251.9,99.65,253,165.53,213.1,207.6S107.33,252,66,212.8,23.58,107.71,63.5,65.64a105.83,105.83,0,0,1,63.09-32.25l-.25-14.74a120.65,120.65,0,0,0-73.4,37c-45.56,48-44.28,123.2,2.87,167.94s122.3,42.08,167.86-5.93,44.27-123.2-2.87-167.94a116,116,0,0,0-75-31.76Z"/></g></g></svg>