<?xml version="1.0" encoding="UTF-8"?><svg id="Camada_2" xmlns="http://www.w3.org/2000/svg" viewBox="0 0 594.45 30.82"><defs><style>.cls-1{fill:#fff;}</style></defs><g id="Desktop"><path class="cls-1" d="m241.76,21.87c0-1.2-.37-2.19-1.12-2.99s-1.67-1.2-2.79-1.2c-.75,0-1.47.17-2.14.5-.67.33-1.16.67-1.47,1.02l-.42.49-.88-.86c.06-.06.13-.14.22-.26.09-.12.29-.32.61-.6s.65-.53,1.01-.75c.36-.22.82-.42,1.38-.59.56-.17,1.13-.26,1.7-.26,1.49,0,2.73.53,3.72,1.58.99,1.05,1.49,2.36,1.49,3.92v8.67h-1.3v-2.31c-.04.08-.1.17-.19.29-.09.12-.29.33-.59.62-.31.3-.64.56-1,.8-.36.24-.83.44-1.42.62s-1.21.27-1.87.27c-1.33,0-2.43-.39-3.3-1.16s-1.31-1.69-1.31-2.73.38-2,1.13-2.77c.75-.76,1.77-1.24,3.06-1.42l5.49-.86Zm-1.45,6.21c.96-.96,1.45-2.16,1.45-3.61v-1.3l-5.21.86c-2.12.35-3.18,1.31-3.18,2.89,0,.7.31,1.3.94,1.82.62.52,1.42.78,2.38.78,1.45,0,2.66-.48,3.62-1.44Z"/><path class="cls-1" d="m258.38,28.08c-.04.08-.09.18-.16.3-.07.13-.24.34-.52.65-.28.31-.58.58-.91.82-.33.24-.78.46-1.35.66-.57.2-1.18.3-1.84.3-1.6,0-2.94-.56-4.02-1.67-1.08-1.12-1.62-2.53-1.62-4.24v-8.24h1.3v8.24c0,1.35.41,2.45,1.24,3.32.83.87,1.86,1.3,3.09,1.3,1.31,0,2.43-.49,3.37-1.46.94-.97,1.4-2.17,1.4-3.59v-7.8h1.31v13.87h-1.31v-2.46Z"/><path class="cls-1" d="m275.43,10.3h1.3v20.24h-1.3v-2.75c-.04.08-.11.18-.2.32s-.31.38-.64.74c-.32.36-.68.67-1.07.92s-.89.5-1.5.72c-.62.22-1.26.33-1.94.33-1.69,0-3.2-.71-4.52-2.12-1.32-1.42-1.98-3.11-1.98-5.09s.66-3.68,1.98-5.1c1.32-1.42,2.83-2.13,4.52-2.13.68,0,1.32.11,1.94.33.62.22,1.12.47,1.52.75.39.29.74.58,1.04.88.3.3.51.55.66.77l.2.32v-9.12Zm-1.62,9.11c-1.08-1.15-2.32-1.73-3.73-1.73-1.33,0-2.53.58-3.6,1.74s-1.61,2.55-1.61,4.18.54,3.02,1.61,4.18,2.27,1.74,3.6,1.74c1.41,0,2.66-.58,3.73-1.73,1.08-1.15,1.62-2.55,1.62-4.19s-.54-3.04-1.62-4.19Z"/><path class="cls-1" d="m281.94,11.03c.19-.19.43-.29.72-.29s.53.1.72.29c.19.19.29.43.29.73s-.1.53-.29.72c-.19.19-.43.28-.72.28s-.53-.09-.72-.28c-.19-.19-.29-.43-.29-.72s.1-.53.29-.73Zm0,5.64h1.3v13.87h-1.3v-13.87Z"/><path class="cls-1" d="m289.33,18.48c1.37-1.41,3-2.11,4.88-2.11s3.51.7,4.88,2.11c1.37,1.41,2.05,3.11,2.05,5.12s-.68,3.71-2.05,5.12c-1.37,1.41-3,2.11-4.88,2.11s-3.51-.7-4.88-2.11c-1.37-1.41-2.05-3.11-2.05-5.12s.68-3.71,2.05-5.12Zm8.86.93c-1.11-1.15-2.43-1.73-3.97-1.73s-2.87.58-3.98,1.73-1.67,2.55-1.67,4.19.56,3.04,1.67,4.19,2.44,1.73,3.98,1.73,2.87-.58,3.97-1.73,1.66-2.55,1.66-4.19-.55-3.04-1.66-4.19Z"/><path class="cls-1" d="m306.49,19.42c.04-.08.11-.18.2-.32s.31-.38.63-.74c.33-.36.68-.67,1.07-.92.39-.26.89-.5,1.5-.73s1.26-.34,1.94-.34c1.69,0,3.2.71,4.52,2.13,1.32,1.42,1.98,3.12,1.98,5.1s-.66,3.68-1.98,5.09c-1.32,1.42-2.83,2.12-4.52,2.12-.68,0-1.32-.11-1.94-.32s-1.12-.46-1.52-.75c-.39-.29-.74-.58-1.04-.88-.3-.3-.51-.56-.64-.76l-.21-.32v2.75h-1.3V10.3h1.3v9.12Zm1.62,8.38c1.08,1.15,2.32,1.73,3.73,1.73,1.33,0,2.53-.58,3.6-1.74,1.07-1.16,1.61-2.55,1.61-4.18s-.54-3.02-1.61-4.18c-1.07-1.16-2.27-1.74-3.6-1.74-1.41,0-2.66.58-3.73,1.73-1.08,1.15-1.62,2.55-1.62,4.19s.54,3.04,1.62,4.19Z"/><path class="cls-1" d="m323.28,18.48c1.37-1.41,3-2.11,4.88-2.11s3.51.7,4.88,2.11c1.37,1.41,2.05,3.11,2.05,5.12s-.68,3.71-2.05,5.12c-1.37,1.41-3,2.11-4.88,2.11s-3.51-.7-4.88-2.11c-1.37-1.41-2.05-3.11-2.05-5.12s.68-3.71,2.05-5.12Zm8.86.93c-1.11-1.15-2.43-1.73-3.97-1.73s-2.87.58-3.98,1.73-1.67,2.55-1.67,4.19.56,3.04,1.67,4.19,2.44,1.73,3.98,1.73,2.87-.58,3.97-1.73,1.66-2.55,1.66-4.19-.55-3.04-1.66-4.19Z"/><path class="cls-1" d="m340.04,18.48c1.37-1.41,3-2.11,4.88-2.11s3.51.7,4.88,2.11c1.37,1.41,2.05,3.11,2.05,5.12s-.68,3.71-2.05,5.12c-1.37,1.41-3,2.11-4.88,2.11s-3.51-.7-4.88-2.11c-1.37-1.41-2.05-3.11-2.05-5.12s.68-3.71,2.05-5.12Zm8.86.93c-1.11-1.15-2.43-1.73-3.97-1.73s-2.87.58-3.98,1.73-1.67,2.55-1.67,4.19.56,3.04,1.67,4.19,2.44,1.73,3.98,1.73,2.87-.58,3.97-1.73,1.66-2.55,1.66-4.19-.55-3.04-1.66-4.19Z"/><path class="cls-1" d="m357.2,30.54h-1.3V10.3h1.3v14.61l7.66-8.24h1.74l-5.21,5.63,5.93,8.24h-1.59l-5.19-7.23h-.14l-3.19,3.47v3.75Z"/><path class="cls-1" d="m581.11,27.89c-3.89,0-5.55-2.94-7.47-6.34-1.3-2.3-3.26-5.79-5.55-5.79s-3.85,3.47-4.9,5.77c-1.56,3.41-2.9,6.36-6.83,6.36-2.08,0-3.38-1.08-4.64-3.85-.97-2.15-1.76-5.05-2.53-7.86-.74-2.71-1.5-5.51-2.42-7.62-1.36-3.1-2.59-3.43-2.8-3.46-.21.03-1.44.37-2.79,3.47-.92,2.1-1.68,4.91-2.41,7.62-.76,2.81-1.54,5.71-2.51,7.86-1.25,2.77-2.55,3.85-4.63,3.85-3.92,0-5.29-2.98-7.02-6.76-.73-1.58-1.48-3.21-2.4-4.41-1.27-1.64-2.38-1.77-2.69-1.77s-1.43.13-2.77,1.77c-.98,1.19-1.79,2.83-2.57,4.41-1.88,3.77-3.36,6.75-7.27,6.75-3.68,0-5.42-1.16-6.96-2.18-1.47-.97-2.73-1.81-5.24-1.81s-3.93.88-5.42,1.82c-1.62,1.02-3.46,2.17-7.12,2.17-3.45,0-4.66-3.31-6.77-13.92-.64-3.2-1.29-6.51-2.13-9.01-1.16-3.47-2.28-4.13-2.69-4.25-.42.12-1.58.77-2.95,4.24-.98,2.5-1.83,5.82-2.65,9.03-2.72,10.61-4.11,13.91-7.55,13.91-3.89,0-5.24-2.41-6.79-5.21-1.09-1.96-2.58-4.65-4.87-4.65s-4.21,2.7-5.59,4.67c-1.95,2.79-3.63,5.19-7.48,5.19s-5.26-2.86-7.45-7.52c-.83-1.77-1.69-3.6-2.7-4.94-1.44-1.91-2.6-2-2.82-2s-1.35.1-2.63,1.99c-.9,1.34-1.6,3.17-2.29,4.94-1.8,4.67-3.1,7.53-6.85,7.53s-5.47-1.07-7.09-2.01c-1.54-.9-2.88-1.68-5.42-1.68s-3.8.78-5.27,1.68c-1.55.95-3.3,2.02-6.96,2.02s-5.42-.99-7-1.87c-1.5-.83-2.8-1.55-5.36-1.55-.54,0-.98-.16-.98-.35s.44-.35.98-.35c3.62,0,5.42.99,7,1.87,1.5.83,2.8,1.55,5.36,1.55s3.8-.78,5.27-1.68c1.55-.95,3.3-2.02,6.96-2.02s5.47,1.07,7.09,2.01c1.54.9,2.88,1.68,5.42,1.68.22,0,1.35-.1,2.63-1.99.9-1.34,1.6-3.17,2.29-4.94,1.8-4.67,3.1-7.53,6.85-7.53s5.26,2.86,7.45,7.52c.83,1.77,1.69,3.6,2.7,4.94,1.44,1.91,2.6,2,2.82,2,2.33,0,4.21-2.7,5.59-4.67,1.95-2.79,3.63-5.19,7.48-5.19s5.24,2.41,6.79,5.21c1.08,1.95,2.56,4.61,4.82,4.65.37-.08,1.57-.63,3-4.25.98-2.5,1.83-5.82,2.65-9.03,2.72-10.61,4.11-13.91,7.55-13.91s4.66,3.31,6.77,13.92c.64,3.2,1.29,6.51,2.13,9.01,1.21,3.62,2.37,4.18,2.74,4.26,2.49-.01,3.89-.89,5.36-1.82,1.62-1.02,3.46-2.17,7.12-2.17s5.42,1.16,6.96,2.18c1.47.97,2.73,1.81,5.24,1.81.31,0,1.43-.13,2.77-1.77.97-1.19,1.79-2.83,2.57-4.41,1.88-3.77,3.36-6.75,7.27-6.75s5.29,2.98,7.02,6.76c.73,1.58,1.48,3.21,2.4,4.41,1.27,1.64,2.38,1.77,2.69,1.77.12-.02,1.39-.25,2.79-3.47.92-2.1,1.68-4.91,2.41-7.62.76-2.81,1.54-5.71,2.51-7.86,1.25-2.77,2.55-3.85,4.63-3.85s3.38,1.08,4.64,3.85c.97,2.15,1.76,5.05,2.53,7.86.74,2.71,1.5,5.51,2.42,7.62,1.41,3.22,2.68,3.45,2.82,3.47,2.24,0,3.83-3.47,4.88-5.77,1.56-3.41,2.9-6.36,6.83-6.36s5.55,2.94,7.47,6.34c1.3,2.3,3.26,5.79,5.55,5.79,2.65,0,3.95-.53,5.45-1.14,1.59-.65,3.38-1.38,6.92-1.38.54,0,.98.16.98.35s-.44.35-.98.35c-2.65,0-3.95.53-5.45,1.14-1.59.65-3.38,1.38-6.92,1.38Z"/><path class="cls-1" d="m211.22,27.89c-3.89,0-5.55-2.94-7.47-6.34-1.3-2.3-3.26-5.79-5.55-5.79s-3.85,3.47-4.9,5.77c-1.56,3.41-2.9,6.36-6.83,6.36-2.08,0-3.38-1.08-4.64-3.85-.97-2.15-1.76-5.05-2.53-7.86-.74-2.71-1.5-5.51-2.42-7.62-1.36-3.1-2.59-3.43-2.8-3.46-.21.03-1.44.37-2.79,3.47-.92,2.1-1.68,4.91-2.41,7.62-.76,2.81-1.54,5.71-2.51,7.86-1.25,2.77-2.55,3.85-4.63,3.85-3.92,0-5.29-2.98-7.02-6.76-.73-1.58-1.48-3.21-2.4-4.41-1.27-1.64-2.38-1.77-2.69-1.77s-1.43.13-2.77,1.77c-.98,1.19-1.79,2.83-2.57,4.41-1.88,3.77-3.36,6.75-7.27,6.75-3.68,0-5.42-1.16-6.96-2.18-1.47-.97-2.73-1.81-5.24-1.81s-3.93.88-5.42,1.82c-1.62,1.02-3.46,2.17-7.12,2.17-3.45,0-4.66-3.31-6.77-13.92-.64-3.2-1.29-6.51-2.13-9.01-1.16-3.47-2.28-4.13-2.69-4.25-.42.12-1.58.77-2.95,4.24-.98,2.5-1.83,5.82-2.65,9.03-2.72,10.61-4.11,13.91-7.55,13.91-3.89,0-5.24-2.41-6.79-5.21-1.09-1.96-2.58-4.65-4.87-4.65s-4.21,2.7-5.59,4.67c-1.95,2.79-3.63,5.19-7.48,5.19s-5.26-2.86-7.45-7.52c-.83-1.77-1.69-3.6-2.7-4.94-1.44-1.91-2.6-2-2.82-2s-1.35.1-2.63,1.99c-.9,1.34-1.6,3.17-2.29,4.94-1.8,4.67-3.1,7.53-6.85,7.53s-5.47-1.07-7.09-2.01c-1.54-.9-2.88-1.68-5.42-1.68s-3.8.78-5.27,1.68c-1.55.95-3.3,2.02-6.96,2.02s-5.42-.99-7-1.87c-1.5-.83-2.8-1.55-5.36-1.55-.54,0-.98-.16-.98-.35s.44-.35.98-.35c3.62,0,5.42.99,7,1.87,1.5.83,2.8,1.55,5.36,1.55s3.8-.78,5.27-1.68c1.55-.95,3.3-2.02,6.96-2.02s5.47,1.07,7.09,2.01c1.54.9,2.88,1.68,5.42,1.68.22,0,1.35-.1,2.63-1.99.9-1.34,1.6-3.17,2.29-4.94,1.8-4.67,3.1-7.53,6.85-7.53s5.26,2.86,7.45,7.52c.83,1.77,1.69,3.6,2.7,4.94,1.44,1.91,2.6,2,2.82,2,2.33,0,4.21-2.7,5.59-4.67,1.95-2.79,3.63-5.19,7.48-5.19s5.24,2.41,6.79,5.21c1.08,1.95,2.56,4.61,4.82,4.65.37-.08,1.57-.63,3-4.25.98-2.5,1.83-5.82,2.65-9.03,2.72-10.61,4.11-13.91,7.55-13.91s4.66,3.31,6.77,13.92c.64,3.2,1.29,6.51,2.13,9.01,1.21,3.62,2.37,4.18,2.74,4.26,2.49-.01,3.89-.89,5.36-1.82,1.62-1.02,3.46-2.17,7.12-2.17s5.42,1.16,6.96,2.18c1.47.97,2.73,1.81,5.24,1.81.31,0,1.43-.13,2.77-1.77.97-1.19,1.79-2.83,2.57-4.41,1.88-3.77,3.36-6.75,7.27-6.75s5.29,2.98,7.02,6.76c.73,1.58,1.48,3.21,2.4,4.41,1.27,1.64,2.38,1.77,2.69,1.77.12-.02,1.39-.25,2.79-3.47.92-2.1,1.68-4.91,2.41-7.62.76-2.81,1.54-5.71,2.51-7.86,1.25-2.77,2.55-3.85,4.63-3.85s3.38,1.08,4.64,3.85c.97,2.15,1.76,5.05,2.53,7.86.74,2.71,1.5,5.51,2.42,7.62,1.41,3.22,2.68,3.45,2.82,3.47,2.24,0,3.83-3.47,4.88-5.77,1.56-3.41,2.9-6.36,6.83-6.36s5.55,2.94,7.47,6.34c1.3,2.3,3.26,5.79,5.55,5.79,2.65,0,3.95-.53,5.45-1.14,1.59-.65,3.38-1.38,6.92-1.38.54,0,.98.16.98.35s-.44.35-.98.35c-2.65,0-3.95.53-5.45,1.14-1.59.65-3.38,1.38-6.92,1.38Z"/></g></svg>