<?xml version="1.0" encoding="UTF-8"?><svg xmlns="http://www.w3.org/2000/svg" viewBox="0 0 382.9 278.86"><defs><style>.d{fill:#b1cd4e;}.e{fill:#0b5f55;}.f{fill:none;stroke:#b1cd4e;stroke-miterlimit:10;stroke-width:2.83px;}</style></defs><g id="a"/><g id="b"><g id="c"><g><g><path class="d" d="M.11,205.33c-2.11-35.42,25-65.95,60.42-68.06l311.51-18.53,.19,3.14L60.72,140.41C27.03,142.41,1.25,171.45,3.25,205.15c2,33.69,31.04,59.47,64.74,57.47l.19,3.14C32.75,267.86,2.22,240.76,.11,205.33Z"/><circle class="d" cx="71.3" cy="264.09" r="14.77"/><path class="d" d="M372.77,130.97c-5.93,.35-11.03-4.17-11.38-10.1-.35-5.93,4.17-11.03,10.1-11.38,5.93-.35,11.03,4.17,11.38,10.1,.35,5.93-4.17,11.03-10.1,11.38Z"/></g><circle class="e" cx="200.11" cy="136.78" r="136.78"/><circle class="f" cx="200.11" cy="136.78" r="112.2"/></g></g></g></svg>