<svg xmlns="http://www.w3.org/2000/svg" viewBox="0 0 273.56 473.86"><defs><style>.cls-1{fill:#b1cd4e;}.cls-2{fill:#0b5f55;}</style></defs><g id="Camada_2" data-name="Camada 2"><g id="Camada_1-2" data-name="Camada 1"><path class="cls-1" d="M127.36,463.08a10.76,10.76,0,1,1,10.74,10.78A10.75,10.75,0,0,1,127.36,463.08Z"/><circle class="cls-2" cx="136.78" cy="136.78" r="136.78"/><path class="cls-1" d="M127.53,240.88A101.56,101.56,0,0,1,63,213.11C21.66,173.9,20.53,108,60.45,66s105.78-44.4,147.09-5.19S250,165.84,210.05,207.91A105.72,105.72,0,0,1,147,240.16l.25,14.75a120.73,120.73,0,0,0,73.41-37c45.56-48,44.27-123.2-2.87-167.94S95.45,7.91,49.89,55.93,5.61,179.13,52.76,223.86a115.94,115.94,0,0,0,75,31.77Z"/><rect class="cls-1" x="135.67" y="311.35" width="4.9" height="15" rx="2.45"/><rect class="cls-1" x="135.67" y="328.97" width="4.9" height="15" rx="2.45"/><rect class="cls-1" x="135.67" y="346.59" width="4.9" height="15" rx="2.45"/><rect class="cls-1" x="135.67" y="364.22" width="4.9" height="15" rx="2.45"/><rect class="cls-1" x="135.67" y="381.84" width="4.9" height="15" rx="2.45"/><rect class="cls-1" x="135.67" y="399.46" width="4.9" height="15" rx="2.45"/><rect class="cls-1" x="135.67" y="417.08" width="4.9" height="15" rx="2.45"/><rect class="cls-1" x="135.67" y="434.7" width="4.9" height="15" rx="2.45"/><path class="cls-1" d="M147.15,286.21a12.56,12.56,0,0,0-6.59-3.29v1.63a11.13,11.13,0,0,1,5.48,2.83,11.5,11.5,0,1,1-16.11.57,11.73,11.73,0,0,1,5.18-3.16v-1.65a13.14,13.14,0,0,0-6.33,3.72,12.88,12.88,0,1,0,18.37-.65Z"/></g></g></svg>