<?xml version="1.0" encoding="UTF-8"?>
<svg id="Camada_2" data-name="Camada 2" xmlns="http://www.w3.org/2000/svg" viewBox="0 0 993.5 861.52">
  <defs>
    <style>
      .cls-1 {
        fill: #e5669b;
      }

      .cls-2 {
        fill: #06c;
      }

      .cls-3 {
        fill: #950048;
      }

      .cls-4 {
        fill: #dc3379;
      }

      .cls-5 {
        fill: #d1d3d4;
      }

      .cls-6 {
        fill: #e6e7e8;
      }

      .cls-7 {
        fill: #001e43;
      }

      .cls-8 {
        fill: #9edae9;
      }

      .cls-9 {
        fill: #f6ccde;
      }
    </style>
  </defs>
  <g id="Camada_1-2" data-name="Camada 1">
    <g>
      <g>
        <path class="cls-3" d="m447.42,12.38v.25c0,5.95-2.92,8.87-8.47,8.87s-8.47-2.92-8.47-8.87v-.25c0-5.95,2.9-8.87,8.47-8.87s8.47,2.92,8.47,8.87Zm-5.27,5.85c1.55-1,2.15-2.9,2.15-5.5v-.45c0-2.6-.6-4.5-2.15-5.5-.8-.5-1.85-.77-3.2-.77s-2.4.27-3.2.77c-1.55,1-2.15,2.9-2.15,5.5v.45c0,2.6.6,4.5,2.15,5.5.8.5,1.85.77,3.2.77s2.4-.27,3.2-.77Z"/>
        <path class="cls-3" d="m456.92,3.75h12.62v2.57h-9.57v4.62h8.62v2.57h-8.62v5.15h9.8v2.57h-12.85V3.75Z"/>
        <path class="cls-3" d="m487.84,21.25h-3.62l-6.32-10.35c-.7-1.22-1.3-2.3-1.9-3.6h-.08c.12,1.47.17,2.82.17,4.27v9.67h-3V3.75h3.62l6.32,10.35c.7,1.22,1.3,2.3,1.88,3.6h.08c-.12-1.47-.12-2.82-.12-4.27V3.75h2.97v17.5Z"/>
        <path class="cls-3" d="m507.44,21.25h-3.15l-1.7-4.47h-7.42l-1.7,4.47h-3l6.95-17.5h3.1l6.92,17.5Zm-11.32-6.95h5.52l-1.55-4.12c-.45-1.15-.83-2.35-1.15-3.55h-.1c-.33,1.2-.7,2.38-1.12,3.52l-1.6,4.15Z"/>
        <path class="cls-3" d="m525.14,12.63c0,6.42-2.57,8.62-8.87,8.62h-6.2V3.75h6.2c6.3,0,8.87,2.2,8.87,8.62v.25Zm-3.12-.35c0-4.6-1.38-5.95-5.87-5.95h-3v12.35h3c4.5,0,5.87-1.35,5.87-5.95v-.45Z"/>
        <path class="cls-3" d="m528.75,3.75h12.62v2.57h-9.57v4.62h8.62v2.57h-8.62v5.15h9.8v2.57h-12.85V3.75Z"/>
        <path class="cls-3" d="m550.8,3.75h12.62v2.57h-9.57v4.62h8.62v2.57h-8.62v5.15h9.8v2.57h-12.85V3.75Z"/>
        <path class="cls-3" d="m576.8,13.38c-2.82-.6-4.67-1.65-4.67-5.05s1.85-4.82,6.55-4.82c2.5,0,4.45.4,5.77.83l-.53,2.27c-1.25-.38-2.87-.62-4.97-.62-2.95,0-3.85.58-3.85,2.32,0,1.85.97,2.15,3.1,2.6l2.55.52c3,.62,4.47,1.67,4.47,4.95,0,3.7-2,5.12-6.85,5.12-2.62,0-4.85-.4-6.37-1l.5-2.25c1.65.55,3.85.78,5.8.78,2.9,0,3.92-.7,3.92-2.45s-.8-2.22-2.88-2.67l-2.55-.52Z"/>
        <path class="cls-3" d="m591.35,20.62c-1.92-1-2.75-2.87-2.75-5.62V3.75h3.12v11.02c0,3,1.1,4.05,4.3,4.05s4.32-1.05,4.32-4.05V3.75h3.02v11.25c0,2.75-.78,4.62-2.7,5.62-1.15.6-2.67.88-4.7.88s-3.45-.28-4.62-.88Z"/>
        <path class="cls-3" d="m622.69,21.25h-3.15l-1.7-4.47h-7.42l-1.7,4.47h-3l6.95-17.5h3.1l6.92,17.5Zm-11.32-6.95h5.52l-1.55-4.12c-.45-1.15-.83-2.35-1.15-3.55h-.1c-.33,1.2-.7,2.38-1.12,3.52l-1.6,4.15Z"/>
        <path class="cls-3" d="m431.25,33.75h3.05v17.5h-3.05v-17.5Z"/>
        <path class="cls-3" d="m449.32,47.98h-2.87l-3.57-7.72c-.42-1.05-.85-2.17-1.22-3.3h-.1c.08,1.22.12,2.45.12,3.62v10.67h-2.97v-17.5h4.27l3.7,8.1c.48,1.1.92,2.2,1.3,3.35h.08c.35-1.15.8-2.27,1.27-3.35l3.7-8.1h4.17v17.5h-3.07v-10.67c0-1.2.03-2.42.1-3.65h-.1c-.35,1.12-.77,2.22-1.25,3.27l-3.55,7.77Z"/>
        <path class="cls-3" d="m461.5,33.75h7.72c4.8,0,6.47,1.92,6.47,5.57s-1.67,5.72-6.47,5.72h-4.67v6.2h-3.05v-17.5Zm3.05,2.5v6.35h4.42c2.75,0,3.62-.88,3.62-3.17s-.85-3.17-3.62-3.17h-4.42Z"/>
        <path class="cls-3" d="m495.22,42.38v.25c0,5.95-2.92,8.87-8.47,8.87s-8.47-2.92-8.47-8.87v-.25c0-5.95,2.9-8.87,8.47-8.87s8.47,2.92,8.47,8.87Zm-5.27,5.85c1.55-1,2.15-2.9,2.15-5.5v-.45c0-2.6-.6-4.5-2.15-5.5-.8-.5-1.85-.77-3.2-.77s-2.4.27-3.2.77c-1.55,1-2.15,2.9-2.15,5.5v.45c0,2.6.6,4.5,2.15,5.5.8.5,1.85.77,3.2.77s2.4-.27,3.2-.77Z"/>
        <path class="cls-3" d="m506.2,44.93h-4.3v6.32h-3.05v-17.5h7.77c4.77,0,6.47,1.95,6.47,5.55,0,2.8-1.12,4.65-3.82,5.35l4.42,6.6h-3.3l-4.2-6.32Zm-4.3-8.67v6.17h4.52c2.75,0,3.6-.88,3.6-3.1s-.85-3.07-3.6-3.07h-4.52Z"/>
        <path class="cls-3" d="m523.65,36.3v14.95h-3.05v-14.95h-5.5v-2.55h14.07v2.55h-5.52Z"/>
        <path class="cls-3" d="m545.32,51.25h-3.15l-1.7-4.47h-7.42l-1.7,4.47h-3l6.95-17.5h3.1l6.92,17.5Zm-3.87-18.92h-2.37l-2.25-1.82-2.22,1.82h-2.4l3.2-3.6h2.85l3.2,3.6Zm-7.45,11.97h5.52l-1.55-4.12c-.45-1.15-.83-2.35-1.15-3.55h-.1c-.33,1.2-.7,2.38-1.12,3.52l-1.6,4.15Z"/>
        <path class="cls-3" d="m562.69,51.25h-3.62l-6.32-10.35c-.7-1.22-1.3-2.3-1.9-3.6h-.08c.12,1.47.17,2.82.17,4.27v9.67h-3v-17.5h3.62l6.32,10.35c.7,1.22,1.3,2.3,1.88,3.6h.08c-.12-1.47-.12-2.82-.12-4.27v-9.67h2.97v17.5Z"/>
        <path class="cls-3" d="m566.32,42.38c0-3.55,1.02-6.2,3.32-7.65,1.3-.8,3-1.22,5.2-1.22s4.1.4,5.3.9l-.55,2.32c-1.27-.4-2.67-.6-4.27-.6s-2.92.27-3.82.87c-1.42.95-2.05,2.7-2.05,5.27v.45c0,2.55.62,4.3,2.05,5.25.92.62,2.17.9,3.9.9,1.6,0,3.02-.22,4.3-.62l.55,2.33c-1.22.52-3.17.92-5.32.92s-3.95-.42-5.27-1.25c-2.27-1.45-3.32-4.1-3.32-7.62v-.25Z"/>
        <path class="cls-3" d="m583.62,33.75h3.05v17.5h-3.05v-17.5Z"/>
        <path class="cls-3" d="m606.37,51.25h-3.15l-1.7-4.47h-7.42l-1.7,4.47h-3l6.95-17.5h3.1l6.92,17.5Zm-11.32-6.95h5.52l-1.55-4.12c-.45-1.15-.83-2.35-1.15-3.55h-.1c-.33,1.2-.7,2.38-1.12,3.52l-1.6,4.15Z"/>
        <path class="cls-3" d="m431.15,63.75h7.72c4.8,0,6.47,1.92,6.47,5.57s-1.67,5.72-6.47,5.72h-4.67v6.2h-3.05v-17.5Zm3.05,2.5v6.35h4.42c2.75,0,3.62-.88,3.62-3.17s-.85-3.17-3.62-3.17h-4.42Z"/>
        <path class="cls-3" d="m462.57,81.25h-3.15l-1.7-4.47h-7.42l-1.7,4.47h-3l6.95-17.5h3.1l6.92,17.5Zm-11.32-6.95h5.52l-1.55-4.12c-.45-1.15-.83-2.35-1.15-3.55h-.1c-.33,1.2-.7,2.38-1.12,3.52l-1.6,4.15Z"/>
        <path class="cls-3" d="m472.55,74.93h-4.3v6.32h-3.05v-17.5h7.77c4.77,0,6.47,1.95,6.47,5.55,0,2.8-1.12,4.65-3.82,5.35l4.42,6.6h-3.3l-4.2-6.32Zm-4.3-8.67v6.17h4.52c2.75,0,3.6-.88,3.6-3.1s-.85-3.07-3.6-3.07h-4.52Z"/>
        <path class="cls-3" d="m497.92,81.25h-3.15l-1.7-4.47h-7.42l-1.7,4.47h-3l6.95-17.5h3.1l6.92,17.5Zm-11.32-6.95h5.52l-1.55-4.12c-.45-1.15-.83-2.35-1.15-3.55h-.1c-.33,1.2-.7,2.38-1.12,3.52l-1.6,4.15Z"/>
        <path class="cls-3" d="m521.72,81.25h-3.15l-1.7-4.47h-7.42l-1.7,4.47h-3l6.95-17.5h3.1l6.92,17.5Zm-11.32-6.95h5.52l-1.55-4.12c-.45-1.15-.83-2.35-1.15-3.55h-.1c-.33,1.2-.7,2.38-1.12,3.52l-1.6,4.15Z"/>
        <path class="cls-3" d="m530.32,63.75h3.05v17.5h-3.05v-17.5Z"/>
        <path class="cls-3" d="m537.77,63.75h12.62v2.57h-9.57v4.62h8.62v2.57h-8.62v5.15h9.8v2.57h-12.85v-17.5Z"/>
        <path class="cls-3" d="m557.9,73.38c-2.82-.6-4.67-1.65-4.67-5.05s1.85-4.82,6.55-4.82c2.5,0,4.45.4,5.77.83l-.53,2.27c-1.25-.38-2.87-.62-4.97-.62-2.95,0-3.85.58-3.85,2.32,0,1.85.97,2.15,3.1,2.6l2.55.52c3,.62,4.47,1.67,4.47,4.95,0,3.7-2,5.12-6.85,5.12-2.62,0-4.85-.4-6.37-1l.5-2.25c1.65.55,3.85.78,5.8.78,2.9,0,3.92-.7,3.92-2.45s-.8-2.22-2.88-2.67l-2.55-.52Z"/>
      </g>
      <g>
        <path class="cls-3" d="m719.42,150.38v.25c0,5.95-2.92,8.87-8.47,8.87s-8.47-2.92-8.47-8.87v-.25c0-5.95,2.9-8.87,8.47-8.87s8.47,2.92,8.47,8.87Zm-5.27,5.85c1.55-1,2.15-2.9,2.15-5.5v-.45c0-2.6-.6-4.5-2.15-5.5-.8-.5-1.85-.77-3.2-.77s-2.4.27-3.2.77c-1.55,1-2.15,2.9-2.15,5.5v.45c0,2.6.6,4.5,2.15,5.5.8.5,1.85.77,3.2.77s2.4-.27,3.2-.77Z"/>
        <path class="cls-3" d="m728.25,150.38c0-3.55,1.02-6.2,3.32-7.65,1.3-.8,3-1.22,5.2-1.22s4.1.4,5.3.9l-.55,2.32c-1.27-.4-2.67-.6-4.27-.6s-2.92.27-3.82.87c-1.42.95-2.05,2.7-2.05,5.27v.45c0,2.55.62,4.3,2.05,5.25.92.62,2.17.9,3.9.9,1.6,0,3.02-.22,4.3-.62l.55,2.33c-1.22.52-3.17.92-5.32.92s-3.95-.42-5.27-1.25c-2.27-1.45-3.32-4.1-3.32-7.62v-.25Z"/>
        <path class="cls-3" d="m745.55,141.75h3.05v17.5h-3.05v-17.5Z"/>
        <path class="cls-3" d="m752.32,150.38c0-3.55,1.02-6.2,3.32-7.65,1.3-.8,3-1.22,5.2-1.22s4.1.4,5.3.9l-.55,2.32c-1.27-.4-2.67-.6-4.27-.6s-2.92.27-3.82.87c-1.42.95-2.05,2.7-2.05,5.27v.45c0,2.55.62,4.3,2.05,5.25.92.62,2.17.9,3.9.9,1.6,0,3.02-.22,4.3-.62l.55,2.33c-1.22.52-3.17.92-5.32.92s-3.95-.42-5.27-1.25c-2.27-1.45-3.32-4.1-3.32-7.62v-.25Z"/>
        <path class="cls-3" d="m769.52,141.75h3.07v14.92h8.82v2.57h-11.9v-17.5Z"/>
        <path class="cls-3" d="m800.47,150.38v.25c0,5.95-2.92,8.87-8.47,8.87s-8.47-2.92-8.47-8.87v-.25c0-5.95,2.9-8.87,8.47-8.87s8.47,2.92,8.47,8.87Zm-5.27,5.85c1.55-1,2.15-2.9,2.15-5.5v-.45c0-2.6-.6-4.5-2.15-5.5-.8-.5-1.85-.77-3.2-.77s-2.4.27-3.2.77c-1.55,1-2.15,2.9-2.15,5.5v.45c0,2.6.6,4.5,2.15,5.5.8.5,1.85.77,3.2.77s2.4-.27,3.2-.77Z"/>
        <path class="cls-3" d="m710.35,174.3v14.95h-3.05v-14.95h-5.5v-2.55h14.07v2.55h-5.52Z"/>
        <path class="cls-3" d="m726.15,182.93h-4.3v6.32h-3.05v-17.5h7.77c4.77,0,6.47,1.95,6.47,5.55,0,2.8-1.12,4.65-3.82,5.35l4.42,6.6h-3.3l-4.2-6.32Zm-4.3-8.67v6.17h4.52c2.75,0,3.6-.88,3.6-3.1s-.85-3.07-3.6-3.07h-4.52Z"/>
        <path class="cls-3" d="m736.77,171.75h3.05v17.5h-3.05v-17.5Z"/>
        <path class="cls-3" d="m744.22,171.75h12.62v2.57h-9.57v4.62h8.62v2.57h-8.62v5.15h9.8v2.57h-12.85v-17.5Z"/>
        <path class="cls-3" d="m775.14,189.25h-3.62l-6.32-10.35c-.7-1.22-1.3-2.3-1.9-3.6h-.08c.12,1.47.17,2.82.17,4.27v9.67h-3v-17.5h3.62l6.32,10.35c.7,1.22,1.3,2.3,1.88,3.6h.08c-.12-1.47-.12-2.82-.12-4.27v-9.67h2.97v17.5Z"/>
        <path class="cls-3" d="m794.74,189.25h-3.15l-1.7-4.47h-7.42l-1.7,4.47h-3l6.95-17.5h3.1l6.92,17.5Zm-11.32-6.95h5.52l-1.55-4.12c-.45-1.15-.83-2.35-1.15-3.55h-.1c-.33,1.2-.7,2.38-1.12,3.52l-1.6,4.15Z"/>
        <path class="cls-3" d="m797.37,171.75h3.07v14.92h8.82v2.57h-11.9v-17.5Z"/>
        <path class="cls-3" d="m833.32,180.63c0,6.42-2.57,8.62-8.87,8.62h-6.2v-17.5h6.2c6.3,0,8.87,2.2,8.87,8.62v.25Zm-3.12-.35c0-4.6-1.38-5.95-5.87-5.95h-3v12.35h3c4.5,0,5.87-1.35,5.87-5.95v-.45Z"/>
        <path class="cls-3" d="m853.19,180.38v.25c0,5.95-2.92,8.87-8.47,8.87s-8.47-2.92-8.47-8.87v-.25c0-5.95,2.9-8.87,8.47-8.87s8.47,2.92,8.47,8.87Zm-5.27,5.85c1.55-1,2.15-2.9,2.15-5.5v-.45c0-2.6-.6-4.5-2.15-5.5-.8-.5-1.85-.77-3.2-.77s-2.4.27-3.2.77c-1.55,1-2.15,2.9-2.15,5.5v.45c0,2.6.6,4.5,2.15,5.5.8.5,1.85.77,3.2.77s2.4-.27,3.2-.77Z"/>
        <path class="cls-3" d="m703.15,201.75h12.62v2.57h-9.57v4.62h8.62v2.57h-8.62v5.15h9.8v2.57h-12.85v-17.5Z"/>
        <path class="cls-3" d="m734.07,219.25h-3.62l-6.32-10.35c-.7-1.22-1.3-2.3-1.9-3.6h-.08c.12,1.47.17,2.82.17,4.27v9.67h-3v-17.5h3.62l6.32,10.35c.7,1.22,1.3,2.3,1.88,3.6h.08c-.12-1.47-.12-2.82-.12-4.27v-9.67h2.97v17.5Z"/>
        <path class="cls-3" d="m753.67,219.25h-3.15l-1.7-4.47h-7.42l-1.7,4.47h-3l6.95-17.5h3.1l6.92,17.5Zm-11.32-6.95h5.52l-1.55-4.12c-.45-1.15-.83-2.35-1.15-3.55h-.1c-.33,1.2-.7,2.38-1.12,3.52l-1.6,4.15Z"/>
        <path class="cls-3" d="m771.37,210.63c0,6.42-2.57,8.62-8.87,8.62h-6.2v-17.5h6.2c6.3,0,8.87,2.2,8.87,8.62v.25Zm-3.12-.35c0-4.6-1.38-5.95-5.87-5.95h-3v12.35h3c4.5,0,5.87-1.35,5.87-5.95v-.45Z"/>
        <path class="cls-3" d="m774.97,201.75h12.62v2.57h-9.57v4.62h8.62v2.57h-8.62v5.15h9.8v2.57h-12.85v-17.5Z"/>
      </g>
      <g>
        <path class="cls-3" d="m778.22,508.63c0,6.42-2.57,8.62-8.87,8.62h-6.2v-17.5h6.2c6.3,0,8.87,2.2,8.87,8.62v.25Zm-3.12-.35c0-4.6-1.38-5.95-5.87-5.95h-3v12.35h3c4.5,0,5.87-1.35,5.87-5.95v-.45Z"/>
        <path class="cls-3" d="m781.82,499.75h12.62v2.57h-9.57v4.62h8.62v2.57h-8.62v5.15h9.8v2.57h-12.85v-17.5Z"/>
        <path class="cls-3" d="m808.62,513.98h-2.87l-3.57-7.72c-.42-1.05-.85-2.17-1.22-3.3h-.1c.08,1.22.12,2.45.12,3.62v10.67h-2.97v-17.5h4.27l3.7,8.1c.48,1.1.92,2.2,1.3,3.35h.08c.35-1.15.8-2.27,1.27-3.35l3.7-8.1h4.17v17.5h-3.07v-10.67c0-1.2.03-2.42.1-3.65h-.1c-.35,1.12-.77,2.22-1.25,3.27l-3.55,7.77Z"/>
        <path class="cls-3" d="m836.09,517.25h-3.15l-1.7-4.47h-7.42l-1.7,4.47h-3l6.95-17.5h3.1l6.92,17.5Zm-11.32-6.95h5.52l-1.55-4.12c-.45-1.15-.83-2.35-1.15-3.55h-.1c-.33,1.2-.7,2.38-1.12,3.52l-1.6,4.15Z"/>
        <path class="cls-3" d="m838.82,499.75h3.05v17.5h-3.05v-17.5Z"/>
        <path class="cls-3" d="m850.22,509.38c-2.82-.6-4.67-1.65-4.67-5.05s1.85-4.82,6.55-4.82c2.5,0,4.45.4,5.77.83l-.53,2.27c-1.25-.38-2.87-.62-4.97-.62-2.95,0-3.85.58-3.85,2.32,0,1.85.97,2.15,3.1,2.6l2.55.52c3,.62,4.47,1.67,4.47,4.95,0,3.7-2,5.12-6.85,5.12-2.62,0-4.85-.4-6.37-1l.5-2.25c1.65.55,3.85.78,5.8.78,2.9,0,3.92-.7,3.92-2.45s-.8-2.22-2.88-2.67l-2.55-.52Z"/>
        <path class="cls-3" d="m763.25,529.75h3.05v17.5h-3.05v-17.5Z"/>
        <path class="cls-3" d="m785.45,547.25h-3.62l-6.32-10.35c-.7-1.22-1.3-2.3-1.9-3.6h-.08c.12,1.47.17,2.82.17,4.27v9.67h-3v-17.5h3.62l6.32,10.35c.7,1.22,1.3,2.3,1.88,3.6h.08c-.12-1.47-.12-2.82-.12-4.27v-9.67h2.97v17.5Z"/>
        <path class="cls-3" d="m804.82,538.63c0,6.42-2.57,8.62-8.87,8.62h-6.2v-17.5h6.2c6.3,0,8.87,2.2,8.87,8.62v.25Zm-3.12-.35c0-4.6-1.38-5.95-5.87-5.95h-3v12.35h3c4.5,0,5.87-1.35,5.87-5.95v-.45Z"/>
        <path class="cls-3" d="m808.52,529.75h3.05v17.5h-3.05v-17.5Z"/>
        <path class="cls-3" d="m815.3,538.38c0-3.55,1.02-6.2,3.32-7.65,1.3-.8,3-1.22,5.2-1.22s4.1.4,5.3.9l-.55,2.32c-1.27-.4-2.67-.6-4.27-.6s-2.92.27-3.82.87c-1.42.95-2.05,2.7-2.05,5.27v.45c0,2.55.62,4.3,2.05,5.25.92.62,2.17.9,3.9.9,1.6,0,3.02-.22,4.3-.62l.55,2.33c-1.22.52-3.17.92-5.32.92s-3.95-.42-5.27-1.25c-2.27-1.45-3.32-4.1-3.32-7.62v-.25Z"/>
        <path class="cls-3" d="m847.79,547.25h-3.15l-1.7-4.47h-7.42l-1.7,4.47h-3l6.95-17.5h3.1l6.92,17.5Zm-11.32-6.95h5.52l-1.55-4.12c-.45-1.15-.83-2.35-1.15-3.55h-.1c-.33,1.2-.7,2.38-1.12,3.52l-1.6,4.15Z"/>
        <path class="cls-3" d="m865.49,538.63c0,6.42-2.57,8.62-8.87,8.62h-6.2v-17.5h6.2c6.3,0,8.87,2.2,8.87,8.62v.25Zm-3.12-.35c0-4.6-1.38-5.95-5.87-5.95h-3v12.35h3c4.5,0,5.87-1.35,5.87-5.95v-.45Z"/>
        <path class="cls-3" d="m885.37,538.38v.25c0,5.95-2.92,8.87-8.47,8.87s-8.47-2.92-8.47-8.87v-.25c0-5.95,2.9-8.87,8.47-8.87s8.47,2.92,8.47,8.87Zm-5.27,5.85c1.55-1,2.15-2.9,2.15-5.5v-.45c0-2.6-.6-4.5-2.15-5.5-.8-.5-1.85-.77-3.2-.77s-2.4.27-3.2.77c-1.55,1-2.15,2.9-2.15,5.5v.45c0,2.6.6,4.5,2.15,5.5.8.5,1.85.77,3.2.77s2.4-.27,3.2-.77Z"/>
        <path class="cls-3" d="m896.35,540.93h-4.3v6.32h-3.05v-17.5h7.77c4.77,0,6.47,1.95,6.47,5.55,0,2.8-1.12,4.65-3.82,5.35l4.42,6.6h-3.3l-4.2-6.32Zm-4.3-8.67v6.17h4.52c2.75,0,3.6-.88,3.6-3.1s-.85-3.07-3.6-3.07h-4.52Z"/>
        <path class="cls-3" d="m906.87,529.75h12.62v2.57h-9.57v4.62h8.62v2.57h-8.62v5.15h9.8v2.57h-12.85v-17.5Z"/>
        <path class="cls-3" d="m927,539.38c-2.82-.6-4.67-1.65-4.67-5.05s1.85-4.82,6.55-4.82c2.5,0,4.45.4,5.77.83l-.53,2.27c-1.25-.38-2.87-.62-4.97-.62-2.95,0-3.85.58-3.85,2.32,0,1.85.97,2.15,3.1,2.6l2.55.52c3,.62,4.47,1.67,4.47,4.95,0,3.7-2,5.12-6.85,5.12-2.62,0-4.85-.4-6.37-1l.5-2.25c1.65.55,3.85.78,5.8.78,2.9,0,3.92-.7,3.92-2.45s-.8-2.22-2.88-2.67l-2.55-.52Z"/>
        <path class="cls-3" d="m959.84,538.63c0,6.42-2.57,8.62-8.87,8.62h-6.2v-17.5h6.2c6.3,0,8.87,2.2,8.87,8.62v.25Zm-3.12-.35c0-4.6-1.38-5.95-5.87-5.95h-3v12.35h3c4.5,0,5.87-1.35,5.87-5.95v-.45Z"/>
        <path class="cls-3" d="m963.45,529.75h12.62v2.57h-9.57v4.62h8.62v2.57h-8.62v5.15h9.8v2.57h-12.85v-17.5Z"/>
        <path class="cls-3" d="m778.45,577.25h-3.15l-1.7-4.47h-7.42l-1.7,4.47h-3l6.95-17.5h3.1l6.92,17.5Zm-11.32-6.95h5.52l-1.55-4.12c-.45-1.15-.83-2.35-1.15-3.55h-.1c-.33,1.2-.7,2.38-1.12,3.52l-1.6,4.15Z"/>
        <path class="cls-3" d="m777.82,559.75h3.2l3.97,10.92c.42,1.17.77,2.45,1.05,3.62h.1c.28-1.17.65-2.45,1.08-3.62l3.95-10.92h3.1l-6.65,17.5h-3.15l-6.65-17.5Z"/>
        <path class="cls-3" d="m810.62,577.25h-3.15l-1.7-4.47h-7.42l-1.7,4.47h-3l6.95-17.5h3.1l6.92,17.5Zm-11.32-6.95h5.52l-1.55-4.12c-.45-1.15-.83-2.35-1.15-3.55h-.1c-.33,1.2-.7,2.38-1.12,3.52l-1.6,4.15Z"/>
        <path class="cls-3" d="m813.25,559.75h3.07v14.92h8.82v2.57h-11.9v-17.5Z"/>
        <path class="cls-3" d="m828.35,559.75h3.05v17.5h-3.05v-17.5Z"/>
        <path class="cls-3" d="m851.1,577.25h-3.15l-1.7-4.47h-7.42l-1.7,4.47h-3l6.95-17.5h3.1l6.92,17.5Zm-11.32-6.95h5.52l-1.55-4.12c-.45-1.15-.83-2.35-1.15-3.55h-.1c-.33,1.2-.7,2.38-1.12,3.52l-1.6,4.15Z"/>
        <path class="cls-3" d="m858.87,577.32c-1.15-.2-2.12-.55-2.95-1.07-2.27-1.45-3.32-4.1-3.32-7.62v-.25c0-3.55,1.02-6.2,3.32-7.65,1.3-.8,3-1.22,5.2-1.22s4.1.4,5.3.9l-.55,2.32c-1.27-.4-2.67-.6-4.27-.6s-2.92.27-3.82.87c-1.42.95-2.05,2.7-2.05,5.27v.45c0,2.55.62,4.3,2.05,5.25.92.62,2.17.9,3.9.9,1.6,0,3.02-.22,4.3-.62l.55,2.33c-1.22.52-3.17.92-5.32.92-.27,0-.52,0-.77-.03l-.05.9c1.62.05,2.52.5,2.52,1.82,0,1.55-1.03,2.2-2.97,2.2-.92,0-1.72-.17-2.07-.3l.22-1.3c.35.1.9.17,1.52.17.95,0,1.28-.22,1.28-.77,0-.67-.55-.83-2.3-.83l.3-2.05Z"/>
        <path class="cls-3" d="m885.09,577.25h-3.15l-1.7-4.47h-7.42l-1.7,4.47h-3l6.95-17.5h3.1l6.92,17.5Zm-8.42-19.37l-.5-.28c-.52-.25-1.02-.5-1.5-.5-.78,0-.92.45-1,1.22h-2.02c.1-2.15.83-3.37,2.8-3.37.78,0,1.5.3,2.08.6l.52.28c.53.25,1,.5,1.5.5.75,0,.9-.45,1-1.22h2.02c-.15,2.15-.83,3.37-2.8,3.37-.8,0-1.5-.3-2.1-.6Zm-2.9,12.42h5.52l-1.55-4.12c-.45-1.15-.83-2.35-1.15-3.55h-.1c-.33,1.2-.7,2.38-1.12,3.52l-1.6,4.15Z"/>
        <path class="cls-3" d="m903.55,568.38v.25c0,5.95-2.92,8.87-8.47,8.87s-8.47-2.92-8.47-8.87v-.25c0-5.95,2.9-8.87,8.47-8.87s8.47,2.92,8.47,8.87Zm-5.27,5.85c1.55-1,2.15-2.9,2.15-5.5v-.45c0-2.6-.6-4.5-2.15-5.5-.8-.5-1.85-.77-3.2-.77s-2.4.27-3.2.77c-1.55,1-2.15,2.9-2.15,5.5v.45c0,2.6.6,4.5,2.15,5.5.8.5,1.85.77,3.2.77s2.4-.27,3.2-.77Z"/>
        <path class="cls-3" d="m928.12,568.63c0,6.42-2.57,8.62-8.87,8.62h-6.2v-17.5h6.2c6.3,0,8.87,2.2,8.87,8.62v.25Zm-3.12-.35c0-4.6-1.38-5.95-5.87-5.95h-3v12.35h3c4.5,0,5.87-1.35,5.87-5.95v-.45Z"/>
        <path class="cls-3" d="m946.57,577.25h-3.15l-1.7-4.47h-7.42l-1.7,4.47h-3l6.95-17.5h3.1l6.92,17.5Zm-11.32-6.95h5.52l-1.55-4.12c-.45-1.15-.83-2.35-1.15-3.55h-.1c-.33,1.2-.7,2.38-1.12,3.52l-1.6,4.15Z"/>
        <path class="cls-3" d="m955.17,559.75h3.05v17.5h-3.05v-17.5Z"/>
        <path class="cls-3" d="m962.62,559.75h12.62v2.57h-9.57v4.62h8.62v2.57h-8.62v5.15h9.8v2.57h-12.85v-17.5Z"/>
        <path class="cls-3" d="m982.75,569.38c-2.82-.6-4.67-1.65-4.67-5.05s1.85-4.82,6.55-4.82c2.5,0,4.45.4,5.77.83l-.53,2.27c-1.25-.38-2.87-.62-4.97-.62-2.95,0-3.85.58-3.85,2.32,0,1.85.98,2.15,3.1,2.6l2.55.52c3,.62,4.47,1.67,4.47,4.95,0,3.7-2,5.12-6.85,5.12-2.62,0-4.85-.4-6.37-1l.5-2.25c1.65.55,3.85.78,5.8.78,2.9,0,3.92-.7,3.92-2.45s-.8-2.22-2.88-2.67l-2.55-.52Z"/>
      </g>
      <g>
        <path class="cls-3" d="m601.45,748.25h-3.15l-1.7-4.47h-7.42l-1.7,4.47h-3l6.95-17.5h3.1l6.92,17.5Zm-11.32-6.95h5.52l-1.55-4.12c-.45-1.15-.83-2.35-1.15-3.55h-.1c-.33,1.2-.7,2.38-1.12,3.52l-1.6,4.15Z"/>
        <path class="cls-3" d="m609.95,730.75h7.72c4.8,0,6.47,1.92,6.47,5.57s-1.67,5.72-6.47,5.72h-4.67v6.2h-3.05v-17.5Zm3.05,2.5v6.35h4.42c2.75,0,3.62-.88,3.62-3.17s-.85-3.17-3.62-3.17h-4.42Z"/>
        <path class="cls-3" d="m634.75,741.93h-4.3v6.32h-3.05v-17.5h7.77c4.77,0,6.47,1.95,6.47,5.55,0,2.8-1.12,4.65-3.82,5.35l4.42,6.6h-3.3l-4.2-6.32Zm-4.3-8.67v6.17h4.52c2.75,0,3.6-.88,3.6-3.1s-.85-3.07-3.6-3.07h-4.52Z"/>
        <path class="cls-3" d="m661.4,739.38v.25c0,5.95-2.92,8.87-8.47,8.87s-8.47-2.92-8.47-8.87v-.25c0-5.95,2.9-8.87,8.47-8.87s8.47,2.92,8.47,8.87Zm-5.27,5.85c1.55-1,2.15-2.9,2.15-5.5v-.45c0-2.6-.6-4.5-2.15-5.5-.8-.5-1.85-.77-3.2-.77s-2.4.27-3.2.77c-1.55,1-2.15,2.9-2.15,5.5v.45c0,2.6.6,4.5,2.15,5.5.8.5,1.85.77,3.2.77s2.4-.27,3.2-.77Z"/>
        <path class="cls-3" d="m663.05,730.75h3.2l3.97,10.92c.42,1.17.77,2.45,1.05,3.62h.1c.28-1.17.65-2.45,1.08-3.62l3.95-10.92h3.1l-6.65,17.5h-3.15l-6.65-17.5Z"/>
        <path class="cls-3" d="m695.85,748.25h-3.15l-1.7-4.47h-7.42l-1.7,4.47h-3l6.95-17.5h3.1l6.92,17.5Zm-11.32-6.95h5.52l-1.55-4.12c-.45-1.15-.83-2.35-1.15-3.55h-.1c-.33,1.2-.7,2.38-1.12,3.52l-1.6,4.15Z"/>
        <path class="cls-3" d="m719.42,739.63c0,6.42-2.57,8.62-8.87,8.62h-6.2v-17.5h6.2c6.3,0,8.87,2.2,8.87,8.62v.25Zm-3.12-.35c0-4.6-1.38-5.95-5.87-5.95h-3v12.35h3c4.5,0,5.87-1.35,5.87-5.95v-.45Z"/>
        <path class="cls-3" d="m739.3,739.38v.25c0,5.95-2.92,8.87-8.47,8.87s-8.47-2.92-8.47-8.87v-.25c0-5.95,2.9-8.87,8.47-8.87s8.47,2.92,8.47,8.87Zm-5.27,5.85c1.55-1,2.15-2.9,2.15-5.5v-.45c0-2.6-.6-4.5-2.15-5.5-.8-.5-1.85-.77-3.2-.77s-2.4.27-3.2.77c-1.55,1-2.15,2.9-2.15,5.5v.45c0,2.6.6,4.5,2.15,5.5.8.5,1.85.77,3.2.77s2.4-.27,3.2-.77Z"/>
        <path class="cls-3" d="m748.8,730.75h12.62v2.57h-9.57v4.62h8.62v2.57h-8.62v5.15h9.8v2.57h-12.85v-17.5Z"/>
        <path class="cls-3" d="m779.72,748.25h-3.62l-6.32-10.35c-.7-1.22-1.3-2.3-1.9-3.6h-.08c.12,1.47.17,2.82.17,4.27v9.67h-3v-17.5h3.62l6.32,10.35c.7,1.22,1.3,2.3,1.88,3.6h.08c-.12-1.47-.12-2.82-.12-4.27v-9.67h2.97v17.5Z"/>
        <path class="cls-3" d="m799.32,748.25h-3.15l-1.7-4.47h-7.42l-1.7,4.47h-3l6.95-17.5h3.1l6.92,17.5Zm-11.32-6.95h5.52l-1.55-4.12c-.45-1.15-.83-2.35-1.15-3.55h-.1c-.33,1.2-.7,2.38-1.12,3.52l-1.6,4.15Z"/>
        <path class="cls-3" d="m817.02,739.63c0,6.42-2.57,8.62-8.87,8.62h-6.2v-17.5h6.2c6.3,0,8.87,2.2,8.87,8.62v.25Zm-3.12-.35c0-4.6-1.38-5.95-5.87-5.95h-3v12.35h3c4.5,0,5.87-1.35,5.87-5.95v-.45Z"/>
        <path class="cls-3" d="m820.62,730.75h12.62v2.57h-9.57v4.62h8.62v2.57h-8.62v5.15h9.8v2.57h-12.85v-17.5Z"/>
        <path class="cls-3" d="m836.72,735.3h3.02v3h-3.02v-3Zm0,9.95h3.02v3h-3.02v-3Z"/>
        <path class="cls-3" d="m585.47,769.38c0-3.55,1.02-6.2,3.32-7.65,1.3-.8,3-1.22,5.2-1.22s4.1.4,5.3.9l-.55,2.32c-1.27-.4-2.67-.6-4.27-.6s-2.92.27-3.82.87c-1.42.95-2.05,2.7-2.05,5.27v.45c0,2.55.62,4.3,2.05,5.25.92.62,2.17.9,3.9.9,1.6,0,3.02-.22,4.3-.62l.55,2.33c-1.22.52-3.17.92-5.32.92s-3.95-.42-5.27-1.25c-2.27-1.45-3.32-4.1-3.32-7.62v-.25Z"/>
        <path class="cls-3" d="m617.97,778.25h-3.15l-1.7-4.47h-7.42l-1.7,4.47h-3l6.95-17.5h3.1l6.92,17.5Zm-11.32-6.95h5.52l-1.55-4.12c-.45-1.15-.83-2.35-1.15-3.55h-.1c-.33,1.2-.7,2.38-1.12,3.52l-1.6,4.15Z"/>
        <path class="cls-3" d="m627.95,771.93h-4.3v6.32h-3.05v-17.5h7.77c4.77,0,6.47,1.95,6.47,5.55,0,2.8-1.12,4.65-3.82,5.35l4.42,6.6h-3.3l-4.2-6.32Zm-4.3-8.67v6.17h4.52c2.75,0,3.6-.88,3.6-3.1s-.85-3.07-3.6-3.07h-4.52Z"/>
        <path class="cls-3" d="m653.32,778.25h-3.15l-1.7-4.47h-7.42l-1.7,4.47h-3l6.95-17.5h3.1l6.92,17.5Zm-11.32-6.95h5.52l-1.55-4.12c-.45-1.15-.83-2.35-1.15-3.55h-.1c-.33,1.2-.7,2.38-1.12,3.52l-1.6,4.15Z"/>
        <path class="cls-3" d="m654.82,769.38c0-3.55,1.02-6.2,3.32-7.65,1.3-.8,3-1.22,5.2-1.22s4.1.4,5.3.9l-.55,2.32c-1.27-.4-2.67-.6-4.27-.6s-2.92.27-3.82.87c-1.42.95-2.05,2.7-2.05,5.27v.45c0,2.55.62,4.3,2.05,5.25.92.62,2.17.9,3.9.9,1.6,0,3.02-.22,4.3-.62l.55,2.33c-1.22.52-3.17.92-5.32.92s-3.95-.42-5.27-1.25c-2.27-1.45-3.32-4.1-3.32-7.62v-.25Z"/>
        <path class="cls-3" d="m679.17,763.3v14.95h-3.05v-14.95h-5.5v-2.55h14.07v2.55h-5.52Z"/>
        <path class="cls-3" d="m687.62,760.75h12.62v2.57h-9.57v4.62h8.62v2.57h-8.62v5.15h9.8v2.57h-12.85v-17.5Z"/>
        <path class="cls-3" d="m711.15,771.93h-4.3v6.32h-3.05v-17.5h7.77c4.77,0,6.47,1.95,6.47,5.55,0,2.8-1.12,4.65-3.82,5.35l4.42,6.6h-3.3l-4.2-6.32Zm-4.3-8.67v6.17h4.52c2.75,0,3.6-.88,3.6-3.1s-.85-3.07-3.6-3.07h-4.52Z"/>
        <path class="cls-3" d="m721.77,760.75h3.05v17.5h-3.05v-17.5Zm.43-1.42l1.47-3.7h3.55v.05l-2.75,3.65h-2.27Z"/>
        <path class="cls-3" d="m733.17,770.38c-2.82-.6-4.67-1.65-4.67-5.05s1.85-4.82,6.55-4.82c2.5,0,4.45.4,5.77.83l-.53,2.27c-1.25-.38-2.87-.62-4.97-.62-2.95,0-3.85.58-3.85,2.32,0,1.85.97,2.15,3.1,2.6l2.55.52c3,.62,4.47,1.67,4.47,4.95,0,3.7-2,5.12-6.85,5.12-2.62,0-4.85-.4-6.37-1l.5-2.25c1.65.55,3.85.78,5.8.78,2.9,0,3.92-.7,3.92-2.45s-.8-2.22-2.88-2.67l-2.55-.52Z"/>
        <path class="cls-3" d="m751.87,763.3v14.95h-3.05v-14.95h-5.5v-2.55h14.07v2.55h-5.52Z"/>
        <path class="cls-3" d="m760.42,760.75h3.05v17.5h-3.05v-17.5Z"/>
        <path class="cls-3" d="m767.2,769.38c0-3.55,1.02-6.2,3.32-7.65,1.3-.8,3-1.22,5.2-1.22s4.1.4,5.3.9l-.55,2.32c-1.27-.4-2.67-.6-4.27-.6s-2.92.27-3.82.87c-1.42.95-2.05,2.7-2.05,5.27v.45c0,2.55.62,4.3,2.05,5.25.92.62,2.17.9,3.9.9,1.6,0,3.02-.22,4.3-.62l.55,2.33c-1.22.52-3.17.92-5.32.92s-3.95-.42-5.27-1.25c-2.27-1.45-3.32-4.1-3.32-7.62v-.25Z"/>
        <path class="cls-3" d="m799.69,778.25h-3.15l-1.7-4.47h-7.42l-1.7,4.47h-3l6.95-17.5h3.1l6.92,17.5Zm-11.32-6.95h5.52l-1.55-4.12c-.45-1.15-.83-2.35-1.15-3.55h-.1c-.33,1.2-.7,2.38-1.12,3.52l-1.6,4.15Z"/>
        <path class="cls-3" d="m806.22,770.38c-2.82-.6-4.67-1.65-4.67-5.05s1.85-4.82,6.55-4.82c2.5,0,4.45.4,5.77.83l-.53,2.27c-1.25-.38-2.87-.62-4.97-.62-2.95,0-3.85.58-3.85,2.32,0,1.85.98,2.15,3.1,2.6l2.55.52c3,.62,4.47,1.67,4.47,4.95,0,3.7-2,5.12-6.85,5.12-2.62,0-4.85-.4-6.37-1l.5-2.25c1.65.55,3.85.78,5.8.78,2.9,0,3.92-.7,3.92-2.45s-.8-2.22-2.88-2.67l-2.55-.52Z"/>
        <path class="cls-3" d="m824,760.75h12.62v2.57h-9.57v4.62h8.62v2.57h-8.62v5.15h9.8v2.57h-12.85v-17.5Z"/>
        <path class="cls-3" d="m601.22,799.63c0,6.42-2.57,8.62-8.87,8.62h-6.2v-17.5h6.2c6.3,0,8.87,2.2,8.87,8.62v.25Zm-3.12-.35c0-4.6-1.38-5.95-5.87-5.95h-3v12.35h3c4.5,0,5.87-1.35,5.87-5.95v-.45Z"/>
        <path class="cls-3" d="m604.92,790.75h3.05v17.5h-3.05v-17.5Z"/>
        <path class="cls-3" d="m610.7,790.75h3.2l3.97,10.92c.42,1.17.77,2.45,1.05,3.62h.1c.28-1.17.65-2.45,1.08-3.62l3.95-10.92h3.1l-6.65,17.5h-3.15l-6.65-17.5Z"/>
        <path class="cls-3" d="m632.42,807.62c-1.92-1-2.75-2.87-2.75-5.62v-11.25h3.12v11.02c0,3,1.1,4.05,4.3,4.05s4.32-1.05,4.32-4.05v-11.02h3.02v11.25c0,2.75-.78,4.62-2.7,5.62-1.15.6-2.67.88-4.7.88s-3.45-.28-4.62-.88Z"/>
        <path class="cls-3" d="m648.65,790.75h3.07v14.92h8.82v2.57h-11.9v-17.5Z"/>
        <path class="cls-3" d="m670.92,798.98h7v8.42c-1.8.67-4,1.1-6.67,1.1-2.17,0-3.92-.4-5.27-1.22-2.22-1.38-3.32-3.9-3.32-7.45v-.23c0-4,1.12-6.62,3.6-8,1.35-.75,3.12-1.1,5.32-1.1,2.4,0,4.47.42,5.85.95l-.55,2.32c-1.3-.38-3.1-.67-4.87-.67s-3.12.28-4.1.88c-1.5.95-2.15,2.7-2.15,5.52v.42c0,2.37.62,4.1,2,5.05.9.62,2.2.92,3.87.92,1.33,0,2.5-.17,3.42-.42v-4.1h-4.12v-2.4Z"/>
        <path class="cls-3" d="m697.2,808.25h-3.15l-1.7-4.47h-7.42l-1.7,4.47h-3l6.95-17.5h3.1l6.92,17.5Zm-11.32-6.95h5.52l-1.55-4.12c-.45-1.15-.83-2.35-1.15-3.55h-.1c-.33,1.2-.7,2.38-1.12,3.52l-1.6,4.15Z"/>
        <path class="cls-3" d="m704.97,808.32c-1.15-.2-2.12-.55-2.95-1.07-2.27-1.45-3.32-4.1-3.32-7.62v-.25c0-3.55,1.02-6.2,3.32-7.65,1.3-.8,3-1.22,5.2-1.22s4.1.4,5.3.9l-.55,2.32c-1.27-.4-2.67-.6-4.27-.6s-2.92.27-3.82.87c-1.42.95-2.05,2.7-2.05,5.27v.45c0,2.55.62,4.3,2.05,5.25.92.62,2.17.9,3.9.9,1.6,0,3.02-.22,4.3-.62l.55,2.33c-1.22.52-3.17.92-5.32.92-.27,0-.52,0-.77-.03l-.05.9c1.62.05,2.52.5,2.52,1.82,0,1.55-1.03,2.2-2.97,2.2-.92,0-1.72-.17-2.07-.3l.22-1.3c.35.1.9.17,1.52.17.95,0,1.28-.22,1.28-.77,0-.67-.55-.83-2.3-.83l.3-2.05Z"/>
        <path class="cls-3" d="m731.2,808.25h-3.15l-1.7-4.47h-7.42l-1.7,4.47h-3l6.95-17.5h3.1l6.92,17.5Zm-8.42-19.37l-.5-.28c-.52-.25-1.02-.5-1.5-.5-.78,0-.92.45-1,1.22h-2.02c.1-2.15.83-3.37,2.8-3.37.77,0,1.5.3,2.07.6l.52.28c.53.25,1,.5,1.5.5.75,0,.9-.45,1-1.22h2.02c-.15,2.15-.83,3.37-2.8,3.37-.8,0-1.5-.3-2.1-.6Zm-2.9,12.42h5.52l-1.55-4.12c-.45-1.15-.83-2.35-1.15-3.55h-.1c-.33,1.2-.7,2.38-1.12,3.52l-1.6,4.15Z"/>
        <path class="cls-3" d="m749.65,799.38v.25c0,5.95-2.92,8.87-8.47,8.87s-8.47-2.92-8.47-8.87v-.25c0-5.95,2.9-8.87,8.47-8.87s8.47,2.92,8.47,8.87Zm-5.27,5.85c1.55-1,2.15-2.9,2.15-5.5v-.45c0-2.6-.6-4.5-2.15-5.5-.8-.5-1.85-.77-3.2-.77s-2.4.27-3.2.77c-1.55,1-2.15,2.9-2.15,5.5v.45c0,2.6.6,4.5,2.15,5.5.8.5,1.85.77,3.2.77s2.4-.27,3.2-.77Z"/>
        <path class="cls-3" d="m774.22,799.63c0,6.42-2.57,8.62-8.87,8.62h-6.2v-17.5h6.2c6.3,0,8.87,2.2,8.87,8.62v.25Zm-3.12-.35c0-4.6-1.38-5.95-5.87-5.95h-3v12.35h3c4.5,0,5.87-1.35,5.87-5.95v-.45Z"/>
        <path class="cls-3" d="m777.82,790.75h12.62v2.57h-9.57v4.62h8.62v2.57h-8.62v5.15h9.8v2.57h-12.85v-17.5Z"/>
        <path class="cls-3" d="m593.5,831.93h-4.3v6.32h-3.05v-17.5h7.77c4.77,0,6.47,1.95,6.47,5.55,0,2.8-1.12,4.65-3.82,5.35l4.42,6.6h-3.3l-4.2-6.32Zm-4.3-8.67v6.17h4.52c2.75,0,3.6-.88,3.6-3.1s-.85-3.07-3.6-3.07h-4.52Z"/>
        <path class="cls-3" d="m604.02,820.75h12.62v2.57h-9.57v4.62h8.62v2.57h-8.62v5.15h9.8v2.57h-12.85v-17.5Z"/>
        <path class="cls-3" d="m624.15,830.38c-2.82-.6-4.67-1.65-4.67-5.05s1.85-4.82,6.55-4.82c2.5,0,4.45.4,5.77.83l-.53,2.27c-1.25-.38-2.87-.62-4.97-.62-2.95,0-3.85.58-3.85,2.32,0,1.85.97,2.15,3.1,2.6l2.55.52c3,.62,4.47,1.67,4.47,4.95,0,3.7-2,5.12-6.85,5.12-2.62,0-4.85-.4-6.37-1l.5-2.25c1.65.55,3.85.78,5.8.78,2.9,0,3.92-.7,3.92-2.45s-.8-2.22-2.88-2.67l-2.55-.52Z"/>
        <path class="cls-3" d="m638.7,837.62c-1.92-1-2.75-2.87-2.75-5.62v-11.25h3.12v11.02c0,3,1.1,4.05,4.3,4.05s4.32-1.05,4.32-4.05v-11.02h3.02v11.25c0,2.75-.78,4.62-2.7,5.62-1.15.6-2.67.88-4.7.88s-3.45-.28-4.62-.88Z"/>
        <path class="cls-3" d="m654.92,820.75h3.07v14.92h8.82v2.57h-11.9v-17.5Z"/>
        <path class="cls-3" d="m675.12,823.3v14.95h-3.05v-14.95h-5.5v-2.55h14.07v2.55h-5.52Z"/>
        <path class="cls-3" d="m696.79,838.25h-3.15l-1.7-4.47h-7.42l-1.7,4.47h-3l6.95-17.5h3.1l6.92,17.5Zm-11.32-6.95h5.52l-1.55-4.12c-.45-1.15-.83-2.35-1.15-3.55h-.1c-.33,1.2-.7,2.38-1.12,3.52l-1.6,4.15Z"/>
        <path class="cls-3" d="m714.5,829.63c0,6.42-2.57,8.62-8.87,8.62h-6.2v-17.5h6.2c6.3,0,8.87,2.2,8.87,8.62v.25Zm-3.12-.35c0-4.6-1.38-5.95-5.87-5.95h-3v12.35h3c4.5,0,5.87-1.35,5.87-5.95v-.45Z"/>
        <path class="cls-3" d="m734.37,829.38v.25c0,5.95-2.92,8.87-8.47,8.87s-8.47-2.92-8.47-8.87v-.25c0-5.95,2.9-8.87,8.47-8.87s8.47,2.92,8.47,8.87Zm-5.27,5.85c1.55-1,2.15-2.9,2.15-5.5v-.45c0-2.6-.6-4.5-2.15-5.5-.8-.5-1.85-.77-3.2-.77s-2.4.27-3.2.77c-1.55,1-2.15,2.9-2.15,5.5v.45c0,2.6.6,4.5,2.15,5.5.8.5,1.85.77,3.2.77s2.4-.27,3.2-.77Z"/>
        <path class="cls-3" d="m741.9,830.38c-2.82-.6-4.67-1.65-4.67-5.05s1.85-4.82,6.55-4.82c2.5,0,4.45.4,5.77.83l-.53,2.27c-1.25-.38-2.87-.62-4.97-.62-2.95,0-3.85.58-3.85,2.32,0,1.85.98,2.15,3.1,2.6l2.55.52c3,.62,4.47,1.67,4.47,4.95,0,3.7-2,5.12-6.85,5.12-2.62,0-4.85-.4-6.37-1l.5-2.25c1.65.55,3.85.78,5.8.78,2.9,0,3.92-.7,3.92-2.45s-.8-2.22-2.88-2.67l-2.55-.52Z"/>
      </g>
      <g>
        <path class="cls-3" d="m95.47,759.38c0-3.55,1.02-6.2,3.32-7.65,1.3-.8,3-1.22,5.2-1.22s4.1.4,5.3.9l-.55,2.32c-1.27-.4-2.67-.6-4.27-.6s-2.92.27-3.82.87c-1.42.95-2.05,2.7-2.05,5.27v.45c0,2.55.62,4.3,2.05,5.25.92.62,2.17.9,3.9.9,1.6,0,3.02-.22,4.3-.62l.55,2.33c-1.22.52-3.17.92-5.32.92s-3.95-.42-5.27-1.25c-2.27-1.45-3.32-4.1-3.32-7.62v-.25Z"/>
        <path class="cls-3" d="m112.67,750.75h12.62v2.57h-9.57v4.62h8.62v2.57h-8.62v5.15h9.8v2.57h-12.85v-17.5Z"/>
        <path class="cls-3" d="m143.59,768.25h-3.62l-6.32-10.35c-.7-1.22-1.3-2.3-1.9-3.6h-.08c.12,1.47.17,2.82.17,4.27v9.67h-3v-17.5h3.62l6.32,10.35c.7,1.22,1.3,2.3,1.88,3.6h.08c-.12-1.47-.12-2.82-.12-4.27v-9.67h2.97v17.5Z"/>
        <path class="cls-3" d="m151.85,760.38c-2.82-.6-4.67-1.65-4.67-5.05s1.85-4.82,6.55-4.82c2.5,0,4.45.4,5.77.83l-.53,2.27c-1.25-.38-2.87-.62-4.97-.62-2.95,0-3.85.58-3.85,2.32,0,1.85.97,2.15,3.1,2.6l2.55.52c3,.62,4.47,1.67,4.47,4.95,0,3.7-2,5.12-6.85,5.12-2.62,0-4.85-.4-6.37-1l.5-2.25c1.65.55,3.85.78,5.8.78,2.9,0,3.92-.7,3.92-2.45s-.8-2.22-2.88-2.67l-2.55-.52Z"/>
        <path class="cls-3" d="m179.97,759.38v.25c0,5.95-2.92,8.87-8.47,8.87s-8.47-2.92-8.47-8.87v-.25c0-5.95,2.9-8.87,8.47-8.87s8.47,2.92,8.47,8.87Zm-5.27,5.85c1.55-1,2.15-2.9,2.15-5.5v-.45c0-2.6-.6-4.5-2.15-5.5-.8-.5-1.85-.77-3.2-.77s-2.4.27-3.2.77c-1.55,1-2.15,2.9-2.15,5.5v.45c0,2.6.6,4.5,2.15,5.5.8.5,1.85.77,3.2.77s2.4-.27,3.2-.77Z"/>
        <path class="cls-3" d="m183.52,755.3h3.02v3h-3.02v-3Zm0,9.95h3.02v3h-3.02v-3Z"/>
        <path class="cls-3" d="m196.65,750.75h7.87c3.97,0,5.82,1.4,5.82,4.5,0,2.42-1.12,3.35-2.3,3.67v.1c1.47.25,2.97,1.3,2.97,4.1,0,3.62-2.02,5.12-6.45,5.12h-7.92v-17.5Zm7.5,7.3c2.55,0,3.2-.65,3.2-2.45s-.67-2.42-3.1-2.42h-4.57v4.87h4.47Zm.15,7.77c2.7,0,3.65-.47,3.65-2.72,0-2.02-.9-2.65-3.52-2.65h-4.75v5.37h4.62Z"/>
        <path class="cls-3" d="m229.42,768.25h-3.15l-1.7-4.47h-7.42l-1.7,4.47h-3l6.95-17.5h3.1l6.92,17.5Zm-11.32-6.95h5.52l-1.55-4.12c-.45-1.15-.83-2.35-1.15-3.55h-.1c-.33,1.2-.7,2.38-1.12,3.52l-1.6,4.15Z"/>
        <path class="cls-3" d="m235.95,760.38c-2.82-.6-4.67-1.65-4.67-5.05s1.85-4.82,6.55-4.82c2.5,0,4.45.4,5.77.83l-.53,2.27c-1.25-.38-2.87-.62-4.97-.62-2.95,0-3.85.58-3.85,2.32,0,1.85.97,2.15,3.1,2.6l2.55.52c3,.62,4.47,1.67,4.47,4.95,0,3.7-2,5.12-6.85,5.12-2.62,0-4.85-.4-6.37-1l.5-2.25c1.65.55,3.85.78,5.8.78,2.9,0,3.92-.7,3.92-2.45s-.8-2.22-2.88-2.67l-2.55-.52Z"/>
        <path class="cls-3" d="m247.85,750.75h12.62v2.57h-9.57v4.62h8.62v2.57h-8.62v5.15h9.8v2.57h-12.85v-17.5Z"/>
        <path class="cls-3" d="m267.97,760.38c-2.82-.6-4.67-1.65-4.67-5.05s1.85-4.82,6.55-4.82c2.5,0,4.45.4,5.77.83l-.53,2.27c-1.25-.38-2.87-.62-4.97-.62-2.95,0-3.85.58-3.85,2.32,0,1.85.98,2.15,3.1,2.6l2.55.52c3,.62,4.47,1.67,4.47,4.95,0,3.7-2,5.12-6.85,5.12-2.62,0-4.85-.4-6.37-1l.5-2.25c1.65.55,3.85.78,5.8.78,2.9,0,3.92-.7,3.92-2.45s-.8-2.22-2.88-2.67l-2.55-.52Z"/>
        <path class="cls-3" d="m96.15,780.75h3.07v14.92h8.82v2.57h-11.9v-17.5Z"/>
        <path class="cls-3" d="m111.15,780.75h12.62v2.57h-9.57v4.62h8.62v2.57h-8.62v5.15h9.8v2.57h-12.85v-17.5Z"/>
        <path class="cls-3" d="m134.7,788.98h7v8.42c-1.8.67-4,1.1-6.67,1.1-2.17,0-3.92-.4-5.27-1.22-2.22-1.38-3.32-3.9-3.32-7.45v-.23c0-4,1.12-6.62,3.6-8,1.35-.75,3.12-1.1,5.32-1.1,2.4,0,4.47.42,5.85.95l-.55,2.32c-1.3-.38-3.1-.67-4.87-.67s-3.12.28-4.1.88c-1.5.95-2.15,2.7-2.15,5.52v.42c0,2.37.62,4.1,2,5.05.9.62,2.2.92,3.87.92,1.33,0,2.5-.17,3.42-.42v-4.1h-4.12v-2.4Z"/>
        <path class="cls-3" d="m160.97,798.25h-3.15l-1.7-4.47h-7.42l-1.7,4.47h-3l6.95-17.5h3.1l6.92,17.5Zm-11.32-6.95h5.52l-1.55-4.12c-.45-1.15-.83-2.35-1.15-3.55h-.1c-.33,1.2-.7,2.38-1.12,3.52l-1.6,4.15Z"/>
        <path class="cls-3" d="m163.7,780.75h3.05v17.5h-3.05v-17.5Z"/>
        <path class="cls-3" d="m175.1,790.38c-2.82-.6-4.67-1.65-4.67-5.05s1.85-4.82,6.55-4.82c2.5,0,4.45.4,5.77.83l-.53,2.27c-1.25-.38-2.87-.62-4.97-.62-2.95,0-3.85.58-3.85,2.32,0,1.85.98,2.15,3.1,2.6l2.55.52c3,.62,4.47,1.67,4.47,4.95,0,3.7-2,5.12-6.85,5.12-2.62,0-4.85-.4-6.37-1l.5-2.25c1.65.55,3.85.78,5.8.78,2.9,0,3.92-.7,3.92-2.45s-.8-2.22-2.88-2.67l-2.55-.52Z"/>
      </g>
      <g>
        <path class="cls-3" d="m2.15,506.75h12.62v2.57H5.2v4.62h8.62v2.57H5.2v5.15h9.8v2.57H2.15v-17.5Z"/>
        <path class="cls-3" d="m24.65,518.45h-7.05v-2.42h7.05v2.42Z"/>
        <path class="cls-3" d="m38.82,520.98h-2.87l-3.57-7.72c-.42-1.05-.85-2.17-1.22-3.3h-.1c.08,1.22.12,2.45.12,3.62v10.67h-2.97v-17.5h4.27l3.7,8.1c.48,1.1.92,2.2,1.3,3.35h.08c.35-1.15.8-2.27,1.27-3.35l3.7-8.1h4.17v17.5h-3.07v-10.67c0-1.2.03-2.42.1-3.65h-.1c-.35,1.12-.77,2.22-1.25,3.27l-3.55,7.77Z"/>
        <path class="cls-3" d="m51,506.75h12.62v2.57h-9.57v4.62h8.62v2.57h-8.62v5.15h9.8v2.57h-12.85v-17.5Z"/>
        <path class="cls-3" d="m66.27,515.38c0-3.55,1.02-6.2,3.32-7.65,1.3-.8,3-1.22,5.2-1.22s4.1.4,5.3.9l-.55,2.32c-1.27-.4-2.67-.6-4.27-.6s-2.92.27-3.82.87c-1.42.95-2.05,2.7-2.05,5.27v.45c0,2.55.62,4.3,2.05,5.25.92.62,2.17.9,3.9.9,1.6,0,3.02-.22,4.3-.62l.55,2.33c-1.22.52-3.17.92-5.32.92s-3.95-.42-5.27-1.25c-2.27-1.45-3.32-4.1-3.32-7.62v-.25Z"/>
      </g>
      <g>
        <path class="cls-3" d="m22.22,215.63c0,6.42-2.57,8.62-8.87,8.62h-6.2v-17.5h6.2c6.3,0,8.87,2.2,8.87,8.62v.25Zm-3.12-.35c0-4.6-1.38-5.95-5.87-5.95h-3v12.35h3c4.5,0,5.87-1.35,5.87-5.95v-.45Z"/>
        <path class="cls-3" d="m40.67,224.25h-3.15l-1.7-4.47h-7.42l-1.7,4.47h-3l6.95-17.5h3.1l6.92,17.5Zm-11.32-6.95h5.52l-1.55-4.12c-.45-1.15-.83-2.35-1.15-3.55h-.1c-.33,1.2-.7,2.38-1.12,3.52l-1.6,4.15Z"/>
        <path class="cls-3" d="m58.37,215.63c0,6.42-2.57,8.62-8.87,8.62h-6.2v-17.5h6.2c6.3,0,8.87,2.2,8.87,8.62v.25Zm-3.12-.35c0-4.6-1.38-5.95-5.87-5.95h-3v12.35h3c4.5,0,5.87-1.35,5.87-5.95v-.45Z"/>
        <path class="cls-3" d="m78.25,215.38v.25c0,5.95-2.92,8.87-8.47,8.87s-8.47-2.92-8.47-8.87v-.25c0-5.95,2.9-8.87,8.47-8.87s8.47,2.92,8.47,8.87Zm-5.27,5.85c1.55-1,2.15-2.9,2.15-5.5v-.45c0-2.6-.6-4.5-2.15-5.5-.8-.5-1.85-.77-3.2-.77s-2.4.27-3.2.77c-1.55,1-2.15,2.9-2.15,5.5v.45c0,2.6.6,4.5,2.15,5.5.8.5,1.85.77,3.2.77s2.4-.27,3.2-.77Z"/>
        <path class="cls-3" d="m85.77,216.38c-2.82-.6-4.67-1.65-4.67-5.05s1.85-4.82,6.55-4.82c2.5,0,4.45.4,5.77.83l-.53,2.27c-1.25-.38-2.87-.62-4.97-.62-2.95,0-3.85.58-3.85,2.32,0,1.85.98,2.15,3.1,2.6l2.55.52c3,.62,4.47,1.67,4.47,4.95,0,3.7-2,5.12-6.85,5.12-2.62,0-4.85-.4-6.37-1l.5-2.25c1.65.55,3.85.78,5.8.78,2.9,0,3.92-.7,3.92-2.45s-.8-2.22-2.88-2.67l-2.55-.52Z"/>
        <path class="cls-3" d="m118.62,215.63c0,6.42-2.57,8.62-8.87,8.62h-6.2v-17.5h6.2c6.3,0,8.87,2.2,8.87,8.62v.25Zm-3.12-.35c0-4.6-1.38-5.95-5.87-5.95h-3v12.35h3c4.5,0,5.87-1.35,5.87-5.95v-.45Z"/>
        <path class="cls-3" d="m138.49,215.38v.25c0,5.95-2.92,8.87-8.47,8.87s-8.47-2.92-8.47-8.87v-.25c0-5.95,2.9-8.87,8.47-8.87s8.47,2.92,8.47,8.87Zm-5.27,5.85c1.55-1,2.15-2.9,2.15-5.5v-.45c0-2.6-.6-4.5-2.15-5.5-.8-.5-1.85-.77-3.2-.77s-2.4.27-3.2.77c-1.55,1-2.15,2.9-2.15,5.5v.45c0,2.6.6,4.5,2.15,5.5.8.5,1.85.77,3.2.77s2.4-.27,3.2-.77Z"/>
        <path class="cls-3" d="m6.47,245.38c0-3.55,1.02-6.2,3.32-7.65,1.3-.8,3-1.22,5.2-1.22s4.1.4,5.3.9l-.55,2.32c-1.27-.4-2.67-.6-4.27-.6s-2.92.27-3.82.87c-1.42.95-2.05,2.7-2.05,5.27v.45c0,2.55.62,4.3,2.05,5.25.92.62,2.17.9,3.9.9,1.6,0,3.02-.22,4.3-.62l.55,2.33c-1.22.52-3.17.92-5.32.92s-3.95-.42-5.27-1.25c-2.27-1.45-3.32-4.1-3.32-7.62v-.25Z"/>
        <path class="cls-3" d="m23.67,236.75h12.62v2.57h-9.57v4.62h8.62v2.57h-8.62v5.15h9.8v2.57h-12.85v-17.5Z"/>
        <path class="cls-3" d="m54.59,254.25h-3.62l-6.32-10.35c-.7-1.22-1.3-2.3-1.9-3.6h-.08c.12,1.47.17,2.82.17,4.27v9.67h-3v-17.5h3.62l6.32,10.35c.7,1.22,1.3,2.3,1.88,3.6h.08c-.12-1.47-.12-2.82-.12-4.27v-9.67h2.97v17.5Z"/>
        <path class="cls-3" d="m62.85,246.38c-2.82-.6-4.67-1.65-4.67-5.05s1.85-4.82,6.55-4.82c2.5,0,4.45.4,5.77.83l-.53,2.27c-1.25-.38-2.87-.62-4.97-.62-2.95,0-3.85.58-3.85,2.32,0,1.85.97,2.15,3.1,2.6l2.55.52c3,.62,4.47,1.67,4.47,4.95,0,3.7-2,5.12-6.85,5.12-2.62,0-4.85-.4-6.37-1l.5-2.25c1.65.55,3.85.78,5.8.78,2.9,0,3.92-.7,3.92-2.45s-.8-2.22-2.88-2.67l-2.55-.52Z"/>
        <path class="cls-3" d="m90.97,245.38v.25c0,5.95-2.92,8.87-8.47,8.87s-8.47-2.92-8.47-8.87v-.25c0-5.95,2.9-8.87,8.47-8.87s8.47,2.92,8.47,8.87Zm-5.27,5.85c1.55-1,2.15-2.9,2.15-5.5v-.45c0-2.6-.6-4.5-2.15-5.5-.8-.5-1.85-.77-3.2-.77s-2.4.27-3.2.77c-1.55,1-2.15,2.9-2.15,5.5v.45c0,2.6.6,4.5,2.15,5.5.8.5,1.85.77,3.2.77s2.4-.27,3.2-.77Z"/>
      </g>
      <g>
        <path class="cls-3" d="m380.65,372.05c0-3.55,1.02-6.2,3.32-7.65,1.3-.8,3-1.22,5.2-1.22s4.1.4,5.3.9l-.55,2.32c-1.27-.4-2.67-.6-4.27-.6s-2.92.28-3.82.88c-1.42.95-2.05,2.7-2.05,5.27v.45c0,2.55.62,4.3,2.05,5.25.92.62,2.17.9,3.9.9,1.6,0,3.02-.22,4.3-.62l.55,2.32c-1.22.52-3.17.92-5.32.92s-3.95-.42-5.27-1.25c-2.27-1.45-3.32-4.1-3.32-7.62v-.25Z"/>
        <path class="cls-3" d="m400.5,380.29c-1.92-1-2.75-2.87-2.75-5.62v-11.25h3.12v11.02c0,3,1.1,4.05,4.3,4.05s4.32-1.05,4.32-4.05v-11.02h3.02v11.25c0,2.75-.78,4.62-2.7,5.62-1.15.6-2.67.88-4.7.88s-3.45-.28-4.62-.88Z"/>
        <path class="cls-3" d="m424.08,374.6h-4.3v6.32h-3.05v-17.5h7.77c4.77,0,6.47,1.95,6.47,5.55,0,2.8-1.12,4.65-3.82,5.35l4.42,6.6h-3.3l-4.2-6.32Zm-4.3-8.67v6.17h4.52c2.75,0,3.6-.88,3.6-3.1s-.85-3.07-3.6-3.07h-4.52Z"/>
        <path class="cls-3" d="m438.38,373.05c-2.82-.6-4.67-1.65-4.67-5.05s1.85-4.82,6.55-4.82c2.5,0,4.45.4,5.77.83l-.53,2.27c-1.25-.38-2.87-.62-4.97-.62-2.95,0-3.85.58-3.85,2.32,0,1.85.97,2.15,3.1,2.6l2.55.52c3,.62,4.47,1.67,4.47,4.95,0,3.7-2,5.12-6.85,5.12-2.62,0-4.85-.4-6.37-1l.5-2.25c1.65.55,3.85.77,5.8.77,2.9,0,3.92-.7,3.92-2.45s-.8-2.22-2.88-2.67l-2.55-.52Z"/>
        <path class="cls-3" d="m466.5,372.05v.25c0,5.95-2.92,8.87-8.47,8.87s-8.47-2.92-8.47-8.87v-.25c0-5.95,2.9-8.87,8.47-8.87s8.47,2.92,8.47,8.87Zm-5.27,5.85c1.55-1,2.15-2.9,2.15-5.5v-.45c0-2.6-.6-4.5-2.15-5.5-.8-.5-1.85-.77-3.2-.77s-2.4.27-3.2.77c-1.55,1-2.15,2.9-2.15,5.5v.45c0,2.6.6,4.5,2.15,5.5.8.5,1.85.77,3.2.77s2.4-.27,3.2-.77Z"/>
        <path class="cls-3" d="m470.05,367.97h3.02v3h-3.02v-3Zm0,9.95h3.02v3h-3.02v-3Z"/>
        <path class="cls-3" d="m316.95,394.92h15.15v3.09h-11.49v5.55h10.35v3.09h-10.35v6.18h11.76v3.09h-15.42v-21Z"/>
        <path class="cls-3" d="m354.06,415.92h-4.35l-7.59-12.42c-.84-1.47-1.56-2.76-2.28-4.32h-.09c.15,1.77.21,3.39.21,5.13v11.61h-3.6v-21h4.35l7.59,12.42c.84,1.47,1.56,2.76,2.25,4.32h.09c-.15-1.77-.15-3.39-.15-5.13v-11.61h3.57v21Z"/>
        <path class="cls-3" d="m377.58,415.92h-3.78l-2.04-5.37h-8.91l-2.04,5.37h-3.6l8.34-21h3.72l8.31,21Zm-13.59-8.34h6.63l-1.86-4.95c-.54-1.38-.99-2.82-1.38-4.26h-.12c-.39,1.44-.84,2.85-1.35,4.23l-1.92,4.98Z"/>
        <path class="cls-3" d="m398.81,405.57c0,7.71-3.09,10.35-10.65,10.35h-7.44v-21h7.44c7.56,0,10.65,2.64,10.65,10.35v.3Zm-3.75-.42c0-5.52-1.65-7.14-7.05-7.14h-3.6v14.82h3.6c5.4,0,7.05-1.62,7.05-7.14v-.54Z"/>
        <path class="cls-3" d="m403.14,394.92h15.15v3.09h-11.49v5.55h10.35v3.09h-10.35v6.18h11.76v3.09h-15.42v-21Z"/>
        <path class="cls-3" d="m422.37,418.83l1.11-2.91h-1.35v-3.6h3.69v3.27l-1.74,3.24h-1.71Z"/>
        <path class="cls-3" d="m436.79,405.27c0-4.26,1.23-7.44,3.99-9.18,1.56-.96,3.6-1.47,6.24-1.47s4.92.48,6.36,1.08l-.66,2.79c-1.53-.48-3.21-.72-5.13-.72s-3.51.33-4.59,1.05c-1.71,1.14-2.46,3.24-2.46,6.33v.54c0,3.06.75,5.16,2.46,6.3,1.11.75,2.61,1.08,4.68,1.08,1.92,0,3.63-.27,5.16-.75l.66,2.79c-1.47.63-3.81,1.11-6.39,1.11s-4.74-.51-6.33-1.5c-2.73-1.74-3.99-4.92-3.99-9.15v-.3Z"/>
        <path class="cls-3" d="m457.43,394.92h15.15v3.09h-11.49v5.55h10.35v3.09h-10.35v6.18h11.76v3.09h-15.42v-21Z"/>
        <path class="cls-3" d="m494.54,415.92h-4.35l-7.59-12.42c-.84-1.47-1.56-2.76-2.28-4.32h-.09c.15,1.77.21,3.39.21,5.13v11.61h-3.6v-21h4.35l7.59,12.42c.84,1.47,1.56,2.76,2.25,4.32h.09c-.15-1.77-.15-3.39-.15-5.13v-11.61h3.57v21Z"/>
        <path class="cls-3" d="m504.44,406.47c-3.39-.72-5.61-1.98-5.61-6.06s2.22-5.79,7.86-5.79c3,0,5.34.48,6.93.99l-.63,2.73c-1.5-.45-3.45-.75-5.97-.75-3.54,0-4.62.69-4.62,2.79,0,2.22,1.17,2.58,3.72,3.12l3.06.63c3.6.75,5.37,2.01,5.37,5.94,0,4.44-2.4,6.15-8.22,6.15-3.15,0-5.82-.48-7.65-1.2l.6-2.7c1.98.66,4.62.93,6.96.93,3.48,0,4.71-.84,4.71-2.94s-.96-2.67-3.45-3.21l-3.06-.63Z"/>
        <path class="cls-3" d="m538.19,405.27v.3c0,7.14-3.51,10.65-10.17,10.65s-10.17-3.51-10.17-10.65v-.3c0-7.14,3.48-10.65,10.17-10.65s10.17,3.51,10.17,10.65Zm-6.33,7.02c1.86-1.2,2.58-3.48,2.58-6.6v-.54c0-3.12-.72-5.4-2.58-6.6-.96-.6-2.22-.93-3.84-.93s-2.88.33-3.84.93c-1.86,1.2-2.58,3.48-2.58,6.6v.54c0,3.12.72,5.4,2.58,6.6.96.6,2.22.93,3.84.93s2.88-.33,3.84-.93Z"/>
        <path class="cls-3" d="m330.1,429.92h15.15v3.09h-11.49v5.55h10.35v3.09h-10.35v6.18h11.76v3.09h-15.42v-21Z"/>
        <path class="cls-3" d="m374.92,450.92h-3.78l-2.04-5.37h-8.91l-2.04,5.37h-3.6l8.34-21h3.72l8.31,21Zm-13.59-8.34h6.63l-1.86-4.95c-.54-1.38-.99-2.82-1.38-4.26h-.12c-.39,1.44-.84,2.85-1.35,4.23l-1.92,4.98Z"/>
        <path class="cls-3" d="m374.17,429.92h3.84l4.77,13.11c.51,1.41.93,2.94,1.26,4.35h.12c.33-1.41.78-2.94,1.29-4.35l4.74-13.11h3.72l-7.98,21h-3.78l-7.98-21Z"/>
        <path class="cls-3" d="m413.53,450.92h-3.78l-2.04-5.37h-8.91l-2.04,5.37h-3.6l8.34-21h3.72l8.31,21Zm-13.59-8.34h6.63l-1.86-4.95c-.54-1.38-.99-2.82-1.38-4.26h-.12c-.39,1.44-.84,2.85-1.35,4.23l-1.92,4.98Z"/>
        <path class="cls-3" d="m416.68,429.92h3.69v17.91h10.59v3.09h-14.28v-21Z"/>
        <path class="cls-3" d="m434.8,429.92h3.66v21h-3.66v-21Z"/>
        <path class="cls-3" d="m462.1,450.92h-3.78l-2.04-5.37h-8.91l-2.04,5.37h-3.6l8.34-21h3.72l8.31,21Zm-13.59-8.34h6.63l-1.86-4.95c-.54-1.38-.99-2.82-1.38-4.26h-.12c-.39,1.44-.84,2.85-1.35,4.23l-1.92,4.98Z"/>
        <path class="cls-3" d="m471.43,451.01c-1.38-.24-2.55-.66-3.54-1.29-2.73-1.74-3.99-4.92-3.99-9.15v-.3c0-4.26,1.23-7.44,3.99-9.18,1.56-.96,3.6-1.47,6.24-1.47s4.92.48,6.36,1.08l-.66,2.79c-1.53-.48-3.21-.72-5.13-.72s-3.51.33-4.59,1.05c-1.71,1.14-2.46,3.24-2.46,6.33v.54c0,3.06.75,5.16,2.46,6.3,1.11.75,2.61,1.08,4.68,1.08,1.92,0,3.63-.27,5.16-.75l.66,2.79c-1.47.63-3.81,1.11-6.39,1.11-.33,0-.63,0-.93-.03l-.06,1.08c1.95.06,3.03.6,3.03,2.19,0,1.86-1.23,2.64-3.57,2.64-1.11,0-2.07-.21-2.49-.36l.27-1.56c.42.12,1.08.21,1.83.21,1.14,0,1.53-.27,1.53-.93,0-.81-.66-.99-2.76-.99l.36-2.46Z"/>
        <path class="cls-3" d="m502.9,450.92h-3.78l-2.04-5.37h-8.91l-2.04,5.37h-3.6l8.34-21h3.72l8.31,21Zm-10.11-23.25l-.6-.33c-.63-.3-1.23-.6-1.8-.6-.93,0-1.11.54-1.2,1.47h-2.43c.12-2.58.99-4.05,3.36-4.05.93,0,1.8.36,2.49.72l.63.33c.63.3,1.2.6,1.8.6.9,0,1.08-.54,1.2-1.47h2.43c-.18,2.58-.99,4.05-3.36,4.05-.96,0-1.8-.36-2.52-.72Zm-3.48,14.91h6.63l-1.86-4.95c-.54-1.38-.99-2.82-1.38-4.26h-.12c-.39,1.44-.84,2.85-1.35,4.23l-1.92,4.98Z"/>
        <path class="cls-3" d="m525.04,440.27v.3c0,7.14-3.51,10.65-10.17,10.65s-10.17-3.51-10.17-10.65v-.3c0-7.14,3.48-10.65,10.17-10.65s10.17,3.51,10.17,10.65Zm-6.33,7.02c1.86-1.2,2.58-3.48,2.58-6.6v-.54c0-3.12-.72-5.4-2.58-6.6-.96-.6-2.22-.93-3.84-.93s-2.88.33-3.84.93c-1.86,1.2-2.58,3.48-2.58,6.6v.54c0,3.12.72,5.4,2.58,6.6.96.6,2.22.93,3.84.93s2.88-.33,3.84-.93Z"/>
        <path class="cls-3" d="m312.43,464.92h3.66v21h-3.66v-21Z"/>
        <path class="cls-3" d="m339.07,485.92h-4.35l-7.59-12.42c-.84-1.47-1.56-2.76-2.28-4.32h-.09c.15,1.77.21,3.39.21,5.13v11.61h-3.6v-21h4.35l7.59,12.42c.84,1.47,1.56,2.76,2.25,4.32h.09c-.15-1.77-.15-3.39-.15-5.13v-11.61h3.57v21Z"/>
        <path class="cls-3" d="m348.97,476.47c-3.39-.72-5.61-1.98-5.61-6.06s2.22-5.79,7.86-5.79c3,0,5.34.48,6.93.99l-.63,2.73c-1.5-.45-3.45-.75-5.97-.75-3.54,0-4.62.69-4.62,2.79,0,2.22,1.17,2.58,3.72,3.12l3.06.63c3.6.75,5.37,2.01,5.37,5.94,0,4.44-2.4,6.15-8.22,6.15-3.15,0-5.82-.48-7.65-1.2l.6-2.7c1.98.66,4.62.93,6.96.93,3.48,0,4.71-.84,4.71-2.94s-.96-2.67-3.45-3.21l-3.06-.63Z"/>
        <path class="cls-3" d="m371.41,467.98v17.94h-3.66v-17.94h-6.6v-3.06h16.89v3.06h-6.63Z"/>
        <path class="cls-3" d="m381.67,464.92h3.66v21h-3.66v-21Z"/>
        <path class="cls-3" d="m399.25,467.98v17.94h-3.66v-17.94h-6.6v-3.06h16.89v3.06h-6.63Z"/>
        <path class="cls-3" d="m412.57,485.17c-2.31-1.2-3.3-3.45-3.3-6.75v-13.5h3.75v13.23c0,3.6,1.32,4.86,5.16,4.86s5.19-1.26,5.19-4.86v-13.23h3.63v13.5c0,3.3-.93,5.55-3.24,6.75-1.38.72-3.21,1.05-5.64,1.05s-4.14-.33-5.55-1.05Z"/>
        <path class="cls-3" d="m431.23,475.27c0-4.26,1.23-7.44,3.99-9.18,1.56-.96,3.6-1.47,6.24-1.47s4.92.48,6.36,1.08l-.66,2.79c-1.53-.48-3.21-.72-5.13-.72s-3.51.33-4.59,1.05c-1.71,1.14-2.46,3.24-2.46,6.33v.54c0,3.06.75,5.16,2.46,6.3,1.11.75,2.61,1.08,4.68,1.08,1.92,0,3.63-.27,5.16-.75l.66,2.79c-1.47.63-3.81,1.11-6.39,1.11s-4.74-.51-6.33-1.5c-2.73-1.74-3.99-4.92-3.99-9.15v-.3Z"/>
        <path class="cls-3" d="m451.99,464.92h3.66v21h-3.66v-21Z"/>
        <path class="cls-3" d="m480.46,475.27v.3c0,7.14-3.51,10.65-10.17,10.65s-10.17-3.51-10.17-10.65v-.3c0-7.14,3.48-10.65,10.17-10.65s10.17,3.51,10.17,10.65Zm-6.33,7.02c1.86-1.2,2.58-3.48,2.58-6.6v-.54c0-3.12-.72-5.4-2.58-6.6-.96-.6-2.22-.93-3.84-.93s-2.88.33-3.84.93c-1.86,1.2-2.58,3.48-2.58,6.6v.54c0,3.12.72,5.4,2.58,6.6.96.6,2.22.93,3.84.93s2.88-.33,3.84-.93Z"/>
        <path class="cls-3" d="m502.51,485.92h-4.35l-7.59-12.42c-.84-1.47-1.56-2.76-2.28-4.32h-.09c.15,1.77.21,3.39.21,5.13v11.61h-3.6v-21h4.35l7.59,12.42c.84,1.47,1.56,2.76,2.25,4.32h.09c-.15-1.77-.15-3.39-.15-5.13v-11.61h3.57v21Z"/>
        <path class="cls-3" d="m526.03,485.92h-3.78l-2.04-5.37h-8.91l-2.04,5.37h-3.6l8.34-21h3.72l8.31,21Zm-13.59-8.34h6.63l-1.86-4.95c-.54-1.38-.99-2.82-1.38-4.26h-.12c-.39,1.44-.84,2.85-1.35,4.23l-1.92,4.98Z"/>
        <path class="cls-3" d="m529.18,464.92h3.69v17.91h10.59v3.09h-14.28v-21Z"/>
      </g>
      <path class="cls-6" d="m427.17,741.74c-172.21,0-312.31-140.1-312.31-312.31S254.96,117.12,427.17,117.12s312.31,140.1,312.31,312.31-140.1,312.31-312.31,312.31Zm0-619.71c-169.5,0-307.4,137.9-307.4,307.4s137.9,307.4,307.4,307.4,307.4-137.9,307.4-307.4S596.67,122.03,427.17,122.03Z"/>
      <g>
        <path class="cls-5" d="m427.17,702.89c-33.32,0-65.87-5.93-96.76-17.61-1.27-.48-1.91-1.9-1.43-3.17.48-1.27,1.9-1.91,3.17-1.43,30.33,11.48,62.3,17.29,95.02,17.29s64.69-5.82,95.02-17.29c1.26-.48,2.69.16,3.17,1.43.48,1.27-.16,2.69-1.43,3.17-30.88,11.68-63.43,17.61-96.75,17.61Z"/>
        <path class="cls-5" d="m565.62,664.94c-.84,0-1.66-.43-2.11-1.2-.69-1.17-.31-2.68.86-3.37,27.88-16.56,52.36-37.92,72.76-63.51,20.4-25.58,35.79-54.2,45.72-85.07.42-1.29,1.8-1.99,3.09-1.59,1.29.42,2,1.8,1.59,3.09-10.12,31.43-25.78,60.58-46.56,86.62-20.77,26.05-45.7,47.81-74.09,64.67-.39.24-.83.35-1.25.35Z"/>
        <path class="cls-5" d="m695.7,468.95c-.11,0-.23,0-.34-.02-1.34-.18-2.28-1.43-2.1-2.77,4.44-32.12,3-64.58-4.28-96.48-7.28-31.9-20.07-61.78-38-88.79-.75-1.13-.44-2.66.69-3.41,1.13-.76,2.66-.44,3.4.69,18.26,27.51,31.28,57.92,38.7,90.41,7.42,32.48,8.88,65.54,4.36,98.25-.17,1.23-1.22,2.12-2.43,2.12Z"/>
        <path class="cls-5" d="m623.57,245.04c-.65,0-1.3-.26-1.78-.76-22.35-23.5-48.62-42.61-78.1-56.81-29.48-14.2-60.81-22.83-93.11-25.65-1.35-.12-2.35-1.31-2.23-2.66.12-1.35,1.33-2.36,2.66-2.23,32.89,2.87,64.8,11.66,94.81,26.11,30.02,14.46,56.78,33.92,79.53,57.85.94.98.9,2.54-.09,3.47-.48.45-1.08.68-1.69.68Z"/>
        <path class="cls-5" d="m230.76,245.04c-.61,0-1.22-.22-1.69-.68-.98-.93-1.02-2.49-.09-3.47,22.76-23.93,49.51-43.39,79.53-57.85,30.02-14.46,61.92-23.24,94.82-26.11,1.34-.13,2.54.88,2.66,2.23.12,1.35-.88,2.54-2.23,2.66-32.3,2.82-63.63,11.45-93.11,25.65-29.48,14.2-55.76,33.31-78.1,56.81-.48.51-1.13.76-1.78.76Z"/>
        <path class="cls-5" d="m158.63,468.95c-1.21,0-2.26-.89-2.43-2.12-4.52-32.71-3.05-65.76,4.36-98.25,7.42-32.48,20.44-62.9,38.7-90.41.75-1.13,2.27-1.44,3.41-.69,1.13.75,1.44,2.28.69,3.41-17.93,27.01-30.72,56.88-38,88.79-7.28,31.9-8.72,64.36-4.28,96.48.19,1.34-.75,2.58-2.1,2.77-.11.02-.23.02-.34.02Z"/>
        <path class="cls-5" d="m288.71,664.94c-.43,0-.86-.11-1.25-.35-28.39-16.86-53.32-38.62-74.09-64.67-20.77-26.05-36.44-55.19-46.56-86.62-.42-1.29.29-2.67,1.58-3.09,1.3-.42,2.68.3,3.09,1.59,9.94,30.86,25.32,59.48,45.72,85.07,20.4,25.58,44.88,46.95,72.76,63.51,1.17.69,1.55,2.2.86,3.37-.46.77-1.28,1.2-2.11,1.2Z"/>
      </g>
      <g>
        <path class="cls-1" d="m648.88,429.43c0,52.28-18.11,100.33-48.38,138.24l17.77,14.17c33.37-41.79,53.34-94.77,53.34-152.41,0-18.7-2.11-36.91-6.09-54.4l-22.17,5.06c3.61,15.87,5.52,32.38,5.52,49.35Z"/>
        <path class="cls-3" d="m427.17,207.71c34.48,0,67.12,7.87,96.22,21.91l9.86-20.49c-32.09-15.48-68.07-24.16-106.09-24.16s-74,8.68-106.09,24.16l9.87,20.49c29.1-14.04,61.74-21.91,96.22-21.91Z"/>
        <path class="cls-4" d="m643.36,380.08l22.17-5.06c-16.65-73.25-66.19-134-132.28-165.89l-9.86,20.49c59.94,28.92,104.88,84.02,119.98,150.46Z"/>
        <path class="cls-7" d="m188.8,375.02l22.17,5.06c15.1-66.44,60.04-121.54,119.98-150.46l-9.87-20.49c-66.09,31.88-115.63,92.63-132.28,165.89Z"/>
        <path class="cls-8" d="m427.17,651.15c-70.17,0-132.72-32.61-173.34-83.48l-17.77,14.17c44.79,56.09,113.75,92.04,191.11,92.04h0v-22.73h0Z"/>
        <path class="cls-9" d="m427.17,651.15v22.73c77.36,0,146.32-35.95,191.11-92.04l-17.77-14.17c-40.63,50.88-103.17,83.48-173.34,83.48Z"/>
        <path class="cls-2" d="m205.45,429.43c0-16.96,1.91-33.48,5.52-49.35l-22.17-5.06c-3.98,17.5-6.09,35.7-6.09,54.41,0,57.64,19.96,110.61,53.34,152.41l17.77-14.17c-30.27-37.91-48.38-85.95-48.38-138.24Z"/>
      </g>
      <g>
        <circle class="cls-9" cx="561.64" cy="708.65" r="13.17"/>
        <path class="cls-1" d="m737.53,488.09c5.69,4.54,6.62,12.83,2.09,18.51-4.54,5.69-12.83,6.62-18.51,2.09-5.69-4.54-6.62-12.83-2.09-18.51,4.54-5.69,12.83-6.62,18.51-2.09Z"/>
        <path class="cls-4" d="m666.54,223.35c7.09-1.62,14.16,2.82,15.78,9.91,1.62,7.09-2.82,14.16-9.91,15.78-7.09,1.62-14.16-2.82-15.78-9.91-1.62-7.09,2.82-14.16,9.91-15.78Z"/>
        <path class="cls-3" d="m415.29,113.79c3.16-6.56,11.03-9.31,17.59-6.15,6.56,3.16,9.31,11.03,6.15,17.59-3.16,6.56-11.03,9.31-17.59,6.15-6.56-3.16-9.31-11.03-6.15-17.59Z"/>
        <path class="cls-7" d="m172.99,241.92c-3.16-6.56-.4-14.43,6.15-17.59,6.56-3.16,14.43-.4,17.59,6.15,3.16,6.56.4,14.43-6.15,17.59-6.56,3.16-14.43.4-17.59-6.15Z"/>
        <path class="cls-2" d="m122.09,511.24c-7.09-1.62-11.53-8.68-9.91-15.78,1.62-7.09,8.68-11.53,15.78-9.91,7.09,1.62,11.53,8.68,9.91,15.78-1.62,7.09-8.68,11.53-15.78,9.91Z"/>
        <path class="cls-8" d="m300.92,718.96c-5.69,4.54-13.98,3.6-18.51-2.09-4.54-5.69-3.6-13.98,2.09-18.51,5.69-4.54,13.98-3.6,18.51,2.09,4.54,5.69,3.6,13.98-2.09,18.51Z"/>
      </g>
    </g>
  </g>
</svg>