<svg xmlns="http://www.w3.org/2000/svg" viewBox="0 0 207.99 207.99"><defs><style>.cls-1{fill:#ed7203;}</style></defs><g id="Camada_2" data-name="Camada 2"><g id="Camada_1-2" data-name="Camada 1"><rect class="cls-1" x="86.82" y="87.05" width="37.1" height="4.28"/><rect class="cls-1" x="86.82" y="100.56" width="37.1" height="4.28"/><rect class="cls-1" x="86.82" y="114.08" width="37.1" height="4.28"/><path class="cls-1" d="M172.37,0H35.62A35.66,35.66,0,0,0,0,35.62V156.11a3.24,3.24,0,0,0,6.48,0V35.62A29.17,29.17,0,0,1,35.62,6.48H172.37a29.18,29.18,0,0,1,29.15,29.14V172.37a29.19,29.19,0,0,1-29.15,29.15H53.24a3.24,3.24,0,0,0,0,6.47H172.37A35.66,35.66,0,0,0,208,172.37V35.62A35.66,35.66,0,0,0,172.37,0Z"/><path class="cls-1" d="M64.56,92.41v38.22a12.52,12.52,0,0,0,12.5,12.5H132a12.51,12.51,0,0,0,12.49-12.5V75.68A12.5,12.5,0,0,0,132,63.19H77.06a12.51,12.51,0,0,0-12.5,12.49V87.05H71V75.68a6,6,0,0,1,6-6H132a6,6,0,0,1,6,6v54.95a6,6,0,0,1-6,6H77.06a6,6,0,0,1-6-6V92.41Z"/></g></g></svg>