<svg xmlns="http://www.w3.org/2000/svg" viewBox="0 0 207.99 207.99"><defs><style>.cls-1{fill:#ed7203;}</style></defs><g id="Camada_2" data-name="Camada 2"><g id="Camada_1-2" data-name="Camada 1"><path class="cls-1" d="M60.87,166.52c-3-.55-5.88-2-6.9-3.18a2.89,2.89,0,0,0-4.24-.59,3.23,3.23,0,0,0-.38,4.56c1.65,1.95,4.32,3.22,7.32,4.06a22.16,22.16,0,0,0,4,.86l.33.06v0a22.42,22.42,0,0,0,2.33.14h12.8a22,22,0,0,0,22-22v-20.9A53.75,53.75,0,0,0,110.52,131c9.46,0,20.39-2.6,31.86-10.32l2.17,2.85,4-9.54-10.25,1.33,2.14,2.79c-16.44,11-31.43,11-42.32,8.26V112.52a22,22,0,0,0-22-22H72.93v-14a9.34,9.34,0,0,0-9.34-9.34h-20a4.91,4.91,0,0,1,0-9.81H96.27a10.29,10.29,0,0,0,0-20.57H76.89a4,4,0,0,1-4-4V21.25a2.87,2.87,0,1,0-5.73,0v11.6a9.69,9.69,0,0,0,9.66,9.66H96.24a4.59,4.59,0,1,1,0,9.18H43.55a10.64,10.64,0,0,0,0,21.27h20a3.65,3.65,0,0,1,3.65,3.64v14h-3.9a22,22,0,0,0-22,22v37.93c0,.13,0,.25,0,.37h.11a2.82,2.82,0,0,0,5.48,0h.13c0-.12,0-.24,0-.37v-.35s0-.08,0-.12v-5.83h0V112.52A16.28,16.28,0,0,1,63.37,96.26h12.8a16.29,16.29,0,0,1,16.26,16.26v12.1a47.83,47.83,0,0,1-12-6.47l-2,2.53a52.56,52.56,0,0,0,14,7.21v22.56a16.29,16.29,0,0,1-16.26,16.27H63.37A17.21,17.21,0,0,1,60.87,166.52Z"/><path class="cls-1" d="M72.61,120.48V110.13a2.86,2.86,0,0,0-5.72,0v10.35a2.86,2.86,0,0,0,5.72,0Z"/><path class="cls-1" d="M122.55,103.74a18.54,18.54,0,0,1-4.7-.76l-.66,2.19a15.58,15.58,0,0,0,5.43,1c3.88,0,6.3-1.9,6.3-4.94,0-2.59-1.43-3.8-5.63-5.11-1.69-.5-2.92-1-2.92-2.3,0-1.52,1.26-2.52,3.28-2.52a16.42,16.42,0,0,1,4.25.69l.61-2.28a16.75,16.75,0,0,0-5-.78c-3.78,0-6.18,2.11-6.18,5.17s3.07,4.25,5.75,5c1.93.53,2.66,1.14,2.66,2.17C125.71,102.77,124.62,103.74,122.55,103.74Z"/><path class="cls-1" d="M137.94,95.76a8.16,8.16,0,0,1,2.45.36l.45-2a11.85,11.85,0,0,0-3.33-.45,6.08,6.08,0,0,0-6.43,6.45c0,3.85,2.23,6,6.12,6a9.47,9.47,0,0,0,3.78-.74l-.43-1.8a9.87,9.87,0,0,1-2.54.4c-2.49,0-3.94-1.42-3.94-4S135.64,95.76,137.94,95.76Z"/><path class="cls-1" d="M149.88,96.05l.31-2.12a3.84,3.84,0,0,0-1.3-.23,5.46,5.46,0,0,0-3.47,1.14L145,94h-1.88v11.88h2.94V96.5a5.83,5.83,0,0,1,2.57-.6A5.05,5.05,0,0,1,149.88,96.05Z"/><path class="cls-1" d="M150.9,100.11c0,3.94,2.12,6.08,5.85,6.08s5.89-2.35,5.89-6.32-2.16-6.17-5.77-6.17C153.07,93.7,150.9,96.05,150.9,100.11Zm8.74-.12c0,2.66-1,4.08-2.92,4.08s-2.82-1.42-2.82-4.08,1.07-4.18,3-4.18S159.64,97.23,159.64,100Z"/><path class="cls-1" d="M168.24,106.19a5.41,5.41,0,0,0,2.35-.52l-.19-1.74a2.12,2.12,0,0,1-.81.14c-1.07,0-1.61-.4-1.61-1.59V88.07H165v14.86C165,105.14,166.17,106.19,168.24,106.19Z"/><path class="cls-1" d="M175.72,106.19a5.41,5.41,0,0,0,2.35-.52l-.19-1.74a2.12,2.12,0,0,1-.81.14c-1.07,0-1.61-.4-1.61-1.59V88.07h-3v14.86C172.51,105.14,173.65,106.19,175.72,106.19Z"/><path class="cls-1" d="M204.76,48.64a3.24,3.24,0,0,0-3.24,3.24V172.37a29.19,29.19,0,0,1-29.15,29.15H35.62A29.18,29.18,0,0,1,6.48,172.37V35.62A29.17,29.17,0,0,1,35.62,6.48H154.75a3.24,3.24,0,1,0,0-6.48H35.62A35.66,35.66,0,0,0,0,35.62V172.37A35.66,35.66,0,0,0,35.62,208H172.37A35.66,35.66,0,0,0,208,172.37V51.88A3.24,3.24,0,0,0,204.76,48.64Z"/></g></g></svg>