<svg xmlns="http://www.w3.org/2000/svg" viewBox="0 0 207.99 207.99"><defs><style>.cls-1{fill:#ed7203;}</style></defs><g id="Camada_2" data-name="Camada 2"><g id="Camada_1-2" data-name="Camada 1"><path class="cls-1" d="M166.54,49.78a8.35,8.35,0,0,0-8.34-8.34H66.45a8.34,8.34,0,0,0-8.34,8.34V81.35c-.14.15-.29.3-.42.47a60.07,60.07,0,0,1-5.58,6.65,35.51,35.51,0,0,1-3.65,3.07l-.77.6a15.15,15.15,0,0,0-5.82,11.93c-.07,1.83,0,3.78.07,5.66.07,1.67.13,3.4.1,5,0,1.12-.13,2.85-.23,4.8a116,116,0,0,0-.31,11.73,16.6,16.6,0,0,0,3.72,10.3c.66.95,1.43,2.06,2.34,3.52.36.59.75,1.18,1.14,1.78a14.46,14.46,0,0,1,3.15,7.29v6.15a6.26,6.26,0,0,0,6.26,6.25h7.7a2.09,2.09,0,1,0,0-4.17h-7.7A2.09,2.09,0,0,1,56,160.3v-6.15a17.63,17.63,0,0,0-3.84-9.58c-.37-.57-.73-1.12-1.07-1.67-1-1.55-1.77-2.71-2.47-3.72a12.6,12.6,0,0,1-3-8.24c-.17-2.18.1-7.18.32-11.2.11-2,.21-3.77.23-4.91,0-1.73,0-3.52-.09-5.25-.07-1.89-.14-3.68-.07-5.45a11,11,0,0,1,4.21-8.69l.76-.59a38,38,0,0,0,4.06-3.44,62.15,62.15,0,0,0,6-7.15,2,2,0,0,1,2.63-.62l.33.18a5.63,5.63,0,0,1,2.39,4.49,14.27,14.27,0,0,1-2.16,7.55,1.77,1.77,0,0,0-.15.31,50.6,50.6,0,0,1-6.81,8.15A23.31,23.31,0,0,1,53,107.84a2.09,2.09,0,1,0,1.94,3.69,17.71,17.71,0,0,0,3.2-2.31v11.46A8.33,8.33,0,0,0,65.93,129a8.43,8.43,0,0,1,4.69,8.39,2.09,2.09,0,0,0,4.17,0A13.77,13.77,0,0,0,72.32,129H91.43v.28c-.13,7.25-.28,15.47-3.09,17.26a6.43,6.43,0,0,0-3.11,5.4v8.34a2.09,2.09,0,0,1-2.09,2.08H75.64a2.09,2.09,0,1,0,0,4.17h7.49a6.25,6.25,0,0,0,6.26-6.25V152a2.34,2.34,0,0,1,1.18-1.88c4.69-3,4.86-11.59,5-20.7V129h4.22v13.37c0,7.5,6.08,11.26,8.69,12.51a2.82,2.82,0,0,1,1.74,2.32v2.66a6.78,6.78,0,0,0,6.88,6.67H129.2a2.1,2.1,0,1,0,0-4.2h-6.07l-.27,0h-5.74a2.61,2.61,0,0,1-2.71-2.5V157.2a6.92,6.92,0,0,0-4.09-6,10.06,10.06,0,0,1-6.34-8.76V116.88a4.55,4.55,0,0,1,4.55-4.54h3.79v22.93a2.09,2.09,0,1,0,4.17,0V70.63a4.06,4.06,0,0,1,1.15-2.95,4,4,0,0,1,2.92-1.22,4.3,4.3,0,0,1,4.28,4.28v35.34a2.09,2.09,0,1,0,4.17,0v-4.17a4.17,4.17,0,1,1,8.34,0v4.17a2.09,2.09,0,1,0,4.17,0V104a4.17,4.17,0,0,1,8.34,0v4.17a2.09,2.09,0,0,0,4.17,0,4.17,4.17,0,0,1,5-4.1,4.39,4.39,0,0,1,3.38,4.4v18a36.87,36.87,0,0,1-6.21,21.9A31.83,31.83,0,0,1,151,153c-.76.59-1.33,1-1.54,1.25a6.15,6.15,0,0,0-1.67,4,9.4,9.4,0,0,0,0,1.3l2.09,0-2.1.33a2.5,2.5,0,0,1-2.5,2.5h-.46v0h-4.2a2.1,2.1,0,1,0,0,4.2h4.66a6.65,6.65,0,0,0,6.67-6.56,5,5,0,0,0,0-.77q0-.39,0-.78a2,2,0,0,1,.46-1.23c.18-.18.6-.49,1.13-.91a32.9,32.9,0,0,0,6-5.49,41,41,0,0,0,7-24.36ZM74.79,124.85H66.45a4.17,4.17,0,0,1-4.17-4.17V105.15a41,41,0,0,0,5.66-7.34A18.12,18.12,0,0,0,70.6,88a9.82,9.82,0,0,0-4.54-7.87L65.73,80a6,6,0,0,0-3.45-.73V49.78a4.17,4.17,0,0,1,4.17-4.17h8.34Zm45.77-62.56a8.21,8.21,0,0,0-8.24,8.34V80a.94.94,0,0,0-.1-.1,12.37,12.37,0,0,1-3-4.18l0-.07a11.91,11.91,0,0,1-.43-1.13,2.68,2.68,0,0,1-.07-.27c-.1-.32-.19-.65-.26-1s-.06-.38-.09-.57-.09-.48-.11-.72a11.43,11.43,0,0,1-.07-1.32,12.5,12.5,0,0,1,15-12.25,12.31,12.31,0,0,1,5.43,2.6,12.54,12.54,0,0,1,2.17,17q-.39.53-.84,1c-.29.32-.61.63-.94.93V76.08h0V70.74A8.47,8.47,0,0,0,120.56,62.29Zm25.13,33.36a8.26,8.26,0,0,0-5.37,2A8.2,8.2,0,0,0,129,94.73V87.38h0V85c.32-.18.63-.38.94-.58a16.7,16.7,0,0,0,3.29-2.86A16.41,16.41,0,0,0,136.08,77c.14-.34.27-.67.38-1a17.11,17.11,0,0,0,.75-3.18,18,18,0,0,0,.14-2.21,16.53,16.53,0,0,0-2.85-9.32A16.88,16.88,0,0,0,130,56.8,16.55,16.55,0,0,0,120.66,54h0A16.69,16.69,0,0,0,104,70.63c0,.37,0,.74,0,1.11,0,.16,0,.32,0,.49l.06.6c0,.21.07.42.11.63s0,.3.07.44.11.49.17.74a3,3,0,0,1,.07.32l.24.78c0,.08,0,.17.08.25.1.29.21.58.32.86a.78.78,0,0,1,0,.14c.13.3.27.6.41.9l0,.07c.16.32.32.62.5.92v0A16.52,16.52,0,0,0,112.32,85v23.15h-3.79a8.73,8.73,0,0,0-8.72,8.71v8H79V45.61h66.73ZM162.37,101a8.09,8.09,0,0,0-2.63-1,8.41,8.41,0,0,0-6.2,1.35,8.39,8.39,0,0,0-3.68-4.5V45.61h8.34a4.17,4.17,0,0,1,4.17,4.17Z"/><path class="cls-1" d="M172.37,0H35.62A35.66,35.66,0,0,0,0,35.62V172.37A35.66,35.66,0,0,0,35.62,208H156.11a3.24,3.24,0,1,0,0-6.47H35.62A29.18,29.18,0,0,1,6.48,172.37V35.62A29.17,29.17,0,0,1,35.62,6.48H172.37a29.18,29.18,0,0,1,29.15,29.14V154.75a3.24,3.24,0,1,0,6.47,0V35.62A35.66,35.66,0,0,0,172.37,0Z"/></g></g></svg>