<svg xmlns="http://www.w3.org/2000/svg" viewBox="0 0 207.99 207.99"><defs><style>.cls-1{fill:#ed7203;}</style></defs><g id="Camada_2" data-name="Camada 2"><g id="Camada_1-2" data-name="Camada 1"><polygon class="cls-1" points="113.04 127.09 113.04 119.57 108.12 124.49 108.12 103.57 100.25 103.57 100.25 124.49 95.32 119.57 95.32 127.09 104.18 135.95 113.04 127.09"/><path class="cls-1" d="M38.59,143.84H62.71a1.84,1.84,0,0,0,0-3.67H38.59A8.59,8.59,0,0,1,30,131.59V105.85a8.59,8.59,0,0,1,8.58-8.58H62.71a8.59,8.59,0,0,1,8.58,8.58v25.74a1.84,1.84,0,1,0,3.67,0V105.85A12.27,12.27,0,0,0,62.71,93.6H38.59a12.26,12.26,0,0,0-12.25,12.25v25.74A12.26,12.26,0,0,0,38.59,143.84Z"/><path class="cls-1" d="M79.87,131.59a12.27,12.27,0,0,0,12.25,12.25h24.12a12.26,12.26,0,0,0,12.25-12.25V105.85A12.26,12.26,0,0,0,116.24,93.6H92.12a12.27,12.27,0,0,0-12.25,12.25Zm3.67-25.74a8.59,8.59,0,0,1,8.58-8.58h24.12a8.59,8.59,0,0,1,8.58,8.58v25.74a8.59,8.59,0,0,1-8.58,8.58H92.12a8.59,8.59,0,0,1-8.58-8.58Z"/><path class="cls-1" d="M118.08,41.47a1.84,1.84,0,0,0-1.84-1.84H92.12A12.27,12.27,0,0,0,79.87,51.89V77.62A12.26,12.26,0,0,0,92.12,89.87h24.12a12.26,12.26,0,0,0,12.25-12.25V51.89a1.84,1.84,0,1,0-3.67,0V77.62a8.59,8.59,0,0,1-8.58,8.58H92.12a8.59,8.59,0,0,1-8.58-8.58V51.89a8.58,8.58,0,0,1,8.58-8.58h24.12A1.85,1.85,0,0,0,118.08,41.47Z"/><path class="cls-1" d="M135.14,104a1.83,1.83,0,0,0-1.84,1.83v25.74a12.27,12.27,0,0,0,12.25,12.25h24.12a12.27,12.27,0,0,0,12.25-12.25V105.85A12.27,12.27,0,0,0,169.67,93.6H145.55a1.84,1.84,0,0,0,0,3.67h24.12a8.59,8.59,0,0,1,8.58,8.58v25.74a8.59,8.59,0,0,1-8.58,8.58H145.55a8.59,8.59,0,0,1-8.58-8.58V105.85A1.83,1.83,0,0,0,135.14,104Z"/><polygon class="cls-1" points="107.86 80.33 107.86 59.14 113.04 64.33 113.04 56.8 104.18 47.95 95.32 56.8 95.32 64.33 100.5 59.14 100.5 80.33 107.86 80.33"/><polygon class="cls-1" points="140.34 123.44 161.52 123.44 156.34 128.62 163.86 128.62 172.72 119.76 163.86 110.9 156.34 110.9 161.52 116.08 140.34 116.08 140.34 123.44"/><polygon class="cls-1" points="67.03 116.08 45.85 116.08 51.03 110.9 43.51 110.9 34.65 119.76 43.51 128.62 51.03 128.62 45.85 123.44 67.03 123.44 67.03 116.08"/><path class="cls-1" d="M172.37,0H51.88a3.24,3.24,0,0,0,0,6.48H172.37a29.18,29.18,0,0,1,29.15,29.14V172.37a29.19,29.19,0,0,1-29.15,29.15H35.62A29.18,29.18,0,0,1,6.48,172.37V53.25a3.24,3.24,0,0,0-6.48,0V172.37A35.66,35.66,0,0,0,35.62,208H172.37A35.66,35.66,0,0,0,208,172.37V35.62A35.66,35.66,0,0,0,172.37,0Z"/></g></g></svg>