<?xml version="1.0" encoding="UTF-8"?>
<svg id="Camada_2" data-name="Camada 2" xmlns="http://www.w3.org/2000/svg" viewBox="0 0 207.5 87.1">
  <defs>
    <style>
      .cls-1 {
        fill: #d30058;
      }
    </style>
  </defs>
  <g id="Camada_1-2" data-name="Camada 1">
    <g>
      <path class="cls-1" d="m59.16,0c-3.31,0-5.38,1.36-7.31,3.93C38.87,21.13,0,72.7,0,72.7h10.18c5.95,0,9.97-2.24,17.19-7.36,6-4.25,13.07-9.74,19.06-13.5,7.92-4.97,13.35-6.15,16.3-1.68,8.28,12.55,9.2,15.11,14.33,15.11h7.64L65.93,0h-6.77Zm3.12,44.36c-4.88-2.64-11.02-1.17-18.39,2.48-7.41,3.67-16.06,9.54-25.9,15.62L59.16,7.97l13.37,47.02c-4.07-4.61-7.63-9.21-10.25-10.63"/>
      <path class="cls-1" d="m117.99,20.63h-12.77s.49-3.36.65-4.47c.43-2.91,1.33-5.06,2.68-6.44,1.35-1.38,3.51-2.07,6.49-2.07h4.8l3.84-7.64h-8.1c-5.82,0-10.19,1.26-13.1,3.77-2.91,2.51-4.73,6.68-5.57,12.5-.16,1.09-.66,4.37-.66,4.37h-7.64l-1.09,7.1h7.86l-5.24,37.55h8.84l5.24-37.55h12.77l.98-7.1Z"/>
      <path class="cls-1" d="m162.52,20.63c-2.18,0-4.22,1.31-5.24,3.49l-16.7,34.38-9.06-37.87h-8.95l11.24,44.31c.29,1.09.44,2.22.44,3.38,0,1.89-.35,3.69-1.47,5.4-1.13,1.71-2.71,3.2-4.75,4.26-2.04,1.05-4.58,1.47-7.2,1.47h-4.09l-3.94,7.64h8.24c4.37,0,7.79-.57,10.26-1.69,2.47-1.13,4.51-2.8,6.11-5.02,1.6-2.22,3.6-5.7,6-10.42,6.29-12.34,25.22-49.34,25.22-49.34h-6.11Z"/>
      <path class="cls-1" d="m191.24,20.63h-15.17l-3.38,7.09h17.14c3.06,0,5.29.57,6.71,1.69,1.42,1.13,2.13,3.04,2.13,5.73,0,.44-.15,2.17-.25,2.84h-15.82c-4.66,0-8.5.98-11.52,2.95-3.02,1.96-4.82,5.13-5.4,9.49-.15,1.17-.22,1.96-.22,2.4,0,4,1.35,7.28,4.04,9.82,2.69,2.55,6.15,3.82,10.37,3.82,5.75,0,11.45-2.69,16.18-8.08,0,0,0,0,0,0l.33,6.88h7.1s2.62-18.83,3.49-25.15c.22-1.59.54-3.91.54-5.96,0-9.02-5.42-13.53-16.26-13.53m-2.64,36.51c-2.55,1.2-4.88,1.8-6.98,1.8s-3.81-.56-5.29-1.69c-1.49-1.13-2.24-2.71-2.24-4.75,0-2.62.78-4.51,2.35-5.68,1.56-1.16,3.58-1.74,6.06-1.74h14.98l-.98,7.09c-2.4,2.11-5.34,3.77-7.88,4.97"/>
    </g>
  </g>
</svg>