<?xml version="1.0" encoding="UTF-8"?><svg id="Camada_2" xmlns="http://www.w3.org/2000/svg" xmlns:xlink="http://www.w3.org/1999/xlink" viewBox="0 0 512.3 60.8"><defs><style>.cls-1{fill:#fff;}.cls-2{clip-path:url(#clippath-1);}.cls-3{clip-path:url(#clippath);}.cls-4{fill:none;}</style><clipPath id="clippath"><path class="cls-4" d="M158.3,29.5c0,7.7,3.6,14.5,9.3,18.8,5.8-1.5,12.3-3.8,19.5-7,6.8-3,13.4-6.9,18.7-10.7,0-.4,0-.7,0-1.1,0-13.1-10.6-23.7-23.7-23.7s-23.7,10.6-23.7,23.7"/></clipPath><clipPath id="clippath-1"><path class="cls-4" d="M187.5,44.1c-5.9,2.7-11.6,4.8-16.9,6.3,3.4,1.9,7.3,2.9,11.4,2.9,11.4,0,21-8.1,23.2-18.8-5.2,3.4-11.3,6.7-17.8,9.6"/></clipPath></defs><g id="Camada_1-2"><g><g id="LOGO_SOMOSCOOP"><path class="cls-1" d="M439,25.4c2.7,0,5.2,.7,7.3,2.3,1.1,.9,1.8,.7,2.9,0,4.4-3,9-3.2,13.6-.6,4.5,2.5,6.7,6.6,6.5,11.8-.2,4.9-2.7,8.7-7.2,10.9-4.7,2.3-9.2,1.7-13.4-1.3-.8-.6-1.2-.6-2,0-4.4,3.4-10.5,3.5-15,.4-4.7-3.2-6.7-9.1-4.9-14.5,1.7-5.3,6.7-8.9,12.2-8.9Zm.5,21.4c1.3,0,2.9-.6,4.4-1.6,.8-.5,1.2-1,.7-2.1-.4-.8-.6-1.7-.7-2.6-.2-1.3,.3-2.3,1.6-2.5,1.3-.2,2.1,.5,2.4,1.8,.1,.4,.2,.9,.4,1.3,1.7,4.6,6.9,6.9,11.3,5,4.6-1.9,6.7-7.2,4.5-11.7-2.1-4.4-7.6-6.1-12-3.7-1.3,.7-2.2,1.5-1.2,3.1,.3,.4,.3,1.1,.4,1.6,0,1-.5,1.7-1.4,2-1,.3-1.9,0-2.4-1-.2-.4-.3-.8-.5-1.3-1.6-4.1-5.9-6.4-10.1-5.4-4.1,1-7,5.2-6.5,9.3,.6,4.5,4.2,7.7,9.1,7.7Z"/><path class="cls-1" d="M473.3,50.4c0,2.6,0,5.2,0,7.7,0,1.5-.6,2.4-2,2.6-1.3,.2-2.1-.9-2.1-2.6,0-4.2,0-8.3,0-12.5,0-1.3,0-2.5,1.7-2.6,1.5-.2,2.4,.5,2.4,2.1,0,.8,.7,1,1.2,1.2,4.7,2.1,10.7-2,10.9-7.5,.1-3.5-1.2-6.2-4.2-7.9-3-1.8-6.1-1.7-9.1,.2-1.6,1-2.8,.9-3.5-.3-.7-1.2-.3-2.3,1.3-3.3,4.6-3,10.4-2.7,14.9,.6,4.1,3.1,6,8.9,4.4,13.9-1.6,5.1-6.4,8.8-11.7,9-1.4,0-2.7-.4-4.1-.6Z"/><path class="cls-1" d="M419,25.4c2,0,4.4,.7,6.6,2.2,1.4,.9,1.8,2.2,1.1,3.3-.7,1.1-1.9,1.2-3.4,.3-4.8-3-10.6-1.3-12.8,3.7-1.4,3.3-.6,7.1,2,9.6,2.6,2.4,6.4,3,9.6,1.5,.5-.2,1-.6,1.5-.9,1.1-.7,2.2-.7,3,.4,.8,1.1,.5,2.3-.6,3.1-4.1,2.8-8.5,3.3-13,1.2-5.5-2.5-8.4-8.6-7-14.6,1.3-5.6,6.6-9.8,13-9.8Z"/><path class="cls-1" d="M498.4,34.1c3.8-2.4,8.8-1.7,11.7,1.8,3,3.5,2.9,8.5-.1,12-2.9,3.3-7.9,4-11.6,1.6,2.4-2.1,4.6-4.5,6.8-6.7,.7-.7,.8-1.2,0-1.9-2.3-2.2-4.5-4.5-6.8-6.8Z"/><path class="cls-1" d="M438.4,8.4c3.5-3.5,7.6-3.3,9.8,.6,1.2-1.8,2.9-2.8,5-3,2.8-.2,4.7,1.1,5.2,3.9,.5,2.6,.2,5.2,.3,7.8,0,1.1-.1,2.3,1.6,2.1,.5,0,.5,.3,.5,.7,0,.4-.2,.6-.6,.7-1.4,.3-2.6-.3-2.9-1.8-.2-.7-.2-1.4-.2-2.2,0-1.9,0-3.7,0-5.6,0-2.5-1.2-3.9-3.2-4.1-2.4-.3-4.4,1.1-5,3.4-.2,.7-.2,1.4-.2,2.2,0,2,0,4.1,0,6.1,0,.7,.7,2-.8,1.9-1.3,0-.7-1.2-.7-1.8,0-2.1,0-4.2,0-6.3,0-.6,0-1.2-.1-1.8-.4-2.3-1.3-3.4-3.2-3.6-2.4-.2-4.3,.8-5,2.8-.3,.8-.4,1.6-.4,2.5,0,2.3,0,4.6,0,6.9,0,.6,.3,1.3-.8,1.3-1,0-.8-.8-.8-1.4,0-3.1,0-6.2,0-9.3,0-1.2,.5-2.9-1.7-3-.3,0-.3-.4-.3-.7,0-.4,.3-.5,.7-.5,1.6-.2,2.4,.6,2.8,2.3Z"/><path class="cls-1" d="M468.6,21.1c-4.6,0-7.8-3.1-7.8-7.5,0-4.4,3.2-7.6,7.7-7.7,4.5,0,7.7,3.2,7.8,7.6,0,4.4-3.1,7.6-7.7,7.6Zm6.1-7.5c0-3.5-2.5-6.2-6-6.2-3.7,0-6.3,2.5-6.3,6.2,0,3.5,2.5,6.1,6,6.1,3.6,0,6.2-2.5,6.2-6.1Z"/><path class="cls-1" d="M426.9,21.1c-4.6,0-7.7-3-7.7-7.5,0-4.4,3.2-7.6,7.7-7.6,4.4,0,7.7,3.2,7.8,7.6,0,4.4-3.2,7.6-7.7,7.5Zm-6.1-7.5c0,3.6,2.6,6.1,6.2,6.1,3.5,0,6-2.6,6-6.1,0-3.6-2.5-6.2-6.1-6.2-3.7,0-6.1,2.5-6.1,6.2Z"/><path class="cls-1" d="M483.3,6c2.1,0,4,.3,5.4,1.9,.4,.5,.7,1,.6,1.7,0,.3-.3,.3-.5,.3-.5,0-.8-.1-1-.7-.8-2.4-6.6-2.5-8.3-.7-1.1,1.2-.6,2.9,1,3.5,1.4,.6,2.9,.4,4.3,.7,.9,.2,1.8,.3,2.6,.7,2.7,1.1,3.2,4.4,1,6.3-2.4,2-7.6,2-10,0-.6-.5-1-1.1-1.2-1.8-.1-.3-.5-.8,0-1,.4-.2,1-.2,1.4,.3,2,2.6,4.5,3.4,7.4,2.2,1.2-.5,2.2-1.2,2.1-2.7,0-1.5-1.1-2-2.3-2.3-1.5-.3-3-.4-4.5-.7-2.8-.5-4.1-1.8-4-3.8,.1-2.1,1.9-3.7,4.5-3.9,.5,0,1,0,1.3,0Z"/><path class="cls-1" d="M411.9,6c1.5,0,2.8,.2,4.1,.8,.6,.4,1.3,.7,1.6,1.4,.2,.5,.8,1.2,0,1.6-.6,.4-1-.2-1.3-.8-1.3-2.2-6.8-2.3-8.3-.3-.9,1.2-.4,2.9,1.2,3.3,1.4,.4,2.9,.5,4.3,.8,.8,.1,1.5,.3,2.3,.5,1.5,.5,2.4,1.4,2.6,3,.1,1.6-.5,2.8-1.8,3.7-2.4,1.5-6.7,1.5-9,0-.8-.5-1.4-1.2-1.6-2.1,0-.3-.5-.8,0-1,.4-.2,.9-.3,1.3,.3,2.1,2.7,4.7,3.4,7.6,2.2,1.2-.5,2-1.2,1.9-2.6,0-1.4-1-2-2.2-2.2-1.6-.3-3.2-.5-4.8-.8-2.7-.6-3.9-1.8-3.8-3.8,.1-2,1.6-3.4,4.1-3.8,.6,0,1.2-.1,1.7-.1Z"/><path class="cls-1" d="M495.7,36.7c2.5,.2,4.2,1.5,4.8,4,.5,2.1-.2,3.8-1.8,5.2-.9,.7-1.9,.8-3,1.1-2.3-3.2-2.3-7.2,0-10.3Z"/></g><g id="LOGO_FU"><path class="cls-1" d="M119.3,59.8H6.6c-3.6,0-6.6-2.9-6.6-6.6V6.6C0,2.9,2.9,0,6.6,0H112.7c3.6,0,6.6,2.9,6.6,6.6V59.8ZM6.6,.6C3.3,.6,.6,3.3,.6,6.6V53.2c0,3.3,2.7,5.9,5.9,5.9H118.6V6.6c0-3.3-2.7-5.9-5.9-5.9H6.6Z"/><g><path class="cls-1" d="M29.3,40.9c0,4.1-2.1,6.1-6.8,6.1s-6.9-2-6.9-6.1v-10.1h4.6v9.9c0,1.7,.9,2.6,2.3,2.6s2.3-.8,2.3-2.6v-9.9h4.6v10.1Z"/><path class="cls-1" d="M45.6,46.6h-4.5l-5.1-8.6v8.5h-4.5v-15.8h4.5l5.1,8.7v-8.7h4.5v15.8Z"/><path class="cls-1" d="M52.5,46.6h-4.6v-15.8h4.6v15.8Z"/><path class="cls-1" d="M74.9,46.6h-4.7l-1-11.1h0l-1.4,11.1h-6.3l-1.5-11.1h-.1l-.9,11.1h-4.7v-.3l1.9-15.5h6.9l1.6,12.2h.1l1.6-12.2h6.7l1.9,15.5v.3Z"/><path class="cls-1" d="M81.2,36.9h5.5v3.5h-5.5v2.8h6.3v3.4h-11v-15.8h11v3.4h-6.3v2.7Z"/><path class="cls-1" d="M96.7,30.8c4.7,0,7,2.6,7,7.8s-2.3,8-7,8h-6.9v-15.8h6.9Zm-.6,12.4c2.1,0,2.9-1.5,2.9-4.6s-.8-4.5-2.8-4.5h-1.9v9h1.7Z"/><g><path class="cls-1" d="M19.8,19.6h3.6v2.1h-3.6v3.2h1.6v2h-5.8v-2h1.2V15.8h-1.2v-2h10.1v4.2h-2.3l-.2-2.2h-3.2v3.8Z"/><path class="cls-1" d="M35.5,26.7c-.5,.3-1.1,.4-1.7,.4-.8,0-1.4-.3-1.9-.7-.7,.5-1.6,.7-2.6,.7-2,0-3.2-1.1-3.2-2.7s1.4-2.9,3.9-2.9h1.4v-.3c0-1.1-.5-1.6-1.8-1.6s-1.8,.1-3,.5l-.4-1.9c1.4-.6,2.9-.9,4.3-.9,2.4,0,3.7,1.2,3.7,3.3v3.7c0,.5,.3,.8,.8,.8h.3v1.7Zm-4.9-3.7c-1,0-1.4,.4-1.4,1.1s.5,1.1,1.2,1.1,.8,0,1.1-.2h0v-1.9h-.9Z"/><path class="cls-1" d="M44.5,26.3c-1.2,.5-2.3,.8-3.8,.8-3.1,0-4.9-1.8-4.9-4.8s2.1-5.1,5.2-5.1,2.3,.2,3.5,.5l-.3,3.4h-2v-1.8c-.5,0-.8-.1-1.2-.1-1.4,0-2.2,1.2-2.2,2.9s1,2.9,2.8,2.9,1.5-.1,2.5-.5l.4,1.7Z"/><path class="cls-1" d="M56.1,26.6c-.5,.3-1.1,.5-1.8,.5s-1.6-.3-2-1c-.8,.6-1.7,1-2.8,1-1.9,0-3-1.1-3-2.9v-4.8l-1.1-.2v-1.7h4.1v6c0,.8,.4,1.2,1.3,1.2s.8-.1,1.3-.4v-5l-1.2-.2v-1.7h4.2v6.4c0,.7,.2,1.1,.8,1.1h.3v1.5Z"/><path class="cls-1" d="M62.5,26.9h-5.3v-1.9h1.2V14.7h-1.2v-1.9h4.1v12.2h1.2v1.9Z"/><path class="cls-1" d="M73.4,26.7c-.5,.2-1.1,.4-1.7,.4-.8,0-1.4-.2-1.8-.7-.6,.4-1.4,.7-2.3,.7-2.9,0-4.6-1.7-4.6-4.7s1.9-5.2,4.8-5.2,1.1,0,1.6,.3v-2.8l-1.4-.2v-1.8h4.3v11.4c0,.5,.3,.8,.8,.8h.3v1.7Zm-4-7.1c-.3-.2-.7-.3-1.3-.3-1.3,0-2.1,1.2-2.1,3.1s.8,2.7,2.1,2.7,.9-.1,1.3-.3v-5.1Z"/><path class="cls-1" d="M83.5,26.7c-.5,.3-1.1,.4-1.7,.4-.8,0-1.4-.3-1.9-.7-.8,.5-1.6,.7-2.6,.7-1.9,0-3.2-1.1-3.2-2.7s1.4-2.9,3.9-2.9h1.4v-.3c0-1.1-.5-1.6-1.8-1.6s-1.8,.1-3,.5l-.4-1.9c1.4-.6,2.9-.9,4.3-.9,2.4,0,3.7,1.2,3.7,3.3v3.7c0,.5,.3,.8,.8,.8h.3v1.7Zm-4.9-3.7c-1,0-1.4,.4-1.4,1.1s.4,1.1,1.2,1.1,.8,0,1.1-.2h0v-1.9h-.9Z"/><path class="cls-1" d="M94.4,26.7c-.5,.2-1.1,.4-1.7,.4-.8,0-1.4-.2-1.8-.7-.6,.4-1.4,.7-2.3,.7-2.9,0-4.6-1.7-4.6-4.7s1.9-5.2,4.8-5.2,1.1,0,1.6,.3v-2.8l-1.4-.2v-1.8h4.3v11.4c0,.5,.3,.8,.8,.8h.3v1.7Zm-4-7.1c-.3-.2-.7-.3-1.3-.3-1.3,0-2.1,1.2-2.1,3.1s.8,2.7,2.1,2.7,.9-.1,1.3-.3v-5.1Z"/><path class="cls-1" d="M103.7,26.2c-1.2,.6-2.5,1-4,1-3.1,0-5-1.8-5-4.9s2-5,4.9-5,4.1,1.4,4.1,3.9,0,1.1-.2,1.7h-5.7c.2,1.4,1.2,2.2,2.8,2.2s1.7-.2,2.6-.5l.5,1.7Zm-2.7-5.4c0-1-.5-1.6-1.5-1.6s-1.5,.6-1.7,1.8h3.2v-.2Z"/></g></g></g><g><path class="cls-1" d="M229.1,35c-1.6,0-3.2-.2-4.6-.8v-2.2c1.5,.8,3,1.1,4.6,1.1,2.3,0,4.2-1.1,4.2-3.6s-1.7-2.7-3.4-3.6l-2-1.1c-1.9-1-3.5-2.3-3.5-4.6,0-3.5,3.3-5,6.4-5s2.7,.2,3.9,.6l-.2,2c-1.1-.5-2.5-.7-3.7-.7-2,0-4.1,.7-4.1,3.1s1.4,2.4,2.9,3.2l2,1.1c2.1,1.2,4.1,2.5,4.1,5.1s-3,5.5-6.6,5.5"/><path class="cls-1" d="M239.1,34.6h2.1v-14.4h-2.1v14.4Zm0-17.6h2.1v-2.5h-2.1v2.5Z"/><path class="cls-1" d="M248.4,35c-1.4,0-2.8-.2-4.1-.7l.2-2c1.2,.6,2.5,.9,3.8,.9s3.1-.7,3.1-2.4c0-3.5-7-2.5-7-6.9s2.6-3.9,4.9-3.9,2.5,.2,3.6,.6l-.2,1.8c-.9-.4-2.2-.7-3.2-.7s-2.9,.4-2.9,2.2c0,2.7,7,2.1,7,6.9s-2.5,4.2-5.1,4.2"/><path class="cls-1" d="M261,35c-2.9,0-3.3-2.1-3.3-4.8v-8.3h-2.7v-1.6h2.7v-3.2l2.1-.7v4h3.3v1.6h-3.3v8.8c0,1.3,.3,2.4,1.8,2.4s1.1-.1,1.6-.4v1.8c-.6,.3-1.5,.4-2.2,.4"/><path class="cls-1" d="M271.4,21.7c-2.6,0-4,2.9-4,4.8h7.5c0-2.2-.9-4.8-3.5-4.8m-4,6.4c0,2.8,1.6,5.2,4.6,5.2s3-.4,4.1-1l.2,2c-1.3,.5-3,.8-4.4,.8-4.6,0-6.6-3.3-6.6-7.6s2.3-7.4,6.1-7.4,5.7,3.3,5.7,7.2v.9h-9.6Z"/><path class="cls-1" d="M297.4,34.6v-9.4c0-1.9-.7-3.5-2.9-3.5s-3.6,2.6-3.6,5.1v7.8h-2.1v-9.4c0-1.9-.7-3.5-2.8-3.5s-3.6,2.6-3.6,5.1v7.8h-2.1v-11c0-1.1,0-2.3-.1-3.4h1.9v2.5c1.1-1.9,2.5-2.8,4.4-2.8s3.8,1.5,4.2,3c.7-1.8,2.5-3,4.4-3,2.9,0,4.5,2.1,4.5,4.9v9.8h-2.1Z"/><path class="cls-1" d="M311.6,27.4h-.4c-2.6,0-6.5,.2-6.5,3.4s1.4,2.5,2.9,2.5c3.1,0,4-2.3,4-5v-.9Zm.2,7.2v-2.3c-.9,1.7-2.8,2.6-4.6,2.6-2.6,0-4.7-1.3-4.7-4.1s3.5-5,7.9-5h1.1v-.7c0-2.2-.9-3.5-3.2-3.5s-2.9,.3-4.1,1.2l-.2-1.9c1.2-.5,3.1-1,4.4-1,3.6,0,5.2,1.8,5.2,5.4v6.2c0,1.1,0,2.1,.2,3.1h-2.1Z"/><path class="cls-1" d="M326.7,18.8c-3.3,0-4.1,3.6-4.1,6.2s.8,6.2,4.1,6.2,4.1-3.5,4.1-6.2-.7-6.2-4.1-6.2m0,16.1c-6.3,0-10-3.5-10-9.9s3.8-9.9,10-9.9,10,3.5,10,9.9-3.8,9.9-10,9.9"/><path class="cls-1" d="M349.6,35c-6.3,0-11-3.3-11-9.9s5.1-9.9,11-9.9,3.5,.3,5,.7l-.2,4c-1.2-.4-2.6-.8-3.8-.8-3.6,0-6.1,2.3-6.1,6s2.3,6,6,6,2.7-.3,4-.8l.2,4c-1.6,.5-3.4,.8-5.1,.8"/><path class="cls-1" d="M364.6,26.3h-1.9v5.1h2c1.6,0,3.6-.5,3.6-2.5s-1.9-2.5-3.7-2.5m.3-7.7h-2.2v4.7h1.9c1.6,0,3.3-.5,3.3-2.4s-1.6-2.3-3.1-2.3m1.3,16h-9V15.4h9.8c3.1,0,6.5,1,6.5,4.8s-1.5,4-3.9,4.6c2.5,.4,4.3,1.9,4.3,4.5,0,4.7-4,5.4-7.8,5.4"/><path class="cls-1" d="M162,33.5c-6.9,4.4-12.1,8.8-14.6,12.5-.3,.5-.5,1-.4,1.7,.1,.8,1,1.2,1,1.2,0-.3,.2-.6,.3-.9,2.4-3.6,7.5-8,14.3-12.3-.4-.7-.6-1.4-.7-2.2"/><path class="cls-1" d="M218.3,15.8c-.3-.7-1.1-1-1.7-1-5.3-.5-13,.7-21.8,3.5,.5,.6,1,1.2,1.3,1.9,8.9-2.8,16.6-4,21.5-3.4,.5,0,.9,.2,.9,.2,0-.3,0-.8-.2-1.2"/><g class="cls-3"><path class="cls-1" d="M194.5,34.9h-.2c0,.1-6.9,.1-6.9,.1l-1.4,5.4h0s0,0,0,0h0s-.5,.3-.5,.3h-1.7l-.3-.3h0s0,0,0,0l1.4-5.4h-9.1s-1.4,5.4-1.4,5.4h0s0,0,0,0h0s-.5,.3-.5,.3h-1.7l-.3-.3h0c0,0,1.4-5.4,1.4-5.4h-6.9s-.2-.1-.2-.1v-.2s13.4-19.3,13.4-19.3l.3-.2,.2,.2,1.8,11-2,2.8-1.3-9.3-8.6,12.8h9.1s12-17.4,12-17.4l.3-.2,.2,.2,3.1,19.3v.2Zm-12.5-29.2c-13.1,0-23.7,10.6-23.7,23.7s10.6,23.7,23.7,23.7,23.7-10.6,23.7-23.7-10.6-23.7-23.7-23.7"/><polygon class="cls-1" points="181.5 32.8 185.4 32.8 191.8 32.8 190 20 181.5 32.8"/></g><g class="cls-2"><path class="cls-1" d="M205.8,29.5c0,13.1-10.6,23.7-23.7,23.7s-23.7-10.6-23.7-23.7,10.6-23.7,23.7-23.7,23.7,10.6,23.7,23.7"/></g><path class="cls-1" d="M221.5,15.6c1.8,7.5-14.2,19.3-33.1,27.9-21.7,9.9-41.1,11.8-43.6,6.3v-.3c-.1,0-.4,4,4.9,5.1,8,1.6,23-.8,39.9-8.5,15.3-7,28.1-15.8,32.3-23.4,1.9-3.5,.5-6.5-.3-7"/><path class="cls-1" d="M234.9,53c-.3,0-.7,0-1.2,0s-1.2-.1-1.7-.4c-.5-.2-.9-.6-1.3-1-.3-.4-.6-.9-.8-1.5-.2-.6-.3-1.2-.3-1.9s.1-1.4,.3-2c.2-.6,.5-1.1,.9-1.5,.4-.4,.8-.7,1.3-.9,.5-.2,1-.3,1.5-.3s.9,0,1.2,.1c.3,0,.6,.2,.7,.3v1.4c-.3-.1-.5-.2-.7-.3-.3-.1-.6-.2-.9-.2s-.8,0-1.1,.3c-.3,.2-.6,.4-.8,.7-.2,.3-.4,.7-.5,1.1-.1,.4-.2,.8-.2,1.3s0,.9,.2,1.3c.1,.4,.3,.8,.5,1.1,.2,.3,.5,.5,.8,.7,.3,.2,.7,.3,1.1,.3s.8,0,1-.2,.5-.2,.6-.3v1.5c-.2,0-.4,.1-.7,.2"/><polygon class="cls-1" points="241.5 53 238.6 45.8 238.6 53 237.2 53 237.2 43.8 239.4 43.8 242.2 51 242.2 43.8 243.7 43.8 243.7 53 241.5 53"/><path class="cls-1" d="M250.5,53c-.3,0-.7,0-1.2,0s-1.2-.1-1.7-.4c-.5-.2-.9-.6-1.3-1-.3-.4-.6-.9-.8-1.5-.2-.6-.3-1.2-.3-1.9s.1-1.4,.3-2c.2-.6,.5-1.1,.9-1.5,.4-.4,.8-.7,1.3-.9,.5-.2,1-.3,1.5-.3s.9,0,1.2,.1c.3,0,.6,.2,.7,.3v1.4c-.3-.1-.5-.2-.7-.3-.3-.1-.6-.2-1-.2s-.8,0-1.1,.3c-.3,.2-.6,.4-.8,.7-.2,.3-.4,.7-.5,1.1-.1,.4-.2,.8-.2,1.3s0,.9,.2,1.3c.1,.4,.3,.8,.5,1.1,.2,.3,.5,.5,.8,.7,.3,.2,.7,.3,1.1,.3s.8,0,1-.2,.5-.2,.6-.3v1.5c-.2,0-.4,.1-.7,.2"/><path class="cls-1" d="M257.8,47.3c0-.4-.1-.8-.2-1.1-.1-.3-.3-.6-.5-.9-.2-.2-.6-.3-1-.3s-.7,.1-.9,.3c-.2,.2-.4,.5-.6,.9-.1,.3-.2,.7-.3,1.1,0,.4,0,.8,0,1.1s0,.8,0,1.2c0,.4,.1,.8,.3,1.1,.1,.3,.3,.6,.6,.8,.2,.2,.5,.3,.9,.3s.7-.1,1-.3c.2-.2,.4-.5,.5-.9,.1-.3,.2-.7,.2-1.1,0-.4,0-.8,0-1.1s0-.7,0-1.1m1.6,2.9c-.1,.6-.3,1.1-.6,1.5-.3,.4-.6,.8-1.1,1.1-.5,.3-1,.4-1.7,.4s-1.3-.1-1.7-.4c-.5-.3-.8-.6-1.1-1.1-.3-.4-.5-1-.6-1.5-.1-.6-.2-1.1-.2-1.7s0-1.1,.2-1.7c.1-.6,.3-1.1,.6-1.5,.3-.5,.7-.8,1.1-1.1,.4-.3,1-.4,1.6-.4s1.3,.1,1.7,.4c.5,.3,.8,.6,1.1,1.1,.3,.4,.5,1,.6,1.5,.1,.6,.2,1.1,.2,1.7s0,1.1-.2,1.7"/><path class="cls-1" d="M266.2,47.3c0-.4-.1-.8-.2-1.1-.1-.3-.3-.6-.6-.9-.2-.2-.6-.3-1-.3s-.7,.1-1,.3c-.2,.2-.4,.5-.5,.9-.1,.3-.2,.7-.3,1.1,0,.4,0,.8,0,1.1s0,.8,0,1.2c0,.4,.1,.8,.3,1.1,.1,.3,.3,.6,.6,.8,.2,.2,.5,.3,.9,.3s.7-.1,1-.3c.2-.2,.4-.5,.5-.9,.1-.3,.2-.7,.2-1.1,0-.4,0-.8,0-1.1s0-.7,0-1.1m1.6,2.9c-.1,.6-.3,1.1-.6,1.5-.3,.4-.6,.8-1.1,1.1-.5,.3-1,.4-1.7,.4s-1.3-.1-1.7-.4c-.5-.3-.8-.6-1.1-1.1-.3-.4-.5-1-.6-1.5-.1-.6-.2-1.1-.2-1.7s0-1.1,.2-1.7c.1-.6,.3-1.1,.6-1.5,.3-.5,.7-.8,1.1-1.1,.5-.3,1-.4,1.7-.4s1.3,.1,1.7,.4c.5,.3,.8,.6,1.1,1.1,.3,.4,.5,1,.6,1.5,.1,.6,.2,1.1,.2,1.7s0,1.1-.2,1.7"/><path class="cls-1" d="M273.1,45.4c-.3-.2-.7-.4-1.2-.4h-.6v3h.7c.5,0,.9-.1,1.1-.4,.2-.3,.4-.6,.4-1.1s-.1-.9-.4-1.2m1.9,2.4c-.1,.3-.3,.6-.6,.9-.3,.2-.6,.4-.9,.5-.4,.1-.8,.2-1.2,.2h-.9v3.6h-1.7v-9.2h2.5c.4,0,.9,0,1.2,.2,.4,.1,.7,.3,1,.5,.3,.2,.5,.5,.6,.9,.1,.4,.2,.8,.2,1.2s0,.9-.2,1.2"/><rect class="cls-1" x="278.1" y="48.1" width="3" height="1.3"/><path class="cls-1" d="M290,47.3c0-.4-.1-.8-.2-1.1-.1-.3-.3-.6-.5-.9-.2-.2-.6-.3-1-.3s-.7,.1-.9,.3c-.2,.2-.4,.5-.5,.9-.1,.3-.2,.7-.3,1.1,0,.4,0,.8,0,1.1s0,.8,0,1.2c0,.4,.1,.8,.3,1.1,.1,.3,.3,.6,.6,.8,.2,.2,.5,.3,.9,.3s.7-.1,1-.3c.2-.2,.4-.5,.6-.9,.1-.3,.2-.7,.2-1.1,0-.4,0-.8,0-1.1s0-.7,0-1.1m1.6,2.9c-.1,.6-.3,1.1-.6,1.5-.3,.4-.6,.8-1.1,1.1-.5,.3-1,.4-1.7,.4s-1.3-.1-1.7-.4c-.5-.3-.8-.6-1.1-1.1-.3-.4-.5-1-.6-1.5-.1-.6-.2-1.1-.2-1.7s0-1.1,.2-1.7c.1-.6,.3-1.1,.6-1.5,.3-.5,.7-.8,1.1-1.1,.4-.3,1-.4,1.6-.4s1.3,.1,1.7,.4c.5,.3,.8,.6,1.1,1.1,.3,.4,.5,1,.6,1.5,.1,.6,.2,1.1,.2,1.7s0,1.1-.2,1.7"/><path class="cls-1" d="M298.2,53c-.3,0-.7,0-1.2,0s-1.2-.1-1.7-.4c-.5-.2-.9-.6-1.3-1-.3-.4-.6-.9-.8-1.5-.2-.6-.3-1.2-.3-1.9s.1-1.4,.3-2c.2-.6,.5-1.1,.9-1.5,.4-.4,.8-.7,1.3-.9,.5-.2,1-.3,1.5-.3s.9,0,1.2,.1c.3,0,.6,.2,.7,.3v1.4c-.3-.1-.5-.2-.7-.3-.3-.1-.6-.2-.9-.2s-.8,0-1.1,.3c-.3,.2-.6,.4-.8,.7-.2,.3-.4,.7-.5,1.1-.1,.4-.2,.8-.2,1.3s0,.9,.2,1.3c.1,.4,.3,.8,.5,1.1,.2,.3,.5,.5,.8,.7,.3,.2,.7,.3,1.1,.3s.8,0,1-.2,.5-.2,.6-.3v1.5c-.2,0-.4,.1-.7,.2"/><path class="cls-1" d="M304.2,49.3c-.2-.3-.6-.4-1-.4h-.9v2.9h.9c.4,0,.8-.1,1-.3,.3-.2,.4-.6,.4-1.1s-.1-.8-.4-1.1m-.2-3.9c-.2-.2-.6-.3-1-.3h-.8v2.6h.8c.4,0,.8-.1,1-.4,.2-.3,.3-.6,.3-1s-.1-.7-.4-.9m2,6.2c-.1,.3-.3,.6-.6,.8-.3,.2-.6,.4-.9,.5-.3,.1-.7,.2-1.1,.2h-2.8v-9.2h2.9c.3,0,.7,0,1,.2,.3,0,.6,.2,.8,.4,.2,.2,.4,.4,.5,.7,.1,.3,.2,.6,.2,1,0,.5-.1,1-.4,1.4-.3,.4-.7,.6-1.1,.7,.5,0,.9,.3,1.3,.7,.3,.4,.5,.9,.5,1.5s0,.8-.2,1.1"/><rect class="cls-1" x="310.7" y="48.1" width="3" height="1.3"/><path class="cls-1" d="M322.3,51.5c-.1,.3-.4,.6-.6,.9-.3,.2-.6,.4-.9,.6-.4,.1-.7,.2-1.2,.2h-.6s-.6-.1-.6-.1h-.6c0-.1-.5-.3-.5-.3v-1.5c.4,.2,.8,.4,1.1,.5,.4,0,.6,.1,.9,.1s.5,0,.7-.1l.4-.3,.2-.4v-.4c0-.4,0-.7-.3-.9-.2-.2-.5-.4-.8-.6l-.8-.5c-.6-.3-.9-.7-1.2-1-.2-.4-.3-.9-.3-1.4s0-.8,.3-1.2c.2-.3,.4-.6,.7-.8,.3-.2,.6-.3,.9-.4s.7-.1,1-.1,.8,0,1.1,.1c.3,0,.6,.1,.9,.2v1.4c-.3-.1-.6-.2-.9-.3-.3,0-.6-.1-.9-.1h-.5c0,0-.4,.3-.4,.3l-.3,.3v.5c-.1,.3,0,.6,.1,.8,.2,.2,.4,.4,.7,.5l.8,.5c.3,.2,.5,.3,.8,.5l.5,.5c.1,.2,.2,.4,.3,.7,0,.3,.1,.5,.1,.9s0,.8-.2,1.1"/><polygon class="cls-1" points="324.1 53 324.1 43.8 328.9 43.8 328.9 45.1 325.8 45.1 325.8 47.6 328.7 47.6 328.7 48.9 325.8 48.9 325.8 51.7 329 51.7 329 53 324.1 53"/><path class="cls-1" d="M335.2,51.5c-.1,.3-.4,.6-.6,.9-.3,.2-.6,.4-.9,.6-.4,.1-.7,.2-1.2,.2h-.6s-.6-.1-.6-.1h-.6c0-.1-.5-.3-.5-.3v-1.5c.4,.2,.8,.4,1.1,.5,.4,0,.6,.1,.9,.1s.5,0,.7-.1l.4-.3,.2-.4v-.4c0-.4,0-.7-.3-.9-.2-.2-.5-.4-.8-.6l-.8-.5c-.5-.3-.9-.7-1.2-1-.2-.4-.3-.9-.3-1.4s0-.8,.3-1.2c.2-.3,.4-.6,.7-.8,.3-.2,.6-.3,.9-.4,.3,0,.7-.1,1-.1s.8,0,1.1,.1c.3,0,.6,.1,.9,.2v1.4c-.3-.1-.6-.2-.9-.3-.3,0-.6-.1-.9-.1h-.5c0,0-.4,.3-.4,.3l-.3,.3v.5c-.1,.3,0,.6,.1,.8,.2,.2,.4,.4,.7,.5l.8,.5c.3,.2,.5,.3,.8,.5l.5,.5c.1,.2,.2,.4,.3,.7,0,.3,.1,.5,.1,.9s0,.8-.2,1.1"/><path class="cls-1" d="M341.8,53c-.3,0-.7,0-1.2,0s-1.2-.1-1.7-.4c-.5-.2-.9-.6-1.3-1-.3-.4-.6-.9-.8-1.5-.2-.6-.3-1.2-.3-1.9s.1-1.4,.3-2c.2-.6,.5-1.1,.9-1.5,.4-.4,.8-.7,1.3-.9,.5-.2,1-.3,1.5-.3s.9,0,1.2,.1c.3,0,.6,.2,.7,.3v1.4c-.3-.1-.5-.2-.7-.3-.3-.1-.6-.2-.9-.2s-.8,0-1.1,.3c-.3,.2-.6,.4-.8,.7-.2,.3-.4,.7-.5,1.1-.1,.4-.2,.8-.2,1.3s0,.9,.2,1.3c.1,.4,.3,.8,.5,1.1,.2,.3,.5,.5,.8,.7,.3,.2,.7,.3,1.1,.3s.8,0,1-.2c.3-.1,.5-.2,.6-.3v1.5c-.2,0-.4,.1-.7,.2"/><path class="cls-1" d="M349.1,47.3c0-.4-.1-.8-.2-1.1-.1-.3-.3-.6-.5-.9-.2-.2-.6-.3-1-.3s-.7,.1-.9,.3-.4,.5-.5,.9c-.1,.3-.2,.7-.3,1.1,0,.4,0,.8,0,1.1s0,.8,0,1.2c0,.4,.1,.8,.3,1.1,.1,.3,.3,.6,.6,.8,.2,.2,.5,.3,.9,.3s.7-.1,1-.3c.2-.2,.4-.5,.5-.9,.1-.3,.2-.7,.2-1.1,0-.4,0-.8,0-1.1s0-.7,0-1.1m1.6,2.9c-.1,.6-.3,1.1-.6,1.5-.3,.4-.6,.8-1.1,1.1-.5,.3-1,.4-1.7,.4s-1.3-.1-1.7-.4c-.5-.3-.8-.6-1.1-1.1-.3-.4-.5-1-.6-1.5-.1-.6-.2-1.1-.2-1.7s0-1.1,.2-1.7c.1-.6,.3-1.1,.6-1.5,.3-.5,.7-.8,1.1-1.1,.4-.3,1-.4,1.6-.4s1.3,.1,1.7,.4c.5,.3,.8,.6,1.1,1.1,.3,.4,.5,1,.6,1.5,.1,.6,.2,1.1,.2,1.7s0,1.1-.2,1.7"/><path class="cls-1" d="M357.5,47.3c0-.4-.1-.8-.2-1.1-.1-.3-.3-.6-.6-.9-.2-.2-.6-.3-1-.3s-.7,.1-1,.3c-.2,.2-.4,.5-.5,.9-.1,.3-.2,.7-.3,1.1,0,.4,0,.8,0,1.1s0,.8,0,1.2c0,.4,.1,.8,.3,1.1,.1,.3,.3,.6,.6,.8,.2,.2,.5,.3,.9,.3s.7-.1,1-.3c.2-.2,.4-.5,.6-.9,.1-.3,.2-.7,.2-1.1,0-.4,0-.8,0-1.1s0-.7,0-1.1m1.6,2.9c-.1,.6-.3,1.1-.6,1.5-.3,.4-.6,.8-1.1,1.1-.5,.3-1,.4-1.7,.4s-1.3-.1-1.7-.4c-.5-.3-.8-.6-1.1-1.1-.3-.4-.5-1-.6-1.5-.1-.6-.2-1.1-.2-1.7s0-1.1,.2-1.7c.1-.6,.3-1.1,.6-1.5,.3-.5,.7-.8,1.1-1.1,.4-.3,1-.4,1.6-.4s1.3,.1,1.7,.4c.5,.3,.8,.6,1.1,1.1,.3,.4,.5,1,.6,1.5,.1,.6,.2,1.1,.2,1.7s0,1.1-.2,1.7"/><path class="cls-1" d="M364.4,45.4c-.3-.2-.7-.4-1.2-.4h-.6v3h.7c.5,0,.9-.1,1.1-.4,.2-.3,.4-.6,.4-1.1s-.1-.9-.4-1.2m1.9,2.4c-.1,.3-.3,.6-.6,.9-.3,.2-.6,.4-.9,.5-.4,.1-.8,.2-1.2,.2h-.9v3.6h-1.7v-9.2h2.5c.5,0,.9,0,1.2,.2,.4,.1,.7,.3,1,.5,.3,.2,.5,.5,.6,.9,.1,.4,.2,.8,.2,1.2s0,.9-.2,1.2"/><rect class="cls-1" x="224.8" y="38.6" width="148.3" height="1"/></g></g></g></svg>