<?xml version="1.0" encoding="UTF-8"?><svg xmlns="http://www.w3.org/2000/svg" xmlns:xlink="http://www.w3.org/1999/xlink" viewBox="0 0 500.16 60.78"><defs><style>.h{fill:#fff;}.i{fill:none;}.j{clip-path:url(#f);}.k{clip-path:url(#g);}</style><clipPath id="f"><path class="i" d="M284.49,29.51c0,7.65,3.63,14.46,9.25,18.8,5.79-1.46,12.34-3.82,19.5-7.04,6.77-3.04,13.42-6.9,18.69-10.66,.02-.36,.03-.73,.03-1.1,0-13.11-10.63-23.73-23.73-23.73s-23.73,10.62-23.73,23.73"/></clipPath><clipPath id="g"><path class="i" d="M313.68,44.06c-5.89,2.68-11.6,4.75-16.87,6.27,3.39,1.86,7.27,2.92,11.41,2.92,11.42,0,20.95-8.07,23.22-18.81-5.19,3.38-11.31,6.69-17.76,9.62"/></clipPath></defs><g id="a"/><g id="b"><g id="c"><g><g><g id="d"><path class="h" d="M175.18,25.4c2.66,.04,5.17,.72,7.27,2.35,1.13,.88,1.79,.71,2.88-.03,4.35-2.95,8.98-3.18,13.55-.62,4.52,2.54,6.75,6.61,6.5,11.76-.23,4.93-2.69,8.68-7.16,10.86-4.67,2.28-9.2,1.72-13.38-1.3-.81-.58-1.21-.56-1.97,.03-4.39,3.38-10.5,3.5-15,.36-4.65-3.24-6.66-9.11-4.94-14.47,1.7-5.3,6.7-8.95,12.25-8.95Zm.53,21.41c1.34,.05,2.93-.57,4.43-1.56,.82-.54,1.18-1.04,.67-2.06-.4-.79-.59-1.7-.74-2.58-.22-1.29,.27-2.28,1.63-2.51,1.32-.23,2.13,.46,2.45,1.75,.11,.44,.21,.88,.36,1.3,1.67,4.58,6.85,6.88,11.33,5.02,4.6-1.91,6.65-7.23,4.49-11.67-2.15-4.43-7.64-6.13-11.96-3.75-1.32,.72-2.22,1.46-1.2,3.09,.28,.45,.34,1.07,.38,1.62,.08,1.04-.48,1.74-1.43,2.04-1.04,.32-1.9-.05-2.45-.99-.22-.38-.32-.84-.48-1.26-1.56-4.1-5.9-6.4-10.11-5.36-4.12,1.02-7.03,5.16-6.52,9.27,.56,4.47,4.19,7.68,9.13,7.66Z"/><path class="h" d="M209.55,50.45c0,2.64-.04,5.17,.02,7.7,.03,1.48-.55,2.43-2.03,2.61-1.31,.16-2.1-.89-2.1-2.63,0-4.17,0-8.35,0-12.52,0-1.26,.1-2.46,1.69-2.64,1.5-.16,2.38,.54,2.43,2.1,.02,.84,.71,.96,1.24,1.19,4.74,2.06,10.72-2.02,10.95-7.48,.14-3.45-1.25-6.18-4.23-7.91-3.03-1.76-6.13-1.66-9.13,.23-1.6,1-2.78,.92-3.52-.27-.72-1.16-.26-2.34,1.29-3.35,4.6-2.99,10.41-2.74,14.88,.64,4.15,3.14,5.96,8.92,4.36,13.94-1.63,5.13-6.36,8.77-11.71,9.03-1.37,.06-2.66-.35-4.13-.63Z"/><path class="h" d="M155.22,25.4c2.05,.03,4.44,.73,6.61,2.19,1.37,.92,1.79,2.17,1.1,3.27-.72,1.14-1.86,1.24-3.39,.3-4.83-2.97-10.65-1.28-12.77,3.71-1.42,3.33-.62,7.09,2.05,9.62,2.55,2.42,6.39,3.02,9.58,1.47,.5-.24,.98-.55,1.45-.85,1.12-.71,2.22-.68,2.98,.43,.77,1.13,.55,2.26-.63,3.07-4.09,2.84-8.46,3.27-12.97,1.22-5.53-2.51-8.4-8.6-7.03-14.63,1.27-5.6,6.62-9.79,13.03-9.79Z"/><path class="h" d="M234.65,34.14c3.83-2.43,8.78-1.68,11.71,1.78,2.98,3.5,2.92,8.52-.14,12.05-2.89,3.33-7.9,4.02-11.62,1.58,2.41-2.1,4.55-4.46,6.79-6.74,.71-.72,.75-1.18,.01-1.9-2.29-2.22-4.51-4.51-6.76-6.77Z"/><path class="h" d="M174.64,8.37c3.54-3.53,7.55-3.26,9.78,.57,1.2-1.82,2.86-2.81,5.02-3,2.8-.24,4.68,1.09,5.24,3.86,.52,2.57,.18,5.17,.26,7.75,.04,1.09-.14,2.27,1.56,2.15,.48-.04,.53,.3,.52,.66,0,.4-.2,.56-.6,.66-1.43,.34-2.61-.31-2.94-1.78-.16-.7-.18-1.45-.19-2.18-.03-1.86,.03-3.72-.02-5.58-.07-2.48-1.18-3.88-3.16-4.11-2.39-.27-4.4,1.07-4.95,3.36-.17,.7-.23,1.44-.25,2.17-.03,2.03,.06,4.06-.05,6.08-.04,.66,.73,1.95-.76,1.92-1.28-.03-.66-1.2-.69-1.84-.08-2.08-.02-4.17-.04-6.25,0-.62-.05-1.24-.14-1.85-.37-2.32-1.33-3.38-3.17-3.55-2.41-.22-4.28,.83-5.03,2.84-.29,.8-.38,1.63-.37,2.49,.02,2.31,.02,4.62,0,6.93,0,.55,.27,1.32-.79,1.28-1.03-.04-.75-.8-.76-1.36-.02-3.1,.03-6.2-.03-9.3-.03-1.23,.53-2.9-1.66-3-.33-.02-.35-.4-.32-.68,.04-.43,.34-.49,.72-.53,1.57-.17,2.44,.61,2.82,2.28Z"/><path class="h" d="M204.84,21.08c-4.59,0-7.77-3.08-7.78-7.52,0-4.43,3.22-7.63,7.71-7.66,4.45-.03,7.74,3.18,7.78,7.59,.04,4.45-3.15,7.58-7.71,7.58Zm6.1-7.49c.02-3.53-2.51-6.16-5.96-6.2-3.74-.04-6.32,2.48-6.32,6.16,0,3.52,2.52,6.08,6.04,6.13,3.61,.05,6.22-2.5,6.23-6.09Z"/><path class="h" d="M163.15,21.07c-4.62,0-7.75-3.05-7.74-7.52,0-4.43,3.22-7.61,7.72-7.64,4.44-.02,7.74,3.2,7.77,7.61,.03,4.43-3.18,7.55-7.74,7.55Zm-6.14-7.49c.01,3.59,2.61,6.14,6.22,6.1,3.54-.04,6.01-2.55,6.01-6.12,0-3.65-2.52-6.19-6.12-6.17-3.65,.02-6.12,2.52-6.11,6.19Z"/><path class="h" d="M219.54,5.97c2.13,.06,4.01,.33,5.39,1.93,.41,.48,.68,1.04,.57,1.7-.05,.28-.29,.29-.52,.31-.52,.04-.79-.14-.96-.68-.75-2.36-6.64-2.5-8.3-.65-1.07,1.19-.58,2.87,1.04,3.51,1.38,.55,2.89,.43,4.31,.75,.88,.19,1.78,.33,2.61,.66,2.71,1.08,3.23,4.43,1,6.3-2.39,2.01-7.61,1.97-9.98-.07-.57-.49-.97-1.09-1.2-1.8-.11-.34-.49-.79,.05-.99,.43-.16,.95-.22,1.35,.31,1.97,2.61,4.55,3.37,7.45,2.22,1.23-.48,2.19-1.21,2.11-2.71-.07-1.46-1.11-2.03-2.33-2.27-1.49-.3-3.01-.42-4.5-.71-2.77-.54-4.09-1.84-3.99-3.79,.11-2.15,1.86-3.65,4.55-3.92,.5-.05,1.01-.07,1.33-.09Z"/><path class="h" d="M148.07,5.97c1.49,.04,2.84,.16,4.06,.83,.65,.35,1.28,.74,1.6,1.45,.23,.52,.78,1.18,.08,1.59-.61,.35-.97-.15-1.33-.79-1.28-2.22-6.81-2.35-8.32-.28-.9,1.24-.38,2.86,1.24,3.32,1.4,.4,2.88,.5,4.32,.76,.77,.14,1.55,.31,2.3,.55,1.47,.46,2.44,1.43,2.59,3.01,.15,1.58-.46,2.85-1.83,3.73-2.37,1.53-6.74,1.51-9.04-.07-.76-.52-1.38-1.18-1.63-2.09-.09-.33-.51-.79,.02-1.02,.43-.19,.94-.26,1.35,.27,2.08,2.68,4.68,3.4,7.62,2.16,1.17-.5,2.02-1.22,1.94-2.65-.08-1.38-1.01-1.98-2.18-2.22-1.6-.34-3.23-.49-4.83-.82-2.72-.57-3.86-1.76-3.76-3.77,.1-2.02,1.6-3.43,4.08-3.81,.61-.09,1.24-.1,1.72-.14Z"/><path class="h" d="M231.91,36.74c2.49,.25,4.22,1.45,4.84,3.95,.53,2.13-.22,3.84-1.85,5.24-.86,.74-1.95,.81-2.96,1.12-2.28-3.23-2.3-7.15-.03-10.31Z"/></g><g id="e"><path class="h" d="M119.25,59.77H6.57c-3.62,0-6.57-2.95-6.57-6.57V6.57C0,2.95,2.95,0,6.57,0H112.68c3.62,0,6.57,2.95,6.57,6.57V59.77ZM6.57,.63C3.29,.63,.63,3.29,.63,6.57V53.2c0,3.28,2.67,5.94,5.95,5.94H118.63V6.57c0-3.28-2.67-5.95-5.94-5.95H6.57Z"/><g><path class="h" d="M29.29,40.88c0,4.06-2.15,6.08-6.84,6.08s-6.93-2.01-6.93-6.08v-10.07h4.63v9.87c0,1.74,.93,2.55,2.26,2.55,1.56,0,2.26-.81,2.26-2.55v-9.87h4.63v10.07Z"/><path class="h" d="M45.61,46.64h-4.52l-5.08-8.56v8.54h-4.52v-15.81h4.52l5.08,8.74v-8.74h4.52v15.83Z"/><path class="h" d="M52.45,46.61h-4.63v-15.81h4.63v15.81Z"/><path class="h" d="M74.87,46.61h-4.72l-.99-11.07h-.09l-1.42,11.07h-6.28l-1.47-11.07h-.13l-.86,11.07h-4.72v-.34l1.9-15.47h6.93l1.56,12.22h.11l1.56-12.22h6.73l1.9,15.47v.34Z"/><path class="h" d="M81.22,36.9h5.53v3.5h-5.53v2.82h6.32v3.39h-10.95v-15.81h10.95v3.39h-6.32v2.71Z"/><path class="h" d="M96.69,30.81c4.72,0,7.05,2.6,7.05,7.84s-2.33,7.97-7.05,7.97h-6.93v-15.81h6.93Zm-.59,12.42c2.08,0,2.89-1.51,2.89-4.58s-.77-4.45-2.75-4.45h-1.85v9.03h1.72Z"/><g><path class="h" d="M19.81,19.59h3.64v2.08h-3.64v3.2h1.55v2.01h-5.85v-2.01h1.22V15.76h-1.22v-2.01h10.12v4.24h-2.34l-.24-2.23h-3.24v3.82Z"/><path class="h" d="M35.47,26.73c-.51,.26-1.13,.41-1.69,.41-.83,0-1.44-.26-1.86-.71-.75,.49-1.63,.71-2.6,.71-1.95,0-3.2-1.1-3.2-2.74,0-1.95,1.39-2.88,3.9-2.9h1.42v-.32c0-1.11-.5-1.57-1.76-1.57-.79,0-1.8,.13-3,.47l-.36-1.93c1.44-.58,2.85-.9,4.31-.9,2.36,0,3.73,1.18,3.73,3.3v3.67c0,.54,.28,.84,.82,.84h.28v1.67Zm-4.93-3.69c-.97,0-1.42,.45-1.42,1.12,0,.62,.45,1.05,1.2,1.05,.41,0,.79-.08,1.12-.22v-1.95h-.9Z"/><path class="h" d="M44.55,26.3c-1.18,.54-2.27,.84-3.79,.84-3.13,0-4.93-1.76-4.93-4.8s2.06-5.1,5.19-5.1c1.29,0,2.31,.19,3.5,.49l-.28,3.45h-2l-.1-1.84c-.37-.07-.73-.13-1.08-.13-1.35,0-2.23,1.18-2.23,2.9,0,1.86,1.01,2.91,2.77,2.91,.9,0,1.54-.13,2.55-.47l.39,1.74Z"/><path class="h" d="M56.12,26.58c-.49,.34-1.11,.54-1.8,.54-.92,0-1.61-.34-1.99-.96-.77,.62-1.69,.97-2.81,.97-1.87,0-2.96-1.07-2.96-2.94v-4.81l-1.12-.17v-1.71h4.07v6.02c0,.8,.43,1.24,1.26,1.24,.41,0,.84-.13,1.27-.38v-5l-1.18-.17v-1.71h4.16v6.45c0,.73,.17,1.09,.81,1.09h.3v1.53Z"/><path class="h" d="M62.46,26.88h-5.27v-1.86h1.16V14.68l-1.16-.13v-1.72h4.1v12.2h1.16v1.86Z"/><path class="h" d="M73.37,26.74c-.49,.24-1.1,.39-1.67,.39-.8,0-1.44-.24-1.84-.67-.64,.43-1.41,.67-2.29,.67-2.92,0-4.61-1.72-4.61-4.68,0-3.15,1.86-5.21,4.76-5.21,.6,0,1.14,.09,1.63,.28v-2.77l-1.37-.17v-1.76h4.29v11.39c0,.54,.28,.84,.82,.84h.26v1.69Zm-4.01-7.1c-.32-.19-.7-.32-1.25-.32-1.31,0-2.14,1.2-2.14,3.07,0,1.71,.79,2.66,2.08,2.66,.5,0,.92-.13,1.29-.34l.02-5.08Z"/><path class="h" d="M83.51,26.73c-.51,.26-1.13,.41-1.69,.41-.82,0-1.44-.26-1.85-.71-.75,.49-1.63,.71-2.61,.71-1.95,0-3.21-1.1-3.21-2.74,0-1.95,1.39-2.88,3.9-2.9h1.42v-.32c0-1.11-.5-1.57-1.76-1.57-.79,0-1.8,.13-3,.47l-.36-1.93c1.44-.58,2.85-.9,4.31-.9,2.36,0,3.73,1.18,3.73,3.3v3.67c0,.54,.28,.84,.82,.84h.28v1.67Zm-4.93-3.69c-.97,0-1.42,.45-1.42,1.12,0,.62,.45,1.05,1.2,1.05,.41,0,.79-.08,1.12-.22v-1.95h-.9Z"/><path class="h" d="M94.36,26.74c-.49,.24-1.1,.39-1.67,.39-.8,0-1.44-.24-1.84-.67-.64,.43-1.41,.67-2.29,.67-2.92,0-4.61-1.72-4.61-4.68,0-3.15,1.86-5.21,4.76-5.21,.6,0,1.14,.09,1.63,.28v-2.77l-1.37-.17v-1.76h4.29v11.39c0,.54,.28,.84,.82,.84h.26v1.69Zm-4.01-7.1c-.32-.19-.69-.32-1.25-.32-1.31,0-2.14,1.2-2.14,3.07,0,1.71,.79,2.66,2.08,2.66,.51,0,.92-.13,1.29-.34l.02-5.08Z"/><path class="h" d="M103.71,26.18c-1.16,.58-2.49,.95-3.99,.95-3.13,0-5-1.82-5-4.85s1.97-5.04,4.89-5.04c2.59,0,4.07,1.4,4.07,3.86,0,.54-.04,1.09-.24,1.67h-5.66c.22,1.39,1.24,2.21,2.85,2.21,.88,0,1.74-.17,2.64-.51l.45,1.7Zm-2.7-5.36c0-1.01-.54-1.61-1.48-1.61-.88,0-1.5,.64-1.73,1.8h3.2v-.19Z"/></g></g></g></g><g><path class="h" d="M355.31,34.97c-1.56,0-3.17-.2-4.62-.81l.14-2.22c1.36,.83,2.86,1.12,4.45,1.12,2.34,0,4.21-1.07,4.21-3.58,0-1.73-1.67-2.68-3.43-3.64l-2-1.07c-1.87-1.01-3.52-2.31-3.52-4.62,0-3.49,3.29-5.05,6.41-5.05,1.33,0,2.66,.17,3.9,.61l-.17,2.04c-1.07-.55-2.51-.75-3.69-.75-2.02,0-4.1,.75-4.1,3.06,0,1.5,1.36,2.37,2.89,3.17l1.99,1.07c2.14,1.16,4.1,2.45,4.1,5.14,0,3.61-3.03,5.51-6.56,5.51"/><path class="h" d="M365.27,34.65h2.11v-14.37h-2.11v14.37Zm0-17.57h2.11v-2.51h-2.11v2.51Z"/><path class="h" d="M374.59,34.97c-1.39,0-2.8-.17-4.1-.67l.17-1.96c1.15,.6,2.45,.89,3.75,.89,1.47,0,3.06-.75,3.06-2.39,0-3.49-6.96-2.51-6.96-6.93,0-2.77,2.57-3.93,4.94-3.93,1.18,0,2.48,.23,3.58,.63l-.17,1.76c-.92-.4-2.22-.69-3.23-.69-1.38,0-2.94,.43-2.94,2.2,0,2.68,6.96,2.07,6.96,6.89,0,2.77-2.51,4.19-5.05,4.19"/><path class="h" d="M387.21,34.97c-2.95,0-3.32-2.14-3.32-4.76v-8.28h-2.71v-1.65h2.71v-3.23l2.08-.72v3.95h3.26v1.65h-3.26v8.83c0,1.27,.34,2.4,1.84,2.4,.58,0,1.1-.14,1.62-.38l.12,1.76c-.72,.29-1.59,.43-2.34,.43"/><path class="h" d="M397.54,21.66c-2.63,0-3.95,2.86-3.95,4.82h7.47c0-2.22-.89-4.82-3.52-4.82m-3.95,6.38c0,2.8,1.59,5.22,4.62,5.22,1.24,0,3-.38,4.07-1.01l.17,1.96c-1.33,.52-3,.75-4.45,.75-4.64,0-6.61-3.26-6.61-7.56,0-3.69,2.25-7.42,6.12-7.42,4.07,0,5.69,3.35,5.69,7.19v.87h-9.61Z"/><path class="h" d="M423.52,34.64v-9.41c0-1.93-.69-3.46-2.86-3.46-2.62,0-3.58,2.6-3.58,5.11v7.76h-2.11v-9.41c0-1.93-.67-3.46-2.83-3.46-2.63,0-3.61,2.6-3.61,5.11v7.76h-2.11v-10.99c0-1.13-.03-2.25-.14-3.38h1.93l.09,2.48c.98-1.87,2.42-2.77,4.3-2.77,2.37,0,3.84,1.5,4.18,3,.67-1.79,2.54-3,4.36-3,2.94,0,4.47,2.08,4.47,4.88v9.78h-2.1Z"/><path class="h" d="M437.75,27.43h-.4c-2.57,0-6.5,.2-6.5,3.38,0,1.68,1.36,2.46,2.92,2.46,3.06,0,3.98-2.28,3.98-4.96v-.87Zm.2,7.21l-.09-2.31c-.81,1.67-2.68,2.63-4.47,2.63-2.57,0-4.7-1.3-4.7-4.07,0-3.69,3.52-4.99,7.94-4.99h1.13v-.69c0-2.19-.87-3.55-3.23-3.55-1.47,0-2.86,.32-4.13,1.15l-.17-1.87c1.21-.55,3.06-.95,4.38-.95,3.58,0,5.22,1.79,5.22,5.37v6.23c0,1.07,.03,2.07,.18,3.06h-2.05Z"/><path class="h" d="M452.88,18.83c-3.26,0-4.07,3.61-4.07,6.2s.84,6.21,4.07,6.21,4.09-3.49,4.09-6.21-.72-6.2-4.09-6.2m0,16.13c-6.32,0-10.02-3.55-10.02-9.93s3.81-9.92,10.02-9.92,10.04,3.55,10.04,9.92-3.78,9.93-10.04,9.93"/><path class="h" d="M475.77,34.97c-6.29,0-11-3.32-11-9.93,0-6.23,5.08-9.92,11-9.92,1.64,0,3.46,.29,5.05,.66l-.17,4.04c-1.18-.43-2.57-.75-3.84-.75-3.61,0-6.09,2.34-6.09,5.97s2.28,5.98,5.97,5.98c1.39,0,2.74-.26,4.01-.78l.17,3.95c-1.59,.55-3.43,.78-5.11,.78"/><path class="h" d="M490.78,26.34h-1.9v5.08h1.96c1.64,0,3.61-.52,3.61-2.54,0-2.19-1.91-2.54-3.67-2.54m.29-7.71h-2.19v4.73h1.93c1.59,0,3.32-.52,3.32-2.42,0-1.79-1.56-2.31-3.06-2.31m1.33,16.02h-8.98V15.4h9.81c3.15,0,6.49,1.04,6.49,4.76,0,2.51-1.47,4.04-3.87,4.56,2.45,.43,4.3,1.9,4.3,4.53,0,4.68-3.95,5.4-7.76,5.4"/><path class="h" d="M288.12,33.48c-6.94,4.42-12.11,8.83-14.59,12.49-.26,.47-.48,1.04-.36,1.69,.15,.85,1.04,1.21,1.04,1.21,.05-.33,.18-.65,.33-.91,2.45-3.61,7.52-7.96,14.32-12.32-.36-.67-.61-1.4-.74-2.16"/><path class="h" d="M344.48,15.81c-.35-.71-1.06-.97-1.73-1.04-5.34-.51-12.98,.74-21.84,3.54,.54,.56,1,1.19,1.35,1.88,8.93-2.79,16.61-4.04,21.51-3.43,.54,.07,.88,.25,.88,.25,.03-.3,.04-.79-.16-1.2"/><g class="j"><path class="h" d="M320.62,34.94l-.24,.12h-6.94l-1.43,5.37v.02l-.02,.03h-.01l-.48,.35h-1.72l-.29-.35h-.01v-.05l1.44-5.38h-9.09l-1.43,5.38v.06h-.02l-.48,.34h-1.72l-.29-.34h-.01v-.05l1.43-5.37h-6.95l-.18-.1,.04-.24,13.35-19.3,.28-.16,.2,.16,1.8,11.01-1.96,2.83-1.29-9.29-8.56,12.81h9.13l12.01-17.37,.28-.16,.2,.16,3.05,19.29-.09,.23Zm-12.39-29.16c-13.11,0-23.73,10.63-23.73,23.73s10.63,23.73,23.73,23.73,23.74-10.63,23.74-23.73-10.63-23.73-23.74-23.73"/><polygon class="h" points="307.65 32.78 311.53 32.78 317.94 32.77 316.21 19.97 307.65 32.78"/></g><g class="k"><path class="h" d="M331.96,29.51c0,13.11-10.63,23.73-23.74,23.73s-23.73-10.63-23.73-23.73,10.63-23.73,23.73-23.73,23.74,10.63,23.74,23.73"/></g><path class="h" d="M347.63,15.57c1.82,7.52-14.22,19.26-33.12,27.85-21.66,9.85-41.13,11.76-43.62,6.27l-.11-.27s-.28,4.04,4.96,5.12c7.97,1.59,23.02-.81,39.89-8.49,15.32-6.97,28.11-15.82,32.26-23.43,1.9-3.5,.46-6.51-.26-7.04"/><path class="h" d="M361.04,53.04c-.3,.06-.69,.1-1.16,.1-.64,0-1.21-.12-1.71-.36-.5-.24-.92-.57-1.26-.99-.34-.43-.6-.93-.78-1.5-.18-.57-.27-1.2-.27-1.88,0-.73,.11-1.39,.32-1.98,.22-.59,.51-1.09,.87-1.49,.36-.41,.78-.72,1.27-.93,.48-.22,.99-.32,1.52-.32,.5,0,.9,.05,1.22,.14,.32,.09,.57,.18,.74,.26l-.08,1.44c-.17-.13-.39-.24-.66-.34-.26-.11-.58-.16-.95-.16-.41,0-.77,.09-1.09,.27-.31,.18-.57,.42-.78,.73-.21,.31-.37,.67-.48,1.08-.11,.41-.16,.85-.16,1.32s.06,.89,.16,1.3c.11,.41,.27,.76,.48,1.06,.21,.3,.47,.54,.78,.72,.31,.18,.67,.27,1.07,.27,.44,0,.79-.06,1.05-.17s.47-.2,.62-.28l.08,1.5c-.24,.07-.51,.14-.81,.21"/><polygon class="h" points="367.61 52.98 364.81 45.76 364.81 52.98 363.35 52.98 363.35 43.81 365.55 43.81 368.34 51.04 368.34 43.81 369.81 43.81 369.81 52.98 367.61 52.98"/><path class="h" d="M376.68,53.04c-.3,.06-.69,.1-1.16,.1-.64,0-1.21-.12-1.71-.36-.5-.24-.92-.57-1.26-.99-.34-.43-.6-.93-.77-1.5-.18-.57-.27-1.2-.27-1.88,0-.73,.11-1.39,.32-1.98,.22-.59,.5-1.09,.87-1.49,.36-.41,.78-.72,1.27-.93,.48-.22,.99-.32,1.52-.32,.5,0,.9,.05,1.23,.14,.32,.09,.57,.18,.74,.26l-.08,1.44c-.17-.13-.39-.24-.66-.34-.27-.11-.58-.16-.95-.16-.41,0-.77,.09-1.09,.27-.31,.18-.57,.42-.79,.73-.21,.31-.37,.67-.48,1.08-.11,.41-.16,.85-.16,1.32s.06,.89,.16,1.3c.11,.41,.27,.76,.48,1.06,.21,.3,.47,.54,.79,.72,.31,.18,.67,.27,1.07,.27,.44,0,.79-.06,1.05-.17s.47-.2,.62-.28l.08,1.5c-.24,.07-.51,.14-.81,.21"/><path class="h" d="M383.92,47.25c-.04-.41-.12-.78-.24-1.13-.12-.34-.31-.62-.55-.85-.25-.22-.57-.34-.99-.34s-.71,.12-.95,.35c-.24,.23-.42,.51-.55,.86-.13,.34-.21,.71-.25,1.12-.04,.4-.07,.78-.07,1.14,0,.4,.03,.81,.07,1.22,.05,.41,.13,.78,.27,1.12,.13,.33,.32,.6,.56,.81,.24,.21,.55,.32,.92,.32,.41,0,.74-.11,.98-.34,.24-.23,.42-.52,.55-.86,.13-.34,.21-.72,.25-1.13,.04-.41,.06-.78,.06-1.13s-.02-.74-.06-1.15m1.61,2.86c-.13,.56-.33,1.07-.61,1.52-.28,.44-.65,.8-1.1,1.08-.45,.28-1.01,.42-1.67,.42s-1.26-.14-1.71-.42c-.45-.28-.81-.64-1.08-1.08-.27-.45-.47-.95-.58-1.52-.12-.57-.17-1.14-.17-1.71s.06-1.12,.18-1.69c.13-.56,.33-1.07,.61-1.53,.28-.45,.65-.82,1.1-1.1,.45-.28,1-.42,1.65-.42,.7,0,1.27,.14,1.74,.42,.46,.28,.82,.65,1.1,1.1,.28,.45,.47,.96,.58,1.52,.11,.56,.16,1.13,.16,1.7s-.07,1.15-.19,1.71"/><path class="h" d="M392.35,47.25c-.04-.41-.12-.78-.24-1.13-.12-.34-.31-.62-.55-.85-.24-.22-.57-.34-.98-.34s-.71,.12-.95,.35c-.24,.23-.42,.51-.55,.86-.13,.34-.21,.71-.25,1.12-.05,.4-.06,.78-.06,1.14,0,.4,.02,.81,.07,1.22,.04,.41,.13,.78,.27,1.12,.13,.33,.32,.6,.56,.81,.24,.21,.54,.32,.92,.32,.41,0,.74-.11,.97-.34,.24-.23,.42-.52,.55-.86,.13-.34,.21-.72,.25-1.13,.04-.41,.06-.78,.06-1.13s-.02-.74-.06-1.15m1.61,2.86c-.13,.56-.33,1.07-.61,1.52-.28,.44-.65,.8-1.1,1.08-.45,.28-1.01,.42-1.67,.42s-1.26-.14-1.71-.42c-.45-.28-.82-.64-1.09-1.08-.27-.45-.47-.95-.58-1.52-.12-.57-.17-1.14-.17-1.71s.06-1.12,.18-1.69c.13-.56,.33-1.07,.61-1.53,.29-.45,.65-.82,1.1-1.1,.45-.28,1-.42,1.65-.42,.7,0,1.27,.14,1.73,.42,.46,.28,.82,.65,1.1,1.1,.28,.45,.47,.96,.58,1.52,.11,.56,.16,1.13,.16,1.7s-.06,1.15-.19,1.71"/><path class="h" d="M399.26,45.45c-.28-.24-.67-.36-1.18-.36h-.57v3.04h.68c.5,0,.88-.13,1.12-.39,.25-.26,.37-.64,.37-1.13,0-.52-.14-.91-.42-1.15m1.93,2.36c-.14,.35-.34,.64-.6,.87-.26,.23-.57,.41-.93,.54-.35,.13-.75,.18-1.19,.18h-.95v3.58h-1.68v-9.17h2.53c.45,0,.86,.06,1.23,.17,.37,.12,.69,.29,.95,.52,.27,.23,.47,.52,.62,.87,.14,.35,.22,.76,.22,1.23s-.07,.86-.21,1.21"/><rect class="h" x="404.24" y="48.05" width="3.04" height="1.32"/><path class="h" d="M416.13,47.25c-.04-.41-.12-.78-.24-1.13-.13-.34-.31-.62-.55-.85-.25-.22-.57-.34-.99-.34s-.71,.12-.95,.35c-.24,.23-.42,.51-.55,.86-.13,.34-.21,.71-.25,1.12-.04,.4-.06,.78-.06,1.14,0,.4,.03,.81,.07,1.22,.04,.41,.13,.78,.27,1.12,.13,.33,.32,.6,.55,.81,.24,.21,.55,.32,.92,.32,.41,0,.74-.11,.98-.34,.24-.23,.42-.52,.55-.86,.13-.34,.21-.72,.25-1.13,.04-.41,.05-.78,.05-1.13s-.02-.74-.05-1.15m1.61,2.86c-.13,.56-.33,1.07-.61,1.52-.28,.44-.65,.8-1.1,1.08-.45,.28-1.01,.42-1.67,.42s-1.26-.14-1.71-.42c-.45-.28-.81-.64-1.09-1.08-.27-.45-.46-.95-.58-1.52-.11-.57-.17-1.14-.17-1.71s.06-1.12,.18-1.69c.12-.56,.33-1.07,.61-1.53,.29-.45,.65-.82,1.1-1.1,.45-.28,1-.42,1.65-.42,.7,0,1.27,.14,1.74,.42,.46,.28,.82,.65,1.1,1.1,.28,.45,.47,.96,.58,1.52,.11,.56,.16,1.13,.16,1.7s-.06,1.15-.19,1.71"/><path class="h" d="M424.41,53.04c-.3,.06-.69,.1-1.16,.1-.64,0-1.21-.12-1.71-.36-.5-.24-.92-.57-1.26-.99-.34-.43-.6-.93-.78-1.5-.18-.57-.27-1.2-.27-1.88,0-.73,.11-1.39,.32-1.98,.22-.59,.51-1.09,.87-1.49,.36-.41,.78-.72,1.27-.93,.48-.22,.99-.32,1.52-.32,.5,0,.91,.05,1.22,.14,.32,.09,.57,.18,.74,.26l-.08,1.44c-.17-.13-.39-.24-.66-.34-.27-.11-.58-.16-.95-.16-.41,0-.77,.09-1.09,.27-.31,.18-.57,.42-.78,.73-.21,.31-.37,.67-.48,1.08-.11,.41-.16,.85-.16,1.32s.06,.89,.16,1.3c.11,.41,.27,.76,.48,1.06,.21,.3,.47,.54,.78,.72,.31,.18,.67,.27,1.07,.27,.44,0,.79-.06,1.05-.17s.46-.2,.62-.28l.08,1.5c-.24,.07-.51,.14-.81,.21"/><path class="h" d="M430.32,49.25c-.25-.26-.59-.39-1.03-.39h-.92v2.86h.91c.45,0,.8-.11,1.05-.34,.26-.23,.38-.58,.38-1.07,0-.46-.13-.81-.38-1.07m-.16-3.89c-.25-.21-.57-.31-.97-.31h-.82v2.62h.81c.43,0,.76-.12,1-.37,.24-.25,.35-.58,.35-1s-.12-.73-.36-.93m1.99,6.15c-.14,.32-.34,.59-.6,.8-.26,.22-.56,.38-.9,.49-.35,.11-.72,.16-1.11,.16h-2.84v-9.17h2.9c.35,0,.68,.05,.99,.15,.31,.1,.59,.25,.82,.44,.23,.2,.41,.44,.55,.72,.13,.28,.2,.61,.2,.97,0,.55-.15,1-.45,1.37-.3,.36-.68,.61-1.14,.73,.5,.1,.92,.34,1.26,.72,.35,.38,.52,.87,.52,1.49,0,.42-.07,.79-.21,1.12"/><rect class="h" x="436.89" y="48.05" width="3.04" height="1.32"/><path class="h" d="M448.42,51.5c-.15,.34-.35,.62-.61,.87-.26,.24-.57,.43-.93,.56-.36,.13-.75,.2-1.17,.2l-.56-.03-.59-.08-.58-.12-.5-.17,.08-1.48c.33,.22,.67,.38,1.02,.46,.36,.09,.65,.13,.88,.13,.29,0,.53-.05,.72-.14l.44-.33,.22-.43,.05-.41c0-.39-.1-.69-.31-.89-.21-.2-.48-.4-.82-.58l-.84-.47c-.55-.31-.93-.65-1.16-1.04-.22-.39-.33-.86-.33-1.41,0-.46,.09-.84,.28-1.16,.19-.32,.42-.57,.71-.77,.29-.2,.6-.34,.95-.43s.67-.13,.98-.13c.41,0,.76,.04,1.06,.1,.3,.07,.59,.13,.85,.2l-.08,1.44c-.24-.13-.5-.24-.79-.33-.29-.09-.59-.14-.9-.14l-.47,.07-.43,.2-.32,.34-.13,.51c0,.32,.09,.58,.26,.76,.17,.18,.41,.36,.71,.54l.78,.46c.29,.16,.55,.33,.76,.49l.54,.53c.14,.19,.25,.42,.32,.67,.07,.25,.1,.55,.1,.89,0,.41-.07,.78-.22,1.12"/><polygon class="h" points="450.26 52.98 450.26 43.81 455.03 43.81 455.03 45.13 451.94 45.13 451.94 47.59 454.84 47.59 454.84 48.89 451.94 48.89 451.94 51.66 455.17 51.66 455.17 52.98 450.26 52.98"/><path class="h" d="M461.36,51.5c-.15,.34-.35,.62-.61,.87-.26,.24-.57,.43-.93,.56-.36,.13-.75,.2-1.17,.2l-.56-.03-.6-.08-.58-.12-.49-.17,.08-1.48c.33,.22,.67,.38,1.02,.46,.35,.09,.64,.13,.88,.13,.29,0,.53-.05,.72-.14l.44-.33,.21-.43,.06-.41c0-.39-.1-.69-.31-.89-.21-.2-.48-.4-.82-.58l-.84-.47c-.55-.31-.93-.65-1.15-1.04-.22-.39-.33-.86-.33-1.41,0-.46,.09-.84,.28-1.16,.18-.32,.43-.57,.71-.77,.29-.2,.6-.34,.95-.43,.35-.09,.67-.13,.98-.13,.41,0,.76,.04,1.06,.1,.3,.07,.59,.13,.85,.2l-.08,1.44c-.24-.13-.5-.24-.79-.33-.29-.09-.59-.14-.9-.14l-.47,.07-.43,.2-.32,.34-.13,.51c0,.32,.08,.58,.25,.76,.17,.18,.41,.36,.71,.54l.78,.46c.29,.16,.55,.33,.77,.49l.54,.53c.14,.19,.25,.42,.32,.67,.07,.25,.1,.55,.1,.89,0,.41-.08,.78-.22,1.12"/><path class="h" d="M467.99,53.04c-.3,.06-.69,.1-1.15,.1-.65,0-1.22-.12-1.71-.36-.5-.24-.92-.57-1.26-.99-.34-.43-.59-.93-.77-1.5-.18-.57-.27-1.2-.27-1.88,0-.73,.11-1.39,.32-1.98,.22-.59,.51-1.09,.87-1.49,.36-.41,.78-.72,1.27-.93,.48-.22,.98-.32,1.52-.32,.49,0,.9,.05,1.22,.14,.32,.09,.57,.18,.74,.26l-.09,1.44c-.17-.13-.39-.24-.66-.34-.27-.11-.58-.16-.95-.16-.42,0-.78,.09-1.09,.27-.31,.18-.57,.42-.78,.73-.21,.31-.37,.67-.48,1.08-.11,.41-.16,.85-.16,1.32s.05,.89,.16,1.3c.11,.41,.27,.76,.48,1.06,.21,.3,.47,.54,.78,.72,.31,.18,.67,.27,1.07,.27,.44,0,.79-.06,1.05-.17,.26-.11,.47-.2,.62-.28l.08,1.5c-.24,.07-.51,.14-.81,.21"/><path class="h" d="M475.23,47.25c-.04-.41-.12-.78-.24-1.13-.12-.34-.31-.62-.55-.85-.24-.22-.57-.34-.98-.34s-.71,.12-.95,.35-.42,.51-.55,.86c-.13,.34-.21,.71-.26,1.12-.04,.4-.06,.78-.06,1.14,0,.4,.02,.81,.07,1.22,.05,.41,.14,.78,.27,1.12,.13,.33,.32,.6,.56,.81,.24,.21,.55,.32,.92,.32,.41,0,.74-.11,.98-.34,.24-.23,.42-.52,.55-.86,.13-.34,.21-.72,.25-1.13,.04-.41,.06-.78,.06-1.13s-.02-.74-.06-1.15m1.61,2.86c-.13,.56-.33,1.07-.61,1.52-.28,.44-.65,.8-1.1,1.08-.45,.28-1.01,.42-1.67,.42s-1.26-.14-1.71-.42c-.45-.28-.82-.64-1.09-1.08-.27-.45-.47-.95-.58-1.52-.12-.57-.17-1.14-.17-1.71s.06-1.12,.18-1.69c.13-.56,.33-1.07,.61-1.53,.29-.45,.65-.82,1.1-1.1,.45-.28,1-.42,1.65-.42,.7,0,1.28,.14,1.73,.42,.46,.28,.82,.65,1.1,1.1,.28,.45,.47,.96,.58,1.52,.11,.56,.16,1.13,.16,1.7s-.06,1.15-.19,1.71"/><path class="h" d="M483.66,47.25c-.04-.41-.12-.78-.24-1.13-.13-.34-.31-.62-.55-.85-.24-.22-.57-.34-.98-.34s-.71,.12-.95,.35c-.24,.23-.42,.51-.55,.86-.13,.34-.21,.71-.25,1.12-.04,.4-.06,.78-.06,1.14,0,.4,.02,.81,.07,1.22,.05,.41,.13,.78,.27,1.12,.14,.33,.32,.6,.56,.81,.24,.21,.55,.32,.92,.32,.41,0,.74-.11,.98-.34,.24-.23,.42-.52,.55-.86,.13-.34,.21-.72,.25-1.13,.04-.41,.06-.78,.06-1.13s-.02-.74-.06-1.15m1.61,2.86c-.13,.56-.33,1.07-.61,1.52-.28,.44-.65,.8-1.1,1.08-.45,.28-1.01,.42-1.67,.42s-1.26-.14-1.71-.42c-.45-.28-.81-.64-1.09-1.08-.27-.45-.46-.95-.58-1.52-.12-.57-.17-1.14-.17-1.71s.06-1.12,.19-1.69c.12-.56,.32-1.07,.61-1.53,.28-.45,.65-.82,1.1-1.1,.45-.28,1-.42,1.65-.42,.7,0,1.27,.14,1.73,.42,.46,.28,.83,.65,1.1,1.1,.28,.45,.47,.96,.58,1.52,.11,.56,.16,1.13,.16,1.7s-.06,1.15-.19,1.71"/><path class="h" d="M490.57,45.45c-.28-.24-.67-.36-1.18-.36h-.57v3.04h.68c.5,0,.88-.13,1.12-.39,.25-.26,.37-.64,.37-1.13,0-.52-.14-.91-.42-1.15m1.93,2.36c-.14,.35-.34,.64-.6,.87-.26,.23-.57,.41-.93,.54-.36,.13-.75,.18-1.19,.18h-.95v3.58h-1.68v-9.17h2.53c.45,0,.86,.06,1.23,.17,.37,.12,.69,.29,.95,.52,.27,.23,.47,.52,.62,.87,.14,.35,.22,.76,.22,1.23s-.07,.86-.21,1.21"/><rect class="h" x="350.92" y="38.58" width="148.34" height="1.03"/></g></g></g></g></svg>