<?xml version="1.0" encoding="UTF-8"?><svg id="Layer_2" xmlns="http://www.w3.org/2000/svg" viewBox="0 0 503.52 100.07"><defs><style>.cls-1{fill:#efefef;}</style></defs><g id="Layer_1-2"><path class="cls-1" d="m89.64,100.07V0h-22.45v42.75c0,10.58.14,19.44,1.14,30.16h-.43c-4-9.72-8.01-17.01-13.01-26.02L27.16,0H0v100.07h22.3v-42.75c0-10.58-.29-19.44-1.29-30.16h.57c4,9.72,8.01,17.01,13.01,26.02l27.73,46.89h27.31Z"/><path class="cls-1" d="m133.24,77.2h39.17l8.43,22.87h23.87L164.98,0h-22.87l-40.03,100.07h22.73l8.43-22.87Zm12.29-32.88c2.57-7.15,5-14.87,7-23.02h.57c2.14,8.15,4.57,16.01,7.15,23.02l5.58,15.3h-26.02l5.72-15.3Z"/><path class="cls-1" d="m264.48,0h-47.18v100.07h22.87v-32.88h24.3c28.45,0,38.89-11.01,38.89-33.88S292.93,0,264.48,0Zm-2.29,49.61h-22.02v-31.45h22.02c14.15,0,18.01,3.86,18.01,15.73s-4,15.73-18.01,15.73Z"/><polygon class="cls-1" points="396.44 81.35 342.26 81.35 342.26 57.9 389.29 57.9 389.29 39.31 342.26 39.31 342.26 18.73 395.16 18.73 395.16 0 319.24 0 319.24 100.07 396.44 100.07 396.44 81.35"/><path class="cls-1" d="m452.49,0h-39.74v100.07h39.74c36.03,0,51.04-12.58,51.04-49.32v-1.43c0-36.74-15.01-49.32-51.04-49.32Zm27.31,51.32c0,23.16-6.86,29.88-28.31,29.88h-15.58V18.87h15.58c21.44,0,28.31,6.72,28.31,29.88v2.57Z"/></g></svg>