<?xml version="1.0" encoding="UTF-8"?><svg id="Camada_2" xmlns="http://www.w3.org/2000/svg" viewBox="0 0 785.13 192.19"><defs><style>.cls-1{fill:none;stroke:#0b5f55;stroke-miterlimit:10;stroke-width:3px;}.cls-2{fill:#0b5f55;}</style></defs><g id="Camada_1-2"><g><path class="cls-2" d="M774.75,123.37c1.07,.77,2.39,1.22,3.81,1.22,3.63,0,6.58-2.94,6.58-6.58,0-3.63-2.94-6.58-6.58-6.58-3.63,0-6.58,2.94-6.58,6.58,0,1.42,.45,2.73,1.22,3.81l-68.18,68.18H413.16v2.19h292.77l68.82-68.82Z"/><path class="cls-2" d="M329.16,7.12h212.58c.36,3.18,3.07,5.66,6.35,5.66,3.53,0,6.39-2.87,6.39-6.39,0-3.53-2.87-6.39-6.39-6.39-3.28,0-5.98,2.48-6.35,5.66h-213.19l-109.62,109.62H0v1.46H219.54L329.16,7.12ZM548.09,1.46c2.72,0,4.93,2.21,4.93,4.93,0,2.72-2.21,4.93-4.93,4.93s-4.93-2.21-4.93-4.93c0-2.72,2.21-4.93,4.93-4.93Z"/><polygon class="cls-1" points="675.34 34.8 565.12 34.8 380.89 34.8 270.66 34.8 209.63 102.49 270.66 163.53 380.89 163.53 565.12 163.53 675.34 163.53 743.4 101.01 675.34 34.8"/><g><path class="cls-2" d="M319.99,119.63l-5.03-19.11h-9.27l-1.14,13.11h5.37l-.52,6h-19.67l.52-6h5.3l3.21-36.82h-5.3l.52-6h24.69c9.9,0,15.08,5.37,14.26,14.78-.55,6.28-3.95,10.95-9.31,13.25l4.36,14.78h5.16l-.52,6h-12.62Zm-5.11-25.31c4.95,0,8.38-3.35,8.86-8.79,.49-5.65-2.03-8.72-7.12-8.72h-8.86l-1.53,17.5h8.65Z"/><path class="cls-2" d="M368.21,116.91c-4.38,2.23-9.24,3.63-14.61,3.63-11.37,0-17.54-6.76-16.55-18.06,1.01-11.57,8.67-18.62,19.13-18.62,9.41,0,14.33,5.23,13.54,14.29-.15,1.74-.44,3.49-1.24,5.37h-22.66c-.02,6.62,3.81,10.67,10.79,10.67,3.7,0,7.04-.84,10.6-2.37l1.02,5.09Zm-6.31-19.59c.42-4.81-1.92-7.53-6.46-7.53-4.25,0-7.52,3.07-8.89,8.44h15.2l.15-.91Z"/><path class="cls-2" d="M399.51,73.89c-1.5-.35-2.59-.63-4.2-.63-3.97,0-6.13,2.37-6.58,7.46l-.35,4.04h7.39l-.49,5.58h-7.39l-2.07,23.71h6.28l-.49,5.58h-20.08l.49-5.58h5.02l2.07-23.71-4.77-.49,.44-5.09h4.81l.44-5.09c.77-8.86,5.27-13.25,12.94-13.25,2.58,0,5.61,.42,7.85,1.19l-1.32,6.28Z"/><path class="cls-2" d="M427.62,116.91c-4.38,2.23-9.24,3.63-14.61,3.63-11.37,0-17.54-6.76-16.55-18.06,1.01-11.57,8.67-18.62,19.13-18.62,9.41,0,14.33,5.23,13.54,14.29-.15,1.74-.44,3.49-1.24,5.37h-22.66c-.02,6.62,3.81,10.67,10.79,10.67,3.7,0,7.04-.84,10.6-2.37l1.02,5.09Zm-6.31-19.59c.42-4.81-1.92-7.53-6.46-7.53-4.25,0-7.52,3.07-8.89,8.44h15.2l.15-.91Z"/><path class="cls-2" d="M434.19,85.53c1.71-1.19,3.49-1.67,5.79-1.67,2.93,0,5,1.05,6.1,2.86,2.81-1.81,6.04-2.86,9.8-2.86,1.46,0,2.83,.35,3.77,.7l-1.45,6.21c-1.29-.35-2.19-.42-3.59-.42-2.86,0-5.5,.7-7.75,1.74l-1.92,21.96h5.72l-.49,5.58h-18.97l.49-5.58h4.67l1.79-20.5c.21-2.37-.86-3.7-2.96-3.7h-1.39l.38-4.32Z"/><path class="cls-2" d="M490.52,116.91c-4.38,2.23-9.24,3.63-14.61,3.63-11.37,0-17.54-6.76-16.55-18.06,1.01-11.57,8.67-18.62,19.13-18.62,9.41,0,14.33,5.23,13.54,14.29-.15,1.74-.44,3.49-1.24,5.37h-22.66c-.02,6.62,3.81,10.67,10.78,10.67,3.7,0,7.05-.84,10.6-2.37l1.02,5.09Zm-23.65-37.37l.05-.63,8.67-8.3h6.9l7.02,8.3-.05,.63h-6.97l-3.83-4.04h-.28l-4.61,4.04h-6.9Zm17.35,17.78c.42-4.81-1.92-7.53-6.46-7.53-4.25,0-7.52,3.07-8.9,8.44h15.2l.15-.91Z"/><path class="cls-2" d="M533.58,119.63h-17.99l.49-5.58h4.74l1.58-18.13c.33-3.77-1.45-5.72-5.5-5.72-2.58,0-5.02,.77-7.06,1.74l-1.93,22.1h4.67l-.49,5.58h-17.99l.49-5.58h4.67l1.73-19.8c.24-2.72-.33-4.18-2.98-4.18h-1.19l.4-4.53c1.62-1.05,3.7-1.67,5.79-1.67,2.93,0,5,1.05,6.01,3,3.09-1.88,6.75-3,11.07-3,7.74,0,11.6,3.77,10.99,10.74l-1.7,19.45h4.67l-.49,5.58Z"/><path class="cls-2" d="M568.36,117.47c-4.5,1.95-8.5,3.07-14,3.07-11.44,0-17.43-6.48-16.44-17.78,1-11.5,9.11-18.9,20.41-18.9,4.74,0,8.38,.7,12.6,1.88l-2.05,12.27h-5.93l.45-7.53c-1.84-.49-3.63-.7-5.52-.7-6.07,0-10.47,4.95-11.12,12.34-.68,7.74,3.19,12.13,10.52,12.13,3.56,0,6.33-.63,10.29-2.02l.8,5.23Z"/><path class="cls-2" d="M590.35,119.63h-18.34l.49-5.58h4.81l2.07-23.71-4.91-.49,.44-5.09h13.6l-2.56,29.29h4.88l-.49,5.58Zm-10.88-46.37c.27-3.14,2.7-5.3,5.97-5.3s5.32,2.16,5.05,5.3c-.28,3.21-2.63,5.37-5.98,5.37s-5.32-2.16-5.04-5.37Z"/><path class="cls-2" d="M627.62,119.21c-1.68,.84-3.74,1.32-5.56,1.32-2.93,0-5-.98-6.1-2.79-3.02,1.88-6.45,2.79-10.15,2.79-7.11,0-11.43-4.04-10.9-10.11,.62-7.04,6.02-10.67,15.44-10.67h5.79l.2-2.23c.4-4.6-1.58-6.69-6.67-6.69-2.93,0-6.67,.49-11.38,1.74l-.61-5.79c5.46-1.88,10.37-2.93,15.25-2.93,8.51,0,12.81,4.18,12.14,11.92l-1.32,15.13c-.2,2.3,.82,3.42,3.05,3.42h1.26l-.43,4.88Zm-16.28-14.78c-4.74,0-7.29,2.02-7.58,5.37-.26,3,1.8,4.95,5.36,4.95,2.16,0,4.09-.49,5.84-1.39l.05-.63,.72-8.3h-4.39Z"/><path class="cls-2" d="M653.35,89.64c-1.51-.28-3.1-.49-4.7-.49-3.77,0-6.21,1.67-6.47,4.6-.68,7.74,18.91,2.3,17.73,15.83-.6,6.9-6.26,10.95-15.25,10.95-4.74,0-9.53-1.05-12.74-2.58l1.25-9.55h5.93l-.25,6c1.92,.42,3.92,.63,5.66,.63,4.32,0,6.83-1.6,7.1-4.67,.6-6.9-18.98-3.07-17.9-15.41,.63-7.18,6.55-11.09,14.84-11.09,5.16,0,9.81,1.12,12.43,2.23l-1.31,10.18h-6.21l-.12-6.62Z"/></g></g></g></svg>