<?xml version="1.0" encoding="UTF-8"?><svg xmlns="http://www.w3.org/2000/svg" xmlns:xlink="http://www.w3.org/1999/xlink" viewBox="0 0 248.32 268.44"><defs><style>.f{fill:#fff;}.g{fill:none;stroke:#fff;stroke-linecap:round;stroke-linejoin:round;stroke-width:3.27px;}.h{fill:url(#d);}.i{fill:url(#e);}.j{fill:#ee7203;}</style><linearGradient id="d" x1="40.91" y1="121.89" x2="594.79" y2="121.89" gradientTransform="matrix(1, 0, 0, 1, 0, 0)" gradientUnits="userSpaceOnUse"><stop offset="0" stop-color="#035e53"/><stop offset="1" stop-color="#cddb70"/></linearGradient><linearGradient id="e" x1="-2008.45" y1="-1766.5" x2="-2007.56" y2="-1766.5" gradientTransform="translate(-543968.6 478803.03) rotate(-180) scale(270.96 -270.96)" gradientUnits="userSpaceOnUse"><stop offset="0" stop-color="#bbd034"/><stop offset="1" stop-color="#035e53"/></linearGradient></defs><g id="a"/><g id="b"><g id="c"><g><path class="f" d="M177.51,0H1.49V4.18H26.42l-1.26,172.84c0,.17,0,.34,0,.5,0,17.81,6.91,34.58,19.47,47.23,12.67,12.77,29.6,19.82,47.59,19.82h85.28c36.98,0,67.06-30.08,67.06-67.06V67.06C244.57,30.08,214.49,0,177.51,0Zm62.88,177.51c-.06,34.67-28.21,62.82-62.88,62.88H92.22c-16.89,0-32.72-6.59-44.62-18.58-11.79-11.88-18.25-27.57-18.25-44.28,0-.16,0-.32,0-.48L30.61,4.18H177.51c34.67,.06,62.81,28.21,62.88,62.88v110.45Z"/><path class="j" d="M248.32,115.14c0,3.23-2.62,5.85-5.85,5.85s-5.85-2.62-5.85-5.85,2.62-5.85,5.85-5.85,5.85,2.62,5.85,5.85"/><path class="h" d="M40.91,16.39h126.54c34.4,0,62.33,27.93,62.33,62.33v93.54c0,30.43-24.7,55.13-55.13,55.13H93.63c-29.1,0-52.72-23.62-52.72-52.72V16.39h0Z"/><path class="i" d="M66.21,264.57c-32.13-.06-58.22-26.15-58.28-58.28V28.62h-3.88V206.28c0,34.28,27.88,62.16,62.16,62.16h121.42v-3.88H66.21Z"/><path class="j" d="M0,115.14c0-2.99,2.43-5.42,5.42-5.42s5.42,2.43,5.42,5.42-2.43,5.42-5.42,5.42-5.42-2.43-5.42-5.42"/><g><g><path class="f" d="M154.67,177.69l-.05,.37h-4.9l-.03-12.17-4.63,12.17h-5.62l-1.28-12.06-3.33,12.06h-5l.05-.37,5.72-18.27h5.99l1.52,12.78,4.85-12.78h6.1l.61,18.27Z"/><path class="f" d="M173.44,177.69l-.05,.37h-4.85l-.4-2.85h-5.75l-1.22,2.85h-5.14l.05-.37,8.31-18.27h5.86l3.19,18.27Zm-5.86-6.58l-.85-6.12-2.61,6.12h3.46Z"/><path class="f" d="M183.07,159.42l-2.61,18.64h-4.93l2.61-18.64h4.93Z"/><path class="f" d="M198.99,159.82l-1.04,4.02c-1.52-.4-2.93-.61-4.13-.61-2.26,0-3.38,.69-3.38,1.68,0,.8,.8,1.17,1.84,1.54,2.9,1.15,5.88,2.26,5.88,5.86s-3.28,6.12-8.2,6.12c-2.18,0-4.34-.48-6.02-1.22l1.28-3.97c1.57,.61,3.73,1.01,5.03,1.01,1.7,0,2.66-.64,2.66-1.54s-.98-1.38-3.14-2.18c-2.85-1.09-4.39-2.66-4.39-5.33,0-3.62,3.25-6.15,8.57-6.15,1.7,0,3.41,.24,5.03,.77Z"/></g><g><path class="f" d="M122.32,136.88l-1.04,4.02c-1.52-.4-2.93-.61-4.13-.61-2.26,0-3.38,.69-3.38,1.68,0,.8,.8,1.17,1.84,1.54,2.9,1.15,5.88,2.26,5.88,5.86s-3.27,6.12-8.2,6.12c-2.18,0-4.34-.48-6.02-1.22l1.28-3.97c1.57,.61,3.73,1.01,5.03,1.01,1.7,0,2.66-.64,2.66-1.54s-.99-1.38-3.14-2.18c-2.85-1.09-4.39-2.66-4.39-5.33,0-3.62,3.25-6.15,8.57-6.15,1.7,0,3.41,.24,5.03,.77Z"/><path class="f" d="M139.44,154.75l-.05,.37h-4.85l-.4-2.85h-5.75l-1.23,2.85h-5.14l.05-.37,8.31-18.27h5.86l3.2,18.27Zm-5.86-6.58l-.85-6.12-2.61,6.12h3.46Z"/><path class="f" d="M149.07,136.48l-2.61,18.64h-4.93l2.61-18.64h4.93Z"/><path class="f" d="M165.23,149.26c0,3.65-3.04,5.86-7.35,5.86h-7.86l2.61-18.64h7.64c3.22,0,5.35,1.76,5.35,4.34,0,2.29-1.33,3.91-3.28,4.45,1.76,.61,2.88,2.13,2.88,3.99Zm-4.87-.35c0-1.01-.75-1.62-2.02-1.62h-2.37l-.56,3.89h2.37c1.65,0,2.58-.91,2.58-2.26Zm.56-7.24c0-.77-.51-1.28-1.52-1.28h-2.48l-.43,2.98h2.48c1.17,0,1.94-.64,1.94-1.7Z"/><path class="f" d="M182.99,154.75l-.05,.37h-4.85l-.4-2.85h-5.75l-1.23,2.85h-5.14l.05-.37,8.31-18.27h5.86l3.2,18.27Zm-5.86-6.58l-.85-6.12-2.61,6.12h3.46Z"/></g><g><line class="g" x1="215.14" y1="162.76" x2="205.43" y2="162.76"/><line class="g" x1="190.85" y1="148.1" x2="190.85" y2="138.32"/><line class="g" x1="200.57" y1="152.99" x2="207.86" y2="145.65"/></g><path class="f" d="M55.55,113.98c.19-.75,.35-1.5,.57-2.24,1.63-5.43,6.57-9.04,12.46-9.05,9.84-.02,19.69,0,29.53,0,.43,0,.87,0,1.43,0,0-.54,0-.97,0-1.4,0-9.81-.01-19.61,0-29.42,.01-5.7,3.18-10.42,8.19-12.3,8.6-3.22,17.46,2.87,17.49,12.09,.04,9.84,0,19.69,0,29.53,0,.44,0,.88,0,1.5,.44,0,.83,0,1.22,0,5.77,0,11.55,0,17.32,0,.33,0,.67-.02,1,.02,1.07,.12,1.71,.81,1.72,1.83,0,1.01-.63,1.76-1.7,1.82-1.33,.07-2.66,.03-4,.03-5.59,0-11.18,0-16.76,0-1.96,0-2.49-.54-2.49-2.53,0-10.69,0-21.39,0-32.08,0-4.45-2.59-7.97-6.6-9.06-6.02-1.65-11.65,2.61-11.67,8.91-.04,10.62-.01,21.24-.01,31.86,0,2.49-.41,2.9-2.9,2.9-10.55,0-21.09-.01-31.64,0-4.69,0-8.17,2.67-9.22,6.96-1.4,5.71,2.7,11.23,8.58,11.3,8.44,.1,16.87,.03,25.31,.04,.44,0,.89,0,1.32,.09,.94,.2,1.35,.85,1.34,1.77,0,.93-.46,1.55-1.38,1.75-.39,.09-.81,.07-1.21,.07-8.1,0-16.21,0-24.31,0-7.21,0-11.97-3.91-13.44-11-.02-.1-.1-.2-.15-.3v-3.11Z"/><path class="f" d="M110.84,174.38c-.78-.2-1.58-.37-2.35-.61-5.47-1.73-8.92-6.54-8.94-12.53-.03-6.99,0-13.98,0-20.97,0-3.77,0-7.55,0-11.32,0-1.32,.44-1.96,1.43-2.18,1.04-.23,1.96,.31,2.18,1.36,.1,.46,.09,.95,.09,1.43,0,10.62-.01,21.23,.01,31.85,0,4.58,2.8,8.1,7.12,9.09,5.61,1.29,10.98-2.83,11.15-8.57,.05-1.7,0-.4,.03-2.1,.03-1.39,.72-2.06,1.95-2.02,.95,.04,1.65,.55,1.67,1.45,.07,3.46,.5,3.97-.95,7.29-1.82,4.16-4.99,6.68-9.43,7.62-.28,.06-.56,.15-.85,.22h-3.11Z"/><path class="f" d="M125.24,128.39c0,2.02,0,1.9,0,3.78,0,.97-.3,1.77-1.36,2.02-1.26,.3-2.28-.38-2.31-1.69-.07-2.66-.06-3.33,0-5.99,.02-1.14,.69-1.71,1.85-1.8,.37-.03,.74-.01,1.11-.01,10.54,0,21.08,.01,31.62,0,4.68,0,8.19-2.76,9.19-7.13,1.28-5.56-2.78-10.92-8.46-11.14-1.03-.04-2.08,.02-3.1-.07-1-.09-1.6-.85-1.6-1.81,0-.95,.62-1.73,1.61-1.81,4.58-.34,8.83,.49,12.03,4.09,3.63,4.08,4.47,8.81,2.33,13.81-2.17,5.09-6.3,7.6-11.78,7.74-4.03,.1-8.06,.02-12.09,.02-5.88,0-11.76,0-17.64,0-.4,0-.81,0-1.38,0Z"/></g></g></g></g></svg>