<?xml version="1.0" encoding="UTF-8"?><svg id="Camada_2" xmlns="http://www.w3.org/2000/svg" xmlns:xlink="http://www.w3.org/1999/xlink" viewBox="0 0 178.12 74.51"><defs><style>.cls-1{fill:#fff;}.cls-2{fill:url(#Gradiente_sem_nome_3);}.cls-3{fill:none;stroke:#fff;stroke-linecap:round;stroke-linejoin:round;stroke-width:2px;}</style><linearGradient id="Gradiente_sem_nome_3" x1="-55.33" y1="27.28" x2="113.46" y2="27.28" gradientTransform="matrix(1, 0, 0, 1, 0, 0)" gradientUnits="userSpaceOnUse"><stop offset="0" stop-color="#035e53"/><stop offset="1" stop-color="#cddb70"/></linearGradient></defs><g id="Camada_1-2"><g><path class="cls-2" d="M54.56,27.28c0,15.07-12.21,27.28-27.28,27.28S0,42.35,0,27.28,12.21,0,27.28,0s27.28,12.22,27.28,27.28"/><g><path class="cls-1" d="M111.15,58.3l-.07,.49h-6.44l-.04-16-6.09,16h-7.39l-1.68-15.86-4.38,15.86h-6.58l.07-.49,7.53-24.01h7.88l2,16.8,6.37-16.8h8.02l.8,24.01Z"/><path class="cls-1" d="M135.83,58.3l-.07,.49h-6.37l-.53-3.75h-7.56l-1.61,3.75h-6.76l.07-.49,10.92-24.01h7.7l4.2,24.01Zm-7.7-8.65l-1.12-8.05-3.43,8.05h4.55Z"/><path class="cls-1" d="M148.5,34.28l-3.43,24.5h-6.48l3.43-24.5h6.48Z"/><path class="cls-1" d="M169.43,34.81l-1.36,5.29c-2-.52-3.85-.8-5.43-.8-2.98,0-4.45,.91-4.45,2.21,0,1.05,1.05,1.54,2.42,2.03,3.82,1.5,7.74,2.98,7.74,7.7s-4.31,8.05-10.78,8.05c-2.87,0-5.71-.63-7.91-1.61l1.68-5.22c2.06,.81,4.9,1.33,6.62,1.33,2.24,0,3.5-.84,3.5-2.03s-1.3-1.82-4.13-2.87c-3.75-1.43-5.78-3.5-5.78-7,0-4.76,4.27-8.08,11.27-8.08,2.24,0,4.48,.31,6.62,1.01Z"/></g><g><path class="cls-1" d="M101.36,10.32l-1.04,4.02c-1.52-.4-2.93-.61-4.13-.61-2.26,0-3.38,.69-3.38,1.68,0,.8,.8,1.17,1.84,1.54,2.9,1.15,5.88,2.26,5.88,5.86s-3.27,6.12-8.2,6.12c-2.18,0-4.34-.48-6.02-1.22l1.28-3.97c1.57,.61,3.73,1.01,5.03,1.01,1.7,0,2.66-.64,2.66-1.54s-.98-1.38-3.14-2.18c-2.85-1.09-4.39-2.66-4.39-5.33,0-3.62,3.25-6.15,8.57-6.15,1.7,0,3.41,.24,5.03,.77Z"/><path class="cls-1" d="M118.48,28.19l-.05,.37h-4.85l-.4-2.85h-5.75l-1.23,2.85h-5.14l.05-.37,8.31-18.27h5.86l3.19,18.27Zm-5.86-6.58l-.85-6.12-2.61,6.12h3.46Z"/><path class="cls-1" d="M128.12,9.92l-2.61,18.64h-4.93l2.61-18.64h4.93Z"/><path class="cls-1" d="M144.28,22.7c0,3.65-3.04,5.86-7.35,5.86h-7.85l2.61-18.64h7.64c3.22,0,5.35,1.76,5.35,4.34,0,2.29-1.33,3.91-3.27,4.45,1.76,.61,2.88,2.13,2.88,3.99Zm-4.87-.35c0-1.01-.75-1.62-2.02-1.62h-2.37l-.56,3.89h2.37c1.65,0,2.58-.91,2.58-2.26Zm.56-7.24c0-.77-.51-1.28-1.52-1.28h-2.48l-.43,2.98h2.48c1.17,0,1.94-.64,1.94-1.7Z"/><path class="cls-1" d="M162.03,28.19l-.05,.37h-4.85l-.4-2.85h-5.75l-1.23,2.85h-5.14l.05-.37,8.31-18.27h5.86l3.19,18.27Zm-5.86-6.58l-.85-6.12-2.61,6.12h3.46Z"/></g><g><line class="cls-3" x1="172.57" y1="30.42" x2="168.02" y2="25.89"/><line class="cls-3" x1="168.02" y1="12.24" x2="172.57" y2="7.66"/><line class="cls-3" x1="170.29" y1="19.05" x2="177.12" y2="19.01"/></g><g><path class="cls-1" d="M73.85,61.51c-1.73-1.43-3.46-2.86-5.23-4.24-.52-.41-.46-.63-.11-1.11,6.12-8.19,8.3-17.35,6.29-27.35C71.22,11.06,54.4-.69,36.48,2.22,23.59,4.31,14.79,11.78,9.93,23.89c-.1,.25-.2,.49-.26,.75-.1,.46,.07,.83,.51,1,.46,.17,.86,.04,1.09-.43,.12-.24,.19-.49,.29-.74C16.79,10.28,31.43,1.59,46.32,3.83c14.16,2.13,25.18,13.21,27.11,27.37,1.2,8.84-.99,16.84-6.34,23.98-.31,.42-.48,.42-.86,.1-1.93-1.6-3.88-3.19-5.85-4.75-1.36-1.07-3.22-1.15-4.68-.29-1.46,.86-2.31,2.48-2,4.16,.57,3.12,1.22,6.23,1.85,9.34,.1,.48,.07,.78-.46,1.02-5.79,2.61-11.82,3.49-18.09,2.56-6.3-.93-11.86-3.52-16.6-7.77-5.83-5.22-9.33-11.71-10.47-19.47-.4-2.74-.4-5.48-.12-8.23,.06-.59-.15-1.03-.78-1.09-.63-.05-.89,.37-.96,.94-.15,1.27-.2,2.55-.2,3.83-.02,3.75,.62,7.39,1.79,10.95,4.33,13.13,17.06,22.57,30.88,22.92,5.2,.13,10.18-.8,14.93-2.93,.49-.22,.63-.16,.73,.38,.29,1.64,.64,3.27,.98,4.89,.32,1.52,1.37,2.5,2.83,2.72,1.37,.2,2.69-.49,3.41-1.82,.44-.8,.85-1.63,1.28-2.43,.77-1.43,1.95-2.31,3.55-2.59,1.12-.2,2.27-.06,3.4-.07,1.69-.02,2.89-.78,3.41-2.19,.52-1.4,.09-2.79-1.2-3.86Zm-.42,3.23c-.26,.74-.82,1.07-1.84,1.07-.43,0-.87,0-1.3,0-.94,0-1.89-.06-2.81,.19-1.84,.49-3.26,1.54-4.2,3.2-.47,.84-.89,1.71-1.35,2.56-.4,.74-1.02,1.1-1.7,.98-.78-.14-1.21-.63-1.36-1.4-.85-4.27-1.7-8.55-2.56-12.82-.26-1.32-.52-2.64-.8-3.96-.24-1.17,.12-2.14,1.02-2.72,.96-.61,1.99-.54,2.94,.24,4.41,3.57,8.81,7.14,13.21,10.72,.79,.64,.99,1.21,.74,1.94Z"/><path class="cls-1" d="M64.5,33.29c-.96-2.71-3.44-4.54-6.33-4.59-2.92-.04-5.84-.03-8.77,0-.63,0-.82-.14-.81-.79,.04-2.85,.05-5.7,0-8.55-.06-4.45-3.77-7.56-8.14-6.88-3.26,.51-5.69,3.42-5.72,6.93-.02,2.83-.03,5.65,.01,8.48,0,.64-.16,.81-.8,.8-2.99-.03-5.99-.06-8.98,.02-3.64,.1-6.52,3.21-6.51,6.91,.01,3.69,2.92,6.75,6.56,6.86,1.47,.05,2.95,0,4.42,0v.02c1.47,0,2.95,.04,4.42-.02,.68-.02,.9,.13,.89,.86-.05,2.82-.05,5.65-.01,8.48,.06,4.41,3.73,7.52,8.07,6.89,3.29-.48,5.75-3.41,5.78-6.95,.03-2.85,.02-5.7,0-8.55,0-.58,.16-.73,.73-.72,2.85,.03,5.7,0,8.55,.02,1.77,0,3.32-.55,4.65-1.7,2.15-1.87,2.92-4.85,1.97-7.52Zm-2.32,5.32c-.96,1.36-2.32,2.12-3.99,2.14-3.31,.04-6.62,.02-9.92,.02-1.18,0-1.38,.21-1.38,1.39,0,3.21,.02,6.42,0,9.63-.02,2.62-1.76,4.74-4.19,5.19-3.3,.6-6.16-1.79-6.19-5.2-.03-3.21,0-6.42,0-9.63,0-1.17-.21-1.38-1.4-1.38-1.64,0-3.28,0-4.93,0h0c-1.64,0-3.28,.02-4.93-.02-2.6-.06-4.77-2.06-5-4.55-.25-2.78,1.47-5.16,4.14-5.69,.47-.09,.96-.09,1.44-.09,3.11,0,6.23,0,9.34,0,1.08,0,1.32-.24,1.32-1.31,0-3.24-.02-6.47,0-9.71,.02-2.61,1.76-4.75,4.19-5.19,3.3-.6,6.16,1.77,6.19,5.19,.03,3.21,0,6.42,0,9.63,0,1.17,.21,1.37,1.4,1.37,3.31,0,6.62-.03,9.92,.03,2.04,.04,3.54,1.08,4.43,2.89,.88,1.81,.72,3.62-.45,5.28Z"/></g></g></g></svg>