<?xml version="1.0" encoding="UTF-8"?>
<svg id="Camada_2" data-name="Camada 2" xmlns="http://www.w3.org/2000/svg" xmlns:xlink="http://www.w3.org/1999/xlink" viewBox="0 0 217.71 217.71">
  <defs>
    <style>
      .cls-1 {
        fill: #950048;
      }

      .cls-2 {
        stroke: #950048;
        stroke-miterlimit: 10;
      }

      .cls-2, .cls-3, .cls-4 {
        fill: none;
      }

      .cls-4 {
        clip-path: url(#clippath);
      }

      .cls-5 {
        fill: #d30058;
      }
    </style>
    <clipPath id="clippath">
      <rect class="cls-3" x="34.47" y="34.47" width="148.77" height="148.77" rx="21.5" ry="21.5" transform="translate(262.8 108.85) rotate(135)"/>
    </clipPath>
  </defs>
  <g id="Camada_1-2" data-name="Camada 1">
    <g>
      <rect class="cls-5" x="25.59" y="25.59" width="166.54" height="166.54" rx="21.5" ry="21.5" transform="translate(262.8 108.85) rotate(135)"/>
      <g class="cls-4">
        <g>
          <path class="cls-2" d="m149.77,27.48c-2.47,2.76-6.29,6.65-11.51,10.58-11.02,8.31-20.26,10.77-49.54,18.96-7.89,2.21-21.11,5.91-37.74,10.78-6.72,1.97-17.15,5.05-30.52,9.89-7.27,2.63-10.9,3.95-13.98,5.4-11.63,5.47-24.93,11.73-28.88,23.11-2.48,7.15.21,14.91,5.6,30.44,1.63,4.69,5.43,14.71,9.59,28.12.88,2.85,2.24,7.38,1.64,13.23-.55,5.36-2.51,9.52-4,12.09"/>
          <path class="cls-2" d="m152.79,29.83c-2.47,2.76-6.29,6.65-11.51,10.58-11.02,8.31-20.26,10.77-49.54,18.96-7.89,2.21-21.11,5.91-37.74,10.78-6.72,1.97-17.15,5.05-30.52,9.89-7.27,2.63-10.9,3.95-13.98,5.4-11.63,5.47-24.93,11.73-28.88,23.11-2.48,7.15.21,14.91,5.6,30.44,1.63,4.69,5.43,14.71,9.59,28.12.88,2.85,2.24,7.38,1.64,13.23-.55,5.36-2.51,9.52-4,12.09"/>
          <path class="cls-2" d="m155.8,32.18c-2.47,2.76-6.29,6.65-11.51,10.58-11.02,8.31-20.26,10.77-49.54,18.96-7.89,2.21-21.11,5.91-37.74,10.78-6.72,1.97-17.15,5.05-30.52,9.89-7.27,2.63-10.9,3.95-13.98,5.4-11.63,5.47-24.93,11.73-28.88,23.11-2.48,7.15.21,14.91,5.6,30.44,1.63,4.69,5.43,14.71,9.59,28.12.88,2.85,2.24,7.38,1.64,13.23-.55,5.36-2.51,9.52-4,12.09"/>
          <path class="cls-2" d="m158.82,34.53c-2.47,2.76-6.29,6.65-11.51,10.58-11.02,8.31-20.26,10.77-49.54,18.96-7.89,2.21-21.11,5.91-37.74,10.78-6.72,1.97-17.15,5.05-30.52,9.89-7.27,2.63-10.9,3.95-13.98,5.4-11.63,5.47-24.93,11.73-28.88,23.11-2.48,7.15.21,14.91,5.6,30.44,1.63,4.69,5.43,14.71,9.59,28.12.88,2.85,2.24,7.38,1.64,13.23-.55,5.36-2.51,9.52-4,12.09"/>
          <path class="cls-2" d="m161.83,36.88c-2.47,2.76-6.29,6.65-11.51,10.58-11.02,8.31-20.26,10.77-49.54,18.96-7.89,2.21-21.11,5.91-37.74,10.78-6.72,1.97-17.15,5.05-30.52,9.89-7.27,2.63-10.9,3.95-13.98,5.4-11.63,5.47-24.93,11.73-28.88,23.11-2.48,7.15.21,14.91,5.6,30.44,1.63,4.69,5.43,14.71,9.59,28.12.88,2.85,2.24,7.38,1.64,13.23-.55,5.36-2.51,9.52-4,12.09"/>
          <path class="cls-2" d="m164.85,39.24c-2.47,2.76-6.29,6.65-11.51,10.58-11.02,8.31-20.26,10.77-49.54,18.96-7.89,2.21-21.11,5.91-37.74,10.78-6.72,1.97-17.15,5.05-30.52,9.89-7.27,2.63-10.9,3.95-13.98,5.4-11.63,5.47-24.93,11.73-28.88,23.11-2.48,7.15.21,14.91,5.6,30.44,1.63,4.69,5.43,14.71,9.59,28.12.88,2.85,2.24,7.38,1.64,13.23-.55,5.36-2.51,9.52-4,12.09"/>
          <path class="cls-2" d="m167.86,41.59c-2.47,2.76-6.29,6.65-11.51,10.58-11.02,8.31-20.26,10.77-49.54,18.96-7.89,2.21-21.11,5.91-37.74,10.78-6.72,1.97-17.15,5.05-30.52,9.89-7.27,2.63-10.9,3.95-13.98,5.4-11.63,5.47-24.93,11.73-28.88,23.11-2.48,7.15.21,14.91,5.6,30.44,1.63,4.69,5.43,14.71,9.59,28.12.88,2.85,2.24,7.38,1.64,13.23-.55,5.36-2.51,9.52-4,12.09"/>
          <path class="cls-2" d="m170.88,43.94c-2.47,2.76-6.29,6.65-11.51,10.58-11.02,8.31-20.26,10.77-49.54,18.96-7.89,2.21-21.11,5.91-37.74,10.78-6.72,1.97-17.15,5.05-30.52,9.89-7.27,2.63-10.9,3.95-13.98,5.4-11.63,5.47-24.93,11.73-28.88,23.11-2.48,7.15.21,14.91,5.6,30.44,1.63,4.69,5.43,14.71,9.59,28.12.88,2.85,2.24,7.38,1.64,13.23-.55,5.36-2.51,9.52-4,12.09"/>
          <path class="cls-2" d="m173.89,46.29c-2.47,2.76-6.29,6.65-11.51,10.58-11.02,8.31-20.26,10.77-49.54,18.96-7.89,2.21-21.11,5.91-37.74,10.78-6.72,1.97-17.15,5.05-30.52,9.89-7.27,2.63-10.9,3.95-13.98,5.4-11.63,5.47-24.93,11.73-28.88,23.11-2.48,7.15.21,14.91,5.6,30.44,1.63,4.69,5.43,14.71,9.59,28.12.88,2.85,2.24,7.38,1.64,13.23-.55,5.36-2.51,9.52-4,12.09"/>
          <path class="cls-2" d="m176.91,48.64c-2.47,2.76-6.29,6.65-11.51,10.58-11.02,8.31-20.26,10.77-49.54,18.96-7.89,2.21-21.11,5.91-37.74,10.78-6.72,1.97-17.15,5.05-30.52,9.89-7.27,2.63-10.9,3.95-13.98,5.4-11.63,5.47-24.93,11.73-28.88,23.11-2.48,7.15.21,14.91,5.6,30.44,1.63,4.69,5.43,14.71,9.59,28.12.88,2.85,2.24,7.38,1.64,13.23-.55,5.36-2.51,9.52-4,12.09"/>
          <path class="cls-2" d="m179.92,50.99c-2.47,2.76-6.29,6.65-11.51,10.58-11.02,8.31-20.26,10.77-49.54,18.96-7.89,2.21-21.11,5.91-37.74,10.78-6.72,1.97-17.15,5.05-30.52,9.89-7.27,2.63-10.9,3.95-13.98,5.4-11.63,5.47-24.93,11.73-28.88,23.11-2.48,7.15.21,14.91,5.6,30.44,1.63,4.69,5.43,14.71,9.59,28.12.88,2.85,2.24,7.38,1.64,13.23-.55,5.36-2.51,9.52-4,12.09"/>
          <path class="cls-2" d="m182.94,53.34c-2.47,2.76-6.29,6.65-11.51,10.58-11.02,8.31-20.26,10.77-49.54,18.96-7.89,2.21-21.11,5.91-37.74,10.78-6.72,1.97-17.15,5.05-30.52,9.89-7.27,2.63-10.9,3.95-13.98,5.4-11.63,5.47-24.93,11.73-28.88,23.11-2.48,7.15.21,14.91,5.6,30.44,1.63,4.69,5.43,14.71,9.59,28.12.88,2.85,2.24,7.38,1.64,13.23-.55,5.36-2.51,9.52-4,12.09"/>
          <path class="cls-2" d="m185.95,55.69c-2.47,2.76-6.29,6.65-11.51,10.58-11.02,8.31-20.26,10.77-49.54,18.96-7.89,2.21-21.11,5.91-37.74,10.78-6.72,1.97-17.15,5.05-30.52,9.89-7.27,2.63-10.9,3.95-13.98,5.4-11.63,5.47-24.93,11.73-28.88,23.11-2.48,7.15.21,14.91,5.6,30.44,1.63,4.69,5.43,14.71,9.59,28.12.88,2.85,2.24,7.38,1.64,13.23-.55,5.36-2.51,9.52-4,12.09"/>
          <path class="cls-2" d="m188.97,58.04c-2.47,2.76-6.29,6.65-11.51,10.58-11.02,8.31-20.26,10.77-49.54,18.96-7.89,2.21-21.11,5.91-37.74,10.78-6.72,1.97-17.15,5.05-30.52,9.89-7.27,2.63-10.9,3.95-13.98,5.4-11.63,5.47-24.93,11.73-28.88,23.11-2.48,7.15.21,14.91,5.6,30.44,1.63,4.69,5.43,14.71,9.59,28.12.88,2.85,2.24,7.38,1.64,13.23-.55,5.36-2.51,9.52-4,12.09"/>
          <path class="cls-2" d="m191.98,60.39c-2.47,2.76-6.29,6.65-11.51,10.58-11.02,8.31-20.26,10.77-49.54,18.96-7.89,2.21-21.11,5.91-37.74,10.78-6.72,1.97-17.15,5.05-30.52,9.89-7.27,2.63-10.9,3.95-13.98,5.4-11.63,5.47-24.93,11.73-28.88,23.11-2.48,7.15.21,14.91,5.6,30.44,1.63,4.69,5.43,14.71,9.59,28.12.88,2.85,2.24,7.38,1.64,13.23-.55,5.36-2.51,9.52-4,12.09"/>
          <path class="cls-2" d="m195,62.74c-2.47,2.76-6.29,6.65-11.51,10.58-11.02,8.31-20.26,10.77-49.54,18.96-7.89,2.21-21.11,5.91-37.74,10.78-6.72,1.97-17.15,5.05-30.52,9.89-7.27,2.63-10.9,3.95-13.98,5.4-11.63,5.47-24.93,11.73-28.88,23.11-2.48,7.15.21,14.91,5.6,30.44,1.63,4.69,5.43,14.71,9.59,28.12.88,2.85,2.24,7.38,1.64,13.23-.55,5.36-2.51,9.52-4,12.09"/>
          <path class="cls-2" d="m198.01,65.09c-2.47,2.76-6.29,6.65-11.51,10.58-11.02,8.31-20.26,10.77-49.54,18.96-7.89,2.21-21.11,5.91-37.74,10.78-6.72,1.97-17.15,5.05-30.52,9.89-7.27,2.63-10.9,3.95-13.98,5.4-11.63,5.47-24.93,11.73-28.88,23.11-2.48,7.15.21,14.91,5.6,30.44,1.63,4.69,5.43,14.71,9.59,28.12.88,2.85,2.24,7.38,1.64,13.23-.55,5.36-2.51,9.52-4,12.09"/>
          <path class="cls-2" d="m201.03,67.44c-2.47,2.76-6.29,6.65-11.51,10.58-11.02,8.31-20.26,10.77-49.54,18.96-7.89,2.21-21.11,5.91-37.74,10.78-6.72,1.97-17.15,5.05-30.52,9.89-7.27,2.63-10.9,3.95-13.98,5.4-11.63,5.47-24.93,11.73-28.88,23.11-2.48,7.15.21,14.91,5.6,30.44,1.63,4.69,5.43,14.71,9.59,28.12.88,2.85,2.24,7.38,1.64,13.23-.55,5.36-2.51,9.52-4,12.09"/>
          <path class="cls-2" d="m204.04,69.79c-2.47,2.76-6.29,6.65-11.51,10.58-11.02,8.31-20.26,10.77-49.54,18.96-7.89,2.21-21.11,5.91-37.74,10.78-6.72,1.97-17.15,5.05-30.52,9.89-7.27,2.63-10.9,3.95-13.98,5.4-11.63,5.47-24.93,11.73-28.88,23.11-2.48,7.15.21,14.91,5.6,30.44,1.63,4.69,5.43,14.71,9.59,28.12.88,2.85,2.24,7.38,1.64,13.23-.55,5.36-2.51,9.52-4,12.09"/>
          <path class="cls-2" d="m207.06,72.14c-2.47,2.76-6.29,6.65-11.51,10.58-11.02,8.31-20.26,10.77-49.54,18.96-7.89,2.21-21.11,5.91-37.74,10.78-6.72,1.97-17.15,5.05-30.52,9.89-7.27,2.63-10.9,3.95-13.98,5.4-11.63,5.47-24.93,11.73-28.88,23.11-2.48,7.15.21,14.91,5.6,30.44,1.63,4.69,5.43,14.71,9.59,28.12.88,2.85,2.24,7.38,1.64,13.23-.55,5.36-2.51,9.52-4,12.09"/>
          <path class="cls-2" d="m210.07,74.49c-2.47,2.76-6.29,6.65-11.51,10.58-11.02,8.31-20.26,10.77-49.54,18.96-7.89,2.21-21.11,5.91-37.74,10.78-6.72,1.97-17.15,5.05-30.52,9.89-7.27,2.63-10.9,3.95-13.98,5.4-11.63,5.47-24.93,11.73-28.88,23.11-2.48,7.15.21,14.91,5.6,30.44,1.63,4.69,5.43,14.71,9.59,28.12.88,2.85,2.24,7.38,1.64,13.23-.55,5.36-2.51,9.52-4,12.09"/>
          <path class="cls-2" d="m213.09,76.84c-2.47,2.76-6.29,6.65-11.51,10.58-11.02,8.31-20.26,10.77-49.54,18.96-7.89,2.21-21.11,5.91-37.74,10.78-6.72,1.97-17.15,5.05-30.52,9.89-7.27,2.63-10.9,3.95-13.98,5.4-11.63,5.47-24.93,11.73-28.88,23.11-2.48,7.15.21,14.91,5.6,30.44,1.63,4.69,5.43,14.71,9.59,28.12.88,2.85,2.24,7.38,1.64,13.23-.55,5.36-2.51,9.52-4,12.09"/>
          <path class="cls-2" d="m216.1,79.19c-2.47,2.76-6.29,6.65-11.51,10.58-11.02,8.31-20.26,10.77-49.54,18.96-7.89,2.21-21.11,5.91-37.74,10.78-6.72,1.97-17.15,5.05-30.52,9.89-7.27,2.63-10.9,3.95-13.98,5.4-11.63,5.47-24.93,11.73-28.88,23.11-2.48,7.15.21,14.91,5.6,30.44,1.63,4.69,5.43,14.71,9.59,28.12.88,2.85,2.24,7.38,1.64,13.23-.55,5.36-2.51,9.52-4,12.09"/>
          <path class="cls-2" d="m219.12,81.54c-2.47,2.76-6.29,6.65-11.51,10.58-11.02,8.31-20.26,10.77-49.54,18.96-7.89,2.21-21.11,5.91-37.74,10.78-6.72,1.97-17.15,5.05-30.52,9.89-7.27,2.63-10.9,3.95-13.98,5.4-11.63,5.47-24.93,11.73-28.88,23.11-2.48,7.15.21,14.91,5.6,30.44,1.63,4.69,5.43,14.71,9.59,28.12.88,2.85,2.24,7.38,1.64,13.23-.55,5.36-2.51,9.52-4,12.09"/>
          <path class="cls-2" d="m222.13,83.89c-2.47,2.76-6.29,6.65-11.51,10.58-11.02,8.31-20.26,10.77-49.54,18.96-7.89,2.21-21.11,5.91-37.74,10.78-6.72,1.97-17.15,5.05-30.52,9.89-7.27,2.63-10.9,3.95-13.98,5.4-11.63,5.47-24.93,11.73-28.88,23.11-2.48,7.15.21,14.91,5.6,30.44,1.63,4.69,5.43,14.71,9.59,28.12.88,2.85,2.24,7.38,1.64,13.23-.55,5.36-2.51,9.52-4,12.09"/>
          <path class="cls-2" d="m225.15,86.24c-2.47,2.76-6.29,6.65-11.51,10.58-11.02,8.31-20.26,10.77-49.54,18.96-7.89,2.21-21.11,5.91-37.74,10.78-6.72,1.97-17.15,5.05-30.52,9.89-7.27,2.63-10.9,3.95-13.98,5.4-11.63,5.47-24.93,11.73-28.88,23.11-2.48,7.15.21,14.91,5.6,30.44,1.63,4.69,5.43,14.71,9.59,28.12.88,2.85,2.24,7.38,1.64,13.23-.55,5.36-2.51,9.52-4,12.09"/>
          <path class="cls-2" d="m228.16,88.59c-2.47,2.76-6.29,6.65-11.51,10.58-11.02,8.31-20.26,10.77-49.54,18.96-7.89,2.21-21.11,5.91-37.74,10.78-6.72,1.97-17.15,5.05-30.52,9.89-7.27,2.63-10.9,3.95-13.98,5.4-11.63,5.47-24.93,11.73-28.88,23.11-2.48,7.15.21,14.91,5.6,30.44,1.63,4.69,5.43,14.71,9.59,28.12.88,2.85,2.24,7.38,1.64,13.23-.55,5.36-2.51,9.52-4,12.09"/>
          <path class="cls-2" d="m231.18,90.94c-2.47,2.76-6.29,6.65-11.51,10.58-11.02,8.31-20.26,10.77-49.54,18.96-7.89,2.21-21.11,5.91-37.74,10.78-6.72,1.97-17.15,5.05-30.52,9.89-7.27,2.63-10.9,3.95-13.98,5.4-11.63,5.47-24.93,11.73-28.88,23.11-2.48,7.15.21,14.91,5.6,30.44,1.63,4.69,5.43,14.71,9.59,28.12.88,2.85,2.24,7.38,1.64,13.23-.55,5.36-2.51,9.52-4,12.09"/>
          <path class="cls-2" d="m234.19,93.29c-2.47,2.76-6.29,6.65-11.51,10.58-11.02,8.31-20.26,10.77-49.54,18.96-7.89,2.21-21.11,5.91-37.74,10.78-6.72,1.97-17.15,5.05-30.52,9.89-7.27,2.63-10.9,3.95-13.98,5.4-11.63,5.47-24.93,11.73-28.88,23.11-2.48,7.15.21,14.91,5.6,30.44,1.63,4.69,5.43,14.71,9.59,28.12.88,2.85,2.24,7.38,1.64,13.23-.55,5.36-2.51,9.52-4,12.09"/>
          <path class="cls-2" d="m237.21,95.64c-2.47,2.76-6.29,6.65-11.51,10.58-11.02,8.31-20.26,10.77-49.54,18.96-7.89,2.21-21.11,5.91-37.74,10.78-6.72,1.97-17.15,5.05-30.52,9.89-7.27,2.63-10.9,3.95-13.98,5.4-11.63,5.47-24.93,11.73-28.88,23.11-2.48,7.15.21,14.91,5.6,30.44,1.63,4.69,5.43,14.71,9.59,28.12.88,2.85,2.24,7.38,1.64,13.23-.55,5.36-2.51,9.52-4,12.09"/>
          <path class="cls-2" d="m240.22,97.99c-2.47,2.76-6.29,6.65-11.51,10.58-11.02,8.31-20.26,10.77-49.54,18.96-7.89,2.21-21.11,5.91-37.74,10.78-6.72,1.97-17.15,5.05-30.52,9.89-7.27,2.63-10.9,3.95-13.98,5.4-11.63,5.47-24.93,11.73-28.88,23.11-2.48,7.15.21,14.91,5.6,30.44,1.63,4.69,5.43,14.71,9.59,28.12.88,2.85,2.24,7.38,1.64,13.23-.55,5.36-2.51,9.52-4,12.09"/>
          <path class="cls-2" d="m243.24,100.34c-2.47,2.76-6.29,6.65-11.51,10.58-11.02,8.31-20.26,10.77-49.54,18.96-7.89,2.21-21.11,5.91-37.74,10.78-6.72,1.97-17.15,5.05-30.52,9.89-7.27,2.63-10.9,3.95-13.98,5.4-11.63,5.47-24.93,11.73-28.88,23.11-2.48,7.15.21,14.91,5.6,30.44,1.63,4.69,5.43,14.71,9.59,28.12.88,2.85,2.24,7.38,1.64,13.23-.55,5.36-2.51,9.52-4,12.09"/>
          <path class="cls-2" d="m246.25,102.69c-2.47,2.76-6.29,6.65-11.51,10.58-11.02,8.31-20.26,10.77-49.54,18.96-7.89,2.21-21.11,5.91-37.74,10.78-6.72,1.97-17.15,5.05-30.52,9.89-7.27,2.63-10.9,3.95-13.98,5.4-11.63,5.47-24.93,11.73-28.88,23.11-2.48,7.15.21,14.91,5.6,30.44,1.63,4.69,5.43,14.71,9.59,28.12.88,2.85,2.24,7.38,1.64,13.23-.55,5.36-2.51,9.52-4,12.09"/>
          <path class="cls-2" d="m249.27,105.04c-2.47,2.76-6.29,6.65-11.51,10.58-11.02,8.31-20.26,10.77-49.54,18.96-7.89,2.21-21.11,5.91-37.74,10.78-6.72,1.97-17.15,5.05-30.52,9.89-7.27,2.63-10.9,3.95-13.98,5.4-11.63,5.47-24.93,11.73-28.88,23.11-2.48,7.15.21,14.91,5.6,30.44,1.63,4.69,5.43,14.71,9.59,28.12.88,2.85,2.24,7.38,1.64,13.23-.55,5.36-2.51,9.52-4,12.09"/>
          <path class="cls-2" d="m252.28,107.39c-2.47,2.76-6.29,6.65-11.51,10.58-11.02,8.31-20.26,10.77-49.54,18.96-7.89,2.21-21.11,5.91-37.74,10.78-6.72,1.97-17.15,5.05-30.52,9.89-7.27,2.63-10.9,3.95-13.98,5.4-11.63,5.47-24.93,11.73-28.88,23.11-2.48,7.15.21,14.91,5.6,30.44,1.63,4.69,5.43,14.71,9.59,28.12.88,2.85,2.24,7.38,1.64,13.23-.55,5.36-2.51,9.52-4,12.09"/>
          <path class="cls-2" d="m255.3,109.74c-2.47,2.76-6.29,6.65-11.51,10.58-11.02,8.31-20.26,10.77-49.54,18.96-7.89,2.21-21.11,5.91-37.74,10.78-6.72,1.97-17.15,5.05-30.52,9.89-7.27,2.63-10.9,3.95-13.98,5.4-11.63,5.47-24.93,11.73-28.88,23.11-2.48,7.15.21,14.91,5.6,30.44,1.63,4.69,5.43,14.71,9.59,28.12.88,2.85,2.24,7.38,1.64,13.23-.55,5.36-2.51,9.52-4,12.09"/>
          <path class="cls-2" d="m258.31,112.09c-2.47,2.76-6.29,6.65-11.51,10.58-11.02,8.31-20.26,10.77-49.54,18.96-7.89,2.21-21.11,5.91-37.74,10.78-6.72,1.97-17.15,5.05-30.52,9.89-7.27,2.63-10.9,3.95-13.98,5.4-11.63,5.47-24.93,11.73-28.88,23.11-2.48,7.15.21,14.91,5.6,30.44,1.63,4.69,5.43,14.71,9.59,28.12.88,2.85,2.24,7.38,1.64,13.23-.55,5.36-2.51,9.52-4,12.09"/>
          <path class="cls-2" d="m261.33,114.44c-2.47,2.76-6.29,6.65-11.51,10.58-11.02,8.31-20.26,10.77-49.54,18.96-7.89,2.21-21.11,5.91-37.74,10.78-6.72,1.97-17.15,5.05-30.52,9.89-7.27,2.63-10.9,3.95-13.98,5.4-11.63,5.47-24.93,11.73-28.88,23.11-2.48,7.15.21,14.91,5.6,30.44,1.63,4.69,5.43,14.71,9.59,28.12.88,2.85,2.24,7.38,1.64,13.23-.55,5.36-2.51,9.52-4,12.09"/>
          <path class="cls-2" d="m264.34,116.79c-2.47,2.76-6.29,6.65-11.51,10.58-11.02,8.31-20.26,10.77-49.54,18.96-7.89,2.21-21.11,5.91-37.74,10.78-6.72,1.97-17.15,5.05-30.52,9.89-7.27,2.63-10.9,3.95-13.98,5.4-11.63,5.47-24.93,11.73-28.88,23.11-2.48,7.15.21,14.91,5.6,30.44,1.63,4.69,5.43,14.71,9.59,28.12.88,2.85,2.24,7.38,1.64,13.23-.55,5.36-2.51,9.52-4,12.09"/>
        </g>
        <path class="cls-1" d="m80.69,198.45c.3-3.4.8-6.42,1.56-8.96,7.69-25.74,33.77-41.75,71.45-54.54,18.84-6.39,40.59-11.98,64.38-17.57l-39.94,39.94c-5.54,1.09-10.92,2.23-16.07,3.42-44.11,10.19-66.72,24.73-61.55,50.12.66,3.23,1.29,6.33,1.91,9.32l-21.73-21.73Z"/>
        <path class="cls-1" d="m155.81,7.17c-.3,3.4-.8,6.42-1.56,8.96-7.69,25.74-33.77,41.75-71.45,54.54-18.84,6.39-40.59,11.98-64.38,17.57l39.94-39.94c5.54-1.09,10.92-2.23,16.07-3.42,44.11-10.19,66.72-24.73,61.55-50.12-.66-3.23-1.29-6.33-1.91-9.32l21.73,21.73Z"/>
      </g>
    </g>
  </g>
</svg>