<?xml version="1.0" encoding="UTF-8"?><svg id="Camada_2" xmlns="http://www.w3.org/2000/svg" viewBox="0 0 336.92 131.91"><defs><style>.cls-1{fill:#fff;}.cls-2{fill:#ed7203;}.cls-3{fill:#ffd854;}</style></defs><g id="Camada_1-2"><g><path class="cls-1" d="M311.05,0V90.73c-.04,19.44-15.82,35.23-35.26,35.26H76.33c-.52-2.05-2.37-3.56-4.58-3.56-2.62,0-4.74,2.12-4.74,4.74s2.12,4.74,4.74,4.74c2.21,0,4.06-1.52,4.58-3.56h199.46c20.74,0,37.61-16.87,37.61-37.61V0h-2.35Z"/><path class="cls-1" d="M336.92,16.65H184.91c-.52-2.05-2.37-3.56-4.58-3.56-2.62,0-4.74,2.12-4.74,4.74s2.12,4.74,4.74,4.74c2.21,0,4.06-1.52,4.58-3.56h152.01v-2.35h0Z"/><path class="cls-3" d="M0,31.78H298.78v47.26c0,19.37-15.73,35.1-35.1,35.1H0V31.78H0Z"/><g><path class="cls-2" d="M76.52,74.35c-.75,8.57-6.29,13.9-15.71,13.9s-14.18-5.33-13.43-13.9l1.89-21.67h8.02l-1.83,20.92c-.38,4.38,1.79,7.47,5.92,7.47s6.79-3.09,7.18-7.47l1.83-20.92h8.02l-1.89,21.67Z"/><path class="cls-2" d="M104.15,69.92l-1.54,17.63h-7.87l1.38-15.84c.19-2.19-.75-3.34-3.15-3.34-1.34,0-2.77,.35-4.05,.8l-1.6,18.38h-7.87l2.17-24.91h5.08l.79,1.75c2.37-1.5,5.34-2.44,8.63-2.44,5.53,0,8.45,3.04,8.02,7.97Z"/><path class="cls-2" d="M114.67,87.55h-7.87l2.17-24.91h7.87l-2.17,24.91Zm3.67-32.93c-.24,2.79-2.29,4.58-5.08,4.58s-4.62-1.79-4.38-4.58c.23-2.69,2.29-4.53,5.18-4.53s4.52,1.84,4.29,4.53Z"/><path class="cls-2" d="M145.47,50.19l-3.26,37.36h-5.08l-.67-1.49c-1.76,1.34-3.93,2.19-6.87,2.19-7.07,0-11.58-4.88-10.88-12.85,.7-8.02,6.3-13.45,13.58-13.45,1.69,0,3.07,.25,4.27,.7l1.09-12.45h7.82Zm-13.78,31.73c1.2,0,2.27-.3,3.26-.85l1.09-12.45c-.96-.4-1.94-.6-2.99-.6-3.49,0-5.82,2.79-6.2,7.12-.36,4.13,1.55,6.77,4.84,6.77Z"/><path class="cls-2" d="M168.72,70.87l-1.46,16.69h-4.83l-.92-1.49c-1.97,1.45-4.18,2.19-7.16,2.19-5.63,0-8.93-3.24-8.54-7.72,.41-4.68,4.06-7.67,10.43-7.67h4.43l.03-.4c.23-2.64-1.45-3.88-5.14-3.88-1.99,0-4.51,.35-6.86,.95l-.71-6.13c3.37-.95,7-1.44,10.29-1.44,8.07,0,10.87,3.83,10.43,8.92Zm-11.78,11.71c1,0,2.01-.2,2.94-.6l.37-4.28h-2.99c-2.14,0-3.22,.95-3.35,2.39-.13,1.5,.98,2.49,3.02,2.49Z"/><path class="cls-2" d="M197.57,50.19l-3.26,37.36h-5.08l-.67-1.49c-1.76,1.34-3.93,2.19-6.87,2.19-7.07,0-11.58-4.88-10.88-12.85,.7-8.02,6.3-13.45,13.58-13.45,1.69,0,3.07,.25,4.27,.7l1.09-12.45h7.82Zm-13.78,31.73c1.2,0,2.27-.3,3.26-.85l1.09-12.45c-.96-.4-1.94-.6-2.99-.6-3.49,0-5.82,2.79-6.2,7.12-.36,4.13,1.55,6.77,4.84,6.77Z"/><path class="cls-2" d="M221.38,86.16c-3.07,1.49-6.41,2.09-9.84,2.09-9.21,0-13.9-5.08-13.2-13.1,.67-7.72,6.13-13.2,14.2-13.2,6.82,0,10.52,3.83,9.94,10.51-.1,1.15-.42,3.09-1,4.63h-15.14c.55,3.34,3.07,4.78,7.35,4.78,2.24,0,4.16-.35,6.68-1.2l1.02,5.48Zm-14.58-14.4h8.42l.03-.35c.2-2.24-1.25-3.93-3.49-3.93s-4.08,1.69-4.96,4.28Z"/><path class="cls-2" d="M256.51,77.39c-.55,6.28-6.08,10.86-15.59,10.86-3.34,0-6.57-.6-9.19-1.45l1.94-6.23c2.49,.6,4.75,.95,6.84,.95,4.73,0,7.24-1.89,7.45-4.33,.23-2.69-1.93-4.13-6.26-4.13h-3.49l.62-7.07h3.98c4.73,0,6.5-1.49,6.71-3.79,.17-1.99-1.43-3.54-6.17-3.54-2.19,0-4.51,.35-7.51,1l-.54-6.33c3.11-.8,6.94-1.34,10.38-1.34,8.12,0,12.06,3.39,11.59,8.72-.39,4.43-3.47,7.27-7.06,8.47,4.1,1,6.7,3.69,6.3,8.22Z"/></g></g></g></svg>