{
  "accessors": [
    {
      "bufferView": 2,
      "componentType": 5126,
      "count": 30759,
      "max": [
        72.18028259277344,
        7.614593505859375,
        24.943429946899414
      ],
      "min": [
        -72.17843627929688,
        -127.56197357177734,
        -25.94114875793457
      ],
      "type": "VEC3"
    },
    {
      "bufferView": 2,
      "byteOffset": 369108,
      "componentType": 5126,
      "count": 30759,
      "max": [
        0.9999998211860657,
        0.9999300241470337,
        1.0
      ],
      "min": [
        -0.9999997615814209,
        -1.0,
        -0.9999988079071045
      ],
      "type": "VEC3"
    },
    {
      "bufferView": 3,
      "componentType": 5126,
      "count": 30759,
      "max": [
        1.0,
        1.0,
        0.9999946355819702,
        1.0
      ],
      "min": [
        -0.9999915361404419,
        -1.0,
        -1.0,
        -1.0
      ],
      "type": "VEC4"
    },
    {
      "bufferView": 1,
      "componentType": 5126,
      "count": 30759,
      "max": [
        0.9564027786254883,
        0.9980079531669617
      ],
      "min": [
        0.0019089877605438232,
        0.0019919872283935547
      ],
      "type": "VEC2"
    },
    {
      "bufferView": 1,
      "byteOffset": 246072,
      "componentType": 5126,
      "count": 30759,
      "max": [
        0.9564027786254883,
        0.9980079531669617
      ],
      "min": [
        0.0019089877605438232,
        0.0019919872283935547
      ],
      "type": "VEC2"
    },
    {
      "bufferView": 1,
      "byteOffset": 492144,
      "componentType": 5126,
      "count": 30759,
      "max": [
        0.9564027786254883,
        0.9980079531669617
      ],
      "min": [
        0.0019089877605438232,
        0.0019919872283935547
      ],
      "type": "VEC2"
    },
    {
      "bufferView": 1,
      "byteOffset": 738216,
      "componentType": 5126,
      "count": 30759,
      "max": [
        0.9564027786254883,
        0.9980079531669617
      ],
      "min": [
        0.0019089877605438232,
        0.0019919872283935547
      ],
      "type": "VEC2"
    },
    {
      "bufferView": 0,
      "componentType": 5125,
      "count": 120048,
      "type": "SCALAR"
    },
    {
      "bufferView": 2,
      "byteOffset": 738216,
      "componentType": 5126,
      "count": 2412,
      "max": [
        64.55225372314453,
        3.609037399291992,
        24.361196517944336
      ],
      "min": [
        -64.55184936523438,
        -2.7558975219726563,
        -24.416501998901367
      ],
      "type": "VEC3"
    },
    {
      "bufferView": 2,
      "byteOffset": 767160,
      "componentType": 5126,
      "count": 2412,
      "max": [
        0.9804474115371704,
        0.9999988079071045,
        0.846443772315979
      ],
      "min": [
        -0.9804472923278809,
        -1.0,
        -0.9753643274307251
      ],
      "type": "VEC3"
    },
    {
      "bufferView": 3,
      "byteOffset": 492144,
      "componentType": 5126,
      "count": 2412,
      "max": [
        0.9602117538452148,
        0.9992185831069946,
        1.0,
        -1.0
      ],
      "min": [
        -0.9876542091369629,
        -0.9992185831069946,
        -0.9999988079071045,
        -1.0
      ],
      "type": "VEC4"
    },
    {
      "bufferView": 1,
      "byteOffset": 984288,
      "componentType": 5126,
      "count": 2412,
      "max": [
        0.9564027190208435,
        0.9980079531669617
      ],
      "min": [
        0.32334083318710327,
        0.3449816107749939
      ],
      "type": "VEC2"
    },
    {
      "bufferView": 1,
      "byteOffset": 1003584,
      "componentType": 5126,
      "count": 2412,
      "max": [
        0.9564027190208435,
        0.9980079531669617
      ],
      "min": [
        0.32334083318710327,
        0.3449816107749939
      ],
      "type": "VEC2"
    },
    {
      "bufferView": 1,
      "byteOffset": 1022880,
      "componentType": 5126,
      "count": 2412,
      "max": [
        0.9564027190208435,
        0.9980079531669617
      ],
      "min": [
        0.32334083318710327,
        0.3449816107749939
      ],
      "type": "VEC2"
    },
    {
      "bufferView": 1,
      "byteOffset": 1042176,
      "componentType": 5126,
      "count": 2412,
      "max": [
        0.9564027190208435,
        0.9980079531669617
      ],
      "min": [
        0.32334083318710327,
        0.3449816107749939
      ],
      "type": "VEC2"
    },
    {
      "bufferView": 0,
      "byteOffset": 480192,
      "componentType": 5125,
      "count": 12888,
      "type": "SCALAR"
    }
  ],
  "asset": {
    "extras": {
      "author": "raldlegaspigerald (https://sketchfab.com/raldlegaspigerald)",
      "license": "CC-BY-4.0 (http://creativecommons.org/licenses/by/4.0/)",
      "source": "https://sketchfab.com/3d-models/eyeglass-154e3f7fdd8544fd88d560b9cb73063f",
      "title": "EyeGlass"
    },
    "generator": "Sketchfab-15.25.0",
    "version": "2.0"
  },
  "bufferViews": [
    {
      "buffer": 0,
      "byteLength": 531744,
      "name": "floatBufferViews",
      "target": 34963
    },
    {
      "buffer": 0,
      "byteLength": 1061472,
      "byteOffset": 531744,
      "byteStride": 8,
      "name": "floatBufferViews",
      "target": 34962
    },
    {
      "buffer": 0,
      "byteLength": 796104,
      "byteOffset": 1593216,
      "byteStride": 12,
      "name": "floatBufferViews",
      "target": 34962
    },
    {
      "buffer": 0,
      "byteLength": 530736,
      "byteOffset": 2389320,
      "byteStride": 16,
      "name": "floatBufferViews",
      "target": 34962
    }
  ],
  "buffers": [
    {
      "byteLength": 2920056,
      "uri": "scene.bin"
    }
  ],
  "images": [
    {
      "uri": "textures/Material.005_baseColor.png"
    },
    {
      "uri": "textures/Material.005_metallicRoughness.png"
    },
    {
      "uri": "textures/Material.005_normal.png"
    },
    {
      "uri": "textures/Material.004_baseColor.png"
    },
    {
      "uri": "textures/Material.004_metallicRoughness.png"
    },
    {
      "uri": "textures/Material.004_normal.png"
    }
  ],
  "materials": [
    {
      "doubleSided": true,
      "name": "Material.005",
      "normalTexture": {
        "index": 2
      },
      "pbrMetallicRoughness": {
        "baseColorTexture": {
          "index": 0
        },
        "metallicRoughnessTexture": {
          "index": 1
        }
      }
    },
    {
      "alphaMode": "BLEND",
      "name": "Material.004",
      "normalTexture": {
        "index": 5
      },
      "pbrMetallicRoughness": {
        "baseColorTexture": {
          "index": 3
        },
        "metallicRoughnessTexture": {
          "index": 4
        }
      }
    }
  ],
  "meshes": [
    {
      "name": "Object_0",
      "primitives": [
        {
          "attributes": {
            "NORMAL": 1,
            "POSITION": 0,
            "TANGENT": 2,
            "TEXCOORD_0": 3,
            "TEXCOORD_1": 4,
            "TEXCOORD_2": 5,
            "TEXCOORD_3": 6
          },
          "indices": 7,
          "material": 0,
          "mode": 4
        }
      ]
    },
    {
      "name": "Object_1",
      "primitives": [
        {
          "attributes": {
            "NORMAL": 9,
            "POSITION": 8,
            "TANGENT": 10,
            "TEXCOORD_0": 11,
            "TEXCOORD_1": 12,
            "TEXCOORD_2": 13,
            "TEXCOORD_3": 14
          },
          "indices": 15,
          "material": 1,
          "mode": 4
        }
      ]
    }
  ],
  "nodes": [
    {
      "children": [
        1
      ],
      "matrix": [
        1.0,
        0.0,
        0.0,
        0.0,
        0.0,
        2.220446049250313e-16,
        -1.0,
        0.0,
        0.0,
        1.0,
        2.220446049250313e-16,
        0.0,
        0.0,
        0.0,
        0.0,
        1.0
      ],
      "name": "Sketchfab_model"
    },
    {
      "children": [
        2
      ],
      "name": "root"
    },
    {
      "children": [
        3,
        5
      ],
      "matrix": [
        1.0,
        0.0,
        0.0,
        0.0,
        0.0,
        2.220446049250313e-16,
        1.0,
        0.0,
        0.0,
        -1.0,
        2.220446049250313e-16,
        0.0,
        0.0,
        0.0,
        0.0,
        1.0
      ],
      "name": "GLTF_SceneRootNode"
    },
    {
      "children": [
        4
      ],
      "matrix": [
        0.009999999776482582,
        0.0,
        0.0,
        0.0,
        0.0,
        -1.6858739316326353e-09,
        0.00999999977648244,
        0.0,
        0.0,
        -0.00999999977648244,
        -1.6858739316326353e-09,
        0.0,
        0.0,
        0.0,
        0.0,
        1.0
      ],
      "name": "body1_0"
    },
    {
      "mesh": 0,
      "name": "Object_4"
    },
    {
      "children": [
        6
      ],
      "matrix": [
        0.009999999776482582,
        0.0,
        0.0,
        0.0,
        0.0,
        -1.6858739316326353e-09,
        0.00999999977648244,
        0.0,
        0.0,
        -0.00999999977648244,
        -1.6858739316326353e-09,
        0.0,
        0.0,
        0.0,
        0.0,
        1.0
      ],
      "name": "lens2_1"
    },
    {
      "mesh": 1,
      "name": "Object_6"
    }
  ],
  "samplers": [
    {
      "magFilter": 9729,
      "minFilter": 9987,
      "wrapS": 10497,
      "wrapT": 10497
    }
  ],
  "scene": 0,
  "scenes": [
    {
      "name": "Sketchfab_Scene",
      "nodes": [
        0
      ]
    }
  ],
  "textures": [
    {
      "sampler": 0,
      "source": 0
    },
    {
      "sampler": 0,
      "source": 1
    },
    {
      "sampler": 0,
      "source": 2
    },
    {
      "sampler": 0,
      "source": 3
    },
    {
      "sampler": 0,
      "source": 4
    },
    {
      "sampler": 0,
      "source": 5
    }
  ]
}
