{
  "accessors": [
    {
      "bufferView": 2,
      "componentType": 5126,
      "count": 2322,
      "max": [
        115.19425964355469,
        1.2528977394104004,
        14.11691665649414
      ],
      "min": [
        -115.19425964355469,
        -246.6405792236328,
        -70.85340881347656
      ],
      "type": "VEC3"
    },
    {
      "bufferView": 2,
      "byteOffset": 27864,
      "componentType": 5126,
      "count": 2322,
      "max": [
        1.0,
        1.0,
        1.0
      ],
      "min": [
        -1.0,
        -1.0,
        -1.0
      ],
      "type": "VEC3"
    },
    {
      "bufferView": 1,
      "componentType": 5126,
      "count": 2322,
      "max": [
        0.8750001788139343,
        1.0000001192092896
      ],
      "min": [
        0.0,
        0.0
      ],
      "type": "VEC2"
    },
    {
      "bufferView": 0,
      "componentType": 5125,
      "count": 7758,
      "type": "SCALAR"
    },
    {
      "bufferView": 2,
      "byteOffset": 55728,
      "componentType": 5126,
      "count": 564,
      "max": [
        106.39096069335938,
        0.4176311492919922,
        12.607453346252441
      ],
      "min": [
        -106.39096069335938,
        -0.4933977425098419,
        -70.00365447998047
      ],
      "type": "VEC3"
    },
    {
      "bufferView": 2,
      "byteOffset": 62496,
      "componentType": 5126,
      "count": 564,
      "max": [
        0.9432386159896851,
        1.0,
        1.0
      ],
      "min": [
        -0.9432386159896851,
        -1.0,
        -0.016541479155421257
      ],
      "type": "VEC3"
    },
    {
      "bufferView": 1,
      "byteOffset": 18576,
      "componentType": 5126,
      "count": 564,
      "max": [
        0.8750000596046448,
        1.0000001192092896
      ],
      "min": [
        0.1249999925494194,
        0.24999995529651642
      ],
      "type": "VEC2"
    },
    {
      "bufferView": 0,
      "byteOffset": 31032,
      "componentType": 5125,
      "count": 2466,
      "type": "SCALAR"
    }
  ],
  "asset": {
    "extras": {
      "author": "robbotom4 (https://sketchfab.com/robbotom4)",
      "license": "SKETCHFAB Standard (https://sketchfab.com/licenses)",
      "source": "https://sketchfab.com/3d-models/sunglasses-032bd321efb541f5b676a3fd4589550c",
      "title": "Sunglasses"
    },
    "generator": "Sketchfab-15.58.0",
    "version": "2.0"
  },
  "bufferViews": [
    {
      "buffer": 0,
      "byteLength": 40896,
      "name": "floatBufferViews",
      "target": 34963
    },
    {
      "buffer": 0,
      "byteLength": 23088,
      "byteOffset": 40896,
      "byteStride": 8,
      "name": "floatBufferViews",
      "target": 34962
    },
    {
      "buffer": 0,
      "byteLength": 69264,
      "byteOffset": 63984,
      "byteStride": 12,
      "name": "floatBufferViews",
      "target": 34962
    }
  ],
  "buffers": [
    {
      "byteLength": 133248,
      "uri": "scene.bin"
    }
  ],
  "materials": [
    {
      "doubleSided": true,
      "name": "Cube__0",
      "pbrMetallicRoughness": {
        "metallicFactor": 0.0,
        "roughnessFactor": 0.6
      }
    },
    {
      "doubleSided": true,
      "name": "Material.001",
      "pbrMetallicRoughness": {
        "baseColorFactor": [
          0.0,
          0.0,
          0.0,
          1.0
        ],
        "metallicFactor": 0.0
      }
    }
  ],
  "meshes": [
    {
      "name": "Cube__0",
      "primitives": [
        {
          "attributes": {
            "NORMAL": 1,
            "POSITION": 0,
            "TEXCOORD_0": 2
          },
          "indices": 3,
          "material": 0,
          "mode": 4
        }
      ]
    },
    {
      "name": "Cube.001_Material.001_0",
      "primitives": [
        {
          "attributes": {
            "NORMAL": 5,
            "POSITION": 4,
            "TEXCOORD_0": 6
          },
          "indices": 7,
          "material": 1,
          "mode": 4
        }
      ]
    }
  ],
  "nodes": [
    {
      "children": [
        1
      ],
      "matrix": [
        1.0,
        0.0,
        0.0,
        0.0,
        0.0,
        2.220446049250313e-16,
        -1.0,
        0.0,
        0.0,
        1.0,
        2.220446049250313e-16,
        0.0,
        0.0,
        0.0,
        0.0,
        1.0
      ],
      "name": "Sketchfab_model"
    },
    {
      "children": [
        2
      ],
      "matrix": [
        0.009999999776482582,
        0.0,
        0.0,
        0.0,
        0.0,
        0.0,
        0.009999999776482582,
        0.0,
        0.0,
        -0.009999999776482582,
        0.0,
        0.0,
        0.0,
        0.0,
        0.0,
        1.0
      ],
      "name": "fa94a2d24ae147829d6e7ef0e151767d.fbx"
    },
    {
      "children": [
        3,
        5
      ],
      "name": "RootNode"
    },
    {
      "children": [
        4
      ],
      "matrix": [
        2.1233510971069336,
        0.0,
        0.0,
        0.0,
        0.0,
        -5.990609795525204e-07,
        -2.123351097106849,
        0.0,
        0.0,
        2.123351097106849,
        -5.990609795525204e-07,
        0.0,
        0.0,
        67.93799591064453,
        0.0,
        1.0
      ],
      "name": "Cube"
    },
    {
      "mesh": 0,
      "name": "Cube__0"
    },
    {
      "children": [
        6
      ],
      "matrix": [
        2.1233510971069336,
        0.0,
        0.0,
        0.0,
        0.0,
        -5.990609795525204e-07,
        -2.123351097106849,
        0.0,
        0.0,
        2.123351097106849,
        -5.990609795525204e-07,
        0.0,
        0.0,
        67.93799591064453,
        0.0,
        1.0
      ],
      "name": "Cube.001"
    },
    {
      "mesh": 1,
      "name": "Cube.001_Material.001_0"
    }
  ],
  "scene": 0,
  "scenes": [
    {
      "name": "Sketchfab_Scene",
      "nodes": [
        0
      ]
    }
  ]
}
